<?xml version="1.0" encoding="UTF-8"?>
<svg fill="#f76b15" width="512pt" height="512pt" version="1.1" viewBox="0 0 512 512" xmlns="http://www.w3.org/2000/svg">
  <defs>
    <clipPath id="af">
      <path d="m0 455h512v48h-512z" />
    </clipPath>
    <clipPath id="u">
      <path
        d="m255.88 0.12109c-141.39 0-256 114.61-256 256 0 141.39 114.61 256 256 256 141.39 0 256-114.61 256-256 0-141.39-114.61-256-256-256z" />
    </clipPath>
    <clipPath id="j">
      <path d="m0 425h512v48h-512z" />
    </clipPath>
    <clipPath id="f">
      <path
        d="m255.88 0.12109c-141.39 0-256 114.61-256 256 0 141.39 114.61 256 256 256 141.39 0 256-114.61 256-256 0-141.39-114.61-256-256-256z" />
    </clipPath>
    <clipPath id="e">
      <path d="m0 394h512v50h-512z" />
    </clipPath>
    <clipPath id="d">
      <path
        d="m255.88 0.12109c-141.39 0-256 114.61-256 256 0 141.39 114.61 256 256 256 141.39 0 256-114.61 256-256 0-141.39-114.61-256-256-256z" />
    </clipPath>
    <clipPath id="c">
      <path d="m0 364h512v50h-512z" />
    </clipPath>
    <clipPath id="b">
      <path
        d="m255.88 0.12109c-141.39 0-256 114.61-256 256 0 141.39 114.61 256 256 256 141.39 0 256-114.61 256-256 0-141.39-114.61-256-256-256z" />
    </clipPath>
    <clipPath id="a">
      <path d="m0 333h512v52h-512z" />
    </clipPath>
    <clipPath id="ae">
      <path
        d="m255.88 0.12109c-141.39 0-256 114.61-256 256 0 141.39 114.61 256 256 256 141.39 0 256-114.61 256-256 0-141.39-114.61-256-256-256z" />
    </clipPath>
    <clipPath id="ad">
      <path d="m0 303h512v52h-512z" />
    </clipPath>
    <clipPath id="ac">
      <path
        d="m255.88 0.12109c-141.39 0-256 114.61-256 256 0 141.39 114.61 256 256 256 141.39 0 256-114.61 256-256 0-141.39-114.61-256-256-256z" />
    </clipPath>
    <clipPath id="ab">
      <path d="m0 272h512v53h-512z" />
    </clipPath>
    <clipPath id="aa">
      <path
        d="m255.88 0.12109c-141.39 0-256 114.61-256 256 0 141.39 114.61 256 256 256 141.39 0 256-114.61 256-256 0-141.39-114.61-256-256-256z" />
    </clipPath>
    <clipPath id="z">
      <path d="m0 242h512v54h-512z" />
    </clipPath>
    <clipPath id="y">
      <path
        d="m255.88 0.12109c-141.39 0-256 114.61-256 256 0 141.39 114.61 256 256 256 141.39 0 256-114.61 256-256 0-141.39-114.61-256-256-256z" />
    </clipPath>
    <clipPath id="x">
      <path d="m0 211h512v55h-512z" />
    </clipPath>
    <clipPath id="w">
      <path
        d="m255.88 0.12109c-141.39 0-256 114.61-256 256 0 141.39 114.61 256 256 256 141.39 0 256-114.61 256-256 0-141.39-114.61-256-256-256z" />
    </clipPath>
    <clipPath id="v">
      <path d="m0 181h512v56h-512z" />
    </clipPath>
    <clipPath id="t">
      <path
        d="m255.88 0.12109c-141.39 0-256 114.61-256 256 0 141.39 114.61 256 256 256 141.39 0 256-114.61 256-256 0-141.39-114.61-256-256-256z" />
    </clipPath>
    <clipPath id="s">
      <path d="m0 151h512v56h-512z" />
    </clipPath>
    <clipPath id="r">
      <path
        d="m255.88 0.12109c-141.39 0-256 114.61-256 256 0 141.39 114.61 256 256 256 141.39 0 256-114.61 256-256 0-141.39-114.61-256-256-256z" />
    </clipPath>
    <clipPath id="q">
      <path d="m0 120h512v57h-512z" />
    </clipPath>
    <clipPath id="p">
      <path
        d="m255.88 0.12109c-141.39 0-256 114.61-256 256 0 141.39 114.61 256 256 256 141.39 0 256-114.61 256-256 0-141.39-114.61-256-256-256z" />
    </clipPath>
    <clipPath id="o">
      <path d="m0 90h512v58h-512z" />
    </clipPath>
    <clipPath id="n">
      <path
        d="m255.88 0.12109c-141.39 0-256 114.61-256 256 0 141.39 114.61 256 256 256 141.39 0 256-114.61 256-256 0-141.39-114.61-256-256-256z" />
    </clipPath>
    <clipPath id="m">
      <path d="m0 59h512v59h-512z" />
    </clipPath>
    <clipPath id="l">
      <path
        d="m255.88 0.12109c-141.39 0-256 114.61-256 256 0 141.39 114.61 256 256 256 141.39 0 256-114.61 256-256 0-141.39-114.61-256-256-256z" />
    </clipPath>
    <clipPath id="k">
      <path d="m0 29h504v59h-504z" />
    </clipPath>
    <clipPath id="i">
      <path
        d="m255.88 0.12109c-141.39 0-256 114.61-256 256 0 141.39 114.61 256 256 256 141.39 0 256-114.61 256-256 0-141.39-114.61-256-256-256z" />
    </clipPath>
    <clipPath id="h">
      <path d="m0 0h496v59h-496z" />
    </clipPath>
    <clipPath id="g">
      <path
        d="m255.88 0.12109c-141.39 0-256 114.61-256 256 0 141.39 114.61 256 256 256 141.39 0 256-114.61 256-256 0-141.39-114.61-256-256-256z" />
    </clipPath>
  </defs>
  <g>
    <g clip-path="url(#af)">
      <g clip-path="url(#u)">
        <path
          d="m618.3 455.65c1.4961 0 2.7109 1.2148 2.7109 2.7109 0 1.4961-1.2148 2.7109-2.7109 2.7109h-246.96l-86.258 41.531h-355.51c-1.4961 0-2.7109-1.2148-2.7109-2.7109 0-1.4961 1.2148-2.7109 2.7109-2.7109h354.3l86.258-41.531z" />
      </g>
    </g>
    <g clip-path="url(#j)">
      <g clip-path="url(#f)">
        <path
          d="m609.51 425.2c1.7305 0 3.1289 1.4023 3.1289 3.1289 0 1.7305-1.4023 3.1289-3.1289 3.1289h-246.86l-86.258 41.531h-355.6c-1.7305 0-3.1289-1.4023-3.1289-3.1289 0-1.7305 1.4023-3.1289 3.1289-3.1289h354.21l86.258-41.531z" />
      </g>
    </g>
    <g clip-path="url(#e)">
      <g clip-path="url(#d)">
        <path
          d="m600.71 394.73c1.9609 0 3.5508 1.5898 3.5508 3.5508 0 1.9609-1.5898 3.5508-3.5508 3.5508h-246.77l-86.258 41.531h-355.7c-1.9609 0-3.5508-1.5898-3.5508-3.5508 0-1.9609 1.5898-3.5508 3.5508-3.5508h354.11l86.258-41.531z" />
      </g>
    </g>
    <g clip-path="url(#c)">
      <g clip-path="url(#b)">
        <path
          d="m591.91 364.28c2.1953 0 3.9727 1.7773 3.9727 3.9727s-1.7773 3.9727-3.9727 3.9727h-246.68l-86.258 41.531h-355.79c-2.1953 0-3.9727-1.7773-3.9727-3.9727s1.7773-3.9727 3.9727-3.9727h354.02l86.258-41.531z" />
      </g>
    </g>
    <g clip-path="url(#a)">
      <g clip-path="url(#ae)">
        <path
          d="m583.12 333.82c2.4258 0 4.3945 1.9688 4.3945 4.3945 0 2.4258-1.9688 4.3945-4.3945 4.3945h-246.58l-86.258 41.531h-355.88c-2.4258 0-4.3945-1.9688-4.3945-4.3945 0-2.4258 1.9688-4.3945 4.3945-4.3945h353.93l86.258-41.531z" />
      </g>
    </g>
    <g clip-path="url(#ad)">
      <g clip-path="url(#ac)">
        <path
          d="m574.32 303.36c2.6602 0 4.8164 2.1562 4.8164 4.8164 0 2.6602-2.1562 4.8164-4.8164 4.8164h-246.49l-86.258 41.531h-355.98c-2.6602 0-4.8164-2.1562-4.8164-4.8164 0-2.6602 2.1562-4.8164 4.8164-4.8164h353.83l86.258-41.531z" />
      </g>
    </g>
    <g clip-path="url(#ab)">
      <g clip-path="url(#aa)">
        <path
          d="m565.52 272.9c2.8945 0 5.2383 2.3438 5.2383 5.2383s-2.3438 5.2383-5.2383 5.2383h-246.39l-86.258 41.531h-356.07c-2.8945 0-5.2383-2.3438-5.2383-5.2383s2.3438-5.2383 5.2383-5.2383h353.74l86.258-41.531z" />
      </g>
    </g>
    <g clip-path="url(#z)">
      <g clip-path="url(#y)">
        <path
          d="m556.73 242.44c3.125 0 5.6602 2.5352 5.6602 5.6602s-2.5352 5.6602-5.6602 5.6602h-246.3l-86.258 41.531h-356.16c-3.125 0-5.6602-2.5352-5.6602-5.6602s2.5352-5.6602 5.6602-5.6602h353.64l86.258-41.531z" />
      </g>
    </g>
    <g clip-path="url(#x)">
      <g clip-path="url(#w)">
        <path
          d="m547.93 211.98c3.3594 0 6.082 2.7227 6.082 6.082s-2.7227 6.082-6.082 6.082h-246.21l-86.258 41.531h-356.26c-3.3594 0-6.082-2.7227-6.082-6.082s2.7227-6.082 6.082-6.082h353.55l86.258-41.531z" />
      </g>
    </g>
    <g clip-path="url(#v)">
      <g clip-path="url(#t)">
        <path
          d="m539.14 181.52c3.5898 0 6.5039 2.9102 6.5039 6.5039 0 3.5898-2.9102 6.5039-6.5039 6.5039h-246.11l-86.258 41.531h-356.35c-3.5898 0-6.5039-2.9102-6.5039-6.5039 0-3.5898 2.9102-6.5039 6.5039-6.5039h353.46l86.258-41.531h249.01z" />
      </g>
    </g>
    <g clip-path="url(#s)">
      <g clip-path="url(#r)">
        <path
          d="m530.34 151.07c3.8242 0 6.9258 3.1016 6.9258 6.9258 0 3.8242-3.1016 6.9258-6.9258 6.9258h-246.02l-86.258 41.531h-356.45c-3.8242 0-6.9258-3.1016-6.9258-6.9258 0-3.8242 3.1016-6.9258 6.9258-6.9258h353.36l86.258-41.531h249.1z" />
      </g>
    </g>
    <g clip-path="url(#q)">
      <g clip-path="url(#p)">
        <path
          d="m521.54 120.61c4.0586 0 7.3438 3.2891 7.3438 7.3438 0 4.0586-3.2891 7.3438-7.3438 7.3438h-245.92l-86.258 41.531h-356.54c-4.0586 0-7.3438-3.2891-7.3438-7.3438 0-4.0586 3.2891-7.3438 7.3438-7.3438h353.27l86.258-41.531h249.2z" />
      </g>
    </g>
    <g clip-path="url(#o)">
      <g clip-path="url(#n)">
        <path
          d="m512.75 90.148c4.2891 0 7.7656 3.4766 7.7656 7.7656 0 4.2891-3.4766 7.7656-7.7656 7.7656h-245.83l-86.258 41.531h-356.63c-4.2891 0-7.7656-3.4766-7.7656-7.7656 0-4.2891 3.4766-7.7656 7.7656-7.7656h353.18l86.258-41.531h249.29z" />
      </g>
    </g>
    <g clip-path="url(#m)">
      <g clip-path="url(#l)">
        <path
          d="m503.95 59.688c4.5234 0 8.1875 3.668 8.1875 8.1875 0 4.5234-3.668 8.1875-8.1875 8.1875h-245.73l-86.258 41.531h-356.73c-4.5234 0-8.1875-3.668-8.1875-8.1875 0-4.5234 3.668-8.1875 8.1875-8.1875h353.08l86.258-41.531h249.38z" />
      </g>
    </g>
    <g clip-path="url(#k)">
      <g clip-path="url(#i)">
        <path
          d="m495.16 29.23c4.7539 0 8.6094 3.8555 8.6094 8.6094s-3.8555 8.6094-8.6094 8.6094h-245.64l-86.258 41.531h-356.82c-4.7539 0-8.6094-3.8555-8.6094-8.6094s3.8555-8.6094 8.6094-8.6094h352.99l86.258-41.531h249.48z" />
      </g>
    </g>
    <g clip-path="url(#h)">
      <g clip-path="url(#g)">
        <path
          d="m486.36-1.2305c4.9883 0 9.0312 4.043 9.0312 9.0312s-4.043 9.0312-9.0312 9.0312h-245.55l-86.258 41.531h-356.91c-4.9883 0-9.0312-4.043-9.0312-9.0312s4.043-9.0312 9.0312-9.0312h352.89l86.258-41.531h249.57z" />
      </g>
    </g>
  </g>
</svg>