<?xml version="1.0" encoding="UTF-8"?>
<svg width="1200pt" height="1200pt" version="1.1" viewBox="0 0 1200 1200" xmlns="http://www.w3.org/2000/svg"
  fill="#f76b15">
  <path
    d="m598.15 245.54c195.69 0 350.77 155.08 354.46 347.08h247.38v33.23h-247.38v18.461h-705.23v-18.461h-247.38v-33.23h243.69c7.3828-192 162.46-347.08 354.46-347.08zm347.08 432c-3.6914 11.078-3.6914 22.152-7.3828 33.23h-675.69c-3.6914-11.078-7.3828-22.152-7.3828-33.23h690.46zm-22.152 66.461c-3.6914 11.078-11.078 22.152-14.77 29.539h-616.62c-7.3828-7.3828-11.078-18.461-14.77-29.539zm-36.922 66.461c-11.078 11.078-18.461 22.152-25.848 29.539h-520.62c-11.078-7.3828-18.461-18.461-25.848-29.539zm-62.77 66.461c-14.77 11.078-29.539 18.461-44.309 29.539h-358.15c-14.77-11.078-29.539-18.461-44.309-29.539zm-129.23 62.77c-29.539 11.078-62.77 14.77-96 14.77s-62.77-3.6914-96-14.77z"
    fill-rule="evenodd" />
</svg>