<?xml version="1.0" encoding="UTF-8"?>
<svg width="1200pt" height="1200pt" version="1.1" viewBox="0 0 1200 1200" xmlns="http://www.w3.org/2000/svg">
  <path fill="#f76b15"
    d="m166.16 272.32-0.375 0.44922c-6.7109 8.9258-13.164 18.074-19.352 27.375-11.961 18.039-22.801 36.75-32.512 56.062-9.3008 18.488-17.551 37.5-24.676 56.926-3.7109 10.164-7.125 20.477-10.238 30.824v0.039062c-14.812 49.461-22.762 101.81-22.762 156 0 4.1641 0.039062 8.3242 0.14844 12.488-0.11328 0.78906-0.14844 1.5742-0.14844 2.3984 0 1.125 0.11328 2.2109 0.30078 3.2617 1.9492 58.914 13.273 115.46 32.512 168.19l0.039062 0.11328c23.102 63.188 57.602 120.9 100.99 170.66l0.074218 0.074219c99.711 114.3 246.41 186.56 409.84 186.56 269.62 0 493.65-196.65 536.4-454.2 0.67578-1.9141 1.0117-4.0117 1.0117-6.1484v-0.11328l0.074219-0.52344c1.7266-11.324 3.1133-22.688 4.125-34.051 2.4375-27.789 2.8125-55.762 1.0508-83.625-1.0859-16.574-2.8867-33.113-5.4375-49.539l-0.074218-0.33594c-9.5234-60.863-29.211-118.43-57.188-170.85l-0.074219-0.11328c-91.574-171.34-272.21-288-479.89-288-177.07 0-334.54 84.824-433.84 216.07zm81.523 691.05c91.164 88.426 215.44 142.88 352.31 142.88 181.01 0 339.98-95.211 429.49-238.24l-218.29 1.0859c-10.312 0.039063-18.789-8.3242-18.824-18.676-0.039062-10.352 8.3242-18.789 18.637-18.824l239.81-1.1992c20.438-39.898 35.773-82.875 45.039-128.02l-528.79 2.625c-10.312 0.039062-18.789-8.3242-18.824-18.676-0.039062-10.352 8.3242-18.789 18.637-18.824l535.24-2.6641c2.7383-21.227 4.125-42.863 4.125-64.836 0-21.336-1.3125-42.336-3.8984-63l-395.77 1.9883c-10.312 0.039063-18.789-8.3242-18.824-18.676-0.039062-10.352 8.3242-18.789 18.637-18.824l389.89-1.9492c-9.0742-44.961-24.113-87.789-44.25-127.61l-674.25 3.375c-10.352 0.039063-18.824-8.3242-18.863-18.676-0.039062-10.352 8.3242-18.789 18.676-18.824l653.48-3.2617c-29.926-48.449-67.762-91.461-111.71-127.27l-387.15 1.9492c-10.312 0.039062-18.789-8.3242-18.824-18.676-0.039062-10.352 8.3242-18.789 18.637-18.824l335.21-1.6875c-77.625-48.336-169.16-76.273-267.23-76.273-150.86 0-286.43 66.148-379.2 171l79.125-0.375c10.352-0.074218 18.789 8.2891 18.824 18.637 0.039063 10.352-8.3242 18.789-18.676 18.863l-109.54 0.48828c-28.312 38.887-51.262 81.977-67.688 128.14l439.57-2.0234c10.352-0.039063 18.789 8.3242 18.824 18.676 0.039062 10.312-8.3242 18.789-18.676 18.824l-451.43 2.1016c-11.023 40.836-17.023 83.699-17.398 127.88l318.68-1.4609c10.352-0.039063 18.789 8.3242 18.824 18.676 0.039062 10.352-8.3242 18.789-18.676 18.824l-317.74 1.4609c2.8867 44.398 11.512 87.188 25.164 127.73l646.01-3c10.352-0.074219 18.789 8.2891 18.824 18.637 0.039062 10.352-8.3242 18.789-18.676 18.863l-631.91 2.9258c19.836 46.461 46.461 89.363 78.602 127.46l387.07-1.8008c10.352-0.039062 18.789 8.3242 18.824 18.676 0.039062 10.312-8.3242 18.789-18.676 18.824l-352.39 1.6133z"
    fill-rule="evenodd" />
</svg>