<?xml version="1.0" encoding="UTF-8"?>
<svg width="1200pt" height="1200pt" version="1.1" viewBox="0 0 1200 1200" xmlns="http://www.w3.org/2000/svg">
  <path fill="#f76b15"
    d="m600.02 42.266c154.01 0 293.48 62.426 394.38 163.37 100.95 100.91 163.37 240.38 163.37 394.38 0 154.01-62.426 293.44-163.37 394.35-100.91 100.95-240.38 163.37-394.38 163.37-154.01 0-293.48-62.426-394.38-163.33-100.95-100.91-163.37-240.38-163.37-394.38 0-154.01 62.426-293.48 163.33-394.38 100.95-100.95 240.38-163.37 394.38-163.37zm-384.91 909.95 769.83-0.035157c43.02-47.016 77.582-101.92 101.2-162.36h-569.13c-9.8984 0-17.93-8.0273-17.93-17.93 0-9.8984 8.0273-17.93 17.93-17.93h581.66c15.012-48.672 23.078-100.37 23.078-153.94 0-53.605-8.0625-105.3-23.113-153.97l-808.89 0.035156c-9.8984 0-17.93-8.0273-17.93-17.93 0-9.8984 8.0273-17.93 17.93-17.93l796.33-0.035156c-18.254-46.727-43.055-90.18-73.262-129.21l-825.7 0.035157c-64.836 83.773-104.73 187.85-108.58 301.07h604.45c9.8984 0 17.93 8.0273 17.93 17.93 0 9.8984-8.0273 17.93-17.93 17.93h-604.45c4.3203 128.7 55.297 245.59 136.51 334.26zm733.65 35.82-697.47 0.035156c92.414 83.09 214.67 133.67 348.73 133.67 134.07 0 256.36-50.582 348.73-133.71zm-731.2-742.9 764.86-0.035156c-4.3906-4.7539-8.8906-9.4336-13.5-14.004-94.395-94.395-224.86-152.82-368.93-152.82s-274.54 58.395-368.93 152.82c-4.6094 4.6094-9.1094 9.2891-13.5 14.039z" />
</svg>