<?xml version="1.0" encoding="UTF-8"?>
<svg width="1200pt" height="1200pt" version="1.1" viewBox="0 0 1200 1200" xmlns="http://www.w3.org/2000/svg">
  <g fill="#f76b15">
    <path
      d="m390.53 390.53c-51.199 51.199-83.746 121.05-86.566 198.5l546.96-146.56c-11.859-18.852-25.781-36.27-41.453-51.941-53.609-53.609-127.67-86.766-209.47-86.766s-155.87 33.156-209.47 86.766z"
      fill-rule="evenodd" />
    <path
      d="m303.91 609.46c0.62109 19.77 3.1758 39.051 7.4883 57.66l572.11-153.3c-5.6914-18.754-13.195-36.719-22.305-53.691z"
      fill-rule="evenodd" />
    <path
      d="m888.6 532.88-572.11 153.3c5.6914 18.754 13.195 36.719 22.305 53.691l557.3-149.33c-0.62109-19.77-3.1758-39.051-7.4883-57.66z"
      fill-rule="evenodd" />
    <path
      d="m896.04 610.98-546.96 146.56c11.859 18.852 25.781 36.27 41.453 51.941 53.609 53.609 127.67 86.766 209.47 86.766s155.87-33.156 209.47-86.766c51.199-51.199 83.746-121.05 86.566-198.5z"
      fill-rule="evenodd" />
    <path
      d="m609.26 5.4258 250.54 144.65-0.019531 0.03125 250.48 144.62 9.3281 5.3867v599.79l-9.3281 5.3867-250.48 144.62 0.019531 0.03125-250.54 144.65-9.2578 5.3438-9.2578-5.3438-250.54-144.65 0.019531-0.03125-250.48-144.62-9.3281-5.3867v-599.79l9.3281-5.3867 250.48-144.62-0.019531-0.03125 250.54-144.65 9.2578-5.3437zm-9.2578 58.793-183.83 106.14 0.019531 0.03125-280.23 161.79v535.65l280.23 161.79-0.019531 0.03125 183.84 106.14 183.83-106.14-0.019532-0.03125 280.23-161.79v-535.65l-280.23-161.79 0.019532-0.03125z" />
  </g>
</svg>