<?xml version="1.0" encoding="UTF-8"?>
<svg width="1200pt" height="1200pt" version="1.1" viewBox="0 0 1200 1200" xmlns="http://www.w3.org/2000/svg">
  <g fill="#f76b15">
    <path d="m636.67 1099.1c99.551-6.8867 194.7-43.676 272.99-105.55h-272.99z" />
    <path d="m636.67 922h347.41c27.234-32.809 50.309-68.859 68.695-107.33h-416.1z" />
    <path d="m636.67 743.11h444.01c10.449-34.941 16.93-70.945 19.32-107.34h-463.33z" />
    <path d="m1080.7 456.89h-444.01v107.33h463.33c-2.3906-36.387-8.8711-72.395-19.32-107.33z" />
    <path d="m984.08 278h-347.41v107.33h416.1c-18.387-38.473-41.457-74.523-68.695-107.33z" />
    <path d="m636.67 100.89v105.55h272.99c-78.289-61.871-173.44-98.66-272.99-105.55z" />
    <path
      d="m100 600c0.25391 126.53 48.328 248.28 134.59 340.85 86.262 92.566 204.33 149.1 330.53 158.26v-998.21c-126.2 9.1602-244.27 65.691-330.53 158.26-86.262 92.566-134.34 214.32-134.59 340.85z" />
  </g>
</svg>