<?xml version="1.0" encoding="UTF-8"?>
<svg width="1200pt" height="1200pt" version="1.1" viewBox="0 0 1200 1200" xmlns="http://www.w3.org/2000/svg">
  <path fill="#f76b15"
    d="m172.01 264.71 127.91-0.33594c10.352-0.074219 18.789 8.2891 18.824 18.637 0.039062 10.352-8.3242 18.789-18.676 18.863l-155.06 0.41406c-25.875 39.449-46.762 82.461-61.727 128.1l479.14-1.9141c10.352-0.039062 18.789 8.3242 18.824 18.676 0.039062 10.312-8.3242 18.789-18.676 18.824l-490.16 1.9492c-10.238 41.023-15.824 83.852-16.164 127.91l356.18-1.3516c10.352-0.039062 18.789 8.3242 18.824 18.676 0.039062 10.352-8.3242 18.789-18.676 18.824l-355.31 1.3516c2.6641 44.211 10.648 86.961 23.25 127.69l685.5-2.8516c10.352-0.074219 18.789 8.2891 18.824 18.637 0.039063 10.352-8.3242 18.789-18.676 18.863l-672.49 2.7734c18 45.863 42.074 88.688 71.176 127.5l435.07-1.6875c10.352-0.039063 18.789 8.3242 18.824 18.676 0.039063 10.312-8.3242 18.789-18.676 18.824l-404.48 1.5742c99.562 110.74 243.9 180.41 404.4 180.41 202.65 0 379.57-111.11 473.06-275.66l-261.86 1.0117c-10.312 0.039063-18.789-8.3242-18.824-18.676-0.039063-10.352 8.3242-18.789 18.637-18.824l281.51-1.0859c18.898-40.238 33-83.137 41.551-128.02l-567 2.5117c-10.312 0.039062-18.789-8.3242-18.824-18.676-0.039063-10.352 8.3242-18.789 18.637-18.824l573-2.5117c2.5508-21.301 3.8633-42.977 3.8633-64.988 0-21.262-1.2383-42.227-3.6016-62.852l-433.57 1.8359c-10.312 0.039063-18.789-8.3242-18.824-18.676-0.039063-10.352 8.3242-18.789 18.637-18.824l428.1-1.8008c-8.3242-44.699-22.164-87.449-40.727-127.61l-715.99 3.2266c-10.352 0.039063-18.824-8.3242-18.863-18.676-0.039062-10.352 8.3242-18.789 18.676-18.824l697.05-3.1484c-26.477-47.211-59.812-90.113-98.664-127.31l-443.77 1.875c-10.312 0.039062-18.789-8.3242-18.824-18.676-0.039063-10.352 8.3242-18.789 18.637-18.824l400.73-1.6875c-91.988-71.289-207.45-113.77-332.74-113.77-173.66 0-328.43 81.602-427.99 208.46z"
    fill-rule="evenodd" />
</svg>