<?xml version="1.0" encoding="UTF-8"?>
<svg width="1200pt" height="1200pt" version="1.1" viewBox="0 0 1200 1200" xmlns="http://www.w3.org/2000/svg">
  <g fill="#f76b15">
    <path
      d="m202.34 956.12c7.0312 7.832 14.297 15.477 21.793 22.934 1.1992 1.1992 2.3984 2.4609 3.6016 3.6602l288.45-0.003906c8.3555-0.023438 16.359-3.3516 22.27-9.2578 5.9062-5.9062 9.2383-13.91 9.2656-22.266-0.007812-8.3594-3.332-16.375-9.2461-22.289-5.9102-5.9102-13.926-9.2383-22.289-9.2461h-343.89c0.30078 0.40625 0.57422 0.82812 0.88672 1.1992 7.3555 9.7695 15.133 19.273 23.195 28.559 1.957 2.293 4.0195 4.4883 5.9648 6.7109z" />
    <path
      d="m1099.2 789.67c0.73047-1.9453 1.5234-3.8867 2.2422-5.832 2.3984-6.6719 4.8008-13.379 6.9492-20.137 0.085937-0.26562 0.15625-0.53906 0.23828-0.80469 2.0625-6.4492 3.9961-12.93 5.7969-19.441 0.625-2.2305 1.1992-4.4766 1.7656-6.7188 1.1992-4.5703 2.3984-9.1562 3.4805-13.766 0.625-2.6758 1.1992-5.3633 1.7891-8.0508 0.92578-4.2227 1.8242-8.3984 2.6523-12.684 0.55078-2.8438 1.0664-5.6992 1.5703-8.5547 0.72656-4.1602 1.4141-8.3359 2.0625-12.527 0.43359-2.8555 0.83203-5.7188 1.1992-8.5938 0.21484-1.5586 0.37109-3.1445 0.57422-4.7031h-183.74c-8.3594 0.007813-16.375 3.3281-22.289 9.2383-5.9141 5.9102-9.2383 13.926-9.25 22.285-0.03125 15.016-6.0117 29.406-16.633 40.016-10.621 10.613-25.016 16.582-40.031 16.602h-24.777c-8.3633 0.007812-16.379 3.3359-22.289 9.2461-5.9141 5.9141-9.2383 13.93-9.2461 22.289 0.007813 8.3672 3.332 16.391 9.2422 22.312 5.9102 5.9219 13.926 9.2578 22.293 9.2852h254.2c1.1992-2.7227 2.3984-5.4492 3.6016-8.1836 1.043-2.3984 2.125-4.8828 3.1328-7.332 1.9297-4.6211 3.7305-9.2773 5.4688-13.945z" />
    <path
      d="m173.18 279.12c-9.4805 12.586-18.359 25.516-26.641 38.797-1.3203 2.125-2.5547 4.2969-3.8516 6.4336-2.7461 4.5469-5.4727 9.1094-8.0742 13.727-1.4648 2.6055-2.8555 5.2422-4.2852 7.8711-2.293 4.2461-4.5586 8.5078-6.7422 12.816-1.4297 2.8086-2.8086 5.6523-4.1758 8.4961-2.0391 4.2227-4.0312 8.3984-6 12.742-1.3203 2.9023-2.6094 5.8203-3.8633 8.7461-1.8594 4.332-3.6016 8.7109-5.3984 13.105-1.1992 2.9023-2.3281 5.8086-3.4336 8.7344-0.46875 1.1992-0.875 2.4727-1.3203 3.6953l597.72 0.003906c8.3555-0.007812 16.363-3.3242 22.277-9.2266 5.9141-5.9023 9.2461-13.906 9.2695-22.262-0.027343-8.3594-3.3633-16.363-9.2734-22.273-5.9102-5.9062-13.918-9.2383-22.273-9.2617h-72.375c-15.02-0.019531-29.422-5.9961-40.043-16.621-10.625-10.621-16.602-25.023-16.621-40.043-0.003906-8.3633-3.3281-16.379-9.2383-22.293-5.9102-5.9141-13.922-9.2422-22.285-9.2578h-350.66c-2.7852 3.4336-5.5234 6.8867-8.2188 10.367-1.4883 1.875-3.0234 3.7812-4.4883 5.7031z" />
    <path
      d="m638.73 518.72c-6.0156 5.8789-9.3828 13.949-9.3359 22.355 0.011718 8.3633 3.3359 16.379 9.25 22.289 5.9102 5.9141 13.926 9.2383 22.289 9.25h472.32c-1.125-21.145-3.4609-42.207-6.9961-63.086h-465.32c-8.3398-0.058594-16.348 3.2578-22.203 9.1914z" />
    <path
      d="m660.94 597.74c-15.023-0.015626-29.426-5.9922-40.047-16.617-10.625-10.621-16.598-25.023-16.617-40.047 0.019531-15.023 5.9922-29.426 16.617-40.051 10.621-10.621 25.023-16.602 40.047-16.625h460.41c-28.27-127.58-102.34-240.37-208.2-317-105.85-76.629-236.13-111.78-366.16-98.789-130.03 12.984-250.78 73.207-339.39 169.26h328.92-0.003907c15.023 0.019531 29.43 5.9961 40.051 16.621 10.625 10.625 16.598 25.031 16.613 40.055 0.011718 8.3594 3.332 16.375 9.2422 22.285 5.9102 5.9141 13.922 9.2383 22.281 9.2539h72.371c15.039 0.011718 29.457 5.9883 40.09 16.621 10.633 10.633 16.609 25.051 16.625 40.09-0.015625 15.023-5.9922 29.43-16.621 40.055-10.625 10.621-25.031 16.598-40.055 16.609h-606.31c-16.496 51.914-24.859 106.07-24.805 160.54 0 14.641 0.73047 28.859 1.8359 42.719h517.77c15.02 0.019531 29.422 5.9961 40.043 16.617 10.625 10.625 16.602 25.027 16.621 40.047-0.023437 15.02-6.0039 29.414-16.625 40.027-10.625 10.613-25.023 16.582-40.039 16.59h-496.3c14.949 49.074 36.945 95.715 65.305 138.47h361.58c15.023 0.019531 29.43 5.9961 40.051 16.621 10.625 10.625 16.598 25.031 16.613 40.055-0.023438 15.02-6.0039 29.418-16.625 40.039-10.621 10.621-25.02 16.598-40.039 16.625h-260.71c82.012 69.359 183.04 112.35 289.89 123.36 106.84 11 214.52-10.496 308.94-61.688 94.426-51.188 171.2-129.68 220.29-225.21h-241.8c-15.023-0.027344-29.422-6.0078-40.043-16.629-10.621-10.625-16.598-25.027-16.621-40.047 0.019531-15.023 5.9961-29.426 16.617-40.047 10.621-10.625 25.023-16.602 40.047-16.617h24.77-0.003906c8.3633-0.011719 16.379-3.3359 22.289-9.25 5.9141-5.9102 9.2383-13.926 9.25-22.289 0.019531-15.02 5.9922-29.422 16.617-40.047 10.621-10.621 25.023-16.598 40.047-16.617h186.38c1.1172-13.922 1.8477-28.141 1.8477-42.719v-2.2578zm272.53-310.1c19.574-0.003906 38.398 7.5586 52.527 21.105 14.133 13.547 22.48 32.031 23.301 51.594 0.82031 19.559-5.9531 38.676-18.902 53.359-4.5859 5.2031-12.52 5.7031-17.723 1.1172-5.2031-4.5859-5.7031-12.523-1.1172-17.723 10.312-11.699 14.676-27.488 11.832-42.82-2.8438-15.332-12.574-28.504-26.395-35.73-13.816-7.2227-30.191-7.6953-44.402-1.2773-14.211 6.4141-24.688 19.008-28.406 34.152-3.7227 15.141-0.27734 31.152 9.3438 43.426s24.348 19.441 39.941 19.445c6.9375 0 12.562 5.625 12.562 12.562s-5.625 12.562-12.562 12.562c-27.113 0-52.164-14.461-65.723-37.941-13.555-23.48-13.555-52.41 0-75.887 13.559-23.48 38.609-37.945 65.723-37.945zm-187.37-49.199c-2.5-2.2031-4.0234-5.3086-4.2344-8.6328-0.20703-3.3242 0.91406-6.5938 3.1172-9.0938 10.312-11.699 14.68-27.488 11.836-42.824-2.8398-15.336-12.574-28.516-26.395-35.742-13.82-7.2266-30.195-7.7031-44.414-1.2852-14.215 6.418-24.691 19.012-28.418 34.156-3.7227 15.145-0.27734 31.164 9.3438 43.438 9.6211 12.277 24.352 19.449 39.945 19.453 6.9414 0 12.566 5.625 12.566 12.566 0 6.9375-5.625 12.562-12.566 12.562-23.301-0.007812-45.309-10.723-59.684-29.066-14.375-18.34-19.523-42.27-13.961-64.902 5.5625-22.629 21.215-41.445 42.453-51.035 21.238-9.5898 45.703-8.8867 66.355 1.9062 20.656 10.793 35.199 30.477 39.453 53.391 4.2539 22.91-2.2617 46.508-17.664 63.992-2.207 2.5-5.3164 4.0195-8.6445 4.2227s-6.5977-0.92969-9.0898-3.1445zm-361.82 352.8c-2.1836 2.5781-5.3086 4.1641-8.6758 4.4102-3.3672 0.24219-6.6914-0.87891-9.2227-3.1094-2.5312-2.2344-4.0547-5.3906-4.2344-8.7617-0.17578-3.3711 1.0078-6.6719 3.293-9.1562 10.309-11.703 14.668-27.496 11.824-42.832-2.8477-15.336-12.586-28.512-26.41-35.734-13.824-7.2227-30.199-7.6875-44.414-1.2695-14.215 6.4219-24.688 19.023-28.406 34.172-3.7188 15.145-0.26562 31.16 9.3594 43.434 9.6289 12.273 24.359 19.441 39.957 19.438 6.9375 0 12.562 5.625 12.562 12.562 0 6.9414-5.625 12.566-12.562 12.566-23.316 0.003907-45.344-10.711-59.734-29.059-14.391-18.344-19.551-42.289-13.992-64.934 5.5586-22.645 21.219-41.48 42.469-51.078 21.25-9.6016 45.73-8.8984 66.398 1.8984 20.664 10.801 35.219 30.5 39.473 53.426 4.2539 22.926-2.2695 46.535-17.684 64.027zm432.83 380.66c0.019531 18.48-6.7148 36.328-18.938 50.188-4.5898 5.2031-12.531 5.7031-17.734 1.1133-5.207-4.5898-5.707-12.527-1.1172-17.734 10.305-11.703 14.664-27.492 11.816-42.82-2.8477-15.332-12.582-28.504-26.402-35.723-13.82-7.2188-30.195-7.6875-44.402-1.2695-14.211 6.4219-24.684 19.016-28.398 34.16-3.7188 15.145-0.26953 31.156 9.3555 43.426 9.6211 12.27 24.352 19.434 39.941 19.434 6.9414 0 12.566 5.625 12.566 12.562 0 6.9414-5.625 12.566-12.566 12.566-20.125 0.003906-39.43-7.9883-53.664-22.219-14.234-14.23-22.23-33.531-22.234-53.656-0.003906-20.129 7.9883-39.434 22.219-53.668 14.23-14.23 33.531-22.23 53.656-22.234 20.129-0.003906 39.43 7.9883 53.664 22.219 14.234 14.23 22.234 33.531 22.238 53.656z" />
    <path
      d="m75.938 702.54c1.5859 8.1484 3.3945 16.223 5.3633 24.266 0.33594 1.3789 0.68359 2.7461 1.0312 4.1172h503.27c8.3594-0.015625 16.371-3.3398 22.285-9.2539 5.9102-5.9102 9.2383-13.926 9.25-22.285-0.011719-8.3594-3.3359-16.375-9.25-22.285-5.9102-5.9102-13.926-9.2305-22.285-9.2383h-515.22c0.12109 0.97266 0.22656 1.957 0.35938 2.9414 1.1992 9.3477 2.6758 18.672 4.4141 27.949 0.24219 1.2578 0.53125 2.5195 0.78516 3.7891z" />
  </g>
</svg>