<?xml version="1.0" encoding="UTF-8"?>
<svg width="1200pt" height="1200pt" version="1.1" viewBox="0 0 1200 1200" xmlns="http://www.w3.org/2000/svg">
  <g fill="#f76b15">
    <path
      d="m1195.3 526h-789.33c-21.438 0-41.242-11.438-51.961-30s-10.719-41.438 0-60 30.523-30 51.961-30h760.67c-35.355-103.41-98.285-195.2-181.99-265.46-83.707-70.266-185.02-116.33-292.99-133.23-107.98-16.895-218.51-3.9766-319.68 37.359 10.738 28.332 16.27 58.367 16.332 88.664 0.015625 55.031-17.801 108.59-50.773 152.64-32.969 44.059-79.328 76.254-132.13 91.762-52.801 15.508-109.2 13.492-160.76-5.7383-29.465 72.406-44.633 149.83-44.668 228 0.18359 24.625 1.7422 49.219 4.668 73.668h789.33c21.438 0 41.242 11.434 51.961 30 10.719 18.562 10.719 41.434 0 60-10.719 18.562-30.523 30-51.961 30h-760.67c46.5 133.63 138.73 246.54 260.4 318.77 121.67 72.227 264.95 99.133 404.54 75.961s266.49-94.926 358.3-202.59c91.805-107.66 142.61-244.31 143.44-385.8-0.007812-24.738-1.5664-49.457-4.668-74z" />
    <path
      d="m103.33 264c9.8047 2.4297 19.922 3.3281 30 2.668 35.363 0 69.277-14.051 94.281-39.055 25.004-25.004 39.055-58.918 39.055-94.281 0.19141-10.496-1.2734-20.957-4.3359-31-9.5234-40.797-37.672-74.746-76-91.664-16.719-7.2422-34.777-10.875-53-10.668-35.359 0-69.273 14.047-94.281 39.051-25.004 25.008-39.051 58.922-39.051 94.281-0.20703 18.223 3.4258 36.281 10.668 53 16.699 39.211 51.141 68.078 92.664 77.668z" />
  </g>
</svg>