<?xml version="1.0" encoding="UTF-8"?>
<svg width="128pt" height="128pt" version="1.1" viewBox="0 0 128 128" xmlns="http://www.w3.org/2000/svg">
  <g fill="#f76b15">
    <path
      d="m39.469 95.594c0.75391 0.58594 1.5273 1.1445 2.3242 1.6758h44.418c0.79687-0.53125 1.5703-1.0898 2.3242-1.6758z" />
    <path
      d="m24 64c0 1.7812 0.11719 3.5352 0.34375 5.2539h79.316c0.22656-1.7188 0.34375-3.4727 0.34375-5.2539 0-0.58594-0.011718-1.168-0.039062-1.7461h-79.926c-0.027343 0.58203-0.039062 1.1602-0.039062 1.7461z" />
    <path d="m100.35 47.281c-6.332-13.742-20.227-23.281-36.348-23.281s-30.016 9.5391-36.348 23.281z" />
    <path
      d="m25.109 73.398c0.40234 1.6719 0.91016 3.3047 1.5156 4.8867h74.746c0.60547-1.582 1.1133-3.2148 1.5156-4.8867z" />
    <path
      d="m29.422 84.121c0.49219 0.84375 1.0156 1.668 1.5664 2.4727h66.023c0.55078-0.80469 1.0742-1.6289 1.5664-2.4727z" />
    <path
      d="m27.227 48.242c-1.543 3.5977-2.5742 7.4688-3.0039 11.52h79.555c-0.42578-4.0508-1.457-7.9219-3.0039-11.52z" />
  </g>
</svg>