<?xml version="1.0" encoding="UTF-8"?>
<svg width="1200pt" height="1200pt" version="1.1" viewBox="0 0 1200 1200" xmlns="http://www.w3.org/2000/svg">
  <g fill="#f76b15">
    <path
      d="m34.285 653.66h1131.4c4.3164 0.015625 8.4844-1.6016 11.66-4.5273 3.1797-2.9219 5.1367-6.9375 5.4805-11.242v-29.312-0.003907c0-154.58-61.406-302.84-170.71-412.14-109.3-109.31-257.56-170.71-412.14-170.71s-302.84 61.406-412.14 170.71c-109.31 109.3-170.71 257.56-170.71 412.14v29.312 0.003907c0.34375 4.3047 2.3008 8.3203 5.4805 11.242 3.1758 2.9258 7.3438 4.543 11.66 4.5273zm565.71-594.68c145.72 0.13672 285.43 58.082 388.48 161.12 103.04 103.04 160.99 242.75 161.12 388.47v11.828h-1098.2v-11.828c0.13281-145.54 57.941-285.1 160.76-388.11 102.82-103.01 242.27-161.08 387.81-161.48z" />
    <path
      d="m1161.3 763.89c0-4.5469-1.8086-8.9062-5.0234-12.121s-7.5742-5.0234-12.121-5.0234h-1088.6c-5.1211-1.2812-10.551-0.13281-14.715 3.1133-4.1602 3.25-6.5938 8.2344-6.5938 13.516s2.4336 10.266 6.5938 13.516c4.1641 3.25 9.5938 4.3984 14.715 3.1133h1088.9c4.3164-0.078125 8.4414-1.7812 11.555-4.7695 3.1133-2.9844 4.9883-7.0391 5.2461-11.344z" />
    <path
      d="m1106.1 895.2c0-4.5469-1.8086-8.9062-5.0234-12.121s-7.5742-5.0195-12.121-5.0195h-978.34c-4.9766 1.2461-9.1328 4.6602-11.328 9.2969-2.1953 4.6406-2.1953 10.02 0 14.66 2.1953 4.6367 6.3516 8.0508 11.328 9.2969h978.86c4.2852-0.12109 8.3672-1.8398 11.445-4.8242 3.0781-2.9805 4.9258-7.0078 5.1836-11.289z" />
    <path
      d="m1003.7 1026.3c0-4.5469-1.8086-8.9062-5.0234-12.121s-7.5742-5.0234-12.121-5.0234h-773.66c-6.125 0-11.785 3.2695-14.848 8.5703-3.0586 5.3047-3.0586 11.84 0 17.145 3.0625 5.3047 8.7227 8.5703 14.848 8.5703h774.17c4.457-0.13281 8.6875-1.9961 11.789-5.1992 3.1055-3.1992 4.8398-7.4844 4.8398-11.941z" />
    <path
      d="m402.34 1141c-4.9805 1.25-9.1367 4.6602-11.332 9.3008-2.1914 4.6406-2.1914 10.02 0 14.656 2.1953 4.6406 6.3516 8.0547 11.332 9.3008h408.17c4.9766-1.2461 9.1328-4.6602 11.328-9.3008 2.1953-4.6367 2.1953-10.016 0-14.656s-6.3516-8.0508-11.328-9.3008z" />
  </g>
</svg>