<?xml version="1.0" encoding="UTF-8"?>
<svg width="1200pt" height="1200pt" version="1.1" viewBox="0 0 1200 1200" xmlns="http://www.w3.org/2000/svg"
  fill="#f76b15">
  <path
    d="m1125.6 607.2c0 9.6016-7.1992 16.801-16.801 16.801h-576c-9.6016 0-16.801-7.1992-16.801-16.801 0-9.6016 7.1992-16.801 16.801-16.801h367.2c-8.3984-151.2-134.4-271.2-288-271.2s-279.6 120-288 271.2h115.2c9.6016 0 16.801 7.1992 16.801 16.801 0 9.6016-7.1992 16.801-16.801 16.801h-348c-9.6016 0-16.801-7.1992-16.801-16.801 0-9.6016 7.1992-16.801 16.801-16.801h198c9.6016-169.2 151.2-304.8 322.8-304.8s313.2 135.6 321.6 304.8h175.2c8.3984-0.003906 16.801 8.3984 16.801 16.797zm-534 97.199c0-9.6016-7.1992-16.801-16.801-16.801l-409.2 0.003906c-9.6016 0-16.801 7.1992-16.801 16.801 0 9.6016 7.1992 16.801 16.801 16.801h409.2c9.5977-0.003906 16.801-7.2031 16.801-16.805zm453.6-16.797h-253.2c-9.6016 0-16.801 7.1992-16.801 16.801 0 9.6016 7.1992 16.801 16.801 16.801h254.4c9.6016 0 16.801-7.1992 16.801-16.801-1.1992-9.6016-8.3984-16.801-18-16.801zm-154.8 96h-494.4c-9.6016 0-16.801 7.1992-16.801 16.801 0 9.6016 7.1992 16.801 16.801 16.801h494.4c9.6016 0 16.801-7.1992 16.801-16.801 0-8.4023-7.1992-16.801-16.801-16.801zm-75.598 97.199h-292.8c-9.6016 0-16.801 7.1992-16.801 16.801 0 9.6016 7.1992 16.801 16.801 16.801h292.8c9.6016 0 16.801-7.1992 16.801-16.801 0-9.6016-7.2031-16.801-16.801-16.801zm-370.8 0h-37.199c-9.6016 0-16.801 7.1992-16.801 16.801 0 9.6016 7.1992 16.801 16.801 16.801l37.199-0.003906c9.6016 0 16.801-7.1992 16.801-16.801 0-9.5977-7.1992-16.797-16.801-16.797zm296.4-159.6c9.6016 0 16.801-7.1992 16.801-16.801 0-9.6016-7.1992-16.801-16.801-16.801h-37.199c-9.6016 0-16.801 7.1992-16.801 16.801 0 9.6016 7.1992 16.801 16.801 16.801zm-403.2 63.602h-37.199c-9.6016 0-16.801 7.1992-16.801 16.801 0 9.6016 7.1992 16.801 16.801 16.801h37.199c9.6016 0 16.801-7.1992 16.801-16.801 0-9.6016-7.1992-16.801-16.801-16.801z" />
</svg>