<?xml version="1.0" encoding="UTF-8"?>
<svg width="1200pt" height="1200pt" version="1.1" viewBox="0 0 1200 1200" xmlns="http://www.w3.org/2000/svg"
  fill="#f76b15">
  <path
    d="m96 611.52v424.32h1008v-424.32zm696 312h-384c-8.5742 0-16.496-4.5742-20.785-12-4.2852-7.4258-4.2852-16.574 0-24 4.2891-7.4258 12.211-12 20.785-12h384c8.5742 0 16.496 4.5742 20.785 12 4.2852 7.4258 4.2852 16.574 0 24-4.2891 7.4258-12.211 12-20.785 12zm96-96h-576c-8.5742 0-16.496-4.5742-20.785-12-4.2852-7.4258-4.2852-16.574 0-24 4.2891-7.4258 12.211-12 20.785-12h576c8.5742 0 16.496 4.5742 20.785 12 4.2852 7.4258 4.2852 16.574 0 24-4.2891 7.4258-12.211 12-20.785 12zm96-96h-768c-8.5742 0-16.496-4.5742-20.785-12-4.2852-7.4258-4.2852-16.574 0-24 4.2891-7.4258 12.211-12 20.785-12h768c8.5742 0 16.496 4.5742 20.785 12 4.2852 7.4258 4.2852 16.574 0 24-4.2891 7.4258-12.211 12-20.785 12zm-320.64-240c0-6.3633-2.5273-12.469-7.0273-16.969-4.5039-4.5039-10.605-7.0312-16.973-7.0312h-364.8c0.91797-16.188 3.3281-32.254 7.2031-48h264.48-0.003907c8.5742 0 16.5-4.5742 20.785-12 4.2891-7.4258 4.2891-16.574 0-24-4.2852-7.4258-12.211-12-20.785-12h-249.12c27.621-70.812 79.133-129.73 145.62-166.57 66.484-36.836 143.75-49.266 218.44-35.141 74.684 14.129 142.08 53.926 190.51 112.5 48.438 58.574 74.867 132.24 74.711 208.25 0 24.578-2.8984 49.066-8.6367 72.961h-635.52c-3.7617-15.785-6.3281-31.828-7.6797-48h364.8c6.3672 0 12.469-2.5273 16.973-7.0273 4.5-4.5039 7.0273-10.605 7.0273-16.973z" />
</svg>