<?xml version="1.0" encoding="UTF-8"?>
<svg width="1200pt" height="1200pt" version="1.1" viewBox="0 0 1200 1200" xmlns="http://www.w3.org/2000/svg">
  <g fill="#f76b15">
    <path d="m503.29 930.19h193.41c-63.137 18.551-130.28 18.551-193.41 0z" />
    <path d="m767.58 900.76-23.07 11.465h-289.02l-23.07-11.465z" />
    <path
      d="m809.86 871.33c-4.293 4.1875-8.9102 8.0234-13.816 11.469h-391.8c-4.9062-3.4492-9.5273-7.2812-13.816-11.469z" />
    <path
      d="m844.39 841.36c-3.8672 3.8672-8.9805 7.7383-12.848 11.465h-463.09c-3.3125-3.3164-8.9766-7.0469-12.848-11.465z" />
    <path
      d="m869.95 812.48c-3.0469 4.1289-6.4688 7.9688-10.227 11.465h-519.45c-3.7578-3.4961-7.1797-7.3359-10.227-11.465z" />
    <path
      d="m890.12 784.3c-2.625 3.8672-5.1133 6.3555-7.7383 10.223h-565.18c-2.625-3.8672-5.1133-6.3555-7.7383-10.223z" />
    <path
      d="m907.11 754.87c-1.2422 3.8672-3.8672 7.7383-5.1133 11.465h-603.86c-1.2422-3.8672-3.8672-7.7383-5.1133-11.465z" />
    <path d="m919.82 725.44-3.8672 11.465-631.91 0.003906-3.8672-11.465h639.65z" />
    <path
      d="m930.05 696.02c-0.26172 3.9375-1.1484 7.8086-2.625 11.469h-653.6c-2.4102-3.3477-3.7578-7.3438-3.8672-11.469z" />
    <path
      d="m937.79 666.59c-1.2422 3.8672-1.2422 7.7383-2.625 11.465l-670.32 0.003906c-1.2422-3.8672-1.2422-7.7383-2.625-11.465h675.57z" />
    <path
      d="m942.9 638.41c-1.2422 3.8672-1.2422 7.7383-2.4883 10.223h-680.68c-1.2422-2.625-1.2422-6.3555-2.625-10.223z" />
    <path d="m257.1 620.45h685.79v8.9805h-685.79z" />
    <path
      d="m1200 615.47c0.019531 7.2695-5.5977 13.309-12.848 13.816h-1174.3c-7.25-0.50781-12.867-6.5469-12.848-13.816 0.46875-6.8906 5.957-12.379 12.848-12.848h243.01v-2.4883c0-91.27 36.258-178.8 100.8-243.34 64.539-64.539 152.07-100.79 243.34-100.79s178.8 36.254 243.34 100.79c64.539 64.539 100.8 152.07 100.8 243.34v2.625h243.15c6.793 0.52734 12.188 5.9219 12.711 12.711z" />
  </g>
</svg>