<?xml version="1.0" encoding="UTF-8"?>
<svg width="1200pt" height="1200pt" version="1.1" viewBox="0 0 1200 1200" xmlns="http://www.w3.org/2000/svg">
  <g fill="#f76b15">
    <path
      d="m643.2 468h-97.199c-3.6016 0-6-2.3984-6-6 0-16.801-13.199-30-30-30h-98.398c27.602-15.602 58.801-24 92.398-24 55.199 0 104.4 22.801 139.2 60zm-264-13.199c1.1992 1.1992 2.4023 1.1992 4.8008 1.1992h126c3.6016 0 6 2.3984 6 6 0 16.801 13.199 30 30 30h114 2.3984c21.602 31.199 33.602 68.398 33.602 108 0 30-7.1992 58.801-19.199 84h-142.8c-9.6016 0-18-8.3984-18-18s8.3984-18 18-18h30c26.398 0 48-21.602 48-48s-21.602-48-48-48h-114c-3.6016 0-6-2.3984-6-6v-12c0-16.801-13.199-30-30-30h-75.602c10.801-19.199 24-34.801 40.801-49.199zm264 277.2h-217.2c-9.6016 0-18-8.3984-18-18s8.3984-18 18-18h12c22.801 0 42-19.199 42-42s-19.199-42-42-42h-36c-3.6016 0-6-2.3984-6-6 0-16.801-13.199-30-30-30h-52.801c2.3984-16.801 6-32.398 12-48h87.602c3.6016 0 6 2.3984 6 6v12c0 16.801 13.199 30 30 30h115.2c13.199 0 24 10.801 24 24s-10.801 24-24 24h-30c-22.801 0-42 19.199-42 42s19.199 42 42 42h128.4c-6 8.3984-12 16.801-19.199 24zm-331.2-132h54c3.6016 0 6 2.3984 6 6 0 16.801 13.199 30 30 30h36c9.6016 0 18 8.3984 18 18s-8.3984 18-18 18h-12c-22.801 0-42 19.199-42 42s19.199 42 42 42h189.6c-31.199 22.801-69.602 36-111.6 36-105.6 0-192-86.398-192-192z" />
    <path
      d="m1116 600h-55.199c16.801-19.199 31.199-39.602 44.398-57.602 7.1992 18 10.801 37.203 10.801 57.602zm8.3984-176.4c6 6 7.1992 26.398-18 69.602-14.398-20.398-32.398-38.398-52.801-52.801 44.402-24.004 66.004-22.801 70.801-16.801zm-31.199 93.598c-16.801 26.398-38.398 55.199-63.602 82.801h-81.598c-20.398 0-36 15.602-36 36 0 7.1992-4.8008 12-12 12h-36c-20.398 0-36 15.602-36 36s15.602 36 36 36h37.199c-12 9.6016-25.199 18-36 25.199-44.398-25.199-75.602-69.602-82.801-121.2h63.602c16.801 0 30-13.199 30-30v-12c0-3.6016 2.3984-6 6-6h132c16.801 0 30-13.199 30-30v-12c0-16.801-13.199-30-30-30h-72c-3.6016 0-6-2.3984-6-6 0-16.801-13.199-30-30-30h-61.199c28.801-21.602 63.602-34.801 103.2-34.801 62.398 0 116.4 33.602 145.2 84zm-85.199 106.8-18 18c-19.199 19.199-39.602 37.199-58.801 54h-67.199c-7.1992 0-12-4.8008-12-12s4.8008-12 12-12h36c20.398 0 36-15.602 36-36 0-7.1992 4.8008-12 12-12zm-188.4-132h86.398c3.6016 0 6 2.3984 6 6 0 16.801 13.199 30 30 30h72c3.6016 0 6 2.3984 6 6v12c0 3.6016-2.3984 6-6 6h-132c-16.801 0-30 13.199-30 30v12c0 3.6016-2.3984 6-6 6h-66c0-40.801 15.602-79.199 39.602-108zm-48 284.4c-4.8008-4.8008-7.1992-26.398 16.801-69.602 14.398 20.398 32.398 38.398 52.801 52.801-44.402 24.004-64.805 22.801-69.602 16.801zm118.8-19.199c15.602-10.801 32.398-24 50.398-37.199h31.203c7.1992 0 12 4.8008 12 12v32.398c-12 2.3984-24 3.6016-36 3.6016-20.398 0-39.602-3.6016-57.602-10.801zm117.6 0v-25.199c0-20.398-15.602-36-36-36h-4.8008c13.199-12 26.398-24 39.602-37.199 12-12 22.801-22.801 33.602-34.801h74.398c-9.6016 61.199-50.402 111.6-106.8 133.2z" />
    <path
      d="m87.602 552h38.398c3.6016 0 6 2.3984 6 6 0 16.801 13.199 30 30 30 3.6016 0 6 2.3984 6 6v12c0 3.6016-2.3984 6-6 6h-88.801c-1.1992-3.6016-1.1992-8.3984-1.1992-12 0-18 6-34.801 15.602-48zm68.398 132c-33.602 0-62.398-19.199-75.602-48h81.602c16.801 0 30-13.199 30-30v-12c0-16.801-13.199-30-30-30-3.6016 0-6-2.3984-6-6 0-16.801-13.199-30-30-30h-13.199c13.199-7.1992 27.602-12 43.199-12 46.801 0 84 37.199 84 84s-37.199 84-84 84z" />
  </g>
</svg>