<?xml version="1.0" encoding="UTF-8"?>
<svg width="1200pt" height="1200pt" version="1.1" viewBox="0 0 1200 1200" xmlns="http://www.w3.org/2000/svg">
  <g fill="#f76b15">
    <path
      d="m561 960.33c0 21.129 8.3945 41.395 23.332 56.336 14.941 14.938 35.207 23.332 56.336 23.332h363.66c-110.58 102.83-255.99 160-407 160-151.01 0-296.41-57.164-407-160h87c28.582 0 54.992-15.246 69.285-40 14.289-24.754 14.289-55.246 0-80-14.293-24.754-40.703-40-69.285-40h-210.66c-33.359-62.23-55.156-129.99-64.336-200h794.67c28.582 0 54.992-15.246 69.281-40 14.293-24.754 14.293-55.246 0-80-14.289-24.754-40.699-40-69.281-40h-794.67c5.8984-45.047 17.086-89.242 33.336-131.67 26.469 8.0312 54.008 11.965 81.664 11.668 74.203-0.089844 145.34-29.629 197.78-82.129 52.438-52.5 81.891-123.67 81.891-197.87 0.26562-27.438-3.668-54.754-11.668-81 67.656-25.977 139.53-39.199 212-39 151.07-0.29688 296.58 56.906 407 160h-366.67 0.003907c-28.582 0-54.992 15.246-69.285 40-14.289 24.754-14.289 55.246 0 80 14.293 24.754 40.703 40 69.285 40h490c45.734 86.246 69.645 182.38 69.645 280s-23.91 193.75-69.645 280h-487c-21.273-0.089844-41.691 8.3633-56.672 23.469-14.98 15.105-23.266 35.594-22.996 56.863z" />
    <path
      d="m239.67 120c2.3789 42.812-18.258 83.645-54.145 107.11-35.887 23.469-81.566 26.008-119.83 6.6641-38.27-19.344-63.309-57.633-65.691-100.45-0.35938-4.4375-0.35938-8.8945 0-13.332 0.089844-31.801 12.758-62.27 35.246-84.754 22.484-22.488 52.953-35.156 84.754-35.246 4.4375-0.35938 8.8945-0.35938 13.332 0 29.434 3.2969 56.594 17.395 76.234 39.559 19.645 22.164 30.367 50.828 30.102 80.441z" />
  </g>
</svg>