<?xml version="1.0" encoding="UTF-8"?>
<svg width="1200pt" height="1200pt" version="1.1" viewBox="0 0 1200 1200" xmlns="http://www.w3.org/2000/svg">
  <g fill="#f76b15">
    <path
      d="m452.33 452.33c47.262-47.113 74.086-110.93 74.668-177.66l-252.67 252.33c66.82-0.64062 130.72-27.445 178-74.668z" />
    <path
      d="m693 202.67c-33.59-0.15234-67.105 3.1992-100 10 4.1836 19.516 6.5273 39.379 7 59.332-0.089844 87.023-34.719 170.45-96.285 231.95-61.562 61.5-145.03 96.047-232.05 96.047-19.809 0.12891-39.578-1.7695-59-5.668-6.5391 32.93-9.7773 66.43-9.668 100 0.35156 129.99 52.305 254.52 144.44 346.21 92.133 91.695 216.91 143.05 346.89 142.79 129.98-0.26562 254.55-52.133 346.3-144.2 91.758-92.07 143.2-216.81 143.03-346.79-0.17578-129.99-51.961-254.59-143.97-346.41-92.008-91.82-216.71-143.35-346.7-143.26z" />
    <path
      d="m391.67 306.67 120.33-120.33c-3-8-6-15.668-9.332-23.332v-0.003906c-7.4141-15.336-16.23-29.953-26.336-43.668l-357.33 357c13.785 10.352 28.648 19.18 44.332 26.336 7.3125 3.6758 14.887 6.7969 22.668 9.332l120.67-120.33z" />
    <path
      d="m357.33 33.332-324 324.34c8.4609 23.957 20.609 46.449 36 66.664l355.34-357.66c-20.691-14.352-43.379-25.582-67.336-33.336z" />
    <path
      d="m91.332 91.668c-47.078 47.234-73.867 110.98-74.664 177.66l252.66-252.33c-66.832 0.56641-130.76 27.387-178 74.668z" />
  </g>
</svg>