<?xml version="1.0" encoding="UTF-8"?>
<svg width="1200pt" height="1200pt" version="1.1" viewBox="0 0 1200 1200" xmlns="http://www.w3.org/2000/svg">
  <g fill="#f76b15">
    <path
      d="m764.91 536.91c57.105 0 111.87-22.684 152.25-63.062 40.379-40.379 63.066-95.148 63.066-152.25 0-57.105-22.688-111.87-63.066-152.25-40.379-40.383-95.145-63.066-152.25-63.066-57.105 0-111.87 22.684-152.25 63.066-40.379 40.379-63.062 95.145-63.062 152.25 0.042969 57.09 22.742 111.83 63.113 152.2 40.367 40.367 95.109 63.066 152.2 63.113zm-104.74-66.688 209.48 0.003907c-30.598 21.738-67.207 33.418-104.74 33.418-37.535 0-74.141-11.68-104.74-33.418zm245.48-33.258-281.48 0.003906c-8.1992-10.152-15.324-21.125-21.258-32.742h324c-5.8672 11.656-12.996 22.637-21.258 32.742zm-321.94-98.738h362.4c-1.0234 11.07-3.0312 22.027-6 32.742h-350.23c-3.1094-10.691-5.1758-21.656-6.1719-32.742zm181.2-198.69c45.379 0.0625 89.102 17.055 122.61 47.648 33.512 30.598 54.402 72.594 58.586 117.78h-362.4c4.1836-45.188 25.074-87.184 58.586-117.78 33.512-30.594 77.234-47.586 122.61-47.648z" />
    <path
      d="m34.285 1093.7h1131.4c2.0547-0.039063 4.0859-0.44531 6-1.1992h1.1992c1.8633-0.96094 3.543-2.2383 4.9727-3.7734l1.7148-2.0586s0-1.543 0.85547-2.2305v-1.1992 0.003906c0.25-1.8203 0.25-3.668 0-5.4883v-1.0273c-0.21875-1.582-0.62109-3.1367-1.1992-4.6289 0.0625-0.45312 0.0625-0.91406 0-1.3711v-0.85547l-240.52-399.26-1.0273-1.1992c-0.35938-0.64453-0.82422-1.2227-1.3711-1.7148 0 0 0-0.85547-1.0273-1.1992l-2.2305-1.3711h-1.0273l-85.715-32.742v-0.003906c-1.7031-0.66016-3.4961-1.0625-5.3164-1.1992h-1.7148c-3.8477 0.16016-7.5312 1.6094-10.457 4.1133l-133.88 115.54-105.09-173.66v-1.0273c-0.84375-0.99219-1.8281-1.8594-2.9141-2.5703h-1.1992-1.1992-0.003907c-0.89844-0.52344-1.8867-0.87109-2.9141-1.0312h-2.7422l-65.312-2.5703-33.43-38.398-1.1992-0.85547v-0.003906c-0.96484-1-2.0625-1.8633-3.2578-2.5703l-2.0586-1.0273h-6.1719c-1.6797 0.11719-3.3477 0.40234-4.9688 0.85547h-0.85938c-2.0586 0.64062-3.9375 1.7539-5.4844 3.2578l-214.8 196.29c-1.6016 1.5664-2.8828 3.4297-3.7695 5.4844l-70.457 164.91-145.89 168.17c-1.9141 2.3711-3.1602 5.2109-3.6133 8.2227-0.45312 3.0156-0.09375 6.0938 1.043 8.9219 1.3008 3.0703 3.4688 5.6953 6.2383 7.5547 2.7734 1.8555 6.0234 2.8672 9.3594 2.9023zm553.71-383.66 62.059 259.89-72.172 68.57 6-204.17zm-129.43 224.74 72.859 125.66h-77.828zm-21.598-129.09-4.2852 37.887-68.57-74.398 81.598-156zm-72.516 13.371-12.344 34.285 4.2852-43.027zm-13.027 42.344 8.5703-21.43 5.1445-18 63.426 65.656-1.0273 7.7148-6.3438 165.09h-89.312zm320.06 133.71 130.63 64.801-199.89-0.003906zm283.2-127.2-8.7422-121.71 149.31 245.48zm167.48 192-150.34-0.003906-13.199-144.34zm-198.86-163.03 15.086 163.03h-51.43l-31.031-207.77 56.23-111.6zm-100.46-36.52 20.742 137.14-108.68-180.86zm5.8281 176.4-142.97-70.969 17.141-139.03zm72-348.69-45.254 91.203v-108.86zm-77.828 134.75-102.86-50.398 102.86-89.312zm-159.6 56.742-46.109-193.88 57.43 94.801zm-160.97-279.6 56.059 2.0586-7.7148 230.57-5.4844 185.48-80.23-138.68c-0.625-1.1094-1.375-2.1445-2.2266-3.0859l7.7148-67.371 9.5977-227.14 10.629 12.172c2.9375 3.4648 7.1289 5.625 11.656 6zm-235.37 149.31 137.14-129.94-74.402 143.48-118.63 132.69-9.0859 5.8281zm-128.74 232.97 92.742-60c1.2969-0.77344 2.457-1.7578 3.4297-2.9141l87.43-97.887-23.316 238.97h-228.17z" />
  </g>
</svg>