<?xml version="1.0" encoding="UTF-8"?>
<svg width="1200pt" height="1200pt" version="1.1" viewBox="0 0 1200 1200" xmlns="http://www.w3.org/2000/svg">
  <g fill="#f76b15">
    <path
      d="m1031.2 600c0.070312-62.559-20.738-123.35-59.137-172.74-38.395-49.391-92.18-84.551-152.82-99.91-60.645-15.359-124.68-10.035-181.96 15.129 1.5703 1.1484 3.0391 2.4531 4.5898 3.6328 5.5977 4.2422 11.086 8.582 16.387 13.172 0.66797 0.58203 1.3984 1.0742 2.0625 1.6602 0.30469 0.26562 0.47656 0.625 0.75781 0.90625v-0.003906c25.266 22.406 46.828 48.66 63.895 77.797 0.22656 0.33594 0.52734 0.59766 0.73047 0.94922 0.39844 0.69141 0.73047 1.418 1.1289 2.1133 2.5 4.3789 4.8398 8.8438 7.1328 13.352 1.4805 2.9258 2.8828 5.8867 4.2734 8.8594v-0.003906c8.0898 17.203 14.605 35.102 19.477 53.477 0.17188 0.64844 0.39844 1.2734 0.56641 1.9258 0.19141 0.73828 0.31641 1.4766 0.5 2.2109 2.2734 9.0547 4.1445 18.254 5.6172 27.59 0.66406 4.0625 1.3594 8.125 1.8633 12.172 0.43359 3.6484 0.77734 7.3125 1.0859 10.996 0.79687 8.9727 1.3516 17.898 1.3516 26.719s-0.55469 17.746-1.3555 26.715c-0.30859 3.6836-0.65234 7.3516-1.0859 10.996-0.50391 4.0469-1.1992 8.1094-1.8633 12.172-1.4805 9.3438-3.3516 18.539-5.6172 27.59-0.18359 0.73828-0.30859 1.4766-0.5 2.2109-0.16797 0.64844-0.39453 1.2773-0.56641 1.9258l0.003906 0.003906c-4.8711 18.375-11.391 36.273-19.477 53.477-1.3906 2.9727-2.793 5.9336-4.2734 8.8594-2.293 4.5078-4.6328 8.9727-7.1328 13.352-0.39453 0.69531-0.72656 1.4219-1.1289 2.1133-0.20312 0.35156-0.50781 0.61328-0.73047 0.94922v-0.003906c-17.066 29.137-38.633 55.391-63.895 77.797-0.28125 0.28125-0.45703 0.64062-0.75781 0.90625-0.66406 0.58594-1.3945 1.0781-2.0625 1.6602-5.3008 4.5938-10.789 8.9336-16.387 13.172-1.5508 1.1758-3.0156 2.4844-4.5898 3.6289 57.273 25.164 121.31 30.488 181.96 15.129 60.645-15.355 114.43-50.52 152.82-99.91 38.398-49.391 59.211-110.18 59.137-172.74z" />
    <path
      d="m322.74 850.48c3.2188 1.6406 6.4844 3.1953 9.7734 4.7148 4.7188 2.1836 9.4727 4.2656 14.297 6.1797 5.0508 2 10.148 3.9141 15.34 5.625 3.3359 1.1055 6.7148 2.0898 10.094 3.0703 5.1172 1.4766 10.293 2.8125 15.527 4.0039 2.418 0.55469 4.8086 1.207 7.2422 1.6953 7.5547 1.5039 15.238 2.6367 22.996 3.5195 2.293 0.26562 4.5938 0.47656 6.8945 0.68359 8.2812 0.73828 16.625 1.2734 25.098 1.2734s16.816-0.53516 25.098-1.2695c2.3008-0.20703 4.6016-0.42188 6.8945-0.68359 7.7578-0.88281 15.441-2.0156 22.996-3.5195 2.4336-0.48828 4.8242-1.1445 7.2422-1.6953 5.2344-1.1875 10.41-2.5234 15.527-4.0039 3.3789-0.98047 6.7539-1.9648 10.094-3.0703 5.1797-1.707 10.266-3.6172 15.305-5.6133 3.2148-1.2773 6.3906-2.6367 9.5547-4.0312-6.0195-4.3906-12-8.8203-17.691-13.613h-234.74c0.375 0.21484 0.73047 0.46094 1.1094 0.67578 3.7305 2.125 7.5312 4.1094 11.348 6.0586z" />
    <path
      d="m698.49 468.75h-197.05c-6.332 12.086-11.773 24.621-16.281 37.5h229.69c-0.16016-0.44922-0.33203-0.89844-0.49609-1.3477-4.418-12.41-9.7188-24.492-15.855-36.152z" />
    <path
      d="m174.72 543.75c-0.95703 4.5625-1.6641 9.1055-2.3906 13.648-0.39062 2.5547-0.85156 5.082-1.1719 7.6602-0.5 3.7969-0.87109 7.5742-1.2109 11.344-0.13281 1.6016-0.13672 3.2344-0.24609 4.8438h262.5v0.003906c0.69922-12.574 2.1445-25.098 4.3281-37.5z" />
    <path
      d="m225.53 431.25h254.55c8.1914-13.145 17.324-25.676 27.332-37.5h-247.98c-12.395 11.465-23.742 24.016-33.898 37.5z" />
    <path
      d="m169.7 618.75c0.10938 1.6094 0.10938 3.2422 0.24609 4.8438 0.33984 3.7695 0.71094 7.5469 1.2109 11.344 0.32031 2.5742 0.78125 5.1055 1.1719 7.6602 0.72656 4.543 1.4336 9.0859 2.3906 13.648l261.81 0.003906c-2.1836-12.406-3.6289-24.926-4.3281-37.5z" />
    <path
      d="m445.36 693.75h-260.21l0.50391 1.3711c4.4219 12.402 9.7148 24.477 15.848 36.129h258.35c-5.625-12.18-10.465-24.703-14.496-37.5z" />
    <path
      d="m714.35 695.11 0.49609-1.3555h-229.69c4.5078 12.879 9.9492 25.414 16.281 37.5h197.05c6.1328-11.66 11.434-23.738 15.855-36.145z" />
    <path
      d="m727.67 642.6c0.39062-2.5547 0.85156-5.082 1.1719-7.6602 0.5-3.7969 0.87109-7.5742 1.2109-11.344 0.13281-1.6016 0.13672-3.2344 0.24609-4.8438l-260.6-0.003906c0.73047 12.594 2.3086 25.121 4.7188 37.5h250.86c0.95312-4.5625 1.6641-9.1055 2.3906-13.648z" />
    <path d="m640.57 806.25c12.395-11.465 23.742-24.016 33.898-37.5h-148.94c10.156 13.484 21.504 26.035 33.898 37.5z" />
    <path
      d="m459.86 468.75h-258.35c-6.1328 11.652-11.43 23.73-15.852 36.137-0.16406 0.45703-0.33984 0.90625-0.5 1.3633h260.21c4.0312-12.797 8.8711-25.32 14.496-37.5z" />
    <path
      d="m730.05 576.41c-0.33984-3.7695-0.71094-7.5469-1.2109-11.344-0.32031-2.5742-0.78125-5.1055-1.1719-7.6602-0.72656-4.543-1.4336-9.0859-2.3906-13.648l-250.86-0.003906c-2.4102 12.383-3.9883 24.91-4.7188 37.5h260.6c-0.10938-1.6094-0.11328-3.2422-0.24609-4.8438z" />
    <path
      d="m480.08 768.75h-254.55c10.156 13.484 21.504 26.035 33.898 37.5h247.98c-10.008-11.824-19.141-24.355-27.332-37.5z" />
    <path
      d="m537.86 333c-3.3398-1.1055-6.7188-2.0898-10.098-3.0703-5.1172-1.4766-10.293-2.8125-15.527-4.0039-2.418-0.55469-4.8086-1.207-7.2422-1.6953-7.5625-1.5078-15.25-2.6367-23.012-3.5234-2.2852-0.26172-4.5781-0.47266-6.8711-0.68359-8.2852-0.73438-16.629-1.2695-25.105-1.2695s-16.82 0.53516-25.105 1.2695c-2.293 0.20703-4.5859 0.41797-6.8711 0.68359-7.7656 0.88281-15.453 2.0156-23.012 3.5234-2.4336 0.48828-4.8242 1.1445-7.2422 1.6953-5.2344 1.1875-10.41 2.5234-15.527 4.0039-3.3789 0.98047-6.7578 1.9648-10.098 3.0703-5.1914 1.7148-10.285 3.625-15.336 5.625-4.8281 1.918-9.5859 4-14.309 6.1875-3.2812 1.5156-6.543 3.0664-9.7578 4.707-3.8203 1.9492-7.6211 3.9375-11.355 6.0625-0.375 0.21484-0.73047 0.45703-1.1094 0.67578l234.75-0.003906c5.6914-4.793 11.672-9.2188 17.691-13.613-3.1641-1.3945-6.3398-2.7539-9.5547-4.0312-5.043-1.9961-10.125-3.9023-15.305-5.6094z" />
    <path
      d="m559.43 393.75c-12.395 11.465-23.742 24.016-33.898 37.5h148.94-0.003906c-10.156-13.484-21.504-26.035-33.898-37.5z" />
    <path d="m300 37.5h37.5v37.5h-37.5z" />
    <path d="m300 112.5h37.5v37.5h-37.5z" />
    <path d="m262.5 75h37.5v37.5h-37.5z" />
    <path d="m337.5 75h37.5v37.5h-37.5z" />
    <path
      d="m206.25 243.75c6.6992 0 12.887-3.5742 16.238-9.375 3.3477-5.8008 3.3477-12.949 0-18.75-3.3516-5.8008-9.5391-9.375-16.238-9.375-14.906-0.042969-29.188-5.9844-39.727-16.523-10.539-10.539-16.48-24.82-16.523-39.727 0-6.6992-3.5742-12.887-9.375-16.238-5.8008-3.3477-12.949-3.3477-18.75 0-5.8008 3.3516-9.375 9.5391-9.375 16.238-0.042969 14.906-5.9844 29.188-16.523 39.727-10.539 10.539-24.82 16.48-39.727 16.523-6.6992 0-12.887 3.5742-16.238 9.375-3.3477 5.8008-3.3477 12.949 0 18.75 3.3516 5.8008 9.5391 9.375 16.238 9.375 14.906 0.042969 29.188 5.9844 39.727 16.523 10.539 10.539 16.48 24.82 16.523 39.727 0 6.6992 3.5742 12.887 9.375 16.238 5.8008 3.3477 12.949 3.3477 18.75 0 5.8008-3.3516 9.375-9.5391 9.375-16.238 0.042969-14.906 5.9844-29.188 16.523-39.727 10.539-10.539 24.82-16.48 39.727-16.523z" />
    <path
      d="m1143.8 956.25c-14.906-0.042969-29.188-5.9844-39.727-16.523-10.539-10.539-16.48-24.82-16.523-39.727 0-6.6992-3.5742-12.887-9.375-16.238-5.8008-3.3477-12.949-3.3477-18.75 0-5.8008 3.3516-9.375 9.5391-9.375 16.238-0.042969 14.906-5.9844 29.188-16.523 39.727-10.539 10.539-24.82 16.48-39.727 16.523-6.6992 0-12.887 3.5742-16.238 9.375-3.3477 5.8008-3.3477 12.949 0 18.75 3.3516 5.8008 9.5391 9.375 16.238 9.375 14.906 0.042969 29.188 5.9844 39.727 16.523 10.539 10.539 16.48 24.82 16.523 39.727 0 6.6992 3.5742 12.887 9.375 16.238 5.8008 3.3477 12.949 3.3477 18.75 0 5.8008-3.3516 9.375-9.5391 9.375-16.238 0.042969-14.906 5.9844-29.188 16.523-39.727 10.539-10.539 24.82-16.48 39.727-16.523 6.6992 0 12.887-3.5742 16.238-9.375 3.3477-5.8008 3.3477-12.949 0-18.75-3.3516-5.8008-9.5391-9.375-16.238-9.375z" />
    <path d="m862.5 1125h37.5v37.5h-37.5z" />
    <path d="m862.5 1050h37.5v37.5h-37.5z" />
    <path d="m900 1087.5h37.5v37.5h-37.5z" />
    <path d="m825 1087.5h37.5v37.5h-37.5z" />
    <path d="m150 975h37.5v37.5h-37.5z" />
    <path d="m225 1012.5h37.5v37.5h-37.5z" />
    <path d="m937.5 150h37.5v37.5h-37.5z" />
    <path d="m1012.5 187.5h37.5v37.5h-37.5z" />
  </g>
</svg>