<?xml version="1.0" encoding="UTF-8"?>
<svg width="1200pt" height="1200pt" version="1.1" viewBox="0 0 1200 1200" xmlns="http://www.w3.org/2000/svg">
  <g fill="#f76b15" fill-rule="evenodd">
    <path
      d="m328.47 328.47c-66.367 66.367-108.55 156.92-112.21 257.3l709-189.98c-15.371-24.434-33.422-47.016-53.734-67.328-69.488-69.488-165.49-112.47-271.53-112.47-106.04 0-202.04 42.98-271.53 112.47z" />
    <path
      d="m216.19 612.26c0.80469 25.625 4.1172 50.621 9.707 74.742l741.6-198.71c-7.3789-24.309-17.105-47.594-28.91-69.598z" />
    <path
      d="m974.1 512.99-741.6 198.71c7.3789 24.309 17.105 47.594 28.91 69.598l722.4-193.57c-0.80469-25.625-4.1172-50.621-9.707-74.742z" />
    <path
      d="m983.74 614.23-709 189.98c15.371 24.434 33.422 47.016 53.734 67.328 69.488 69.488 165.49 112.47 271.53 112.47 106.04 0 202.04-42.98 271.53-112.47 66.367-66.367 108.55-156.92 112.21-257.3z" />
    <path
      d="m192 0h816c105.6 0 192 86.398 192 192v816c0 105.6-86.398 192-192 192h-816c-105.6 0-192-86.398-192-192v-816c0-105.6 86.398-192 192-192zm0 72h816c66 0 120 54 120 120v816c0 66-54 120-120 120h-816c-66 0-120-54-120-120v-816c0-66 54-120 120-120z" />
  </g>
</svg>