<?xml version="1.0" encoding="UTF-8"?>
<svg width="1200pt" height="1200pt" version="1.1" viewBox="0 0 1200 1200" xmlns="http://www.w3.org/2000/svg">
  <path fill="#f76b15"
    d="m105.15 420.15 674.7 674.7c-45.863 16.648-93.562 26.699-141.68 30.148l-563.18-563.18c3.4883-48.113 13.5-95.812 30.148-141.68zm-25.273 261.11 438.86 438.86c-106.54-16.539-208.99-65.812-291-147.86-82.051-82.012-131.32-184.46-147.86-291zm120.3-423.82 742.39 742.39c-26.512 22.727-54.711 42.414-84.188 59.023l-717.23-717.23c16.613-29.477 36.301-57.676 59.023-84.188zm141.45-116.29 717.23 717.23c-16.613 29.477-36.301 57.676-59.023 84.188l-742.39-742.39c26.512-22.727 54.711-42.414 84.188-59.023zm220.2-66.148 563.18 563.18c-3.4883 48.113-13.5 95.812-30.148 141.68l-674.7-674.7c45.863-16.648 93.562-26.699 141.68-30.148zm119.44 4.875c106.54 16.539 208.99 65.812 291 147.86 82.051 82.012 131.32 184.46 147.86 291z"
    fill-rule="evenodd" />
</svg>