<?xml version="1.0" encoding="UTF-8"?>
<svg width="1200pt" height="1200pt" version="1.1" viewBox="0 0 1200 1200" xmlns="http://www.w3.org/2000/svg">
  <g fill="#f76b15">
    <path
      d="m240.15 1007.2 621.15-595.86c-14.738-33.336-33.207-64.688-54.977-93.414l-638.08 612.13c21.453 27.973 45.527 53.793 71.906 77.137z" />
    <path
      d="m135.94 883.07 633.71-607.93c-24.602-25.48-52.012-48.188-81.805-67.594l-599.85 575.38c12.621 35.191 28.707 68.719 47.945 100.14z" />
    <path
      d="m410.95 1067.4 490.11-470.14c-0.26172-44.492-6.8047-87.488-18.695-128.25l-597.8 573.47c1.5547 1.125 3.1133 2.2305 4.668 3.3203 0.039062 0.019531 0.09375 0.019531 0.13281 0.039063 39.281 12.617 80.137 19.629 121.59 21.559z" />
    <path
      d="m451.54 132.21c-6.1875-0.24219-12.375-0.46875-18.637-0.46875-49.258 0-97.668 7.7812-144.09 22.742-115.16 80.699-197.7 204.81-223.71 348.41z" />
    <path
      d="m56.531 589.07c-0.074219 3.6367-0.28125 7.2539-0.28125 10.93 0 41.961 4.9297 82.762 13.969 122.02l566.59-543.48c-35.383-17.195-73.219-30-112.86-37.836z" />
    <path d="m893.76 682.2-397.89 381.68c201.41-27.207 362.53-182.91 397.89-381.68z" />
    <path
      d="m600 56.25c-50.25 0-98.867 6.9922-145.11 19.82 87.301 3.6172 169.09 28.707 240.38 70.07 0.14844 0.074219 0.28125 0.1875 0.42969 0.26172 50.176 29.195 95.062 66.43 132.94 110.01 0.20703 0.20703 0.46875 0.26172 0.67578 0.46875 0.33594 0.35547 0.41406 0.80469 0.73047 1.1641 37.949 44.023 68.699 94.352 90.469 149.23 0.26172 0.60156 0.48828 1.1641 0.69531 1.7617 23.25 59.23 36.168 123.62 36.168 191.01 0 281.81-223.48 512.34-502.5 523.93 46.238 12.785 94.855 19.777 145.12 19.777 299.81 0 543.75-243.94 543.75-543.75 0-299.83-243.94-543.75-543.75-543.75z" />
  </g>
</svg>