<?xml version="1.0" encoding="utf-8"?>
<svg viewBox="0 0 500 500" xmlns="http://www.w3.org/2000/svg">
  <path
    d="M 500 249.998 C 500.041 213.689 487.964 178.407 465.678 149.742 C 443.394 121.076 412.178 100.67 376.983 91.756 C 341.786 82.842 304.622 85.932 271.377 100.537 C 272.289 101.203 273.141 101.96 274.041 102.645 C 277.29 105.107 280.475 107.626 283.552 110.29 C 283.939 110.628 284.363 110.914 284.749 111.254 C 284.926 111.408 285.025 111.616 285.189 111.78 L 285.189 111.777 C 299.852 124.781 312.367 140.019 322.272 156.929 C 322.404 157.124 322.578 157.276 322.696 157.48 C 322.927 157.882 323.12 158.303 323.351 158.707 C 324.802 161.248 326.16 163.839 327.491 166.456 C 328.35 168.154 329.164 169.872 329.971 171.598 L 329.971 171.596 C 334.666 181.58 338.448 191.968 341.275 202.633 C 341.375 203.009 341.507 203.372 341.604 203.751 C 341.715 204.179 341.788 204.608 341.894 205.033 C 343.214 210.289 344.3 215.628 345.155 221.046 C 345.54 223.404 345.943 225.762 346.236 228.111 C 346.487 230.228 346.687 232.355 346.866 234.493 C 347.328 239.701 347.65 244.881 347.65 250 C 347.65 255.119 347.328 260.299 346.864 265.505 C 346.685 267.643 346.485 269.772 346.233 271.887 C 345.941 274.235 345.537 276.593 345.152 278.951 C 344.293 284.374 343.207 289.711 341.892 294.964 C 341.785 295.392 341.713 295.821 341.602 296.247 C 341.504 296.623 341.373 296.988 341.273 297.365 L 341.275 297.367 C 338.449 308.032 334.664 318.419 329.971 328.404 C 329.164 330.129 328.35 331.848 327.491 333.546 C 326.16 336.163 324.802 338.754 323.351 341.296 C 323.122 341.699 322.93 342.121 322.696 342.522 C 322.578 342.726 322.401 342.878 322.272 343.073 L 322.272 343.071 C 312.367 359.981 299.85 375.219 285.189 388.223 C 285.025 388.386 284.923 388.594 284.749 388.749 C 284.363 389.089 283.939 389.374 283.552 389.712 C 280.475 392.379 277.29 394.897 274.041 397.357 C 273.141 398.04 272.291 398.799 271.377 399.463 C 304.617 414.068 341.783 417.158 376.983 408.244 C 412.181 399.332 443.397 378.923 465.678 350.258 C 487.963 321.592 500.043 286.311 500 250.002 L 500 249.998 Z"
    fill="#f76b15" />
  <path
    d="M 88.822 395.372 C 90.69 396.325 92.585 397.226 94.494 398.108 C 97.232 399.376 99.992 400.584 102.792 401.695 C 105.723 402.856 108.682 403.967 111.695 404.96 C 113.631 405.601 115.592 406.173 117.553 406.742 C 120.523 407.599 123.527 408.374 126.565 409.066 C 127.968 409.388 129.356 409.766 130.768 410.05 C 135.153 410.922 139.612 411.58 144.115 412.092 C 145.445 412.246 146.781 412.369 148.116 412.489 C 152.922 412.917 157.764 413.228 162.682 413.228 C 167.6 413.228 172.442 412.917 177.249 412.491 C 178.584 412.371 179.92 412.246 181.25 412.094 C 185.753 411.582 190.212 410.924 194.597 410.051 C 196.009 409.769 197.397 409.388 198.8 409.068 C 201.838 408.379 204.842 407.603 207.811 406.744 C 209.773 406.175 211.732 405.604 213.67 404.962 C 216.676 403.972 219.628 402.862 222.553 401.704 C 224.419 400.963 226.262 400.174 228.098 399.364 C 224.605 396.817 221.133 394.245 217.831 391.464 L 81.592 391.464 C 81.809 391.588 82.016 391.731 82.236 391.856 C 84.4 393.089 86.606 394.241 88.822 395.372 Z"
    fill="#f76b15" />
  <path
    d="M 306.901 173.822 L 192.536 173.822 C 188.861 180.837 185.703 188.112 183.087 195.587 L 316.395 195.587 C 316.302 195.326 316.202 195.065 316.107 194.805 C 313.543 187.602 310.466 180.59 306.905 173.822 L 306.901 173.822 Z"
    fill="#f76b15" />
  <path
    d="M 2.913 217.351 C 2.358 219.999 1.947 222.636 1.526 225.272 C 1.299 226.755 1.031 228.222 0.845 229.718 C 0.555 231.921 0.34 234.114 0.143 236.302 C 0.066 237.232 0.063 238.179 0 239.113 L 152.35 239.113 L 152.35 239.116 C 152.756 231.818 153.595 224.549 154.863 217.351 L 2.913 217.351 Z"
    fill="#f76b15" />
  <path
    d="M 32.402 152.058 L 180.139 152.058 C 184.893 144.429 190.194 137.156 196.002 130.293 L 52.079 130.293 C 44.885 136.947 38.299 144.232 32.405 152.058 L 32.402 152.058 Z"
    fill="#f76b15" />
  <path
    d="M 0 260.88 C 0.063 261.814 0.063 262.762 0.142 263.691 C 0.34 265.879 0.555 268.071 0.845 270.275 C 1.031 271.769 1.299 273.238 1.525 274.721 C 1.947 277.358 2.358 279.994 2.913 282.642 L 154.863 282.644 C 153.596 275.444 152.757 268.177 152.351 260.88 L 0 260.88 Z"
    fill="#f76b15" />
  <path
    d="M 159.988 304.409 L 8.967 304.409 L 9.259 305.204 C 11.826 312.402 14.897 319.41 18.457 326.173 L 168.399 326.173 C 165.134 319.104 162.326 311.836 159.986 304.409 L 159.988 304.409 Z"
    fill="#f76b15" />
  <path
    d="M 316.106 305.198 L 316.394 304.411 L 183.085 304.411 C 185.701 311.886 188.86 319.161 192.534 326.176 L 306.899 326.176 C 310.459 319.408 313.535 312.398 316.101 305.198 L 316.106 305.198 Z"
    fill="#f76b15" />
  <path
    d="M 323.836 274.722 C 324.063 273.239 324.33 271.772 324.516 270.276 C 324.806 268.073 325.022 265.88 325.219 263.693 C 325.296 262.763 325.298 261.815 325.362 260.881 L 174.114 260.879 C 174.538 268.188 175.454 275.459 176.853 282.643 L 322.448 282.643 C 323.001 279.995 323.414 277.359 323.835 274.722 L 323.836 274.722 Z"
    fill="#f76b15" />
  <path
    d="M 273.285 369.701 C 280.479 363.047 287.064 355.764 292.959 347.938 L 206.516 347.938 C 212.411 355.764 218.997 363.047 226.19 369.701 L 273.285 369.701 Z"
    fill="#f76b15" />
  <path
    d="M 168.404 173.822 L 18.462 173.822 C 14.903 180.585 11.828 187.595 9.261 194.796 C 9.166 195.061 9.064 195.322 8.971 195.587 L 159.993 195.587 C 162.333 188.16 165.141 180.892 168.406 173.822 L 168.404 173.822 Z"
    fill="#f76b15" />
  <path
    d="M 325.217 236.306 C 325.02 234.119 324.805 231.927 324.514 229.723 C 324.328 228.229 324.061 226.759 323.835 225.276 C 323.413 222.64 323.003 220.003 322.447 217.356 L 176.852 217.354 C 175.453 224.54 174.537 231.811 174.113 239.117 L 325.361 239.117 C 325.298 238.184 325.296 237.236 325.219 236.307 L 325.217 236.306 Z"
    fill="#f76b15" />
  <path
    d="M 180.139 347.938 L 32.402 347.938 C 38.297 355.764 44.883 363.047 52.076 369.701 L 196 369.701 C 190.191 362.84 184.89 355.567 180.137 347.938 L 180.139 347.938 Z"
    fill="#f76b15" />
  <path
    d="M 213.674 95.036 C 211.736 94.394 209.774 93.823 207.813 93.253 C 204.843 92.396 201.839 91.621 198.801 90.93 C 197.398 90.608 196.011 90.229 194.598 89.946 C 190.209 89.07 185.747 88.416 181.242 87.901 C 179.916 87.749 178.585 87.627 177.254 87.504 C 172.446 87.078 167.603 86.767 162.684 86.767 C 157.764 86.767 152.922 87.078 148.113 87.504 C 146.783 87.624 145.452 87.747 144.125 87.901 C 139.618 88.413 135.157 89.07 130.77 89.946 C 129.358 90.229 127.97 90.61 126.566 90.93 C 123.528 91.619 120.525 92.394 117.555 93.253 C 115.593 93.823 113.633 94.394 111.694 95.036 C 108.681 96.03 105.725 97.139 102.793 98.3 C 99.991 99.413 97.23 100.622 94.488 101.891 C 92.584 102.771 90.691 103.671 88.825 104.623 C 86.608 105.754 84.402 106.908 82.235 108.142 C 82.017 108.266 81.811 108.407 81.592 108.534 L 217.836 108.532 C 221.139 105.75 224.611 103.181 228.104 100.631 C 226.267 99.821 224.425 99.032 222.559 98.291 C 219.631 97.132 216.682 96.027 213.676 95.036 L 213.674 95.036 Z"
    fill="#f76b15" />
  <path
    d="M 226.192 130.293 C 218.999 136.947 212.413 144.232 206.519 152.058 L 292.961 152.058 L 292.959 152.058 C 287.064 144.232 280.478 136.947 273.285 130.293 L 226.192 130.293 Z"
    fill="#f76b15" />
</svg>