<?xml version="1.0" encoding="UTF-8"?>
<svg width="128pt" height="128pt" version="1.1" viewBox="0 0 128 128" xmlns="http://www.w3.org/2000/svg">
  <path
    d="m32.23 73.723c-0.78906-2.582-1.2734-5.2969-1.4062-8.1016h-29.199c-0.89844 0-1.625-0.71875-1.625-1.6211 0-0.89453 0.71094-1.6211 1.625-1.6211h29.199c0.13281-2.8047 0.61719-5.5195 1.4062-8.1016h-17.645c-0.89453 0-1.625-0.71875-1.625-1.6172 0-0.89844 0.71094-1.6211 1.625-1.6211h18.824c5.0508-11.906 16.844-20.254 30.59-20.254 18.344 0 33.215 14.871 33.215 33.215s-14.871 33.215-33.215 33.215c-13.746 0-25.539-8.3477-30.59-20.254h-18.824c-0.89453 0-1.625-0.71875-1.625-1.6211 0-0.89453 0.71094-1.6172 1.625-1.6172zm3.4062 0c-0.87891-2.5625-1.418-5.2812-1.5664-8.1016h27.492c0.91797 0 1.6289-0.72656 1.6289-1.6211 0-0.90234-0.73047-1.6211-1.6289-1.6211h-27.492c0.14844-2.8203 0.6875-5.5391 1.5664-8.1016h38.891c0.91406 0 1.625-0.72266 1.625-1.6172 0-0.90234-0.72656-1.6211-1.625-1.6211h-37.562c4.8359-10.066 15.125-17.016 27.035-17.016 16.555 0 29.977 13.422 29.977 29.977s-13.422 29.977-29.977 29.977c-11.91 0-22.199-6.9492-27.035-17.016h37.562c0.91406 0 1.625-0.72266 1.625-1.6211 0-0.89844-0.72656-1.6172-1.625-1.6172zm26.742-72.109c0-0.89062 0.71875-1.6133 1.6211-1.6133 0.89453 0 1.6211 0.73828 1.6211 1.6133v12.977c0 0.89062-0.71875 1.6133-1.6211 1.6133-0.89453 0-1.6211-0.73828-1.6211-1.6133zm44.59 17.125c0.62891-0.62891 1.6484-0.62891 2.2852 0.007813 0.63281 0.63281 0.625 1.668 0.007813 2.2852l-9.1758 9.1758c-0.63281 0.62891-1.6523 0.63281-2.2891-0.003906-0.63281-0.63281-0.62109-1.668-0.003906-2.2891zm19.418 43.641c0.89062 0 1.6133 0.71875 1.6133 1.6211 0 0.89453-0.73828 1.6211-1.6133 1.6211h-12.977c-0.89062 0-1.6133-0.71875-1.6133-1.6211 0-0.89453 0.73828-1.6211 1.6133-1.6211zm-17.125 44.59c0.62891 0.62891 0.62891 1.6484-0.007813 2.2852-0.63281 0.63281-1.668 0.625-2.2852 0.007813l-9.1758-9.1758c-0.62891-0.63281-0.63281-1.6523 0.003906-2.2891 0.63281-0.63281 1.668-0.62109 2.2891-0.003906zm-43.641 19.418c0 0.89062-0.71875 1.6133-1.6211 1.6133-0.89453 0-1.6211-0.73828-1.6211-1.6133v-12.977c0-0.89062 0.71875-1.6133 1.6211-1.6133 0.89453 0 1.6211 0.73828 1.6211 1.6133zm-44.59-17.125c-0.62891 0.62891-1.6484 0.62891-2.2852-0.007813-0.63281-0.63281-0.625-1.668-0.007813-2.2852l9.1758-9.1758c0.63281-0.62891 1.6523-0.63281 2.2891 0.003906 0.63281 0.63281 0.62109 1.668 0.003906 2.2891zm-2.293-88.23c-0.62891-0.62891-0.62891-1.6484 0.007813-2.2852 0.63281-0.63281 1.668-0.625 2.2852-0.007813l9.1758 9.1758c0.62891 0.63281 0.63281 1.6523-0.003906 2.2891-0.63281 0.63281-1.668 0.62109-2.2891 0.003906z"
    fill-rule="evenodd" fill="#f76b15" />
</svg>