<?xml version="1.0" encoding="UTF-8"?>
<svg width="1200pt" height="1200pt" version="1.1" viewBox="0 0 1200 1200" xmlns="http://www.w3.org/2000/svg">
  <g fill="#f76b15">
    <path d="m669.38 1120.5c132-18 246-83.25 326.62-176.25l-687.75 91.875c102.38 69 229.5 102 361.12 84.375z" />
    <path
      d="m271.12 1008.8c2.625-3.75 7.125-6.375 12-7.125l727.88-97.125c5.25-1.125 10.125 0.75 13.875 3.75 36.375-50.25 64.125-106.88 81-167.62l-957 127.5c32.25 54.375 73.875 102 122.25 140.62z" />
    <path d="m530.62 79.5c-132 18-246 83.25-326.62 176.25l687.75-91.875c-102.38-69-229.5-102-361.12-84.375z" />
    <path
      d="m928.88 191.25c-2.625 3.75-7.125 6.375-12 7.125l-727.88 97.125c-0.75 0-1.875 0.375-2.625 0.375-4.125 0-8.25-1.5-11.25-4.125-36.375 50.25-64.125 106.88-81 167.62l957-127.5c-32.25-54.375-73.875-102-122.25-140.62z" />
    <path
      d="m1069.9 365.62h-0.375c-1.875 1.125-3.75 1.875-6 2.25l-971.62 129.75c-0.75 0-1.875 0.375-2.625 0.375-1.5 0-3 0-4.125-0.75-10.125 49.5-12.75 101.25-7.5 153.75l1039.9-139.12c-9-52.125-25.125-101.25-47.625-146.25z" />
    <path
      d="m1122.4 549-1039.9 139.12c9 52.125 25.125 101.25 47.625 146.25h0.375c1.875-1.125 3.75-1.875 6-2.25l971.62-129.75c2.25-0.375 4.875-0.375 6.75 0.375 10.125-49.5 12.75-101.25 7.5-153.75z" />
  </g>
</svg>