<?xml version="1.0" encoding="UTF-8"?>
<svg width="1200pt" height="1200pt" version="1.1" viewBox="0 0 1200 1200" xmlns="http://www.w3.org/2000/svg">
  <g fill="#f76b15">
    <path
      d="m1125.6 861.39c-42.949 86.004-106.28 160.2-184.47 216.11-142.55-20.797-245.52-68.535-345.47-115.16-87.43-40.809-170.05-79.266-273.46-98.723v0.003906c-82.465-15.582-166.89-17.957-250.1-7.043-56.145-115.56-72.836-246.34-47.516-372.3 88.211 11.738 188.16 40.582 263.74 106.21 155.74 135.05 304.88 142.32 373.08 136.62 14.816 36.238 41.82 66.16 76.352 84.605 34.531 18.445 74.422 24.254 112.78 16.422 38.355-7.8359 72.773-28.816 97.309-59.324 1.0078 1.1172 2.125 2.3477 3.1328 3.5781 41.699 48.969 106.32 75.465 174.63 88.992z" />
    <path
      d="m1187 600c0.019531 56.047-8 111.81-23.812 165.58-56.797-8.6094-108-26.051-135.5-58.473-12.672-14.879-26.957-28.301-42.594-40.023 0.11328-1.2305 0.11328-2.4609 0.11328-3.6914h-0.003906c0.027344-41.461-15.266-81.469-42.941-112.34-27.672-30.875-65.777-50.434-107-54.926-41.219-4.4922-82.641 6.4023-116.32 30.59-33.676 24.188-57.227 59.965-66.133 100.46-48.633 4.25-168.26 0.33594-298.51-112.7-88.879-77.145-201.24-112.47-301.08-127.68 8.0195-20.574 17.238-40.656 27.613-60.148 38.434 9.8672 78.918 8.2031 116.41-4.7773 37.496-12.98 70.34-36.711 94.445-68.23 72.781 33.988 159.77 64.512 244.62 69.543 186.04 11.18 204.6 16.434 317.18 60.82 79.379 31.418 213.32 39.465 306.89 40.809l0.003906-0.003906c17.711 56.711 26.684 115.79 26.605 175.2z" />
    <path
      d="m1117.6 323.07c-82.285-3.0195-174.63-11.738-227.29-32.535-126.67-50.199-159.21-56.461-348.04-67.75-71.441-4.25-147.36-31.641-211.53-62.051h0.003906c4.0508-26.656 2.6055-53.859-4.25-79.938 137.12-72.316 297.3-87.426 445.53-42.031 148.23 45.395 272.47 147.61 345.58 284.3z" />
    <path
      d="m553.18 1053.6c-81.609-38.039-158.68-73.969-249.59-91.09-57.094-10.73-115.3-14.254-173.28-10.484 75.777 101 182.08 174.91 303.15 210.77 121.07 35.859 250.47 31.766 369.03-11.68-96.898-26.617-176.11-63.395-249.31-97.516z" />
    <path
      d="m902.65 663.36c0 47.336-38.375 85.715-85.715 85.715s-85.715-38.379-85.715-85.715c0-47.34 38.375-85.715 85.715-85.715s85.715 38.375 85.715 85.715" />
    <path
      d="m249.15 131.09c0 65.199-52.855 118.05-118.05 118.05s-118.05-52.855-118.05-118.05 52.852-118.05 118.05-118.05 118.05 52.852 118.05 118.05" />
  </g>
</svg>