<?xml version="1.0" encoding="UTF-8"?>
<svg width="1200pt" height="1200pt" version="1.1" viewBox="0 0 1200 1200" xmlns="http://www.w3.org/2000/svg">
  <g fill="#f76b15">
    <path d="m298.8 1036c15.199 12 31.199 20 47.602 32h507.2c16.398-12 32.398-20 47.602-32z" />
    <path d="m196.4 940c10 12 20.801 24 32.398 36h742.8c11.199-12 22-24 32.398-36z" />
    <path d="m217.2 256h765.6c-27.199-28-57.199-52-90.398-76h-584.8c-33.203 24-63.203 48-90.402 76z" />
    <path
      d="m79.199 610.8v13.199h1041.6v-13.199c0-18-0.80078-34.801-2.8008-54.801h-1036c-2 20-2.8008 36.801-2.8008 54.801z" />
    <path d="m134.4 844c7.1992 16 15.199 28 23.602 44h884.4c8.3984-16 16.398-28 23.602-44z" />
    <path d="m883.6 172c-81.602-52-178.8-84-283.6-84s-202 32-283.6 84z" />
    <path d="m140.4 364c-12.398 24-22.801 48-31.602 72h982.4c-8.8008-24-19.602-48-31.602-72z" />
    <path d="m206.4 268c-20.801 24-39.602 52-56 80h898.8c-16.398-28-34.801-56-56-80z" />
    <path d="m97.602 748c4.3984 16 9.6016 32 15.602 48h973.6c6-16 11.199-32 15.602-48z" />
    <path d="m100.8 460c-6.3984 24-11.602 44-15.199 68h1028.4c-3.6016-24-8.8008-44-15.199-68z" />
    <path d="m81.199 660c1.6016 16 3.6016 32 6.8008 48h1024c2.8008-16 5.1992-32 6.8008-48z" />
  </g>
</svg>