<?xml version="1.0" encoding="UTF-8"?>
<svg width="1200pt" height="1200pt" version="1.1" viewBox="0 0 1200 1200" xmlns="http://www.w3.org/2000/svg"
  fill="#f76b15">
  <path
    d="m729.38 831.38 41.625 62.25c-49.438 37.484-109.04 59.18-171 62.25-61.836-3.1445-121.29-24.836-170.62-62.25-100.12-66.75-158.25-66.75-258.38 0l-41.625-62.25c124.5-82.875 217.12-82.875 341.62 0 100.12 66.75 157.88 66.75 258.38 0zm283.12-198v-33.375c0-109.4-43.461-214.32-120.82-291.68-77.355-77.359-182.28-120.82-291.68-120.82s-214.32 43.461-291.68 120.82c-77.359 77.355-120.82 182.28-120.82 291.68 0.12109 15.668 1.125 31.32 3 46.875-21.203 9.9688-41.633 21.5-61.125 34.5l41.625 62.25c100.12-66.75 158.25-66.75 258.38 0 49.332 37.414 108.79 59.105 170.62 62.25 61.836-3.1445 121.29-24.836 170.62-62.25 42.566-32.27 94.52-49.738 147.94-49.738s105.37 17.469 147.94 49.738l41.625-62.25c-29.535-20.289-61.711-36.438-95.625-48z" />
</svg>