<svg xmlns="http://www.w3.org/2000/svg" version="1.1" xmlns:xlink="http://www.w3.org/1999/xlink" xmlns:svgjs="http://svgjs.dev/svgjs" viewBox="0 0 800 800"><defs><linearGradient x1="50%" y1="0%" x2="50%" y2="100%" id="ccchaos-grad"><stop stop-color="hsl(30, 100%, 50%)" stop-opacity="1" offset="0%"></stop><stop stop-color="hsl(30, 100%, 70%)" stop-opacity="1" offset="100%"></stop></linearGradient></defs><g stroke-width="2" stroke="url(#ccchaos-grad)" fill="none" stroke-linecap="round"><path d="M378.13 124.25C387.49 120.98 396.78 117.67 405.99 114.63 415.2 111.64 424.35 109.52 433.42 108.51 442.53 108.31 451.58 109.54 460.58 112.21 469.65 115.9 478.7 120.92 487.74 127.09 496.88 133.9 506.05 141.47 515.25 149.54 524.6 157.63 534 165.82 543.46 173.93 553.09 181.54 562.78 188.85 572.51 195.8 582.39 202.05 592.29 207.95 602.14 213.56 612.07 218.55 621.88 223.41 631.49 228.24 641.03 232.69 650.25 237.3 659.02 242.16 667.53 246.89 675.43 252.01 682.6 257.56 689.29 263.15 695.09 269.23 699.87 275.8 704 282.46 707 289.61 708.8 297.21 709.87 304.9 709.73 313 708.38 321.45 706.39 329.94 703.3 338.75 699.18 347.82 694.7 356.9 689.43 366.21 683.5 375.73 677.64 385.24 671.55 394.73 665.41 404.2 659.73 413.7 654.22 423.21 648.97 432.77 644.43 442.42 640.23 452.19 636.4 462.13 633.32 472.25 630.57 482.63 628.11 493.29 626.28 504.21 624.61 515.48 623 527.08 621.83 538.91 620.56 551.02 619.11 563.29 617.86 575.57 616.26 587.79 614.26 599.72 612.28 611.21 609.77 622 606.7 631.79 603.51 640.55 599.71 647.88 595.3 653.52 590.7 657.73 585.48 660.06 579.66 660.49 573.66 659.7 567.08 657.35 559.98 653.75 552.72 649.95 544.98 645.81 536.8 641.88 528.51 639.26 519.83 637.88 510.82 638.19 501.74 640.89 492.36 645.69 482.73 652.51 473.07 661.42 463.18 671.62 453.1 682.44 443.02 693.44 432.77 703.48 422.37 711.66 411.97 717.7 401.67 720.55 391.5 720.04 381.33 716.72 371.28 710.36 361.37 701.52 351.45 691.12 341.66 679.52 332.01 667.47 322.35 655.86 312.82 645.04 303.44 635.47 294.04 627.7 284.79 621.62 275.7 617.21 266.6 614.74 257.66 613.57 248.92 613.35 240.18 614.26 231.64 615.39 223.34 616.35 215.06 617.4 207.04 617.65 199.32 616.88 191.65 615.5 184.3 612.83 177.31 608.86 170.42 604.04 163.92 597.98 157.84 590.8 151.9 582.92 146.41 574.14 141.41 564.66 136.57 554.74 132.22 544.35 128.42 533.66 124.78 522.77 121.67 511.74 119.13 500.71 116.73 489.62 114.89 478.62 113.62 467.76 112.47 456.92 111.87 446.25 111.83 435.81 111.86 425.39 112.42 415.19 113.52 405.24 114.64 395.29 116.23 385.8 118.26 376.78 120.24 367.72 122.63 359.09 125.39 350.87 128.04 342.59 131.04 334.66 134.35 327.07 137.52 319.35 140.99 311.88 144.73 304.62 148.31 297.13 152.17 289.74 156.27 282.39 160.22 274.7 164.43 266.93 168.88 259.03 173.2 250.71 177.79 242.19 182.64 233.46 187.38 224.32 192.41 215.01 197.73 205.6 202.97 195.98 208.51 186.43 214.36 177.12 220.17 167.99 226.3 159.4 232.73 151.53 239.16 144.29 245.9 138.07 252.95 133.02 260 128.85 267.35 125.95 274.99 124.31 282.64 123.4 290.56 123.51 298.74 124.48 306.93 125.55 315.36 126.99 324 128.51 332.65 129.36 341.5 129.82 350.53 129.74 359.56 128.53 368.77 126.67 378.12 124.25" stroke-dasharray="1 9" transform="rotate(0, 400, 400)" opacity="0.95"></path><path d="M379.39 135.55C388.41 132.32 397.4 129.06 406.34 126.04 415.29 123.03 424.21 120.81 433.08 119.6 441.98 119.13 450.86 119.99 459.72 122.21 468.63 125.4 477.56 129.89 486.48 135.54 495.5 141.87 504.56 149.03 513.65 156.78 522.86 164.68 532.12 172.8 541.43 180.95 550.86 188.76 560.33 196.36 569.81 203.68 579.39 210.4 588.95 216.78 598.42 222.87 607.92 228.36 617.26 233.66 626.36 238.84 635.35 243.59 643.98 248.4 652.15 253.33 660.03 258.05 667.31 263.04 673.86 268.36 679.94 273.62 685.17 279.3 689.43 285.4 693.08 291.53 695.68 298.1 697.17 305.12 697.99 312.17 697.7 319.65 696.29 327.51 694.32 335.4 691.33 343.65 687.39 352.23 683.14 360.81 678.15 369.71 672.54 378.9 666.99 388.1 661.2 397.38 655.34 406.74 649.89 416.12 644.55 425.63 639.42 435.26 634.91 444.98 630.7 454.89 626.79 465.01 623.57 475.27 620.63 485.8 617.94 496.6 615.85 507.56 613.9 518.8 612.03 530.26 610.58 541.8 609.07 553.46 607.41 565.1 605.98 576.57 604.26 587.78 602.21 598.49 600.2 608.62 597.75 617.9 594.81 626.06 590.02 636.03 577.46 646.31 569.67 646.38 564.14 644.97 558.06 642.34 551.48 638.81 544.77 635.36 537.58 631.85 529.96 628.75 522.24 627.05 514.12 626.61 505.65 627.8 497.13 631.21 488.29 636.49 479.17 643.54 470.02 652.41 460.63 662.32 451.02 672.68 441.41 683.13 431.59 692.62 421.61 700.37 411.63 706.15 401.72 709 391.9 708.78 382.09 705.96 372.37 700.31 362.77 692.29 353.17 682.71 343.67 671.84 334.3 660.36 324.92 649.07 315.66 638.28 306.54 628.43 297.41 620.08 288.42 613.19 279.59 607.79 270.75 604.17 262.08 601.85 253.61 600.56 245.14 600.48 236.87 600.85 228.85 601.31 220.85 602.12 213.12 602.45 205.67 602.05 198.29 601.32 191.23 599.54 184.52 596.65 177.92 593.12 171.69 588.44 165.88 582.7 160.21 576.31 154.97 569.01 150.22 560.93 145.61 552.4 141.49 543.29 137.89 533.75 134.45 523.96 131.53 513.91 129.15 503.73 126.92 493.44 125.22 483.11 124.08 472.84 123.05 462.55 122.55 452.35 122.59 442.32 122.71 432.28 123.34 422.41 124.49 412.74 125.65 403.06 127.27 393.8 129.31 384.93 131.3 376.04 133.68 367.51 136.41 359.32 139.04 351.07 142 343.1 145.26 335.38 148.39 327.52 151.8 319.84 155.46 312.28 158.98 304.49 162.75 296.74 166.76 288.96 170.62 280.87 174.72 272.67 179.06 264.34 183.26 255.65 187.72 246.79 192.42 237.77 197.01 228.47 201.87 219.09 206.99 209.71 212.03 200.28 217.36 191.04 222.97 182.16 228.53 173.59 234.39 165.64 240.53 158.49 246.66 152.02 253.08 146.57 259.8 142.28 266.5 138.81 273.5 136.52 280.77 135.4 288.04 134.88 295.58 135.26 303.37 136.37 311.16 137.49 319.2 138.87 327.45 140.29 335.71 141.01 344.18 141.33 352.84 141.13 361.5 139.85 370.36 137.96 379.38 135.55" stroke-dasharray="1 7" transform="rotate(4.04, 400, 400)" opacity="0.27"></path><path d="M381.27 146.84C389.98 143.68 398.68 140.47 407.35 137.47 416.04 134.45 424.71 132.15 433.37 130.78 442.06 130.05 450.75 130.56 459.43 132.35 468.18 135.04 476.94 139 485.71 144.09 494.57 149.91 503.47 156.59 512.39 163.94 521.41 171.55 530.48 179.49 539.56 187.58 548.74 195.46 557.93 203.25 567.1 210.84 576.33 217.94 585.5 224.76 594.54 231.31 603.57 237.3 612.41 243.06 620.96 248.67 629.38 253.82 637.42 258.94 644.98 264.1 652.24 268.98 658.91 274.03 664.86 279.31 670.37 284.45 675.05 289.93 678.82 295.75 682.04 301.54 684.27 307.73 685.46 314.32 686.07 320.91 685.65 327.91 684.2 335.31 682.25 342.71 679.37 350.5 675.62 358.67 671.6 366.84 666.88 375.37 661.58 384.27 656.33 393.17 650.84 402.23 645.26 411.45 640.03 420.69 634.88 430.12 629.88 439.73 625.44 449.4 621.22 459.3 617.27 469.42 613.93 479.63 610.83 490.08 607.96 500.74 605.63 511.48 603.43 522.39 601.31 533.39 599.6 544.35 597.85 555.26 595.99 565.98 594.37 576.41 592.51 586.39 590.37 595.72 588.32 604.39 585.88 612.11 583.02 618.66 578.44 626.32 566.67 632.84 559.43 631.78 554.31 630 548.68 627.32 542.57 624.05 536.36 621.1 529.68 618.3 522.57 616.08 515.38 615.28 507.8 615.75 499.86 617.74 491.87 621.76 483.55 627.44 474.94 634.65 466.3 643.41 457.39 653.01 448.26 662.9 439.11 672.8 429.75 681.75 420.2 689.07 410.64 694.6 401.13 697.45 391.7 697.47 382.26 695.13 372.89 690.15 363.62 682.91 354.35 674.15 345.17 664.05 336.1 653.19 327.03 642.32 318.07 631.68 309.24 621.73 300.4 612.97 291.7 605.41 283.16 599.16 274.62 594.52 266.24 591.1 258.05 588.73 249.88 587.61 241.91 587.09 234.18 586.86 226.5 587.19 219.06 587.3 211.92 586.96 204.85 586.53 198.08 585.31 191.67 583.21 185.37 580.65 179.43 577.09 173.9 572.56 168.5 567.51 163.54 561.55 159.03 554.8 154.67 547.63 150.78 539.8 147.39 531.46 144.16 522.84 141.42 513.86 139.21 504.62 137.14 495.25 135.59 485.73 134.57 476.15 133.65 466.52 133.26 456.9 133.38 447.34 133.57 437.77 134.26 428.29 135.45 418.92 136.65 409.54 138.29 400.5 140.33 391.77 142.32 383.02 144.69 374.55 147.39 366.34 150 358.07 152.93 350 156.13 342.1 159.21 334.07 162.56 326.14 166.16 318.27 169.61 310.19 173.31 302.08 177.23 293.93 181 285.5 185.01 276.96 189.24 268.3 193.33 259.37 197.67 250.33 202.23 241.2 206.68 231.91 211.38 222.64 216.33 213.48 221.19 204.4 226.32 195.63 231.71 187.32 237.04 179.4 242.65 172.19 248.54 165.82 254.39 160.14 260.52 155.47 266.92 151.92 273.31 149.12 279.98 147.4 286.9 146.72 293.82 146.54 301.01 147.14 308.44 148.34 315.86 149.47 323.53 150.78 331.42 152.06 339.31 152.64 347.42 152.83 355.74 152.5 364.04 151.16 372.56 149.24 381.26 146.85" stroke-dasharray="5 4" transform="rotate(8.08, 400, 400)" opacity="0.08"></path><path d="M383.73 158.14C392.12 155.03 400.53 151.89 408.93 148.94 417.35 145.92 425.78 143.56 434.21 142.04 442.67 141.08 451.15 141.26 459.64 142.63 468.17 144.84 476.74 148.26 485.32 152.79 493.98 158.05 502.66 164.21 511.37 171.09 520.15 178.32 528.96 185.98 537.77 193.89 546.64 201.72 555.5 209.57 564.3 217.32 573.13 224.7 581.87 231.87 590.44 238.8 598.97 245.25 607.27 251.49 615.27 257.53 623.11 263.14 630.55 268.65 637.5 274.14 644.16 279.3 650.22 284.56 655.6 289.95 660.56 295.16 664.73 300.61 668.05 306.34 670.86 311.97 672.75 317.94 673.69 324.27 674.11 330.56 673.58 337.23 672.1 344.3 670.19 351.34 667.43 358.78 663.86 366.61 660.06 374.43 655.62 382.65 650.62 391.26 645.66 399.88 640.47 408.71 635.16 417.74 630.17 426.78 625.2 436.04 620.35 445.49 615.99 454.99 611.8 464.71 607.83 474.62 604.4 484.57 601.18 494.7 598.14 504.96 595.61 515.22 593.19 525.54 590.85 535.81 588.89 545.93 586.91 555.87 584.85 565.45 583.04 574.65 581.03 583.28 578.79 591.15 575.43 601.45 566.95 615.19 561.65 618.18 555.8 618.66 541.64 613.7 533.34 609.58 527.56 607.24 521.35 605.23 514.73 603.9 508.03 603.98 500.94 605.28 493.51 607.99 486.02 612.53 478.2 618.52 470.09 625.82 461.95 634.42 453.53 643.68 444.86 653.1 436.19 662.44 427.28 670.87 418.17 677.77 409.06 683.06 399.96 685.88 390.92 686.13 381.87 684.23 372.88 679.88 363.96 673.4 355.05 665.44 346.21 656.12 337.47 645.94 328.74 635.57 320.1 625.21 311.58 615.29 303.07 606.29 294.68 598.24 286.45 591.3 278.23 585.75 270.16 581.34 262.29 577.94 254.44 575.76 246.8 574.27 239.38 573.23 232.02 572.88 224.91 572.53 218.08 571.98 211.34 571.55 204.89 570.57 198.79 568.92 192.79 567.01 187.16 564.28 181.92 560.71 176.81 556.74 172.11 551.94 167.86 546.36 163.75 540.42 160.1 533.8 156.92 526.61 153.9 519.17 151.35 511.26 149.31 503.01 147.4 494.61 145.99 485.96 145.09 477.14 144.29 468.26 143.99 459.28 144.19 450.25 144.45 441.22 145.19 432.16 146.41 423.13 147.64 414.09 149.29 405.28 151.33 396.7 153.32 388.09 155.67 379.68 158.34 371.44 160.92 363.15 163.81 354.98 166.96 346.91 169.99 338.72 173.29 330.56 176.81 322.42 180.2 314.09 183.83 305.72 187.66 297.28 191.36 288.63 195.28 279.89 199.41 271.06 203.4 262.06 207.62 253 212.06 243.95 216.38 234.85 220.94 225.87 225.73 217.11 230.42 208.53 235.37 200.36 240.56 192.74 245.69 185.58 251.07 179.15 256.72 173.6 262.31 168.72 268.18 164.82 274.3 161.96 280.4 159.77 286.76 158.57 293.37 158.29 299.97 158.38 306.82 159.14 313.91 160.39 321 161.49 328.32 162.7 335.87 163.83 343.41 164.26 351.18 164.3 359.16 163.86 367.13 162.45 375.32 160.52 383.72 158.14" stroke-dasharray="1 10" transform="rotate(12.12, 400, 400)" opacity="0.12"></path><path d="M386.67 169.44C394.76 166.4 402.88 163.33 411.01 160.42 419.16 157.43 427.33 155.03 435.51 153.38 443.73 152.22 451.97 152.1 460.23 153.07 468.53 154.81 476.86 157.71 485.21 161.67 493.62 166.35 502.05 171.94 510.49 178.29 518.98 185.06 527.49 192.33 535.96 199.95 544.48 207.61 552.96 215.39 561.34 223.17 569.73 230.71 578 238.11 586.07 245.34 594.07 252.17 601.82 258.82 609.24 265.28 616.5 271.33 623.35 277.27 629.7 283.13 635.77 288.66 641.26 294.21 646.09 299.84 650.53 305.24 654.22 310.81 657.12 316.58 659.56 322.22 661.15 328.13 661.86 334.34 662.11 340.48 661.49 346.96 660 353.8 658.15 360.6 655.51 367.78 652.13 375.34 648.54 382.88 644.36 390.82 639.66 399.17 634.99 407.51 630.09 416.07 625.06 424.83 620.29 433.61 615.53 442.59 610.83 451.75 606.56 460.94 602.43 470.3 598.46 479.8 594.98 489.3 591.66 498.9 588.49 508.53 585.78 518.08 583.18 527.58 580.64 536.91 578.47 546.02 576.27 554.81 574.02 563.13 572.02 571.03 569.86 578.27 567.51 584.69 559.82 597.84 544.95 604 538.56 601.84 531.64 598.93 515.6 593.28 506.52 592.22 500.28 593.13 493.66 595.2 486.69 598.54 479.68 603.51 472.35 609.73 464.71 617.04 457.05 625.43 449.11 634.32 440.91 643.26 432.7 652.07 424.25 659.98 415.59 666.48 406.92 671.51 398.26 674.3 389.62 674.74 380.98 673.25 372.38 669.5 363.84 663.74 355.3 656.57 346.83 648.04 338.44 638.57 330.06 628.77 321.77 618.81 313.6 609.05 305.43 599.97 297.39 591.6 289.49 584.13 281.61 577.85 273.89 572.56 266.35 568.22 258.85 565.03 251.55 562.56 244.48 560.63 237.46 559.47 230.69 558.49 224.19 557.49 217.78 556.79 211.67 555.76 205.89 554.26 197.55 551.59 182.92 542.47 176.72 535.91 172.87 531.01 169.45 525.46 166.5 519.31 163.68 512.94 161.33 506.06 159.45 498.76 157.7 491.32 156.43 483.55 155.64 475.51 154.96 467.41 154.74 459.11 155.01 450.65 155.34 442.19 156.12 433.61 157.37 424.94 158.63 416.28 160.29 407.73 162.31 399.31 164.3 390.88 166.62 382.55 169.25 374.32 171.8 366.04 174.64 357.81 177.74 349.61 180.72 341.32 183.96 333.02 187.42 324.7 190.74 316.24 194.29 307.72 198.05 299.14 201.67 290.42 205.5 281.64 209.54 272.83 213.44 263.93 217.55 255.06 221.87 246.27 226.08 237.54 230.5 229.02 235.14 220.82 239.69 212.88 244.47 205.42 249.48 198.57 254.42 192.22 259.6 186.62 265.02 181.89 270.39 177.79 276.01 174.62 281.88 172.41 287.71 170.78 293.79 170.02 300.11 170.06 306.41 170.38 312.95 171.23 319.74 172.49 326.5 173.52 333.5 174.61 340.73 175.58 347.95 175.86 355.39 175.76 363.05 175.2 370.7 173.74 378.58 171.79 386.66 169.44" stroke-dasharray="9 5" transform="rotate(16.16, 400, 400)" opacity="0.38"></path><path d="M390.03 180.73C397.81 177.77 405.63 174.78 413.48 171.94 421.35 168.99 429.25 166.56 437.17 164.81 445.11 163.47 453.09 163.07 461.09 163.68 469.12 164.98 477.18 167.35 485.26 170.75 493.37 174.84 501.51 179.83 509.63 185.61 517.79 191.84 525.94 198.64 534.04 205.87 542.16 213.24 550.22 220.82 558.15 228.5 566.07 236.05 573.83 243.56 581.38 250.96 588.84 258.07 596.02 265.03 602.87 271.83 609.54 278.29 615.8 284.62 621.58 290.85 627.08 296.77 632.02 302.67 636.32 308.58 640.28 314.27 643.53 320.04 646.04 325.95 648.14 331.72 649.46 337.69 649.97 343.89 650.07 350 649.39 356.4 647.91 363.1 646.11 369.76 643.6 376.75 640.4 384.09 637.04 391.41 633.11 399.09 628.7 407.15 624.32 415.21 619.7 423.47 614.93 431.89 610.4 440.32 605.84 448.92 601.32 457.66 597.16 466.4 593.1 475.25 589.16 484.16 585.65 493.04 582.26 501.92 579 510.74 576.15 519.43 573.38 527.95 570.68 536.2 568.31 544.18 565.93 551.75 563.5 558.77 560.16 568.31 552.92 582.59 548.81 586.94 539.34 589.24 521.59 584.49 514.3 581.98 509.27 581.07 503.85 580.69 498.06 581.07 492.23 582.75 486.04 585.49 479.51 589.38 472.95 594.68 466.07 601.05 458.9 608.3 451.7 616.45 444.22 624.95 436.48 633.39 428.74 641.67 420.75 649.08 412.53 655.18 404.32 659.96 396.09 662.71 387.87 663.33 379.66 662.2 371.47 659 363.32 653.94 355.18 647.54 347.09 639.79 339.08 631.06 331.08 621.9 323.16 612.41 315.35 602.95 307.56 593.93 299.88 585.42 292.34 577.59 284.83 570.74 277.47 564.73 270.29 559.56 263.16 555.44 256.22 552.03 249.5 549.2 242.84 547.16 236.43 545.42 230.28 543.83 221.34 541.98 205.15 537.19 198.01 533.67 191.43 529.39 180.45 517.45 176.12 509.83 173.51 504.39 171.35 498.42 169.64 491.99 168.05 485.45 166.91 478.5 166.24 471.22 165.66 463.88 165.53 456.25 165.86 448.39 166.24 440.51 167.07 432.43 168.33 424.17 169.6 415.9 171.26 407.66 173.27 399.46 175.24 391.25 177.54 383.06 180.13 374.89 182.64 366.69 185.43 358.48 188.47 350.26 191.4 341.97 194.57 333.64 197.96 325.27 201.23 316.82 204.7 308.31 208.38 299.76 211.93 291.15 215.68 282.51 219.62 273.9 223.43 265.3 227.45 256.79 231.66 248.45 235.75 240.25 240.06 232.34 244.56 224.83 248.97 217.63 253.6 210.97 258.44 204.95 263.21 199.43 268.21 194.67 273.42 190.74 281.28 186.14 298.1 181.93 307.07 182.04 313.09 182.51 319.35 183.42 325.84 184.63 332.31 185.57 339.01 186.51 345.93 187.31 352.84 187.44 359.97 187.19 367.32 186.52 374.67 185.01 382.23 183.06 390.02 180.74" stroke-dasharray="10 1" transform="rotate(20.200000000000003, 400, 400)" opacity="0.93"></path><path d="M393.68 192.03C401.16 189.15 408.69 186.25 416.25 183.47 423.81 180.58 431.42 178.15 439.06 176.32 446.71 174.82 454.4 174.18 462.11 174.45 469.84 175.34 477.6 177.22 485.35 180.07 493.14 183.56 500.93 187.94 508.7 193.1 516.49 198.75 524.24 205.01 531.93 211.75 539.62 218.72 547.21 225.98 554.66 233.43 562.08 240.84 569.32 248.31 576.33 255.75 583.23 262.99 589.86 270.14 596.13 277.18 602.23 283.94 607.92 290.6 613.13 297.15 618.09 303.43 622.51 309.66 626.33 315.86 629.82 321.86 632.67 327.89 634.82 333.99 636.62 339.95 637.69 346.04 638.03 352.3 638.01 358.47 637.28 364.86 635.82 371.48 634.09 378.06 631.7 384.92 628.7 392.07 625.54 399.19 621.87 406.64 617.74 414.39 613.63 422.15 609.29 430.05 604.8 438.07 600.5 446.09 596.15 454.22 591.81 462.42 587.78 470.59 583.81 478.81 579.92 487 576.41 495.13 572.99 503.17 569.66 511.05 566.7 518.78 563.81 526.24 560.96 533.34 558.43 540.17 555.88 546.52 553.3 552.28 545.94 565.4 533.65 575.23 528.77 575.14 523.61 574.13 511.6 570.53 504.72 569.02 497.44 569.07 481.1 574.48 472.09 580.47 465.95 586.03 459.5 592.46 452.76 599.6 446 607.46 438.97 615.54 431.69 623.5 424.39 631.24 416.86 638.17 409.1 643.89 401.34 648.41 393.55 651.11 385.76 651.87 377.98 651.09 370.21 648.4 362.47 643.99 354.74 638.32 347.06 631.35 339.44 623.38 331.84 614.9 324.32 605.97 316.89 596.91 309.49 588.1 302.2 579.6 295.04 571.59 287.92 564.34 280.95 557.78 274.14 551.94 267.39 547.01 260.83 542.74 254.48 539.05 248.2 536.13 242.16 533.59 236.37 531.29 227.96 528.57 212.79 523 206.12 519.57 199.98 515.7 189.79 505.29 185.8 498.67 183.4 493.96 181.42 488.75 179.88 483.06 178.44 477.29 177.43 471.08 176.87 464.5 176.39 457.86 176.34 450.88 176.72 443.59 177.16 436.29 178.02 428.71 179.29 420.88 180.58 413.05 182.23 405.16 184.21 397.23 186.16 389.3 188.42 381.32 190.96 373.31 193.43 365.28 196.17 357.19 199.14 349.07 202.02 340.91 205.12 332.69 208.44 324.43 211.64 316.14 215.04 307.82 218.64 299.48 222.11 291.15 225.78 282.85 229.63 274.63 233.36 266.5 237.28 258.52 241.38 250.79 245.37 243.26 249.56 236.08 253.94 229.35 258.22 222.97 262.71 217.15 267.4 211.99 274.42 205.32 289.43 196.57 297.42 194.52 305.58 193.74 322.94 195.21 332.15 196.8 338.34 197.62 344.76 198.4 351.39 199.02 358 198.98 364.84 198.6 371.89 197.83 378.93 196.27 386.19 194.31 393.67 192.03" stroke-dasharray="7 1" transform="rotate(24.24, 400, 400)" opacity="0.62"></path><path d="M397.53 203.33C404.7 200.54 411.92 197.73 419.17 195.04 426.43 192.21 433.74 189.79 441.06 187.91 448.4 186.29 455.77 185.44 463.16 185.41 470.56 185.91 477.97 187.33 485.38 189.64 492.81 192.55 500.22 196.32 507.59 200.85 514.97 205.87 522.3 211.53 529.54 217.71 536.76 224.17 543.87 231 550.82 238.08 557.72 245.23 564.42 252.51 570.88 259.84 577.24 267.07 583.3 274.27 589.01 281.4 594.55 288.35 599.68 295.21 604.36 301.99 608.8 308.55 612.73 315.05 616.1 321.5 619.17 327.77 621.65 334.04 623.48 340.34 625 346.5 625.86 352.74 626.05 359.08 625.93 365.34 625.16 371.75 623.74 378.33 622.08 384.86 619.83 391.61 617.01 398.57 614.06 405.52 610.64 412.71 606.77 420.14 602.94 427.57 598.87 435.08 594.65 442.63 590.59 450.18 586.45 457.76 582.29 465.33 578.41 472.87 574.54 480.36 570.74 487.75 567.25 495.05 563.82 502.19 560.47 509.08 557.43 515.8 554.44 522.2 551.48 528.18 547.47 536.5 539.62 549.77 535.64 554.44 527.44 559.21 513.28 559.39 507.66 558.02 501.75 557.16 488.34 557.88 480.84 560.35 475.71 563.33 470.27 567.14 464.54 571.81 458.78 577.52 452.73 583.95 446.41 590.91 440.08 598.45 433.48 606.11 426.63 613.57 419.78 620.8 412.69 627.25 405.38 632.59 398.08 636.87 390.73 639.49 383.38 640.39 376.04 639.9 368.7 637.69 361.39 633.89 354.09 628.93 346.82 622.72 339.62 615.51 332.44 607.74 325.32 599.44 318.3 590.87 311.31 582.39 304.42 574.05 297.67 566.02 290.95 558.56 284.37 551.63 277.97 545.27 271.61 539.68 265.44 534.68 259.48 530.22 253.59 526.47 247.92 523.13 242.5 520.09 234.64 516.36 220.5 509.5 214.3 505.83 208.61 502 199.2 492.38 195.55 486.43 192.45 479.93 188.44 464.57 187.54 455.79 187.15 449.77 187.17 443.38 187.61 436.64 188.09 429.89 188.97 422.81 190.25 415.43 191.54 408.05 193.18 400.55 195.13 392.96 197.05 385.37 199.27 377.68 201.76 369.93 204.18 362.17 206.86 354.34 209.76 346.45 212.58 338.55 215.61 330.6 218.85 322.62 221.98 314.66 225.31 306.69 228.82 298.75 232.22 290.87 235.81 283.07 239.56 275.41 243.21 267.89 247.03 260.59 251.03 253.58 254.93 246.82 259 240.46 263.26 234.57 267.42 229.04 271.78 224.09 276.31 219.77 283.11 214.29 297.58 207.5 305.28 206.14 313.11 205.8 329.77 207.52 338.59 208.97 344.52 209.65 350.66 210.25 357.01 210.69 363.34 210.49 369.89 209.98 376.64 209.11 383.39 207.51 390.35 205.57 397.52 203.33" stroke-dasharray="7 4" transform="rotate(28.28, 400, 400)" opacity="0.12"></path><path d="M401.45 214.62C408.31 211.93 415.21 209.22 422.15 206.62 429.09 203.88 436.06 201.49 443.06 199.57 450.06 197.87 457.09 196.84 464.12 196.54 471.17 196.7 478.21 197.68 485.23 199.49 492.27 201.84 499.27 205 506.22 208.9 513.16 213.27 520.03 218.29 526.79 223.85 533.53 229.73 540.14 236.03 546.57 242.64 552.95 249.39 559.11 256.34 565.02 263.41 570.83 270.46 576.34 277.56 581.5 284.65 586.5 291.62 591.11 298.55 595.28 305.43 599.23 312.15 602.7 318.82 605.65 325.43 608.34 331.9 610.48 338.34 612.02 344.78 613.29 351.11 613.97 357.47 614.03 363.87 613.84 370.21 613.05 376.63 611.67 383.16 610.09 389.65 607.97 396.27 605.33 403.04 602.59 409.8 599.41 416.72 595.81 423.8 592.25 430.88 588.45 437.95 584.48 444.99 580.66 452.02 576.74 459.01 572.78 465.91 569.05 472.76 565.31 479.5 561.6 486.04 558.16 492.51 554.76 498.73 551.4 504.64 546.8 513.1 538.07 527.54 533.85 533.27 525.8 540.98 513 545.81 508.22 545.51 503.27 545.08 492.14 544.48 485.91 545.1 479.39 547.33 464.91 556.35 456.98 563.37 451.57 569.15 445.91 575.5 439.98 582.24 434.05 589.43 427.86 596.64 421.44 603.61 415.02 610.33 408.37 616.32 401.51 621.29 394.65 625.33 387.75 627.87 380.84 628.87 373.94 628.65 367.04 626.87 360.16 623.64 353.29 619.36 346.46 613.88 339.68 607.43 332.93 600.39 326.24 592.76 319.64 584.76 313.07 576.72 306.6 568.68 300.26 560.78 293.96 553.28 287.8 546.15 281.8 539.46 275.85 533.39 270.09 527.81 264.52 522.7 259.02 518.23 253.74 514.15 248.7 510.4 241.4 505.62 228.29 497.15 222.57 493 217.32 488.91 208.69 479.44 205.36 473.85 202.55 467.85 198.99 453.81 198.24 445.78 197.95 440.27 198.04 434.38 198.52 428.14 199.04 421.89 199.94 415.3 201.21 408.38 202.5 401.46 204.11 394.38 206.03 387.19 207.91 380 210.08 372.7 212.51 365.3 214.87 357.92 217.48 350.46 220.31 342.94 223.06 335.44 226.03 327.91 229.18 320.37 232.24 312.88 235.49 305.42 238.91 298.04 242.23 290.75 245.72 283.59 249.38 276.63 252.94 269.84 256.67 263.31 260.56 257.12 264.36 251.19 268.33 245.68 272.46 240.66 278.63 233.92 291.71 223.96 298.65 220.86 305.69 218.89 320.63 218.07 328.55 218.88 336.61 219.86 353.68 221.85 362.69 222.31 368.75 221.97 375.01 221.33 381.47 220.37 387.93 218.74 394.58 216.81 401.44 214.63" stroke-dasharray="7 4" transform="rotate(32.32, 400, 400)" opacity="0.50"></path><path d="M405.33 225.92C411.87 223.33 418.44 220.73 425.04 218.23 431.65 215.58 438.28 213.24 444.92 211.32 451.57 209.55 458.23 208.37 464.88 207.85 471.54 207.7 478.19 208.3 484.8 209.64 491.42 211.47 497.99 214.04 504.48 217.31 510.97 221.03 517.36 225.38 523.63 230.28 529.87 235.52 535.97 241.21 541.88 247.26 547.72 253.5 553.35 260 558.72 266.67 563.99 273.41 568.96 280.24 573.6 287.12 578.08 293.97 582.19 300.82 585.88 307.64 589.38 314.37 592.43 321.07 594.99 327.72 597.33 334.27 599.16 340.8 600.45 347.29 601.51 353.7 602.03 360.1 601.99 366.52 601.73 372.87 600.94 379.26 599.61 385.7 598.12 392.11 596.14 398.58 593.68 405.13 591.14 411.66 588.19 418.29 584.85 424.98 581.54 431.68 578 438.29 574.3 444.8 570.71 451.3 567.02 457.67 563.26 463.88 559.7 470.05 556.1 476.03 552.5 481.76 549.14 487.41 545.79 492.77 542.46 497.79 537.83 504.92 528.93 516.75 524.59 521.28 516.28 527.3 503.28 531.19 498.52 531.2 493.64 531.38 482.84 532.57 476.87 534.22 470.66 537.4 456.99 547.8 449.52 555.12 444.45 560.89 439.14 567.09 433.59 573.57 428.03 580.38 422.24 587.13 416.24 593.61 410.22 599.84 404 605.38 397.58 610 391.17 613.78 384.71 616.24 378.25 617.32 371.79 617.34 365.33 615.95 358.89 613.25 352.47 609.59 346.07 604.82 339.73 599.11 333.42 592.81 327.16 585.88 321 578.52 314.86 571.02 308.82 563.38 302.91 555.76 297.03 548.38 291.29 541.23 285.71 534.39 280.18 528.01 274.82 522.02 269.66 516.43 264.56 511.36 259.67 506.65 255.01 502.27 248.26 496.5 236.19 486.31 230.93 481.52 226.13 476.96 218.26 467.13 215.25 461.63 212.73 455.88 209.59 442.69 208.99 435.22 208.86 427.38 210.45 409.98 212.17 400.46 213.45 394 215.03 387.38 216.9 380.63 218.75 373.9 220.86 367.05 223.21 360.11 225.52 353.2 228.06 346.21 230.8 339.19 233.48 332.21 236.36 325.21 239.42 318.25 242.4 311.36 245.56 304.54 248.89 297.83 252.13 291.25 255.53 284.84 259.09 278.66 262.56 272.67 266.19 266.97 269.98 261.64 275.6 254.23 287.53 242.19 293.83 237.75 300.2 234.34 313.69 230.7 320.82 230.33 328.06 230.51 343.39 232.21 351.49 233.25 359.73 233.71 377.12 233.02 386.28 231.6 392.43 229.96 398.78 228.05 405.32 225.92" stroke-dasharray="7 0" transform="rotate(36.36, 400, 400)" opacity="0.14"></path><path d="M409.05 237.22C415.25 234.73 421.49 232.25 427.74 229.86 433.99 227.32 440.26 225.05 446.53 223.13 459.09 219.73 471.64 218.64 484 220.1 496.34 223.21 508.43 229.01 520.01 237.12 531.43 246.56 542.19 257.67 551.98 269.86 561.36 282.49 569.53 295.62 576.2 308.87 582.18 321.99 586.45 335.07 588.79 347.98 590.34 360.67 589.95 373.32 587.57 385.9 586.17 392.17 584.32 398.44 582.04 404.72 579.7 410.99 576.97 417.28 573.89 423.57 570.83 429.86 567.55 436 564.1 441.97 560.75 447.93 557.28 453.7 553.73 459.25 547.14 470.25 540.38 480.19 533.63 488.77 527.7 496.94 521.71 503.48 515.64 508.21 510.24 512.47 504.53 515.05 498.43 516.16 492.7 517.59 486.33 518.48 479.27 519.52 472.33 522.48 464.55 526.83 455.92 533.05 447.28 542.07 437.74 552.92 427.36 564.89 422.15 571.29 416.74 577.58 411.14 583.58 405.52 589.33 399.72 594.43 393.74 598.7 387.75 602.25 381.73 604.61 375.71 605.75 369.69 605.96 363.68 604.93 357.68 602.71 345.73 595.77 333.92 585.14 322.44 572.09 311.07 558.18 300.11 543.8 289.74 529.89 279.57 517.3 270.07 505.89 261.45 495.7 253.1 487.12 245.7 479.27 239.42 471.77 233.47 465.14 228.69 458.15 225.22 450.49 222.08 443.06 220.23 434.58 219.79 424.96 219.75 417.6 221.43 401.35 223.13 392.49 224.39 386.48 225.94 380.33 227.76 374.08 229.55 367.83 231.6 361.49 233.88 355.08 238.3 342.35 243.59 329.49 249.58 316.83 255.29 304.51 261.68 292.69 268.66 281.81 275.33 271.67 282.62 262.87 290.45 255.84 298.02 249.85 306.2 245.79 314.97 243.77 323.54 242.41 332.77 242.57 342.62 243.86 352.35 244.49 362.78 245.16 373.86 245.41 379.38 244.78 385.07 243.92 390.94 242.81 396.79 241.16 402.83 239.28 409.04 237.22" stroke-dasharray="0 3" transform="rotate(40.400000000000006, 400, 400)" opacity="0.64"></path><path d="M412.49 248.51C424.22 243.46 436.03 238.77 447.78 235.02 459.56 231.55 471.26 230.09 482.73 230.87 494.17 233.04 505.29 237.66 515.87 244.44 526.28 252.5 536 262.26 544.77 273.22 553.17 284.76 560.4 296.97 566.23 309.47 571.46 322.04 575.13 334.66 577.04 347.15 578.3 359.55 577.81 371.85 575.54 383.96 572.84 396.03 568.59 407.99 562.93 419.72 557.34 431.45 550.98 442.35 544.19 452.27 537.94 462.08 531.46 470.73 524.9 478.03 519.04 485.04 513.06 490.57 506.98 494.54 501.49 498.33 495.72 500.82 489.61 502.28 483.85 504.32 477.55 506.18 470.67 508.42 463.93 512.49 456.45 517.88 448.26 524.85 440.08 534.13 431.1 544.8 421.4 556.19 411.67 568.17 401.2 579.03 390.08 587.4 378.95 593.29 367.75 594.81 356.63 592.03 345.57 586.25 334.65 577.04 324.05 565.41 313.57 552.74 303.48 539.25 293.96 525.82 284.62 513.22 275.93 501.42 268.06 490.6 260.44 481.08 253.71 472.29 248.04 463.97 242.66 456.49 238.36 448.93 235.29 441.01 232.49 433.39 230.91 425.02 230.62 415.8 230.52 406.61 231.66 396.43 234.1 385.3 236.56 374.16 240.08 362.62 244.5 350.95 248.78 339.38 253.87 327.84 259.64 316.64 265.17 305.78 271.36 295.55 278.09 286.34 284.56 277.79 291.61 270.58 299.17 265.02 306.5 260.28 314.4 257.24 322.83 255.92 331.08 254.98 339.94 255.24 349.35 256.37 358.66 256.71 368.6 257 379.13 256.87 389.62 254.9 400.75 252.06 412.48 248.52" stroke-dasharray="6 10" transform="rotate(44.44, 400, 400)" opacity="0.30"></path><path d="M415.55 259.81C426.57 255.02 437.63 250.59 448.58 246.97 459.54 243.5 470.38 241.76 480.94 241.96 491.45 243.29 501.6 246.82 511.19 252.34 520.61 259.02 529.33 267.38 537.12 276.98 544.58 287.25 550.94 298.33 555.99 309.83 560.55 321.53 563.67 333.41 565.22 345.23 566.23 357.06 565.68 368.78 563.54 380.25 561.04 391.72 557.16 402.96 551.97 413.81 546.84 424.67 540.97 434.58 534.64 443.43 528.76 452.2 522.58 459.81 516.26 466.15 510.52 472.33 504.63 477.21 498.61 480.84 493.09 484.5 487.31 487.21 481.24 489.27 475.49 492.06 469.28 494.92 462.58 498.28 456.03 503.33 448.86 509.53 441.07 517.03 433.32 526.39 424.89 536.74 415.82 547.47 406.74 558.53 397.01 568.45 386.72 576.11 376.42 581.62 366.08 583.3 355.84 581.21 345.65 576.5 335.62 568.63 325.91 558.43 316.3 547.08 307.07 534.68 298.4 521.99 289.88 509.73 281.99 497.91 274.87 486.79 267.96 476.67 261.9 467.18 256.81 458.21 251.97 449.98 248.14 441.86 245.44 433.63 242.98 425.72 241.64 417.35 241.5 408.41 241.52 399.53 242.69 389.94 245.06 379.63 247.45 369.32 250.85 358.82 255.08 348.35 259.19 337.98 264.08 327.79 269.61 318.08 274.94 308.67 280.89 300 287.36 292.38 293.61 285.31 300.4 279.51 307.67 275.21 314.74 271.5 322.34 269.25 330.42 268.42 338.34 267.73 346.81 267.96 355.79 268.83 364.67 268.85 374.11 268.76 384.08 268.27 394.02 266.12 404.52 263.25 415.55 259.81" stroke-dasharray="5 7" transform="rotate(48.48, 400, 400)" opacity="0.97"></path><path d="M418.14 271.1C428.43 266.6 438.71 262.44 448.84 258.99 458.96 255.58 468.92 253.63 478.56 253.36 488.14 253.97 497.33 256.52 505.94 260.87 514.39 266.23 522.16 273.19 529.03 281.39 535.61 290.27 541.16 300.05 545.51 310.36 549.45 320.96 552.1 331.86 553.34 342.77 554.14 353.78 553.55 364.71 551.55 375.38 549.27 386.08 545.73 396.51 541.01 406.48 536.33 416.44 530.94 425.44 525.08 433.4 519.57 441.31 513.73 448.13 507.7 453.81 502.15 459.45 496.39 464.02 490.5 467.62 485.02 471.42 479.3 474.58 473.31 477.37 467.62 480.96 461.53 484.78 455.03 489.13 448.68 494.95 441.81 501.75 434.43 509.55 427.08 518.8 419.17 528.7 410.72 538.7 402.26 548.85 393.25 557.85 383.76 564.81 374.28 569.94 364.78 571.74 355.41 570.25 346.08 566.51 336.92 559.92 328.09 551.11 319.34 541.13 310.96 529.95 303.12 518.23 295.41 506.61 288.29 495.11 281.9 484.05 275.69 473.68 270.26 463.81 265.74 454.42 261.42 445.64 258.04 437.08 255.7 428.58 253.55 420.4 252.43 412 252.42 403.3 252.54 394.68 253.72 385.59 256.02 376.08 258.34 366.56 261.58 357.07 265.61 347.78 269.54 338.57 274.21 329.71 279.48 321.43 284.58 313.41 290.27 306.18 296.46 299.98 302.46 294.2 308.97 289.6 315.93 286.31 322.72 283.41 329.99 281.72 337.7 281.18 345.27 280.56 353.34 280.66 361.86 281.2 370.29 280.87 379.23 280.41 388.62 279.59 397.98 277.3 407.84 274.42 418.14 271.1" stroke-dasharray="0 4" transform="rotate(52.52, 400, 400)" opacity="0.31"></path><path d="M420.17 282.4C429.72 278.19 439.2 274.31 448.49 271.06 457.77 267.76 466.84 265.7 475.55 265.05 484.22 265.08 492.46 266.78 500.13 270.06 507.65 274.21 514.51 279.82 520.52 286.63 526.28 294.09 531.09 302.47 534.82 311.46 538.2 320.8 540.43 330.51 541.41 340.35 542.04 350.32 541.44 360.28 539.59 370.04 537.52 379.84 534.32 389.37 530.05 398.46 525.81 407.56 520.89 415.74 515.5 422.97 510.39 430.17 504.91 436.43 499.21 441.73 493.89 447.08 488.34 451.6 482.63 455.4 477.27 459.51 471.66 463.23 465.82 466.79 460.23 471.14 454.31 475.78 448.04 480.94 441.91 487.32 435.35 494.48 428.37 502.36 421.43 511.32 414.02 520.66 406.17 529.89 398.32 539.11 390.01 547.23 381.3 553.51 372.6 558.26 363.92 560.13 355.4 559.16 346.91 556.29 338.61 550.87 330.64 543.41 322.73 534.81 315.19 524.94 308.16 514.35 301.24 503.63 294.87 492.76 289.18 482.09 283.64 471.84 278.82 461.92 274.83 452.41 271.02 443.35 268.06 434.54 266.05 425.93 264.2 417.58 263.29 409.2 263.38 400.75 263.59 392.37 264.77 383.78 266.98 375.01 269.21 366.23 272.29 357.7 276.1 349.53 279.83 341.41 284.25 333.78 289.24 326.81 294.1 320.03 299.51 314.05 305.39 309.06 311.11 304.35 317.31 300.7 323.93 298.17 330.4 295.84 337.32 294.49 344.63 294.05 351.83 293.39 359.47 293.26 367.5 293.43 375.47 292.76 383.87 291.94 392.66 290.83 401.43 288.43 410.62 285.58 420.17 282.4" stroke-dasharray="1 8" transform="rotate(56.56, 400, 400)" opacity="0.80"></path><path d="M421.59 293.7C430.38 289.8 439.04 286.21 447.48 283.19 455.91 280.04 464.09 277.94 471.9 277.03 479.66 276.6 486.99 277.59 493.76 279.96 500.39 283.01 506.39 287.38 511.61 292.87 516.61 298.92 520.75 305.9 523.92 313.53 526.81 321.5 528.68 329.93 529.44 338.57 529.93 347.36 529.35 356.23 527.65 364.98 525.79 373.77 522.93 382.37 519.09 390.61 515.28 398.85 510.82 406.3 505.9 412.94 501.2 419.59 496.12 425.46 490.78 430.59 485.74 435.81 480.46 440.44 474.99 444.59 469.8 449.07 464.38 453.37 458.75 457.63 453.32 462.62 447.6 467.91 441.61 473.65 435.73 480.36 429.5 487.65 422.93 495.41 416.41 503.94 409.5 512.62 402.24 521.02 394.98 529.32 387.35 536.58 379.41 542.22 371.47 546.58 363.6 548.48 355.91 547.94 348.23 545.84 340.77 541.49 333.62 535.3 326.53 528.06 319.8 519.54 313.55 510.19 307.39 500.56 301.75 490.58 296.72 480.6 291.83 470.8 287.6 461.17 284.12 451.84 280.78 442.82 278.22 434.03 276.51 425.49 274.93 417.15 274.2 408.91 274.39 400.76 274.67 392.68 275.84 384.59 277.94 376.53 280.06 368.47 282.97 360.81 286.54 353.66 290.06 346.54 294.22 339.99 298.9 334.14 303.48 328.42 308.59 323.49 314.13 319.45 319.54 315.58 325.4 312.62 331.64 310.61 337.77 308.62 344.3 307.43 351.19 306.94 357.98 306.14 365.17 305.71 372.69 305.49 380.16 304.49 388 303.35 396.17 301.98 404.31 299.52 412.81 296.72 421.59 293.7" stroke-dasharray="1 6" transform="rotate(60.599999999999994, 400, 400)" opacity="0.22"></path><path d="M422.36 304.99C430.36 301.41 438.2 298.13 445.79 295.35 453.37 292.41 460.68 290.35 467.6 289.27 474.48 288.51 480.93 288.94 486.84 290.54 492.65 292.65 497.85 295.92 502.33 300.21 506.64 304.96 510.18 310.58 512.85 316.88 515.3 323.48 516.86 330.58 517.44 337.98 517.83 345.53 517.27 353.24 515.74 360.94 514.09 368.68 511.54 376.33 508.12 383.74 504.73 391.15 500.73 397.94 496.28 404.11 491.99 410.3 487.33 415.91 482.39 420.98 477.68 426.18 472.71 430.98 467.55 435.49 462.6 440.34 457.43 445.12 452.06 449.96 446.87 455.4 441.42 461.12 435.73 467.18 430.15 473.98 424.28 481.17 418.14 488.63 412.05 496.59 405.65 504.53 398.97 512.09 392.3 519.48 385.34 525.92 378.15 530.92 370.95 534.89 363.86 536.77 356.96 536.6 350.09 535.15 343.43 531.78 337.09 526.76 330.78 520.81 324.83 513.63 319.33 505.6 313.89 497.18 308.94 488.29 304.56 479.23 300.27 470.19 296.59 461.16 293.58 452.32 290.69 443.64 288.5 435.14 287.07 426.9 285.74 418.79 285.19 410.85 285.45 403.11 285.78 395.42 286.92 387.86 288.9 380.48 290.9 373.11 293.61 366.26 296.94 359.99 300.22 353.74 304.1 348.11 308.46 343.18 312.74 338.31 317.51 334.19 322.67 330.86 327.75 327.59 333.24 325.09 339.07 323.36 344.81 321.55 350.92 320.36 357.34 319.71 363.69 318.68 370.39 317.93 377.36 317.34 384.3 316.03 391.56 314.62 399.07 313.04 406.58 310.56 414.36 307.84 422.36 304.99" stroke-dasharray="11 11" transform="rotate(64.64, 400, 400)" opacity="0.38"></path><path d="M422.45 316.29C429.65 313.03 436.66 310.07 443.41 307.56 450.14 304.87 456.59 302.9 462.66 301.75 471.5 300.78 486.66 304.3 492.71 308.71 497.9 314.5 504.34 329.94 505.44 339.03 505.74 345.34 505.22 351.89 503.86 358.53 502.41 365.22 500.18 371.93 497.16 378.54 494.16 385.16 490.61 391.35 486.63 397.11 482.78 402.89 478.54 408.29 474.03 413.35 469.69 418.53 465.09 423.49 460.28 428.29 455.64 433.39 450.78 438.51 445.74 443.72 440.84 449.39 435.71 455.3 430.39 461.44 425.15 468.1 419.68 474.98 414 481.96 408.36 489.25 402.47 496.39 396.39 503.09 390.31 509.59 384.01 515.22 377.54 519.63 371.08 523.2 364.75 525.03 358.63 525.15 352.52 524.25 346.64 521.72 341.06 517.77 335.52 513.03 330.31 507.15 325.51 500.43 320.77 493.3 316.47 485.62 312.69 477.66 308.98 469.6 305.81 461.43 303.25 453.33 300.77 445.29 298.91 437.35 297.74 429.63 296.65 421.99 296.23 414.53 296.55 407.32 296.92 400.14 298.01 393.16 299.86 386.47 301.72 379.77 304.23 373.65 307.29 368.15 312.11 360.2 324.06 347.56 331.03 342.93 338.27 338.94 354.34 333.77 363.09 332.22 368.96 330.95 375.12 329.89 381.52 328.94 387.9 327.37 394.53 325.74 401.37 324.02 408.2 321.54 415.25 318.94 422.45 316.29" stroke-dasharray="3 5" transform="rotate(68.68, 400, 400)" opacity="0.38"></path><path d="M421.85 327.59C434.63 321.32 446.58 316.72 457.12 314.42 467.51 312.46 476.28 313.85 482.81 318.35 488.94 323.84 492.63 332.05 493.43 342.02 493.82 352.4 491.44 363.87 486.2 375.57 481.02 387.28 473.93 398.1 465.7 407.97 457.97 418.28 449.16 428.5 439.75 438.81 430.76 450.47 420.9 462.89 410.48 475.35 400.2 488.46 389.13 500.16 377.63 508.33 366.12 513.93 355.27 513.67 345.57 508.33 335.95 500.42 327.62 488.89 321.12 475.56 314.82 461.61 310.48 447.07 308.52 433.07 306.79 419.19 307.45 405.89 310.82 393.85 314.24 381.81 319.93 372.05 327.25 364.67 334.41 357.21 343.18 351.98 353.03 348.82 362.7 344.95 373.55 342.25 385.15 340.25 396.67 336.19 409.06 331.88 421.85 327.59" stroke-dasharray="9 4" transform="rotate(72.72, 400, 400)" opacity="0.50"></path><path d="M420.59 338.88C431.74 333.38 442.03 329.37 451 327.26 459.86 325.22 467.23 325.86 472.65 329.08 477.78 332.92 480.82 339.14 481.43 347.11 481.75 355.37 479.73 364.9 475.24 375.14 470.8 385.37 464.62 395.35 457.38 404.9 450.47 414.8 442.55 424.87 434.05 435.05 425.86 446.11 416.92 457.59 407.56 468.74 398.31 480.12 388.47 490.1 378.39 497.03 368.3 502.03 358.91 502.3 350.61 498.43 342.36 492.56 335.3 483.51 329.85 472.64 324.55 461.09 320.94 448.69 319.41 436.51 318.03 424.31 318.72 412.53 321.78 401.87 324.88 391.21 329.96 382.58 336.49 376 342.91 369.27 350.77 364.32 359.56 361 368.25 356.95 377.95 353.79 388.25 351.24 398.5 347.06 409.43 342.84 420.59 338.88" stroke-dasharray="1 2" transform="rotate(76.76, 400, 400)" opacity="0.21"></path><path d="M418.7 350.18C428.22 345.45 436.9 342.05 444.38 340.23 454.83 338.39 467.76 345.66 469.45 354.25 469.72 360.68 468.04 368.48 464.28 377.28 460.55 386.09 455.29 395.09 449.05 404.02 443.04 413.2 436.09 422.68 428.61 432.21 421.33 442.25 413.42 452.44 405.2 462.06 397.05 471.68 388.48 479.97 379.81 485.74 371.13 490.09 363.15 490.73 356.18 488.09 349.24 483.98 343.36 477.18 338.89 468.69 334.5 459.56 331.57 449.46 330.41 439.28 329.34 429.02 330.03 418.95 332.74 409.7 335.48 400.45 339.93 392.85 345.63 386.89 351.26 380.76 358.13 375.99 365.81 372.46 373.43 368.3 381.9 364.82 390.83 361.9 399.75 357.76 409.18 353.75 418.7 350.18" stroke-dasharray="7 9" transform="rotate(80.80000000000001, 400, 400)" opacity="0.46"></path><path d="M416.24 361.48C424.13 357.53 431.25 354.75 437.32 353.27 450.98 354.12 457.06 371.27 453.32 381.79 450.27 389.17 445.92 397.02 440.71 405 435.64 413.12 429.74 421.58 423.36 430.01 417.11 438.68 410.33 447.31 403.32 455.28 396.36 463.11 389.1 469.79 381.84 474.44 374.57 478.13 367.97 478.98 362.26 477.31 356.56 474.65 351.8 469.81 348.22 463.51 344.68 456.69 342.37 448.88 341.51 440.78 340.71 432.57 341.37 424.3 343.71 416.52 346.06 408.74 349.84 402.14 354.66 396.75 359.46 391.22 365.29 386.66 371.79 383.01 378.27 378.87 385.44 375.27 392.95 372.19 400.47 368.27 408.35 364.6 416.24 361.48" stroke-dasharray="7 5" transform="rotate(84.84, 400, 400)" opacity="0.69"></path><path d="M413.29 372.77C430.74 364.89 446.76 372.43 442.35 388.18 437.63 400.11 428.74 414.33 418.27 428.15 408.1 442.26 396.12 455.45 384.42 463.14 372.72 468.42 363.37 465.43 357.82 457 352.35 447.17 350.84 434.17 354.67 421.63 358.54 409.08 366.98 399.25 377.52 392.46 388.03 384.36 400.75 377.39 413.29 372.77" stroke-dasharray="2 8" transform="rotate(88.88, 400, 400)" opacity="0.80"></path><path d="M409.94 384.07C422.86 378.32 434.61 383.95 431.39 395.79 427.92 404.84 421.24 415.81 413.29 426.31 405.48 436.79 396.32 446.34 387.48 451.85 378.64 456.01 371.71 454.53 367.68 449.11 363.68 442.9 362.66 433.93 365.63 424.49 368.62 415.04 375.04 406.87 383.03 400.7 391.01 393.79 400.61 387.84 409.94 384.07" stroke-dasharray="9 8" transform="rotate(92.92, 400, 400)" opacity="0.56"></path><path d="M406.28 395.37C418.61 388.39 424.99 391.61 420.43 403.84 415.93 416.06 402.81 433.1 390.92 440.55 379.02 445.66 372.54 437.41 376.59 424.81 380.69 412.2 393.94 400.15 406.28 395.37" stroke-dasharray="4 1" transform="rotate(96.96, 400, 400)" opacity="0.96"></path></g></svg>