<svg xmlns="http://www.w3.org/2000/svg" version="1.1" xmlns:xlink="http://www.w3.org/1999/xlink" xmlns:svgjs="http://svgjs.dev/svgjs" viewBox="0 0 800 800"><defs><linearGradient x1="50%" y1="0%" x2="50%" y2="100%" id="ffflurry-grad" gradientTransform="rotate(270)"><stop stop-color="hsl(238, 82%, 13%)" stop-opacity="1" offset="0%"></stop><stop stop-color="hsl(37, 99%, 67%)" stop-opacity="1" offset="45%"></stop><stop stop-color="hsl(316, 73%, 52%)" stop-opacity="1" offset="100%"></stop></linearGradient></defs><rect width="100%" height="100%" fill="hsl(238, 82%, 13%)"></rect><g fill="url(#ffflurry-grad)"><rect width="224" height="3" x="553" y="697.5" rx="1.5" transform="rotate(45, 665, 699)" opacity="0.16"></rect><rect width="47" height="3" x="736.5" y="639.5" rx="1.5" transform="rotate(45, 760, 641)" opacity="0.93"></rect><rect width="504" height="3" x="3" y="324.5" rx="1.5" transform="rotate(45, 255, 326)" opacity="0.16"></rect><rect width="158" height="3" x="270" y="28.5" rx="1.5" transform="rotate(45, 349, 30)" opacity="0.86"></rect><rect width="421" height="3" x="144.5" y="329.5" rx="1.5" transform="rotate(45, 355, 331)" opacity="0.17"></rect><rect width="114" height="3" x="636" y="48.5" rx="1.5" transform="rotate(45, 693, 50)" opacity="0.52"></rect><rect width="317" height="3" x="451.5" y="362.5" rx="1.5" transform="rotate(45, 610, 364)" opacity="0.55"></rect><rect width="59" height="3" x="394.5" y="704.5" rx="1.5" transform="rotate(45, 424, 706)" opacity="0.77"></rect><rect width="93" height="3" x="648.5" y="613.5" rx="1.5" transform="rotate(45, 695, 615)" opacity="0.82"></rect><rect width="507" height="3" x="349.5" y="764.5" rx="1.5" transform="rotate(45, 603, 766)" opacity="0.30"></rect><rect width="98" height="3" x="620" y="452.5" rx="1.5" transform="rotate(45, 669, 454)" opacity="0.45"></rect><rect width="88" height="3" x="88" y="113.5" rx="1.5" transform="rotate(45, 132, 115)" opacity="0.12"></rect><rect width="384" height="3" x="-139" y="317.5" rx="1.5" transform="rotate(45, 53, 319)" opacity="0.35"></rect><rect width="439" height="3" x="543.5" y="34.5" rx="1.5" transform="rotate(45, 763, 36)" opacity="0.12"></rect><rect width="272" height="3" x="145" y="404.5" rx="1.5" transform="rotate(45, 281, 406)" opacity="0.80"></rect><rect width="334" height="3" x="356" y="588.5" rx="1.5" transform="rotate(45, 523, 590)" opacity="0.15"></rect><rect width="100" height="3" x="624" y="773.5" rx="1.5" transform="rotate(45, 674, 775)" opacity="0.64"></rect><rect width="119" height="3" x="344.5" y="514.5" rx="1.5" transform="rotate(45, 404, 516)" opacity="0.37"></rect><rect width="253" height="3" x="643.5" y="114.5" rx="1.5" transform="rotate(45, 770, 116)" opacity="0.45"></rect><rect width="141" height="3" x="431.5" y="25.5" rx="1.5" transform="rotate(45, 502, 27)" opacity="0.71"></rect><rect width="212" height="3" x="658" y="696.5" rx="1.5" transform="rotate(45, 764, 698)" opacity="0.36"></rect><rect width="748" height="3" x="-300" y="720.5" rx="1.5" transform="rotate(45, 74, 722)" opacity="0.72"></rect><rect width="87" height="3" x="290.5" y="683.5" rx="1.5" transform="rotate(45, 334, 685)" opacity="0.37"></rect><rect width="314" height="3" x="356" y="107.5" rx="1.5" transform="rotate(45, 513, 109)" opacity="0.40"></rect><rect width="520" height="3" x="34" y="95.5" rx="1.5" transform="rotate(45, 294, 97)" opacity="0.91"></rect><rect width="206" height="3" x="326" y="414.5" rx="1.5" transform="rotate(45, 429, 416)" opacity="0.34"></rect><rect width="130" height="3" x="692" y="245.5" rx="1.5" transform="rotate(45, 757, 247)" opacity="0.64"></rect><rect width="467" height="3" x="47.5" y="225.5" rx="1.5" transform="rotate(45, 281, 227)" opacity="0.49"></rect><rect width="494" height="3" x="-45" y="513.5" rx="1.5" transform="rotate(45, 202, 515)" opacity="0.33"></rect><rect width="341" height="3" x="315.5" y="360.5" rx="1.5" transform="rotate(45, 486, 362)" opacity="0.39"></rect><rect width="384" height="3" x="-157" y="237.5" rx="1.5" transform="rotate(45, 35, 239)" opacity="0.87"></rect><rect width="402" height="3" x="130" y="549.5" rx="1.5" transform="rotate(45, 331, 551)" opacity="0.86"></rect><rect width="307" height="3" x="233.5" y="120.5" rx="1.5" transform="rotate(45, 387, 122)" opacity="0.75"></rect><rect width="268" height="3" x="447" y="516.5" rx="1.5" transform="rotate(45, 581, 518)" opacity="0.10"></rect><rect width="520" height="3" x="-190" y="402.5" rx="1.5" transform="rotate(45, 70, 404)" opacity="0.46"></rect><rect width="607" height="3" x="-163.5" y="555.5" rx="1.5" transform="rotate(45, 140, 557)" opacity="0.50"></rect><rect width="57" height="3" x="39.5" y="16.5" rx="1.5" transform="rotate(45, 68, 18)" opacity="0.69"></rect><rect width="192" height="3" x="523" y="53.5" rx="1.5" transform="rotate(45, 619, 55)" opacity="0.38"></rect><rect width="112" height="3" x="142" y="40.5" rx="1.5" transform="rotate(45, 198, 42)" opacity="0.71"></rect><rect width="162" height="3" x="634" y="730.5" rx="1.5" transform="rotate(45, 715, 732)" opacity="0.44"></rect><rect width="102" height="3" x="33" y="64.5" rx="1.5" transform="rotate(45, 84, 66)" opacity="0.94"></rect><rect width="339" height="3" x="225.5" y="253.5" rx="1.5" transform="rotate(45, 395, 255)" opacity="0.74"></rect><rect width="459" height="3" x="294.5" y="757.5" rx="1.5" transform="rotate(45, 524, 759)" opacity="0.70"></rect><rect width="266" height="3" x="527" y="272.5" rx="1.5" transform="rotate(45, 660, 274)" opacity="0.80"></rect><rect width="218" height="3" x="-64" y="476.5" rx="1.5" transform="rotate(45, 45, 478)" opacity="0.91"></rect><rect width="267" height="3" x="646.5" y="741.5" rx="1.5" transform="rotate(45, 780, 743)" opacity="0.13"></rect><rect width="439" height="3" x="511.5" y="169.5" rx="1.5" transform="rotate(45, 731, 171)" opacity="0.98"></rect><rect width="217" height="3" x="638.5" y="347.5" rx="1.5" transform="rotate(45, 747, 349)" opacity="0.57"></rect><rect width="488" height="3" x="420" y="141.5" rx="1.5" transform="rotate(45, 664, 143)" opacity="0.66"></rect><rect width="821" height="3" x="121.5" y="269.5" rx="1.5" transform="rotate(45, 532, 271)" opacity="0.68"></rect><rect width="78" height="3" x="-16" y="81.5" rx="1.5" transform="rotate(45, 23, 83)" opacity="0.24"></rect><rect width="538" height="3" x="476" y="542.5" rx="1.5" transform="rotate(45, 745, 544)" opacity="0.36"></rect><rect width="260" height="3" x="348" y="499.5" rx="1.5" transform="rotate(45, 478, 501)" opacity="0.84"></rect><rect width="170" height="3" x="45" y="223.5" rx="1.5" transform="rotate(45, 130, 225)" opacity="0.69"></rect><rect width="107" height="3" x="-0.5" y="594.5" rx="1.5" transform="rotate(45, 53, 596)" opacity="0.21"></rect><rect width="608" height="3" x="152" y="185.5" rx="1.5" transform="rotate(45, 456, 187)" opacity="0.08"></rect><rect width="59" height="3" x="561.5" y="682.5" rx="1.5" transform="rotate(45, 591, 684)" opacity="0.17"></rect><rect width="48" height="3" x="734" y="446.5" rx="1.5" transform="rotate(45, 758, 448)" opacity="0.32"></rect><rect width="537" height="3" x="147.5" y="608.5" rx="1.5" transform="rotate(45, 416, 610)" opacity="0.64"></rect><rect width="747" height="3" x="-126.5" y="627.5" rx="1.5" transform="rotate(45, 247, 629)" opacity="0.64"></rect><rect width="501" height="3" x="333.5" y="171.5" rx="1.5" transform="rotate(45, 584, 173)" opacity="0.87"></rect><rect width="783" height="3" x="-192.5" y="736.5" rx="1.5" transform="rotate(45, 199, 738)" opacity="0.49"></rect><rect width="309" height="3" x="280.5" y="769.5" rx="1.5" transform="rotate(45, 435, 771)" opacity="0.52"></rect><rect width="223" height="3" x="156.5" y="493.5" rx="1.5" transform="rotate(45, 268, 495)" opacity="0.32"></rect><rect width="371" height="3" x="29.5" y="155.5" rx="1.5" transform="rotate(45, 215, 157)" opacity="0.12"></rect><rect width="285" height="3" x="420.5" y="35.5" rx="1.5" transform="rotate(45, 563, 37)" opacity="0.53"></rect><rect width="257" height="3" x="227.5" y="434.5" rx="1.5" transform="rotate(45, 356, 436)" opacity="0.94"></rect><rect width="355" height="3" x="265.5" y="46.5" rx="1.5" transform="rotate(45, 443, 48)" opacity="0.97"></rect><rect width="477" height="3" x="80.5" y="764.5" rx="1.5" transform="rotate(45, 319, 766)" opacity="0.50"></rect><rect width="545" height="3" x="279.5" y="440.5" rx="1.5" transform="rotate(45, 552, 442)" opacity="0.91"></rect><rect width="374" height="3" x="317" y="672.5" rx="1.5" transform="rotate(45, 504, 674)" opacity="0.49"></rect><rect width="57" height="3" x="149.5" y="415.5" rx="1.5" transform="rotate(45, 178, 417)" opacity="0.37"></rect><rect width="448" height="3" x="-168" y="161.5" rx="1.5" transform="rotate(45, 56, 163)" opacity="0.24"></rect><rect width="305" height="3" x="602.5" y="777.5" rx="1.5" transform="rotate(45, 755, 779)" opacity="0.29"></rect><rect width="234" height="3" x="510" y="586.5" rx="1.5" transform="rotate(45, 627, 588)" opacity="0.10"></rect><rect width="496" height="3" x="-67" y="280.5" rx="1.5" transform="rotate(45, 181, 282)" opacity="0.38"></rect><rect width="239" height="3" x="24.5" y="342.5" rx="1.5" transform="rotate(45, 144, 344)" opacity="0.92"></rect></g></svg>