<svg xmlns="http://www.w3.org/2000/svg" xmlns:xlink="http://www.w3.org/1999/xlink">
<defs>
<symbol viewBox="0 0 512 512" id="game-icons-all-seeing-eye"><path fill="currentColor" d="M18 18v15.797L179.434 215.41l9.484-16.424L28.04 18zm77.705 0l96.95 174.512l10.493-18.176L116.295 18zm91.154 0c4.326 19.018 15.27 67.152 28.36 125.326c.557 2.482 1.074 4.807 1.63 7.278l13.275-22.993A55644.833 55644.833 0 0 0 205.32 18zM247 18v80.383l9-15.588l7.795 13.5L265 98.383V18zm59.78 0l-24.51 110.297l13.314 23.058L325.22 18zm88.925 0l-86.853 156.336l10.494 18.176L416.296 18h-20.59zm88.254 0L323.083 198.986l9.482 16.424L494 33.797V18zM18 98.25v22.5l150.79 113.094l9.067-15.7zm476 0L334.145 218.143l9.064 15.7L494 120.75zm-238 20.547l-74.656 129.308c20.297-9.102 46.254-14.35 74.656-14.35c28.402 0 54.36 5.248 74.656 14.35zm-238 70.34v19.226l136.05 51.018l9.122-15.804L18 189.136zm476 0l-145.172 54.44l9.123 15.804L494 208.364v-19.226zM18 249.18v18.14l122.615 15.326l9.77-16.92zm476 0l-132.383 16.547l9.768 16.92L494 267.32zm-238 2.576c-14.737 0-26.49 11.75-26.49 26.488c0 8.536 3.948 16.065 10.13 20.895a28.09 28.09 0 0 1-1.384-8.603a28.09 28.09 0 0 1 28.09-28.09a28.09 28.09 0 0 1 13.02 3.223c-4.446-8.315-13.194-13.914-23.366-13.914zm-38.18 3.736c-12.656 2.568-23.93 6.328-33.082 10.904c-17.63 8.815-26.21 19.758-26.21 29.594c0 9.837 8.58 20.777 26.21 29.592c17.63 8.815 43.077 14.643 71.262 14.643c28.185 0 53.632-5.828 71.262-14.643c17.63-8.815 26.21-19.755 26.21-29.592c0-9.836-8.58-20.78-26.21-29.594c-9.153-4.576-20.426-8.336-33.082-10.904a44.11 44.11 0 0 1 6.31 22.752c0 24.465-20.025 44.49-44.49 44.49c-24.465 0-44.49-20.025-44.49-44.49c0-8.3 2.31-16.083 6.31-22.752m-83.867 38.694L18 308.68v18.14l104.666-13.082zm244.094 0l11.287 19.552L494 326.82v-18.14zm-233.758 18.1l-57.112 98.92h337.644l-57.11-98.92c-5.763 12.078-17.677 22.035-32.4 29.398c-20.907 10.452-48.695 16.54-79.312 16.54c-30.617 0-58.405-6.088-79.31-16.54c-14.725-7.363-26.64-17.32-32.4-29.4zm255.84 20.15l14.167 24.537L494 386.863v-19.226l-93.87-35.2zm-288.26.002L18 367.637v19.225l79.703-29.888l14.166-24.538zm-31.645 54.808L18 426.136v21.227l43.05-26.906l19.175-33.21zm351.55 0l19.174 33.21L494 447.364v-21.226l-62.225-38.89zm-350.82 41.96L18 484.29V494h16.238l74.05-64.795H80.956zm42.158 0L67.573 494h23.71l55.537-64.795h-23.707zm41.832 0L127.92 494h20.732l37.026-64.795h-20.733zm42.752 0c-8.665 28.96-15.66 51.885-19.61 64.794h18.82a10719.95 10719.95 0 0 0 19.573-64.795h-18.783zm39.303 0V494h18v-64.795h-18zm39.984 0L305.496 494h18.723l-18.515-64.795h-18.72zm39.338 0L363.348 494h20.732l-37.025-64.795h-20.733zm38.856 0L420.718 494h23.708l-55.54-64.795H365.18zm38.533 0L477.763 494H494v-9.71l-62.955-55.085z"></path></symbol>
<symbol viewBox="0 0 512 512" id="game-icons-artificial-hive"><path fill="currentColor" d="M251.313 23.844L49.438 140.25l-.376 233.5l202.625 116.406L453.563 373.75l.375-233.5zm-1.407 57.062l52.406 30.25v60.5l-52.406 30.25l-52.406-30.25v-60.5zm-105.344 60.47l52.407 30.25v60.5l-52.407 30.25l52.406 30.25v60.53l-52.407 30.25l-52.407-30.25v-60.53l52.406-30.25l-52.406-30.25v-60.5l52.406-30.25zm210.313 0l52.406 30.25v60.5l-52.405 30.25l52.406 30.25v60.53l-52.405 30.25l-52.406-30.25v-60.53l52.405-30.25l-52.406-30.25v-60.5zM249.905 202l52.407 30.25v60.5l-52.28 30.188l52.28 30.156v60.53l-52.406 30.25l-52.406-30.25v-60.53l52.28-30.156l-52.28-30.188v-60.5L249.906 202z"></path></symbol>
<symbol viewBox="0 0 512 512" id="game-icons-aubergine"><path fill="currentColor" d="M81.156 19.22c-9.98 17.95-11.653 41.482-8.47 63.624c1.683 11.693 4.66 23.045 9.19 33c-10.98-2.333-22.86-6.74-35.25-12.063l19.624 36.47c-14.538-7.018-29.415-5.078-43.594-.313c31.984 20.98 18.398 38.788-3.093 59.157c10.004-2.09 20.2-6.646 29.343-9.72c-5.812 19.467-6.532 42.407.22 67.814c53.11 199.91 223.06 260.347 345.312 221.375c80.27-25.585 108.82-99.86 95.343-161.938c-6.737-31.04-23.74-59.45-49.874-77.625c-26.132-18.175-61.312-25.596-102.094-15.47h-.03c-35.654 8.892-64.878 12.25-86 6.532c-21.123-5.718-35.554-19.17-45-49.843c-3.635-11.8-8.864-21.88-15.282-30.157c-.96-18.358 6.62-32.632 21.125-43.594c-20.593-4.363-40.967-6.693-58.688 16.31c5.405-13.443-.73-37.854-12.843-44.905c-7.468 25.998-20.424 37.084-36.875 39.344c-5.926-8.934-10.95-22.564-13.032-37.032c-2.755-19.153-.53-39.567 6.312-51.876zm74.125 125.624l3.22 1.312c12.98 6.565 24.084 18.935 30.438 39.563c10.698 34.737 31.14 55.11 57.968 62.374c14.837 4.017 31.185 4.424 49.063 2.437c-105.218 87.705 83.948 233.89 175.124 125.657c-8.69 36.317-34.728 69.418-82.344 84.594c-112.234 35.78-270.73-17.073-321.563-208.405c-6.915-26.024-5.132-47.923 1.844-65.28c5.14 1.723 8.945 6.424 10.845 16.06c17.377-13.67 29.664-28.077 31.406-43.968c17.52 0 35.045 2.896 52.564 14.22c1.267-10.08-.185-19.735-8.563-28.563z"></path></symbol>
<symbol viewBox="0 0 512 512" id="game-icons-bad-gnome"><path fill="currentColor" d="M310.38 45.636c-9.318-.052-18.512 2.665-28.403 5.281c-27.068 10.089-57.949 26.648-82.272 47.096c-20.38 17.133-35.754 36.84-41.664 57.297c61.478 5.096 117.748 4.42 158.254-12.21c.448-1.259.78-2.417.926-3.423c.419-2.906.137-5.268-1.6-9.012c-3.474-7.488-13.873-19.42-33.64-38.91L268.16 78.13c16.472.08 34.273 2.322 49.448-6.807c10.23 18.877 27.251 36.194 51.028 44.235l7.058 1.302l-.533 7.159c-.806 10.825 4.38 26.04 13.35 38.644c8.969 12.605 21.482 22.368 32.81 24.777c8.767 1.865 12.916.17 15.387-2.628c2.471-2.799 4.141-8.659 2.498-17.893c-1.484-8.337-6.187-18.847-13.066-27.385c-6.302-7.663-17.219-15.5-29.028-17.836c-4.992-10.67-8.123-20.97-16.092-32.236c-5.262-7.44-12.106-12.888-17.716-17.856c-5.957-5.274-11.665-8.728-19.623-9.564l-3.717-.39c-5.942-8.83-11.227-12.31-23.104-15.503a43.11 43.11 0 0 0-6.48-.513M53.597 113.335l2.465 19.068l-10.213-1.236c-5.617-.68-10.122.648-15.918 3.875c-2.373 1.321-5.01 3.154-7.72 5.053c7.12 3.343 13.025 7.624 18.753 12.152l7.527 5.951l-23.258 20.436c14.207.979 28.99.123 41.77-4.031l16.355-33.33c-2.892-13.892-7.856-19.159-14.42-22.71c-4.169-2.255-9.55-3.72-15.341-5.228m43.521 37.82l-2.52 3.532l-12.25 24.966c9.795 5.098 17.447 11.9 23.844 19.344c.793-.646 1.59-1.283 2.385-1.924l23.338-29.781c-10.205-6.51-21.295-12.156-34.797-16.137m218.526 9.285c-35.016 12.65-77.309 15.133-122.956 13.13l28.868 14.552c-2.06 6.376-5.969 13.577-8.723 16.613c-12.392 14.26-26.562 30.545-37.717 46.844c-9.15 13.37-15.92 26.67-18.467 38.067c54.092-11.71 76.69-36.082 92.766-54.782c1.282-4.105 1.217-6.976.307-7.388c-3.052-1.383-12.193-5.436-15.326-3.596c-1.36.894-3.93 3.476-8.038 6.906l-5.127-6.14l-5.128-6.141c3.347-2.796 5.685-5.486 9.505-7.996a18.743 18.743 0 0 1 3.387-1.73c1.895-17.264 17.856-27.07 38.483-34.403c6.743 8.043-1.684 23.168-10.67 38.555a20.959 20.959 0 0 1 3.798 2.906c22.958-6.055 46.58-15.033 70.184-26.547zM149.64 170.612l-27.641 35.276c16.033 9.61 34.28 15.341 54.053 17.656c5.254-6.612 10.627-13.003 15.845-19.074c-7.212-7.018-12.44-15.46-6.949-31.274c-11.592-.628-23.38-1.515-35.308-2.584M341.73 201.8c-25.157 12.563-50.668 22.56-75.722 29.33c-.572 4.388-.14 9.15-2.494 11.904c-3.357 3.921-7.17 8.302-11.616 12.897c19.098-1.767 36.55-6.013 53.059-17.555l17.486-12.227l-15.181 61.19l-2.125 1.693c-6.971 5.556-14.696 12.954-27.825 17.455c-13.128 4.502-30.973 5.99-58.976 2.256c-12.33-1.644-21.585-6.515-28.844-12.09c-11.758 4.413-25.177 8.152-40.61 10.819l-9.167 1.584l-.194-9.303c-.399-19.284 9.669-38.62 22.391-57.209c.95-1.388 1.92-2.77 2.902-4.148c-19.972-3.463-38.625-10.393-55.355-21.317c-.489.411-.991.817-1.477 1.229c-11.345 9.629-21.632 19.608-29.433 28.021c2.012-.303 4.025-.73 6.017-.933c9.312-.953 18.347-1.061 26.297 3.072l10.06 5.23l-8.302 7.725c-10.179 9.47-18.793 21.013-24.135 32.017a64.53 64.53 0 0 0-4.724 13.245c.907-.702 1.446-1.13 2.379-1.832c6.08-4.578 12.492-9.116 19.527-11.569l15.787-5.504l-5.617 15.746c-4.044 11.338-8.326 20.603-10.125 28.748c-1.081 4.895-1.305 9.342-.408 14.073l19.683-17.092l2.016 14.637c2.084 15.135 1.687 23.511 5.369 33.355l28.951-32.08l-5.347 28.072c-3.465 18.189-1.675 33.124 3.558 46.578l26.764-37.74l4.324 16.637c3.598 13.84 8.618 22.583 13.967 27.465c3.207 2.927 6.601 4.598 10.447 5.426c-.302-4.512-.218-9.194.96-13.899c1.044-4.18 3.021-8.476 6.653-11.822c3.633-3.346 8.781-5.31 14.325-5.492c7.782-.256 14.666 3.124 19.656 7.709c4.99 4.585 8.583 10.27 11.728 16.033c3.006 5.506 5.732 11.137 8.211 16.02c4.561-12.289 8.072-26.23 7.106-34.956l-1.178-10.638l10.537 1.882a55.702 55.702 0 0 1 10.7 3.024c11.467-15.501 26.687-22.646 42.558-23.375a61.089 61.089 0 0 1 7.45.117l.718.055l.695.181c4.01 1.048 7.483 2.585 10.483 4.414c2.364-21.315-.921-41.822-9.424-61.617l-4.695-10.927l11.892-.229c4.364-.084 8.706.453 12.848 1.732c-4.36-14.75-11.9-28.347-25.121-43.296l-12.623-14.272l19.027.982c7.922.41 14.675 2.606 20.89 5.762c-8.372-20.773-22.018-40.953-36.703-57.193m52.293 26.637c-3.466.013-7.346.488-11.753 1.445c8.48 14.744 15.092 30.61 18.437 46.816l1.023 4.961c4.237 2.235 7.973 5.117 11.362 8.354c10.553-9.531 21.848-15.553 33.135-19.776c-12.72-15.462-22.502-28.283-31.58-34.818c-5.545-3.991-11.085-6.486-18.303-6.92a36.348 36.348 0 0 0-2.32-.062zm-96.728 32.628c-17.441 7.915-35.582 10.498-53.586 11.512c-3.664.207-7.33.35-10.996.469c-7.27 5.534-15.712 10.973-25.637 15.951c3.73 1.828 8.02 3.173 13.373 3.887c26.564 3.541 41.743 1.874 51.674-1.531c8.947-3.068 14.31-7.772 20.922-13.159zm164.213 21.036c-14.715 4.275-28.192 10.127-40.738 22.687c-4.802 6.584-6.388 17.955-4.686 29.91c.802 5.634 2.354 11.272 4.234 16.422c.703-1.904 1.36-3.727 2.096-5.637c3.163-8.214 5.74-15.975 12.217-21.558l7.226-6.229l15.502 26.073c5.61-7.624 8.115-15.383 7.03-24.061l-1.897-15.168l27.297 14.285c-1.538-5.592-3.218-11.082-5.51-16.013c-4.543-9.776-10.533-17.097-22.771-20.711M117.619 383.3c-.573.242-1.172.505-1.816.814c-3.998 1.917-9.064 5.017-13.684 8.815c-7.746 6.368-13.519 14.13-14.25 21.6c10.643 5.345 23.6 6.574 39.8 3.036l11.972-10.783a99.458 99.458 0 0 1-1.213-12.361l-9.334 10.344l-5.555-9.291c-2.582-4.32-4.48-8.326-5.92-12.174m229.233 8.683c-10.095.192-18.547 3.52-26.334 12.18c6.737 3.32 12.26 8.251 15.714 14.633l32.069-9.824c-1.942-3.482-3.428-6.608-5.135-9.02c-2.544-3.595-5.11-6.04-11.426-7.816c-1.665-.108-3.307-.183-4.888-.153m32.63 30.3l-39.558 12.116l.756 15.854c20.111 10.811 34.371 12.924 45.674 11.973c9.267-.78 16.834-3.7 24.482-6.48c-1.872-4.972-5.795-10.144-11.402-15.667c-5.82-5.731-13.041-11.528-19.952-17.797zm-299.336 6.275c-16.44 4.695-23.595 9.8-28.923 15.449c-3.604 3.82-6.604 8.496-10.537 13.633c11.417 4.481 24.194 7.892 36.373 8.588c14.967.854 28.494-2.2 38.918-11.319l4.505-19.974c-14.946 1.66-28.56-.35-40.336-6.377"></path></symbol>
<symbol viewBox="0 0 512 512" id="game-icons-balloon-dog"><path fill="currentColor" d="M325.4 49.03h-1c-1.7.1-3.4.52-4.9 1.25c-8 3.79-12.7 13.76-13.8 27.34c-1.1 13.57 2 29.58 6.7 40.08c5.7 12.6 17.6 28.6 30.7 39.4c1.9-2.9 4.2-5.4 6.7-7.6c-16-18.6-24.3-40.6-29.9-60.21l17.4-4.96c5.6 19.47 13.7 40.07 28.6 55.97c1.7-.7 3.4-1.3 5.2-1.8c5.6-1.8 11.5-3.1 17.3-4c-.2-.8-.3-1.7-.5-2.5c-3.7-17.2-13-36.69-21.3-49.67c-5.6-8.75-14.7-19.4-23.9-26.08c-6.5-4.71-12.2-7.19-17.3-7.22M42.93 131.8c-3.7.2-6.9 1.2-9.23 2.8c-5.22 3.6-9.25 12-10.07 21.8c-.82 9.9 1.7 20.4 5.93 26.3c3.99 5.4 12.79 10.7 21.95 12.8c5.19 1.2 10.28 1.3 14.58.5l13.4 18.1c-1.01 5.6-.61 12.8 1.13 20.4c3.56 15.7 12.61 33.3 20.98 43.9h.1c.7.9 1.5 1.8 2.3 2.8c2.7-4 6.1-7.6 9.9-10.6c.4-.3.9-.7 1.3-1l-15.35-21.2l14.55-10.6l16.5 22.7c6.3-2.7 13.1-4.9 20.1-6.7c.2 0 .4-.1.6-.1c-4.4-6.8-9.1-13.2-13.2-18.5c-7.3-9.2-17.9-21-28.1-28.4c-5.1-3.6-10.1-6.1-13.95-6.9c-1.45-.3-2.72-.4-3.88-.4c-.39 0-.77 0-1.14.1h-.12l-11.1-15c1.45-3.5 2.35-7.8 2.53-12.3c.36-9.2-2.37-19.1-6.43-24.7v-.1c-3.93-5.6-12.35-11.4-20.99-14c-3.32-1.1-6.55-1.6-9.55-1.7h-2.68zm369.57 19c-1.6 0-3.3 0-5 .1c-10.1.3-21.6 1.7-31 4.7c-6.3 2-11.6 4.7-15.1 7.7c-3.4 2.9-5.2 5.8-5.7 9.7c-1.3 11.1 6.9 22.5 21 32c14.1 9.4 33.3 15.6 47.1 16.1h.1c12.4.5 30.3-3.8 43.8-11.4c13.4-7.5 21.3-17.2 20.8-27.1c-.3-5-2.3-8.9-6.3-12.8c-4-3.9-10.1-7.4-17.4-10.2c-14.6-5.7-33.5-8.3-47.6-8.7h-.1c-1.5 0-3-.1-4.6-.1m6.1 13.1c17.2.1 32.3 3 46.8 6.4l-4.2 17.6c-24-5.8-46-9.6-78.7-1.7l-4.2-17.4c13.4-3.3 25.6-4.7 36.8-4.9zm-77.5 27.7c-2 1.5-4 3.1-6 4.9c-11 10.1-20.6 25.1-24.9 37c-1.5 4.3-2.7 9.5-3.4 15c3.4.5 6.9 1 10.3 1.6c7.7-17.1 18-33.1 29.8-48.4c-2.3-3.2-4.3-6.5-5.8-10.1m18.6 23.2c-9.9 12.8-18.3 25.9-24.7 39.5c11.1 3.2 21.3 7.6 29.8 14c1.7 1.3 3.4 2.7 4.9 4.3c5-5.7 8.9-11.7 11.3-17.2c2.8-6.7 4.5-15.8 4.8-25.2c-6.6-2.8-13.1-6.3-19.1-10.3c-2.4-1.6-4.7-3.3-7-5.1m-104.5 48.5c-7 0-13.7 0-19.9.1c-23 .3-54.8 1.5-79.9 7.9c-12.5 3.2-23.2 7.7-30.3 13.4c-7 5.6-10.6 11.6-10.8 20.5c-.2 9.4 3.3 16.1 10.4 22.5c7 6.4 17.9 11.8 30.7 15.8c25.6 8.1 58.3 10.8 81.8 10.9c24.3.1 58.6-2.2 85.5-10.3c13.4-4.1 24.9-9.6 32.4-16.2c7.4-6.6 11.1-13.6 10.8-23.4c-.3-9.7-4.3-16-12-21.8c-7.7-5.9-19.4-10.4-32.9-13.4c-20.3-4.5-44.6-5.8-65.8-6m-22.9 14.5c25.6 0 54.9 2 87.9 5.1l-1.8 18c-43.5-4.2-80.4-6.3-109.2-4.3c-28.7 2-48.9 8.3-60.3 18.8l-12.2-13.2c16.2-15.1 40.6-21.4 71.3-23.5c7.7-.6 15.8-.8 24.3-.9m-130.1 50.3c-8.78 14-15.89 30.2-20.02 43c-4.95 15.4-9.01 37.6-7.94 56.1c.53 9.2 2.36 17.5 5.38 23.4c3.01 5.9 6.73 9.5 12.52 11.3c5.89 1.9 10.96 1.2 16.96-1.9c5.9-3 12.2-8.7 18.1-16c11.8-14.5 21.7-35.2 27.2-50.8c3-8.3 5.9-18.5 8.2-29c-4.3-1.1-8.5-2.2-12.6-3.5c-8-2.5-15.5-5.5-22.4-9.2c-11.5 26.6-21.2 52.8-21.5 81.4l-17.99-.2c.33-33.8 11.99-63.4 24.49-91.6c-4.2-3.8-7.7-8.1-10.4-13m274.8 1.4c-2.7 4.5-6.1 8.4-10 11.9c-5.3 4.6-11.3 8.5-18 11.7c5.8 27.4 21.6 46.2 38.5 67.3l-14 11.2c-16.2-20-34.1-41.2-41.4-71.6c-1.4.4-2.8.9-4.2 1.3c-3.5 1.1-7.1 2-10.7 2.9c4.1 18 11.8 36.3 19.4 49.4c7.3 12.6 20.4 28.4 34 38.4c6.8 5 13.7 8.5 19.7 9.8c6 1.4 10.8.9 15.5-1.9c6.1-3.6 9.5-8.7 11.4-16c2-7.2 2.2-16.6.7-26.7c-2.9-20.2-12.1-43.2-20.8-58.9v-.1c-4.9-8.8-12-19.3-20.1-28.7"></path></symbol>
<symbol viewBox="0 0 512 512" id="game-icons-cook"><path fill="currentColor" d="M255 22.31c-21.2 0-40.5 10.78-50.5 27.63l-4.4 7.42l-7.6-4.08c-7.1-3.85-15.2-5.89-23.3-5.89c-28.3 0-51.3 23.57-51.3 53.21c0 26.5 18.6 48.6 43.5 52.6l7.6 1.2v53.4c57.9-11.1 116-11.6 174 0v-69.7l4.8-2.6c15.7-8.3 26.1-26.1 26.1-46.15c0-28.8-20.7-51.12-45.4-51.12c-6.5 0-13 1.61-18.9 4.72l-6.2 3.2l-4.6-5.09C288 29.29 272 22.31 255 22.31m1 194.79c-25.6 0-51.1 2.4-76.7 7c-.9 6-1.3 12.2-1.3 18.6c0 29 9.2 55.2 23.6 73.7c14.4 18.5 33.5 29.3 54.4 29.3s40-10.8 54.4-29.3c14.4-18.5 23.6-44.7 23.6-73.7c0-6.4-.5-12.7-1.3-18.7c-25.6-4.7-51.1-7-76.7-6.9M208.7 348l-89.2 29.7l-27.98 112H321.6L307.1 388l17.8-2.6l14.9 104.3h80.7l-28-112l-89.2-29.7c-13.8 9.9-30 15.7-47.3 15.7c-17.3 0-33.5-5.8-47.3-15.7m69.3 52.7a9.999 9.999 0 0 1 10 10a9.999 9.999 0 0 1-10 10a9.999 9.999 0 0 1-10-10a9.999 9.999 0 0 1 10-10m7 46a10 10 0 0 1 10 10a10 10 0 0 1-10 10a10 10 0 0 1-10-10a10 10 0 0 1 10-10"></path></symbol>
<symbol viewBox="0 0 512 512" id="game-icons-cyber-eye"><path fill="currentColor" d="M255.565 30.643c-81.598 0-152.721 46.707-189.777 115.92h50.29l16.74-33.481h115.865c2.055-4.234 5.416-7.771 9.246-10.324c6.302-4.201 14.192-6.414 22.748-6.414c8.555 0 16.446 2.213 22.748 6.414c6.302 4.2 11.361 11.054 11.361 19.324c0 8.27-5.06 15.123-11.361 19.324c-6.302 4.201-14.193 6.414-22.748 6.414c-8.556 0-16.446-2.213-22.748-6.414c-3.83-2.553-7.193-6.09-9.248-10.326H143.94l-7.74 15.482h52.402v17.999H57.143a228.822 228.822 0 0 0-5.96 15.48h36.974v17.998H45.802c-4.006 15.707-6.415 32.092-7.051 48.963h109.883l16.742-50.22h39.967v17.997h-26.996l-10.743 32.223h47.594c2.056-4.235 5.418-7.773 9.248-10.326c6.302-4.201 14.193-6.414 22.748-6.414c8.556 0 16.446 2.213 22.748 6.414c6.302 4.2 11.364 11.054 11.364 19.324c0 8.27-5.062 15.123-11.364 19.324c-6.302 4.201-14.192 6.414-22.748 6.414c-8.555 0-16.446-2.213-22.748-6.414c-3.83-2.553-7.192-6.09-9.248-10.326h-95.74l24.482 48.963h78.143v17.998h-89.266l-33.482-66.961H38.751c1.614 42.826 14.69 82.527 36.129 115.922h90.096c2.055-4.235 5.42-7.773 9.25-10.326c6.302-4.201 14.19-6.414 22.746-6.414c8.555 0 16.446 2.213 22.748 6.414c6.302 4.2 11.363 11.054 11.363 19.324c0 8.27-5.061 15.123-11.363 19.324c-6.302 4.201-14.193 6.414-22.748 6.414c-8.556 0-16.444-2.213-22.746-6.414c-3.83-2.553-7.193-6.09-9.248-10.324h-9.784l21.483 32.22h73.328l16.74-33.48h39.043v17.998h-27.92l-7.742 15.483h52.402v17.998H167.046l-33.483-50.219H87.716c39.81 50.37 100.234 82.44 167.85 82.44c92.336 0 171.262-59.806 202.581-144.358c-4.882 10.507-10.77 19.344-17.916 25.893c-7.212 6.609-16.06 10.914-25.628 10.914c-9.569 0-18.417-4.305-25.63-10.914c-7.212-6.61-13.145-15.546-18.054-26.182c-9.818-21.272-15.537-49.542-15.537-80.711c0-31.169 5.719-59.44 15.537-80.71c4.91-10.637 10.842-19.573 18.055-26.183c7.212-6.609 16.06-10.914 25.629-10.914c9.568 0 18.416 4.305 25.628 10.914c7.146 6.549 13.034 15.386 17.916 25.893C426.828 90.448 347.902 30.643 255.565 30.643m25.112 83.699c-5.313 0-9.98 1.533-12.766 3.39c-2.786 1.858-3.348 3.375-3.348 4.35c0 .975.562 2.492 3.348 4.35c2.787 1.857 7.453 3.39 12.766 3.39s9.979-1.533 12.765-3.39c2.787-1.858 3.346-3.375 3.346-4.35c0-.975-.56-2.492-3.346-4.35c-2.786-1.857-7.452-3.39-12.765-3.39m159.037 83.44c-11.598 0-20.097 8.806-25.37 19.35c-5.272 10.545-8.163 24.04-8.163 38.868c0 14.829 2.891 28.323 8.164 38.867c5.272 10.545 13.77 19.352 25.369 19.352c11.598 0 20.098-8.807 25.371-19.352c5.273-10.544 8.164-24.038 8.164-38.867c0-14.829-2.891-28.323-8.164-38.867c-5.273-10.545-13.773-19.352-25.371-19.352zm4.613 20.157c1.556 1.497 3.261 3.769 4.93 7.106c3.662 7.324 6.299 18.517 6.299 30.955c0 12.438-2.637 23.63-6.3 30.955c-3.662 7.324-7.506 9.57-9.542 9.57c-2.036 0-5.88-2.246-9.543-9.57c-3.663-7.324-6.297-18.517-6.297-30.955c0-.253.008-.502.01-.754a16.458 24.686 0 0 0 7.604 2.81a16.458 24.686 0 0 0 16.457-24.685a16.458 24.686 0 0 0-3.618-15.432m-197.133 30.32c-5.313 0-9.977 1.534-12.763 3.391c-2.787 1.858-3.348 3.375-3.348 4.35c0 .975.561 2.492 3.348 4.35c2.786 1.857 7.45 3.39 12.763 3.39c5.314 0 9.98-1.533 12.766-3.39c2.786-1.858 3.348-3.375 3.348-4.35c0-.975-.562-2.492-3.348-4.35c-2.786-1.857-7.452-3.39-12.766-3.39zm-50.222 133.919c-5.314 0-9.978 1.533-12.764 3.39c-2.786 1.858-3.348 3.375-3.348 4.35c0 .975.562 2.492 3.348 4.35c2.786 1.857 7.45 3.39 12.764 3.39c5.313 0 9.979-1.533 12.765-3.39c2.787-1.858 3.348-3.375 3.348-4.35c0-.975-.561-2.492-3.348-4.35c-2.786-1.857-7.452-3.39-12.765-3.39"></path></symbol>
<symbol viewBox="0 0 512 512" id="game-icons-delivery-drone"><path fill="currentColor" d="M407 24.98v14.04h16V25zM88.99 25v14.03H105V25zM487 57H344.9v15.96H487zm-320 0H25v15.98h142zm256 33.93h-16.1v27.97l13.7.1h2.4zm-318 .1H88.97v28.07H105zm272 45.87l-.1 32.1h-78.5l-16-32h-52.8l-16 32.1l-78.6-.1v-32H55.03l-12.04 48L199 214.4V208c.1-31.4 25.7-56.9 57.1-57c31.3 0 57 25.6 56.9 57c0 4.1.1 6.4.1 6.4L469 185.1L457 137zM256.1 169c-21.6 0-39 17.4-39.1 39.1c.1 21.5 17.5 38.9 39.1 38.9s39-17.4 38.9-39c.1-21.5-17.3-39-38.9-39m-.2 14c13.8 0 25 11.3 25.1 25c0 13.7-11.3 25.1-25 25c-13.7 0-25.1-11.3-25-24.9c0-13.8 11.3-25 24.9-25.1m-54.7 40.5L215 279h82l13.9-55.4c-6.8 23.9-28.8 41.4-54.8 41.4c-26.1 0-48.1-17.6-54.9-41.5m-35.8 4.2L60.35 321.1l83.85 107.7c5-5 11.3-8.8 18.2-11.1L100.2 318l87.9-73l-3.4-13.4zm181.3.2l-19.4 3.8l-3.3 13.4l87.8 73l-62.2 99.6c7 2.3 13.2 6.2 18.3 11.3l83.8-107.8zM176 433.6c-15 0-26.9 11.9-26.9 26.7c0 14.9 11.9 26.7 27 26.8c14.9-.1 26.9-12 26.9-26.8c-.1-14.8-11.9-26.7-27-26.7m159.9 0c-14.9.1-27 11.9-26.9 26.8c0 14.7 11.9 26.6 27 26.6c15 0 27-11.8 26.9-26.7c.1-14.8-11.9-26.7-27-26.7"></path></symbol>
<symbol viewBox="0 0 512 512" id="game-icons-diamond-trophy"><path fill="currentColor" d="m158.6 41l34.5 69.1L239.2 41zm114.2 0l46.1 69.1L353.4 41zM256 48.22L208.8 119h94.4zm-113.9.14L83.22 119h94.18zm227.8 0L334.6 119h94.2zM80.82 137L196.8 311H249l-63.4-174zm124.08 0L256 277.7L307.1 137zm121.5 0L263 311h52.2l116-174zM201 329v46h110v-46zm-67.8 64l-53.69 94H432.5l-53.7-94H183zm26.8 46h192v18H160z"></path></symbol>
<symbol viewBox="0 0 512 512" id="game-icons-dolphin"><path fill="currentColor" d="M123.22 47.23c29.498 15.152 55.025 36.05 55.53 67.366c-93.62 83.867-83.862 179.356-97.002 270.34c-67.68 55.552-67.57 90.948-60.9 101.227c3.94.743 29.11-25.94 48.326-30.397c14.23-4.094 12.284-15.99 16.273-25.275c2.438 14.55 7.17 22.612 17.133 25.485c12.874 3.36 44.932 28.15 51.53 25.504c1.374-20.382-26.01-63.854-48.028-90.087c41.012-63.28 81.365-136.458 211.162-207.77c-3.21-3.706-6.216-6.45-8.8-7.986l9.198-15.472c11.617 6.907 20.522 19.56 29.248 35.033c5.94 10.532 11.528 22.644 16.96 35.117c15.682-32.87 22.983-66.406 16.402-90.254l17.35-4.786a87.287 87.287 0 0 1 1.927 8.83c33.29-4.253 55.718-13.083 85.11-29.322c3.744-2.068 19.054-13.012-.117-16.03c12.62-9.017 7.54-12.063 1.973-15.152c-6.486-3.6-20.302-8.948-35.758-8.556c-12.124-27.863-39.63-47.772-82.225-47.696c-28.532.052-63.842 9.086-105.828 30.688C217.895 27.64 164.92 20.468 123.22 47.23m286.942 28.74a9 9 0 1 1 0 18a9 9 0 0 1 0-18"></path></symbol>
<symbol viewBox="0 0 512 512" id="game-icons-drinking"><path fill="currentColor" d="M136.56 70.504a88.18 88.18 0 0 0-12.686.949c-33.833 5.004-62.022 29.192-80.272 65.89c-18.25 36.699-26.008 85.566-18.285 137.307c7.723 51.741 29.418 96.251 57.598 126.082c28.18 29.831 62.216 44.819 96.048 39.815c33.833-5.004 62.024-29.195 80.274-65.893c4.264-8.573 7.947-17.818 11.002-27.601c-29.164.07-58.834-2.573-92.08-24.287c47.863-14.36 76.86-36.492 101.926-60.243a271.619 271.619 0 0 0-2.565-25.173c-7.723-51.741-29.416-96.253-57.596-126.084c-24.657-26.103-53.8-40.838-83.365-40.762zm244.189 97.467l-87.937 109.81c-.11.17-17.645 28.102-14.198 42.682c1.549 6.554 7.56 14.287 14.304 14.287c6.744 0 12.758-7.733 14.307-14.287c3.426-14.494-13.853-42.137-14.238-42.75l8.82 5.222l128.162 75.854l59.686-74.506zm1.06 27.468l69.85 74.6H322.047zm-133.21 2.33l13.13 12.311c-17.393 18.552-47.5 23.81-71.523 21.414l1.787-17.912c19.327 1.927 45.889-4.382 56.605-15.813z"></path></symbol>
<symbol viewBox="0 0 512 512" id="game-icons-dunce-cap"><path fill="currentColor" d="m330.445 26.006l-126.79 211.61c24.586 20.357 46.073 33.117 68.584 38.63c22.632 5.543 47.123 4.26 78.421-4.044zM189.119 249.81C163.03 273.734 146 311.377 146 354.309c0 73.606 50.048 131.685 110 131.685s110-58.08 110-131.685c0-23.104-4.932-44.677-13.553-63.406c-32.014 8.151-59.115 9.557-84.609 3.313c-27.08-6.632-51.752-21.655-78.72-44.405zm47.507 88.622l5.851 17.553l-49.345 16.448l-5.85-17.552zm38.748 0l49.345 16.449l-5.851 17.552l-49.345-16.448zM256 411.977c19.532 0 38.348 9.842 55.886 27.38l-13.083 13.084c-15.358-15.358-29.438-21.964-42.803-21.964c-13.365 0-27.445 6.606-42.803 21.964l-13.083-13.083c17.538-17.539 36.354-27.381 55.886-27.381"></path></symbol>
<symbol viewBox="0 0 512 512" id="game-icons-dynamite"><path fill="currentColor" d="M280 67.77c-2.8 2.78-4.1 9.46-.7 20.04c3.4 10.59 11.3 23.59 22.8 35.39c11.5 11.7 24.3 19.9 34.9 23.5c10.5 3.7 17.2 2.4 20-.3c2.8-2.8 4.2-9.5.8-20.1c-3.4-10.6-11.3-23.6-22.8-35.32c-11.6-11.76-24.4-19.94-34.9-23.57c-6.2-1.5-15-4.44-20.1.36m89.1-1.84c-4 0-6.9 1.05-8.5 2.62c-2.8 2.78-4.1 9.45-.7 20.04c3.4 10.58 11.3 23.61 22.8 35.31c11.5 11.8 24.3 20 34.9 23.6c10.5 3.6 17.2 2.4 20-.4c2.8-2.7 4.2-9.4.8-20c-3.4-10.6-11.3-23.6-22.8-35.35c-11.6-11.76-24.4-19.94-34.9-23.56c-4.6-1.59-8.5-2.25-11.6-2.26M260.4 86.97l-31.2 30.63c5.8 17.4 13.4 32.7 24.2 44.8c12.8 14.5 29.9 24.9 55.1 29.7l1.5.3l27.4-26.8c-2.1-.5-4.2-1.1-6.3-1.9c-14-4.8-28.7-14.4-41.9-27.9c-13.2-13.5-22.5-28.4-27.1-42.48c-.7-2.18-1.2-4.44-1.7-6.35m-58.3 57.13L81.3 262.4c5.7 16.5 13.2 31.1 23.5 42.7c12.8 14.5 29.9 24.9 55.1 29.7l4 .7l118-115.6c-37-11.4-63-38.6-79.8-75.8m180 13.8c-4 0-6.9 1-8.5 2.6c-2.8 2.8-4.1 9.5-.7 20c3.4 10.6 11.3 23.6 22.8 35.4c11.5 11.8 24.3 19.9 34.9 23.6c10.5 3.6 17.2 2.4 20-.4c.7-.7 1.3-1.6 1.8-2.8c13.2 11.3 24.3 26.2 25.3 35.8c1.3 11.7-3.5 21.7-12.8 32.4c-9.4 10.7-23.2 21.2-37.4 32c-14.1 10.7-28.5 21.6-39.3 34.4c-10.7 12.9-17.9 28.7-14.7 46.4c2.9 15.6 11.3 31.8 25.1 42.9c13.7 11.2 33.4 16.8 55.1 9.7l8.6-2.8l-5.6-17.1l-8.6 2.8c-16.3 5.3-28.4 1.5-38.2-6.5c-9.8-8-16.6-20.9-18.6-32.2c-2.1-11.6 1.9-21.1 10.7-31.6c8.9-10.5 22.4-21 36.4-31.7c14.1-10.7 28.8-21.7 40-34.5c11.2-12.7 19.2-28.3 17.2-46.1c-2.2-20.4-18.9-37.8-35.6-51c-4-3.2-8.1-6.1-12.1-8.6c-4.2-8.6-10.7-18.1-19.3-26.9c-11.6-11.8-24.4-19.9-34.9-23.6c-4.6-1.5-8.5-2.2-11.6-2.2M354 179.7l-27.3 26.8l.2 1.5c4.2 25.3 14.3 42.7 28.5 55.8c11.9 11 27.1 19 44.3 25.1l31.3-30.6c-2.1-.5-4.2-1.1-6.3-1.8c-14-4.8-28.7-14.5-41.9-28s-22.5-28.4-27.1-42.4c-.7-2.2-1.2-4.3-1.7-6.4M298.6 234L180.5 349.6l.7 4c4.1 25.3 14.2 42.6 28.5 55.7c11.4 10.6 25.7 18.4 42.2 24.4l120-117.5c-36.8-17.8-63.1-44.6-73.3-82.2M55.68 287.5c-11.64 9-23.69 22.4-34.25 33.5c-2.84 2.8-4.19 9.5-.79 20.1c3.41 10.6 11.32 23.6 22.83 35.3c11.52 11.8 24.36 20 34.87 23.6c10.51 3.6 17.21 2.4 20.04-.4c12.72-12.3 25.72-25.1 36.62-35.8c-36.88-11.6-62.65-38.9-79.32-76.3m95.12 91.2c-12.2 11.4-20.2 19.3-35.8 35.1c-2.8 2.8-4.2 9.4-.8 20c3.4 10.6 11.3 23.6 22.8 35.4c11.6 11.7 24.4 19.9 34.9 23.5c10.5 3.7 17.2 2.5 20.1-.3c11.3-10.6 21.6-21.2 32.4-31.8c-36.8-17.8-63.2-44.5-73.6-81.9"></path></symbol>
<symbol viewBox="0 0 512 512" id="game-icons-eyeball"><path fill="currentColor" d="M256.242 19.143a235.119 235.119 0 0 0-30.094 2.107l13.957 18.725L276.9 68.008l-48.474-11.682l-22.586-31.424a235.507 235.507 0 0 0-68.522 27.258l4.67 19.35l58.403 10.51l-2.335 50.812l-17.522-35.623l-53.728-9.347l-6.063-24.886a233.303 233.303 0 0 0-41.679 38.227l13.866 45.06l54.898 8.176l-68.33 13.433l-14.633-48.287a238.59 238.59 0 0 0-10.844 17.068c-12.047 20.868-20.527 42.807-25.64 65.114l49.368 23.92l49.06-.58l-49.06 21.607l-18.105-8.81v25.747h30.37l-49.058 18.69v-53.526l-16.13-7.847c-5.85 41.047-.63 82.657 14.546 120.55l21.44-23.553l12.37 11.498l34.103-12.99l-21.453 24.75l16.443 15.285l-40.296-12.264l-14.17 15.908a233.702 233.702 0 0 0 35.44 51.586l40.896-.158l-28.047 13.262a235.939 235.939 0 0 0 43.89 32.63c112.427 64.91 255.91 26.462 320.82-85.964c64.91-112.427 26.464-255.91-85.962-320.82c-21.172-12.224-43.447-20.773-66.09-25.862l9.207 25.723l-29.07-29.292a233.59 233.59 0 0 0-32.648-2.115zm81.076 126.125c21.167.245 42.198 5.62 61.43 16.72c65.644 37.893 83.97 127.31 42.557 199.026c-41.41 71.71-128.022 100.554-193.666 62.662c-65.645-37.893-83.97-127.31-42.558-199.026c28.47-49.303 78.305-78.34 128.002-79.363a129.93 129.93 0 0 1 4.234-.02zm-.59 18.67a111.313 111.313 0 0 0-3.654.023c-18.408.41-36.93 5.29-54.09 14.185l34.21 53.44a87.67 87.67 0 0 0-15.227 10.874l-34.947-54.59c-16.317 11.548-30.75 27.068-41.754 46.126a154.29 154.29 0 0 0-2.27 4.092l62.068 24.504a91.416 91.416 0 0 0-8.17 16.867l-61.72-24.366c-10.588 27.475-12.18 56.18-5.824 81.922l62.4-21.23c.464 6.36 1.638 12.59 3.516 18.544l-60.073 20.44c9.103 21.78 24.502 40.32 45.436 52.51l30.73-45a69.422 69.422 0 0 0 14.5 11.904l-28.08 41.12c20.49 7.43 42.64 8.273 64.046 3.23l.31-33.95c6.27.064 12.55-.674 18.71-2.166l-.276 30.12c12.81-5.225 25.06-12.622 36.186-22.013l-11.71-18.29a88.026 88.026 0 0 0 14.808-11.53l10.613 16.578a149.052 149.052 0 0 0 18.654-25.615c1.91-3.307 3.67-6.652 5.294-10.023l-16.094-6.354c2.808-5.71 4.987-11.582 6.504-17.522l16.633 6.566c5.45-16.308 7.792-32.934 7.25-49.018l-22.186 7.55a79.12 79.12 0 0 0-5.09-18.01l25.246-8.588c-3.6-19.748-11.75-38.048-24.008-53.122l-22.637 33.147a69.9 69.9 0 0 0-8.602-5.852a70.564 70.564 0 0 0-7.487-3.725l25.425-37.23a105.562 105.562 0 0 0-46.547-23.094l-.502 54.96c-2.52-.213-5.05-.3-7.58-.248c-3.716.073-7.43.437-11.115 1.06l.532-58.135c-1.14-.046-2.28-.078-3.423-.09zm15.786 75.83c3.027.026 6.037.308 9.006.84c-7.354 7.116-12.168 18.937-12.168 32.326c0 21.752 12.7 39.384 28.367 39.384c12.172 0 22.55-10.647 26.577-25.597c2.1 14.36-.655 30.18-9.07 44.72c-18.287 31.595-55.212 43.19-82.24 27.623c-27.03-15.567-35.414-53.21-17.128-84.805c12.57-21.722 33.953-33.99 54.872-34.477a55.738 55.738 0 0 1 1.782-.012z"></path></symbol>
<symbol viewBox="0 0 512 512" id="game-icons-fallout-shelter"><path fill="currentColor" d="M256 23C127.425 23 23 127.425 23 256s104.425 233 233 233s233-104.425 233-233S384.575 23 256 23M149.268 71.287h213.168L256 256h213.17L362.732 440.713L256 256L149.564 440.713L42.83 256H256z"></path></symbol>
<symbol viewBox="0 0 512 512" id="game-icons-giant-squid"><path fill="currentColor" d="M231.64 60.34c-12.222 25.912-25.13 60.62-35.005 94.2c-9.876 33.577-16.674 66.33-17.137 87.16c-.366 5.434-.428 16.186 3.441 19.769c.354.044 2.042-.023 5.036-1.52C206.12 250.876 231 247 256 247c25 0 49.879 3.876 68.025 12.95c2.994 1.496 4.682 1.563 5.036 1.519c3.16-4.29 3.503-15.532 3.441-19.77c-.463-20.83-7.26-53.582-17.137-87.16c-9.876-33.578-22.783-68.287-35.006-94.2c-3.156-7.181-14.372-37.082-24.359-36.929c-11.033.17-20.534 28.866-24.36 36.93m-19.35-1.01c-22.495 17.595-50.172 42.38-59.099 65.879c3.844 14.31 13.763 23.683 23.69 32.91c10.069-33.526 22.243-69.391 35.408-98.789zm87.458.084c14.486 34.704 26.414 66.864 35.371 98.705c8.94-9.37 22.031-19.506 23.69-32.91c-14.587-30.414-35.718-47.832-59.061-65.795M59.141 132.908c-1.58 16.937 1.915 40.013 22.1 65.059c7.353-2.053 13.734-5.085 18.849-8.805c4.686 7.938 11.747 16.622 13.142 26.002c2.483 20.992-16.236 50.36-32.93 78.406c-8.346 14.023-16 27.735-18.952 41.672c-2.952 13.937.299 29.29 12.925 39.701c10.218 8.425 23.768 7.778 35.793 3.82c12.025-3.956 23.95-11.202 34.889-19.029c7.06-5.05 13.69-10.38 19.453-15.293c2.153.612 4.427 1.26 6.518 1.852c-16.292 19.786-28.73 40.123-41.442 56.566c-15.118 19.557-29.787 33.155-51.869 37.018c-14.315 2.504-38.035-6.199-59.617-17.904v20.634c20.471 10.629 42.631 18.514 62.719 15c27.966-4.891 46.849-22.837 63.008-43.74c15.094-19.525 28.567-42.016 46.302-62.271c1.846.498 3.654.98 5.422 1.445c-1.64 8.025-3.884 18.264-6.758 29.475c-6.4 24.973-16.2 54.243-26.617 68.955C152.87 464.473 134.68 480.039 115.7 494h29.633c12.473-10.292 23.685-21.183 31.436-32.129c13.547-19.132 22.75-49.092 29.36-74.887c2.87-11.197 5.128-21.447 6.808-29.619a305.82 305.82 0 0 0 12.763 2.655c-1.643 24.417-5.836 78.135-12.521 106.425c-1.844 7.804-4.818 17.395-8.285 27.555h19.058c2.725-8.389 5.086-16.396 6.744-23.414c7.277-30.79 11.324-83.063 12.938-108.104c4.323.371 8.553.564 12.777.551c1.95 43.763 2.743 87.742 5.139 130.967h18.027c-2.096-43.95-3.693-88.095-5.195-132.139c3.673-.452 7.44-1.024 11.38-1.738c.38 5.529.842 11.73 1.497 18.799c1.818 19.612 4.637 42.788 9.638 59.08c5.076 16.534 13.858 36.316 23.649 55.998h20.203c-11.208-21.998-21.476-44.444-26.644-61.281c-4.1-13.357-7.15-36.333-8.922-55.46a765.6 765.6 0 0 1-1.637-20.935a575.888 575.888 0 0 0 10.267-2.572c3.057 9.82 8.226 25.34 15.202 42.2c11.633 28.113 27.316 59.935 49.884 75.462c22.168 15.252 56.768 18.44 86.559 19.238c10.42.28 20.164.147 28.543-.132v-18.006c-8.18.281-17.8.42-28.06.144c-28.52-.764-61.584-5.576-76.838-16.072c-15.656-10.771-32.309-40.577-43.456-67.516c-6.583-15.911-11.488-30.572-14.445-40.023c1.963-.545 4.33-1.225 6.36-1.793c4.641 9.226 11.72 22.387 20.34 35.209c7.687 11.437 16.456 22.577 26.468 30.44c10.012 7.861 23.045 12.843 35.332 7.3c6.99-3.153 12.479-8.084 15.666-14.094c3.187-6.01 4.078-12.672 3.756-19.267c-.644-13.19-5.758-26.93-11.342-41.164c-5.584-14.234-11.796-28.855-15.426-42.14c-3.63-13.287-4.442-24.843-1.15-33.306c9.78-15.892 23.432-29.033 36.545-38.726c5.337 4.231 12.244 7.662 20.318 9.916c20.185-25.045 23.679-48.122 22.1-65.059c-24.536 7.73-42.168 26.434-54.592 41.766c-16.116 12.277-34.131 27.545-41.146 45.576c-5.508 14.157-3.544 29.547.562 44.576c4.106 15.03 10.589 30.097 16.031 43.97c5.443 13.875 9.69 26.662 10.12 35.468c.214 4.402-.43 7.604-1.678 9.957c-6.948 10.457-17.25 6.263-23.979 1.07c-7.397-5.808-15.532-15.74-22.646-26.324c-14.228-21.168-24.639-44.565-24.639-44.565l-.273.122l-8.707-17.413C333.255 319.258 323.253 325 312 325c-18.119 0-33-14.881-33-33c0-9.453 4.055-18.02 10.502-24.057C279.092 266.037 267.532 265 256 265c-9.084 0-18.178.652-26.72 1.857C236.43 272.928 241 281.965 241 292c0 18.119-14.881 33-33 33c-14.421 0-26.782-9.43-31.23-22.414c-8.236 18.35-29.464 33.224-42.288 42.51c-10.107 7.231-20.993 13.59-30.04 16.568c-9.049 2.977-14.835 2.594-18.717-.607c-7.893-6.508-8.85-12.247-6.766-22.084c2.083-9.837 8.706-22.58 16.812-36.198c16.213-27.236 39.1-57.896 35.336-89.724c-1.284-10.863-7.458-20.852-12.984-29.346c-13.686-20.938-36.79-44.905-58.982-50.797M208 277c-8.39 0-15 6.61-15 15s6.61 15 15 15s15-6.61 15-15s-6.61-15-15-15m104 0c-8.39 0-15 6.61-15 15s6.61 15 15 15s15-6.61 15-15s-6.61-15-15-15"></path></symbol>
<symbol viewBox="0 0 512 512" id="game-icons-glock"><path fill="currentColor" d="M55.505 435.172h91.88v-16.518h-91.88zm265.317-173.437v-49.326l16.518-.795v66.639H218.618c2.158-5.162 4.316-11.356 6.442-16.518zM466.385 76.828l14.949 9.405h-14.949zm-387.136.114h15.486v9.291H79.249zm179.982 138.45c.207 9.374 2.468 21.442 10.592 32.458c-9.952-2.065-22.712-14.03-30.61-22.444c1.353-3.407 2.602-6.504 3.697-9.219zm-134.558-63.088v-49.553h16.518v49.553zm66.071 0v-49.553h16.518v49.553zm-120.786 0v-49.553h38.198v49.553zm87.75 0v-49.553h16.519v49.553zM96.49 217.488c.413-12.389-14.608-33.335-30.899-33.335c-20.977 0-11.593-8.104-1.331-15.33H486V187.9l-254.312 12.285c-4.976 11.625-22.712 56.976-36.39 92.149l4.779 10.324l-9.477 1.858c-3.49 9.033-11.5 29.69-14.856 38.414l3.645 9.797l-8.26 2.953c-12.388 32.313-17.55 46.456-17.55 46.456H53.44S26 393.216 26 385.216c-.124-43.99 69.292-131.74 70.49-167.728M223.78 102.75H486v49.553H223.78z"></path></symbol>
<symbol viewBox="0 0 512 512" id="game-icons-gorilla"><path fill="currentColor" d="M426.353 45.894c-8.969.095-19.91 4.567-31.41 9.43c-25.134 10.628-30.824 23.015-37.95 37.133c8.482 4.036 15.74 10.27 21.727 17.762c8.672 10.848 15.098 24.363 20.451 39.345c9.563 26.764 15.67 58.434 21.848 88.18l28.812 3.615s38.02-28.257 40.22-47.99c.65-5.84-9.27-14.992-9.27-14.992s5.937-6.614 4.83-11.323c-1.252-5.326-10.38-14.755-10.38-14.755s2.699-6.325.099-10.178c-3.468-5.14-18.98-8.572-18.98-8.572c-1.734-1.69-1.576-8.596-.006-10.287c0 0 14.776-12.887 10.903-17.684c-7.036-8.714-18.633-19.625-18.633-19.625c-.26-30.99-9.153-40.198-22.261-40.059m-102.4 58.86c-47.7.281-69.23 71.742-94.848 86.466c-43.488 23.83-109.511-11.463-145.203 22.045c-36.712 34.467-47.593 68.766-32.047 135.63L32.918 405.23c-7.483 37.268-14.09 30.759-9.463 60.877c38.011-.97 75.93-1.63 113.888 0l2.664-16.361l-26.021-16.215c2.142-13.369 6.033-31.024 20.459-51.959c14.426-20.934 21.727-36.387 21.836-48.713l17.998.158c-.155 17.545-8.409 34.347-18.783 50.23c47.235 15.354 119.223 7.67 173.01-47c-9.46-29.17-21.687-58.052-37.315-79.72l14.598-10.53c35.673 51.447 55.01 132.403 65.963 186.274c-6.292 2.041-11.578 3.946-17.47 6.602c.338 9.09 1.043 18.16 1.65 27.234c31.173-2.124 62.215-.722 93.612 0c17.246-68.035-10.26-117.857-38.76-187.59c-20.847-73.492-18.395-161.324-74.122-172.496c-4.437-.89-8.667-1.291-12.71-1.267zm10.12 249.748c-5.42 5.297-12.046 10.358-19.609 15.297c-5.077 3.315-10.599 6.528-16.472 9.584L284.37 442.32l-10.905 4.906l-1.091 18.881h65.113l-1.73-38.625l14.767-6.658c-4.007-18.973-9.748-42.998-16.451-66.322m-186.929 42.72l15.645 68.885h92.91l-1.543-18.615l-24.672-5.783l-4.56-38.51c-26.065 3.93-53.18 3.051-77.78-5.977"></path></symbol>
<symbol viewBox="0 0 512 512" id="game-icons-ham-shank"><path fill="currentColor" d="M475.346 189.398a27.276 27.276 0 0 1-38.433-19.066l-30.05 14.232a63.31 63.31 0 0 0-3.586-11.274a59.572 59.572 0 0 0-9.853-15.827l29.222-13.836a27.358 27.358 0 1 1 45.713-5.905a27.358 27.358 0 0 1 6.986 51.676zm-295.59 74.107c13.17 31.015 17.61 63.416 12.508 91.217c-4.845 26.39-17.738 45.27-36.303 53.155c-18.564 7.885-41.112 4.053-63.46-10.797c-23.55-15.63-43.816-41.333-56.942-72.372c-13.126-31.038-17.61-63.404-12.497-91.204c4.846-26.392 17.74-45.27 36.304-53.156a51.245 51.245 0 0 1 20.15-4.006c13.718 0 28.556 5.008 43.312 14.803c23.538 15.64 43.757 41.345 56.93 72.36zm-48.79 20.708c-8.29-19.53-25.446-30.922-38.328-25.46c-12.88 5.463-16.596 25.728-8.304 45.26c8.293 19.53 25.448 30.92 38.33 25.46c12.88-5.464 16.596-25.73 8.303-45.248zm255.12-103.655c-7.174-16.9-23.21-25.297-40.646-25.297a58.105 58.105 0 0 0-16.736 2.517c-25.75 7.757-51.152 10.482-75.598 10.482c-56.22 0-107.347-14.315-146.037-14.315c-10.483 0-20.045 1.06-28.547 3.727c17.644-.233 36.337 5.824 54.587 17.948c26.555 17.633 49.196 46.26 63.777 80.594c14.582 34.335 19.508 70.532 13.685 101.885c-4.332 23.618-14.29 42.568-28.697 55.204c66.572-20.312 96.748-133.028 185.18-177.762c19.917-10.04 27.732-34.474 19.032-54.96z"></path></symbol>
<symbol viewBox="0 0 512 512" id="game-icons-hemp"><path fill="currentColor" d="M256 16c-38.355 67.122-53.713 168.713-46.096 249.691C162.114 202.531 80 160 48 144c0 44.276 61.262 134.485 125.51 185.89C122.122 316.443 48 320 16 320c27.009 27.009 99.61 54.017 157.943 66.773C142.34 396.846 123.34 427.495 96 448c49.447 0 121.079-21.399 151-49.203V496h18v-97.203C294.921 426.6 366.553 448 416 448c-27.34-20.505-46.34-51.154-77.943-61.227C396.39 374.017 468.99 347.01 496 320c-32 0-106.122-3.558-157.51 9.89C402.738 278.486 464 188.277 464 144c-48 16-114.114 58.531-161.904 121.691C309.713 184.713 294.356 83.121 256 16"></path></symbol>
<symbol viewBox="0 0 512 512" id="game-icons-holosphere"><path fill="currentColor" d="M256 48c-29.077 0-56.755 5.975-81.887 16.75h163.774C312.755 53.975 285.077 48 256 48M130.34 90.25a209.114 209.114 0 0 0-27.938 25.5h307.196a209.237 209.237 0 0 0-27.938-25.5zm-47.834 51a207.874 207.874 0 0 0-14.428 25.5h375.844a207.626 207.626 0 0 0-14.43-25.5zm-24.54 51a206.415 206.415 0 0 0-6.443 25.5H460.48a206.964 206.964 0 0 0-6.447-25.5zm-9.566 51c-.255 4.22-.4 8.467-.4 12.75c0 4.283.145 8.53.4 12.75h415.2c.255-4.22.4-8.467.4-12.75c0-4.283-.146-8.53-.4-12.75zm3.123 51a206.776 206.776 0 0 0 6.444 25.5h396.066a206.597 206.597 0 0 0 6.444-25.5zm16.555 51a207.961 207.961 0 0 0 14.43 25.5h346.986a207.7 207.7 0 0 0 14.43-25.5zm34.324 51a209.13 209.13 0 0 0 27.94 25.5H381.66a209.237 209.237 0 0 0 27.938-25.5zm71.71 51C199.246 458.025 226.923 464 256 464c29.076 0 56.755-5.975 81.887-16.75H174.113z"></path></symbol>
<symbol viewBox="0 0 512 512" id="game-icons-italia"><path fill="currentColor" d="M220.491 24.574L61.571 79.201c-28.927 37.65 13.728 85.182 29.301 94.36l51.152-23.838l89.891 111.244L362.03 332.48l20.362 52.145l-16.885 34.268l18.375 11.918l32.775-68.534l-22.227-16.243l11.301-38.386l52.643 32.778l-1.49-29.301l-93.178-49.84c4.616-.771 9.298-1.572 10.242-1.808c1.987-.497-1.49-12.416-1.49-12.416l-33.817 1.437l-31.24-17.33l-29.3-53.139l-36.75-23.34l-3.477-56.119l40.723-18.375l-3.973-33.771zM129.837 287.16l-5.463 16.102l-21.086.414l8.443 88.398l40.723-9.435l1.074-79.95l-4.728-14.474zm233.185 128.256L257.74 426.342l-1.986 18.87l90.88 42.214l13.411-17.381l-11.92-13.408z"></path></symbol>
<symbol viewBox="0 0 512 512" id="game-icons-laurel-crown"><path fill="currentColor" d="M134.594 73.375c-17.522 5.65-31.232 11.854-48.125 24.25a221.016 221.016 0 0 0-6.44 6.406c.24.566.61 1.265 1.157 2.25c1.016 1.832 2.767 4.023 4.97 6.19a251.788 251.788 0 0 0-9.5 16.624c-3.664-3.04-6.952-6.423-9.594-10.22a216.457 216.457 0 0 0-20.438 30.44c.395 1.636 1.557 3.42 3.78 5.81c2.656 2.853 6.805 5.8 11.626 8.314c-2.024 6.117-3.76 12.204-5.186 18.28c-7.44-3.38-14.245-7.768-19.594-13.343a211.595 211.595 0 0 0-13.406 43.656c1.335 2.434 3.714 4.663 7.312 7.032c5.072 3.34 12.36 6.076 20.282 7.657c-.045 6.437.25 12.822.812 19.124c-11.407-1.673-22.405-5.248-31.375-11.156c-.05-.034-.106-.06-.156-.094a214.27 214.27 0 0 0 1.093 45.906c2.31 3.48 6.176 5.957 11.937 7.938c7.406 2.546 17.472 3.344 27.72 2.312c2 6.122 4.275 12.13 6.81 18c-13.97 2.098-28.237 1.622-40.593-2.625c-.337-.116-.665-.252-1-.375a214.665 214.665 0 0 0 16.844 44.406c3.553 2.804 8.35 4.216 14.72 4.656c9.3.644 21.144-1.73 32.438-6.343a231.027 231.027 0 0 0 11.75 15.25c-14.57 6.715-30.36 10.675-45.063 9.75a217.247 217.247 0 0 0 34.844 39.75c4.26 1.446 9.3 1.465 15.374.28c9.6-1.873 20.855-7.404 31.03-15c.008.005.026-.005.032 0a230.296 230.296 0 0 0 15.906 11.25c-11.976 9.91-25.625 17.696-39.53 21.22a214.099 214.099 0 0 0 37.343 20.186c4.937.423 10.29-.96 16.344-3.906c7.672-3.735 15.78-10.252 23.03-18.28c17.036 6.783 34.732 11.22 52.563 12.905l1.78-18.625c-14.268-1.35-28.584-4.77-42.562-9.938c6.883-11.108 11.61-23.173 12.94-33.437c1.178-9.114.083-16.157-3.782-21.438c-8.08-1.58-15.89-3.94-23.375-7c-.172 6.47-1.706 12.987-4.22 19.094c-3.745 9.103-9.52 17.798-16.53 25.72a211.548 211.548 0 0 1-15.657-10.625c6.62-7.182 11.923-14.97 14.906-22.22c3.806-9.246 4.173-16.578.625-22.81c-7.748-4.957-15.003-10.737-21.718-17.22c-1.773 4.3-4.187 8.37-7.032 12.094c-5.476 7.165-12.572 13.51-20.563 18.905c-4.12-4.72-8.052-9.603-11.75-14.688c7.152-4.694 13.296-10.1 17.47-15.562c5.038-6.594 7.22-12.41 6.468-18.094a162.072 162.072 0 0 1-13.5-21a50.017 50.017 0 0 1-7.657 7.283c-6.758 5.175-14.798 9.155-23.406 12.03c-2.595-5.69-4.957-11.498-7-17.437c7.427-2.405 14.13-5.683 19.03-9.437c5.696-4.362 8.802-8.545 9.532-13.25a179.834 179.834 0 0 1-7.406-24.908a45.311 45.311 0 0 1-5.812 2.813c-7.45 2.947-15.75 4.434-24.28 4.75a176.67 176.67 0 0 1-1.033-18.72c6.957-.263 13.464-1.437 18.44-3.405c4.6-1.82 7.595-3.8 9.343-6.25a192.127 192.127 0 0 1-.813-29.813c-.65.104-1.29.18-1.938.25c-6.624.725-13.556.15-20.406-1.343c1.37-5.98 3.07-12.01 5.094-18.063c4.87.933 9.538 1.223 13.28.814c2.614-.286 4.532-.756 6-1.406a188.99 188.99 0 0 1 5.97-26.032c-4.182-.736-8.284-2.092-12.25-3.875a238.847 238.847 0 0 1 9.344-16.405c2.414.963 4.716 1.665 6.687 1.97c1.107.17 2.023.265 2.782.28c1.946-4.64 4.022-9.17 6.282-13.563c5.898-11.802 12.415-24.25 17-37.937zm244.375 0c4.583 13.686 11.1 26.135 17 37.938a191.166 191.166 0 0 1 6.31 13.562c.752-.016 1.66-.113 2.75-.28c1.98-.306 4.296-1 6.72-1.97a238.628 238.628 0 0 1 9.344 16.406c-3.976 1.786-8.096 3.14-12.28 3.876c2.563 8.39 4.573 17.1 5.967 26.03c1.474.658 3.404 1.12 6.033 1.408c3.742.41 8.41.12 13.28-.813a192.593 192.593 0 0 1 5.063 18.095c-6.837 1.487-13.762 2.036-20.375 1.313a40.506 40.506 0 0 1-1.967-.25a192.146 192.146 0 0 1-.782 29.812c1.75 2.45 4.745 4.43 9.345 6.25c4.967 1.965 11.462 3.14 18.406 3.406a177.22 177.22 0 0 1-1.03 18.72c-8.52-.32-16.808-1.808-24.25-4.75a45.597 45.597 0 0 1-5.813-2.814a179.934 179.934 0 0 1-7.406 24.875c.715 4.72 3.795 8.912 9.5 13.282c4.904 3.753 11.605 7.03 19.033 9.436c-2.044 5.94-4.405 11.747-7 17.438c-8.598-2.875-16.624-6.862-23.375-12.03a50.046 50.046 0 0 1-7.688-7.283c-4.01 7.422-8.52 14.444-13.5 21c-.76 5.682 1.43 11.502 6.47 18.095c4.168 5.457 10.313 10.87 17.467 15.563c-3.697 5.085-7.63 9.966-11.75 14.687c-7.99-5.396-15.086-11.74-20.562-18.906c-2.838-3.715-5.234-7.778-7-12.064c-6.71 6.478-13.976 12.236-21.72 17.188c-3.547 6.233-3.18 13.565.626 22.812c2.985 7.25 8.288 15.037 14.908 22.22a212.295 212.295 0 0 1-15.688 10.624c-7.003-7.922-12.754-16.617-16.5-25.72c-2.513-6.106-4.047-12.623-4.22-19.092a125.382 125.382 0 0 1-23.405 7c-3.873 5.28-4.96 12.324-3.78 21.437c1.327 10.264 6.08 22.33 12.967 33.438c-13.974 5.168-28.293 8.587-42.562 9.937l1.75 18.625c17.84-1.687 35.546-6.116 52.594-12.906c7.25 8.028 15.358 14.545 23.03 18.28c6.056 2.947 11.408 4.33 16.345 3.906a213.792 213.792 0 0 0 37.342-20.187c-13.896-3.52-27.562-11.293-39.53-21.19c5.442-3.504 10.74-7.293 15.906-11.28c10.18 7.604 21.456 13.126 31.062 15c6.056 1.182 11.09 1.185 15.344-.25a217.354 217.354 0 0 0 34.875-39.78c-14.705.925-30.526-3.035-45.095-9.75c4.12-4.913 8.066-9.99 11.78-15.25c11.295 4.61 23.138 6.986 32.44 6.342c6.368-.44 11.166-1.852 14.717-4.656a214.687 214.687 0 0 0 16.844-44.406c-.335.123-.663.26-1 .375c-12.355 4.247-26.623 4.723-40.594 2.625a209.208 209.208 0 0 0 6.813-18c10.236 1.027 20.29.23 27.688-2.313c5.765-1.98 9.65-4.455 11.968-7.937a214.42 214.42 0 0 0 1.064-45.906c-.043.028-.082.065-.125.094c-8.97 5.908-19.97 9.483-31.376 11.156c.563-6.302.856-12.687.812-19.125c7.92-1.582 15.21-4.317 20.28-7.657c3.593-2.366 5.946-4.604 7.283-7.032a211.792 211.792 0 0 0-13.408-43.655c-5.347 5.57-12.133 9.96-19.562 13.344a212.933 212.933 0 0 0-5.188-18.282c4.805-2.513 8.942-5.464 11.594-8.313c2.212-2.376 3.402-4.15 3.813-5.78a216.48 216.48 0 0 0-20.44-30.47c-2.642 3.796-5.93 7.18-9.592 10.22a252.471 252.471 0 0 0-9.5-16.626c2.208-2.166 3.953-4.36 4.968-6.19c.538-.97.92-1.656 1.156-2.218a221.788 221.788 0 0 0-6.468-6.437c-16.893-12.396-30.603-18.6-48.125-24.25zM152.81 134.313l24.094 129.718H341l22.906-124.5l-57.937 63.5L261 135.845l-45 67.187l-63.188-68.718zm27.563 148.406l3.563 19.217H334.03l3.533-19.218H180.375z"></path></symbol>
<symbol viewBox="0 0 512 512" id="game-icons-laurels"><path fill="currentColor" d="M234.7 18.05c-21 .2-38.8 2.5-62 10.2c-4.1 2-8.2 4.1-12.2 6.2c.8 5.26 3.2 10.77 5.5 14.7c-4.9 4.2-9.6 8.4-14.1 12.8c-3.7-5.5-6.6-11.4-8.3-17.4c-14.2 9.2-27.7 19.6-40.1 31.4c1.9 9.5 9.2 18.21 15.2 24.15c-3.7 5.2-7.2 10.4-10.5 15.7c-8.22-7.2-15.12-15.5-19.32-24.65C74.97 108.1 61.92 126 53.08 142.3c5.29 13 19.01 22.7 29.8 28.4c-2 6.1-3.7 12.2-5.1 18.4c-13.5-6.4-26.3-15.7-34.5-26.6c-8.7 20.1-14.7 40.7-18.2 61.4c9.63 15.5 30.57 22.9 46 25.9c.1 6.4.4 12.8.9 19.2c-17.79-2.7-37.26-9.6-49.9-20.4c-1.6 22.3-.5 44.5 3.4 66.2c15.25 13.7 41.14 15.3 58.6 13.7c2 6.1 4.1 12.2 6.5 18.1c-18.61 4.5-43.29 1.1-59.3-6.2c6.6 23.7 16.4 46.4 29.2 67.4c19.33 8.6 44.52 3.6 61.72-2.5c3.7 5.3 7.6 10.5 11.6 15.5c-17.8 9.5-39.9 11.5-57.52 10.1c12.3 16.3 26.62 31.2 42.72 44.4c4.9 1.1 10.5 1.1 16.7.3c11.7-1.7 25.2-7 37.9-14.7c16.7 13.5 34.9 24.7 54.1 33.1l7.5-17.2c-16-6.9-31.3-16.2-45.6-27.3c13.3-10.9 24.3-24 30.2-36.5c4.7-9.7 6.3-18.4 4.5-26.3c-10.7-5.7-20.6-12.5-29.5-20.3c-7.8 20.8-26.4 36.1-43.5 46c-4-4.9-7.9-9.9-11.6-15c16.8-9.8 39.9-27.5 39.1-47.1c-8.9-10.3-16.6-21.8-22.9-34.1c-12 14-30.7 22.5-46.5 26.7c-2.4-5.8-4.6-11.6-6.6-17.6c16.8-5.2 37.9-13 44.1-29.7c-4.3-11.5-7.5-23.6-9.7-36c-13.8 8.4-32 11.1-46.32 10.9c-.6-6.2-1-12.4-1.2-18.7c15.52-.6 33.92-2.5 44.92-14.3c-.8-12.6-.5-25.5.9-38.5c-13.4 2.8-29 .3-40.42-3.2c1.3-6 2.9-12.1 4.8-18.1c12.82 3.2 27.12 6.7 38.82.8c2.7-13.6 6.7-27.3 12-40.8c-9.9-1.8-20.2-6.3-27.7-10.7c3.3-5.3 6.8-10.5 10.5-15.7c8.1 4.2 16.3 8.8 25.2 8.4c5.7-11.6 12.3-22.65 19.5-32.75c-5.1-2.7-10-6.4-14.4-10.6c4.4-4.3 9.1-8.5 13.9-12.7c3.8 3.54 8 6.18 12.3 8.2c15.9-18.6 35.9-36.23 49-53.8zm38.4 0c15.4 20.75 33.8 35.63 48.9 53.7c4.6-1.76 9.1-5.23 12.3-8.1c4.9 4.2 9.5 8.4 13.9 12.7c-4.4 4.2-9.2 7.9-14.4 10.6c7.3 10.1 13.9 21.05 19.6 32.65c9-.1 18.4-4.4 25.2-8.4c3.7 5.2 7.2 10.4 10.4 15.7c-8.8 5.9-18.2 9.6-27.6 10.7c5.3 13.5 9.3 27.2 12 40.8c12.3 5.4 27.3 2.7 38.7-.8c1.9 6 3.5 12.1 4.9 18.1c-14.2 3.4-27.3 6.2-40.4 3.3c1.4 12.9 1.6 25.8.8 38.5c11.4 12.3 30.2 14.4 44.9 14.2c-.2 6.3-.5 12.5-1.2 18.7c-17.1-.5-32.8-2.5-46.3-10.9c-2.1 12.4-5.3 24.5-9.6 36.1c8.2 17.4 27.8 25.3 44.1 29.6c-2 6-4.2 11.8-6.6 17.6c-18.5-5.6-34.9-13-46.6-26.7c-6.3 12.4-13.9 23.8-22.9 34.1c1.5 22.4 22.4 37.8 39.2 47.1c-3.7 5.1-7.6 10.1-11.6 15c-19-11.8-36.6-25.8-43.5-46c-9 7.8-18.8 14.6-29.6 20.3c-1.8 7.9-.1 16.6 4.5 26.3c6 12.5 17 25.6 30.3 36.5c-14.3 11.1-29.6 20.4-45.6 27.3l7.4 17.2c19.3-8.4 37.4-19.6 54.1-33.2c12.7 7.8 26.2 13.1 38 14.8c6.2.8 11.8.8 16.7-.3c16.1-13.2 30.4-28.1 42.7-44.4c-18 1.7-37.9-2.3-56.5-9.7c-.3-.1-.7-.3-1.1-.4c4.1-5 7.9-10.2 11.7-15.5c18.2 7.8 43.7 11.7 61.6 2.5c12.8-21 22.6-43.7 29.2-67.4c-.4.2-.8.4-1.2.5c-20.5 6.4-40.1 7.6-58.1 5.7c2.4-5.9 4.5-12 6.5-18c19.1 1.7 45.2.1 58.6-13.8c3.9-21.7 5.1-43.9 3.4-66.2c-14.4 10.7-34.9 17.9-49.9 20.4c.5-6.4.9-12.8 1-19.2c16.8-4.8 37.9-10 45.9-25.9c-3.5-20.7-9.5-41.3-18.2-61.4c-9.4 11.6-23.1 21-34.4 26.5c-1.5-6.1-3.2-12.2-5.2-18.3c12-7.4 25.1-15.3 29.9-28.4c-10.1-18.7-22.2-35.8-35.9-51.05c-4.2 9.05-11.1 17.45-19.2 24.65c-3.3-5.3-6.8-10.5-10.6-15.7c6.2-7.17 14.2-14.71 15.2-24.15c-12.4-11.8-25.8-22.2-40-31.4c-1.8 6-4.7 11.9-8.3 17.4c-4.5-4.4-9.2-8.6-14.1-12.8c2.7-4.82 4.7-9.62 5.4-14.7c-4-2.1-8.1-4.2-12.2-6.2c-24.7-8.2-43.3-10.3-66.2-10.2"></path></symbol>
<symbol viewBox="0 0 512 512" id="game-icons-laurels-trophy"><path fill="currentColor" d="M137.273 41c1.41 59.526 16.381 119.035 35.125 167.77c19.69 51.191 44.086 90.988 57.965 104.867l2.637 2.636V343h46v-26.727l2.637-2.636c13.879-13.88 38.275-53.676 57.965-104.867c18.744-48.735 33.715-108.244 35.125-167.77zm-50.605 68.295c-17.97 6.05-32.296 18.214-37.625 30.367c-3.015 6.875-3.48 13.44-.988 20.129c.285.766.62 1.54.996 2.318a119.032 119.032 0 0 1 8.504-4.812l6.277-3.215l4.621 5.326c5.137 5.92 9.61 12.37 13.422 19.125c2.573-3.06 5.207-7.864 7.05-14.037c4.491-15.034 4.322-36.95-2.257-55.201m338.664 0c-6.58 18.25-6.748 40.167-2.258 55.201c1.844 6.173 4.478 10.977 7.051 14.037c3.813-6.756 8.285-13.205 13.422-19.125l4.621-5.326l6.277 3.215a119.033 119.033 0 0 1 8.504 4.812c.375-.779.71-1.552.996-2.318c2.492-6.689 2.027-13.254-.988-20.129c-5.329-12.153-19.655-24.317-37.625-30.367m-365.975 67.74c-20.251 12.486-34.121 31.475-36.746 47.973c-1.447 9.1.09 17.224 5.323 24.545c1.66 2.324 3.743 4.594 6.304 6.76a116.606 116.606 0 0 1 11.44-14.977l4.72-5.24l6.217 3.33c7.91 4.236 15.262 9.424 21.94 15.252c.973-3.633 1.619-7.892 1.773-12.616c.636-19.438-6.762-45.536-20.97-65.027zm393.286 0c-14.21 19.49-21.607 45.59-20.971 65.027c.154 4.724.8 8.983 1.773 12.616c6.678-5.828 14.03-11.016 21.94-15.252l6.217-3.33l4.72 5.24a116.606 116.606 0 0 1 11.44 14.976c2.56-2.165 4.643-4.435 6.304-6.76c5.233-7.32 6.77-15.444 5.323-24.544c-2.625-16.498-16.495-35.487-36.746-47.973M54.4 259.133c-14.394 18.806-20.496 41.413-17.004 57.748c1.928 9.014 6.298 16.078 13.844 21.078c4.944 3.276 11.48 5.7 19.94 6.645a120.631 120.631 0 0 1 7.101-17.852l3.125-6.338l6.9 1.535c4.095.911 8.133 2.046 12.094 3.377c-.373-3.838-1.309-8.185-2.925-12.82c-6.416-18.396-22.749-40.184-43.075-53.373m403.2 0c-20.326 13.189-36.66 34.977-43.075 53.373c-1.616 4.635-2.552 8.982-2.925 12.82a119.337 119.337 0 0 1 12.093-3.377l6.9-1.535l3.126 6.338a120.63 120.63 0 0 1 7.101 17.852c8.46-.944 14.996-3.37 19.94-6.645c7.546-5 11.916-12.065 13.844-21.078c3.492-16.335-2.61-38.942-17.004-57.748M91.5 341.527c-9.285 23.14-9.027 47.85-.709 63.54c4.57 8.619 11.106 14.607 20.268 17.562c4.586 1.479 9.957 2.19 16.185 1.803c-2.135-11.155-2.771-22.97-1.756-34.938l.602-7.074l7.02-1.065a129.43 129.43 0 0 1 13.458-1.312c.554-.025 1.107-.04 1.66-.059c-12.419-15.776-33.883-31.43-56.728-38.457m329 0c-22.845 7.027-44.31 22.68-56.729 38.457c.554.019 1.107.034 1.66.059c4.5.206 8.995.637 13.46 1.312l7.02 1.065l.6 7.074c1.016 11.967.38 23.783-1.755 34.938c6.228.386 11.6-.324 16.185-1.803c9.162-2.955 15.699-8.943 20.268-17.563c8.318-15.69 8.576-40.4-.709-63.539M199.729 361c-1.943 7.383-6.045 14.043-11.366 19.363a46.544 46.544 0 0 1-3.484 3.125c14.804 3.295 28.659 8.692 40.404 15.46c2.384-5.36 5.376-10.345 9.408-14.534C239.96 378.942 247.51 375 256 375c8.491 0 16.041 3.942 21.309 9.414c4.032 4.19 7.024 9.175 9.408 14.533c11.815-6.808 25.766-12.23 40.67-15.52a48.107 48.107 0 0 1-3.739-3.413c-5.227-5.333-9.27-11.852-11.261-19.014zM256 393c-3.434 0-5.635 1.084-8.34 3.895c-2.704 2.81-5.395 7.52-7.527 13.298c-4.265 11.556-6.343 27-7.156 38.446c-1.07 15.043 3 33.368 12.285 40.06c4.733 3.412 16.743 3.412 21.476 0c9.285-6.692 13.355-25.017 12.285-40.06c-.813-11.446-2.891-26.89-7.156-38.446c-2.132-5.777-4.823-10.488-7.527-13.298c-2.705-2.81-4.906-3.895-8.34-3.895m-103.521 4.979c-1.714-.008-3.424.022-5.127.09c-1.405.055-2.77.281-4.164.39c-.418 27.817 9.816 53.543 24.994 66.644c8.264 7.134 17.586 10.772 28.35 10.157c5.908-.338 12.394-2.03 19.374-5.52c-1.27-7.665-1.377-15.42-.883-22.379c.632-8.89 1.852-19.962 4.479-30.877c-17.16-10.686-42.426-18.395-67.023-18.506zm207.042 0c-24.597.11-49.863 7.82-67.023 18.505c2.627 10.915 3.847 21.987 4.479 30.877c.494 6.958.387 14.714-.883 22.38c6.98 3.49 13.466 5.181 19.375 5.519c10.763.615 20.085-3.023 28.35-10.156c15.177-13.102 25.411-38.828 24.993-66.645c-1.393-.109-2.76-.335-4.164-.39a116.32 116.32 0 0 0-5.127-.09"></path></symbol>
<symbol viewBox="0 0 512 512" id="game-icons-mug-shot"><path fill="currentColor" d="M32 28.5v34h177.162c13.44-11.255 29.48-18 46.838-18H80v-16zm224 16c17.358 0 33.399 6.745 46.838 18H432v16h48v-34zm0 18c-18.687 0-36.025 10.529-49.244 29.035C193.537 110.041 185 136.31 185 165.5c0 29.19 8.537 55.459 21.756 73.965S237.313 268.5 256 268.5s36.025-10.529 49.244-29.035C318.463 220.959 327 194.69 327 165.5c0-29.19-8.537-55.459-21.756-73.965S274.687 62.5 256 62.5m-224 30v34h139.68a145.593 145.593 0 0 1 5.709-18H80v-16zm302.611 16a145.593 145.593 0 0 1 5.71 18H432v16h48v-34zM32 156.5v34h136.885a164.02 164.02 0 0 1-1.735-18H80v-16zm312.85 16a164.02 164.02 0 0 1-1.735 18H432v16h48v-34zM32 220.5v34h149.613c3.233-1.86 6.6-3.575 10.078-5.168a120.698 120.698 0 0 1-7.877-12.832H80v-16zm296.186 16a120.698 120.698 0 0 1-7.877 12.832a122.386 122.386 0 0 1 10.078 5.168H432v16h48v-34zM203.37 263.223c-28.513 11.107-46.58 32.34-59.133 60.898c-7.258 16.512-12.351 35.582-15.879 56.393c8.432.088 16.157 3.27 22.641 8.398V348.5h210v40.412c6.484-5.128 14.209-8.31 22.64-8.398c-3.527-20.811-8.62-39.881-15.878-56.393c-12.553-28.558-30.62-49.79-59.133-60.898C294.119 277.619 275.925 286.5 256 286.5c-19.925 0-38.12-8.881-52.629-23.277zM32 284.5v34h95.074c2.72-6.244 6.026-12.839 9.033-18H80v-16zm343.893 16c3.523 6.334 6.58 12.16 9.033 18H432v16h48v-34zM32 348.5v34h77.643a354.614 354.614 0 0 1 3.298-18H80v-16zm144 16v18h48v-18zm80 0v18h90.146v-18zm143.059 0a354.614 354.614 0 0 1 3.298 18H432v16h48v-34zM176 396.5v18h80v-18zm-48 2c-6.462 0-12.797 3.682-18.08 11.24c-5.283 7.558-8.92 18.739-8.92 31.26s3.637 23.702 8.92 31.26c5.283 7.558 11.618 11.24 18.08 11.24c6.462 0 12.797-3.682 18.08-11.24c5.283-7.558 8.92-18.739 8.92-31.26s-3.637-23.702-8.92-31.26c-5.283-7.558-11.618-11.24-18.08-11.24m256 0c-6.462 0-12.797 3.682-18.08 11.24c-5.283 7.558-8.92 18.739-8.92 31.26s3.637 23.702 8.92 31.26c5.283 7.558 11.618 11.24 18.08 11.24c6.462 0 12.797-3.682 18.08-11.24c5.283-7.558 8.92-18.739 8.92-31.26s-3.637-23.702-8.92-31.26c-5.283-7.558-11.618-11.24-18.08-11.24m-352 14v34h51.184C80 432.622 80 417.647 80 412.5zm192 16v18h112v-18zm204.053 0c.617 4.043.947 8.22.947 12.5c.376 12.5.578 15.482 1 21.5h50v-34zm-257.93 34c-2.067 7.416-5.193 14.188-9.242 20h190.238c-4.05-5.812-7.175-12.584-9.242-20z"></path></symbol>
<symbol viewBox="0 0 512 512" id="game-icons-nuclear-waste"><path fill="currentColor" d="M140 29.92c-31.4 0-59.89 3.25-79.89 8.25c-9.9 2.5-17.8 5.51-22.4 8.25c-3.2 1.87-4.1 3.15-4.5 3.58c.4.43 1.3 1.71 4.5 3.58c4.6 2.74 12.5 5.75 22.4 8.25c20 5 48.49 8.25 79.89 8.25h5.7c5.3-2 11.1-3.78 17.6-5.4c20.3-5.08 46.5-8.42 75.8-9.36c1.2-.57 2.3-1.14 3.2-1.7c3.1-1.87 4.1-3.15 4.5-3.58c-.4-.43-1.4-1.71-4.5-3.58c-4.6-2.74-12.5-5.75-22.5-8.25c-19.9-5-48.4-8.25-79.8-8.25zm232 0c-31.4 0-59.9 3.25-79.8 8.25c-10 2.5-17.9 5.51-22.5 8.25c-3.1 1.87-4.1 3.15-4.5 3.58c.4.43 1.4 1.71 4.5 3.58c.9.56 2 1.13 3.2 1.7c29.3.94 55.5 4.28 75.8 9.36c6.5 1.62 12.3 3.4 17.6 5.4h5.7c31.4 0 59.9-3.25 79.8-8.25c10-2.5 17.9-5.51 22.5-8.25c3.1-1.87 4.1-3.15 4.5-3.58c-.4-.43-1.4-1.71-4.5-3.58c-4.6-2.74-12.5-5.75-22.5-8.25c-19.9-5-48.4-8.25-79.8-8.25zM33.01 71.44V369.9c0 4.3 1.8 8 6.8 12.3c5 4.3 13.1 8.5 23.3 11.9c15.3 5.1 35 8.5 55.89 9.8V278.3l-16.5 28.6l-7.79-4.5c-27.4-15.9-44.3-45.3-44.4-77v-9h52.59c-.6 2.6-.9 5.3-.9 8.1c0 13.1 6.8 24.8 17 31.7v-63.4c-1.9 1.3-3.6 2.7-5.2 4.2l-25.99-45.1l7.8-4.5c7.49-4.2 15.29-7.3 23.39-9.3V87.61c-24.19-1.08-45.99-4.01-63.19-8.32c-8.9-2.21-16.5-4.76-22.8-7.85m445.99 0c-6.3 3.09-14 5.63-22.8 7.84c-17.2 4.31-39 7.24-63.2 8.32v50.6c8.1 2 16 5.1 23.4 9.3l7.7 4.5l-4.4 7.8l-21.5 37.2c-1.6-1.5-3.3-2.9-5.2-4.2v63.4c10.2-6.9 17-18.6 17-31.7c0-2.8-.3-5.5-.9-8.1h50.8v9c0 31.8-17 61.1-44.4 77l-7.8 4.5l-14.7-25.5v122.5c20.9-1.3 40.7-4.7 55.9-9.8c10.2-3.4 18.3-7.6 23.3-11.9c5-4.3 6.8-8 6.8-12.3zM256 73c-34.7 0-66.2 3.57-88.3 9.1c-11.1 2.77-19.8 6.09-25.1 9.19c-4.3 2.58-5.3 4.42-5.5 4.71c.2.29 1.2 2.12 5.5 4.7c5.3 3.1 14 6.4 25.1 9.2c22.1 5.5 53.6 9.1 88.3 9.1c34.7 0 66.2-3.6 88.3-9.1c11.1-2.8 19.8-6.1 25.1-9.2c4.3-2.58 5.3-4.41 5.5-4.7c-.2-.29-1.2-2.13-5.5-4.71c-5.3-3.1-14-6.42-25.1-9.19c-22.1-5.53-53.6-9.1-88.3-9.1m118.9 23c.1.1.1.1.1 0s0-.1-.1 0m-237.8 0c-.1-.1-.1-.1-.1 0s0 .1.1 0m-.1 22.1V448c0 5 2.2 9.3 7.9 14.2c5.6 4.8 14.7 9.5 25.9 13.3c22.6 7.5 54 11.5 85.2 11.5c31.2 0 62.6-4 85.2-11.5c11.2-3.8 20.3-8.5 25.9-13.3c5.7-4.9 7.9-9.2 7.9-14.2V118.1c-7.2 3.7-16 6.6-26.3 9.3c-24.2 6-56.7 9.6-92.7 9.6s-68.5-3.6-92.7-9.6c-10.3-2.7-19.1-5.6-26.3-9.3M256 191c16.8 0 33.5 4.4 48.5 13l7.8 4.5l-4.5 7.8l-24.1 41.6c-7.3-6.7-17-10.9-27.7-10.9s-20.4 4.2-27.7 10.9l-28.6-49.4l7.8-4.5c15-8.7 31.7-13 48.5-13m0 74c12.8 0 23 10.2 23 23s-10.2 23-23 23s-23-10.2-23-23s10.2-23 23-23m-98 15h57.8c-.5 2.6-.8 5.3-.8 8c0 18.1 12 33.7 28.5 39l-29.2 50.5l-7.8-4.5c-30-17.3-48.5-49.4-48.5-84zm138.2 0H352v9c0 34.6-18.5 66.7-48.5 84l-7.8 4.5l-28.8-50c17.3-4.8 30.1-20.8 30.1-39.5c0-2.7-.3-5.4-.8-8"></path></symbol>
<symbol viewBox="0 0 512 512" id="game-icons-perspective-dice-six-faces-five"><path fill="currentColor" d="M255.76 44.764c-6.176 0-12.353 1.384-17.137 4.152L85.87 137.276c-9.57 5.536-9.57 14.29 0 19.826l152.753 88.36c9.57 5.536 24.703 5.536 34.272 0l152.753-88.36c9.57-5.535 9.57-14.29 0-19.825l-152.753-88.36c-4.785-2.77-10.96-4.153-17.135-4.153m1.86 12.423a31.953 18.96 0 0 1 21.194 5.536a31.953 18.96 0 0 1-45.187 26.812a31.953 18.96 0 0 1 23.992-32.347zm-119.173 70.188a31.953 18.96 0 0 1 .002 0a31.953 18.96 0 0 1 21.195 5.535a31.953 18.96 0 0 1-45.19 26.813a31.953 18.96 0 0 1 23.992-32.348zm118.24.244a31.953 18.96 0 0 1 22.125 32.362a31.953 18.96 0 1 1-45.187-26.812a31.953 18.96 0 0 1 23.06-5.55zm119.663.015a31.953 18.96 0 0 1 .002 0a31.953 18.96 0 0 1 21.195 5.535a31.953 18.96 0 0 1-45.19 26.812a31.953 18.96 0 0 1 23.993-32.347M75.67 173.84c-5.753-.155-9.664 4.336-9.664 12.28v157.696c0 11.052 7.57 24.163 17.14 29.69l146.93 84.848c9.57 5.526 17.14 1.156 17.14-9.895V290.76c0-11.052-7.57-24.16-17.14-29.688l-146.93-84.847c-2.69-1.555-5.225-2.327-7.476-2.387zm360.773.002c-2.25.06-4.783.83-7.474 2.385l-146.935 84.847c-9.57 5.527-17.14 18.638-17.14 29.69v157.7c0 11.05 7.57 15.418 17.14 9.89L428.97 373.51c9.57-5.527 17.137-18.636 17.137-29.688v-157.7c0-7.942-3.91-12.432-9.664-12.278zM89.297 195.77a31.236 18.008 58.094 0 1 33.818 41.183a31.236 18.008 58.094 1 1-45-25.98a31.236 18.008 58.094 0 1 11.182-15.203m333.52 0A18.008 31.236 31.906 0 1 434 210.973a18.008 31.236 31.906 0 1-45 25.98a18.008 31.236 31.906 0 1 33.818-41.183zm-165.198 2.314a31.953 18.96 0 0 1 21.194 5.535a31.953 18.96 0 0 1-45.187 26.812a31.953 18.96 0 0 1 23.992-32.348zm109.198 30.018A18.008 31.236 31.906 0 1 378 243.305a18.008 31.236 31.906 0 1-45 25.98a18.008 31.236 31.906 0 1 33.818-41.183zm-165.52 32.332a31.236 18.008 58.094 0 1 33.817 41.183a31.236 18.008 58.094 1 1-45-25.98a31.236 18.008 58.094 0 1 11.182-15.203zm109.52 0A18.008 31.236 31.906 0 1 322 275.637a18.008 31.236 31.906 0 1-45 25.98a18.008 31.236 31.906 0 1 33.818-41.183zM89.298 318.48a31.236 18.008 58.094 0 1 33.817 41.184a31.236 18.008 58.094 1 1-45-25.98a31.236 18.008 58.094 0 1 11.182-15.204zm333.52 0A18.008 31.236 31.906 0 1 434 333.684a18.008 31.236 31.906 0 1-45 25.98a18.008 31.236 31.906 0 1 33.818-41.184m-56 32.332A18.008 31.236 31.906 0 1 378 366.017a18.008 31.236 31.906 0 1-45 25.98a18.008 31.236 31.906 0 1 33.818-41.183zm-165.52 32.33a31.236 18.008 58.094 0 1 33.817 41.184a31.236 18.008 58.094 1 1-45-25.98a31.236 18.008 58.094 0 1 11.182-15.203zm109.52 0A18.008 31.236 31.906 0 1 322 398.347a18.008 31.236 31.906 0 1-45 25.98a18.008 31.236 31.906 0 1 33.818-41.183z"></path></symbol>
<symbol viewBox="0 0 512 512" id="game-icons-poison-cloud"><path fill="currentColor" d="M256 106c-33.81 0-61.887 22.69-71.25 53.438C174.532 154.22 163.258 151 151 151c-41.42 0-75 33.58-75 75c0 1.784.346 3.405.468 5.157C41.284 243.387 16 276.65 16 316c0 49.706 40.294 90 90 90h300c49.706 0 90-40.294 90-90c0-39.35-25.284-72.614-60.468-84.843c.123-1.752.468-3.374.468-5.157c0-41.42-33.58-75-75-75c-12.258 0-23.532 3.222-33.75 8.437C317.887 128.69 289.81 106 256 106m-60 90l60 60l60-60l30 30l-60 60l60 60l-30 30l-60-60l-60 60l-30-30l60-60l-60-60z"></path></symbol>
<symbol viewBox="0 0 512 512" id="game-icons-radioactive"><path fill="currentColor" d="M253.78 17.188c-130.728 0-236.905 106.177-236.905 236.906C16.875 384.824 123.052 491 253.78 491c130.73 0 236.907-106.18 236.907-236.906c0-130.73-106.177-236.906-236.906-236.906zm0 18.687c120.63 0 218.22 97.59 218.22 218.22c0 120.626-97.59 218.218-218.22 218.218c-120.628 0-218.218-97.59-218.218-218.22s97.59-218.218 218.22-218.218zm101.19 46.313l-76.41 132.875c15.916 9.635 25.177 26.33 26.125 43.78h148.407c1.644-70.01-33.49-138.867-98.125-176.656zm-205.126 2.468c-27.1 16.725-50.68 40.147-67.72 69.656c-19.01 32.928-26.926 69.12-26 104.532H196a54.04 54.04 0 0 1 7.188-24.438c5.21-9.024 12.64-16 21.218-20.625zm100.594 141.156a36.723 36.723 0 0 0-2.594.094c-11.446.793-22.288 7.084-28.5 17.844c-9.94 17.216-4.09 38.967 13.125 48.906c17.213 9.94 38.935 4.12 48.874-13.094c9.94-17.215 4.12-38.967-13.094-48.906c-5.648-3.26-11.768-4.824-17.813-4.844zm28.218 82.375c-16.127 9.75-36.864 10.846-54.406 1.25l-68.03 117.22c29.454 16.785 61.044 25.177 92.75 26c34.567.898 68.72-7.786 99.124-24.032z"></path></symbol>
<symbol viewBox="0 0 512 512" id="game-icons-shrug"><path fill="currentColor" d="M256 29c-11.642 0-22.985 7.432-32.006 21.607C214.974 64.783 209 85.247 209 108s5.973 43.217 14.994 57.393C233.014 179.568 244.358 187 256 187s22.985-7.432 32.006-21.607C297.026 151.217 303 130.753 303 108s-5.973-43.217-14.994-57.393C278.986 36.432 267.642 29 256 29m-80 131c-32 0-48 144-48 144c0-16-16-64-32-96c-16 0-76.002 16-76 26v22l60-16s32 128 48 128s48-112 48-112l16 234h128l16-234s32 112 48 112s48-128 48-128l60 16v-22c.027-10-60-26-76-26c-16 32-32 80-32 96c0 0-16-144-48-144c0 0-10.902.02-25.727 1.74c-2.092 4.725-4.453 9.187-7.082 13.317C291.945 192.73 275.287 205 256 205c-19.286 0-35.944-12.27-47.19-29.943c-2.63-4.13-4.99-8.592-7.083-13.317C186.902 160.02 176 160 176 160"></path></symbol>
<symbol viewBox="0 0 512 512" id="game-icons-skull-crossed-bones"><path fill="currentColor" d="M425.344 22.22c-9.027.085-18.7 5.826-24.344 19.405c-11.143 26.803-31.93 59.156-58.563 93.47a141.233 141.233 0 0 1 27.5 30.31c35.1-26.57 68.882-46.81 98.125-56.75c44.6-15.16 12.02-69.72-35.343-35.343c26.91-27.842 11.107-51.27-7.376-51.093zm-341.22.03c-18.5.378-37.604 23.962-16.343 49.875C31.523 38.635-.802 85.48 37.095 102.813c28.085 12.844 62.54 35.66 99.062 64.343c8.125-12.5 18.207-23.61 29.78-32.937c-26.782-35.743-48.44-69.835-61.78-98.47c-4.515-9.69-12.22-13.66-20.03-13.5zm169.5 99.688c-67.104 0-121.31 54.21-121.31 121.312c0 44.676 24.04 83.613 59.905 104.656v56.406h18.718v-47.468a120.352 120.352 0 0 0 16.093 4.78v42.688h18.69v-40.03a123.913 123.913 0 0 0 15.749 0v40.03h18.686v-42.687a120.573 120.573 0 0 0 16.094-4.78v47.467h18.688V347.97c35.92-21.03 60-60.003 60-104.72c0-67.105-54.208-121.313-121.313-121.313zm-66.874 88.218c19.88 0 36 16.12 36 36s-16.12 36-36 36s-36-16.12-36-36s16.12-36 36-36m133.563 0c19.878 0 36 16.12 36 36s-16.122 36-36 36c-19.88 0-36-16.12-36-36s16.12-36 36-36m-66.72 52.344l29.938 48.188h-59.874l29.938-48.188zm-107.28 70.563c-40.263 32.472-78.546 58.41-109.22 72.437c-37.896 17.334-5.57 64.146 30.688 30.656c-30.237 36.854 21.167 69.05 36.376 36.406c15.072-32.352 40.727-71.7 72.438-112.5a140.972 140.972 0 0 1-30.28-27zm213.156 1.718a141.025 141.025 0 0 1-27.908 24.69c31.846 39.39 56.82 76.862 69.438 107.217c17.203 41.383 71.774 9.722 31.72-31.718c47.363 34.376 79.94-20.185 35.342-35.345c-32.146-10.926-69.758-34.3-108.593-64.844z"></path></symbol>
<symbol viewBox="0 0 512 512" id="game-icons-smitten"><path fill="currentColor" d="M256.563 20.53c-48.747 0-93.132 25.712-125.844 68.44c-32.714 42.726-53.282 102.36-53.282 168.405s20.568 125.648 53.28 168.375c32.713 42.727 77.098 68.438 125.845 68.438c48.746 0 93.13-25.71 125.843-68.438c32.713-42.727 53.28-102.33 53.28-168.375c.002-66.045-20.567-125.68-53.28-168.406c-32.712-42.728-77.097-68.44-125.844-68.44zm-54.97 148.657c14.85-.292 29.283 8.698 33.845 28.188c9.805 41.902-43.157 82.06-43.157 107.656c-11.71-20.28-81.58-31.536-91-71.686c-9.28-39.562 34.006-62.027 62.907-33.125c5.326-19.873 21.6-30.72 37.407-31.032zm106.532 0c16.245-.337 33.326 10.558 38.813 31.032c28.9-28.903 72.218-6.438 62.937 33.124c-9.42 40.15-79.288 51.405-91 71.687c0-25.595-52.993-65.753-43.188-107.655c4.415-18.862 18.104-27.89 32.438-28.188M258.03 350.595c34.49 0 68.985 7.503 99.283 22.53l6.468 3.22l-1.467 7.062s-3.773 17.89-18.813 35.094s-41.975 34.063-85.47 34.063c-43.492 0-70.427-16.86-85.467-34.063c-15.04-17.204-18.813-35.094-18.813-35.094l-1.47-7.062l6.47-3.22c2.803-1.39 5.66-2.675 8.53-3.937v-.375h.814c27.954-12.135 58.942-18.218 89.937-18.218zm-72.56 54.25c.38.46.75.912 1.155 1.375c11.94 13.657 32.584 27.655 71.406 27.655c38.823 0 59.466-13.998 71.408-27.656c.404-.464.773-.917 1.156-1.376H185.47z"></path></symbol>
<symbol viewBox="0 0 512 512" id="game-icons-star-struck"><path fill="currentColor" d="M256.1 19.16c-48.8 0-93.2 25.72-125.9 68.45C97.47 130.3 76.87 189.9 76.87 256c0 66 20.6 125.6 53.33 168.4c32.7 42.7 77.1 68.4 125.9 68.4c48.7 0 93.1-25.7 125.8-68.4c32.7-42.8 53.2-102.4 53.2-168.4c0-66.1-20.5-125.7-53.2-168.39c-32.8-42.73-77.1-68.45-125.8-68.45M149.6 162.2l36 42.7L240 192l-29.5 47.4l29.1 47.7l-54.3-13.4l-36.3 42.4l-4.1-55.7l-51.51-21.5l51.71-21zm212.7 0l4.5 55.7l51.8 21l-51.6 21.5l-4 55.7l-36.4-42.4l-54.2 13.4l29.1-47.7L272 192l54.3 12.9zm-104.8 187c34.5 0 69 7.5 99.3 22.5l6.5 3.2l-1.5 7.1s-3.8 17.9-18.8 35.1c-15 17.2-42 34.1-85.5 34.1s-70.4-16.9-85.4-34.1C157 399.9 153.3 382 153.3 382l-1.5-7.1l6.5-3.2c2.8-1.4 5.6-2.6 8.5-3.9v-.4h.8c27.9-12.1 58.9-18.2 89.9-18.2M185 403.4c.3.5.7 1 1.1 1.4c12 13.7 32.6 27.7 71.4 27.7c38.9 0 59.5-14 71.4-27.7c.4-.4.7-.9 1.2-1.4z"></path></symbol>
<symbol viewBox="0 0 512 512" id="game-icons-stomach"><path fill="currentColor" d="M153.063 21.74a19.46 28.32 83.178 0 1-23.98 13.947a19.46 28.32 83.178 0 1-27.68-9.18c-1.236 5.62-1.713 12.016-1.163 19.15c3.247 42.106-10.16 118.603 107.54 132.268c-41.45 32.308-27.99 64.745-18.467 97.258c-33.296-1.63-53.61 23.1-62.577 45.982c-97.49-13.226-79.727 121.682-78.574 148.143c1.086 24.9 52.413 28.33 54.285 6.39c3.667-42.972-10.243-104.27 29.207-94.132c22.28 5.724 62.243 53.447 161.366 51.377c140.028-2.926 263.475-321.36 81.64-351.272c-63.3-10.412-148.19 37.224-148.19 37.224c-67.307 6.347-67.29-24.454-70.937-82.172c-.357-5.654-1.216-10.638-2.47-14.983M137.59 350.176h254.305c-16.912 28.374-52.22 66.58-114.563 65.668c-58.09-.85-103.54-18.614-139.742-65.668"></path></symbol>
<symbol viewBox="0 0 512 512" id="game-icons-thumb-down"><path fill="currentColor" d="M283.195 35.116c24.564.196 57.187 6.155 86.344 17.69c13.42 5.31 24.168 9.772 30.624 14.062c6.456 4.29 8.202 6.845 8.266 11.725c.052 3.996-.285 6.73-2.256 9.89c-1.972 3.162-6.117 7.236-15.42 11.72l-26.506 12.78l29.12 4.235c28.602 4.157 33.414 21.214 33.6 23.85c.69 9.877-2.582 16.77-15.882 22.27l-23.953 9.91l24.94 7.068c14.348 4.065 24.492 16.475 24.49 24.726c0 7.6-7.05 18.704-24.22 24.037l-27.63 8.583l27.625 8.606c10.35 3.222 18.282 5.945 22.32 8.792c4.038 2.847 5.318 4.47 5.107 11.64c-.297 10.136-5.695 15.012-15.656 19.5c-9.962 4.49-23.656 6.725-34.927 8.305c-35.802 5.02-71.025 6.965-105.87.084l-20.33-4.015l10.947 17.598c25.885 41.614 54.194 90.91 59.11 130.426l.044.352l.072.348c5.128 24.97-6.35 36.185-16.972 37.46c-5.31.64-11.003-1.04-16.315-6.722c-5.313-5.68-10.128-15.727-11.436-31.537l-.12-1.448l-.57-1.336c-7.724-18.123-25.866-39.642-46.338-61.158c-20.097-21.123-42.306-41.512-58.814-55.33c-35.53-49.788-45.97-71.5-53.832-85.07c-3.957-6.827-7.77-12.2-13.52-16.87c-5.75-4.67-12.805-8.494-24.096-14.304l-.02-.01l-.02-.01c-3.508-1.783-10.932-13.615-14.72-31.09c-3.786-17.476-5.158-39.717-3.44-60.715c1.72-21 6.696-40.814 14.187-53.263c3.746-6.224 7.978-10.502 12.393-12.85c4.243-2.255 8.787-3.025 14.914-1.767c10.302 4.843 19.693 9.668 30.178 12.615c10.865 3.054 22.944 3.76 36.7.153l.583-.153l.56-.23c28.5-11.733 71.544-20.78 100.737-20.55z"></path></symbol>
<symbol viewBox="0 0 512 512" id="game-icons-thumb-up"><path fill="currentColor" d="M302.344 28.514c-2.386 1.354-4.334 3.497-6.273 7.182c-2.335 4.438-4.28 10.836-5.94 18.29c-3.316 14.91-5.51 33.828-12.098 51.26l-.54 1.43l-.982 1.17c-53.308 63.59-92.07 98.36-119.014 148.817l-2.46 4.605l-5.22.15s-10.63.322-22.607 2.46c-11.978 2.137-43.225 3.316-46.132 7.017c-13.33 16.97-23.48 45.76-25.072 70.46c-1.592 24.697 3.872 48.986 16.676 65.568c.858 1.11 29.53 4.57 38.22 5.302c8.693.73 16.52.162 16.52.162l6.08-.457l2.678 5.48c14.83 30.325 61.456 50.595 110.937 66.056c4.384.248 11.962-1.82 20.852-6.295c-19.818-7.57-35.37-14.03-52.5-23.087l-4.423-2.338l-.347-4.99c-.896-12.814 5.672-23.273 13.61-30.256c2.54-2.237 5.24-4.216 7.985-6.038c-1.54-.685-3.074-1.38-4.62-2.053l-4.698-2.05l-.635-5.086c-1.752-14.04 2.566-27.897 11.664-37.728c1.852-2 3.932-3.81 6.19-5.405l-.23-.1l-.438-5.31c-1.313-15.828 8.72-29.44 20.295-39.02a87.214 87.214 0 0 1 6.623-4.985l-.91-2.148c-4.49-10.608-2.336-21.785 3.01-29.815c5.35-8.03 13.357-13.657 21.92-16.79l.232-.086l.236-.073c16.656-5.078 32.616-1.007 47.756 3.03c15.14 4.036 29.842 8.22 45.14 6.923c9.286 15.502 8.095 12.523 10.49 17.176l-8.966.76c-19.417 1.647-36.48-3.515-51.3-7.467c-14.71-3.92-26.832-6.456-37.616-3.264c-5.132 1.933-10.21 5.715-12.908 9.77c-2.15 3.226-3.06 6.18-2.338 9.75c21.768 9.268 38.374 19.347 57.04 24.798c19.682 5.746 42.49 7.06 79.325-3.035c5.858-2.842 11.615-7.678 15.014-12.946c3.503-5.427 4.637-10.646 2.87-16c-6.415-19.43-15.202-36.684-33.028-48.515c-40.155-16.703-65.958-16.832-101.275-13.336c-.627-5.215-.437-10.644.022-18.09c2.066-15.153 8.845-33.844 16.745-55.096c9.792-26.342 21.692-55.157 30.416-78.892c-2.042-19.79-7.618-30.87-15.044-37.3c-7.295-6.315-17.56-9.054-30.932-9.564zm-14.53 290.698c-4.52 1.1-10.952 3.76-16.513 8.363c-6.763 5.6-11.67 12.988-13.268 18.99c24.578 11.48 43.09 22.944 74.63 33.086l66.92-3.794c11.996-4.2 19.78-8.523 24.07-12.197c4.42-3.79 5.292-6.294 5.45-8.77c.265-4.15-3.83-11.11-9.88-18.43c-37.514 9.835-63.92 8.562-86.034 2.105c-16.627-4.855-30.524-12.225-45.375-19.353m-25.398 49.41c-6.38.195-11.287 2.923-15.2 7.15c-4.27 4.616-6.853 11.327-7.09 18.49c23.313 10.374 45.08 21.135 74.69 30.407l56.54-1.095c21.862-.903 27.79-9.79 28.918-17.854c.6-4.28-.493-8.504-2.71-11.72l-67.27 3.815l-1.57-.496c-28.61-9.035-47.056-19.095-66.265-28.698zm-9.96 50.937c-6.14 3.332-12.053 6.753-16.258 10.452c-4.005 3.523-6.404 6.67-7.237 10.69c17.396 8.825 33.933 15.363 57.386 24.162l46.51 1.596c8.015-3.427 12.8-6.69 15.08-9.11c2.44-2.59 2.637-3.797 2.603-5.873c-.035-2.12-1.344-5.413-3-9.437l-35.403.685l-1.385-.427c-22.878-7.07-41.16-14.99-58.295-22.74z"></path></symbol>
<symbol viewBox="0 0 512 512" id="game-icons-turd"><path fill="currentColor" d="M117.834 17.443c42.376 107.05-62.124 114.634 20.678 210.897c-28.655-84.62 51.3-129.568-20.678-210.897m225.922.688c-2.024-.06-4.103.345-6.365 1.25c-5.17 2.064-11.69 7.488-18.13 18.643c-6.44 11.155-9.613 22.672-9.77 31.35c-.156 8.68 2.39 13.3 5.285 14.973c2.895 1.67 8.17 1.564 15.608-2.91c7.437-4.475 15.823-12.98 22.263-24.135c6.44-11.154 7.88-19.51 7.083-25.023c-.8-5.512-3.368-8.892-8.162-11.66c-2.397-1.384-4.648-2.21-6.947-2.43c-.286-.03-.575-.047-.864-.056zm50.674 45.04c-.41.01-.833.028-1.266.06c-5.198.37-11.99 2.385-20.357 7.215c-11.156 6.442-19.662 14.83-24.137 22.266c-4.475 7.438-4.58 12.713-2.908 15.608c1.67 2.895 6.292 5.44 14.97 5.284c8.68-.157 20.195-3.33 31.35-9.77c11.153-6.44 16.58-12.956 18.645-18.13c2.065-5.172 1.528-9.384-1.24-14.177c-2.767-4.793-6.146-7.364-11.657-8.162a20.557 20.557 0 0 0-3.4-.193zm42.797 9.816c-35.587 150.27 34.9 124.747 10.625 263.5c57.687-113.445-1.726-153.902-10.625-263.5M311.852 101.52c-6.42-.166-12.73 3.096-16.166 9.05c-5 8.66-2.034 19.733 6.627 24.733c8.66 5 19.732 2.033 24.732-6.627s2.033-19.733-6.627-24.733a18.041 18.041 0 0 0-8.566-2.422zm-84.47 18.8c-58.445 21.166-65.416 76.894-51.294 117.698c10.148 12.91 56.414 25.582 56.414 25.582s-48.184-7.06-63.832-7.315v-.002l.027-.08c-38.84 4.528-68.547 27.707-68.547 55.518c0 7.123 1.957 13.93 5.51 20.19c11.354 13.146 82.012 29.77 82.012 29.77s-71.235-10.798-88.484-11.4c-45.124 6.186-79.426 35.19-79.426 69.91c0 39.206 43.726 70.87 97.394 70.87h275.508c53.67 0 97.014-31.664 97.014-70.87c0-39.203-43.344-71.147-97.014-71.147h-1.607c12.914-9.91 20.763-22.974 20.763-37.322c0-29.684-33.554-54.095-76.207-56.17c28.615-95.79-135.14-67.4-108.232-135.23zM60.54 148.885c-87.533 77.6 24.97 64.76-4.636 186.05c59.073-112.215-31.264-111.346 4.635-186.05z"></path></symbol>
<symbol viewBox="0 0 512 512" id="game-icons-unlit-bomb"><path fill="currentColor" d="M135.25 38.156c-16.082.46-32.345 7.235-46.47 17.407c-17.216 12.4-31.534 30.2-37.31 50.687c-5.78 20.488-1.95 44.032 16.155 63.406c14.573 15.595 19.996 29.328 20.563 40.5c.566 11.173-3.554 20.304-10.376 27.406c-13.643 14.206-37.278 17.995-50.5 6.094l-12.5 13.906c22.224 20.005 56.61 13.645 76.47-7.03c9.93-10.34 16.43-24.836 15.593-41.313c-.836-16.478-8.83-34.407-25.594-52.345C67.18 141.782 65.16 126.6 69.47 111.312C73.78 96.025 85.484 80.97 99.72 70.72c14.233-10.253 30.704-15.365 43.218-13.44c9.566 1.474 17.565 6.055 23.062 17.44l15.938-9.19c-8.362-15.432-21.594-24.476-36.157-26.718a57.443 57.443 0 0 0-7.31-.656a61.727 61.727 0 0 0-3.22 0zM243.5 51.563l-120.125 69.374l24.906 43.157c15.03-18.11 33.446-33.898 55-46.344c20.615-11.903 42.444-19.803 64.595-23.938zm60.03 57.406c-1.026.01-2.065.034-3.092.06c-29.894.803-60.05 8.877-87.813 24.907c-88.84 51.298-119.255 164.55-68.03 253.282c51.222 88.73 164.505 119.013 253.343 67.717c88.837-51.295 119.223-164.55 68-253.28c-34.666-60.05-97.713-93.346-162.407-92.688z"></path></symbol>

</defs>
</svg>