<svg xmlns="http://www.w3.org/2000/svg" xmlns:xlink="http://www.w3.org/1999/xlink">
<defs>
<symbol viewBox="0 0 512 512" id="game-icons-laurels-trophy"><path fill="currentColor" d="M137.273 41c1.41 59.526 16.381 119.035 35.125 167.77c19.69 51.191 44.086 90.988 57.965 104.867l2.637 2.636V343h46v-26.727l2.637-2.636c13.879-13.88 38.275-53.676 57.965-104.867c18.744-48.735 33.715-108.244 35.125-167.77zm-50.605 68.295c-17.97 6.05-32.296 18.214-37.625 30.367c-3.015 6.875-3.48 13.44-.988 20.129c.285.766.62 1.54.996 2.318a119.032 119.032 0 0 1 8.504-4.812l6.277-3.215l4.621 5.326c5.137 5.92 9.61 12.37 13.422 19.125c2.573-3.06 5.207-7.864 7.05-14.037c4.491-15.034 4.322-36.95-2.257-55.201m338.664 0c-6.58 18.25-6.748 40.167-2.258 55.201c1.844 6.173 4.478 10.977 7.051 14.037c3.813-6.756 8.285-13.205 13.422-19.125l4.621-5.326l6.277 3.215a119.033 119.033 0 0 1 8.504 4.812c.375-.779.71-1.552.996-2.318c2.492-6.689 2.027-13.254-.988-20.129c-5.329-12.153-19.655-24.317-37.625-30.367m-365.975 67.74c-20.251 12.486-34.121 31.475-36.746 47.973c-1.447 9.1.09 17.224 5.323 24.545c1.66 2.324 3.743 4.594 6.304 6.76a116.606 116.606 0 0 1 11.44-14.977l4.72-5.24l6.217 3.33c7.91 4.236 15.262 9.424 21.94 15.252c.973-3.633 1.619-7.892 1.773-12.616c.636-19.438-6.762-45.536-20.97-65.027zm393.286 0c-14.21 19.49-21.607 45.59-20.971 65.027c.154 4.724.8 8.983 1.773 12.616c6.678-5.828 14.03-11.016 21.94-15.252l6.217-3.33l4.72 5.24a116.606 116.606 0 0 1 11.44 14.976c2.56-2.165 4.643-4.435 6.304-6.76c5.233-7.32 6.77-15.444 5.323-24.544c-2.625-16.498-16.495-35.487-36.746-47.973M54.4 259.133c-14.394 18.806-20.496 41.413-17.004 57.748c1.928 9.014 6.298 16.078 13.844 21.078c4.944 3.276 11.48 5.7 19.94 6.645a120.631 120.631 0 0 1 7.101-17.852l3.125-6.338l6.9 1.535c4.095.911 8.133 2.046 12.094 3.377c-.373-3.838-1.309-8.185-2.925-12.82c-6.416-18.396-22.749-40.184-43.075-53.373m403.2 0c-20.326 13.189-36.66 34.977-43.075 53.373c-1.616 4.635-2.552 8.982-2.925 12.82a119.337 119.337 0 0 1 12.093-3.377l6.9-1.535l3.126 6.338a120.63 120.63 0 0 1 7.101 17.852c8.46-.944 14.996-3.37 19.94-6.645c7.546-5 11.916-12.065 13.844-21.078c3.492-16.335-2.61-38.942-17.004-57.748M91.5 341.527c-9.285 23.14-9.027 47.85-.709 63.54c4.57 8.619 11.106 14.607 20.268 17.562c4.586 1.479 9.957 2.19 16.185 1.803c-2.135-11.155-2.771-22.97-1.756-34.938l.602-7.074l7.02-1.065a129.43 129.43 0 0 1 13.458-1.312c.554-.025 1.107-.04 1.66-.059c-12.419-15.776-33.883-31.43-56.728-38.457m329 0c-22.845 7.027-44.31 22.68-56.729 38.457c.554.019 1.107.034 1.66.059c4.5.206 8.995.637 13.46 1.312l7.02 1.065l.6 7.074c1.016 11.967.38 23.783-1.755 34.938c6.228.386 11.6-.324 16.185-1.803c9.162-2.955 15.699-8.943 20.268-17.563c8.318-15.69 8.576-40.4-.709-63.539M199.729 361c-1.943 7.383-6.045 14.043-11.366 19.363a46.544 46.544 0 0 1-3.484 3.125c14.804 3.295 28.659 8.692 40.404 15.46c2.384-5.36 5.376-10.345 9.408-14.534C239.96 378.942 247.51 375 256 375c8.491 0 16.041 3.942 21.309 9.414c4.032 4.19 7.024 9.175 9.408 14.533c11.815-6.808 25.766-12.23 40.67-15.52a48.107 48.107 0 0 1-3.739-3.413c-5.227-5.333-9.27-11.852-11.261-19.014zM256 393c-3.434 0-5.635 1.084-8.34 3.895c-2.704 2.81-5.395 7.52-7.527 13.298c-4.265 11.556-6.343 27-7.156 38.446c-1.07 15.043 3 33.368 12.285 40.06c4.733 3.412 16.743 3.412 21.476 0c9.285-6.692 13.355-25.017 12.285-40.06c-.813-11.446-2.891-26.89-7.156-38.446c-2.132-5.777-4.823-10.488-7.527-13.298c-2.705-2.81-4.906-3.895-8.34-3.895m-103.521 4.979c-1.714-.008-3.424.022-5.127.09c-1.405.055-2.77.281-4.164.39c-.418 27.817 9.816 53.543 24.994 66.644c8.264 7.134 17.586 10.772 28.35 10.157c5.908-.338 12.394-2.03 19.374-5.52c-1.27-7.665-1.377-15.42-.883-22.379c.632-8.89 1.852-19.962 4.479-30.877c-17.16-10.686-42.426-18.395-67.023-18.506zm207.042 0c-24.597.11-49.863 7.82-67.023 18.505c2.627 10.915 3.847 21.987 4.479 30.877c.494 6.958.387 14.714-.883 22.38c6.98 3.49 13.466 5.181 19.375 5.519c10.763.615 20.085-3.023 28.35-10.156c15.177-13.102 25.411-38.828 24.993-66.645c-1.393-.109-2.76-.335-4.164-.39a116.32 116.32 0 0 0-5.127-.09"></path></symbol>
<symbol viewBox="0 0 512 512" id="game-icons-skull-crossed-bones"><path fill="currentColor" d="M425.344 22.22c-9.027.085-18.7 5.826-24.344 19.405c-11.143 26.803-31.93 59.156-58.563 93.47a141.233 141.233 0 0 1 27.5 30.31c35.1-26.57 68.882-46.81 98.125-56.75c44.6-15.16 12.02-69.72-35.343-35.343c26.91-27.842 11.107-51.27-7.376-51.093zm-341.22.03c-18.5.378-37.604 23.962-16.343 49.875C31.523 38.635-.802 85.48 37.095 102.813c28.085 12.844 62.54 35.66 99.062 64.343c8.125-12.5 18.207-23.61 29.78-32.937c-26.782-35.743-48.44-69.835-61.78-98.47c-4.515-9.69-12.22-13.66-20.03-13.5zm169.5 99.688c-67.104 0-121.31 54.21-121.31 121.312c0 44.676 24.04 83.613 59.905 104.656v56.406h18.718v-47.468a120.352 120.352 0 0 0 16.093 4.78v42.688h18.69v-40.03a123.913 123.913 0 0 0 15.749 0v40.03h18.686v-42.687a120.573 120.573 0 0 0 16.094-4.78v47.467h18.688V347.97c35.92-21.03 60-60.003 60-104.72c0-67.105-54.208-121.313-121.313-121.313zm-66.874 88.218c19.88 0 36 16.12 36 36s-16.12 36-36 36s-36-16.12-36-36s16.12-36 36-36m133.563 0c19.878 0 36 16.12 36 36s-16.122 36-36 36c-19.88 0-36-16.12-36-36s16.12-36 36-36m-66.72 52.344l29.938 48.188h-59.874l29.938-48.188zm-107.28 70.563c-40.263 32.472-78.546 58.41-109.22 72.437c-37.896 17.334-5.57 64.146 30.688 30.656c-30.237 36.854 21.167 69.05 36.376 36.406c15.072-32.352 40.727-71.7 72.438-112.5a140.972 140.972 0 0 1-30.28-27zm213.156 1.718a141.025 141.025 0 0 1-27.908 24.69c31.846 39.39 56.82 76.862 69.438 107.217c17.203 41.383 71.774 9.722 31.72-31.718c47.363 34.376 79.94-20.185 35.342-35.345c-32.146-10.926-69.758-34.3-108.593-64.844z"></path></symbol>
<symbol viewBox="0 0 512 512" id="game-icons-thumb-down"><path fill="currentColor" d="M283.195 35.116c24.564.196 57.187 6.155 86.344 17.69c13.42 5.31 24.168 9.772 30.624 14.062c6.456 4.29 8.202 6.845 8.266 11.725c.052 3.996-.285 6.73-2.256 9.89c-1.972 3.162-6.117 7.236-15.42 11.72l-26.506 12.78l29.12 4.235c28.602 4.157 33.414 21.214 33.6 23.85c.69 9.877-2.582 16.77-15.882 22.27l-23.953 9.91l24.94 7.068c14.348 4.065 24.492 16.475 24.49 24.726c0 7.6-7.05 18.704-24.22 24.037l-27.63 8.583l27.625 8.606c10.35 3.222 18.282 5.945 22.32 8.792c4.038 2.847 5.318 4.47 5.107 11.64c-.297 10.136-5.695 15.012-15.656 19.5c-9.962 4.49-23.656 6.725-34.927 8.305c-35.802 5.02-71.025 6.965-105.87.084l-20.33-4.015l10.947 17.598c25.885 41.614 54.194 90.91 59.11 130.426l.044.352l.072.348c5.128 24.97-6.35 36.185-16.972 37.46c-5.31.64-11.003-1.04-16.315-6.722c-5.313-5.68-10.128-15.727-11.436-31.537l-.12-1.448l-.57-1.336c-7.724-18.123-25.866-39.642-46.338-61.158c-20.097-21.123-42.306-41.512-58.814-55.33c-35.53-49.788-45.97-71.5-53.832-85.07c-3.957-6.827-7.77-12.2-13.52-16.87c-5.75-4.67-12.805-8.494-24.096-14.304l-.02-.01l-.02-.01c-3.508-1.783-10.932-13.615-14.72-31.09c-3.786-17.476-5.158-39.717-3.44-60.715c1.72-21 6.696-40.814 14.187-53.263c3.746-6.224 7.978-10.502 12.393-12.85c4.243-2.255 8.787-3.025 14.914-1.767c10.302 4.843 19.693 9.668 30.178 12.615c10.865 3.054 22.944 3.76 36.7.153l.583-.153l.56-.23c28.5-11.733 71.544-20.78 100.737-20.55z"></path></symbol>
<symbol viewBox="0 0 512 512" id="game-icons-thumb-up"><path fill="currentColor" d="M302.344 28.514c-2.386 1.354-4.334 3.497-6.273 7.182c-2.335 4.438-4.28 10.836-5.94 18.29c-3.316 14.91-5.51 33.828-12.098 51.26l-.54 1.43l-.982 1.17c-53.308 63.59-92.07 98.36-119.014 148.817l-2.46 4.605l-5.22.15s-10.63.322-22.607 2.46c-11.978 2.137-43.225 3.316-46.132 7.017c-13.33 16.97-23.48 45.76-25.072 70.46c-1.592 24.697 3.872 48.986 16.676 65.568c.858 1.11 29.53 4.57 38.22 5.302c8.693.73 16.52.162 16.52.162l6.08-.457l2.678 5.48c14.83 30.325 61.456 50.595 110.937 66.056c4.384.248 11.962-1.82 20.852-6.295c-19.818-7.57-35.37-14.03-52.5-23.087l-4.423-2.338l-.347-4.99c-.896-12.814 5.672-23.273 13.61-30.256c2.54-2.237 5.24-4.216 7.985-6.038c-1.54-.685-3.074-1.38-4.62-2.053l-4.698-2.05l-.635-5.086c-1.752-14.04 2.566-27.897 11.664-37.728c1.852-2 3.932-3.81 6.19-5.405l-.23-.1l-.438-5.31c-1.313-15.828 8.72-29.44 20.295-39.02a87.214 87.214 0 0 1 6.623-4.985l-.91-2.148c-4.49-10.608-2.336-21.785 3.01-29.815c5.35-8.03 13.357-13.657 21.92-16.79l.232-.086l.236-.073c16.656-5.078 32.616-1.007 47.756 3.03c15.14 4.036 29.842 8.22 45.14 6.923c9.286 15.502 8.095 12.523 10.49 17.176l-8.966.76c-19.417 1.647-36.48-3.515-51.3-7.467c-14.71-3.92-26.832-6.456-37.616-3.264c-5.132 1.933-10.21 5.715-12.908 9.77c-2.15 3.226-3.06 6.18-2.338 9.75c21.768 9.268 38.374 19.347 57.04 24.798c19.682 5.746 42.49 7.06 79.325-3.035c5.858-2.842 11.615-7.678 15.014-12.946c3.503-5.427 4.637-10.646 2.87-16c-6.415-19.43-15.202-36.684-33.028-48.515c-40.155-16.703-65.958-16.832-101.275-13.336c-.627-5.215-.437-10.644.022-18.09c2.066-15.153 8.845-33.844 16.745-55.096c9.792-26.342 21.692-55.157 30.416-78.892c-2.042-19.79-7.618-30.87-15.044-37.3c-7.295-6.315-17.56-9.054-30.932-9.564zm-14.53 290.698c-4.52 1.1-10.952 3.76-16.513 8.363c-6.763 5.6-11.67 12.988-13.268 18.99c24.578 11.48 43.09 22.944 74.63 33.086l66.92-3.794c11.996-4.2 19.78-8.523 24.07-12.197c4.42-3.79 5.292-6.294 5.45-8.77c.265-4.15-3.83-11.11-9.88-18.43c-37.514 9.835-63.92 8.562-86.034 2.105c-16.627-4.855-30.524-12.225-45.375-19.353m-25.398 49.41c-6.38.195-11.287 2.923-15.2 7.15c-4.27 4.616-6.853 11.327-7.09 18.49c23.313 10.374 45.08 21.135 74.69 30.407l56.54-1.095c21.862-.903 27.79-9.79 28.918-17.854c.6-4.28-.493-8.504-2.71-11.72l-67.27 3.815l-1.57-.496c-28.61-9.035-47.056-19.095-66.265-28.698zm-9.96 50.937c-6.14 3.332-12.053 6.753-16.258 10.452c-4.005 3.523-6.404 6.67-7.237 10.69c17.396 8.825 33.933 15.363 57.386 24.162l46.51 1.596c8.015-3.427 12.8-6.69 15.08-9.11c2.44-2.59 2.637-3.797 2.603-5.873c-.035-2.12-1.344-5.413-3-9.437l-35.403.685l-1.385-.427c-22.878-7.07-41.16-14.99-58.295-22.74z"></path></symbol>
</defs>
</svg>