<?xml version="1.0" encoding="UTF-8"?>
<svg width="128pt" height="128pt" version="1.1" viewBox="0 0 128 128" xmlns="http://www.w3.org/2000/svg">
 <path d="m64 15.617-41.855 24.191v48.383l41.855 24.191 41.855-24.191v-48.383zm-22.91 32.254 22.91-27.391 21.762 27.391zm45.055 2.5625-22.145 39.68-23.297-39.68zm-24.578 40.445-35.457-5.7617 12.543-33.152zm26.625-38.781 13.695 33.152-35.457 5.7617zm0.38281-4.6094-21.246-27.008 34.559 19.969zm-50.43 0-12.031-7.0391 34.305-19.84zm-1.2812 2.1758-12.16 32v-39.039zm25.855 44.031v14.977l-35.965-20.734zm2.5625 0 35.969-5.7617-35.969 20.738zm24.703-44.031 13.441-7.168v39.551z"/>
</svg>
