<?xml version="1.0" encoding="UTF-8"?>
<svg width="512pt" height="512pt" version="1.1" viewBox="0 0 512 512" xmlns="http://www.w3.org/2000/svg">
 <path d="m413.7 156.06-153.6-80.641h0.003906c-3.6445-1.8945-7.9805-1.8945-11.625 0l-153.6 80.641h0.003906c-4.1367 2.1328-6.7266 6.4062-6.707 11.059v168.04c-0.007813 4.5391 2.4375 8.7305 6.3984 10.957l153.39 85.605c3.7695 2.1172 8.3672 2.1172 12.137 0l153.91-85.605c3.957-2.2266 6.4062-6.418 6.3984-10.957v-168.04c0.019531-4.6523-2.5703-8.9258-6.707-11.059zm-18.277 171.62-2.918 1.5859-123.91 14.797 77.824-125.64 49 107.52zm-282.78 0v-1.9961l49-107.52 77.82 125.9-123.9-14.645zm61.438-117.76h159.9l-79.973 129.18zm175.16-17.254-58.879-73.012 96.973 50.789zm-17.461 2.2539-155.49-0.003906 74.598-92.52 2.9688-1.5859 3.0195 1.5859zm-173.05-2.1523-38.094-22.324 96.973-50.789zm-7.832 12.801-38.246 84.066v-106.5zm95.641 154.42v42.344l-96.512-53.711zm15 0 96.512-11.367-96.508 53.707zm95.543-154.42 38.348-22.426v106.5z"/>
</svg>
