<?xml version="1.0" encoding="UTF-8"?>
<svg width="512pt" height="512pt" version="1.1" viewBox="0 0 512 512" xmlns="http://www.w3.org/2000/svg">
 <g>
  <path d="m366.88 411.51 66.957-55.203 32.059-81.203-22.797-86.008-70.188-57.645h-92.441l-76.355 56.75-10.383 84.234 41.531 59.738-26.473-60.184 18.621-66.078 59.801-43.453h73.922l59.801 43.453 22.848 70.293-18.137 75.117z"/>
  <path d="m41.441 158.61-4.3828 79.562 27.535 85.484 91.125 87.676h152.46l88.055-78.188 12.496-53.047-17.383-48.977-43.551-28.445-58.637-0.003907-35.84 33.695-5.7852 42.387 21.047 47.641 44.801 9.6016 36.055-23.039 4.6133-33.402-25.473-19.59-27.516 5.5195 22.66 3.3008 15.387 14.906-3.1797 21.672-24.945 15.52-30.812-8.0938-15.082-36.305 4.3398-31.801 26.512-24.914h46.777l34.453 22.504 13.762 38.816-11.422 42.461-79.996 51.871-132.45-7.3633-51.145-25.164-33.34-29.805-25.57-77.984 7.2812-75.914 16.559-15.758 0.5625-22.855-15.742-16.555-22.859-0.5625-16.562 15.742-0.55469 22.859zm18.082-11.801-12.707-0.32812-8.75-9.1914 0.3125-12.707 9.207-8.75 12.715 0.32422 8.7461 9.1953-0.32422 12.703z"/>
  <path d="m87.641 243.64 9.2266 65.91 22.75 21.289 42.996 23.328-48.621-47.902-12.109-61.195 52.32-91.887 19.383-5.8867 9.543-17.867-5.8984-19.391-17.867-9.5391-19.395 5.8984-9.5352 17.852 5.8945 19.398zm59.238-108.68-2.8477-9.3906 4.6094-8.6406 9.3945-2.8633 8.6406 4.6172 2.8555 9.3945-4.6133 8.6406-9.3867 2.8516z"/>
  <path d="m408.44 375.17 54.602 18.176h23.266l-5.6992 18.16h-113.73z"/>
 </g>
</svg>
