<?xml version="1.0" encoding="UTF-8"?>
<svg width="512pt" height="512pt" version="1.1" viewBox="0 0 512 512" xmlns="http://www.w3.org/2000/svg">
 <defs>
  <clipPath id="e">
   <path d="m94.781 94.781h167.22v140.22h-167.22z"/>
  </clipPath>
  <clipPath id="d">
   <path d="m94.781 202h108.22v183h-108.22z"/>
  </clipPath>
  <clipPath id="c">
   <path d="m250 94.781h167.22v140.22h-167.22z"/>
  </clipPath>
  <clipPath id="b">
   <path d="m309 202h108.22v183h-108.22z"/>
  </clipPath>
  <clipPath id="a">
   <path d="m159 315h194v102.22h-194z"/>
  </clipPath>
 </defs>
 <g clip-path="url(#e)">
  <path d="m109.03 205.14 49.398 17.965 92.199-66.586v-49.18l-82.844 24.359zm50.242 29.363c-0.625 0-1.2422-0.10547-1.8398-0.32812l-59.113-21.496c-1.6289-0.58594-2.8711-1.9258-3.3359-3.5938-0.46875-1.6641-0.10156-3.457 0.97656-4.8086l64.488-80.609c0.6875-0.85938 1.6211-1.4883 2.6758-1.7969l91.359-26.867c1.625-0.48047 3.3828-0.16797 4.7383 0.84766 1.3555 1.0156 2.1562 2.6055 2.1562 4.3047v59.113c0 1.7266-0.83594 3.3477-2.2305 4.3516l-96.734 69.863c-0.92969 0.67188-2.0312 1.0195-3.1406 1.0195z" fill-rule="evenodd"/>
 </g>
 <g clip-path="url(#d)">
  <path d="m105.53 302.38 58.125 67.812 27.289-50.027-35.742-86.793-49.672-18.062zm59.113 82.598c-1.5586 0-3.0547-0.67969-4.0781-1.8789l-64.488-75.234c-0.83984-0.97266-1.2969-2.2188-1.2969-3.4961v-96.734c0-1.75 0.85547-3.3945 2.2891-4.3984 1.4414-1.0078 3.2695-1.2539 4.9258-0.64844l59.113 21.496c1.418 0.51172 2.5508 1.6016 3.1328 3l37.617 91.359c0.61719 1.5039 0.51953 3.1953-0.25391 4.6211l-32.242 59.113c-0.84375 1.5508-2.4023 2.5859-4.1602 2.7656-0.1875 0.023438-0.37109 0.035156-0.55859 0.035156z" fill-rule="evenodd"/>
 </g>
 <g clip-path="url(#c)">
  <path d="m261.38 156.52 92.195 66.59 49.402-17.965-58.754-73.441-82.844-24.359zm91.359 77.988c-1.1211 0-2.2227-0.35156-3.1445-1.0234l-96.73-69.859c-1.4062-1.0078-2.2305-2.6289-2.2305-4.3555v-59.113c0-1.6992 0.79297-3.293 2.1523-4.3047 1.3555-1.0195 3.1133-1.3281 4.7344-0.84766l91.359 26.867c1.0586 0.30859 1.9922 0.9375 2.6797 1.7969l64.488 80.609c1.082 1.3555 1.4453 3.1445 0.98047 4.8086-0.47656 1.668-1.7109 3.0117-3.3398 3.5977l-59.113 21.496c-0.60156 0.21875-1.2188 0.32812-1.8359 0.32812z" fill-rule="evenodd"/>
 </g>
 <g clip-path="url(#b)">
  <path d="m411.85 304.37h0.050782zm-90.789 15.793 27.289 50.031 58.125-67.812v-87.07l-49.672 18.062zm26.301 64.816c-0.1875 0-0.37109-0.011718-0.55859-0.035156-1.7578-0.17969-3.3164-1.2109-4.1602-2.7656l-32.242-59.113c-0.77734-1.4258-0.87109-3.1211-0.25391-4.6211l37.617-91.359c0.58203-1.3945 1.7148-2.4883 3.1328-2.9961l59.113-21.496c1.6406-0.60938 3.4883-0.36328 4.9219 0.64453 1.4375 1.0039 2.2891 2.6484 2.2891 4.3984v96.734c0 1.2773-0.45703 2.5234-1.293 3.4922l-64.488 75.234c-1.0273 1.2031-2.5195 1.8828-4.0781 1.8828z" fill-rule="evenodd"/>
 </g>
 <g clip-path="url(#a)">
  <path d="m172.38 376.64 83.621 29.508 83.613-29.508-27.691-50.773h-111.85zm83.621 40.582c-0.60938 0-1.2148-0.10156-1.7891-0.30469l-91.359-32.242c-1.4883-0.52734-2.6641-1.6719-3.2305-3.1445-0.5625-1.4727-0.44922-3.1172 0.30078-4.5l32.246-59.113c0.94141-1.7227 2.75-2.8008 4.7188-2.8008h118.23c1.9609 0 3.7734 1.0781 4.7148 2.8008l32.246 59.113c0.75391 1.3828 0.85938 3.0273 0.29688 4.5s-1.7422 2.6172-3.2227 3.1445l-91.359 32.242c-0.58203 0.20313-1.1875 0.30469-1.7891 0.30469z" fill-rule="evenodd"/>
 </g>
 <path d="m200.49 315.11h111.03l34.633-84.105-90.148-65.113-90.148 65.113zm114.62 10.75h-118.23c-2.1758 0-4.1367-1.3125-4.9688-3.3281l-37.621-91.355c-0.94531-2.3008-0.1875-4.9531 1.8281-6.4062l96.73-69.863c1.8789-1.3477 4.4141-1.3477 6.293 0l96.734 69.863c2.0156 1.4531 2.7656 4.1055 1.8203 6.4062l-37.617 91.355c-0.82813 2.0156-2.7969 3.3281-4.9727 3.3281z" fill-rule="evenodd"/>
</svg>
