<?xml version="1.0" encoding="UTF-8"?>
<svg width="512pt" height="512pt" version="1.1" viewBox="0 0 512 512" xmlns="http://www.w3.org/2000/svg">
 <path d="m466.13 260.02c-32.699-33.102-39.07-57.621-48.566-94.219-0.33984-1.3086-0.68359-2.6328-1.0312-3.9727-7.5703-29.078-15.395-52.457-28.59-70.355-13.164-17.859-31.723-30.309-60.801-37.598-16.629-4.168-27.785-7.0234-37.602-11.629-9.8359-4.6172-18.281-10.973-29.449-22.137-7.457-7.4492-14.934-12.543-22.359-15.488-10.516-4.168-20.949-4.0273-31.102-0.19531-10.195 3.8516-20.125 11.434-29.574 22.133-17.273 19.559-32.93 49.488-45.75 86.066-1.9141 5.4648-3.5664 10.5-5.1055 15.191-11.277 34.383-16.52 50.359-79.891 96.512-20.25 14.75-33.617 29.895-40.172 43.465-3.7344 7.7383-5.2461 14.949-4.5469 21.258 0.69531 6.2539 3.5781 11.641 8.6367 15.797 5.3594 4.4023 13.16 7.4336 23.387 8.668 3.918 0.47266 8.1016 0.58203 12.352 0.69531 18.504 0.49219 38.227 1.0117 42.875 30.438 1.4883 9.4336 2.3008 17.871 3.0156 25.355 2.5234 26.359 3.8984 40.738 30.762 45.754 42.844 8 44.977 13.574 60.695 54.641 1.0039 2.6172 2.0508 5.3477 2.3359 6.1016 3.5469 9.2188 8.5586 16.445 14.527 21.812 7.7188 6.9492 17.047 10.801 26.867 11.855 9.8477 1.0586 20.195-0.6875 29.93-4.9219 10.16-4.4219 19.652-11.562 27.215-21.07 6.8008-8.5469 14.699-17.258 27.969-24.551 13.23-7.2695 31.793-13.113 59.918-15.945 61.523-6.1914 78.426-24.805 117.59-67.945 1.7891-1.9727 3.6289-3.9961 5.5781-6.1367 17.285-18.984 18.344-37.91 10.973-56.258-7.4375-18.504-23.43-36.469-40.086-53.336zm-102.54-1.6875c-16.852-17.059-20.129-29.684-25.02-48.523-0.17578-0.67188-0.35156-1.3516-0.53125-2.0391-6.7695-25.984-16.375-45.859-27.246-59.09-7.7188-9.3984-16.066-15.426-24.469-17.902-8.3516-2.457-16.773-1.3945-24.703 3.3867-1.2305 0.74219-2.4531 1.5742-3.6523 2.4961-1.6523 1.6719-3.2812 3.5039-4.8867 5.4961l-0.019532 0.023437c-0.97656 1.1211-1.9805 2.1836-3 3.1797-0.64844 0.85547-1.293 1.7383-1.9336 2.6523l-0.007813 0.011719c-1.5664 2.1484-3.2266 4.0977-4.957 5.8633-6.3086 10.355-14.871 16.477-23.801 20.102-8.8867 3.6094-18.137 4.7383-25.859 5.1211-7.0938 0.35156-13.113 1.9727-17.715 6.6953-4.6328 4.7539-7.8867 12.688-9.4297 25.656-2.75 23.133-9 25.746-23.391 31.773-1.7031 0.71094-3.5195 1.4727-5.3633 2.2773-7.3984 3.2383-11.82 7.4258-13.855 11.789-1.3281 2.8398-1.6484 5.7539-1.125 8.5273 0.52734 2.7891 1.9062 5.457 3.9648 7.7617 3.6953 4.1328 9.5625 7.1055 16.656 7.668 13.43 1.0664 21.422 3.6992 25.684 8.8242 4.2969 5.1719 4.7422 12.734 3.0703 23.648-1.0586 6.9141-0.63281 12.262 1.7773 16.168 2.4023 3.8984 6.8438 6.4297 13.824 7.7305 22.176 4.1445 23.281 7.0273 31.41 28.266 0.63672 1.668 1.0977 2.8672 1.1992 3.1328 1.8008 4.6719 4.3359 8.332 7.3594 11.051 3.9062 3.5156 8.625 5.4648 13.598 5.9961 5 0.53906 10.25-0.34766 15.195-2.5 5.1602-2.2461 9.9883-5.875 13.836-10.711 3.5117-4.418 7.5938-8.918 14.457-12.688 6.8242-3.75 16.391-6.7656 30.879-8.2188 31.449-3.1641 40.094-12.688 60.129-34.758 0.91016-1.0039 1.8438-2.0312 2.8633-3.1523 8.75-9.6094 9.2891-19.191 5.5547-28.469-3.793-9.4336-11.969-18.625-20.492-27.25zm-23.648-48.926c4.8281 18.594 8.0625 31.059 24.629 47.828 8.6328 8.7422 16.93 18.07 20.82 27.754 3.9531 9.8359 3.3906 19.973-5.8516 30.121-0.94141 1.0312-1.9141 2.1016-2.8555 3.1484-20.293 22.352-29.047 31.996-61.023 35.215-14.281 1.4336-23.676 4.3906-30.359 8.0625-6.6406 3.6484-10.605 8.0234-14.023 12.324-3.9922 5.0195-9.0117 8.793-14.383 11.133-5.1602 2.2461-10.645 3.1719-15.875 2.6055-5.2539-0.56641-10.246-2.6289-14.379-6.3477-3.1875-2.8672-5.8633-6.7227-7.7578-11.637-0.9375-2.4375-1.0742-2.793-1.2031-3.1328-7.8672-20.555-8.9375-23.344-30.336-27.344-7.3984-1.3828-12.141-4.1328-14.77-8.3984-2.6289-4.2539-3.1094-9.9492-1.9922-17.246 1.5977-10.453 1.2227-17.641-2.7305-22.398-3.9883-4.8008-11.684-7.2812-24.727-8.3164-7.457-0.58984-13.656-3.75-17.582-8.1367-2.2461-2.5117-3.75-5.4258-4.332-8.5078-0.58203-3.1016-0.23047-6.3477 1.2422-9.5039 2.1875-4.6719 6.8438-9.1211 14.598-12.512 1.9766-0.86328 3.7344-1.6016 5.3867-2.293 13.844-5.793 19.855-8.3086 22.5-30.547 1.5859-13.348 4.9883-21.566 9.8516-26.559 4.8984-5.0273 11.223-6.75 18.641-7.1172 7.6016-0.375 16.691-1.4805 25.414-5.0234 7.1055-2.8828 13.965-7.3867 19.574-14.438-4.6992 3.6992-9.7773 6.3164-14.941 8.1172-8.9492 3.125-18.16 3.8164-26.098 3.5156l-0.0625-0.003906c-8.0508-1.0586-15.113 0.48828-20.727 5.9531-5.6719 5.5234-9.9219 15.055-12.305 29.934-3.5195 24.73-9.5195 27.645-26.992 36.129-1.4531 0.70312-2.9922 1.4531-5.0508 2.4727l-0.015625 0.007813c-8.1367 3.8359-13.035 8.6367-15.316 13.547-1.4727 3.1758-1.8516 6.3945-1.2969 9.4297 0.55469 3.043 2.043 5.9023 4.293 8.3438 3.7656 4.0742 9.6484 6.9648 16.871 7.5703 13.242 1.0781 21.484 3.4688 26.109 8.4609 4.6719 5.0312 5.6016 12.574 4.207 23.906-0.80859 7.793-0.41406 13.801 2.0625 18.172 2.457 4.332 7.0273 7.1211 14.602 8.5352 23.395 4.3672 24.555 7.4102 33.137 29.82 0.66406 1.7305 1.1758 3.0703 1.2656 3.3086 1.9023 4.9414 4.5859 8.8086 7.7812 11.688 4.1289 3.7188 9.1211 5.7773 14.375 6.3438 5.2812 0.56641 10.84-0.36719 16.062-2.6445 5.457-2.375 10.555-6.2109 14.621-11.32 3.707-4.6602 8.0156-9.4062 15.254-13.387 7.2031-3.9609 17.297-7.1367 32.586-8.6797 33.215-3.3398 42.348-13.398 63.508-36.711 0.96094-1.0586 1.9492-2.1445 3.0234-3.3242 9.2539-10.164 9.8242-20.289 5.875-30.105-4.0078-9.9688-12.645-19.672-21.648-28.785-17.781-18-21.246-31.328-26.406-51.211-0.18359-0.71094-0.36719-1.4258-0.55859-2.1523-8.8945-34.156-22.559-57.797-37.664-69.734-5.1367-4.0625-10.438-6.7617-15.766-8.0586-5.3125-1.2891-10.656-1.1875-15.906 0.35937-1.457 0.42969-2.9102 0.96875-4.3477 1.6211 5.8203-1.7266 11.793-1.6836 17.734 0.0625 8.6719 2.5508 17.258 8.7383 25.164 18.363 11.004 13.395 20.719 33.473 27.543 59.684 0.17969 0.6875 0.35547 1.3672 0.53125 2.0391zm-97.887-56.488c0.38672-0.63281 0.77344-1.2539 1.168-1.8594-4.1055 2.875-8.418 5.0156-12.797 6.5547-9.9062 3.4883-20.145 3.8984-29.145 2.8164l-0.097656-0.023437c-0.60156-0.16406-1.207-0.3125-1.8125-0.44531-8.0391-1.7461-15.305-0.22656-21.383 5.1562-6.1406 5.4414-11.102 14.82-14.469 28.742-0.46094 1.9023-0.89062 3.8984-1.293 5.9883-4.3516 26.582-10.086 29.648-31.41 41.051-1.2539 0.67188-2.5625 1.3711-3.9258 2.1055l-0.019532 0.007812c-8.8789 4.4531-14.266 9.8789-16.797 15.34-1.6211 3.5039-2.0625 7.0195-1.4805 10.297 0.57813 3.2812 2.1719 6.3281 4.6172 8.8945 3.8359 4.0273 9.7617 6.8516 17.129 7.5078 13.059 1.082 21.543 3.2422 26.539 8.0898 5.0469 4.9023 6.4648 12.418 5.3398 24.18-0.55078 8.6719-0.1875 15.332 2.3477 20.156 2.5078 4.7656 7.2109 7.8164 15.379 9.3359 24.609 4.5977 25.836 7.7969 34.859 31.371 0.68359 1.7773 1.2695 3.3203 1.332 3.4805 2 5.207 4.832 9.2852 8.2031 12.316 4.3555 3.918 9.6172 6.0938 15.16 6.6875 5.5703 0.60156 11.422-0.38672 16.93-2.7852 5.75-2.5039 11.121-6.5469 15.41-11.93 3.8984-4.9023 8.4297-9.8984 16.051-14.086 7.5781-4.1641 18.203-7.5117 34.293-9.1328 34.984-3.5195 44.602-14.113 66.891-38.664 1.0156-1.1172 2.0547-2.2617 3.1797-3.5039 9.7539-10.711 10.355-21.391 6.1914-31.738-4.2227-10.5-13.32-20.723-22.801-30.316-18.715-18.945-22.359-32.973-27.793-53.898-0.19141-0.74609-0.39062-1.5-0.58984-2.2656-8.3281-31.969-20.707-54.777-34.648-67.484-5.6602-5.1523-11.566-8.6367-17.562-10.387-5.9727-1.7383-12.035-1.7617-18.027 0.003906-1.8008 0.53125-3.5977 1.2227-5.3828 2.0781 0.42578-0.14453 0.85547-0.28125 1.2852-0.41016 5.4805-1.6133 11.062-1.7266 16.605-0.375 5.5234 1.3438 11 4.1328 16.297 8.3203 15.348 12.137 29.203 36.059 38.188 70.551 0.1875 0.72656 0.375 1.4453 0.55859 2.1523 5.0977 19.641 8.5156 32.801 26.016 50.52 9.1133 9.2227 17.867 19.074 21.977 29.289 4.168 10.371 3.5742 21.059-6.168 31.758-0.99609 1.0938-2.0195 2.2227-3.0195 3.3203-21.418 23.594-30.66 33.773-64.402 37.172-15.082 1.5156-25.008 4.6367-32.066 8.5156-7.0195 3.8555-11.207 8.4805-14.82 13.016-4.2148 5.2969-9.5039 9.2734-15.172 11.742-5.4414 2.3711-11.23 3.3438-16.738 2.75-5.5352-0.59766-10.801-2.7695-15.16-6.6953-3.3633-3.0234-6.1836-7.0898-8.1758-12.273-0.97266-2.5273-1.125-2.918-1.2695-3.3086-8.3164-21.719-9.4453-24.668-32.059-28.891-8.0234-1.4961-12.898-4.5195-15.578-9.25-2.6602-4.6914-3.0977-10.996-2.2578-19.113l0.003906-0.019531c1.3438-10.859 0.50391-18.02-3.8047-22.668-4.3555-4.6914-12.316-6.9648-25.203-8.0078h-0.003906c-7.582-0.63672-13.785-3.6992-17.777-8.0234-2.4531-2.6523-4.0742-5.7812-4.6836-9.1211-0.60938-3.3477-0.19922-6.8984 1.418-10.383 2.418-5.207 7.543-10.266 16.008-14.258 1.5156-0.75391 3.3398-1.6367 5.0625-2.4727 16.945-8.2266 22.766-11.055 26.168-34.977l0.003906-0.011718c2.4414-15.242 6.8477-25.062 12.754-30.816 5.9609-5.8047 13.398-7.4609 21.852-6.3477 7.7812 0.28906 16.801-0.38672 25.551-3.4453 6.7148-2.3438 13.281-6.0977 19.012-11.898zm3.8984-5.8203c0.88672-1.2109 1.793-2.3594 2.707-3.4492-4.8086 3.043-9.793 5.1875-14.82 6.5859-9.7617 2.7227-19.66 2.6367-28.66 0.84375l-0.10938-0.03125c-1.3945-0.53906-2.7734-0.97656-4.1367-1.3125-7.6836-1.8906-14.793-0.47266-20.996 4.3945-6.2656 4.9141-11.641 13.344-15.781 25.43-1.4922 4.3555-2.8242 9.1836-3.9805 14.496-5.2539 28.645-10.652 31.73-36.797 46.66-0.60156 0.34375-1.2148 0.69141-1.8398 1.0508l-0.023437 0.011719c-9.625 5.082-15.508 11.141-18.289 17.148-1.7656 3.8242-2.2656 7.6289-1.6719 11.141 0.59375 3.5039 2.293 6.7344 4.9219 9.4219 3.9141 3.9961 9.9023 6.7773 17.422 7.4727 12.871 1.0938 21.605 3.0195 26.965 7.7305 5.4258 4.7695 7.332 12.277 6.4648 24.48-0.28906 9.5234 0.042968 16.828 2.6367 22.105 2.5586 5.207 7.3984 8.5117 16.164 10.152 25.824 4.8242 27.109 8.1797 36.582 32.922 0.70312 1.8398 1.3633 3.5586 1.4023 3.6523 2.1094 5.4727 5.082 9.7617 8.6211 12.949 4.5781 4.1211 10.113 6.4023 15.941 7.0312 5.8555 0.62891 12.008-0.40625 17.797-2.9258 6.043-2.6328 11.691-6.8828 16.195-12.543 4.0938-5.1445 8.8477-10.387 16.844-14.781 7.957-4.3711 19.105-7.8867 36.004-9.5859 36.754-3.6992 46.859-14.828 70.266-40.613 1.0664-1.1758 2.1602-2.3789 3.3438-3.6797 10.254-11.266 10.891-22.496 6.5156-33.375-4.4375-11.035-13.992-21.773-23.949-31.855-19.648-19.891-23.473-34.617-29.176-56.586-0.20703-0.78516-0.41016-1.5781-0.62109-2.3828-7.6719-29.457-18.672-51.188-31.262-64.48-6.2148-6.5625-12.812-11.051-19.578-13.395-6.7383-2.3281-13.656-2.5234-20.543-0.49609-2.3203 0.68359-4.6328 1.6172-6.9414 2.8086 1.0273-0.40625 2.0586-0.76172 3.0898-1.0664 6.2422-1.8398 12.555-1.8164 18.777-0.003907 6.1992 1.8086 12.297 5.3984 18.113 10.699 14.148 12.891 26.691 35.957 35.094 68.23 0.19922 0.76172 0.39453 1.5195 0.58984 2.2656 5.3711 20.684 8.9688 34.547 27.402 53.203 9.5938 9.7109 18.809 20.074 23.129 30.82 4.3828 10.902 3.7617 22.141-6.4844 33.391-1.0508 1.1523-2.1289 2.3398-3.1758 3.4961-22.543 24.832-32.27 35.547-67.781 39.121-15.883 1.5977-26.344 4.8828-33.773 8.9688-7.3945 4.0625-11.812 8.9375-15.613 13.719-4.4297 5.5703-10 9.7539-15.961 12.348-5.7227 2.4922-11.812 3.5156-17.605 2.8945-5.8242-0.625-11.355-2.9141-15.941-7.0391-3.5352-3.1797-6.5-7.4531-8.6016-12.906-0.99219-2.5742-1.1641-3.0312-1.3398-3.4805-8.7617-22.891-9.9492-25.992-33.777-30.441-8.6406-1.6133-13.656-4.9102-16.383-10.102-2.6992-5.1367-3.0938-12.051-2.5234-20.992v-0.027344c1.082-11.262-0.21094-18.398-4.8789-22.93-4.7227-4.5859-12.953-6.6445-25.691-7.6992h-0.007813c-7.7148-0.68359-13.945-3.6758-18.012-7.9414-2.6523-2.7852-4.3828-6.1094-5.0156-9.6953-0.62891-3.5898-0.16016-7.4336 1.6055-11.242 2.6602-5.7461 8.2695-11.43 17.461-16.039 1.3594-0.73438 2.6641-1.4297 3.9141-2.0977 20.82-11.133 26.418-14.129 30.645-39.953l0.007813-0.023438c0.40625-2.1055 0.84375-4.1328 1.3125-6.082 3.4453-14.25 8.5703-23.891 14.938-29.531 6.4375-5.6992 14.105-7.3164 22.574-5.4766 0.59375 0.12891 1.2031 0.28125 1.8203 0.44531 8.8086 1.0586 18.828 0.65234 28.504-2.7539 5.5312-1.9453 10.949-4.875 15.969-9.0703zm107.93 54.539c5.6406 21.727 9.4219 36.289 28.785 55.891 10.07 10.195 19.746 21.074 24.277 32.359 4.5977 11.434 3.9453 23.223-6.8008 35.027-1.1055 1.2148-2.2344 2.457-3.3359 3.6719-23.668 26.07-33.883 37.32-71.164 41.074-16.688 1.6758-27.672 5.1328-35.48 9.4219-7.7695 4.2734-12.41 9.3906-16.406 14.414-4.6523 5.8438-10.492 10.238-16.746 12.961-6.0039 2.6133-12.391 3.6914-18.473 3.0352-6.1094-0.65625-11.91-3.0508-16.723-7.3828-3.707-3.3359-6.8203-7.8242-9.0195-13.539-1.0156-2.6328-1.2109-3.1562-1.4062-3.6523-9.207-24.055-10.457-27.316-35.504-31.996-9.2578-1.7305-14.406-5.2969-17.184-10.945-2.7383-5.5781-3.0938-13.109-2.7969-22.887v-0.03125c0.82812-11.668-0.92578-18.777-5.9531-23.199-5.0898-4.4766-13.59-6.3203-26.172-7.3867h-0.007812c-7.8594-0.72656-14.145-3.6641-18.289-7.8945-2.8477-2.9062-4.6836-6.418-5.3398-10.25-0.64844-3.8242-0.10938-7.9453 1.7969-12.07 2.9062-6.2891 8.9961-12.59 18.91-17.832 0.62109-0.35938 1.2344-0.70703 1.8398-1.0508 25.648-14.648 30.949-17.672 36.07-45.617l0.003906-0.027344c1.168-5.375 2.5195-10.27 4.0312-14.691 4.2422-12.379 9.7891-21.047 16.281-26.137 6.5586-5.1406 14.062-6.6445 22.16-4.6484 1.3984 0.34375 2.8125 0.79297 4.2461 1.3438 8.8008 1.7422 18.465 1.8281 27.984-0.82812 8.1562-2.2773 16.211-6.5664 23.539-13.547 0.48047-0.51172 0.95312-1.0117 1.4375-1.4961-6.9336 4.6328-14.078 7.5508-21.207 9.043-9.5938 2.0039-19.164 1.4258-28.168-1.043l-0.11719-0.039062c-2.0078-0.96875-3.9922-1.7148-5.9414-2.2422-7.582-2.0469-14.711-0.76172-21.113 3.7617-6.457 4.5664-12.191 12.43-16.906 23.508-2.6367 6.1914-4.9492 13.375-6.9023 21.543-3.0586 15.195-5.832 23.641-11.742 30.645-5.8867 6.9805-14.809 12.41-30.195 21.613l-0.023438 0.011719c-10.379 5.7305-16.766 12.418-19.797 18.977-1.9102 4.1328-2.4766 8.2109-1.8672 11.949 0.61328 3.7305 2.4023 7.1328 5.2148 9.9258 4.0039 3.9805 10.062 6.7344 17.738 7.4727 12.684 1.1055 21.672 2.793 27.402 7.375 5.8008 4.6367 8.1992 12.121 7.5977 24.754-0.027344 10.391 0.27344 18.348 2.918 24.074 2.6094 5.6484 7.582 9.2109 16.949 10.961 27.039 5.0508 28.387 8.5664 38.301 34.477l1.4688 3.832c2.2109 5.7422 5.332 10.242 9.0469 13.586 4.8047 4.3242 10.605 6.7188 16.719 7.375 6.1367 0.66016 12.594-0.42578 18.664-3.0703 6.3359-2.7578 12.262-7.2148 16.984-13.148 4.2891-5.3867 9.2695-10.879 17.641-15.48 8.332-4.5781 20.012-8.2617 37.711-10.039 38.523-3.875 49.109-15.539 73.648-42.566 1.1172-1.2305 2.2617-2.4961 3.5039-3.8555 10.758-11.816 11.422-23.594 6.832-35.008-4.6523-11.566-14.668-22.824-25.105-33.387-20.582-20.836-24.586-36.254-30.559-59.273-0.21484-0.82031-0.42969-1.6523-0.64844-2.4961-6.918-26.566-16.445-46.898-27.469-60.484-6.793-8.3711-14.152-14.176-21.812-17.285-7.6289-3.1016-15.566-3.5312-23.555-1.1758-3.1914 0.94141-6.3945 2.3242-9.5938 4.1602 2.0078-0.96484 4.0273-1.7461 6.0508-2.3398 7.1641-2.1094 14.355-1.9102 21.363 0.51562 6.9766 2.4141 13.77 7.0312 20.141 13.762 12.758 13.465 23.887 35.426 31.629 65.148 0.21094 0.80469 0.41797 1.5977 0.62109 2.3828zm4.6484-2.5859c5.9141 22.773 9.875 38.035 30.168 58.582 10.551 10.68 20.684 22.074 25.434 33.895 4.8125 11.965 4.1289 24.305-7.1211 36.66-1.1602 1.2773-2.3398 2.5781-3.4961 3.8477-24.793 27.309-35.492 39.098-74.543 43.023-17.488 1.7617-29.004 5.3789-37.191 9.8789-8.1484 4.4805-13.012 9.8438-17.203 15.113-4.8711 6.1211-10.984 10.715-17.535 13.57-6.2852 2.7344-12.973 3.8633-19.34 3.1758-6.3945-0.6875-12.469-3.1953-17.504-7.7266-3.8828-3.4961-7.1406-8.1875-9.4414-14.176-1.0312-2.6797-1.2578-3.2734-1.4727-3.832-9.6562-25.219-10.965-28.645-37.227-33.547-9.8789-1.8438-15.16-5.6797-17.98-11.793-2.7812-6.0195-3.0938-14.168-3.0625-24.781v-0.035156c0.57422-12.074-1.6445-19.164-7.0273-23.473-5.457-4.3594-14.227-5.9883-26.656-7.0742l-0.007813-0.003907c-8.0156-0.76562-14.371-3.6719-18.594-7.8711-3.0469-3.0273-4.9844-6.7188-5.6523-10.773-0.66406-4.0469-0.058593-8.4414 1.9922-12.875 3.1562-6.8281 9.7422-13.762 20.402-19.648 15.266-9.125 24.109-14.508 29.836-21.297 5.7031-6.7617 8.4023-15.031 11.41-29.969l0.007813-0.027344c1.9688-8.2617 4.3125-15.535 6.9805-21.805 4.832-11.348 10.738-19.422 17.422-24.148 6.7461-4.7656 14.258-6.1211 22.242-3.9648 2.0195 0.54688 4.0664 1.3125 6.1367 2.3086 8.7812 2.3945 18.113 2.957 27.473 1 8.4727-1.7695 16.965-5.6016 25.086-12.008 1.5586-1.4297 3.1211-2.75 4.6914-3.9609-8.75 5.4648-17.477 8.6758-26.078 9.8945-9.4297 1.3359-18.699 0.28125-27.691-2.8281l-0.10938-0.050781c-2.5352-1.4219-5.0469-2.4844-7.5156-3.1992-7.6094-2.1992-14.848-1.0547-21.465 3.2266-6.6797 4.3203-12.742 11.828-17.938 22.309-3.8125 7.6953-7.1484 16.984-9.9141 27.793-3.4375 15.773-6.2461 24.703-12.484 32.375-6.2148 7.6406-15.777 13.926-32.758 24.441l-0.019532 0.011718c-11.129 6.3867-18.031 13.719-21.32 20.824-2.0547 4.4375-2.6914 8.7812-2.0625 12.738 0.625 3.9414 2.5117 7.5078 5.5039 10.418 4.0938 3.9727 10.25 6.7148 18.09 7.4922v-0.003906c12.5 1.1172 21.734 2.5742 27.828 7.0195 6.1719 4.5039 9.0547 11.957 8.7266 25.016 0.23047 11.258 0.49609 19.871 3.2031 26.059 2.6602 6.0898 7.7695 9.9141 17.73 11.773 28.258 5.2734 29.66 8.9492 40.027 36.023l1.5352 4.0039c2.3125 6.0078 5.5781 10.715 9.4648 14.219 5.0273 4.5273 11.102 7.0312 17.5 7.7188 6.4258 0.6875 13.176-0.44531 19.531-3.2148 6.6328-2.8867 12.828-7.5508 17.77-13.758 4.4805-5.6328 9.6836-11.367 18.434-16.18 8.707-4.7852 20.922-8.6328 39.418-10.492 40.293-4.0547 51.367-16.254 77.027-44.516 1.168-1.2891 2.3711-2.6094 3.6602-4.0273 11.258-12.367 11.953-24.695 7.1484-36.645-4.8672-12.102-15.34-23.875-26.254-34.922-21.512-21.777-25.699-37.898-31.945-61.965-0.22656-0.85938-0.44922-1.7305-0.67969-2.6055-6.0508-23.23-14.012-41.738-23.27-55.188-7.3711-10.711-15.555-18.211-24.246-22.328-8.6484-4.0977-17.809-4.8516-27.176-2.0938-5.1523 1.5195-10.375 4.1016-15.609 7.7734 4.1445-2.6914 8.3086-4.6445 12.465-5.8672 8.293-2.4453 16.531-1.9961 24.445 1.2188 7.8828 3.1992 15.43 9.1445 22.383 17.719 11.16 13.75 20.789 34.281 27.762 61.074 0.21875 0.83984 0.43359 1.6719 0.64844 2.4922zm4.6445-2.5859c6.1875 23.816 10.328 39.781 31.555 61.27 11.027 11.164 21.621 23.078 26.586 35.426 5.0234 12.5 4.3125 25.387-7.4375 38.293-1.2148 1.3359-2.4531 2.6953-3.6562 4.0234-25.918 28.547-37.105 40.871-77.922 44.977-18.293 1.8398-30.336 5.625-38.898 10.332-8.5234 4.6836-13.613 10.301-17.996 15.812-5.0859 6.3945-11.48 11.203-18.32 14.18-6.5664 2.8594-13.551 4.0352-20.207 3.3164-6.6797-0.71875-13.023-3.3398-18.281-8.0703-4.0547-3.6484-7.457-8.5508-9.8633-14.805-1.0664-2.7695-1.3047-3.3867-1.5391-4.0039-10.102-26.383-11.469-29.965-38.945-35.098-10.496-1.9609-15.914-6.0664-18.781-12.637-2.8242-6.4609-3.0977-15.227-3.332-26.684v-0.03125c0.31641-12.477-2.3594-19.551-8.1016-23.742-5.8242-4.25-14.867-5.6602-27.145-6.7578l-0.007812-0.003907c-8.1758-0.80859-14.617-3.6914-18.93-7.8789-3.2344-3.1406-5.2734-7.0117-5.9531-11.293-0.67578-4.2656 0-8.9258 2.1914-13.66 3.4102-7.3672 10.508-14.941 21.914-21.488 16.836-10.426 26.309-16.648 32.383-24.109 6.0508-7.4336 8.7891-16.207 12.18-31.75l0.007813-0.03125c2.7852-10.906 6.1641-20.305 10.027-28.102 5.3164-10.727 11.559-18.438 18.457-22.898 6.9648-4.5039 14.582-5.7148 22.582-3.3984 2.5469 0.73828 5.1328 1.8281 7.75 3.293 8.7773 3.0234 17.82 4.0508 27.016 2.75 8.7578-1.2422 17.652-4.5977 26.586-10.359 6.3438-4.9375 12.695-8.3047 18.969-10.156 9.6953-2.8555 19.18-2.0742 28.137 2.1719 8.918 4.2266 17.297 11.887 24.812 22.816 9.3555 13.598 17.391 32.266 23.488 55.688 0.23047 0.88281 0.45312 1.7461 0.67969 2.6055zm36.602 62.465c-22.445-22.719-26.816-39.543-33.332-64.648-0.23047-0.89453-0.46875-1.8008-0.70703-2.7227-5.0469-19.371-11.359-35.492-18.656-48.176-7.9062-13.738-16.973-23.438-26.836-28.867-9.8203-5.4062-20.461-6.5859-31.562-3.3164-5.1836 1.5273-10.473 4.0273-15.832 7.5156l-0.058594 0.03125c-9.9609 5.1836-19.438 8.1094-28.672 8.8125-9.2461 0.70312-18.242-0.82031-27.219-4.5352l-0.10547-0.054687c-3.0234-1.8945-6.0078-3.2852-8.9492-4.1836-7.7148-2.3594-15.121-1.3398-21.984 2.7734-6.918 4.1445-13.305 11.426-18.918 21.547-4.9961 9.0078-9.3711 20.258-12.961 33.539-3.8242 16.363-6.6602 25.777-13.23 34.113-6.5508 8.3086-16.75 15.445-35.32 27.27l-0.019531 0.011718c-11.887 7.0508-19.301 15.027-22.852 22.684-2.1953 4.7383-2.9023 9.3398-2.2578 13.512 0.63672 4.1523 2.6133 7.8867 5.7891 10.902 4.1836 3.9727 10.441 6.7109 18.461 7.5234 12.32 1.1289 21.801 2.3516 28.262 6.668 6.5391 4.3672 9.9102 11.797 9.8516 25.266 0.023437 0.49219 0.046875 1.2227 0.082031 1.957 0.91797 22.762 1.4062 34.84 21.926 38.676 29.469 5.5039 30.941 9.3359 41.75 37.574l1.6016 4.1797c2.418 6.2773 5.8281 11.195 9.8906 14.848 5.2539 4.7305 11.598 7.3477 18.281 8.0664 6.7109 0.72266 13.762-0.46484 20.398-3.3555 6.9258-3.0156 13.398-7.8867 18.559-14.367 4.6758-5.875 10.105-11.863 19.227-16.875 9.0859-4.9961 21.824-9.0078 41.129-10.949 42.062-4.2305 53.621-16.965 80.406-46.473 1.2188-1.3438 2.4727-2.7227 3.8242-4.207 11.762-12.918 12.484-25.797 7.4688-38.277-5.0781-12.637-16.016-24.922-27.41-36.453zm-31.957-65.055c6.4531 24.859 10.777 41.523 32.941 63.957 11.504 11.645 22.559 24.074 27.738 36.961 5.2422 13.035 4.4922 26.473-7.7617 39.93-1.2695 1.3945-2.5586 2.8125-3.8164 4.1992-27.043 29.789-38.715 42.645-81.301 46.93-19.094 1.9219-31.668 5.8711-40.609 10.785-8.9023 4.8906-14.215 10.754-18.793 16.508-5.3086 6.668-11.973 11.684-19.109 14.789-6.8477 2.9805-14.133 4.207-21.07 3.4609-6.9648-0.75-13.582-3.4805-19.062-8.418-4.2266-3.8047-7.7734-8.918-10.285-15.438-1.082-2.8164-1.3477-3.5039-1.6055-4.1797-10.547-27.551-11.977-31.289-40.672-36.645-21.648-4.043-22.156-16.551-23.105-40.113-0.023438-0.55469-0.042969-1.1289-0.078125-1.9531v-0.035156c0.0625-12.887-3.0781-19.938-9.1875-24.012-6.1914-4.1328-15.5-5.3281-27.621-6.4375l-0.007812-0.003906c-8.3398-0.84766-14.883-3.7188-19.285-7.9062-3.4219-3.25-5.5547-7.2891-6.2461-11.785-0.6875-4.4805 0.058593-9.3984 2.3906-14.426 3.6641-7.9062 11.273-16.117 23.422-23.328 18.422-11.73 28.531-18.797 34.949-26.938 6.3906-8.1055 9.1758-17.379 12.945-33.527l0.007812-0.027344c3.625-13.406 8.0469-24.773 13.105-33.895 5.7383-10.352 12.305-17.82 19.449-22.098 7.2031-4.3125 14.977-5.3867 23.074-2.9102 3.043 0.92969 6.125 2.3594 9.2383 4.3086 8.7578 3.6133 17.531 5.0898 26.547 4.4062 9.0391-0.6875 18.328-3.5586 28.105-8.6367 5.4688-3.5586 10.871-6.1094 16.18-7.6719 11.465-3.3789 22.449-2.1562 32.598 3.4297 10.102 5.5625 19.355 15.449 27.402 29.43 7.3672 12.805 13.73 29.047 18.816 48.566 0.23828 0.91797 0.47656 1.8242 0.70703 2.7227zm37.988 65.152c-23.379-23.664-27.93-41.188-34.715-67.34-0.24219-0.9375-0.48828-1.8789-0.73828-2.8359-3.875-14.871-8.4492-27.844-13.648-38.844-8.3594-17.691-18.32-30.27-29.535-37.43-11.16-7.1211-23.586-8.875-36.934-4.9414-4.0742 1.2031-8.2305 2.9258-12.465 5.1914l-0.0625 0.03125c-10.562 4.3242-20.188 6.7188-29.473 6.9375-9.3047 0.22266-18.254-1.7422-27.434-6.1367l-0.09375-0.054688c-3.4766-2.3828-6.9141-4.0977-10.305-5.1836-7.875-2.5195-15.48-1.6094-22.602 2.375-7.1797 4.0195-13.879 11.16-19.879 21.066-6.1719 10.195-11.59 23.305-16.016 38.953-4.2031 16.949-7.0742 26.848-13.984 35.855-6.8867 8.9766-17.727 16.965-37.883 30.098l-0.015625 0.007813c-12.641 7.7227-20.582 16.348-24.395 24.547-2.3359 5.0273-3.1133 9.8867-2.4648 14.266 0.64844 4.3555 2.7148 8.2461 6.0586 11.367 4.2812 3.9883 10.652 6.7266 18.855 7.582 12.137 1.1406 21.859 2.1289 28.691 6.3164 6.9141 4.2383 10.77 11.641 10.977 25.543 0.09375 1.5859 0.17969 3.1836 0.26562 4.7383 1.2422 22.668 1.9023 34.762 22.812 38.668 30.688 5.7305 32.215 9.7227 43.469 39.129 0.79297 2.0625 1.6094 4.2148 1.668 4.3555 2.5195 6.543 6.0742 11.672 10.312 15.484 5.4727 4.9297 12.09 7.6602 19.059 8.4102 6.9961 0.75391 14.348-0.48828 21.262-3.5 7.2227-3.1406 13.969-8.2188 19.344-14.977 4.8672-6.1172 10.52-12.348 20.02-17.574 9.4648-5.2031 22.734-9.3789 42.836-11.402 43.832-4.4102 55.875-17.676 83.789-48.422 1.2734-1.4023 2.582-2.8438 3.9805-4.3828 12.266-13.469 13.016-26.895 7.7852-39.914-5.293-13.168-16.688-25.969-28.562-37.992zm-33.34-67.742c6.7227 25.906 11.234 43.266 34.324 66.645 11.984 12.133 23.496 25.078 28.891 38.496 5.457 13.57 4.6797 27.555-8.0781 41.562-1.3242 1.4531-2.6641 2.9336-3.9727 4.375-28.168 31.027-40.324 44.418-84.68 48.879-19.898 2-33 6.125-42.316 11.242-9.2773 5.0977-14.816 11.211-19.586 17.203-5.5273 6.9453-12.465 12.16-19.895 15.398-7.1328 3.1094-14.715 4.3828-21.938 3.6055-7.25-0.77734-14.137-3.625-19.844-8.7578-4.4023-3.9609-8.0938-9.2852-10.707-16.074-1.1055-2.8789-1.3984-3.6328-1.6719-4.3555-10.992-28.719-12.484-32.613-42.395-38.199-22.023-4.1133-22.703-16.625-23.992-40.078-0.082031-1.5078-0.16797-3.0625-0.26562-4.7344v-0.03125c-0.19141-13.293-3.7969-20.324-10.262-24.281-6.5547-4.0195-16.141-4.9922-28.105-6.1133l-0.007813-0.003906c-8.5156-0.88672-15.164-3.7617-19.664-7.9531-3.6055-3.3633-5.832-7.5664-6.5312-12.273-0.69531-4.6836 0.12109-9.8555 2.5898-15.172 3.9258-8.4453 12.051-17.297 24.949-25.18 20.008-13.039 30.758-20.949 37.516-29.762 6.7305-8.7773 9.5586-18.547 13.715-35.309l0.007813-0.023437c4.4648-15.785 9.9375-29.027 16.184-39.34 6.1328-10.129 13.016-17.449 20.414-21.59 7.457-4.1758 15.426-5.1289 23.676-2.4883 3.5 1.1211 7.043 2.8867 10.621 5.332 8.9648 4.2852 17.699 6.1992 26.773 5.9883 9.1016-0.21484 18.562-2.5703 28.957-6.8242 4.3086-2.3008 8.5469-4.0625 12.691-5.2812 13.742-4.0469 26.543-2.2422 38.043 5.1016 11.449 7.3047 21.59 20.098 30.078 38.051 5.2422 11.094 9.8516 24.152 13.75 39.117 0.24609 0.95703 0.49219 1.9023 0.73828 2.8398zm39.375 67.84c-24.309-24.609-29.043-42.832-36.102-70.027-0.25391-0.96875-0.50781-1.9531-0.76562-2.9492-2.4766-9.5078-5.2227-18.25-8.2305-26.215-8.6719-22.945-19.496-39.363-32.25-48.82-12.684-9.4062-27.305-11.922-43.629-7.1094-2.668 0.78516-5.3906 1.7695-8.1562 2.9531l-0.066406 0.023437c-11.164 3.4688-20.938 5.3359-30.273 5.0703-9.3672-0.26562-18.266-2.6719-27.645-7.7461l-0.082031-0.054687c-3.9062-2.8711-7.7812-4.9219-11.605-6.1914-8.0664-2.6797-15.898-1.8711-23.293 2.0234-7.4492 3.9258-14.465 10.988-20.832 20.793-7.332 11.293-13.793 26.199-19.059 44.129-4.582 17.535-7.4883 27.926-14.73 37.598-7.2227 9.6484-18.703 18.488-40.441 32.922l-0.015625 0.007813c-13.398 8.4102-21.871 17.68-25.949 26.422-2.4766 5.3164-3.3242 10.426-2.6641 15.008 0.65625 4.5508 2.8047 8.6016 6.3281 11.824 4.3828 4.0117 10.883 6.7617 19.273 7.6523 0.9375 0.089844 1.4062 0.13281 1.8789 0.17969 23.078 2.1953 38.41 3.6602 39.332 31.598 0.17969 2.4609 0.34375 4.9219 0.49609 7.2695 1.4883 22.742 2.2852 34.926 23.648 38.914 31.902 5.9609 33.492 10.109 45.191 40.68 0.8125 2.1172 1.6602 4.3281 1.7344 4.5273 2.6211 6.8125 6.3242 12.148 10.73 16.117 5.6992 5.1328 12.59 7.9727 19.84 8.7539 7.2812 0.78516 14.93-0.50391 22.129-3.6367 7.5117-3.2695 14.535-8.5508 20.133-15.586 5.0625-6.3594 10.938-12.84 20.816-18.27 9.8398-5.4062 23.637-9.7539 44.543-11.855 45.602-4.5859 58.129-18.391 87.168-50.375 1.3242-1.4609 2.6836-2.957 4.1406-4.5547 12.766-14.023 13.551-28 8.1016-41.547-5.5078-13.703-17.363-27.02-29.711-39.527zm-34.727-70.434c6.9961 26.953 11.688 45.012 35.711 69.328 12.465 12.617 24.434 26.082 30.043 40.031 5.668 14.102 4.8633 28.641-8.3945 43.199-1.3789 1.5156-2.7773 3.0508-4.1367 4.5508-29.293 32.266-41.938 46.191-88.062 50.832-20.699 2.082-34.332 6.3711-44.027 11.695-9.6562 5.3047-15.418 11.664-20.383 17.902-5.7422 7.2227-12.957 12.645-20.684 16.012-7.4141 3.2305-15.297 4.5508-22.809 3.75-7.5352-0.8125-14.691-3.7656-20.621-9.1055-4.5742-4.1172-8.4141-9.6484-11.129-16.703-1.1328-2.9414-1.4414-3.75-1.7383-4.5273-11.438-29.883-12.992-33.938-44.113-39.75-22.465-4.1953-23.289-16.797-24.828-40.312-0.15234-2.2734-0.30469-4.6562-0.49609-7.25v-0.03125c-0.87109-26.629-15.703-28.043-38.035-30.168-0.76953-0.074219-1.5625-0.15234-1.8945-0.17969h-0.007813c-8.6953-0.92578-15.461-3.8047-20.059-8.0117-3.7891-3.4727-6.1094-7.8359-6.8164-12.75-0.70312-4.8828 0.18359-10.301 2.7969-15.906 4.1914-8.9883 12.84-18.484 26.492-27.047 21.586-14.344 32.977-23.098 40.074-32.582 7.0742-9.4492 9.9414-19.723 14.48-37.082l0.003906-0.023437c5.3086-18.074 11.832-33.121 19.25-44.543 6.5078-10.016 13.703-17.25 21.375-21.293 7.7266-4.0742 15.918-4.9141 24.348-2.1133 3.9375 1.3086 7.9258 3.4141 11.941 6.3555 9.1758 4.957 17.867 7.3086 27 7.5664 9.1602 0.26172 18.789-1.5781 29.801-5 2.8008-1.1992 5.5625-2.1953 8.2812-2.9922 16.754-4.9375 31.777-2.3438 44.828 7.332 12.984 9.6289 23.984 26.277 32.758 49.496 3.0273 8.0117 5.793 16.805 8.2852 26.371 0.25781 0.99609 0.51172 1.9805 0.76562 2.9492zm40.758 70.527c-25.242-25.551-30.156-44.477-37.488-72.715-0.26172-1.0117-0.52734-2.0312-0.79688-3.0625-0.75391-2.8828-1.5273-5.6992-2.3242-8.4453-8.7734-30.207-20.352-51.934-34.867-64.578-14.434-12.574-31.809-16.152-52.258-10.129-0.82422 0.24219-1.6641 0.50391-2.5078 0.78125l-0.0625 0.019532c-11.77 2.6172-21.695 3.957-31.078 3.207-9.4102-0.75391-18.258-3.5977-27.848-9.3555l-0.074219-0.046875c-4.3281-3.375-8.6289-5.7539-12.867-7.2109-8.2852-2.8438-16.371-2.1289-24.047 1.707-7.7266 3.8633-15.055 10.898-21.777 20.664-8.4805 12.328-15.984 28.988-22.094 49.129l-0.11719 0.4375c-9.8438 35.941-11.84 43.242-58.359 74.66l-0.015625 0.007812c-14.16 9.0938-23.156 19.016-27.504 28.301-2.6211 5.6016-3.5391 10.949-2.8711 15.734 0.66406 4.75 2.9023 8.9492 6.5977 12.281 4.4844 4.0352 11.105 6.8047 19.688 7.7344 0.81641 0.082031 2.4531 0.23047 4.0586 0.38281 21.691 2.0352 37.332 3.5 38.723 31.348 0.30469 3.5078 0.53906 6.6367 0.75391 9.5859 1.6836 22.93 2.5859 35.254 24.465 39.34 33.117 6.1875 34.766 10.492 46.918 42.23 0.82812 2.1719 1.6953 4.4297 1.8008 4.7031 2.7227 7.0781 6.5742 12.625 11.156 16.75 5.9258 5.3359 13.082 8.2852 20.621 9.1016 7.5664 0.8125 15.516-0.52734 22.996-3.7812 7.8086-3.3984 15.102-8.8867 20.918-16.195 5.2539-6.6016 11.359-13.332 21.613-18.969 10.215-5.6133 24.543-10.125 46.254-12.309 47.371-4.7656 60.387-19.102 90.551-52.324 1.375-1.5156 2.7852-3.0703 4.3008-4.7344 13.266-14.574 14.082-29.102 8.4219-43.184-5.7227-14.234-18.039-28.07-30.867-41.059zm-36.113-73.121c7.2695 27.996 12.141 46.754 37.098 72.02 12.941 13.102 25.375 27.082 31.195 41.562 5.8828 14.637 5.0469 29.723-8.7109 44.832-1.4336 1.5742-2.8828 3.1719-4.293 4.7266-30.418 33.504-43.543 47.969-91.441 52.785-21.504 2.1641-35.664 6.6133-45.734 12.148-10.031 5.5117-16.016 12.117-21.176 18.602-5.9648 7.4961-13.453 13.129-21.473 16.613-7.6953 3.3516-15.879 4.7305-23.672 3.8906-7.8242-0.83984-15.25-3.9062-21.402-9.4492-4.7461-4.2734-8.7344-10.016-11.551-17.34-1.1523-2.9922-1.4844-3.8633-1.8047-4.7031-11.887-31.051-13.496-35.266-45.836-41.301-22.961-4.2891-23.898-17.027-25.641-40.723-0.22656-3.0781-0.46484-6.3398-0.75391-9.5938l-0.003906-0.03125c-1.3242-26.527-16.445-27.941-37.418-29.91-1.0547-0.097656-2.1289-0.19922-4.0703-0.39062h-0.007813c-8.8828-0.96484-15.777-3.8555-20.469-8.0859-3.9688-3.5742-6.375-8.0977-7.0898-13.219-0.71094-5.0859 0.25391-10.746 3.0078-16.629 4.457-9.5234 13.633-19.664 28.031-28.918 46.07-31.113 48.043-38.32 57.758-73.797l0.12891-0.48047c6.1523-20.297 13.723-37.105 22.297-49.562 6.8594-9.9727 14.375-17.164 22.328-21.141 8.0039-4 16.438-4.7422 25.082-1.7773 4.3789 1.5 8.8086 3.9531 13.25 7.4102 9.3672 5.6172 18.016 8.3984 27.207 9.1328 9.2266 0.73828 19.023-0.58594 30.652-3.1719 0.83984-0.27734 1.6719-0.53516 2.5117-0.78125 20.93-6.168 38.734-2.4883 53.543 10.414 14.73 12.836 26.461 34.812 35.324 65.309 0.80078 2.7578 1.5781 5.5859 2.332 8.4844 0.26953 1.0352 0.53516 2.0547 0.79688 3.0625zm42.145 73.219c-26.172-26.496-31.27-46.121-38.871-75.402-0.27344-1.0469-0.54687-2.1055-0.82422-3.1758-8.6562-33.242-20.121-57.395-35.164-71.844-14.969-14.379-33.539-19.156-56.477-13.711l-0.058594 0.011718c-12.375 1.7656-22.453 2.582-31.887 1.3477-9.4648-1.2344-18.266-4.5234-28.051-10.961l-0.058594-0.042969c-4.7344-3.8711-9.4492-6.5859-14.105-8.2266-8.5273-3.0039-16.875-2.3828-24.84 1.4141-8.0234 3.8242-15.668 10.855-22.738 20.645-9.6133 13.305-18.148 31.688-25.098 54-0.76172 2.668-0.027343 0.10156-0.8125 2.8477-9.9883 35.078-12.402 43.543-60.984 76.82l-0.011718 0.007813c-14.922 9.7891-24.457 20.359-29.074 30.188-2.7578 5.8711-3.7539 11.469-3.0781 16.449 0.67188 4.9453 2.9883 9.2969 6.8594 12.734 4.5859 4.0703 11.348 6.8555 20.125 7.8281 1.7812 0.17969 3.8242 0.35937 5.8242 0.54297 20.664 1.8555 36.672 3.293 38.512 31.109 0.42578 4.2656 0.73438 8.1641 1.0234 11.805 1.8438 23.207 2.8398 35.715 25.258 39.902 34.336 6.4102 36.047 10.879 48.637 43.781 0.85156 2.2266 1.7383 4.543 1.8672 4.8789 2.8281 7.3477 6.8203 13.102 11.574 17.383 6.1523 5.5352 13.578 8.6016 21.402 9.4414 7.8516 0.84375 16.102-0.54688 23.863-3.9258 8.1016-3.5273 15.672-9.2227 21.707-16.805 5.4492-6.8438 11.773-13.824 22.406-19.668 10.59-5.8203 25.449-10.5 47.961-12.766 49.141-4.9453 62.641-19.812 93.926-54.277 1.4297-1.5742 2.8945-3.1875 4.4609-4.9062 13.77-15.125 14.617-30.203 8.7422-44.816-5.9375-14.77-18.711-29.121-32.02-42.594zm-37.496-75.809c7.5391 29.043 12.59 48.5 38.48 74.703 13.422 13.586 26.309 28.082 32.348 43.098 6.0977 15.168 5.2305 30.805-9.0312 46.473-1.4883 1.6328-2.9883 3.2891-4.4531 4.9023-31.543 34.746-45.156 49.742-94.82 54.734-22.301 2.2461-36.992 6.8633-47.441 12.605-10.406 5.7227-16.617 12.57-21.973 19.297-6.1836 7.7656-13.945 13.605-22.258 17.227-7.9766 3.4727-16.461 4.9023-24.535 4.0312-8.1055-0.875-15.805-4.0508-22.184-9.793-4.918-4.4297-9.0508-10.383-11.969-17.973-1.1758-3.0469-1.5352-3.9844-1.8711-4.8789-12.332-32.215-14.004-36.586-47.562-42.855-23.508-4.3906-24.531-17.309-26.438-41.273-0.29297-3.6953-0.60938-7.6523-1.0195-11.789v-0.03125c-1.75-26.52-17.223-27.906-37.203-29.703-1.8125-0.16406-3.668-0.32812-5.8477-0.55078h-0.007813c-9.0703-1.0039-16.09-3.9102-20.891-8.1719-4.1523-3.6836-6.6445-8.3633-7.3633-13.68-0.71484-5.2812 0.32031-11.18 3.2148-17.34 4.7266-10.059 14.438-20.852 29.586-30.793 48.137-32.973 50.52-41.332 60.387-75.984 0.25-0.88281-0.50781 1.7852 0.82031-2.8672l0.003907-0.019531c6.9961-22.457 15.609-40.992 25.324-54.445 7.2148-9.9883 15.043-17.184 23.285-21.109 8.293-3.9531 16.988-4.6055 25.867-1.4727 4.7852 1.6836 9.625 4.4766 14.484 8.4414 9.5859 6.3008 18.195 9.5195 27.457 10.727 9.293 1.2109 19.258 0.40625 31.504-1.3438 23.406-5.543 42.371-0.64062 57.699 14.078 15.258 14.656 26.855 39.051 35.586 72.562 0.28125 1.0742 0.55469 2.1289 0.82422 3.1758zm43.527 75.906c-27.105-27.438-32.387-47.766-40.254-78.09-0.28125-1.082-0.56641-2.1836-0.85547-3.293-8.5-32.645-19.445-56.688-34.227-71.629-14.715-14.879-33.285-20.746-57.098-17.113l-0.054687 0.007813c-12.977 0.91406-23.203 1.2031-32.691-0.51172-9.5234-1.7227-18.273-5.4492-28.258-12.559l-0.046875-0.035156c-5.1406-4.3789-10.258-7.4336-15.316-9.2617-8.7812-3.168-17.402-2.625-25.668 1.1445-8.3164 3.7969-16.281 10.863-23.695 20.711-10.738 14.258-20.301 34.328-28.09 58.742-0.62109 2.0977-1.0625 3.5898-1.4844 5.0312-10.148 34.504-12.973 44.102-63.633 79.227l-0.007812 0.007812c-15.684 10.484-25.758 21.711-30.645 32.074-2.9023 6.1484-3.9648 11.98-3.2852 17.156 0.67578 5.1367 3.0781 9.6406 7.1172 13.176 4.6914 4.1055 11.59 6.918 20.57 7.9258 2.3672 0.24609 4.8477 0.45312 7.2812 0.65625 19.922 1.668 36.344 3.043 38.609 30.922 0.54687 4.9258 0.9375 9.5938 1.3008 13.914 1.9805 23.547 3.0508 36.266 26.055 40.566 35.547 6.6406 37.316 11.262 50.359 45.332 0.875 2.2812 1.7812 4.6562 1.9336 5.0508 2.9297 7.6133 7.0703 13.582 11.996 18.016 6.375 5.7344 14.074 8.918 22.18 9.7891 8.1367 0.875 16.684-0.56641 24.73-4.0664 8.3945-3.6562 16.238-9.5586 22.496-17.414 5.6406-7.0898 12.191-14.312 23.203-20.363 10.973-6.0273 26.355-10.875 49.672-13.219 50.906-5.1211 64.895-20.531 97.305-56.23 1.4805-1.6328 2.9961-3.3047 4.6172-5.082 14.27-15.676 15.148-31.305 9.0586-46.453-6.1523-15.301-19.387-30.172-33.172-44.125zm-38.883-78.496c7.8125 30.086 13.047 50.246 39.863 77.395 13.898 14.07 27.25 29.082 33.504 44.633 6.3164 15.699 5.4141 31.887-9.3477 48.105-1.5391 1.6914-3.0977 3.4062-4.6172 5.0742-32.668 35.984-46.766 51.516-98.203 56.688-23.105 2.3242-38.324 7.1094-49.152 13.062-10.785 5.9258-17.219 13.027-22.766 19.996-6.3984 8.043-14.441 14.09-23.047 17.836-8.2578 3.5938-17.043 5.0742-25.406 4.1719-8.3906-0.90234-16.359-4.1953-22.965-10.137-5.0898-4.5859-9.3672-10.746-12.395-18.602-1.1992-3.1094-1.5781-4.1016-1.9375-5.0508-12.777-33.383-14.512-37.91-49.285-44.406-24.074-4.4961-25.184-17.629-27.227-41.93-0.35938-4.2383-0.74609-8.8242-1.3047-13.895l-0.003907-0.023438c-2.1641-26.598-18.043-27.926-37.301-29.539-2.3398-0.19531-4.7383-0.39453-7.3086-0.66406h-0.007812c-9.2695-1.0391-16.426-3.9727-21.324-8.2656-4.3281-3.7891-6.9062-8.6211-7.6289-14.141-0.71875-5.4727 0.39062-11.613 3.4258-18.043 5-10.598 15.246-22.039 31.16-32.68 50.215-34.816 53.008-44.309 63.035-78.402 0.53125-1.8008 1.0781-3.6602 1.4844-5.0391l0.003906-0.015625c7.8398-24.59 17.488-44.82 28.332-59.223 7.5625-10.043 15.711-17.258 24.25-21.156 8.5898-3.9219 17.551-4.4883 26.688-1.1875 5.207 1.875 10.465 5.0117 15.73 9.4961 9.7891 6.9727 18.359 10.621 27.668 12.301 9.3438 1.6875 19.477 1.4062 32.336 0.49219 24.266-3.6953 43.211 2.3125 58.258 17.52 14.98 15.148 26.047 39.418 34.617 72.328 0.28906 1.1133 0.57422 2.207 0.85547 3.293zm44.91 78.594c-28.039-28.383-33.5-49.406-41.641-80.777-0.29297-1.1211-0.58594-2.2578-0.88281-3.4062-8.3516-32.051-18.77-55.977-33.289-71.418-14.461-15.375-33.031-22.34-57.727-20.523h-0.042969c-13.59 0.070313-23.969-0.16797-33.504-2.3633-9.5742-2.2031-18.27-6.3711-28.457-14.164l-0.039062-0.03125c-5.5352-4.8867-11.055-8.2812-16.516-10.293-9.0547-3.332-17.961-2.8672-26.527 0.89453-8.6172 3.7852-16.906 10.906-24.66 20.844-11.848 15.184-22.438 36.926-31.07 63.426-0.80859 2.6367-1.4844 4.875-2.1289 7.0156-10.316 34.148-13.547 44.852-66.297 81.82l-0.007812 0.007812c-16.438 11.184-27.055 23.062-32.223 33.969-3.043 6.418-4.1797 12.484-3.4961 17.852 0.67969 5.3242 3.1641 9.9805 7.375 13.617 4.8008 4.1484 11.844 6.9883 21.023 8.0352 2.8164 0.29688 5.6797 0.51562 8.4922 0.73047 19.383 1.4727 36.266 2.7617 38.949 30.773 0.69531 5.7773 1.1602 11.082 1.5859 15.945 2.0977 23.938 3.2344 36.898 26.84 41.305 36.766 6.8672 38.598 11.645 52.082 46.883 0.89453 2.3359 1.832 4.7852 2 5.2266 3.0352 7.8828 7.3164 14.055 12.418 18.648 6.5977 5.9375 14.57 9.2305 22.961 10.133 8.4219 0.90625 17.27-0.58594 25.598-4.2109 8.6875-3.7812 16.805-9.8906 23.281-18.023 5.8359-7.332 12.609-14.805 23.996-21.059 11.348-6.2383 27.262-11.246 51.379-13.672 52.676-5.2969 67.148-21.242 100.69-58.184 1.5312-1.6836 3.1055-3.418 4.7773-5.2578 14.77-16.227 15.684-32.406 9.375-48.086-6.3672-15.832-20.059-31.223-34.324-45.664zm-40.266-81.184c8.0859 31.129 13.496 51.988 41.25 80.082 14.375 14.555 28.188 30.086 34.652 46.168 6.5234 16.234 5.5977 32.973-9.6641 49.742-1.5977 1.7539-3.207 3.5234-4.7734 5.2539-33.793 37.227-48.375 53.289-101.58 58.641-23.91 2.4062-39.656 7.3594-50.859 13.516-11.164 6.1328-17.82 13.48-23.559 20.691-6.6211 8.3203-14.93 14.57-23.832 18.445-8.543 3.7188-17.625 5.25-26.273 4.3164-8.6797-0.93359-16.918-4.3398-23.742-10.484-5.2656-4.7422-9.6875-11.109-12.812-19.238-1.2227-3.1836-1.6211-4.2227-2.0039-5.2266-13.223-34.551-15.02-39.234-51.004-45.953-24.676-4.6094-25.848-17.98-28.012-42.668-0.42578-4.8555-0.89062-10.152-1.5859-15.91l-0.003906-0.023438c-2.5586-26.738-18.891-27.98-37.629-29.41-2.7852-0.21094-5.6211-0.42578-8.543-0.73828h-0.007812c-9.4648-1.0781-16.758-4.0391-21.773-8.3672-4.5039-3.8945-7.1641-8.8789-7.8906-14.594-0.72266-5.668 0.46094-12.039 3.6367-18.738 5.2734-11.129 16.059-23.219 32.727-34.562 52.316-36.664 55.512-47.254 65.715-81.008 0.70313-2.3242 1.4375-4.7578 2.1289-7.0195l0.007812-0.011719c8.6836-26.68 19.359-48.586 31.324-63.914 7.9023-10.129 16.379-17.395 25.215-21.277 8.8867-3.9023 18.137-4.3867 27.535-0.92578 5.6133 2.0664 11.273 5.543 16.934 10.535 9.9961 7.6445 18.531 11.734 27.91 13.895 9.4062 2.168 19.688 2.3984 33.152 2.332 25.137-1.8516 44.059 5.2617 58.828 20.961 14.707 15.641 25.246 39.789 33.656 72.086 0.29688 1.1484 0.59375 2.2852 0.88281 3.4062zm46.297 81.281c-28.973-29.328-34.613-51.051-43.027-83.469-0.30078-1.1562-0.60547-2.3281-0.91406-3.5156-8.1914-31.457-18.098-55.273-32.352-71.203-14.203-15.875-32.773-23.938-58.344-23.934h-0.035156c-14.191-0.78125-24.727-1.5391-34.32-4.2227-9.6289-2.6875-18.273-7.293-28.652-15.754l-0.03125-0.027343c-5.9258-5.3984-11.844-9.1289-17.703-11.324-9.332-3.5039-18.535-3.1094-27.41 0.65625-8.9258 3.7812-17.535 10.973-25.637 21.031-12.949 16.086-24.562 39.492-34.031 68.055-0.94922 2.9883-1.8711 5.9922-2.7539 8.832-10.492 33.961-14.133 45.75-68.984 84.562l-0.007813 0.003906c-17.203 11.891-28.363 24.426-33.805 35.863-3.1797 6.6914-4.3945 12.992-3.7031 18.547 0.68359 5.5117 3.2461 10.316 7.6289 14.055 4.9102 4.1914 12.098 7.0703 21.484 8.1523 3.1602 0.34766 6.3633 0.55859 9.5234 0.77344 19.008 1.2812 36.391 2.457 39.484 30.66 0.84375 6.5195 1.3828 12.484 1.8711 17.914 2.1992 24.367 3.3945 37.586 27.625 42.109 37.98 7.0938 39.871 12.031 53.809 48.438 0.91406 2.3945 1.8672 4.8867 2.0664 5.4023 3.1367 8.1523 7.5664 14.535 12.84 19.285 6.8242 6.1406 15.062 9.543 23.742 10.477 8.707 0.9375 17.852-0.60547 26.461-4.3555 8.9844-3.9102 17.379-10.227 24.07-18.633 6.0273-7.5742 13.027-15.293 24.793-21.762 11.723-6.4414 28.168-11.621 53.086-14.125 54.445-5.4727 69.402-21.953 104.07-60.137 1.5859-1.7422 3.207-3.5352 4.9414-5.4336 15.277-16.777 16.211-33.504 9.6953-49.723-6.582-16.367-20.73-32.27-35.477-47.195zm-41.652-83.871c8.3516 32.172 13.949 53.734 42.633 82.77 14.855 15.039 29.125 31.082 35.805 47.703 6.7422 16.766 5.7812 34.055-9.9883 51.375-1.6523 1.8125-3.3125 3.6445-4.9336 5.4258-34.918 38.465-49.988 55.062-104.96 60.594-24.715 2.4844-40.988 7.6055-52.566 13.969-11.539 6.3398-18.422 13.934-24.352 21.391-6.8398 8.5938-15.426 15.051-24.621 19.055-8.8203 3.8398-18.203 5.418-27.141 4.457-8.9609-0.96094-17.473-4.4805-24.527-10.828-5.4414-4.8945-10.008-11.477-13.238-19.871-1.2461-3.2344-1.6719-4.3438-2.0742-5.4023-13.668-35.715-15.523-40.559-52.727-47.508-25.301-4.7227-26.531-18.352-28.797-43.465-0.48828-5.4023-1.0234-11.344-1.8672-17.863l-0.003907-0.015625c-2.9492-26.941-19.77-28.07-38.152-29.312-3.1602-0.21484-6.3633-0.42969-9.582-0.77734h-0.003906c-9.6641-1.1172-17.109-4.1094-22.227-8.4805-4.6836-3.9961-7.4219-9.1367-8.1523-15.043-0.72656-5.8633 0.53125-12.461 3.8438-19.426 5.543-11.664 16.871-24.398 34.293-36.449 54.438-38.516 58.039-50.176 68.414-83.766 0.84375-2.7305 1.7344-5.6133 2.7617-8.8594l0.003906-0.011719c9.5273-28.73 21.227-52.305 34.293-68.539 8.2461-10.242 17.043-17.574 26.191-21.449 9.1992-3.8984 18.738-4.3086 28.406-0.68359 6.0156 2.2578 12.078 6.0742 18.133 11.59 10.211 8.3242 18.703 12.852 28.137 15.488 9.4688 2.6445 19.93 3.3984 34.027 4.1719 25.973 0.007813 44.863 8.2227 59.34 24.398 14.434 16.133 24.438 40.156 32.691 71.844 0.30859 1.1875 0.61719 2.3594 0.91406 3.5195zm47.684 83.969c-29.902-30.27-35.727-52.695-44.414-86.152-0.30859-1.1992-0.625-2.4062-0.94531-3.6328-8.0391-30.863-17.422-54.574-31.406-70.992-13.945-16.371-32.516-25.523-58.961-27.344l-0.027344-0.003906c-14.801-1.625-25.484-2.9102-35.137-6.0703-9.6797-3.1758-18.277-8.2188-28.852-17.355l-0.023437-0.019532c-6.3203-5.9141-12.625-9.9844-18.875-12.363-9.6172-3.6641-19.121-3.3398-28.312 0.42969-9.2383 3.7891-18.176 11.062-26.613 21.258-14.047 16.977-26.676 42.023-36.98 72.613-1.1953 3.668-2.3125 7.2148-3.3633 10.555-10.676 33.914-14.723 46.773-71.688 87.418l-0.007813 0.003906c-17.961 12.605-29.672 25.785-35.391 37.758-3.3203 6.957-4.6094 13.488-3.918 19.234 0.6875 5.6992 3.332 10.645 7.8906 14.492 5.0195 4.2383 12.355 7.1562 21.949 8.2734 3.4297 0.38281 6.9258 0.58594 10.395 0.78516 18.75 1.082 36.672 2.125 40.164 30.555 1 7.2539 1.6055 13.867 2.1602 19.84 2.293 24.832 3.5391 38.324 28.41 42.969 39.199 7.3203 41.148 12.418 55.527 49.984 0.94141 2.4531 1.918 5.0117 2.1328 5.5781 3.2422 8.418 7.8164 15.012 13.262 19.914 7.0469 6.3438 15.555 9.8594 24.523 10.82 8.9922 0.96875 18.438-0.62109 27.332-4.4922 9.2773-4.0391 17.945-10.559 24.855-19.242 6.2227-7.8203 13.445-15.785 25.586-22.457 12.098-6.6484 29.07-11.996 54.793-14.582 56.219-5.6562 71.66-22.668 107.45-62.086 1.6367-1.8008 3.3125-3.6484 5.0977-5.6094 15.777-17.328 16.746-34.609 10.012-51.355-6.793-16.902-21.406-33.32-36.629-48.73zm-43.039-86.555c8.6211 33.219 14.402 55.477 44.02 85.457 15.336 15.523 30.066 32.086 36.961 49.234 6.957 17.301 5.9648 35.141-10.305 53.008-1.707 1.8711-3.4219 3.7656-5.0898 5.6016-36.043 39.703-51.598 56.836-108.34 62.543-25.512 2.5664-42.32 7.8516-54.273 14.422-11.914 6.5469-19.023 14.391-25.148 22.09-7.0586 8.8711-15.922 15.531-25.406 19.664-9.1055 3.9609-18.785 5.5977-28.004 4.6016-9.2461-0.99609-18.031-4.6211-25.309-11.172-5.6094-5.0508-10.324-11.84-13.656-20.504-1.2734-3.3086-1.7148-4.4609-2.1406-5.5781-14.117-36.879-16.031-41.887-54.453-49.059-25.938-4.8438-27.219-18.742-29.578-44.316-0.54688-5.9258-1.1523-12.492-2.1562-19.77v-0.011719c-3.332-27.195-20.676-28.195-38.824-29.246-3.4883-0.20312-7.0078-0.40625-10.469-0.79297h-0.003906c-9.8711-1.1523-17.457-4.1797-22.688-8.5938-4.8555-4.1016-7.6758-9.3906-8.4141-15.492-0.73047-6.0508 0.60547-12.875 4.0547-20.109 5.8203-12.195 17.695-25.582 35.875-38.34 56.559-40.359 60.566-53.082 71.129-86.641 1.0273-3.2695 2.1211-6.7383 3.3711-10.578l0.003907-0.007812c10.371-30.773 23.09-55.992 37.25-73.109 8.5859-10.379 17.711-17.785 27.168-21.668 9.5117-3.9023 19.348-4.2383 29.305-0.44141 6.4258 2.4492 12.891 6.6133 19.34 12.648 10.41 8.9961 18.859 13.953 28.352 17.062 9.5234 3.1172 20.137 4.3945 34.84 6.0078 26.848 1.8477 45.723 11.168 59.926 27.844 14.16 16.621 23.633 40.527 31.73 71.605 0.32031 1.2266 0.63281 2.4375 0.94531 3.6328zm49.07 86.656c-30.836-31.215-36.84-54.336-45.797-88.844-0.32031-1.2344-0.64453-2.4805-0.97266-3.7461-7.8828-30.266-16.746-53.867-30.469-70.777-13.688-16.867-32.25-27.121-59.574-30.758h-0.019531c-15.406-2.4727-26.242-4.2812-35.957-7.9258-9.7305-3.6523-18.277-9.1367-29.051-18.953l-0.015625-0.011719c-6.6992-6.4258-13.398-10.836-20.043-13.402-9.9141-3.832-19.723-3.5703-29.23 0.21484-9.5508 3.8047-18.816 11.172-27.594 21.523-15.129 17.848-28.77 44.527-39.914 77.125-1.4609 4.3633-2.75 8.3984-3.9609 12.18-10.867 33.984-15.316 47.898-74.41 90.379h-0.003907c-18.723 13.316-30.984 27.152-36.977 39.664-3.457 7.2188-4.8203 13.977-4.125 19.914 0.6875 5.8828 3.4141 10.977 8.1367 14.926 5.1367 4.293 12.621 7.2422 22.426 8.4023 3.6367 0.41797 7.3906 0.59375 11.141 0.77344 18.594 0.88672 37.094 1.7695 40.973 30.496 1.1523 7.9727 1.8359 15.219 2.4453 21.711 2.3789 25.32 3.6719 39.098 29.191 43.863 40.414 7.5469 42.422 12.805 57.25 51.535 0.95703 2.5078 1.957 5.1094 2.2031 5.75 3.3438 8.6836 8.0625 15.492 13.684 20.547 7.2695 6.543 16.055 10.172 25.305 11.168 9.2773 1 19.027-0.64453 28.195-4.6367 9.5703-4.1641 18.512-10.895 25.641-19.852 6.4141-8.0625 13.863-16.277 26.379-23.152 12.477-6.8555 29.977-12.367 56.5-15.035 57.988-5.832 73.914-23.379 110.83-64.039 1.6836-1.8594 3.418-3.7656 5.2578-5.7852 16.277-17.879 17.277-35.711 10.332-52.988-7.0117-17.438-22.082-34.371-37.781-50.266zm-44.422-89.242c8.8945 34.262 14.855 57.219 45.406 88.145 15.816 16.012 31.004 33.09 38.109 50.77 7.1719 17.836 6.1484 36.223-10.621 54.641-1.7617 1.9336-3.5273 3.8828-5.2539 5.7812-37.172 40.941-53.211 58.609-111.72 64.496-26.316 2.6484-43.652 8.0977-55.984 14.875-12.289 6.7539-19.625 14.844-25.945 22.785-7.2773 9.1445-16.41 16.016-26.195 20.273-9.3867 4.0859-19.367 5.7656-28.871 4.7461-9.5312-1.0234-18.586-4.7656-26.086-11.516-5.7891-5.207-10.645-12.211-14.078-21.133-1.2891-3.3516-1.7578-4.5781-2.207-5.75-14.562-38.043-16.539-43.207-56.172-50.609-26.59-4.9648-27.922-19.148-30.363-45.215-0.60547-6.4375-1.2773-13.613-2.4414-21.629v-0.007812c-3.7109-27.488-21.617-28.344-39.621-29.203-3.7812-0.17969-7.5703-0.35938-11.234-0.78125h-0.003906c-10.078-1.1914-17.816-4.2539-23.152-8.7148-5.0312-4.207-7.9336-9.6484-8.6719-15.938-0.73438-6.2383 0.67969-13.293 4.2695-20.789 6.0977-12.727 18.52-26.766 37.457-40.234 58.695-42.195 63.102-55.965 73.855-89.605 1.2109-3.7969 2.5078-7.8438 3.9648-12.199l0.003907-0.007812c11.211-32.785 24.945-59.641 40.191-77.633 8.9258-10.527 18.375-18.035 28.156-21.926 9.8242-3.9141 19.965-4.1836 30.215-0.22266 6.8203 2.6367 13.676 7.1484 20.516 13.703 10.625 9.6719 19.031 15.074 28.59 18.656 9.5781 3.5977 20.355 5.3945 35.68 7.8516 27.703 3.6953 46.551 14.117 60.477 31.277 13.887 17.117 22.828 40.898 30.762 71.363 0.32812 1.2656 0.65234 2.5156 0.97266 3.75zm50.457 89.344c-31.77-32.16-37.953-55.98-47.184-91.531-0.33203-1.2695-0.66406-2.5586-1.0039-3.8594-7.7266-29.672-16.07-53.16-29.527-70.57-13.426-17.367-31.988-28.719-60.188-34.18h-0.007812c-16.016-3.3203-27.008-5.6523-36.777-9.7812-9.793-4.1406-18.285-10.055-29.254-20.543l-0.007812-0.007812c-7.0781-6.9336-14.168-11.688-21.203-14.441-10.215-4-20.336-3.8047-30.16 0.003906-9.875 3.8281-19.469 11.297-28.582 21.82-16.203 18.703-30.852 47.016-42.836 81.613-1.6602 4.8438-3.1484 9.4336-4.5391 13.719-11.07 34.145-15.914 49.09-77.145 93.414h-0.003906c-19.484 14.031-32.301 28.523-38.574 41.566-3.5977 7.4766-5.0312 14.461-4.3359 20.59 0.69141 6.0664 3.4961 11.312 8.3867 15.359 5.2422 4.3477 12.887 7.332 22.902 8.5312 3.8008 0.44531 7.7812 0.59375 11.789 0.74609 18.52 0.6875 37.617 1.4023 41.883 30.461 1.3281 8.7383 2.0664 16.562 2.7305 23.547 2.4531 25.832 3.7891 39.902 29.977 44.793 41.629 7.7734 43.703 13.191 58.977 53.086 0.98047 2.5625 2 5.2305 2.2695 5.9258 3.4453 8.9492 8.3125 15.965 14.105 21.184 7.4961 6.7461 16.547 10.484 26.086 11.508 9.5625 1.0273 19.613-0.66406 29.062-4.7812 9.8633-4.293 19.082-11.23 26.43-20.461 6.6094-8.3047 14.281-16.766 27.176-23.855 12.855-7.0625 30.883-12.738 58.211-15.492 59.754-6.0078 76.168-24.09 114.2-65.988 1.7383-1.9141 3.5234-3.8828 5.418-5.9609 16.781-18.434 17.812-36.809 10.648-54.625-7.2266-17.969-22.758-35.422-38.938-51.801zm-45.809-91.934c9.168 35.305 15.309 58.965 46.793 90.836 16.293 16.492 31.941 34.09 39.266 52.305 7.3828 18.371 6.332 37.305-10.941 56.277-1.8164 1.9961-3.6367 4-5.4102 5.957-38.293 42.18-54.816 60.383-115.1 66.449-27.121 2.7266-44.984 8.3477-57.691 15.332-12.672 6.9648-20.227 15.297-26.742 23.48-7.4961 9.418-16.906 16.496-26.98 20.883-9.6641 4.2109-19.945 5.9375-29.738 4.8867-9.8164-1.0586-19.145-4.9062-26.867-11.863-5.9609-5.3633-10.965-12.574-14.504-21.77-1.3164-3.4219-1.8047-4.6953-2.2734-5.9258-15.012-39.211-17.047-44.531-57.895-52.164-27.254-5.0898-28.629-19.566-31.148-46.145-0.66016-6.9648-1.4023-14.77-2.7188-23.457v-0.003907c-4.0859-27.824-22.578-28.516-40.516-29.18-4.0547-0.15234-8.082-0.29688-11.902-0.75-10.289-1.2266-18.176-4.3281-23.625-8.8477-5.2031-4.3086-8.1875-9.8984-8.9297-16.379-0.73438-6.418 0.75391-13.703 4.4883-21.453 6.3789-13.258 19.352-27.949 39.043-42.129 60.836-44.039 65.637-58.84 76.598-92.648 1.3633-4.207 2.8242-8.7109 4.5508-13.742v-0.003906c12.047-34.781 26.797-63.266 43.129-82.117 9.2656-10.699 19.047-18.305 29.145-22.215 10.145-3.9336 20.594-4.1367 31.141-0.003907 7.207 2.8242 14.453 7.6758 21.672 14.746 10.84 10.359 19.211 16.199 28.824 20.262 9.6328 4.0742 20.578 6.3867 36.52 9.6953 28.566 5.5352 47.387 17.062 61.031 34.707 13.613 17.605 22.027 41.266 29.801 71.125 0.33984 1.3047 0.67578 2.5859 1.0039 3.8594zm4.6484-2.5859c9.4375 36.348 15.762 60.707 48.176 93.52 16.773 16.98 32.879 35.09 40.418 53.84 7.5977 18.902 6.5156 38.391-11.258 57.91-1.8672 2.0547-3.7461 4.1211-5.5703 6.1289-39.418 43.418-56.426 62.156-118.48 68.402-27.922 2.8086-46.312 8.5938-59.398 15.785-13.047 7.168-20.828 15.754-27.535 24.184-7.7148 9.6953-17.398 16.977-27.77 21.492-9.9492 4.332-20.531 6.1133-30.605 5.0273-10.102-1.082-19.695-5.0508-27.648-12.207-6.1289-5.5234-11.281-12.938-14.922-22.402-1.3438-3.4844-1.8516-4.8125-2.3398-6.1016-15.457-40.379-17.551-45.855-59.617-53.715-27.926-5.2148-29.34-20-31.934-47.102-0.71484-7.4492-1.5195-15.844-3.0039-25.254-4.457-28.195-23.566-28.703-41.504-29.176-4.2969-0.11328-8.5273-0.22656-12.477-0.70312-10.5-1.2656-18.543-4.4062-24.105-8.9766-5.375-4.418-8.4375-10.152-9.1836-16.812-0.73828-6.6094 0.82422-14.113 4.6953-22.125 6.6562-13.789 20.184-29.137 40.637-44.031 62.988-45.875 68.18-61.699 79.352-95.762 1.5352-4.6797 3.1797-9.6953 5.1172-15.227 12.883-36.766 28.645-66.871 46.047-86.574 9.6016-10.875 19.719-18.59 30.137-22.527 10.465-3.9531 21.227-4.0938 32.074 0.20703 7.6055 3.0117 15.238 8.2109 22.836 15.801 11.039 11.035 19.371 17.309 29.047 21.852 9.6992 4.5508 20.797 7.3945 37.348 11.543 29.426 7.375 48.23 20.008 61.598 38.145 13.336 18.098 21.219 41.633 28.84 70.883 0.35156 1.3438 0.69141 2.6641 1.0312 3.9727z"/>
</svg>
