<?xml version="1.0" encoding="UTF-8"?>
<svg width="512pt" height="512pt" version="1.1" viewBox="0 0 512 512" xmlns="http://www.w3.org/2000/svg">
 <path d="m496.41 360.48v61.492h-0.51562c-0.63672 25.094-11.477 48.844-30.012 65.77h-78.156c-9.4688 0.011718-18.598 3.5625-25.586 9.9531h83.762c0.82812 0.058594 1.5273 0.64063 1.7305 1.4492 0.20312 0.80469-0.14062 1.6523-0.84375 2.0898-11.855 6.3047-24.938 9.9531-38.344 10.691h-137.95c-29.844-0.070312-59.441-5.3867-87.445-15.703 13.395-17.715 17.125-40.918 9.9531-61.938l-1.7695-5.2344h-0.51562l-8.4062 8.9219c0.44141 1.1797 0.73828 2.3594 1.1055 3.6133-0.027344 0.41797-0.027344 0.83594 0 1.2539 0 0.73828 0.36719 1.5469 0.51562 2.3594v1.5469 2.0664 1.6953c0.035157 0.63672 0.035157 1.2773 0 1.918 0.035157 0.61328 0.035157 1.2266 0 1.8398v1.8438 1.918 1.6953 2.0664c0.035157 0.51563 0.035157 1.0312 0 1.5469 0 0.73828 0 1.4766-0.36719 2.1367v1.4023c-0.12891 0.77344-0.30078 1.5352-0.51562 2.2852v1.2539l-0.66406 2.3594s0 0.66406-0.36719 0.95703l-0.88672 2.582v0.58984c-2.2461 5.5078-5.3281 10.629-9.1445 15.191-0.97656 1.2461-2.0352 2.4297-3.168 3.5391-7.3789 7.332-16.648 12.477-26.777 14.855-10.125 2.3828-20.715 1.9102-30.59-1.3633-5.543-16.434-3.1719-34.508 6.418-48.961l-2.7266-1.9922-1.8477-1.0273-4.4961-3.3164c-80.297-66.512-119.52-181.02-73.734-298.99 11.75-30.426 29.664-58.094 52.617-81.262 22.957-23.168 50.453-41.344 80.766-53.375 136.62-53.898 268.02 5.75 326.86 111.34h-24.254c-4.6758-9.7891-11.012-18.695-18.73-26.324l-7.375 0.88672h0.003906c5.6328 7.7578 10.035 16.336 13.051 25.438h-24.996c-28.387-90.102-129.84-147.69-235.13-102.71-35.398 15.254-63.66 43.41-79.043 78.746-51.613 118.71 28.02 233.51 137.88 243.32l83.32 0.37109 126.82 0.73828h21.16c2.2422 0 4.3906 0.89453 5.9688 2.4883s2.457 3.75 2.4375 5.9922z"/>
</svg>
