<?xml version="1.0" encoding="UTF-8"?>
<svg width="512pt" height="512pt" version="1.1" viewBox="0 0 512 512" xmlns="http://www.w3.org/2000/svg">
 <defs>
  <clipPath id="b">
   <path d="m94.781 212h92.219v167h-92.219z"/>
  </clipPath>
  <clipPath id="a">
   <path d="m325 212h92.219v167h-92.219z"/>
  </clipPath>
 </defs>
 <path d="m256 159.46-96.586 69.758 22.266 54.07 14.844 36.051h118.96l14.844-36.051 22.262-54.07z" fill-rule="evenodd"/>
 <path d="m345.59 385.25-29.672-54.402h-119.84l-29.672 54.402 89.586 31.617z" fill-rule="evenodd"/>
 <g clip-path="url(#b)">
  <path d="m186.29 324.75-19.145-46.496-19.145-46.492-53.227-19.359v93.289l62.277 72.664z" fill-rule="evenodd"/>
 </g>
 <g clip-path="url(#a)">
  <path d="m417.22 305.69v-93.289l-53.219 19.352-19.145 46.492-19.152 46.504 29.238 53.598z" fill-rule="evenodd"/>
 </g>
 <path d="m261.76 96.723v52.688l98.781 71.348 52.934-19.25-62.953-78.688z" fill-rule="evenodd"/>
 <path d="m151.46 220.76 98.781-71.348v-52.688l-88.766 26.098-62.941 78.688z" fill-rule="evenodd"/>
</svg>
