<?xml version="1.0" encoding="UTF-8"?>
<svg width="128pt" height="128pt" version="1.1" viewBox="0 0 128 128" xmlns="http://www.w3.org/2000/svg">
 <g>
  <path d="m62.023 39.219-8.25 24.672 0.63281 24.805-1.8203 7.4492 3.8828-7.6875 0.83203-24.328 10.949-30.191z"/>
  <path d="m56.848 35.809-1.1836 15.766-15.387 9.4648-0.94922 21.555-7.4531 7.9258 4.9961-8.0039 0.15625-21.953 13.152-11.805 3.8633-10.25z"/>
  <path d="m87.98 34.016 6.1797 25.359 2.7734 27.734 7.2109 10.301-4.9883-11.094-0.95312-27.18-3.3203-16.402-1.75-7.0938z"/>
  <path d="m57.602 35.664-1.207 16.102 0.6875 0.046875 4.3594-13.035 5.4688-4.6367z"/>
  <path d="m108.29 46.91-12.543-3.6562 3.1953 15.836 0.53125 15.195 12.863 1.7109 9.2695-11.809z"/>
  <path d="m94.777 72.402-1.293-12.93-6.2344-25.598-9.3828 3.5273-8.918-3.2422-6.5352 18.02 16.324 1.1133 8.957-5.5898-1.9023 13.074z"/>
  <path d="m50.105 46.992 3.3594-8.9102 2.1758-2.0938-5.7461 0.94141-8.7969-6.3398-7.6055 4.0391-4.2812-3.6445-3.4844 0.79297-19.336 17.75 19.969-16.324 1.3477-0.63672 2.9336 3.1719-3.8867 2.9336-1.9805 8.875 3.0938 3.5664 22.027-7.6094z"/>
 </g>
</svg>
