<?xml version="1.0" encoding="UTF-8"?>
<svg width="512pt" height="512pt" version="1.1" viewBox="0 0 512 512" xmlns="http://www.w3.org/2000/svg">
 <defs>
  <clipPath id="d">
   <path d="m94.781 145h226.22v146h-226.22z"/>
  </clipPath>
  <clipPath id="c">
   <path d="m282 140h135.22v151h-135.22z"/>
  </clipPath>
  <clipPath id="b">
   <path d="m94.781 226h226.22v173h-226.22z"/>
  </clipPath>
  <clipPath id="a">
   <path d="m256 226h161.22v173h-161.22z"/>
  </clipPath>
 </defs>
 <g clip-path="url(#d)">
  <path d="m110.67 228.91 197.06 49.266-23.914-95.664-101.4-25.352zm204.45 62.023c-0.43359 0-0.86719-0.050782-1.2969-0.16016l-214.96-53.738c-1.8789-0.46875-3.3594-1.9141-3.8789-3.7773-0.51562-1.8672 0.011719-3.8672 1.3789-5.2344l80.609-80.609c1.3359-1.3359 3.2812-1.8789 5.1016-1.4141l107.48 26.867c1.9297 0.48047 3.4336 1.9844 3.9102 3.9141l26.871 107.48c0.46094 1.832-0.082031 3.7656-1.4141 5.0977-1.0156 1.0156-2.3906 1.5742-3.8008 1.5742z" fill-rule="evenodd"/>
 </g>
 <path d="m193.86 148.94 93.387 23.348 36.281-24.188-93.391-23.348zm94.387 34.512c-0.43359 0-0.87109-0.054687-1.3008-0.16016l-107.48-26.871c-2.0664-0.51562-3.6328-2.2031-3.9922-4.293-0.35938-2.1016 0.55078-4.2109 2.3164-5.3906l48.367-32.246c1.2578-0.83594 2.8047-1.1172 4.2812-0.74219l107.48 26.871c2.0625 0.51562 3.6289 2.1992 3.9922 4.293 0.35938 2.1016-0.54688 4.2109-2.3164 5.3906l-48.363 32.246c-0.89453 0.58984-1.9297 0.90234-2.9844 0.90234z" fill-rule="evenodd"/>
 <g clip-path="url(#c)">
  <path d="m294.38 180.45 24.258 97.012 84.789-47.113-67.75-77.43zm20.738 110.48c-0.72266 0-1.4531-0.15234-2.1406-0.44531-1.5312-0.66016-2.6641-2.0039-3.0664-3.6289l-26.871-107.48c-0.55469-2.1953 0.33984-4.5117 2.2305-5.7695l48.367-32.246c2.25-1.4961 5.2539-1.1016 7.0234 0.92969l75.234 85.984c1.0703 1.2266 1.5273 2.8633 1.25 4.4609-0.27734 1.5977-1.2656 2.9883-2.6836 3.7773l-96.734 53.742c-0.80859 0.44922-1.707 0.67578-2.6094 0.67578z" fill-rule="evenodd"/>
 </g>
 <g clip-path="url(#b)">
  <path d="m117.67 241.73 142.23 142.23 47.406-94.82zm143.7 156.68c-1.4102 0-2.7852-0.55469-3.8008-1.5742l-161.22-161.22c-1.7109-1.7031-2.0703-4.3398-0.875-6.4453 1.1914-2.0977 3.6406-3.1602 5.9766-2.5586l214.96 53.738c1.5859 0.39453 2.9023 1.4844 3.5781 2.9609 0.68359 1.4844 0.66016 3.1914-0.070313 4.6562l-53.738 107.48c-0.77344 1.543-2.2422 2.625-3.9492 2.9023-0.28516 0.042969-0.57422 0.066406-0.85938 0.066406z" fill-rule="evenodd"/>
 </g>
 <g clip-path="url(#a)">
  <path d="m319.18 289.45-36.383 72.766 101.87-109.15zm-57.801 108.96c-1.0664 0-2.1328-0.3125-3.0625-0.95703-2.1953-1.5273-2.9375-4.4336-1.7422-6.8203l53.738-107.48c0.48047-0.97266 1.2461-1.7656 2.1992-2.293l96.73-53.742c2.3047-1.2773 5.2188-0.69922 6.8398 1.3867 1.6289 2.0859 1.5 5.0469-0.30078 6.9805l-150.47 161.22c-1.0547 1.125-2.4883 1.707-3.9336 1.707z" fill-rule="evenodd"/>
 </g>
</svg>
