<?xml version="1.0" encoding="UTF-8"?>
<svg width="512pt" height="512pt" version="1.1" viewBox="0 0 512 512" xmlns="http://www.w3.org/2000/svg">
 <path d="m231.34 17.98c-5.2266 2.9219-10.004 6.3203-14.336 10.121 63.297 12.051 127.48 49.305 171.73 96.105 44.48 47.051 79.793 109.15 95.453 172.07 0.84766-1.1367 1.6719-2.293 2.4688-3.4688 2.5469-3.7578 4.8555-7.7266 6.918-11.871-16.191-60.758-51.129-121.43-94.223-167.14-41.016-43.508-109.79-83.922-168.01-95.809zm265.09 150.56c-4.8555-27.098-32.957-68.488-58.488-93.523-25.043-25.531-66.445-53.648-93.57-58.531 32.137 15.848 62.039 37.559 87.895 63.324 26.148 26.055 48.156 56.254 64.164 88.73zm-297.04-118.94c57.016 10.254 127.49 53.523 167.41 96.16 59.434 63.469 82.07 120.87 94.59 171.65 5.6602-3.5156 10.762-7.6719 15.324-12.363-12.371-50.906-41.047-116.08-95.629-173.49-38.195-40.172-111.33-87.164-171.43-96.156-3.8867 4.3672-7.3086 9.1211-10.273 14.199zm-3.1758 117.73c4.5039 11.973 9.6797 21.777 16.969 32.863 20.273 13.586 37.895 28.281 53.812 44.688 15.098 15.559 28.664 32.656 41.523 51.805 11.758 8.8555 21.848 15.309 34.859 21.039-13.555-29.012-36.344-62.188-61.176-87.648-24.633-25.254-53.199-47.449-85.984-62.746zm-10.977-46.984c0.054687 0.67969 0.11328 1.3594 0.17578 2.0391 0.72266 7.6562 2.0312 15.402 3.9102 23.125 42.285 17.59 78.887 47.422 104.29 73.512 35.816 36.789 56.996 70.352 72.301 107.03 8.207 2.3164 16.629 3.9141 25.258 4.7188-18.871-47.828-44.469-89.715-81.914-127.52-37.879-38.242-81.051-66.93-124.03-82.906zm149.13 56.098c-34.438-36.219-93.609-73.855-147.96-89.559-1.0508 6.5469-1.6055 13.297-1.668 20.176 49.766 15.496 103.46 53.086 134.75 86.227 49.672 52.602 71.934 95.723 85.004 138.08 6.8203-0.027344 13.766-0.55469 20.828-1.6172-14.969-47.266-43.836-103.74-90.961-153.3zm23.742-22.16c-37.547-38.605-111.84-83.613-163.95-94.355-1.9023 4.3867-3.5117 8.9531-4.8359 13.668 52.539 14.227 113.38 52.27 155.43 94.305 57.461 57.441 76.75 110.77 90.652 159.96 0.011718 0 0.023437-0.003906 0.03125-0.007812 5.3438-1.1836 10.375-2.8008 15.086-4.8125-8.8594-48.27-34.027-108.73-92.41-168.77zm-221.91-28.777c3.6133 32.93 15.641 64.031 22.566 78.281 15.219 31.309 36.836 61.539 61.797 86.723 22.715 22.918 54.398 49.062 86.445 64.699 28.074 13.703 79.73 28.227 121.08 21.887 36.672-5.625 59.566-22.898 73.43-48.133-11.035 43.57-44.902 57.438-69.062 63.02-44.469 10.27-103.75-3.0898-133.23-18.02-34.73-17.586-65.43-41.434-93.352-68.684-28.438-27.758-51.195-62.598-65.414-94.695-12.543-28.305-19.195-55.902-21.871-83.613-4.5664-47.383 20.227-106.87 72.594-118.55-27.207 14.016-62.238 50.887-54.977 117.09zm-10.391 260.44c32.625 32.852 78.191 64.449 126.39 84.707 33.211 13.961 67.668 22.535 99.996 22.434-31.91 8.1758-69.879 0.90625-106.93-13.91-50.832-20.328-99.945-54.863-129.34-83.234-21.707-20.949-61.141-71.012-81.223-128.86-12.543-36.113-22.355-82.438-10.785-119.42-4.043 32.113 3.0625 68.055 18.426 113.06 12.207 35.754 36.141 77.559 83.477 125.22zm20.086-361.13c-59.062 41.297-45.621 133.3-19.332 191.77 16.07 35.738 39.316 70.227 68.172 99.273 35.703 35.938 62.977 55.02 99.133 72.016 32.973 15.496 68.547 24.648 104.65 23.93 32.371-0.64453 61.398-7.2461 81.598-31.734-15.754 32.121-45.461 42.027-80.238 44.641-39.375 2.957-77.723-5.7266-113.4-21.594-38.133-16.965-71.434-37.891-105.88-72.418-30.777-30.852-56.305-66.785-71.367-106.24-49.453-129.56-6.3164-182.04 36.664-199.64zm-0.16016 341.16c38.734 37.41 73.859 60.145 119.01 80.406 58.695 26.336 105.34 31.234 135.77 20.941-41.152 21.074-91.121 9.2148-140.8-10.492-40.059-15.895-86.52-42.832-124.29-80.461-31.184-32.465-67.109-80.457-82.785-123.33-17.918-48.988-26.637-114.22 5.4922-159.78-9.5977 26.812-24.828 76.391 6.8984 153.91 18.969 46.352 45.68 79.961 80.703 118.8zm131.64 70.043c-18.551-7.4609-37.383-16.973-54.859-27.5-23.219-13.984-45.887-32.461-66.516-53.652-33.316-34.234-61.293-75.562-77.578-116.52-36.488-91.77-12.77-158.8 19.09-183.65-46.508 68.164-13.449 151.72-2.6094 176.69 15.621 39.523 42.574 77.703 74.371 109.89 20.094 20.344 42.125 38.293 64.449 52.676 15.82 10.188 32.395 18.984 49.992 26.664 78.461 34.23 143.47 23.164 171.03-3.0469-44.84 60.129-139.26 33.777-177.36 18.449zm-22.359-435.98c-39.719 2.4922-96.035 39.598-84.953 122.26 3.2383 24.148 11.66 48.195 21.781 68.016 13.754 26.945 35.188 55.938 54.352 74.379 23.996 23.09 46.871 41.535 75.852 57.898 33.047 18.656 63.012 26.816 100.32 23.543 40.594-3.5625 73.816-28.32 88.535-64.047-3.3477 43.723-44.625 75.32-86.438 80.426-36.105 4.4102-73.215-3.8945-110.05-22.684-31.504-16.07-57.055-36.238-82.215-61.043-15.66-15.441-44.59-53.582-58.223-81.496-9.8008-20.07-18.273-47.051-21.082-74.223-6.2266-60.227 23.656-124.79 102.13-123.03zm-244.42 329.74c10.609 23.914 23.41 44.582 37.082 62.613 10.957 14.449 22.48 27.207 33.887 38.582 6.3828 6.3672 16.215 15.426 28.809 25.383 19.195 15.18 48.895 35.09 74.375 45.473-32.062-8.9375-58.777-23.605-79.805-39.059-11.809-8.6797-21.699-17.918-30.035-25.77-10.848-10.215-22.672-24.508-33.402-40.867-13.266-20.219-24.859-43.602-30.91-66.355zm-10.344-88.879c2.6836 23.273 9.7305 46.816 19.848 69.559 17.844 40.121 45.223 77.727 74.977 106.88 33.852 33.164 96.961 79.566 159.23 94.668-59.883-6.5312-123.89-45.344-166.33-87.684-27.234-27.18-54.57-63.215-71.379-102.03-11.465-26.477-18.039-54.246-16.348-81.383zm7.6914-49.238c0.64453 31.602 7.707 60.93 17.871 87.105 25.98 66.918 72.215 113.23 83.25 124.2 72.145 71.629 158.36 100.65 196.39 104.05-91.281 1.3867-177.22-69.832-204.05-96.32-21.574-21.293-60.004-65.996-80.848-120.86-11.535-30.363-17.684-63.836-12.609-98.176zm448.37-19.266c-16.5-27.152-37.938-53.027-49.934-65.656-25.125-26.449-59.172-50.594-91.523-67.504-19.141-10.004-41.531-19.699-55.66-24.121-8.0078-2.5078-9.7539-3.2109-18.656-5.1523 7.2695-2.707 15.141-1.8516 22.48-0.26172 15.871 3.4336 44.543 15.535 57.992 22.609 44.883 23.609 73.539 48.867 91.984 67.762 19.395 19.871 35.91 42.469 51.051 67.438 6.2812 10.363 25.344 44.816 35.945 73.684 5.2461 14.281 4.7891 22.609 1.5938 30.66-2.0508-8.2461-3.1016-10.805-7.6289-22.555-11.184-29.051-30.398-64.977-37.645-76.902zm55.676 74.098c-14.746-53.156-56.746-116.94-92.246-153.41-36.297-37.285-93.203-78.039-145.44-92.383 49.488-0.48828 126.64 59.832 151.52 86.672 39.859 42.996 82.809 108.54 86.16 159.12z" fill-rule="evenodd"/>
</svg>
