<?xml version="1.0" encoding="UTF-8"?>
<svg width="512pt" height="512pt" version="1.1" viewBox="0 0 512 512" xmlns="http://www.w3.org/2000/svg">
 <path d="m119.52 142.21 42.184-18.684 51.043 96.832zm-6.9727-64.062v49.66l37.977-16.82zm-16-8.2461-53.895 7.8711 53.895 45.176zm-59.137 24.355 23.031 93.91 86.773-1.8633zm179.41 150.39-50.988-42.738-91.523 1.9688 44.531 40.773zm-95.758 16-18.152 43.297 98-43.297zm43.516 33.539-58.516 25.863 91.344 48.562zm-66.113 39.949 11.035 63.059 33.617-39.32zm17.84 79.711 39.664 28.242 45.516-53.188-43.902-23.34zm94.602-54.277 17.293-93.48-48.98 21.641zm84.277-114.92h97.977l44.531-40.773-91.523-1.9688zm69.605-58.348 86.773 1.8633 23.031-93.91zm34.668-108.16-37.98 32.84 37.977 16.82zm16-8.2461-0.003906 53.047 53.895-45.176zm-65.156 53.621-51.043 96.832 93.223-78.145zm-66.496 142.56 17.293 93.48 31.684-71.84zm122.13 53.961-58.516-25.859-32.828 74.422zm-95.422 68.852 45.516 53.195 39.668-28.242-41.277-48.285zm91.984 8.293 11.035-63.059-44.648 23.734zm-11.562-136.54-79.848 0.003906 98 43.297zm-125.82-16 2.3984-16.961-11.52-10.398-11.52 10.398 2.3984 16.961zm-9.1211 16h-9.8086l-7.207 67.055 17.016 23.16 17.016-23.152-7.207-67.055z"/>
</svg>
