<?xml version="1.0" encoding="UTF-8"?>
<svg width="512pt" height="512pt" version="1.1" viewBox="0 0 512 512" xmlns="http://www.w3.org/2000/svg">
 <path d="m88.816 449.87 356.66-365.97-367.41 355.64c1.0156 1.7695 8.4648 8.1719 10.75 10.328zm339.7-382.77-366.64 355.96c2.1875 2.0039 3.1328 3.625 4.9453 5.3125 2.0547 1.9219 3.5547 3.3438 5.0703 5.5859l356.62-366.86zm-31.281-24.184c-2.8828-2.4062-10.629-7.4023-13.383-8.2891l-345.55 356.29 358.93-348zm19.078 14.016c-0.40234-0.58203-0.15625-0.25391-0.75781-0.84766l-11.348-8.5039-351.98 363.39 364.09-354.04zm44.078 44.961-364.77 353.21c1.9844 2.0898 9.3359 7.7344 12.039 9.1914zm-332.5 375.41c3.7578-3.3047 7.4766-7.3711 11.152-11.043l334.82-344.85-359.27 347.63c2.1602 1.8984 10.305 6.9844 13.293 8.2656zm248.77-446.89c-2.5312-1.6562-11.105-5.9414-14.312-7.0391l-335.81 346.23 350.12-339.19zm108.88 112.32-350.36 338.86c3.7656 1.6641 10.516 6.0781 14.516 6.7852l335.84-345.64zm10.141 22.797-317.23 305.32c-3.2305 3.2305-19.414 18.762-20.656 21.113 1.8984 1.4688 13.133 5.6875 15.879 5.75zm-141.39-145.5c-2.1172-1.6289-12.297-5.1641-15.465-6.0078l-322.05 332.81zm-24.488-8.793c-1.418-0.875-14.164-4.4648-16.043-4.4453-1.9062 0.015625-4.1758 3.1562-5.5273 4.5l-299.6 310.99zm-147.82 489.6c1.8008 0.71484 15.027 4.418 16.48 4.1758 1.918-0.31641 8.793-8.0781 10.559-9.8438l294.53-304.79zm26.516 6.1875c2.5352 1.5312 12.629 2.5156 16.383 2.8867 3.1211 0.30859 3.9336-1.7305 5.7422-3.5391l278.57-289.8-300.7 290.45zm94.973-502.55-18.684-2.5234-282.11 292.37 300.79-289.84zm-50.969-3.6016-252.52 263.09 274.17-262.89-1.1211-0.23828c-5.1836-0.070312-16.781-1.9062-20.531 0.039063zm-12.016 510.3c4.7695 0.03125 15.473 1.9102 18.727-0.19531l252.77-262.67-274.27 262.7zm0.61719-510.16-2.8164-0.097656c-4.4531-0.03125-9.6445 0.67578-14.113 1.2266-7.6328 0.94531-6.2148 0.46094-10.367 4.6172l-212.52 222.63 239.82-228.39zm29.797 509.7 1.1523 0.38281c4.3242 0.050781 9.3281-0.58203 13.664-1.082 6.6875-0.76172 7.4844-0.019532 11.234-3.832l213.69-223.9-239.75 228.43zm-68.48-503.95c1.1211-1.2656 0.26953-0.67969 0.96094-0.89453-2.8008-0.25-16.129 3.6172-19.602 4.6523-2.7852 0.83203-6.8672 1.7812-9.4727 2.9805-2.0391 0.94141-4.8438 4.25-6.5273 5.9336l-158.5 167.69 193.14-180.36zm106.41 499.26c4.5781-0.53906 24.723-5.5352 29.008-7.7891l164.9-173.99zm48.105-15.293c11.594-3.3867 43.527-21.953 52.59-30.945l67.07-73.953-14.867 9.5469-104.8 95.348zm-202.65-469.12c-11.594 3.6992-43.527 23.121-52.59 32.352l-67.648 79.211z" fill-rule="evenodd"/>
</svg>
