<?xml version="1.0" encoding="UTF-8"?>
<svg width="512pt" height="512pt" version="1.1" viewBox="0 0 512 512" xmlns="http://www.w3.org/2000/svg">
 <path d="m127.8 254.85c0 1.9805-1.6094 3.5898-3.5898 3.5898-1.9805 0-3.5898-1.6094-3.5898-3.5898v-213.77c0-1.9805 1.6094-3.5898 3.5898-3.5898 1.9805 0 3.5898 1.6094 3.5898 3.5898zm80.688 248.97c-1.9805 0-3.5898-1.6016-3.5898-3.5898 0-1.9805 1.6094-3.5898 3.5898-3.5898h93.285c1.9805 0 3.5898 1.6094 3.5898 3.5898 0 1.9883-1.6094 3.5898-3.5898 3.5898zm-41.109-18.656c-1.9883 0-3.5898-1.6016-3.5898-3.5898 0-1.9805 1.6016-3.5898 3.5898-3.5898h179.61c1.9805 0 3.5898 1.6094 3.5898 3.5898 0 1.9883-1.6094 3.5898-3.5898 3.5898zm-18.344-18.656c-1.9805 0-3.5898-1.6094-3.5898-3.5898 0-1.9805 1.6094-3.5898 3.5898-3.5898h209.73c1.9805 0 3.5898 1.6094 3.5898 3.5898 0 1.9805-1.6094 3.5898-3.5898 3.5898zm-15.176-18.652c-1.9805 0-3.5898-1.6133-3.5898-3.5938 0-1.9805 1.6094-3.5898 3.5898-3.5898 35.68 0 69.656 0.30078 103.63 0.60938 32.41 0.28516 64.82 0.57812 103.58 0.57812 1.9883 0 3.5938 1.6094 3.5938 3.5898 0 1.9805-1.6094 3.5898-3.5938 3.5898-35.68 0-69.656-0.30078-103.63-0.60938-32.406-0.28516-64.812-0.57422-103.58-0.57422zm-8.9609-18.664c-1.9805 0-3.5898-1.6094-3.5898-3.5898 0-1.9805 1.6094-3.5898 3.5898-3.5898h187.7c1.9883 0 3.5898 1.6094 3.5898 3.5898 0 1.9805-1.6016 3.5898-3.5898 3.5898zm-8.9922-18.656c-1.9805 0-3.5898-1.6016-3.5898-3.5898 0-1.9805 1.6094-3.5898 3.5898-3.5898h182c0.36719 0 0.72656 0.054688 1.0664 0.16406-0.26562-0.5-0.41406-1.0703-0.41406-1.6758v-213.77c0-1.9805 1.6094-3.5898 3.5898-3.5898 1.9805 0 3.5898 1.6094 3.5898 3.5898v213.77c0 1.9805-1.6094 3.5898-3.5898 3.5898-0.36719 0-0.72656-0.054688-1.0664-0.16406 0.26172 0.5 0.41406 1.0703 0.41406 1.6758 0 1.9883-1.6094 3.5898-3.5898 3.5898zm-7.8867-18.656c-1.9805 0-3.5898-1.6016-3.5898-3.5898 0-1.9805 1.6094-3.5898 3.5898-3.5898h159.12c1.9805 0 3.5898 1.6094 3.5898 3.5898 0 1.9883-1.6094 3.5898-3.5898 3.5898zm-3.9336-18.656c-1.9805 0-3.5898-1.6016-3.5898-3.5898 0-1.9805 1.6094-3.5898 3.5898-3.5898h146.97c1.9805 0 3.5898 1.6094 3.5898 3.5898 0 1.9883-1.6094 3.5898-3.5898 3.5898zm-1.5625-18.656c-1.9805 0-3.5898-1.6016-3.5898-3.5898 0-1.9805 1.6094-3.5898 3.5898-3.5898h121.85c1.9883 0 3.5898 1.6094 3.5898 3.5898 0 1.9883-1.6016 3.5898-3.5898 3.5898zm3.6562-18.652c-1.9805 0-3.5898-1.6094-3.5898-3.5938 0-1.9805 1.6094-3.5898 3.5898-3.5898h102.38c0.375 0 0.72656 0.054688 1.0664 0.16406-0.027344-0.17969-0.039062-0.35938-0.039062-0.54297v-213.77c0-1.9805 1.6094-3.5898 3.5898-3.5898 1.9805 0 3.5898 1.6094 3.5898 3.5898v213.77c0 1.9805-1.6094 3.5898-3.5898 3.5898-0.36719 0-0.72656-0.054688-1.0664-0.16406 0.03125 0.17969 0.039063 0.35937 0.039063 0.54297 0 1.9883-1.6016 3.5938-3.5898 3.5938zm4.4297-18.656c-1.9805 0-3.5898-1.6133-3.5898-3.5898 0-1.9883 1.6094-3.5938 3.5898-3.5938h68.625c1.9805 0 3.5898 1.6094 3.5898 3.5938 0 1.9766-1.6094 3.5898-3.5898 3.5898zm8.8594-18.664c-1.9883 0-3.5938-1.6016-3.5938-3.5898 0-1.9805 1.6094-3.5898 3.5938-3.5898h34.551c1.9805 0 3.5898 1.6094 3.5898 3.5898 0 1.9883-1.6094 3.5898-3.5898 3.5898zm13.516-18.492c-1.9883 0-3.5898-1.6094-3.5898-3.5898 0-1.9805 1.6016-3.5898 3.5898-3.5898h4.3516c1.9805 0 3.5898 1.6094 3.5898 3.5898 0 1.9805-1.6094 3.5898-3.5898 3.5898zm170.52-271.91c1.9805 0 3.5898 1.6016 3.5898 3.5898 0 1.9805-1.6094 3.5898-3.5898 3.5898h-93.285c-1.9805 0-3.5898-1.6094-3.5898-3.5898 0-1.9883 1.6094-3.5898 3.5898-3.5898zm41.109 18.656c1.9805 0 3.5898 1.6016 3.5898 3.5898 0 1.9805-1.6094 3.5898-3.5898 3.5898h-179.61c-1.9805 0-3.5898-1.6094-3.5898-3.5898 0-1.9883 1.6094-3.5898 3.5898-3.5898zm18.34 18.656c1.9883 0 3.5898 1.6094 3.5898 3.5898 0 1.9805-1.6016 3.5898-3.5898 3.5898h-209.72c-1.9883 0-3.5898-1.6094-3.5898-3.5898 0-1.9805 1.6016-3.5898 3.5898-3.5898zm15.18 18.652c1.9805 0 3.5898 1.6133 3.5898 3.5898 0 1.9883-1.6094 3.5938-3.5898 3.5938-35.688 0-69.656-0.30859-103.63-0.60938-32.41-0.28516-64.82-0.57812-103.58-0.57812-1.9805 0-3.5898-1.6094-3.5898-3.5898 0-1.9805 1.6094-3.5898 3.5898-3.5898 35.688 0 69.664 0.30078 103.64 0.60547 32.406 0.29297 64.812 0.57813 103.58 0.57813zm8.9609 18.664c1.9805 0 3.5898 1.6094 3.5898 3.5898 0 1.9805-1.6094 3.5898-3.5898 3.5898h-187.7c-1.9883 0-3.5938-1.6094-3.5938-3.5898 0-1.9805 1.6094-3.5898 3.5938-3.5898zm8.9922 18.656c1.9805 0 3.5898 1.6016 3.5898 3.5898 0 1.9805-1.6094 3.5898-3.5898 3.5898h-182c-1.9805 0-3.5898-1.6094-3.5898-3.5898 0-1.9883 1.6094-3.5898 3.5898-3.5898zm7.8867 18.656c1.9805 0 3.5898 1.6016 3.5898 3.5898 0 1.9805-1.6094 3.5898-3.5898 3.5898h-159.12c-1.9805 0-3.5898-1.6094-3.5898-3.5898 0-1.9883 1.6094-3.5898 3.5898-3.5898zm3.9336 18.656c1.9805 0 3.5898 1.6016 3.5898 3.5898 0 1.9805-1.6094 3.5898-3.5898 3.5898h-146.97c-1.9805 0-3.5898-1.6094-3.5898-3.5898 0-1.9883 1.6094-3.5898 3.5898-3.5898zm1.5625 18.656c1.9805 0 3.5898 1.6016 3.5898 3.5898 0 1.9805-1.6094 3.5898-3.5898 3.5898h-121.85c-1.9805 0-3.5898-1.6094-3.5898-3.5898 0-1.9883 1.6094-3.5898 3.5898-3.5898zm-3.6602 18.652c1.9883 0 3.5898 1.6094 3.5898 3.5938 0 1.9805-1.6016 3.5898-3.5898 3.5898h-102.38c-1.9805 0-3.5898-1.6094-3.5898-3.5898 0-1.9883 1.6094-3.5938 3.5898-3.5938zm-4.4219 18.656c1.9805 0 3.5898 1.6133 3.5898 3.5898 0 1.9883-1.6094 3.5938-3.5898 3.5938h-68.625c-1.9805 0-3.5898-1.6094-3.5898-3.5938 0-1.9766 1.6094-3.5898 3.5898-3.5898zm-8.8594 18.656c1.9883 0 3.5898 1.6094 3.5898 3.5938 0 1.9805-1.6016 3.5898-3.5898 3.5898h-34.551c-1.9805 0-3.5898-1.6094-3.5898-3.5898 0-1.9883 1.6094-3.5938 3.5898-3.5938zm-13.516 18.5c1.9805 0 3.5898 1.6094 3.5898 3.5898 0 1.9805-1.6094 3.5898-3.5898 3.5898h-4.3516c-1.9805 0-3.5898-1.6094-3.5898-3.5898 0-1.9805 1.6094-3.5898 3.5898-3.5898zm-221.55 47.441c0 1.9805-1.6094 3.5898-3.5898 3.5898s-3.5898-1.6094-3.5898-3.5898v-213.77c0-1.9805 1.6094-3.5898 3.5898-3.5898s3.5898 1.6094 3.5898 3.5898zm29.656 24.5c0 1.9805-1.6094 3.5898-3.5898 3.5898s-3.5898-1.6094-3.5898-3.5898v-213.77c0-1.9805 1.6094-3.5898 3.5898-3.5898s3.5898 1.6094 3.5898 3.5898zm59.309 49c0 1.9805-1.6094 3.5898-3.5898 3.5898-1.9805 0-3.5898-1.6094-3.5898-3.5898v-213.77c0-1.9805 1.6094-3.5898 3.5898-3.5898 1.9805 0 3.5898 1.6094 3.5898 3.5898zm29.656 24.5c0 1.9805-1.6094 3.5898-3.5898 3.5898-1.9805 0-3.5898-1.6094-3.5898-3.5898v-213.77c0-1.9805 1.6094-3.5898 3.5898-3.5898 1.9805 0 3.5898 1.6094 3.5898 3.5898zm59.309 49c0 1.9805-1.6094 3.5898-3.5898 3.5898-1.9805 0-3.5898-1.6094-3.5898-3.5898v-213.77c0-1.9805 1.6094-3.5898 3.5898-3.5898 1.9805 0 3.5898 1.6094 3.5898 3.5898zm29.656 24.492c0 1.9883-1.6094 3.5938-3.5898 3.5938-1.9805 0-3.5898-1.6094-3.5898-3.5938v-213.77c0-1.9805 1.6094-3.5898 3.5898-3.5898 1.9805 0 3.5898 1.6094 3.5898 3.5898zm29.656 24.504c0 1.9805-1.6094 3.5898-3.5898 3.5898-1.9805 0-3.5898-1.6094-3.5898-3.5898v-213.77c0-1.9805 1.6094-3.5898 3.5898-3.5898 1.9805 0 3.5898 1.6094 3.5898 3.5898z"/>
</svg>
