<?xml version="1.0" encoding="UTF-8"?>
<svg width="512pt" height="512pt" version="1.1" viewBox="0 0 512 512" xmlns="http://www.w3.org/2000/svg">
 <path d="m400.52 425.62c-19.352 19.633-35.316 41.992-51.672 64.086l12.285-0.070312c13.461-20.422 29.051-39.539 46.348-57.09 12.547-12.734 26.379-24.16 43.762-35.457 11.191-7.2695 22.48-16.277 33.676-26.23 3.7305-7.4492 7.0781-15.043 10.043-22.754-16.266 15.723-32.875 30.219-49.125 40.773-17.949 11.66-32.273 23.508-45.316 36.738zm-345.82-74.254c-9.3672-16.035-20.301-31.055-33.398-47.691-4.4883-5.6992-8.7422-11.066-12.793-16.184-2.6094-3.2969-5.1367-6.4844-7.5898-9.5938 0.53125 6.2578 1.2969 12.52 2.3008 18.762 3.3047 4.1719 6.7422 8.5195 10.328 13.074 12.91 16.406 23.645 31.113 32.672 46.582 9.0195 15.449 16.453 31.801 22.832 51.559 4.1055 12.719 9.8633 25.98 16.551 39.402 6.2109 5.543 12.664 10.75 19.324 15.613-10.938-19.816-20.602-39.656-26.562-58.133-6.5859-20.402-14.293-37.34-23.668-53.395zm116.2-103.43c13.625 33.566 34.031 49.754 53.652 65.324 20.109 15.949 39.34 31.215 48.309 65.082 12.02 45.434 13.648 48.18 36.641 86.965l10.602 17.84c3.4844 5.8438 6.9688 11.688 10.418 17.531 3.1875-0.98828 6.3672-2.043 9.5312-3.1602-3.8242-6.4922-7.668-12.938-11.508-19.391l-10.602-17.84c-22.332-37.688-23.914-40.352-35.617-84.582-9.7617-36.891-30.203-53.105-51.57-70.059-18.664-14.809-38.082-30.215-50.77-61.477-4.6836-11.543-7.3164-20.305-9.793-28.527-4.1523-13.816-7.8594-26.168-19.941-47.848l-0.019531-0.03125c-18.848-33.246-37.805-66.465-56.828-99.672 4.6797-5.668 9.2578-12.484 13.801-20.996-7.8125 5.6094-19.207 13.922-25.195 20.859 19.984 34.867 39.891 69.754 59.688 104.66 11.523 20.68 15.105 32.609 19.117 45.957 2.5234 8.3828 5.207 17.328 10.09 29.355zm-32.477-8.1289c13.84 38.027 36.605 58.691 58.27 78.359 20.539 18.637 40.055 36.352 48.941 67.465 5.9102 20.684 9.4414 32.312 14.262 43.598 4.793 11.223 10.844 22.031 21.805 41.09 7.1641 12.457 14.445 24.801 21.742 37.129 3.3789-0.64844 6.7578-1.3711 10.125-2.1641-7.8555-13.273-15.707-26.559-23.371-39.883-10.703-18.613-16.613-29.172-21.289-40.121-4.6484-10.887-8.0938-22.238-13.871-42.465-9.6406-33.742-30.113-52.328-51.656-71.887-20.828-18.898-42.707-38.762-55.738-74.578-2.8203-7.7539-4.9648-14.039-6.875-19.621-6.1602-18.004-9.8906-28.93-23.68-53.453l-0.023438-0.03125c-15.828-27.641-31.68-55.27-47.551-82.898-2.3633 2.5156-4.6719 5.0703-6.9219 7.6641 15.34 26.699 30.664 53.406 45.957 80.121 13.297 23.641 16.934 34.297 22.945 51.863 1.9492 5.7148 4.1523 12.145 6.9375 19.805zm-34.422-12.348c9.5547 27.699 16.344 47.395 62.582 91.707 39.457 37.812 40.648 41.562 53.145 80.883 1.4023 4.4102 2.9414 9.2656 5.2656 16.375 7.5156 23.066 28.93 60.645 49.336 94.883 3.6055-0.26562 7.2109-0.61328 10.816-1.0312-20.844-34.852-43.332-73.895-50.863-96.996-1.6367-5.0117-3.5273-10.973-5.2227-16.309-13.164-41.43-14.418-45.375-55.598-84.844-44.609-42.75-51.09-61.543-60.203-87.965-5.2969-15.355-11.453-33.203-25.965-59.422l-0.019531-0.03125c-11.867-21.004-23.785-42-35.75-62.996-2.168 2.8828-4.2695 5.8047-6.3086 8.7656 11.211 19.68 22.383 39.363 33.508 59.051 14.066 25.414 20.094 42.895 25.281 57.934zm-33.125-5.3398c12.215 32.133 20.938 55.078 72.176 104.99 35.094 34.184 37.793 43.137 45.477 68.617 2.6523 8.8008 5.8789 19.492 11.102 33.703 7.6641 20.863 28.078 54.555 44.957 82.332 3.8711 0.16797 7.75 0.24609 11.633 0.23828-0.86328-1.418-1.7383-2.8594-2.625-4.3164-16.762-27.59-37.301-61.391-44.777-81.734-5.1211-13.922-8.293-24.477-10.914-33.152-8.2031-27.203-11.082-36.754-47.938-72.66-49.754-48.469-58.172-70.609-69.953-101.6-6.4531-16.977-13.895-36.543-29.309-64.234l-0.019531-0.03125c-5.2305-9.207-10.473-18.414-15.719-27.613-1.9336 3.3125-3.7852 6.668-5.5625 10.062 4.2539 7.4688 8.5039 14.938 12.746 22.406 15.062 27.07 22.375 46.309 28.727 63zm31.34 93.312c10.707 11.199 22.312 23.336 35.602 40.168 14.406 18.246 20.016 36.109 25.902 54.859 4.4961 14.344 9.1562 29.191 18 45.453 9.5039 17.465 19.953 34.949 30.375 52.355 4.1641 0.71875 8.3516 1.3398 12.547 1.8516-1.2422-2.0781-2.4844-4.1562-3.7266-6.2305-10.496-17.531-21.035-35.141-30.586-52.695-8.3359-15.324-12.879-29.801-17.266-43.781-6.1445-19.59-12.008-38.25-27.496-57.871-13.422-17-25.273-29.391-36.199-40.828-21.059-22.031-38.637-40.418-58.195-83.16-4.5508-9.9414-8.7461-19.621-12.77-28.902-5.8906-13.582-11.414-26.316-18.281-40.223-1.7344 4.125-3.3594 8.293-4.875 12.504 5.0391 10.668 9.4805 20.918 14.16 31.703 3.8516 8.8789 7.8672 18.137 12.863 29.062 20.211 44.176 38.289 63.09 59.941 85.738zm-21.699 9.3086c17.988 19.121 28.094 31.168 35.582 44.312 7.5 13.168 12.605 27.84 20.551 52.137 6.8672 20.996 22.219 49.605 38.633 77.855 4.5625 1.5078 9.1641 2.8867 13.801 4.1367-18.086-30.664-35.797-62.676-43.137-85.141-8.1328-24.859-13.383-39.922-21.328-53.879-7.9609-13.98-18.402-26.469-36.871-46.102-42.27-44.938-61.719-81.129-80.801-121.21-1.25 5.2734-2.332 10.586-3.2461 15.93 17.801 36.281 37.715 70.371 76.82 111.95zm13.199 62.637m-60.457-86.777c22.645 28.09 50.254 62.328 60.477 86.77 4.4844 10.746 7.5898 19.836 10.523 28.414 5.2461 15.352 9.9414 29.086 21.742 49.762 3.1562 5.5273 6.3359 11.031 9.543 16.516 5.2344 2.7852 10.562 5.3789 15.961 7.7852-5.7305-9.7031-11.422-19.422-16.992-29.184-11.297-19.797-15.875-33.184-20.988-48.145-2.9219-8.5469-6.0195-17.609-10.781-29.012l0.019531-0.011718c-10.668-25.559-38.781-60.43-61.844-89.035-6.9297-8.5938-13.398-16.613-18.855-23.734-8.2891-10.812-15.355-20.801-21.582-30.324-0.34766 5.5977-0.50391 11.211-0.48828 16.836 4.3398 6.2188 9.0625 12.676 14.258 19.453 5.3672 7 11.949 15.164 19 23.906zm4.7578 68.844c-6.7461-13.199-15.516-26.305-27.789-41.664 8.2852 31.57 24.492 62.094 43.938 85.848-4.2539-16.492-9.0664-30.328-16.148-44.188zm75.34-281.4c7.8945-11.195 15.871-26.953 24.551-50.477 1.3711-3.707 2.7109-7.1484 4.0273-10.344-4.5 2.2695-8.9453 4.6836-13.332 7.2383-7.3047 19.73-14.035 33.609-20.621 43.793l5.375 9.793zm15.117 25.637c10.824-14.992 17.934-34.156 23.578-50.93 8.3516-24.793 12.484-37.082 19.746-45.156 1.6016-1.7812 3.3945-3.4023 5.4688-4.9648-6.3945 2.0898-12.727 4.4414-18.973 7.0508-5.0391 8.8086-9.0781 20.797-15.469 39.766-4.8867 14.523-10.91 30.969-19.707 44.43l5.3516 9.7969zm15.336 25.781c8.7891-11.359 17.047-28.941 25.629-58.617 13.371-46.254 16.535-47.605 47.715-60.93 13.219-5.6523 25.918-10.68 37.242-19.906-6.3477 0.054688-12.691 0.34766-19.023 0.87891-7.0742 3.7734-14.805 6.8672-22.18 10.023-34.938 14.93-38.477 16.441-53.105 67.039-7.3477 25.402-14.34 41.27-21.621 51.836l5.3438 9.6836zm13.723 24.957c19.535-18.855 24.57-41.57 29.82-63.559 6.1836-25.859 11.922-49.887 41.699-60.41l6.0195-2.1016c20.426-7.1211 29.336-10.23 47.684-28.379l7.6992-7.7422c-4.1602-0.55469-8.3359-1.0078-12.512-1.3516l-2.1016 2.1133c-16.777 16.602-25.09 19.496-44.145 26.141l-6.0469 2.1289c-34.66 12.246-40.977 38.699-47.781 67.168-4.6602 19.5-10 40.367-25.316 56.891l4.9766 9.1016zm19.375 17.27c18.152-18.105 23.73-40.324 29.051-61.523 6.3633-25.363 12.332-49.141 40.887-59.891 3.4062-1.2812 6.2656-2.3281 8.9102-3.2969 18.988-6.9297 27.301-9.9688 45.738-28.227 6.7578-6.7734 13.484-13.574 20.23-20.355-3.7109-0.97656-7.4453-1.8672-11.191-2.6758l-15.949 16.051c-16.941 16.785-24.668 19.605-42.305 26.043-2.8203 1.0312-5.8867 2.1484-8.9961 3.3164-33.207 12.5-39.766 38.621-46.754 66.484-5.7656 22.969-11.816 45.164-30.793 60.973l3.9453 9.4336c2.5742-1.9648 4.7852-3.9023 7.2305-6.3398zm1.3906 30.953c18.316-9.7578 31.613-23.469 46.391-75.094 13.293-46.434 25.965-51.09 44.375-57.855l-0.011718-0.019531c13.543-4.9766 29.898-10.98 51.07-31.98 10.059-9.9727 20.105-19.957 30.141-29.957-3.3633-1.3242-6.7461-2.5781-10.152-3.7539l-26.895 26.727c-19.699 19.531-34.988 25.148-47.648 29.797l-0.015624-0.015625c-21.078 7.7422-35.582 13.07-50.215 64.203-12.938 45.215-24.906 59.379-40.047 68.281l3.0078 9.6602zm7.9141 23.5c23.422-11.574 37.938-19.75 56.242-78.898 13.441-43.41 27.301-49.453 46.52-57.82 13.637-5.9414 29.754-12.965 49.879-32.953 12.371-12.285 24.73-24.598 37.078-36.918-3.0508-1.6172-6.1328-3.1719-9.2383-4.6602-11.57 11.547-23.152 23.078-34.75 34.594-18.848 18.715-34.094 25.359-46.988 30.977-21.535 9.3828-37.07 16.148-51.797 63.723-16.48 53.234-29.656 62.316-49.746 72.375l2.7969 9.5742zm33.352 10.535c22.184-17.617 29.902-40.586 37.367-62.797 7.4961-22.305 14.715-43.797 36.957-56.562 10.395-5.9688 17.984-10.066 24.145-13.395 22.668-12.242 26.938-14.551 59.031-47.285 7.4766-7.625 14.887-15.316 22.309-22.992-2.7734-1.875-5.5703-3.6914-8.3984-5.4492-6.9609 7.1836-13.898 14.395-20.902 21.539-31.066 31.684-35.145 33.887-56.785 45.574-6.4141 3.4609-14.312 7.7266-24.359 13.496-25.383 14.57-33.172 37.742-41.25 61.797-7.0273 20.902-14.289 42.523-34.277 58.398-8.1211 6.4531-13.512 9.6133-20.266 13.137 1.2734 3.1914 2.6367 6.0977 4.8164 8.5664 6.9766-3.6562 13.094-7.2695 21.609-14.031zm18 20.059c22.066-18.422 28.914-40.055 35.598-61.172 7.0898-22.398 13.984-44.188 40.219-59.496 9.9961-5.8281 17.359-9.6484 23.363-12.758 15.969-8.2812 22.633-11.734 48.035-36.82 12.188-12.035 24.09-24.336 36.023-36.625-2.5234-2.1289-5.0781-4.1992-7.6602-6.2109-11.75 11.98-23.332 24.059-35.273 35.852-24.305 24.004-30.609 27.27-45.734 35.109-5.9648 3.0977-13.277 6.8828-23.758 13.004-29.426 17.164-36.863 40.672-44.512 64.832-6.2773 19.832-12.707 40.145-32.617 56.77-8.3984 7.0117-15.168 10.73-22.961 14.664 1.8789 2.4062 4.5391 5.1758 7.168 7.3711 7.0508-3.6836 14.164-7.8867 22.117-14.52zm13.578 22.766c23.492-19.086 32.031-43.297 40.102-66.184 7.8008-22.117 15.137-42.918 35.805-55.035 10.859-6.3672 18.559-10.121 24.914-13.223 14.477-7.0664 22.238-10.852 46.473-34.723 14.121-13.914 27.871-28.199 41.68-42.422-2.2734-2.3555-4.5938-4.668-6.957-6.9336-13.785 14.195-27.504 28.461-41.602 42.348-23.082 22.738-30.375 26.297-43.984 32.938-6.3789 3.1133-14.105 6.8789-25.559 13.594-23.648 13.859-31.543 36.25-39.938 60.051-7.6328 21.648-15.707 44.555-37.148 61.969-5.6016 4.5508-11.379 8.1914-16.305 11.043 2.1992 2.25 4.8789 4.6836 7.8867 6.8867 4.5742-2.7617 9.3711-6.0273 14.641-10.309zm15.684 20.93c20.895-17.957 30-40.609 38.836-62.598 9.3984-23.395 18.488-46.008 41.688-59.836 10.699-6.3828 18.297-10.484 24.387-13.777 17.5-9.4609 23.012-12.438 51.16-40.746 11.672-11.734 23.129-23.676 34.66-35.547-2.0273-2.5859-4.1094-5.1406-6.2539-7.6641-11.758 12.102-23.438 24.293-35.34 36.258-27.145 27.297-32.371 30.117-48.965 39.09-6.1953 3.3477-13.926 7.5273-24.762 13.984-25.926 15.457-35.602 39.523-45.609 64.426-8.4102 20.93-17.074 42.488-36.227 58.949-3.3438 2.875-6.5547 5.3242-9.6875 7.5 2.4922 1.9414 5.2148 4.5039 7.168 6.9961 2.8984-2.0664 5.8672-4.3789 8.9492-7.0312zm7.332 26.785c26.414-21.203 36.133-44.066 45.688-66.23 10.16-23.602 19.883-46.176 50.195-63.625 40.66-23.402 42.883-25.688 74.305-57.988 9.543-9.8398 19.059-19.707 28.641-29.512-1.7773-2.832-3.6133-5.6367-5.5117-8.4141-10.086 10.312-20.102 20.699-30.145 31.051-30.527 31.383-32.688 33.605-72.27 56.387-33.016 19.004-43.348 42.996-54.145 68.078-8.9883 20.863-18.32 42.531-42.371 62.148 2.1016 2.3711 4.0391 4.9688 5.6211 8.1055zm12.02 24.438c23.246-20.594 34.344-42.957 45.598-64.953 12.645-24.719 24.66-48.195 52.332-64.859 18.398-11.078 28.684-17.508 38.312-25.094 9.5703-7.5469 18.418-16.207 33.941-31.75 10.145-10.16 20.152-20.406 30.148-30.664-1.5039-3.1094-3.0703-6.1914-4.707-9.25-10.758 11.043-21.52 22.09-32.379 32.957-15.164 15.184-23.805 23.641-33.141 31-9.2852 7.3203-19.332 13.594-37.32 24.426-30.012 18.07-42.617 42.707-55.883 68.633-10.402 20.336-20.52 40.832-40.863 59.785 1.5352 3.0586 2.8203 6.2148 3.9609 9.7695zm8.9961 27.902c13.207-12.316 26.828-30.027 45.363-63.961 26.219-47.996 29.516-50.121 64.172-72.402 3.8867-2.5 8.1602-5.2461 14.414-9.3359 20.273-13.25 50.938-43.719 78.641-72.336-1.1875-3.4258-2.457-6.8281-3.7969-10.207-28.18 29.203-59.977 61.09-80.285 74.363-4.4023 2.8789-9.6602 6.2578-14.363 9.2773-36.508 23.473-39.988 25.711-67.352 75.805-16.324 29.883-27.875 46.305-39.5 57.988l2.6992 10.805zm8.3633 28.277c14.836-14.445 30.18-34.586 50.738-71.504 23.855-42.832 31.777-47.766 54.336-61.801 7.7891-4.8477 17.262-10.738 29.598-19.473 18.113-12.82 45.297-41.312 67.691-64.848-0.83984-3.793-1.7695-7.5703-2.7852-11.328l-3.4805 3.6562c-22.238 23.375-49.492 52.012-67.16 64.52-12.09 8.5586-21.438 14.367-29.117 19.152-24.082 14.984-32.539 20.246-57.594 65.23-18.777 33.723-32.277 52.223-45.836 66.027 0.88281 3.543 1.8828 6.7383 3.6055 10.371zm50.055-28.938c8.0195-13.266 16.707-27.648 29.484-44.875 13.852-18.676 29.609-28.727 46.148-39.281 12.656-8.0703 25.754-16.426 39.133-29.195 14.371-13.723 28.508-28.371 42.578-42.965-0.38281-4.2188-0.875-8.4297-1.4648-12.633-15.77 16.344-31.465 32.797-47.891 48.484-12.609 12.039-25.379 20.188-37.711 28.055-17.277 11.023-33.742 21.523-48.637 41.605-12.906 17.398-21.781 32.086-29.965 45.629-10.316 17.066-19.523 32.293-34.762 49.18 1.7383 2.9336 3.3789 6.1211 5.0859 9.0195 17.062-18.379 26.902-34.66 38-53.016zm14.582 18.605c13.77-22.371 22.762-35.273 33.484-45.926 10.746-10.668 23.562-19.414 44.91-33.398 18.449-12.086 42.039-34.355 65.008-57.562 0.27344-4.8086 0.41406-9.6211 0.41797-14.438-24.859 25.449-51.125 50.887-70.859 63.816-21.848 14.309-35 23.289-46.387 34.602-11.406 11.328-20.734 24.672-34.875 47.641-12.234 19.883-24.113 36.273-35.973 50.539l5.4883 8.8086c12.77-15.113 25.559-32.594 38.781-54.074zm-11.027 52.016c21.199-29.203 47.043-64.805 67.945-81.023 9.1914-7.1211 17.145-12.484 24.652-17.547 13.43-9.0547 25.449-17.156 42.316-33.934 4.5117-4.4883 8.9844-8.9922 13.441-13.52 1.3242-5.793 2.4531-11.625 3.3711-17.473-7.8633 8.0586-15.754 16.086-23.719 24.008-16.148 16.062-27.863 23.961-40.953 32.785-7.4766 5.043-15.406 10.387-25.164 17.949l-0.015624-0.015625c-21.863 16.945-48.18 53.195-69.773 82.938-4.5156 6.2227-9.0234 12.453-13.625 18.613l5.3086 9.1562c5.3594-7.1172 10.973-14.719 16.215-21.938zm32.145 15.266c25.418-12.676 55.516-41.102 71.34-64.77-31.27 17.73-50.137 35.828-71.34 64.77z" fill-rule="evenodd"/>
</svg>
