<?xml version="1.0" encoding="UTF-8"?>
<svg width="512pt" height="512pt" version="1.1" viewBox="0 0 512 512" xmlns="http://www.w3.org/2000/svg">
 <defs>
  <clipPath id="af">
   <path d="m0 0h263v268h-263z"/>
  </clipPath>
  <clipPath id="u">
   <path d="m189.22 9.0195c136.47-36.812 276.95 43.973 313.76 180.45 36.812 136.47-43.973 276.95-180.45 313.76-136.47 36.812-276.95-43.973-313.76-180.45-36.812-136.47 43.973-276.95 180.45-313.76z"/>
  </clipPath>
  <clipPath id="j">
   <path d="m0 0h286v292h-286z"/>
  </clipPath>
  <clipPath id="f">
   <path d="m189.22 9.0195c136.47-36.812 276.95 43.973 313.76 180.45 36.812 136.47-43.973 276.95-180.45 313.76-136.47 36.812-276.95-43.973-313.76-180.45-36.812-136.47 43.973-276.95 180.45-313.76z"/>
  </clipPath>
  <clipPath id="e">
   <path d="m0 0h309v315h-309z"/>
  </clipPath>
  <clipPath id="d">
   <path d="m189.22 9.0195c136.47-36.812 276.95 43.973 313.76 180.45 36.812 136.47-43.973 276.95-180.45 313.76-136.47 36.812-276.95-43.973-313.76-180.45-36.812-136.47 43.973-276.95 180.45-313.76z"/>
  </clipPath>
  <clipPath id="c">
   <path d="m0 0h332v338h-332z"/>
  </clipPath>
  <clipPath id="b">
   <path d="m189.22 9.0195c136.47-36.812 276.95 43.973 313.76 180.45 36.812 136.47-43.973 276.95-180.45 313.76-136.47 36.812-276.95-43.973-313.76-180.45-36.812-136.47 43.973-276.95 180.45-313.76z"/>
  </clipPath>
  <clipPath id="a">
   <path d="m0 0h356v361h-356z"/>
  </clipPath>
  <clipPath id="ae">
   <path d="m189.22 9.0195c136.47-36.812 276.95 43.973 313.76 180.45 36.812 136.47-43.973 276.95-180.45 313.76-136.47 36.812-276.95-43.973-313.76-180.45-36.812-136.47 43.973-276.95 180.45-313.76z"/>
  </clipPath>
  <clipPath id="ad">
   <path d="m10 14h369v370h-369z"/>
  </clipPath>
  <clipPath id="ac">
   <path d="m189.22 9.0195c136.47-36.812 276.95 43.973 313.76 180.45 36.812 136.47-43.973 276.95-180.45 313.76-136.47 36.812-276.95-43.973-313.76-180.45-36.812-136.47 43.973-276.95 180.45-313.76z"/>
  </clipPath>
  <clipPath id="ab">
   <path d="m33 37h369v370h-369z"/>
  </clipPath>
  <clipPath id="aa">
   <path d="m189.22 9.0195c136.47-36.812 276.95 43.973 313.76 180.45 36.812 136.47-43.973 276.95-180.45 313.76-136.47 36.812-276.95-43.973-313.76-180.45-36.812-136.47 43.973-276.95 180.45-313.76z"/>
  </clipPath>
  <clipPath id="z">
   <path d="m56 60h369v371h-369z"/>
  </clipPath>
  <clipPath id="y">
   <path d="m189.22 9.0195c136.47-36.812 276.95 43.973 313.76 180.45 36.812 136.47-43.973 276.95-180.45 313.76-136.47 36.812-276.95-43.973-313.76-180.45-36.812-136.47 43.973-276.95 180.45-313.76z"/>
  </clipPath>
  <clipPath id="x">
   <path d="m79 83h370v371h-370z"/>
  </clipPath>
  <clipPath id="w">
   <path d="m189.22 9.0195c136.47-36.812 276.95 43.973 313.76 180.45 36.812 136.47-43.973 276.95-180.45 313.76-136.47 36.812-276.95-43.973-313.76-180.45-36.812-136.47 43.973-276.95 180.45-313.76z"/>
  </clipPath>
  <clipPath id="v">
   <path d="m103 107h369v370h-369z"/>
  </clipPath>
  <clipPath id="t">
   <path d="m189.22 9.0195c136.47-36.812 276.95 43.973 313.76 180.45 36.812 136.47-43.973 276.95-180.45 313.76-136.47 36.812-276.95-43.973-313.76-180.45-36.812-136.47 43.973-276.95 180.45-313.76z"/>
  </clipPath>
  <clipPath id="s">
   <path d="m126 130h369v370h-369z"/>
  </clipPath>
  <clipPath id="r">
   <path d="m189.22 9.0195c136.47-36.812 276.95 43.973 313.76 180.45 36.812 136.47-43.973 276.95-180.45 313.76-136.47 36.812-276.95-43.973-313.76-180.45-36.812-136.47 43.973-276.95 180.45-313.76z"/>
  </clipPath>
  <clipPath id="q">
   <path d="m149 153h363v359h-363z"/>
  </clipPath>
  <clipPath id="p">
   <path d="m189.22 9.0195c136.47-36.812 276.95 43.973 313.76 180.45 36.812 136.47-43.973 276.95-180.45 313.76-136.47 36.812-276.95-43.973-313.76-180.45-36.812-136.47 43.973-276.95 180.45-313.76z"/>
  </clipPath>
  <clipPath id="o">
   <path d="m172 176h340v336h-340z"/>
  </clipPath>
  <clipPath id="n">
   <path d="m189.22 9.0195c136.47-36.812 276.95 43.973 313.76 180.45 36.812 136.47-43.973 276.95-180.45 313.76-136.47 36.812-276.95-43.973-313.76-180.45-36.812-136.47 43.973-276.95 180.45-313.76z"/>
  </clipPath>
  <clipPath id="m">
   <path d="m196 199h316v313h-316z"/>
  </clipPath>
  <clipPath id="l">
   <path d="m189.22 9.0195c136.47-36.812 276.95 43.973 313.76 180.45 36.812 136.47-43.973 276.95-180.45 313.76-136.47 36.812-276.95-43.973-313.76-180.45-36.812-136.47 43.973-276.95 180.45-313.76z"/>
  </clipPath>
  <clipPath id="k">
   <path d="m219 222h293v290h-293z"/>
  </clipPath>
  <clipPath id="i">
   <path d="m189.22 9.0195c136.47-36.812 276.95 43.973 313.76 180.45 36.812 136.47-43.973 276.95-180.45 313.76-136.47 36.812-276.95-43.973-313.76-180.45-36.812-136.47 43.973-276.95 180.45-313.76z"/>
  </clipPath>
  <clipPath id="h">
   <path d="m242 246h270v266h-270z"/>
  </clipPath>
  <clipPath id="g">
   <path d="m189.22 9.0195c136.47-36.812 276.95 43.973 313.76 180.45 36.812 136.47-43.973 276.95-180.45 313.76-136.47 36.812-276.95-43.973-313.76-180.45-36.812-136.47 43.973-276.95 180.45-313.76z"/>
  </clipPath>
 </defs>
 <g>
  <g clip-path="url(#af)">
   <g clip-path="url(#u)">
    <path d="m14.883 130.62 2.9453 2.9336 116.3-116.69 2.9844 2.9766 120.95-121.36 4.0586 4.0469-120.95 121.36 2.9883 2.9766-116.3 116.69 2.9453 2.9336-120.95 121.36-15.922-15.867z" fill-rule="evenodd"/>
   </g>
  </g>
  <g clip-path="url(#j)">
   <g clip-path="url(#f)">
    <path d="m38.129 153.8c0.98047 0.97656 1.9648 1.957 2.9453 2.9336 38.766-38.898 77.531-77.793 116.3-116.69 0.99609 0.99219 1.9922 1.9844 2.9844 2.9766 40.316-40.453 80.633-80.906 120.95-121.36 1.3516 1.3477 2.707 2.6953 4.0586 4.0469-40.316 40.453-80.633 80.906-120.95 121.36 0.99609 0.99219 1.9922 1.9844 2.9844 2.9766-38.766 38.898-77.531 77.793-116.3 116.69 0.98047 0.97656 1.9648 1.957 2.9453 2.9336-40.316 40.453-80.633 80.906-120.95 121.36-5.3086-5.2891-10.613-10.578-15.922-15.867 40.316-40.453 80.633-80.906 120.95-121.36z" fill-rule="evenodd"/>
   </g>
  </g>
  <g clip-path="url(#e)">
   <g clip-path="url(#d)">
    <path d="m61.371 176.97c0.98047 0.97656 1.9648 1.957 2.9453 2.9336 38.766-38.898 77.531-77.793 116.3-116.69 0.99609 0.99219 1.9922 1.9844 2.9844 2.9766 40.316-40.453 80.633-80.906 120.95-121.36 1.3516 1.3477 2.707 2.6953 4.0586 4.0469-40.316 40.453-80.633 80.906-120.95 121.36 0.99609 0.99219 1.9922 1.9844 2.9844 2.9766-38.766 38.898-77.531 77.793-116.3 116.69 0.98047 0.97656 1.9648 1.957 2.9453 2.9336-40.316 40.453-80.633 80.906-120.95 121.36-5.3086-5.2891-10.613-10.578-15.922-15.867 40.316-40.453 80.633-80.906 120.95-121.36z" fill-rule="evenodd"/>
   </g>
  </g>
  <g clip-path="url(#c)">
   <g clip-path="url(#b)">
    <path d="m84.617 200.14c0.98047 0.97656 1.9648 1.957 2.9453 2.9336 38.766-38.898 77.531-77.793 116.3-116.69 0.99609 0.99219 1.9922 1.9844 2.9844 2.9766 40.316-40.453 80.633-80.906 120.95-121.36 1.3516 1.3477 2.707 2.6953 4.0586 4.0469-40.316 40.453-80.633 80.906-120.95 121.36 0.99609 0.99219 1.9922 1.9844 2.9844 2.9766-38.766 38.898-77.531 77.793-116.3 116.69 0.98047 0.97656 1.9648 1.957 2.9453 2.9336-40.316 40.453-80.633 80.906-120.95 121.36-5.3086-5.2891-10.613-10.578-15.922-15.867 40.316-40.453 80.633-80.906 120.95-121.36z" fill-rule="evenodd"/>
   </g>
  </g>
  <g clip-path="url(#a)">
   <g clip-path="url(#ae)">
    <path d="m107.86 223.32c0.98047 0.97656 1.9648 1.957 2.9453 2.9336 38.766-38.898 77.531-77.793 116.3-116.69 0.99609 0.99219 1.9922 1.9844 2.9844 2.9766 40.316-40.453 80.633-80.906 120.95-121.36 1.3516 1.3477 2.707 2.6953 4.0586 4.0469-40.316 40.453-80.633 80.906-120.95 121.36 0.99609 0.99219 1.9922 1.9844 2.9844 2.9766-38.766 38.898-77.531 77.793-116.3 116.69 0.98047 0.97656 1.9648 1.957 2.9453 2.9336-40.316 40.453-80.633 80.906-120.95 121.36-5.3086-5.2891-10.613-10.578-15.922-15.867 40.316-40.453 80.633-80.906 120.95-121.36z" fill-rule="evenodd"/>
   </g>
  </g>
  <g clip-path="url(#ad)">
   <g clip-path="url(#ac)">
    <path d="m131.11 246.5c0.98047 0.97656 1.9648 1.957 2.9453 2.9336 38.766-38.898 77.531-77.793 116.3-116.69 0.99609 0.99219 1.9922 1.9844 2.9844 2.9766 40.316-40.453 80.633-80.906 120.95-121.36 1.3516 1.3477 2.707 2.6953 4.0586 4.0469-40.316 40.453-80.633 80.906-120.95 121.36 0.99609 0.99219 1.9922 1.9844 2.9844 2.9766-38.766 38.898-77.531 77.793-116.3 116.69 0.98047 0.97656 1.9648 1.957 2.9453 2.9336-40.316 40.453-80.633 80.906-120.95 121.36-5.3086-5.2891-10.613-10.578-15.922-15.867 40.316-40.453 80.633-80.906 120.95-121.36z" fill-rule="evenodd"/>
   </g>
  </g>
  <g clip-path="url(#ab)">
   <g clip-path="url(#aa)">
    <path d="m154.35 269.67c0.98047 0.97656 1.9648 1.957 2.9453 2.9336 38.766-38.898 77.531-77.793 116.3-116.69 0.99609 0.99219 1.9922 1.9844 2.9844 2.9766 40.316-40.453 80.633-80.906 120.95-121.36 1.3516 1.3477 2.707 2.6953 4.0586 4.0469-40.316 40.453-80.633 80.906-120.95 121.36 0.99609 0.99219 1.9922 1.9844 2.9844 2.9766-38.766 38.898-77.531 77.793-116.3 116.69 0.98047 0.97656 1.9648 1.957 2.9453 2.9336-40.316 40.453-80.633 80.906-120.95 121.36-5.3086-5.2891-10.613-10.578-15.922-15.867 40.316-40.453 80.633-80.906 120.95-121.36z" fill-rule="evenodd"/>
   </g>
  </g>
  <g clip-path="url(#z)">
   <g clip-path="url(#y)">
    <path d="m177.59 292.84c0.98047 0.97656 1.9648 1.957 2.9453 2.9336 38.766-38.898 77.531-77.793 116.3-116.69 0.99609 0.99219 1.9922 1.9844 2.9844 2.9766 40.316-40.453 80.633-80.906 120.95-121.36 1.3516 1.3477 2.707 2.6953 4.0586 4.0469-40.316 40.453-80.633 80.906-120.95 121.36 0.99609 0.99219 1.9922 1.9844 2.9844 2.9766-38.766 38.898-77.531 77.793-116.3 116.69 0.98047 0.97656 1.9648 1.957 2.9453 2.9336-40.316 40.453-80.633 80.906-120.95 121.36-5.3086-5.2891-10.613-10.578-15.922-15.867 40.316-40.453 80.633-80.906 120.95-121.36z" fill-rule="evenodd"/>
   </g>
  </g>
  <g clip-path="url(#x)">
   <g clip-path="url(#w)">
    <path d="m200.84 316.02c0.98047 0.97656 1.9648 1.957 2.9453 2.9336 38.766-38.898 77.531-77.793 116.3-116.69 0.99609 0.99219 1.9922 1.9844 2.9844 2.9766 40.316-40.453 80.633-80.906 120.95-121.36 1.3516 1.3477 2.707 2.6953 4.0586 4.0469-40.316 40.453-80.633 80.906-120.95 121.36 0.99609 0.99219 1.9922 1.9844 2.9844 2.9766-38.766 38.898-77.531 77.793-116.3 116.69 0.98047 0.97656 1.9648 1.957 2.9453 2.9336-40.316 40.453-80.633 80.906-120.95 121.36-5.3086-5.2891-10.613-10.578-15.922-15.867 40.316-40.453 80.633-80.906 120.95-121.36z" fill-rule="evenodd"/>
   </g>
  </g>
  <g clip-path="url(#v)">
   <g clip-path="url(#t)">
    <path d="m224.08 339.2c0.98047 0.97656 1.9648 1.957 2.9453 2.9336 38.766-38.898 77.531-77.793 116.3-116.69 0.99609 0.99219 1.9922 1.9844 2.9844 2.9766 40.316-40.453 80.633-80.906 120.95-121.36 1.3516 1.3477 2.707 2.6953 4.0586 4.0469-40.316 40.453-80.633 80.906-120.95 121.36 0.99609 0.99219 1.9922 1.9844 2.9844 2.9766-38.766 38.898-77.531 77.793-116.3 116.69 0.98047 0.97656 1.9648 1.957 2.9453 2.9336-40.316 40.453-80.633 80.906-120.95 121.36-5.3086-5.2891-10.613-10.578-15.922-15.867 40.316-40.453 80.633-80.906 120.95-121.36z" fill-rule="evenodd"/>
   </g>
  </g>
  <g clip-path="url(#s)">
   <g clip-path="url(#r)">
    <path d="m247.32 362.37c0.98047 0.97656 1.9648 1.957 2.9453 2.9336 38.766-38.898 77.531-77.793 116.3-116.69 0.99609 0.99219 1.9922 1.9844 2.9844 2.9766 40.316-40.453 80.633-80.906 120.95-121.36 1.3516 1.3477 2.707 2.6953 4.0586 4.0469-40.316 40.453-80.633 80.906-120.95 121.36 0.99609 0.99219 1.9922 1.9844 2.9844 2.9766-38.766 38.898-77.531 77.793-116.3 116.69 0.98047 0.97656 1.9648 1.957 2.9453 2.9336-40.316 40.453-80.633 80.906-120.95 121.36-5.3086-5.2891-10.613-10.578-15.922-15.867 40.316-40.453 80.633-80.906 120.95-121.36z" fill-rule="evenodd"/>
   </g>
  </g>
  <g clip-path="url(#q)">
   <g clip-path="url(#p)">
    <path d="m270.57 385.55c0.98047 0.97656 1.9648 1.957 2.9453 2.9336 38.766-38.898 77.531-77.793 116.3-116.69 0.99609 0.99219 1.9922 1.9844 2.9844 2.9766 40.316-40.453 80.633-80.906 120.95-121.36 1.3516 1.3477 2.707 2.6953 4.0586 4.0469-40.316 40.453-80.633 80.906-120.95 121.36 0.99609 0.99219 1.9922 1.9844 2.9844 2.9766-38.766 38.898-77.531 77.793-116.3 116.69 0.98047 0.97656 1.9648 1.957 2.9453 2.9336-40.316 40.453-80.633 80.906-120.95 121.36-5.3086-5.2891-10.613-10.578-15.922-15.867 40.316-40.453 80.633-80.906 120.95-121.36z" fill-rule="evenodd"/>
   </g>
  </g>
  <g clip-path="url(#o)">
   <g clip-path="url(#n)">
    <path d="m293.81 408.72c0.98047 0.97656 1.9648 1.957 2.9453 2.9336 38.766-38.898 77.531-77.793 116.3-116.69 0.99609 0.99219 1.9922 1.9844 2.9844 2.9766 40.316-40.453 80.633-80.906 120.95-121.36 1.3516 1.3477 2.707 2.6953 4.0586 4.0469-40.316 40.453-80.633 80.906-120.95 121.36 0.99609 0.99219 1.9922 1.9844 2.9844 2.9766-38.766 38.898-77.531 77.793-116.3 116.69 0.98047 0.97656 1.9648 1.957 2.9453 2.9336-40.316 40.453-80.633 80.906-120.95 121.36-5.3086-5.2891-10.613-10.578-15.922-15.867 40.316-40.453 80.633-80.906 120.95-121.36z" fill-rule="evenodd"/>
   </g>
  </g>
  <g clip-path="url(#m)">
   <g clip-path="url(#l)">
    <path d="m317.05 431.89c0.98047 0.97656 1.9648 1.957 2.9453 2.9336 38.766-38.898 77.531-77.793 116.3-116.69 0.99609 0.99219 1.9922 1.9844 2.9844 2.9766 40.316-40.453 80.633-80.906 120.95-121.36 1.3516 1.3477 2.707 2.6953 4.0586 4.0469-40.316 40.453-80.633 80.906-120.95 121.36 0.99609 0.99219 1.9922 1.9844 2.9844 2.9766-38.766 38.898-77.531 77.793-116.3 116.69 0.98047 0.97656 1.9648 1.957 2.9453 2.9336-40.316 40.453-80.633 80.906-120.95 121.36-5.3086-5.2891-10.613-10.578-15.922-15.867 40.316-40.453 80.633-80.906 120.95-121.36z" fill-rule="evenodd"/>
   </g>
  </g>
  <g clip-path="url(#k)">
   <g clip-path="url(#i)">
    <path d="m340.3 455.07c0.98047 0.97656 1.9648 1.957 2.9453 2.9336 38.766-38.898 77.531-77.793 116.3-116.69 0.99609 0.99219 1.9922 1.9844 2.9844 2.9766 40.316-40.453 80.633-80.906 120.95-121.36 1.3516 1.3477 2.707 2.6953 4.0586 4.0469-40.316 40.453-80.633 80.906-120.95 121.36 0.99609 0.99219 1.9922 1.9844 2.9844 2.9766-38.766 38.898-77.531 77.793-116.3 116.69 0.98047 0.97656 1.9648 1.957 2.9453 2.9336-40.316 40.453-80.633 80.906-120.95 121.36-5.3086-5.2891-10.613-10.578-15.922-15.867 40.316-40.453 80.633-80.906 120.95-121.36z" fill-rule="evenodd"/>
   </g>
  </g>
  <g clip-path="url(#h)">
   <g clip-path="url(#g)">
    <path d="m363.54 478.25 2.9453 2.9336 116.3-116.69 2.9883 2.9766 120.95-121.36 4.0586 4.0469-120.95 121.36 2.9844 2.9766-116.3 116.69 2.9453 2.9336-120.95 121.36-15.922-15.867z" fill-rule="evenodd"/>
   </g>
  </g>
 </g>
</svg>
