<?xml version="1.0" encoding="UTF-8"?>
<svg width="512pt" height="512pt" version="1.1" viewBox="0 0 512 512" xmlns="http://www.w3.org/2000/svg">
 <path d="m10.578 324.64c16.617 23.664 44.387 37.219 74.242 40.969 18.895 2.375 38.629 0.82031 56.891-4.5859 17.172-5.0781 39.82-19.566 52.879-40.547 4.6406-7.4531 1.3594-6.7969-3.0039-2.0039-13.98 15.359-37.219 23.352-56.156 26.176-14.785 2.2031-28.668 1.5469-47.684-2.8281-17.887-4.1172-35.07-11.344-49.156-20.926-7.9141-5.3867-24.75-18.453-28.879-43.051-0.5625-9.8945-2.25-10.27-4.9023-1.0156-4.875 16.992-3.1523 33.344 5.7695 47.812zm240.58-82.145c37.844 37.367 94.598 90.301 143.71 131.71 4.5 3.7969 3.9883 4.6875-0.24609 8.9258-2.9883 2.9883-5.8516 5.5195-8.7383 8.4062-3.8398 3.8398-4.1797 4.7969-9.0625-1.0664-34.73-41.723-89.934-95.75-134.8-138.9-0.20312-0.19531-0.21094-0.51562-0.015625-0.72266 2.7383-2.8984 5.4883-5.7305 8.4609-8.3711 0.20312-0.17578 0.50391-0.16797 0.69531 0.019532zm164.73-217.01c-3.75-4.8516-7.9336-9.1133-12.477-12.703-6.0938-4.8125-11.398-8.1562-18.785-10.348-4.4062-1.3047-4.8125-2.4844 0.57031-2.3906 9.0078 0.15234 16.359 1.5625 24.758 5.7344 6.1367 3.0469 12.18 7.3398 17.664 12.836 22.289 22.352 28.453 53.918 23.57 84.867-8.4766 53.77-47.281 97.305-101.03 101.31 17.914 1.8008 32.297-0.03125 46.078-5.3086 52.102-19.93 89.207-81.371 75.75-132.86-2.4688-9.4648-6.207-18.711-11.922-27.082-7.7031-11.285-7.0938-13.914 5.4688-3.1719 8.1484 6.9688 14.102 15.781 17.828 25.84 11.254 30.375 2.7188 70.266-18.754 97.5-17.266 21.91-41.426 38.746-67.41 45.98-14.781 4.1133-30.844 5.2422-45.883 2.3008-6.5391-1.2773-8.8984-2.0625-13.742-1.6523 3.1992 2.625 7.3906 4.2461 11.859 5.8086 13.797 4.832 31.797 6.082 47.316 3.4375 28.523-4.8633 57.023-20.945 77.715-41.602 21.035-21.691 30.645-53.152 27.148-80.68-0.95703-7.5508-0.39844-9.5352 2.8828-0.43359 11.102 30.789 2.2617 64.5-21.5 90.359-23.035 23.367-54.727 37.836-85.984 40.094-11 0.79297-21.949 0.074219-32.449-2.2969-6.1914-1.4023-13.133-3.2969-19.777-6.3828-7.2109-3.3477-10.898-4.7695-16.391-4.8047 7.2852 8.3359 21.66 14.645 32.797 18.578 27.238 9.6211 55.426 8.2383 86.219-2.7773 24.762-8.8555 46.031-24.703 58.426-50.508 1.7734-3.6953 3.4375-7.5664 4.7578-11.695 1.4062-4.4023 1.5898-4.9062 1.2773 0.50781-0.28125 4.8906-1.0156 9.5938-2.1484 14.09-7.1172 28.145-30.086 48.418-57.211 58.934-38.891 15.074-81.398 8.043-113.66-12.156-6.9766-4.3672-15.258-11.707-20.148-17.387-0.11328-0.12891-0.15234-0.29297-0.10938-0.46094 0.042969-0.16797 0.15625-0.29297 0.31641-0.35547 11.035-4.1445 21.82-3.8438 30.746-5.2461 47.348-7.4336 82.32-57.285 86.125-101.5 2.3398-27.203-4.4922-54.457-19.887-74.375zm34.363 288.23c-8.1953 10.43-37.262 4.1445-64.312-9.9023-40.938-21.254-80.719-54.367-104.81-82.824-0.10156-0.12109-0.14062-0.26562-0.10938-0.42578 0.027344-0.16016 0.11328-0.28125 0.25391-0.35547 2.7227-1.5 5.5625-2.8047 8.0781-3.8359 0.20703-0.085938 0.42578-0.03125 0.57422 0.13281 20.473 22.895 62.109 59.457 102.69 73.871 21.066 7.4844 44.727 9.6523 62.059 4.3945 9.8086-2.9766 13.617-6.7734 4.9609 5.9258-3.9531 5.7969-8.1211 11.414-9.3828 13.02zm38.184-67.375c-20.941 32.121-59.52 35.203-94.23 25.203-38.496-11.094-68.277-33.148-92.316-59.039-0.125-0.13672-0.16406-0.3125-0.11328-0.49219 0.050781-0.17578 0.18359-0.30469 0.35937-0.35156 1.9727-0.50781 3.957-0.92969 5.9062-1.2656 0.16406-0.027344 0.30859 0.015625 0.42969 0.125 26.242 24.031 48.77 42.125 86.543 49.629 30.027 5.9688 64.715 3.5625 89.504-17.184 9.7344-8.1523 16.281-15.594 3.918 3.375zm-218.62-18.766c50.629 55.801 108.97 93.781 155.59 108.97 8.2383 2.6836 8.7852 0.76563 2.7734 8.8594-2.4648 3.3164-5.207 6.6289-8.2891 9.7148-4.6211 4.625-3.7578 3.9414-9.2031 1.4023-45.305-21.082-112.51-80.117-149.01-122.89-0.09375-0.10938-0.13281-0.23828-0.11719-0.38281 0.015625-0.14453 0.082031-0.26172 0.19141-0.35156 2.457-1.9336 5.0586-3.7227 7.3984-5.4023 0.21094-0.15234 0.5-0.11719 0.67578 0.074218zm54.855-217.07c7.832 5.5039 14.562 12.234 20.191 19.852 14.617 19.781 21.027 45.465 21.848 71.293 1.2422 39.133-13.98 72.785-48.438 94.246-7.4531 4.6406-6.7969 1.3555-2.0039-3.0039 23.738-21.617 31.078-55.629 28.754-87.465-1.7734-24.293-11.773-48.789-24.09-66.902-5.3867-7.918-18.449-24.754-43.047-28.883-9.8906-0.5625-10.266-2.25-1.0156-4.9062 16.988-4.875 33.34-3.1523 47.805 5.7734zm1.0703 186.92c20.492-4.1406 41.422-26.883 53.797-48.059 12.383-25.328 17.52-50.512 14.734-76.207-3.1289-28.891-22.281-62.984-49.547-70.094-6.4531-1.6797-7.3828-3.1328 1.043-3.0586 38.996 0.34375 64.188 36.984 67.484 69.879 3.0938 30.883-7.7656 65.32-25.258 89.137-14.77 20.105-37.039 39.449-61.969 40.457-4.1055 0.16406-6.043-0.88672-0.28516-2.0508zm-33.945 4.6484c9.8828-22.766 1.9453-62.32-13.996-95.617-11.863-24.773-41.773-74.27-75.152-71.48-5.7812 0.48047-2.5-1.5352 0.24219-3.2773 11.789-7.5 30.078-13.078 42.289-8.7188 27.461 9.0703 48.773 36.059 61.453 66.418 9.5742 22.93 25.953 85.102-4.082 110.17-0.058594 0.046875-0.11719 0.082032-0.19141 0.097656-3.3867 0.94531-6.7305 1.793-9.9062 3.0781-0.19531 0.082031-0.41016 0.035156-0.55859-0.11328-0.14844-0.15234-0.1875-0.36328-0.10156-0.55859zm-30.477 17.133c-6.4102-32.355-66.281-119.2-115.46-142.39-3.0703-1.043-4.3359-2.4961-1.5781-5.6445 5.3789-6.1406 16.871-15.57 24.762-14.113 44.508 10.84 116.23 119.26 105.77 154.04-0.039063 0.12891-0.11719 0.22266-0.23047 0.29297-3.3398 1.9727-8.6211 5.3242-12.465 8.1172-0.14453 0.10547-0.32031 0.12891-0.48828 0.0625-0.16406-0.066407-0.28125-0.19922-0.3125-0.375zm-104.21 195.97c-25.355 15.352-56.758 22.391-85.273 18.68-34.629-4.5-59.984-23.16-68.734-47.984-1.6562-4.6953-2.2578-9.1875-2.7852 0.27344-1.4102 25.289 24.168 60.586 70.172 67.438 31.328 4.6719 67.402-8.7969 92.137-27.457 26.781-20.207 39.617-43.812 42.234-75.992 1.8008 17.914-0.03125 32.301-5.3086 46.086-17.508 45.773-63.359 73.375-102.64 78.238-22.531 2.793-43.895-4.2031-62.871-18.105-5.9492-4.3594-6.8828-4.9453-2.8203 1.793 13.496 22.359 40.25 31.949 67.977 29.879 21.305-1.5938 43.281-9.793 60.578-23.43 21.91-17.27 38.742-41.426 45.973-67.418 4.1133-14.785 5.1211-30.164 2.1797-45.211-1.2773-6.5391-2.3047-8.6953-1.7344-14.023 10.629 17.668 12.945 38.23 9.4453 58.781-4.8633 28.527-20.941 57.031-41.594 77.727-19.289 18.711-49.156 32.512-84.695 26.352-5.6328-0.97656-6.4531-0.65234-0.86719 1.9336 25.598 11.859 64.234 8.3438 94.805-19.75 23.363-23.039 37.828-54.734 40.086-85.996 1.2734-17.633-1.3398-35.125-8.4219-50.855-5.6328-11.598-6.8008-13.105-5.1953-18.301 2.3867 1.3281 6.7891 8.1836 10.566 15.121 9.8086 18.039 15.32 35.879 14.566 54.062-1.9375 46.633-19.293 93.141-66.906 111.59-6.2891 2.4375-9.2695 3.3906-7.2695 3.3906 1.0469 0 3.5273-0.27734 7.7305-0.77734 52.992-6.3555 82.059-66.523 76.016-115.38-2.4258-19.621-7.7656-38.133-19.594-57.016-4.3438-6.9336-11.949-14.336-17.531-19.434-0.13672-0.125-0.31641-0.16406-0.49609-0.10938-0.17578 0.054688-0.30078 0.19141-0.34766 0.375-1.4961 6.5391-1.918 9.3906-3.1797 16.844-0.80078 4.7188-1.3477 7.5664-2.0586 14.977-2.207 23.004-23.242 55.305-44.145 63.703zm156.64 35.07c10.43-8.1992 3.1992-32.566-10.84-59.625-21.246-40.934-53.574-86.023-82.016-110.18-0.12109-0.10156-0.27344-0.14453-0.42969-0.10938-0.16016 0.03125-0.28516 0.125-0.35547 0.27344l-3.8086 7.5859c-0.10156 0.21094-0.058594 0.45312 0.11328 0.60938 22.891 20.535 58.652 67.926 73.062 108.5 8 22.535 10.934 44.707 4.0078 61.133-2.9297 6.9492-8.0898 10.754 2.7227 4.1094 7.1953-4.418 15.52-10.707 17.543-12.289zm-66.73 37.871c32.461-19.746 31.184-56.684 24.203-86.398-4.5312-18.828-17.766-65.531-59.238-101.39-0.13672-0.11719-0.3125-0.15625-0.48828-0.097657-0.17188 0.054688-0.29688 0.18359-0.34375 0.35938l-1.6055 6.168c-0.046874 0.17969 0 0.35547 0.13281 0.48828 24.434 24.59 43.996 54.84 50.254 96.973 4.1484 27.914 2.5977 57.324-15.457 78.367-6.3711 7.4258-16.398 17.055 2.5469 5.5312zm-20.07-218.07c48.66 44.863 95.113 103.3 112.04 149.68 3.3398 9.1445 3.4492 10.191 11.59 3.7539 2.4766-1.957 4.9805-4.0898 7.3281-6.3047 7.1484-6.7383 6.3711-5.6016 1.8438-13.238-23.117-39.02-88.68-111.4-126.79-141.79-0.10938-0.089844-0.23828-0.125-0.38281-0.10547-0.14062 0.019532-0.25781 0.085938-0.34375 0.19922l-5.3477 7.1211c-0.16016 0.21094-0.12891 0.5 0.0625 0.68359zm-30.988 57.66c-4.1445 20.5-25.359 39.43-46.535 51.809-25.324 12.383-50.504 17.52-76.199 14.738-29.645-3.2109-64.301-22.98-71.141-51.133-1.1133-4.582-0.90625-8.2148-1.7539-0.39453-4.3125 39.984 35.879 67.133 69.625 70.512 30.879 3.0938 65.309-7.7656 89.121-25.262 20.105-14.77 37.926-35.047 38.938-59.98 0.16406-4.1094-0.88281-6.0508-2.0508-0.28516zm5.2461-35.66c-22.734 9.8711-61.395 1.6602-94.684-14.289-24.77-11.867-74.258-41.777-71.469-75.16 0.48047-5.7852-1.8789-2.6914-3.2773 0.24219-23.613 49.48 16.848 87.23 57.691 103.76 39.293 15.895 85.703 18.168 104.96 0.49219 1.6445-1.5117 2.9453-2.4453 4.1016-4.2695 0.027343-0.042969 0.046874-0.085938 0.0625-0.13672 0.98437-3.5039 1.9336-6.6875 3.2891-9.9766 0.082031-0.19531 0.035156-0.41016-0.11328-0.55859-0.15234-0.15234-0.36328-0.1875-0.55859-0.10156zm17.492-30.52c-32.625-6.7969-135.75-89.555-141.8-115.73-0.60156-3.3125-1.582-4.832-4.9609-1.4961-6.1289 6.0547-15.934 18.395-14.789 24.684 5.0859 34.453 123.35 117.73 153.39 106.04 0.10937-0.042969 0.1875-0.11328 0.25-0.21484 1.3828-2.293 5.457-8.793 8.2188-12.48 0.10547-0.14453 0.13281-0.31641 0.070312-0.48828-0.0625-0.16797-0.19922-0.28125-0.37109-0.32031zm-103.52-165.41c-4.0625 3.5117-13.57 12.977-17.215 16.902-0.82422 0.88672-0.92188 2.1953-0.23047 3.1914 25.016 36.359 93.461 98.379 135.77 128 0.21094 0.14844 0.49219 0.11328 0.66797-0.074219 2.5664-2.7852 6.832-7.0039 9.8203-9.7539 0.17188-0.16406 0.21875-0.41016 0.10156-0.62109-16.32-29.711-83.75-105.03-125.67-137.73-0.97266-0.75781-2.3125-0.72266-3.2422 0.082031z" fill-rule="evenodd"/>
</svg>
