<?xml version="1.0" encoding="UTF-8"?>
<svg width="512pt" height="512pt" version="1.1" viewBox="0 0 512 512" xmlns="http://www.w3.org/2000/svg">
 <path d="m255.95 194.77c41.832 0 79.707 16.957 107.12 44.371 27.414 27.414 44.371 65.289 44.371 107.12 0 41.832-16.957 79.707-44.371 107.12-27.414 27.414-65.289 44.371-107.12 44.371s-79.707-16.957-107.12-44.371c-27.414-27.414-44.371-65.289-44.371-107.12 0-41.832 16.957-79.707 44.371-107.12 27.414-27.414 65.289-44.371 107.12-44.371zm97.094 227.03c0.70703-0.9375 2.043-1.125 2.9844-0.41797 0.9375 0.70703 1.125 2.043 0.41797 2.9844-0.92187 1.2227-1.6914 2.2266-2.5312 3.2734-0.78906 0.98047-1.625 1.9648-2.6992 3.1758-0.77734 0.87891-2.1211 0.96094-3 0.18359-0.87891-0.77734-0.96094-2.1211-0.18359-3 0.98047-1.1055 1.7734-2.043 2.5664-3.0273 0.74219-0.91797 1.5039-1.918 2.4492-3.1719zm-15.793 17.027c0.88281-0.77734 2.2305-0.69141 3.0078 0.19141 0.77734 0.88281 0.69141 2.2305-0.19141 3.0078-5.6094 4.9336-11.715 9.3516-18.234 13.176-6.4297 3.7734-13.238 6.9531-20.344 9.4609-1.1094 0.39062-2.3242-0.19141-2.7148-1.3008-0.39063-1.1094 0.19141-2.3242 1.3008-2.7148 6.875-2.4258 13.438-5.4844 19.613-9.1094 6.2461-3.6641 12.125-7.9258 17.566-12.711zm-139.39-421.02c-0.9375 0-1.6992-0.76172-1.6992-1.6992s0.76172-1.6992 1.6992-1.6992l115.94-0.054688c0.9375 0 1.6992 0.76172 1.6992 1.6992s-0.76172 1.6992-1.6992 1.6992zm-39.941 25.98c-1.0586 0-1.9219-0.85938-1.9219-1.9219 0-1.0586 0.85938-1.9219 1.9219-1.9219h195.96c1.0586 0 1.9219 0.85938 1.9219 1.9219 0 1.0586-0.85938 1.9219-1.9219 1.9219zm-21.949 25.945c-1.1797 0-2.1328-0.95703-2.1328-2.1328 0-1.1797 0.95703-2.1328 2.1328-2.1328h240.59c1.1797 0 2.1328 0.95703 2.1328 2.1328 0 1.1797-0.95703 2.1328-2.1328 2.1328zm-13.695 25.945c-1.2969 0-2.3477-1.0508-2.3477-2.3477s1.0508-2.3477 2.3477-2.3477h268.14c1.2969 0 2.3477 1.0508 2.3477 2.3477s-1.0508 2.3477-2.3477 2.3477zm-8.8789 25.945c-1.4141 0-2.5586-1.1445-2.5586-2.5586 0-1.4141 1.1445-2.5586 2.5586-2.5586h285.36c1.4141 0 2.5586 1.1445 2.5586 2.5586 0 1.4141-1.1445 2.5586-2.5586 2.5586zm-5.625 20.398h294.82v5.5469h-294.82zm3.4844 31.48c-1.6445 0-2.9766-1.332-2.9766-2.9766s1.332-2.9766 2.9766-2.9766c47.863 0 95.602-0.003907 143.34-0.007813 133.11-0.007812 32.324-0.019531 146.19-0.019531 1.6484 0 2.9883 1.3359 2.9883 2.9883 0 1.6484-1.3359 2.9883-2.9883 2.9883-211.51 0-110.45-0.007813-146.19-0.003907-47.734 0.003907-95.473 0.007813-143.34 0.007813zm6.3125 25.945c-1.7617 0-3.1875-1.4258-3.1875-3.1875 0-1.7617 1.4258-3.1875 3.1875-3.1875 13.789-0.042968 27.566-0.085937 41.324-0.13281 10.094-0.035156 20.176-0.066406 30.254-0.097656 1.7617 0 3.1875 1.4258 3.1875 3.1875 0 1.7617-1.4258 3.1875-3.1875 3.1875-10.074 0.03125-20.16 0.066406-30.254 0.097656-13.762 0.046875-27.539 0.09375-41.324 0.13281zm203.61-0.37891c-1.7617 0-3.1875-1.4258-3.1875-3.1875s1.4258-3.1875 3.1875-3.1875c12.293 0.027344 24.555 0.070312 36.781 0.13281 12.254 0.0625 24.469 0.14453 36.637 0.24609 1.7617 0.015625 3.1758 1.4531 3.1641 3.2109-0.015625 1.7617-1.4531 3.1758-3.2109 3.1641-12.195-0.10547-24.398-0.18359-36.613-0.24609-12.238-0.0625-24.492-0.10547-36.758-0.13281zm-192.16 26.414c-1.8867 0-3.4141-1.5273-3.4141-3.4141s1.5273-3.4141 3.4141-3.4141h22.898c1.8867 0 3.4141 1.5273 3.4141 3.4141s-1.5273 3.4141-3.4141 3.4141zm231.32 0c-1.8867 0-3.4141-1.5273-3.4141-3.4141s1.5273-3.4141 3.4141-3.4141h24.34c1.8867 0 3.4141 1.5273 3.4141 3.4141s-1.5273 3.4141-3.4141 3.4141zm-2.0938 18.488c-26.18-26.18-62.344-42.371-102.29-42.371s-76.113 16.191-102.29 42.371c-26.18 26.18-42.371 62.344-42.371 102.29 0 39.949 16.191 76.113 42.371 102.29 26.18 26.18 62.344 42.371 102.29 42.371s76.113-16.191 102.29-42.371c26.18-26.18 42.371-62.344 42.371-102.29 0-39.949-16.191-76.113-42.371-102.29z"/>
</svg>
