<svg xmlns="http://www.w3.org/2000/svg" version="1.1" xmlns:xlink="http://www.w3.org/1999/xlink"
  xmlns:svgjs="http://svgjs.dev/svgjs" viewBox="0 0 800 800" opacity="0.1">
  <defs>
    <linearGradient x1="50%" y1="0%" x2="50%" y2="100%" id="hhhorizon-grad">
      <stop stop-color="hsl(30, 100%, 10%)" stop-opacity="1" offset="25%"></stop>
      <stop stop-color="hsl(30, 100%, 30%)" stop-opacity="1" offset="100%"></stop>
    </linearGradient>
    <linearGradient x1="50%" y1="0%" x2="50%" y2="100%" id="hhhorizon-grad2">
      <stop stop-color="hsl(30, 100%, 30%)" stop-opacity="1" offset="0%"></stop>
      <stop stop-color="hsl(30, 100%, 10%)" stop-opacity="1" offset="75%"></stop>
    </linearGradient>
    <clipPath id="SvgjsClipPath1042">
      <rect width="800" height="31" x="0" y="0"></rect>
      <rect width="800" height="30" x="0" y="27"></rect>
      <rect width="800" height="29" x="0" y="53"></rect>
      <rect width="800" height="28" x="0" y="80"></rect>
      <rect width="800" height="27" x="0" y="107"></rect>
      <rect width="800" height="26" x="0" y="133"></rect>
      <rect width="800" height="25" x="0" y="160"></rect>
      <rect width="800" height="24" x="0" y="187"></rect>
      <rect width="800" height="23" x="0" y="213"></rect>
      <rect width="800" height="22" x="0" y="240"></rect>
      <rect width="800" height="21" x="0" y="267"></rect>
      <rect width="800" height="20" x="0" y="293"></rect>
      <rect width="800" height="19" x="0" y="320"></rect>
      <rect width="800" height="18" x="0" y="347"></rect>
      <rect width="800" height="17" x="0" y="373"></rect>
      <rect width="800" height="16" x="0" y="400"></rect>
      <rect width="800" height="15" x="0" y="427"></rect>
      <rect width="800" height="14" x="0" y="453"></rect>
      <rect width="800" height="13" x="0" y="480"></rect>
      <rect width="800" height="12" x="0" y="507"></rect>
      <rect width="800" height="11" x="0" y="533"></rect>
      <rect width="800" height="10" x="0" y="560"></rect>
      <rect width="800" height="9" x="0" y="587"></rect>
      <rect width="800" height="8" x="0" y="613"></rect>
      <rect width="800" height="7" x="0" y="640"></rect>
      <rect width="800" height="6" x="0" y="667"></rect>
      <rect width="800" height="5" x="0" y="693"></rect>
      <rect width="800" height="4" x="0" y="720"></rect>
      <rect width="800" height="3" x="0" y="747"></rect>
      <rect width="800" height="2" x="0" y="773"></rect>
      <rect width="800" height="1" x="0" y="800"></rect>
    </clipPath>
    <clipPath>
      <rect width="800" height="1" x="0" y="31"></rect>
      <rect width="800" height="2" x="0" y="62"></rect>
      <rect width="800" height="3" x="0" y="93"></rect>
      <rect width="800" height="4" x="0" y="124"></rect>
      <rect width="800" height="5" x="0" y="155"></rect>
      <rect width="800" height="6" x="0" y="186"></rect>
      <rect width="800" height="7" x="0" y="217"></rect>
      <rect width="800" height="8" x="0" y="248"></rect>
      <rect width="800" height="9" x="0" y="279"></rect>
      <rect width="800" height="10" x="0" y="310"></rect>
      <rect width="800" height="11" x="0" y="341"></rect>
      <rect width="800" height="12" x="0" y="372"></rect>
      <rect width="800" height="13" x="0" y="403"></rect>
      <rect width="800" height="14" x="0" y="434"></rect>
      <rect width="800" height="15" x="0" y="465"></rect>
      <rect width="800" height="16" x="0" y="496"></rect>
      <rect width="800" height="17" x="0" y="527"></rect>
      <rect width="800" height="18" x="0" y="558"></rect>
      <rect width="800" height="19" x="0" y="589"></rect>
      <rect width="800" height="20" x="0" y="620"></rect>
      <rect width="800" height="21" x="0" y="651"></rect>
      <rect width="800" height="22" x="0" y="682"></rect>
      <rect width="800" height="23" x="0" y="713"></rect>
      <rect width="800" height="24" x="0" y="744"></rect>
      <rect width="800" height="25" x="0" y="775"></rect>
      <rect width="800" height="26" x="0" y="806"></rect>
    </clipPath>
  </defs>
  <rect width="800" height="800" fill="url(#hhhorizon-grad)" clip-path="url(&quot;#SvgjsClipPath1042&quot;)"></rect>
  <circle r="400" cx="400" cy="0" fill="url(#hhhorizon-grad)" clip-path="url(&quot;#SvgjsClipPath1042&quot;)"></circle>
  <circle r="400" cx="400" cy="800" fill="url(#hhhorizon-grad)" clip-path="url(&quot;#SvgjsClipPath1042&quot;)">
  </circle>
</svg>