<svg xmlns="http://www.w3.org/2000/svg" width="300" height="100" fill="none" viewBox="0 0 300 100"><path fill="#EA4335" d="M138.707 59.77c0 8.328-6.515 14.464-14.511 14.464s-14.511-6.136-14.511-14.465c0-8.387 6.516-14.465 14.511-14.465 7.996 0 14.511 6.078 14.511 14.465m-6.352 0c0-5.205-3.776-8.766-8.159-8.766s-8.159 3.561-8.159 8.765c0 5.152 3.776 8.765 8.159 8.765s8.159-3.619 8.159-8.765"/><path fill="#FBBC05" d="M170.014 59.77c0 8.328-6.515 14.464-14.511 14.464s-14.51-6.136-14.51-14.465c0-8.38 6.515-14.465 14.51-14.465 7.996 0 14.511 6.078 14.511 14.465m-6.352 0c0-5.205-3.776-8.766-8.159-8.766-4.382 0-8.158 3.561-8.158 8.765 0 5.152 3.776 8.765 8.158 8.765 4.383 0 8.159-3.619 8.159-8.765"/><path fill="#4285F4" d="M200.012 46.178v25.97c0 10.682-6.3 15.045-13.748 15.045-7.011 0-11.23-4.689-12.822-8.524l5.531-2.302c.984 2.355 3.397 5.133 7.284 5.133 4.768 0 7.722-2.942 7.722-8.478v-2.08h-.222c-1.421 1.753-4.161 3.286-7.617 3.286-7.233 0-13.859-6.3-13.859-14.406 0-8.166 6.626-14.518 13.859-14.518 3.45 0 6.189 1.533 7.617 3.235h.222v-2.355h6.033zm-5.583 13.644c0-5.094-3.398-8.818-7.722-8.818-4.382 0-8.054 3.724-8.054 8.818 0 5.04 3.672 8.712 8.054 8.712 4.324 0 7.722-3.671 7.722-8.713"/><path fill="#34A853" d="M209.958 30.957v42.391h-6.196V30.957z"/><path fill="#EA4335" d="m234.102 64.53 4.93 3.287c-1.591 2.354-5.426 6.41-12.052 6.41-8.217 0-14.354-6.352-14.354-14.465 0-8.602 6.189-14.465 13.644-14.465 7.506 0 11.178 5.974 12.378 9.202l.658 1.644-19.336 8.008c1.48 2.903 3.782 4.383 7.01 4.383 3.235 0 5.479-1.591 7.122-4.004m-15.176-5.205 12.926-5.367c-.711-1.807-2.85-3.065-5.367-3.065-3.228 0-7.722 2.85-7.559 8.432"/><path fill="#4285F4" d="M86.233 56.006v-6.137h20.68c.203 1.07.307 2.334.307 3.704 0 4.604-1.259 10.298-5.315 14.354-3.946 4.11-8.987 6.3-15.665 6.3-12.378 0-22.787-10.082-22.787-22.46S73.862 29.306 86.24 29.306c6.848 0 11.726 2.687 15.391 6.189l-4.33 4.33c-2.629-2.465-6.19-4.382-11.068-4.382-9.039 0-16.108 7.284-16.108 16.324 0 9.039 7.07 16.323 16.108 16.323 5.863 0 9.202-2.354 11.341-4.493 1.735-1.735 2.876-4.213 3.326-7.598z"/></svg>