<svg xmlns="http://www.w3.org/2000/svg" width="100" height="100" fill="none" viewBox="0 0 100 100"><g clip-path="url(#a)"><path fill="#000" d="M92.83 40.928a24.9 24.9 0 0 0-2.14-20.462A25.2 25.2 0 0 0 63.551 8.378 24.92 24.92 0 0 0 44.76 0a25.2 25.2 0 0 0-24.034 17.444 24.92 24.92 0 0 0-16.66 12.084 25.2 25.2 0 0 0 3.1 29.544 24.9 24.9 0 0 0 2.14 20.462 25.2 25.2 0 0 0 27.138 12.088 24.9 24.9 0 0 0 18.791 8.375A25.2 25.2 0 0 0 79.28 82.54a24.92 24.92 0 0 0 16.66-12.085 25.2 25.2 0 0 0-3.107-29.534zM55.242 93.463a18.68 18.68 0 0 1-11.997-4.338c.154-.081.42-.228.591-.334l19.913-11.5a3.24 3.24 0 0 0 1.637-2.835V46.384l8.416 4.86c.09.044.15.131.162.231v23.247c-.012 10.337-8.384 18.719-18.722 18.74M14.98 76.266a18.66 18.66 0 0 1-2.235-12.557c.147.088.407.247.591.353l19.913 11.5c1.009.591 2.259.591 3.271 0l24.31-14.037v9.719c.006.1-.04.197-.119.26L40.583 83.124c-8.966 5.162-20.416 2.094-25.6-6.86zM9.74 32.8a18.68 18.68 0 0 1 9.752-8.216c0 .172-.01.475-.01.688v23.003a3.24 3.24 0 0 0 1.635 2.831l24.31 14.035L37.01 70a.3.3 0 0 1-.284.025L16.595 58.394C7.65 53.213 4.58 41.766 9.736 32.804zm69.143 16.09-24.31-14.037 8.416-4.856a.3.3 0 0 1 .285-.025l20.13 11.622c8.963 5.178 12.035 16.643 6.857 25.606a18.73 18.73 0 0 1-9.75 8.212v-23.69a3.23 3.23 0 0 0-1.625-2.831zm8.375-12.606c-.147-.09-.406-.246-.59-.353l-19.913-11.5a3.24 3.24 0 0 0-3.272 0L39.173 38.47V28.75a.31.31 0 0 1 .12-.26L59.42 16.879c8.966-5.172 20.429-2.094 25.597 6.875a18.73 18.73 0 0 1 2.235 12.531zm-52.66 17.322-8.418-4.86a.3.3 0 0 1-.163-.23V25.269C26.023 14.919 34.42 6.53 44.77 6.537c4.378 0 8.616 1.538 11.982 4.338-.154.081-.416.228-.591.334l-19.912 11.5a3.23 3.23 0 0 0-1.638 2.832L34.599 53.6zm4.572-9.856 10.828-6.253 10.829 6.25V56.25L49.999 62.5 39.17 56.25z"/></g><defs><clipPath id="a"><path fill="#fff" d="M0 0h100v100H0z"/></clipPath></defs></svg>