<?xml version="1.0" encoding="utf-8"?>
<svg viewBox="0 0 500 500" style="shape-rendering: geometricprecision;" xmlns="http://www.w3.org/2000/svg">
  <g transform="matrix(1.0730359554290771, 0, 0, 1.0730359554290771, -24.697813034057617, -24.714698791503906)">
    <g>
      <g>
        <g>
          <path d="M325.83,421.89c-1.65,0-3-1.35-3-3c0-1.66,1.35-3,3-3h89.14V161.02c0-1.65,1.34-3,3-3c1.65,0,3,1.35,3,3v257.87      c0,0.8-0.32,1.55-0.88,2.12c-0.57,0.57-1.32,0.88-2.12,0.88H325.83z M305.83,421.89c-1.65,0-3-1.35-3-3c0-1.66,1.35-3,3-3      c1.66,0,3,1.34,3,3C308.83,420.54,307.49,421.89,305.83,421.89z M285.83,421.89H94.03c-0.79,0-1.56-0.32-2.12-0.88      s-0.88-1.33-0.88-2.12v-158.2c0-1.649,1.35-3,3-3c1.66,0,3,1.351,3,3v155.2h188.8c1.66,0,3,1.34,3,3      C288.83,420.54,287.49,421.89,285.83,421.89z M94.03,243.69c-1.65,0-3-1.35-3-3s1.35-3,3-3c1.66,0,3,1.35,3,3      S95.69,243.69,94.03,243.69z M94.03,223.69c-1.65,0-3-1.35-3-3V94.96c0-0.79,0.32-1.57,0.88-2.13c0.56-0.55,1.33-0.87,2.12-0.87      h323.94c0.79,0,1.561,0.32,2.12,0.87c0.56,0.56,0.88,1.34,0.88,2.13v26.06c0,1.66-1.35,3-3,3c-1.66,0-3-1.34-3-3V97.96H97.03      v122.73C97.03,222.34,95.69,223.69,94.03,223.69z M417.97,144.02c-1.66,0-3-1.34-3-3c0-1.65,1.34-3,3-3c1.65,0,3,1.35,3,3      C420.97,142.68,419.62,144.02,417.97,144.02z" style="fill: rgb(228, 128, 35);"/>
        </g>
        <g>
          <path d="M94.03,327.02c-0.8,0-1.55-0.319-2.12-0.88L24.8,259.06c-0.55-0.56-0.87-1.33-0.87-2.12c0-0.79,0.32-1.57,0.87-2.12      l67.11-67.11c0.85-0.85,2.16-1.11,3.27-0.65c1.13,0.47,1.85,1.55,1.85,2.77v134.19c0,1.21-0.72,2.3-1.85,2.771      C94.82,326.939,94.43,327.02,94.03,327.02z M31.17,256.94l59.86,59.83v-119.7L31.17,256.94z" style="fill: rgb(228, 128, 35);"/>
        </g>
        <g>
          <path d="M255.99,489c-0.8,0-1.56-0.32-2.13-0.88l-67.07-67.11c-0.86-0.86-1.12-2.15-0.65-3.27c0.47-1.12,1.55-1.851,2.77-1.851      h134.18c1.22,0,2.31,0.73,2.77,1.851c0.471,1.119,0.221,2.409-0.649,3.27l-67.101,67.11C257.54,488.68,256.79,489,255.99,489z       M196.15,421.89l59.84,59.86l59.86-59.86H196.15z" style="fill: rgb(228, 128, 35);"/>
        </g>
        <g>
          <path d="M417.97,327.01c-0.4,0-0.79-0.07-1.15-0.22c-1.13-0.471-1.85-1.561-1.85-2.771V189.83c0-1.22,0.72-2.31,1.85-2.77      c1.11-0.46,2.421-0.2,3.271,0.65l67.1,67.11c0.57,0.56,0.88,1.32,0.88,2.12s-0.31,1.55-0.88,2.12l-67.1,67.08      C419.52,326.7,418.77,327.01,417.97,327.01z M420.97,197.07l-0.01,119.7l59.87-59.83L420.97,197.07z" style="fill: rgb(228, 128, 35);"/>
        </g>
        <g>
          <path d="M323.09,97.96H188.91c-1.22,0-2.31-0.73-2.77-1.86c-0.47-1.12-0.21-2.41,0.65-3.27l67.07-67.1      c1.12-1.12,3.12-1.12,4.25,0l67.101,67.1c0.859,0.86,1.12,2.15,0.649,3.27C325.399,97.23,324.31,97.96,323.09,97.96z       M196.15,91.96h119.7l-59.86-59.87L196.15,91.96z" style="fill: rgb(228, 128, 35);"/>
        </g>
        <g>
          <path d="M298.55,421.89h-85.12c-0.8,0-1.56-0.31-2.13-0.88l-82.28-82.28c-0.55-0.56-0.87-1.33-0.87-2.12v-61.26      c0-1.649,1.34-3,3-3c1.65,0,3,1.351,3,3v60.01l80.52,80.53h82.63l60.84-60.82c1.13-1.13,3.11-1.13,4.24,0.011      c0.57,0.56,0.88,1.319,0.88,2.12c0,0.8-0.31,1.55-0.88,2.119l-61.71,61.69C300.1,421.58,299.35,421.89,298.55,421.89z       M374.399,346.06c-0.8,0-1.55-0.31-2.119-0.88c-1.171-1.17-1.171-3.07,0-4.24c1.14-1.14,3.109-1.14,4.25,0      c1.17,1.17,1.159,3.07-0.011,4.24C375.96,345.75,375.21,346.06,374.399,346.06z M380.859,328.729c-1.659,0-3-1.34-3-3V178.48      L297.3,97.95h-82.63l-80.52,80.53v56.86v0.01c0,1.66-1.35,3-3,3c-1.66,0-3-1.34-3-3v-58.12c0-0.79,0.32-1.56,0.87-2.12      l82.28-82.28c0.56-0.55,1.34-0.87,2.13-0.87h85.12c0.79,0,1.56,0.32,2.12,0.87l82.31,82.28c0.57,0.57,0.88,1.32,0.88,2.12v148.5      C383.859,327.39,382.51,328.729,380.859,328.729z M131.15,258.35c-1.66,0-3-1.34-3-3c0-1.65,1.34-3,3-3c1.65,0,3,1.35,3,3      C134.15,257.01,132.8,258.35,131.15,258.35z" style="fill: rgb(228, 128, 35);"/>
        </g>
        <g>
          <path d="M256.02,364.53h-0.03c-0.81,0-1.56-0.311-2.12-0.87L193.23,303c-0.57-0.57-0.88-1.32-0.88-2.12      c0-0.811,0.31-1.561,0.88-2.12c1.13-1.14,3.11-1.14,4.24,0L256,357.31l63.359-63.39v-73.99L256,156.54l-63.36,63.39v43.311      c0,1.659-1.35,3-3,3c-1.65,0-3-1.341-3-3V218.68c0-0.79,0.32-1.56,0.88-2.12l66.35-66.37c0.55-0.56,1.33-0.88,2.12-0.88h0.03      c0.79,0,1.56,0.32,2.12,0.88l66.34,66.37c0.57,0.57,0.88,1.32,0.88,2.12v76.48c0,0.8-0.31,1.56-0.88,2.12l-66.34,66.38      C257.569,364.22,256.82,364.53,256.02,364.53z M189.64,286.24c-1.65,0-3-1.341-3-3c0-1.65,1.35-3,3-3c1.65,0,3,1.35,3,3      C192.64,284.899,191.29,286.24,189.64,286.24z" style="fill: rgb(228, 128, 35);"/>
        </g>
        <g>
          <path d="M256.02,364.53h-0.03c-0.81,0-1.56-0.311-2.13-0.87l-26.97-27.011c-0.56-0.56-0.88-1.33-0.88-2.119v-80.21      c0-1.65,1.34-3,3-3c1.65,0,3,1.35,3,3v78.97L256,357.31l23.99-24.02V180.56L256,156.54l-23.99,24.02v33.75v0.01      c0,1.66-1.35,3-3,3c-1.66,0-3-1.34-3-3v-35.01c0-0.79,0.32-1.56,0.88-2.12l26.97-27c0.57-0.57,1.33-0.88,2.13-0.88h0.03      c0.8,0,1.549,0.31,2.12,0.88l26.97,27c0.561,0.56,0.881,1.33,0.881,2.12v155.22c0,0.789-0.32,1.56-0.881,2.119l-26.97,27.011      C257.569,364.22,256.82,364.53,256.02,364.53z M229.01,237.32c-1.66,0-3-1.34-3-3c0-1.65,1.34-3,3-3c1.65,0,3,1.35,3,3      C232.01,235.98,230.66,237.32,229.01,237.32z" style="fill: rgb(228, 128, 35);"/>
        </g>
        <g>
          <path d="M322.359,298.16H210.15c-1.66,0-3-1.341-3-3c0-1.65,1.34-3,3-3h112.209c1.65,0,3,1.35,3,3      C325.359,296.819,324.01,298.16,322.359,298.16z" style="fill: rgb(228, 128, 35);"/>
        </g>
        <g>
          <path d="M322.359,221.68H189.64c-1.65,0-3-1.34-3-3c0-1.65,1.35-3,3-3h132.72c1.65,0,3,1.35,3,3      C325.359,220.34,324.01,221.68,322.359,221.68z" style="fill: rgb(228, 128, 35);"/>
        </g>
        <g>
          <path d="M172.48,192.45h-21.94c-1.66,0-3-1.35-3-3s1.34-3,3-3h21.94c1.65,0,3,1.35,3,3S174.13,192.45,172.48,192.45z" style="fill: rgb(228, 128, 35);"/>
        </g>
        <g>
          <path d="M172.48,214.95h-21.94c-1.66,0-3-1.35-3-3.01c0-1.65,1.34-2.99,3-2.99h21.94c1.65,0,3,1.34,3,2.99      C175.48,213.6,174.13,214.95,172.48,214.95z" style="fill: rgb(228, 128, 35);"/>
        </g>
        <g>
          <path d="M172.48,237.44h-21.94c-1.66,0-3-1.34-3-3c0-1.65,1.34-3,3-3h21.94c1.65,0,3,1.35,3,3      C175.48,236.1,174.13,237.44,172.48,237.44z" style="fill: rgb(228, 128, 35);"/>
        </g>
        <g>
          <path d="M172.48,259.939h-21.94c-1.66,0-3-1.35-3-3c0-1.66,1.34-3,3-3h21.94c1.65,0,3,1.34,3,3      C175.48,258.59,174.13,259.939,172.48,259.939z" style="fill: rgb(228, 128, 35);"/>
        </g>
        <g>
          <path d="M172.48,282.399h-21.94c-1.66,0-3-1.34-3-3c0-1.649,1.34-3,3-3h21.94c1.65,0,3,1.351,3,3      C175.48,281.06,174.13,282.399,172.48,282.399z" style="fill: rgb(228, 128, 35);"/>
        </g>
        <g>
          <path d="M172.48,304.899h-21.94c-1.66,0-3-1.35-3-3c0-1.659,1.34-3,3-3h21.94c1.65,0,3,1.341,3,3      C175.48,303.55,174.13,304.899,172.48,304.899z" style="fill: rgb(228, 128, 35);"/>
        </g>
        <g>
          <path d="M172.48,327.399h-21.94c-1.66,0-3-1.35-3-3c0-1.659,1.34-3,3-3h21.94c1.65,0,3,1.341,3,3      C175.48,326.05,174.13,327.399,172.48,327.399z" style="fill: rgb(228, 128, 35);"/>
        </g>
        <g>
          <path d="M361.439,192.45h-21.92c-1.649,0-3-1.35-3-3s1.351-3,3-3h21.92c1.65,0,3,1.35,3,3S363.09,192.45,361.439,192.45z" style="fill: rgb(228, 128, 35);"/>
        </g>
        <g>
          <path d="M361.439,214.95h-21.92c-1.649,0-3-1.35-3-3.01c0-1.65,1.351-2.99,3-2.99h21.92c1.65,0,3,1.34,3,2.99      C364.439,213.6,363.09,214.95,361.439,214.95z" style="fill: rgb(228, 128, 35);"/>
        </g>
        <g>
          <path d="M361.439,237.44h-21.92c-1.649,0-3-1.34-3-3c0-1.65,1.351-3,3-3h21.92c1.65,0,3,1.35,3,3      C364.439,236.1,363.09,237.44,361.439,237.44z" style="fill: rgb(228, 128, 35);"/>
        </g>
        <g>
          <path d="M361.439,259.939h-21.92c-1.649,0-3-1.35-3-3c0-1.66,1.351-3,3-3h21.92c1.65,0,3,1.34,3,3      C364.439,258.59,363.09,259.939,361.439,259.939z" style="fill: rgb(228, 128, 35);"/>
        </g>
        <g>
          <path d="M361.439,282.399h-21.92c-1.649,0-3-1.34-3-3c0-1.649,1.351-3,3-3h21.92c1.65,0,3,1.351,3,3      C364.439,281.06,363.09,282.399,361.439,282.399z" style="fill: rgb(228, 128, 35);"/>
        </g>
        <g>
          <path d="M361.439,304.899h-21.92c-1.649,0-3-1.35-3-3c0-1.649,1.351-3,3-3h21.92c1.65,0,3,1.351,3,3      C364.439,303.55,363.09,304.899,361.439,304.899z" style="fill: rgb(228, 128, 35);"/>
        </g>
        <g>
          <path d="M361.439,327.39h-21.92c-1.649,0-3-1.34-3-2.99c0-1.659,1.351-3,3-3h21.92c1.65,0,3,1.341,3,3      C364.439,326.05,363.09,327.39,361.439,327.39z" style="fill: rgb(228, 128, 35);"/>
        </g>
        <g>
          <path d="M390.49,70.33H338.47c-0.8,0-1.55-0.31-2.12-0.87l-41.33-41.33c-1.17-1.17-1.17-3.08,0-4.25c1.13-1.13,3.11-1.13,4.24,0      l40.45,40.45l50.78,0.01c1.659,0,3,1.34,3,2.99C393.49,68.99,392.149,70.33,390.49,70.33z" style="fill: rgb(228, 128, 35);"/>
        </g>
        <g>
          <path d="M60.94,399.04h-0.01H60.9c-0.8-0.01-1.55-0.33-2.11-0.9c-0.56-0.57-0.86-1.33-0.85-2.13l1.17-104.19      c0.02-1.64,1.36-2.97,2.99-2.97h0.04c0.8,0.01,1.55,0.33,2.11,0.91c0.56,0.57,0.86,1.33,0.85,2.13l-1.16,104.19      C63.92,397.71,62.57,399.04,60.94,399.04z" style="fill: rgb(228, 128, 35);"/>
        </g>
        <g>
          <path d="M333.229,458.47h-46.72c-1.66,0-3-1.34-3-2.99c0-1.66,1.34-3.01,3-3.01h46.72c1.65,0,3,1.35,3,3.01      C336.229,457.13,334.88,458.47,333.229,458.47z" style="fill: rgb(228, 128, 35);"/>
        </g>
        <g>
          <path d="M225.5,458.47H86.71c-1.65,0-3-1.34-3-2.99c0-1.66,1.35-3.01,3-3.01H225.5c1.65,0,2.99,1.35,2.99,3.01      C228.49,457.13,227.15,458.47,225.5,458.47z" style="fill: rgb(228, 128, 35);"/>
        </g>
        <g>
          <path d="M401.66,443.479H301.5c-1.65,0-3-1.35-3-3c0-1.66,1.35-3,3-3h100.16c1.649,0,2.989,1.34,2.989,3      C404.649,442.13,403.31,443.479,401.66,443.479z" style="fill: rgb(228, 128, 35);"/>
        </g>
        <g>
          <path d="M440.43,443.479h-21.32c-1.649,0-3-1.35-3-3c0-1.66,1.351-3,3-3h21.32c1.66,0,3,1.34,3,3      C443.43,442.13,442.09,443.479,440.43,443.479z" style="fill: rgb(228, 128, 35);"/>
        </g>
        <g>
          <path d="M157.83,443.939H77.01c-1.65,0-3-1.34-3-2.989c0-1.66,1.35-3,3-3h80.82c1.66,0,3,1.34,3,3      C160.83,442.6,159.49,443.939,157.83,443.939z" style="fill: rgb(228, 128, 35);"/>
        </g>
      </g>
    </g>
  </g>
</svg>