<svg xmlns="http://www.w3.org/2000/svg" xmlns:xlink="http://www.w3.org/1999/xlink" version="1.1" x="0px" y="0px" viewBox="0 0 512 640" style="enable-background:new 0 0 512 512;" xml:space="preserve"><g><g><g><g><path d="M111.35,233.52H39.14c-0.79,0-1.56-0.32-2.12-0.87c-0.56-0.56-0.88-1.34-0.88-2.13V158.3c0-0.79,0.32-1.56,0.88-2.12      c0.56-0.56,1.33-0.88,2.12-0.88h72.21c0.79,0,1.57,0.32,2.12,0.88c0.56,0.56,0.88,1.33,0.88,2.12v72.22      c0,0.8-0.32,1.57-0.88,2.13C112.92,233.2,112.14,233.52,111.35,233.52z M42.14,227.52h66.21V161.3H42.14V227.52z"/></g><g><path d="M215.57,233.52h-72.22c-0.79,0-1.57-0.32-2.12-0.87c-0.56-0.56-0.88-1.34-0.88-2.13V158.3c0-0.79,0.32-1.56,0.87-2.12      c0.56-0.56,1.33-0.88,2.13-0.88h72.22c0.79,0,1.56,0.32,2.12,0.88s0.88,1.33,0.88,2.12v72.22c0,0.8-0.32,1.57-0.88,2.13      C217.13,233.2,216.36,233.52,215.57,233.52z M146.35,227.52h66.22V161.3h-66.22V227.52z"/></g><g><path d="M319.79,233.53h-72.21c-0.79,0-1.56-0.32-2.12-0.88s-0.88-1.33-0.88-2.13V158.3c0-0.79,0.32-1.56,0.88-2.12      s1.33-0.88,2.12-0.88h72.21c0.79,0,1.56,0.32,2.12,0.88c0.56,0.56,0.88,1.33,0.88,2.12v72.22c0,0.81-0.311,1.56-0.88,2.13      C321.34,233.21,320.59,233.53,319.79,233.53z M250.58,227.53h66.21V161.3h-66.21V227.53z"/></g><g><path d="M111.35,335.26H39.14c-0.79,0-1.56-0.32-2.12-0.88c-0.56-0.561-0.88-1.33-0.88-2.12v-72.2c0-0.79,0.32-1.56,0.88-2.12      c0.56-0.56,1.33-0.88,2.12-0.88h72.21c0.79,0,1.57,0.32,2.12,0.88c0.56,0.561,0.88,1.33,0.88,2.12v72.2      c0,0.8-0.31,1.55-0.88,2.12C112.91,334.95,112.15,335.26,111.35,335.26z M42.14,329.26h66.21v-66.2H42.14V329.26z"/></g><g><path d="M215.57,335.26h-72.22c-0.79,0-1.56-0.32-2.12-0.88c-0.56-0.561-0.88-1.33-0.88-2.12v-72.2c0-0.79,0.32-1.56,0.88-2.12      c0.55-0.56,1.32-0.88,2.12-0.88h72.22c0.79,0,1.56,0.32,2.12,0.88c0.56,0.561,0.88,1.33,0.88,2.12v72.2      c0,0.8-0.31,1.55-0.88,2.12C217.12,334.95,216.37,335.26,215.57,335.26z M146.35,329.26h66.22v-66.2h-66.22V329.26z"/></g><g><path d="M319.79,335.26h-72.21c-0.79,0-1.56-0.32-2.12-0.88c-0.56-0.561-0.88-1.33-0.88-2.12v-72.2c0-0.79,0.32-1.56,0.88-2.12      c0.56-0.56,1.33-0.88,2.12-0.88h72.21c0.79,0,1.56,0.32,2.12,0.88c0.56,0.561,0.88,1.33,0.88,2.12v72.2      c0,0.8-0.311,1.55-0.88,2.12C321.34,334.95,320.59,335.26,319.79,335.26z M250.58,329.26h66.21v-66.2h-66.21V329.26z"/></g><g><path d="M111.35,437.05H39.14c-0.79,0-1.56-0.32-2.12-0.88c-0.56-0.561-0.88-1.33-0.88-2.12v-72.22c0-0.8,0.32-1.57,0.88-2.13      c0.55-0.551,1.33-0.87,2.12-0.87h72.21c0.79,0,1.57,0.319,2.12,0.87c0.56,0.56,0.88,1.33,0.88,2.13v72.22      c0,0.8-0.31,1.56-0.88,2.12C112.91,436.74,112.15,437.05,111.35,437.05z M42.14,431.05h66.21v-66.22H42.14V431.05z"/></g><g><path d="M215.57,437.05h-72.22c-0.79,0-1.57-0.32-2.13-0.88c-0.55-0.561-0.87-1.33-0.87-2.12v-72.22c0-0.8,0.32-1.57,0.87-2.13      c0.56-0.551,1.33-0.87,2.13-0.87h72.22c0.79,0,1.57,0.319,2.12,0.87c0.56,0.56,0.88,1.34,0.88,2.13v72.22      c0,0.8-0.31,1.56-0.88,2.12C217.12,436.74,216.37,437.05,215.57,437.05z M146.34,431.05h66.23v-66.22h-66.22L146.34,431.05z"/></g><g><path d="M319.79,437.05h-72.21c-0.79,0-1.56-0.32-2.12-0.88c-0.56-0.561-0.88-1.33-0.88-2.12v-72.22c0-0.79,0.32-1.57,0.88-2.13      c0.56-0.551,1.33-0.87,2.12-0.87h72.21c0.79,0,1.56,0.319,2.12,0.87c0.56,0.56,0.88,1.33,0.88,2.13v72.22      c0,0.8-0.311,1.56-0.88,2.12C321.34,436.74,320.59,437.05,319.79,437.05z M250.58,431.05h66.21v-66.22h-66.21V431.05z"/></g><g><path d="M319.79,437.05c-0.561,0-1.101-0.15-1.57-0.44c-0.9-0.55-1.43-1.51-1.43-2.56v-91.92c0-1.65,1.35-3,3-3      c1.649,0,3,1.35,3,3v87.05L483,348.34v-70.07c0-1.66,1.34-3,3-3c1.649,0,2.99,1.34,2.99,3v71.92c0,1.12-0.641,2.17-1.641,2.67      l-166.21,83.87C320.72,436.939,320.25,437.05,319.79,437.05z M319.79,325.13c-1.66,0-3-1.34-3-3c0-1.65,1.34-3,3-3      c1.649,0,3,1.35,3,3C322.79,323.79,321.439,325.13,319.79,325.13z M319.79,305.13c-1.66,0-3-1.34-3-3V158.3      c0-1.12,0.649-2.17,1.649-2.68l166.2-83.86c0.92-0.46,2.05-0.42,2.93,0.12c0.891,0.55,1.421,1.51,1.421,2.56L489,238.27      c0,1.65-1.351,3-3,3c-1.66,0-3-1.35-3-3V79.31l-160.21,80.84v141.98C322.79,303.79,321.439,305.13,319.79,305.13z M486,261.27      c-1.66,0-3-1.35-3-3c0-1.65,1.34-3,3-3c1.649,0,2.99,1.35,2.99,3C488.99,259.92,487.649,261.27,486,261.27z"/></g><g><path d="M319.79,161.3H232.3c-1.65,0-3-1.35-3-3s1.35-3,3-3h86.78l154.779-78.1l-64.26-1.27c-1.63-0.03-2.93-1.34-2.939-2.98      c0-0.03,0-0.05,0-0.08c0.04-1.62,1.38-2.94,3-2.94h0.06l76.33,1.51c1.39,0.02,2.56,0.99,2.87,2.33      c0.31,1.35-0.34,2.72-1.57,3.34l-166.21,83.87C320.71,161.19,320.26,161.3,319.79,161.3z M212.3,161.3c-1.65,0-3-1.35-3-3      s1.35-3,3-3c1.66,0,3,1.35,3,3S213.96,161.3,212.3,161.3z M192.3,161.3H39.14c-1.42,0-2.63-0.97-2.93-2.36      c-0.3-1.39,0.39-2.77,1.68-3.37l193.37-88.86c0.41-0.19,0.86-0.29,1.31-0.27l137.16,2.71c0.801,0.01,1.551,0.34,2.101,0.91      c0.56,0.58,0.859,1.34,0.84,2.14c-0.03,1.62-1.38,2.94-3,2.94h-0.061L233.13,72.45L52.85,155.3H192.3c1.66,0,3,1.35,3,3      S193.96,161.3,192.3,161.3z M389.67,75.54h-0.05c-0.811-0.02-1.561-0.35-2.11-0.92c-0.56-0.58-0.86-1.34-0.84-2.14      c0.03-1.62,1.37-2.94,3-2.94h0.06c0.801,0.01,1.54,0.34,2.101,0.92c0.56,0.58,0.85,1.34,0.84,2.14      C392.64,74.22,391.29,75.54,389.67,75.54z"/></g><g><path d="M279.18,453.63H47.7c-1.65,0-3-1.34-3-3c0-1.65,1.35-3,3-3h231.48c1.65,0,3,1.35,3,3      C282.18,452.29,280.83,453.63,279.18,453.63z"/></g><g><path d="M343.41,467.71H183.25c-1.66,0-3-1.34-3-3c0-1.65,1.34-3,3-3h160.16c1.659,0,3,1.35,3,3      C346.41,466.37,345.069,467.71,343.41,467.71z"/></g><g><path d="M379.84,467.71h-20.03c-1.649,0-3-1.34-3-3c0-1.65,1.351-3,3-3h20.03c1.65,0,3,1.35,3,3      C382.84,466.37,381.49,467.71,379.84,467.71z"/></g><g><path d="M114.48,467.27H38.59c-1.65,0-3-1.34-3-2.989c0-1.66,1.35-3,3-3h75.89c1.65,0,3,1.34,3,3      C117.48,465.93,116.13,467.27,114.48,467.27z"/></g><g><path d="M371.99,380.17L371.99,380.17c-1.171,0-2.24-0.68-2.721-1.74c-0.7-1.5-0.04-3.29,1.46-3.979l81.98-37.771v-149.5      c0-1.66,1.34-3,2.99-3c1.659,0,3,1.34,3,3V338.6c0,1.17-0.681,2.24-1.74,2.73l-83.71,38.569      C372.85,380.08,372.43,380.17,371.99,380.17z"/></g><g><path d="M26.01,139.15c-1.17,0-2.24-0.69-2.73-1.75c-0.69-1.5-0.03-3.29,1.47-3.98l193.38-88.86c0.4-0.18,0.82-0.27,1.26-0.27      h0.05l137.16,2.7c0.8,0.02,1.55,0.34,2.101,0.92c0.56,0.58,0.85,1.34,0.84,2.14c-0.04,1.62-1.38,2.94-3,2.94h-0.061L220.01,50.3      L27.26,138.87C26.86,139.06,26.44,139.15,26.01,139.15z M472.88,55.28c-0.021,0-0.04,0-0.061,0l-76.35-1.5      c-1.64-0.04-2.93-1.35-2.939-2.99c0-0.02,0-0.05,0-0.07c0.029-1.65,1.409-2.98,3.06-2.94l76.34,1.5      c1.66,0.04,2.98,1.41,2.95,3.06C475.84,53.96,474.5,55.28,472.88,55.28z M376.54,53.38c-0.021,0-0.04,0-0.061,0      c-0.81-0.01-1.55-0.34-2.109-0.92c-0.551-0.58-0.851-1.34-0.84-2.14c0.039-1.62,1.38-2.94,3-2.94h0.06      c0.81,0.02,1.55,0.35,2.11,0.92c0.55,0.58,0.85,1.34,0.83,2.14C379.5,52.06,378.16,53.38,376.54,53.38z"/></g></g></g></g></svg>