<svg xmlns="http://www.w3.org/2000/svg" data-name="Layer 1" viewBox="0 0 100 125" x="0px" y="0px"><title>abstract</title><polygon points="49.44 60.4 49.38 69.31 49.87 69.52 50.38 69.31 50.44 60.39 49.91 60.6 49.44 60.4"/><polygon points="50.56 39.74 50.62 30.82 50.11 30.6 49.62 30.8 49.56 39.72 50.04 39.52 50.56 39.74"/><polygon points="49.83 49.12 50 49.29 50.18 49.12 50.01 48.69 50.52 47.49 50.56 40.82 50.03 40.6 49.56 40.8 49.52 47.48 50.01 48.69 49.83 49.12"/><polygon points="50.17 50.88 50 50.71 49.82 50.88 49.99 51.31 49.48 52.51 49.44 59.32 49.91 59.52 50.44 59.3 50.48 52.52 49.99 51.31 50.17 50.88"/><polygon points="50.63 29.74 50.68 20.81 50.18 20.6 49.68 20.81 49.63 29.72 50.11 29.52 50.63 29.74"/><polygon points="49.37 70.4 49.32 79.31 49.82 79.52 50.32 79.31 50.37 70.39 49.86 70.6 49.37 70.4"/><polygon points="49.62 80.52 49.31 80.39 49.25 90.5 50.25 90.5 50.31 80.4 49.81 80.6 49.62 80.52"/><polygon points="50.69 19.73 50.75 9.5 49.75 9.5 49.69 19.73 50.19 19.52 50.69 19.73"/><polygon points="57.74 67.69 54.38 59.43 53.97 59.83 53.46 59.83 56.82 68.08 57.35 68.09 57.74 67.69"/><polygon points="42.3 32.41 45.66 40.66 46.02 40.3 46.59 40.31 43.23 32.04 42.68 32.04 42.3 32.41"/><polygon points="49.5 49.25 49.73 49.34 49.83 49.12 49.51 48.79 49.52 47.48 47 41.31 46.43 41.31 46.07 41.67 48.59 47.86 49.51 48.79 49.5 49.25"/><polygon points="53.56 58.83 53.97 58.42 51.41 52.14 50.49 51.21 50.49 50.75 50.27 50.66 50.17 50.88 50.49 51.21 50.48 52.52 53.05 58.82 53.56 58.83"/><polygon points="38.53 23.15 41.89 31.41 42.27 31.04 42.82 31.04 39.46 22.77 38.92 22.77 38.53 23.15"/><polygon points="61.51 76.96 58.15 68.7 57.76 69.09 57.23 69.08 60.59 77.34 61.13 77.34 61.51 76.96"/><polygon points="61.54 78.35 61.33 78.34 60.99 78.34 64.81 87.7 65.73 87.32 61.92 77.96 61.54 78.35"/><polygon points="38.51 21.77 39.05 21.77 35.2 12.3 34.27 12.68 38.13 22.15 38.51 21.77"/><polygon points="57.43 57.56 56.96 57.76 63.22 64.09 63.71 63.9 63.92 63.38 57.65 57.04 57.43 57.56"/><polygon points="42.62 42.56 43.15 42.35 36.87 36 36.36 36.21 36.16 36.7 42.42 43.04 42.62 42.56"/><polygon points="49.26 49.49 49.5 49.5 49.5 49.25 49.08 49.07 48.59 47.86 43.91 43.12 43.38 43.33 43.18 43.81 47.88 48.56 49.08 49.07 49.26 49.49"/><polygon points="50.74 50.51 50.5 50.5 50.49 50.75 50.92 50.93 51.41 52.14 56.2 56.98 56.67 56.79 56.89 56.27 52.12 51.44 50.92 50.93 50.74 50.51"/><polygon points="35.6 35.44 36.11 35.23 29.84 28.88 29.34 29.08 29.13 29.58 35.4 35.92 35.6 35.44"/><polygon points="64.47 64.67 63.98 64.86 70.24 71.21 70.75 71 70.95 70.5 64.68 64.16 64.47 64.67"/><polygon points="71.51 71.77 71.31 71.85 71 71.98 78.11 79.17 78.82 78.46 71.72 71.27 71.51 71.77"/><polygon points="28.58 28.32 29.08 28.11 21.89 20.83 21.18 21.54 28.37 28.82 28.58 28.32"/><polygon points="67.98 57.59 67.98 57.04 59.76 53.57 59.76 54.14 59.4 54.5 67.61 57.96 67.98 57.59"/><polygon points="32.52 42.09 32.12 42.48 32.12 43.01 40.33 46.47 40.33 45.95 40.74 45.55 32.52 42.09"/><polygon points="49.12 49.82 49.35 49.73 49.26 49.49 48.8 49.49 47.88 48.56 41.74 45.97 41.33 46.37 41.33 46.89 47.49 49.48 48.8 49.49 49.12 49.82"/><polygon points="50.88 50.18 50.65 50.27 50.74 50.51 51.2 50.51 52.12 51.44 58.4 54.08 58.76 53.72 58.76 53.15 52.51 50.52 51.2 50.51 50.88 50.18"/><polygon points="31.12 42.06 31.52 41.67 23.3 38.2 22.91 38.58 22.91 39.12 31.12 42.59 31.12 42.06"/><polygon points="77.2 61.47 77.2 60.92 68.98 57.46 68.98 58.01 68.61 58.38 76.82 61.84 77.2 61.47"/><polygon points="78.2 61.89 78.05 62.03 77.81 62.27 87.13 66.19 87.52 65.27 78.2 61.34 78.2 61.89"/><polygon points="21.91 38.16 22.3 37.78 12.87 33.81 12.48 34.73 21.91 38.7 21.91 38.16"/><polygon points="69.52 50.13 69.31 49.62 60.39 49.56 60.6 50.09 60.4 50.56 69.31 50.62 69.52 50.13"/><polygon points="39.52 49.96 39.74 49.44 30.82 49.38 30.6 49.89 30.8 50.38 39.72 50.44 39.52 49.96"/><polygon points="49.12 50.17 49.29 50 49.12 49.82 48.69 49.99 47.49 49.48 40.82 49.44 40.6 49.97 40.8 50.44 47.48 50.48 48.69 49.99 49.12 50.17"/><polygon points="50.88 49.83 50.71 50 50.88 50.18 51.31 50.01 52.51 50.52 59.32 50.56 59.52 50.09 59.3 49.56 52.52 49.52 51.31 50.01 50.88 49.83"/><polygon points="20.6 49.82 20.81 50.32 29.72 50.38 29.52 49.89 29.74 49.38 20.81 49.32 20.6 49.82"/><polygon points="79.52 50.18 79.31 49.68 70.39 49.63 70.6 50.14 70.4 50.63 79.31 50.68 79.52 50.18"/><polygon points="80.4 49.69 80.6 50.19 80.52 50.38 80.39 50.69 90.5 50.75 90.5 49.75 80.4 49.69"/><polygon points="19.52 49.81 19.73 49.31 9.5 49.25 9.5 50.25 19.73 50.31 19.52 49.81"/><polygon points="59.83 46.54 68.08 43.18 68.09 42.65 67.69 42.26 59.43 45.62 59.83 46.03 59.83 46.54"/><polygon points="40.31 53.41 32.04 56.77 32.04 57.32 32.41 57.7 40.66 54.34 40.3 53.98 40.31 53.41"/><polygon points="49.25 50.5 49.34 50.27 49.12 50.17 48.79 50.49 47.48 50.48 41.31 53 41.31 53.57 41.67 53.93 47.86 51.41 48.79 50.49 49.25 50.5"/><polygon points="50.75 49.51 50.66 49.73 50.88 49.83 51.21 49.51 52.52 49.52 58.82 46.95 58.83 46.44 58.42 46.03 52.14 48.59 51.21 49.51 50.75 49.51"/><polygon points="31.41 58.11 31.04 57.73 31.04 57.18 22.77 60.54 22.77 61.08 23.15 61.47 31.41 58.11"/><polygon points="77.34 39.41 77.34 38.87 76.96 38.49 68.7 41.85 69.09 42.24 69.08 42.77 77.34 39.41"/><polygon points="78.35 38.46 78.34 38.67 78.34 39.01 87.7 35.2 87.32 34.27 77.96 38.08 78.35 38.46"/><polygon points="21.77 61.49 21.77 60.95 12.3 64.81 12.68 65.73 22.15 61.88 21.77 61.49"/><polygon points="63.38 36.08 57.04 42.35 57.56 42.57 57.76 43.04 64.09 36.78 63.9 36.29 63.38 36.08"/><polygon points="36.7 63.84 43.04 57.58 42.56 57.38 42.35 56.85 36 63.13 36.21 63.64 36.7 63.84"/><polygon points="49.49 50.74 49.5 50.5 49.25 50.5 49.07 50.92 47.86 51.41 43.12 56.09 43.33 56.62 43.81 56.82 48.56 52.12 49.07 50.92 49.49 50.74"/><polygon points="50.51 49.26 50.5 49.5 50.75 49.51 50.93 49.08 52.14 48.59 56.98 43.8 56.79 43.33 56.27 43.11 51.44 47.88 50.93 49.08 50.51 49.26"/><polygon points="35.44 64.4 35.23 63.89 28.88 70.16 29.08 70.66 29.58 70.87 35.92 64.61 35.44 64.4"/><polygon points="64.67 35.53 64.86 36.02 71.21 29.76 71 29.25 70.5 29.05 64.16 35.32 64.67 35.53"/><polygon points="71.85 28.69 71.98 29 79.17 21.89 78.46 21.18 71.27 28.29 71.77 28.49 71.85 28.69"/><polygon points="28.11 70.92 20.83 78.11 21.54 78.82 28.82 71.63 28.32 71.42 28.11 70.92"/><polygon points="54.5 40.6 57.96 32.39 57.59 32.02 57.04 32.02 53.57 40.24 54.14 40.24 54.5 40.6"/><polygon points="45.55 59.26 42.09 67.48 42.48 67.88 43.01 67.88 46.47 59.67 45.95 59.67 45.55 59.26"/><polygon points="49.82 50.88 49.73 50.65 49.49 50.74 49.49 51.2 48.56 52.12 45.97 58.26 46.37 58.67 46.89 58.67 49.48 52.51 49.49 51.2 49.82 50.88"/><polygon points="50.18 49.12 50.27 49.35 50.51 49.26 50.51 48.8 51.44 47.88 54.08 41.6 53.72 41.24 53.15 41.24 50.52 47.49 50.51 48.8 50.18 49.12"/><polygon points="41.67 68.48 38.2 76.7 38.58 77.09 39.12 77.09 42.59 68.88 42.06 68.88 41.67 68.48"/><polygon points="58.38 31.39 61.84 23.18 61.47 22.8 60.92 22.8 57.46 31.02 58.01 31.02 58.38 31.39"/><polygon points="62.03 21.95 62.27 22.19 66.19 12.87 65.27 12.48 61.34 21.8 61.89 21.8 62.03 21.95"/><polygon points="37.78 77.7 33.81 87.13 34.73 87.52 38.7 78.09 38.16 78.09 37.78 77.7"/><text x="0" y="115" fill="#000000" font-size="5px" font-weight="bold" font-family="'Helvetica Neue', Helvetica, Arial-Unicode, Arial, Sans-serif">Created by Visionary</text><text x="0" y="120" fill="#000000" font-size="5px" font-weight="bold" font-family="'Helvetica Neue', Helvetica, Arial-Unicode, Arial, Sans-serif">from the Noun Project</text></svg>