<?xml version="1.0" encoding="UTF-8"?>
<svg width="512pt" height="512pt" version="1.1" viewBox="0 0 512 512" xmlns="http://www.w3.org/2000/svg">
 <g>
  <path d="m222.21 114.57c-28.547-0.027344-55.93 11.301-76.121 31.48-20.191 20.18-31.531 47.559-31.52 76.102 0.007813 28.547 11.363 55.918 31.57 76.086l34.598-34.594c-14.57-14.855-20.176-36.324-14.727-56.41 5.4492-20.082 21.141-35.773 41.223-41.223 20.086-5.4492 41.555 0.15625 56.41 14.727l34.598-34.598-0.003906 0.003906c-20.125-20.23-47.492-31.594-76.027-31.574zm-196.61-88.965v393.17l101.98-101.98c-25.285-25.051-39.543-59.141-39.625-94.73-0.085938-35.59 14.016-69.746 39.184-94.91 25.164-25.168 59.32-39.27 94.91-39.184 35.59 0.082031 69.68 14.34 94.73 39.625l101.98-101.98zm40.449 116.45-0.003906-0.003906c-4.0039 0.003906-7.8438-1.5859-10.676-4.418-2.832-2.832-4.4219-6.6758-4.4219-10.68 0-4.0039 1.5938-7.8438 4.4297-10.676 2.832-2.8281 6.6758-4.418 10.68-4.4141 4.0039 0.003906 7.8438 1.6016 10.672 4.4375 2.8281 2.8359 4.4141 6.6797 4.4062 10.684-0.003907 4-1.5977 7.832-4.4258 10.656-2.8281 2.8281-6.6641 4.4141-10.664 4.4102zm0-60.93h-0.003906c-4.0039 0-7.8438-1.5898-10.676-4.4219-2.832-2.832-4.4219-6.6719-4.4219-10.68 0-4.0039 1.5938-7.8438 4.4297-10.672 2.832-2.832 6.6758-4.418 10.68-4.4141 4.0039 0.003906 7.8438 1.5977 10.672 4.4336 2.8281 2.8359 4.4141 6.6797 4.4062 10.684 0 4.0039-1.5898 7.8438-4.418 10.672s-6.668 4.418-10.672 4.418zm57.984 0h-0.003906c-4.0078 0.015624-7.8555-1.5625-10.699-4.3867-2.8438-2.8281-4.4453-6.668-4.457-10.676-0.007812-4.0078 1.5781-7.8555 4.4102-10.691 2.832-2.8398 6.6719-4.4336 10.684-4.4336 4.0078 0 7.8516 1.5898 10.684 4.4258 2.832 2.8398 4.418 6.6836 4.4102 10.691 0.003906 3.9961-1.5781 7.8242-4.3984 10.652-2.8203 2.8281-6.6445 4.4258-10.637 4.4375z"/>
  <path d="m316.79 127.59-18.551 18.551c27.172 27.168 37.781 66.77 27.836 103.88-9.9453 37.117-38.934 66.105-76.051 76.051-37.113 9.9453-76.715-0.66406-103.88-27.836l-18.551 18.551c25.047 25.281 59.137 39.543 94.727 39.625 35.59 0.082032 69.746-14.02 94.914-39.184 25.164-25.168 39.266-59.324 39.184-94.914-0.082031-35.59-14.344-69.68-39.625-94.727z"/>
  <path d="m280.8 222.21c0.015624 15.547-6.1484 30.461-17.133 41.461s-25.895 17.18-41.441 17.184c-15.543 0-30.453-6.1758-41.441-17.172v-0.050782l82.797-82.84h0.054687c11.008 10.969 17.188 25.879 17.164 41.418z"/>
  <path d="m486.4 331.64v21.918l-132.84 132.84h-21.918z"/>
  <path d="m486.4 396.87v21.844l-67.684 67.684h-21.844z"/>
  <path d="m486.4 268.79v21.918l-195.7 195.7h-21.918z"/>
  <path d="m486.4 204.79v22.5l-259.11 259.11h-22.5z"/>
  <path d="m486.4 452.84v33.559h-33.559z"/>
 </g>
</svg>
