<svg xmlns="http://www.w3.org/2000/svg" xmlns:xlink="http://www.w3.org/1999/xlink" version="1.1" x="0px" y="0px" viewBox="0 0 512 640" style="enable-background:new 0 0 512 512;" xml:space="preserve"><g><g><g><g><path d="M256,372.909c-76.683,0-149.065-41.994-198.589-115.215c-0.687-1.015-0.687-2.346,0-3.361      c5.217-7.716,10.788-15.217,16.56-22.295c1.047-1.284,2.937-1.477,4.221-0.429c1.284,1.047,1.476,2.937,0.429,4.221      c-5.239,6.425-10.311,13.207-15.095,20.184C111.879,326.517,181.929,366.909,256,366.909      c74.072,0,144.123-40.393,192.474-110.896C400.141,185.511,330.091,145.118,256,145.118c-51.3,0-100.727,19.117-142.935,55.284      c-1.259,1.079-3.152,0.932-4.23-0.326c-1.078-1.258-0.932-3.152,0.326-4.23c43.311-37.112,94.087-56.729,146.839-56.729      c76.704,0,149.086,41.994,198.589,115.215c0.687,1.015,0.687,2.346,0,3.361C405.066,330.915,332.684,372.909,256,372.909z"/></g><g><path d="M256,350.407c-52.049,0-94.394-42.345-94.394-94.394c0-24.188,9.142-47.193,25.74-64.778      c1.138-1.205,3.036-1.26,4.241-0.123c1.205,1.137,1.26,3.036,0.123,4.241c-15.543,16.467-24.104,38.01-24.104,60.66      c0,48.74,39.653,88.394,88.394,88.394c48.741,0,88.395-39.653,88.395-88.394S304.74,167.62,256,167.62      c-7.933,0-15.797,1.051-23.374,3.124c-1.596,0.437-3.248-0.503-3.685-2.102c-0.438-1.598,0.504-3.248,2.102-3.685      c8.092-2.213,16.488-3.336,24.957-3.336c52.049,0,94.395,42.345,94.395,94.394S308.049,350.407,256,350.407z"/></g><g><path d="M207.5,150.861c-1.657,0-3-1.343-3-3V142l-17.268-17.294l-26.466-26.438c-0.563-0.563-0.88-1.326-0.88-2.123V42.79      c0-1.657,1.343-3,3-3s3,1.343,3,3v52.111l25.589,25.563l18.147,18.176c0.562,0.563,0.877,1.325,0.877,2.12v7.103      C210.5,149.518,209.157,150.861,207.5,150.861z"/></g><g><path d="M233.555,146.339c-1.657,0-3-1.343-3-3v-7.774l-44.07-44.068c-0.563-0.563-0.879-1.326-0.879-2.122V79.191      c0-1.657,1.343-3,3-3s3,1.343,3,3v8.941l44.07,44.068c0.563,0.563,0.879,1.326,0.879,2.122v9.017      C236.555,144.996,235.212,146.339,233.555,146.339z"/></g><g><path d="M199.316,103.084c-0.768,0-1.536-0.293-2.121-0.879c-1.172-1.171-1.172-3.071,0-4.242l17.683-17.683V58.133      c0-1.657,1.343-3,3-3s3,1.343,3,3v23.39c0,0.795-0.316,1.559-0.879,2.121l-18.562,18.562      C200.852,102.791,200.083,103.084,199.316,103.084z"/></g><g><path d="M255.696,145.118c-1.657,0-3-1.343-3-3V46.369c0-1.657,1.343-3,3-3s3,1.343,3,3v95.749      C258.695,143.775,257.353,145.118,255.696,145.118z"/></g><g><path d="M256.055,122.339c-0.768,0-1.536-0.293-2.121-0.879l-18.923-18.923c-0.563-0.563-0.879-1.326-0.879-2.121V62.961      c0-1.657,1.343-3,3-3s3,1.343,3,3v36.212l18.044,18.044c1.171,1.171,1.171,3.071,0,4.242      C257.591,122.046,256.823,122.339,256.055,122.339z"/></g><g><path d="M162.887,45.79c-6.275,0-11.381-5.105-11.381-11.38c0-6.29,5.105-11.406,11.381-11.406      c6.289,0,11.405,5.117,11.405,11.406C174.292,40.685,169.176,45.79,162.887,45.79z M162.887,29.004      c-2.967,0-5.381,2.425-5.381,5.406c0,2.966,2.414,5.38,5.381,5.38c2.98,0,5.405-2.414,5.405-5.38      C168.292,31.429,165.868,29.004,162.887,29.004z"/></g><g><path d="M217.877,61.16c-6.29,0-11.406-5.117-11.406-11.406s5.117-11.406,11.406-11.406c6.274,0,11.379,5.117,11.379,11.406      S224.152,61.16,217.877,61.16z M217.877,44.348c-2.981,0-5.406,2.425-5.406,5.406s2.425,5.406,5.406,5.406      c2.966,0,5.379-2.425,5.379-5.406S220.843,44.348,217.877,44.348z"/></g><g><path d="M304.498,150.861c-1.657,0-3-1.343-3-3v-7.103c0-0.795,0.315-1.557,0.877-2.12l18.146-18.173l25.592-25.565V42.79      c0-1.657,1.343-3,3-3s3,1.343,3,3v53.354c0,0.796-0.316,1.56-0.88,2.123l-26.469,26.441L307.498,142v5.861      C307.498,149.518,306.155,150.861,304.498,150.861z"/></g><g><path d="M278.445,146.339c-1.657,0-3-1.343-3-3v-9.017c0-0.796,0.316-1.56,0.879-2.122l44.098-44.068v-8.94c0-1.657,1.343-3,3-3      s3,1.343,3,3v10.184c0,0.796-0.316,1.56-0.879,2.122l-44.098,44.068v7.773C281.445,144.996,280.103,146.339,278.445,146.339z"/></g><g><path d="M312.711,103.084c-0.768,0-1.535-0.293-2.121-0.879l-18.561-18.562c-0.563-0.563-0.879-1.326-0.879-2.121v-23.39      c0-1.657,1.343-3,3-3s3,1.343,3,3V80.28l17.682,17.683c1.172,1.171,1.172,3.071,0,4.243      C314.246,102.791,313.479,103.084,312.711,103.084z"/></g><g><path d="M349.113,45.79c-6.289,0-11.406-5.105-11.406-11.38c0-6.29,5.117-11.406,11.406-11.406      c6.275,0,11.381,5.117,11.381,11.406C360.494,40.685,355.389,45.79,349.113,45.79z M349.113,29.004      c-2.981,0-5.406,2.425-5.406,5.406c0,2.966,2.425,5.38,5.406,5.38c2.967,0,5.381-2.414,5.381-5.38      C354.494,31.429,352.08,29.004,349.113,29.004z"/></g><g><path d="M294.15,61.16c-6.289,0-11.406-5.117-11.406-11.406s5.117-11.406,11.406-11.406c6.274,0,11.379,5.117,11.379,11.406      S300.425,61.16,294.15,61.16z M294.15,44.348c-2.981,0-5.406,2.425-5.406,5.406s2.425,5.406,5.406,5.406      c2.966,0,5.379-2.425,5.379-5.406S297.116,44.348,294.15,44.348z"/></g><g><path d="M162.887,472.211c-1.657,0-3-1.343-3-3v-53.327c0-0.796,0.316-1.559,0.878-2.121l43.735-43.736v-5.86      c0-1.657,1.343-3,3-3s3,1.343,3,3v7.103c0,0.796-0.316,1.559-0.878,2.121l-43.735,43.736v52.085      C165.887,470.868,164.544,472.211,162.887,472.211z"/></g><g><path d="M188.606,435.808c-1.657,0-3-1.343-3-3v-10.154c0-0.795,0.316-1.559,0.878-2.121l44.071-44.097v-7.747      c0-1.657,1.343-3,3-3s3,1.343,3,3v8.989c0,0.795-0.316,1.559-0.878,2.121l-44.071,44.097v8.912      C191.606,434.465,190.263,435.808,188.606,435.808z"/></g><g><path d="M217.877,456.867c-1.657,0-3-1.343-3-3v-22.12l-17.683-17.683c-1.172-1.171-1.172-3.071,0-4.242      c1.171-1.172,3.071-1.172,4.242,0l18.562,18.562c0.563,0.563,0.879,1.325,0.879,2.121v23.362      C220.877,455.524,219.534,456.867,217.877,456.867z"/></g><g><path d="M255.696,468.659c-1.657,0-3-1.343-3-3v-95.75c0-1.657,1.343-3,3-3s3,1.343,3,3v95.75      C258.695,467.316,257.353,468.659,255.696,468.659z"/></g><g><path d="M237.132,452.066c-1.657,0-3-1.343-3-3v-37.483c0-0.796,0.316-1.559,0.879-2.121l18.923-18.923      c1.171-1.172,3.071-1.172,4.243,0c1.171,1.171,1.171,3.071,0,4.242l-18.044,18.044v36.241      C240.132,450.724,238.789,452.066,237.132,452.066z"/></g><g><path d="M162.887,488.996c-6.275,0-11.381-5.104-11.381-11.379c0-6.289,5.105-11.406,11.381-11.406      c6.289,0,11.405,5.117,11.405,11.406C174.292,483.892,169.176,488.996,162.887,488.996z M162.887,472.211      c-2.967,0-5.381,2.425-5.381,5.406c0,2.966,2.414,5.379,5.381,5.379c2.98,0,5.405-2.413,5.405-5.379      C168.292,474.636,165.868,472.211,162.887,472.211z"/></g><g><path d="M217.877,473.652c-6.29,0-11.406-5.104-11.406-11.379c0-6.289,5.117-11.406,11.406-11.406      c6.274,0,11.379,5.117,11.379,11.406C229.256,468.548,224.152,473.652,217.877,473.652z M217.877,456.867      c-2.981,0-5.406,2.425-5.406,5.406c0,2.966,2.425,5.379,5.406,5.379c2.966,0,5.379-2.413,5.379-5.379      C223.256,459.292,220.843,456.867,217.877,456.867z"/></g><g><path d="M349.113,472.211c-1.657,0-3-1.343-3-3v-52.085l-43.736-43.736c-0.563-0.563-0.879-1.325-0.879-2.121v-7.103      c0-1.657,1.343-3,3-3s3,1.343,3,3v5.859l43.736,43.737c0.563,0.563,0.879,1.325,0.879,2.121v53.327      C352.113,470.868,350.771,472.211,349.113,472.211z"/></g><g><path d="M323.422,435.808c-1.657,0-3-1.343-3-3v-8.912l-44.098-44.097c-0.563-0.563-0.879-1.325-0.879-2.121v-8.989      c0-1.657,1.343-3,3-3s3,1.343,3,3v7.747l44.098,44.097c0.563,0.563,0.879,1.325,0.879,2.121v10.154      C326.422,434.465,325.079,435.808,323.422,435.808z"/></g><g><path d="M294.15,456.867c-1.657,0-3-1.343-3-3v-23.362c0-0.796,0.316-1.559,0.879-2.121l18.561-18.562      c1.172-1.172,3.07-1.172,4.242,0c1.172,1.171,1.172,3.07,0,4.242l-17.682,17.683v22.12      C297.15,455.524,295.808,456.867,294.15,456.867z"/></g><g><path d="M349.113,488.996c-6.289,0-11.406-5.104-11.406-11.379c0-6.289,5.117-11.406,11.406-11.406      c6.275,0,11.381,5.117,11.381,11.406C360.494,483.892,355.389,488.996,349.113,488.996z M349.113,472.211      c-2.981,0-5.406,2.425-5.406,5.406c0,2.966,2.425,5.379,5.406,5.379c2.967,0,5.381-2.413,5.381-5.379      C354.494,474.636,352.08,472.211,349.113,472.211z"/></g><g><path d="M294.15,473.652c-6.289,0-11.406-5.104-11.406-11.379c0-6.289,5.117-11.406,11.406-11.406      c6.274,0,11.379,5.117,11.379,11.406C305.529,468.548,300.425,473.652,294.15,473.652z M294.15,456.867      c-2.981,0-5.406,2.425-5.406,5.406c0,2.966,2.425,5.379,5.406,5.379c2.966,0,5.379-2.413,5.379-5.379      C299.529,459.292,297.116,456.867,294.15,456.867z"/></g><g><path d="M256,259.014c-0.768,0-1.536-0.293-2.121-0.879L64.904,69.16c-1.171-1.171-1.171-3.071,0-4.242      c1.171-1.172,3.071-1.172,4.242,0l188.974,188.975c1.171,1.171,1.171,3.071,0,4.242      C257.535,258.721,256.767,259.014,256,259.014z"/></g><g><path d="M256,259.014c-0.77,0-1.54-0.295-2.126-0.883c-1.169-1.174-1.165-3.074,0.009-4.243L443.273,65.302      c1.175-1.168,3.074-1.166,4.243,0.009c1.169,1.174,1.165,3.073-0.009,4.243L258.116,258.14      C257.531,258.723,256.765,259.014,256,259.014z"/></g><g><path d="M67.026,447.988c-0.768,0-1.536-0.293-2.121-0.879c-1.172-1.171-1.172-3.071,0-4.242l188.974-188.975      c1.171-1.172,3.071-1.172,4.243,0c1.171,1.171,1.171,3.071,0,4.242L69.147,447.109      C68.562,447.695,67.793,447.988,67.026,447.988z"/></g><g><path d="M444.975,447.988c-0.768,0-1.535-0.293-2.121-0.879L253.878,258.135c-1.172-1.171-1.172-3.071,0-4.242      c1.171-1.172,3.071-1.172,4.243,0l188.975,188.975c1.172,1.171,1.172,3.071,0,4.242      C446.51,447.695,445.742,447.988,444.975,447.988z"/></g><g><path d="M256,282.098c-14.383,0-26.085-11.701-26.085-26.084S241.616,229.93,256,229.93s26.084,11.701,26.084,26.084      S270.383,282.098,256,282.098z M256,235.93c-11.075,0-20.085,9.01-20.085,20.084s9.01,20.084,20.085,20.084      s20.084-9.01,20.084-20.084S267.074,235.93,256,235.93z"/></g><g><path d="M450.912,72.48c-6.275,0-11.381-5.117-11.381-11.406c0-6.274,5.105-11.379,11.381-11.379      c6.289,0,11.406,5.104,11.406,11.379C462.318,67.364,457.201,72.48,450.912,72.48z M450.912,55.695      c-2.967,0-5.381,2.413-5.381,5.379c0,2.981,2.414,5.406,5.381,5.406c2.981,0,5.406-2.425,5.406-5.406      C456.318,58.108,453.894,55.695,450.912,55.695z"/></g><g><path d="M61.088,72.48c-6.29,0-11.407-5.117-11.407-11.406c0-6.274,5.117-11.379,11.407-11.379      c6.274,0,11.379,5.104,11.379,11.379C72.467,67.364,67.363,72.48,61.088,72.48z M61.088,55.695      c-2.981,0-5.407,2.413-5.407,5.379c0,2.981,2.426,5.406,5.407,5.406c2.966,0,5.379-2.425,5.379-5.406      C66.467,58.108,64.054,55.695,61.088,55.695z"/></g><g><path d="M61.088,462.305c-6.29,0-11.407-5.104-11.407-11.379c0-6.29,5.117-11.407,11.407-11.407      c6.274,0,11.379,5.117,11.379,11.407C72.467,457.2,67.363,462.305,61.088,462.305z M61.088,445.519      c-2.981,0-5.407,2.426-5.407,5.407c0,2.966,2.426,5.379,5.407,5.379c2.966,0,5.379-2.413,5.379-5.379      C66.467,447.944,64.054,445.519,61.088,445.519z"/></g><g><path d="M450.912,462.333c-6.275,0-11.381-5.117-11.381-11.407s5.105-11.407,11.381-11.407c6.289,0,11.406,5.117,11.406,11.407      S457.201,462.333,450.912,462.333z M450.912,445.519c-2.967,0-5.381,2.426-5.381,5.407s2.414,5.407,5.381,5.407      c2.981,0,5.406-2.426,5.406-5.407S453.894,445.519,450.912,445.519z"/></g><g><path d="M159.798,349.574c-0.007,0-0.013-0.001-0.02,0h-59.152c-1.657,0-3-1.343-3-3v-42.173c0-1.2,0.715-2.285,1.818-2.758      c1.101-0.473,2.381-0.243,3.25,0.585c17.875,17.023,37.469,31.008,58.241,41.569c1.093,0.448,1.862,1.522,1.862,2.776      C162.798,348.231,161.455,349.574,159.798,349.574z M103.625,343.574h44.277c-15.563-8.911-30.399-19.73-44.277-32.294V343.574z      "/></g><g><path d="M411.373,349.574h-59.152c-1.388,0-2.595-0.952-2.918-2.303c-0.322-1.35,0.323-2.745,1.561-3.373      c20.846-10.571,40.508-24.591,58.44-41.67c0.869-0.826,2.147-1.057,3.251-0.585c1.104,0.473,1.818,1.558,1.818,2.758v42.173      C414.373,348.231,413.03,349.574,411.373,349.574z M364.097,343.574h44.276V311.28      C394.495,323.845,379.659,334.663,364.097,343.574z"/></g><g><path d="M411.374,210.626c-0.756,0-1.501-0.286-2.07-0.828c-17.995-17.137-37.656-31.157-58.438-41.668      c-1.239-0.627-1.886-2.022-1.563-3.374c0.322-1.351,1.529-2.304,2.918-2.304h59.152c1.657,0,3,1.343,3,3v42.173      c0,1.2-0.715,2.285-1.818,2.757C412.174,210.546,411.772,210.626,411.374,210.626z M364.114,168.453      c15.521,8.88,30.351,19.698,44.259,32.293v-32.293H364.114z"/></g><g><path d="M100.625,210.626c-0.399,0-0.8-0.08-1.181-0.243c-1.103-0.473-1.818-1.557-1.818-2.757v-42.173c0-1.657,1.343-3,3-3      h59.181c1.389,0,2.596,0.954,2.918,2.305c0.322,1.351-0.326,2.747-1.566,3.373c-20.79,10.502-40.46,24.521-58.464,41.667      C102.125,210.34,101.381,210.626,100.625,210.626z M103.625,168.453v32.293c13.913-12.598,28.75-23.418,44.276-32.293H103.625z"/></g></g></g></g><text x="0" y="527" fill="#000000" font-size="5px" font-weight="bold" font-family="'Helvetica Neue', Helvetica, Arial-Unicode, Arial, Sans-serif">Created by Flatart</text><text x="0" y="532" fill="#000000" font-size="5px" font-weight="bold" font-family="'Helvetica Neue', Helvetica, Arial-Unicode, Arial, Sans-serif">from the Noun Project</text></svg>