<svg xmlns="http://www.w3.org/2000/svg" xmlns:xlink="http://www.w3.org/1999/xlink" version="1.1" x="0px" y="0px" viewBox="0 0 512 640" style="enable-background:new 0 0 512 512;" xml:space="preserve"><g><g><g><g><path d="M285.439,366.02H153.83c-0.79,0-1.57-0.319-2.13-0.88c-0.55-0.56-0.87-1.34-0.87-2.12V287.2      c0-8.48,1.54-16.78,4.59-24.67l0,0c0.45-1.15,1.57-1.91,2.8-1.91c0.37,0,0.73,0.06,1.08,0.199c1.16,0.45,1.91,1.54,1.92,2.78      c0,0.37-0.07,0.74-0.2,1.101c-2.78,7.189-4.19,14.76-4.19,22.5v72.819h125.61V287.2c0-16.7-6.55-32.46-18.449-44.36      c-11.9-11.89-27.65-18.44-44.351-18.45c-12.61,0.01-24.78,3.77-35.22,10.88c-0.5,0.34-1.09,0.52-1.69,0.52      c-0.99,0-1.92-0.49-2.48-1.31c-0.45-0.67-0.62-1.46-0.47-2.25s0.6-1.47,1.26-1.92c11.43-7.8,24.78-11.92,38.6-11.92      c9.25,0.01,18.24,1.83,26.72,5.43c8.19,3.48,15.55,8.45,21.88,14.78c6.329,6.33,11.3,13.69,14.77,21.88      c3.6,8.48,5.43,17.471,5.43,26.721v75.819c0,0.8-0.31,1.55-0.88,2.12C287,365.7,286.24,366.02,285.439,366.02z M168.13,249.34      c-0.68,0-1.33-0.22-1.86-0.65c-1.3-1.03-1.51-2.92-0.48-4.21c0.99-1.26,2.95-1.48,4.21-0.48c1.3,1.03,1.51,2.92,0.48,4.21      C169.91,248.93,169.05,249.34,168.13,249.34z"/></g><g><path d="M219.63,430.66L219.63,430.66c-7.84,0-15.46-1.551-22.64-4.601c-6.93-2.95-13.17-7.16-18.53-12.529      c-5.35-5.36-9.56-11.601-12.51-18.53c-3.05-7.19-4.59-14.811-4.6-22.65v-9.33c0-0.79,0.32-1.569,0.88-2.13      c0.56-0.56,1.33-0.87,2.12-0.87h110.57c0.79,0,1.56,0.32,2.12,0.88c0.56,0.551,0.88,1.32,0.88,2.12v9.33      c0,7.84-1.55,15.46-4.601,22.65c-2.949,6.93-7.159,13.17-12.51,18.53c-5.36,5.369-11.6,9.579-18.53,12.529      C235.09,429.109,227.48,430.66,219.63,430.66z M167.35,366.01v6.34c0,13.91,5.46,27.03,15.36,36.94      c9.91,9.91,23.02,15.37,36.92,15.37c13.91,0,27.02-5.46,36.93-15.37c9.9-9.91,15.36-23.03,15.36-36.94v-6.34H167.35z"/></g><g><path d="M110.03,383.64c-0.88,0-1.71-0.38-2.28-1.05c-0.52-0.61-0.77-1.38-0.71-2.18c0.06-0.801,0.43-1.53,1.04-2.051      l20.59-17.619c0.54-0.471,1.23-0.721,1.95-0.721h30.53c1.66,0,3,1.34,3,3c0,1.65-1.34,2.99-3,2.99h-29.42l-19.75,16.91      C111.44,383.38,110.75,383.64,110.03,383.64z"/></g><g><path d="M328.479,383.64c-0.71,0-1.41-0.26-1.949-0.729l-19.721-16.9l-29.45,0.01c-1.659,0-3-1.35-3-3c0-1.66,1.341-3,3-3      h30.561c0.72,0,1.41,0.25,1.96,0.721l20.56,17.619c1.25,1.08,1.4,2.98,0.32,4.23C330.189,383.26,329.359,383.64,328.479,383.64z      "/></g><g><path d="M130.62,282.58L130.62,282.58c-0.71,0-1.41-0.25-1.95-0.721l-20.59-17.619c-1.26-1.08-1.4-2.971-0.33-4.23      c1.04-1.21,3.02-1.36,4.23-0.33l19.74,16.9l22.54-0.021c1.65,0,3,1.34,3,2.99s-1.34,3-2.99,3L130.62,282.58z"/></g><g><path d="M307.92,282.58L307.92,282.58L285,282.55c-1.65,0-2.99-1.34-2.99-3c0-1.65,1.34-3,3-3l21.8,0.03l19.721-16.9h0.01      c1.21-1.03,3.189-0.88,4.22,0.33c0.521,0.61,0.771,1.38,0.71,2.18c-0.06,0.801-0.43,1.53-1.03,2.051l-20.56,17.619      C309.33,282.33,308.64,282.58,307.92,282.58z"/></g><g><path d="M313.8,321.49h-28.36c-1.649,0-3-1.341-3-3c0-1.65,1.351-2.99,3-2.99h28.36c1.65,0,3,1.34,3,2.99      C316.8,320.149,315.45,321.49,313.8,321.49z M153.83,321.49h-28.36c-1.65,0-3-1.341-3-3c0-1.65,1.35-2.99,3-2.99h28.36      c1.65,0,2.99,1.34,2.99,2.99C156.82,320.149,155.48,321.49,153.83,321.49z"/></g><path style="" d="M200.675,400.238c2.792,0,5.06-2.268,5.06-5.061     c0-2.762-2.268-5.029-5.06-5.029c-2.763,0-5.031,2.268-5.031,5.029C195.644,397.971,197.912,400.238,200.675,400.238" fill-rule="evenodd" clip-rule="evenodd"/><path style="" d="M238.595,400.238c2.763,0,5.031-2.268,5.031-5.061     c0-2.762-2.269-5.029-5.031-5.029c-2.792,0-5.06,2.268-5.06,5.029C233.535,397.971,235.803,400.238,238.595,400.238" fill-rule="evenodd" clip-rule="evenodd"/><g><path d="M208.03,457.33h-0.04c-0.8-0.021-1.55-0.34-2.11-0.91c-0.56-0.58-0.86-1.33-0.85-2.14l0.41-28.171      c0.02-1.63,1.37-2.96,3-2.96h0.04c0.8,0.011,1.55,0.33,2.11,0.91c0.56,0.57,0.86,1.33,0.85,2.13l-0.41,28.181      C211.01,456,209.66,457.33,208.03,457.33z"/></g><g><path d="M231.03,457.33h-0.04c-0.8-0.021-1.55-0.34-2.11-0.91c-0.55-0.58-0.86-1.33-0.84-2.14l0.4-28.171      c0.03-1.63,1.37-2.96,3-2.96h0.05c0.8,0.011,1.54,0.33,2.1,0.91c0.56,0.57,0.86,1.33,0.85,2.13l-0.41,28.181      C234.01,456,232.67,457.33,231.03,457.33z"/></g><g><path d="M219.64,366.02c-1.66,0-3-1.35-3-3V221.4c0-1.66,1.34-3.01,3-3.01c1.65,0,2.99,1.35,2.99,3.01v141.62      C222.63,364.67,221.29,366.02,219.64,366.02z"/></g><g><path d="M219.26,225.41c-1.66,0-3-1.34-3-3V119.32c0-1.65,1.34-3,3-3c1.65,0,3,1.35,3,3v103.09      C222.26,224.07,220.91,225.41,219.26,225.41z"/></g><g><path d="M129.25,218.02L129.25,218.02c-5.96,0-11.56-2.32-15.78-6.54c-4.21-4.22-6.53-9.83-6.53-15.79      c0-12.32,10.01-22.34,22.31-22.34l0,0l0,0c12.32,0,22.34,10.03,22.34,22.34S141.57,218.02,129.25,218.02z M129.25,179.35      c-8.97,0.02-16.29,7.35-16.31,16.34c0.02,8.99,7.34,16.32,16.31,16.34c9-0.02,16.33-7.35,16.34-16.34      C145.58,186.7,138.25,179.37,129.25,179.35L129.25,179.35z"/></g><g><path d="M356.689,363.28L356.689,363.28c-5.06-0.011-9.819-1.98-13.38-5.551c-3.569-3.569-5.55-8.319-5.55-13.38      c0-10.439,8.49-18.939,18.93-18.939l0,0l0,0c10.431,0.01,18.931,8.5,18.94,18.939C375.62,354.79,367.13,363.28,356.689,363.28z       M356.689,331.41c-7.12,0.01-12.92,5.819-12.93,12.939c0,7.13,5.8,12.931,12.93,12.931c7.12-0.011,12.92-5.811,12.94-12.931      C369.609,337.229,363.81,331.42,356.689,331.41L356.689,331.41z"/></g><g><path d="M302.569,240.01L302.569,240.01c-7.52,0-14.59-2.93-19.909-8.24c-5.311-5.31-8.24-12.37-8.24-19.89      c0-7.51,2.93-14.57,8.24-19.88c5.319-5.31,12.39-8.24,19.909-8.24l0,0l0,0c7.511,0,14.58,2.93,19.891,8.24      c5.31,5.31,8.229,12.37,8.24,19.88c-0.011,7.52-2.931,14.58-8.24,19.89C317.149,237.08,310.08,240.01,302.569,240.01z       M302.569,189.76c-12.189,0.02-22.13,9.95-22.149,22.12c0.02,12.18,9.96,22.11,22.149,22.13      c12.181-0.02,22.11-9.95,22.131-22.13C324.68,199.71,314.75,189.78,302.569,189.76L302.569,189.76z"/></g><g><path d="M175.43,336.7c-1.65,0-3-1.341-3-3V285.6c0-1.649,1.35-3,3-3c1.66,0,3,1.351,3,3V333.7      C178.43,335.359,177.09,336.7,175.43,336.7z"/></g><g><path d="M219.26,122.32c-0.53,0-1.05-0.14-1.5-0.4L177.33,98.6c-0.92-0.54-1.5-1.53-1.5-2.6V49.33c0-1.07,0.58-2.07,1.5-2.6      l40.43-23.32c0.91-0.53,2.09-0.53,3,0l40.42,23.32c0.92,0.53,1.5,1.53,1.5,2.6V96c0,1.07-0.58,2.06-1.5,2.6l-40.42,23.32      C220.3,122.18,219.78,122.32,219.26,122.32z M181.83,94.27l37.43,21.59l37.42-21.59V51.06l-37.42-21.59l-37.43,21.59V94.27z"/></g><g><path d="M334.85,489H73.94c-1.65,0-3-1.351-3-3c0-1.66,1.35-3,3-3h260.91c1.65,0,3,1.34,3,3      C337.85,487.649,336.5,489,334.85,489z"/></g><g><path d="M407.29,470.88H245.55c-1.66,0-3-1.35-3-3c0-1.66,1.34-3,3-3h161.74c1.649,0,3,1.34,3,3      C410.29,469.53,408.939,470.88,407.29,470.88z"/></g><g><path d="M448.319,470.88h-22.56c-1.66,0-3-1.35-3-3c0-1.66,1.34-3,3-3h22.56c1.66,0,3,1.34,3,3      C451.319,469.53,449.979,470.88,448.319,470.88z"/></g><g><path d="M175.72,471.43H63.68c-1.66,0-3-1.34-3-3c0-1.649,1.34-3,3-3h112.04c1.66,0,3,1.351,3,3      C178.72,470.09,177.38,471.43,175.72,471.43z"/></g></g></g></g><text x="0" y="527" fill="#000000" font-size="5px" font-weight="bold" font-family="'Helvetica Neue', Helvetica, Arial-Unicode, Arial, Sans-serif">Created by Flatart</text><text x="0" y="532" fill="#000000" font-size="5px" font-weight="bold" font-family="'Helvetica Neue', Helvetica, Arial-Unicode, Arial, Sans-serif">from the Noun Project</text></svg>