<?xml version="1.0" encoding="utf-8"?>
<svg viewBox="0 0 500 500" xmlns="http://www.w3.org/2000/svg">
  <g transform="matrix(1.0729609727859497, 0, 0, 1.0729609727859497, -24.677555084228516, -24.678098678588867)">
    <g>
      <g>
        <g>
          <path d="M360.96,363.96H151.07c-0.79,0-1.57-0.32-2.12-0.88c-0.56-0.561-0.88-1.33-0.88-2.12V250.67c0-1.65,1.34-3,3-3      c1.65,0,3,1.35,3,3v107.29h203.89v-26.82c0-1.649,1.35-2.99,3-2.99c1.649,0,3,1.341,3,2.99v29.82c0,0.8-0.311,1.56-0.88,2.12      C362.52,363.649,361.76,363.96,360.96,363.96z M360.96,314.14c-1.65,0-3-1.34-3-2.99c0-1.659,1.35-3.01,3-3.01      c1.649,0,3,1.351,3,3.01C363.96,312.8,362.609,314.14,360.96,314.14z M360.96,294.14c-1.65,0-3-1.34-3-2.99V154.04H154.07v56.63      c0,1.66-1.35,3-3,3c-1.66,0-3-1.34-3-3v-59.63c0-0.79,0.32-1.56,0.88-2.12c0.55-0.56,1.33-0.88,2.12-0.88h209.89      c0.79,0,1.56,0.32,2.12,0.88c0.56,0.56,0.88,1.33,0.88,2.12v140.109C363.96,292.8,362.62,294.14,360.96,294.14z M151.07,233.67      c-1.66,0-3-1.34-3-3c0-1.65,1.34-3,3-3c1.65,0,3,1.35,3,3C154.07,232.33,152.72,233.67,151.07,233.67z"/>
        </g>
        <g>
          <path d="M205.75,154.04c-1.65,0-3-1.35-3-3v-4.91l-45.33-45.33c-0.56-0.56-0.88-1.34-0.88-2.12V43.39c0-0.01,0-0.01,0-0.02      c0.01-1.65,1.35-2.98,3-2.98c1.65,0,3,1.34,3,3v54.04l45.34,45.34c0.56,0.57,0.87,1.32,0.87,2.12v6.15      C208.75,152.69,207.41,154.04,205.75,154.04z"/>
        </g>
        <g>
          <path d="M232.76,154.04c-1.66,0-3-1.35-3-3v-11.55l-45.72-45.72c-0.56-0.56-0.88-1.33-0.88-2.12V81.1c0-1.65,1.34-3,3-3      c1.65,0,3,1.35,3,3v9.31l45.72,45.72c0.56,0.56,0.87,1.32,0.87,2.12v12.79C235.75,152.69,234.41,154.04,232.76,154.04z"/>
        </g>
        <g>
          <path d="M197.25,105.75c-0.8,0-1.55-0.31-2.12-0.88c-0.56-0.57-0.88-1.32-0.88-2.12c0-0.8,0.32-1.56,0.88-2.12l18.36-18.37      V59.29c0,0,0-0.01,0.01-0.01c0-1.65,1.35-2.99,2.99-2.99c1.66,0,3,1.35,3,3v24.22c0,0.8-0.31,1.55-0.87,2.12l-19.24,19.24      C198.81,105.44,198.06,105.75,197.25,105.75z"/>
        </g>
        <g>
          <path d="M255.69,154.04c-1.66,0-3-1.35-3-3V47.1c0-1.65,1.34-3,3-3c1.65,0,2.99,1.35,2.99,3v103.94      C258.68,152.69,257.34,154.04,255.69,154.04z"/>
        </g>
        <g>
          <path d="M255.69,125.34c-0.81,0-1.56-0.31-2.13-0.88l-19.24-19.24c-0.55-0.56-0.87-1.33-0.87-2.12V64.27c0-1.66,1.34-3,3-3      c1.65,0,3,1.34,3,3v37.59l18.36,18.36c0.561,0.57,0.88,1.32,0.88,2.12s-0.319,1.56-0.88,2.12      C257.24,125.03,256.49,125.34,255.69,125.34z"/>
        </g>
        <g>
          <path d="M159.54,46.39L159.54,46.39c-3.13-0.01-6.06-1.23-8.27-3.43c-2.2-2.21-3.42-5.14-3.42-8.27c0-3.12,1.22-6.06,3.42-8.26      c2.21-2.2,5.14-3.42,8.27-3.43l0,0l0,0l0,0l0,0l0,0l0,0c3.12,0.01,6.06,1.23,8.26,3.43c2.21,2.2,3.42,5.14,3.43,8.26      c-0.01,3.13-1.22,6.07-3.43,8.27C165.6,45.16,162.66,46.38,159.54,46.39z M159.54,29c-3.14,0.01-5.69,2.56-5.69,5.69      c0,3.14,2.55,5.69,5.69,5.7c3.13-0.01,5.69-2.56,5.69-5.7C165.23,31.56,162.67,29.01,159.54,29L159.54,29z"/>
        </g>
        <g>
          <path d="M216.5,62.29L216.5,62.29c-3.13,0-6.07-1.22-8.27-3.43c-2.2-2.2-3.42-5.13-3.43-8.26c0.01-6.46,5.26-11.72,11.7-11.72      l0,0l0,0c6.44,0.01,11.68,5.27,11.69,11.72C228.18,57.04,222.94,62.29,216.5,62.29z M216.5,44.88c-3.14,0.01-5.7,2.57-5.7,5.72      c0,3.14,2.56,5.69,5.7,5.69c3.13,0,5.68-2.56,5.69-5.69C222.18,47.45,219.63,44.89,216.5,44.88L216.5,44.88z"/>
        </g>
        <g>
          <path d="M255.69,50.1L255.69,50.1c-6.44,0-11.68-5.26-11.7-11.71c0.01-3.13,1.23-6.07,3.43-8.27c2.21-2.2,5.14-3.42,8.27-3.43      l0,0l0,0l0,0l0,0l0,0l0,0c3.12,0.01,6.06,1.23,8.26,3.43c2.199,2.2,3.42,5.14,3.43,8.27C267.359,44.84,262.12,50.1,255.69,50.1z       M255.69,32.69c-3.14,0.01-5.69,2.56-5.7,5.7c0.01,3.14,2.56,5.71,5.7,5.71c3.129,0,5.69-2.57,5.69-5.71      C261.37,35.25,258.819,32.7,255.69,32.69L255.69,32.69z"/>
        </g>
        <g>
          <path d="M306.25,154.04c-1.66,0-3-1.35-3-3v-6.15c0-0.81,0.31-1.56,0.88-2.12l45.36-45.34V43.39c0-0.01,0-0.01,0-0.02      c0.01-1.65,1.35-2.98,3-2.98c1.649,0,3,1.34,3,3v55.28c0,0.81-0.32,1.56-0.881,2.13l-45.369,45.33l0.01,4.91      C309.25,152.69,307.899,154.04,306.25,154.04z"/>
        </g>
        <g>
          <path d="M279.27,154.04c-1.649,0-3-1.35-3-3v-12.79c0-0.79,0.32-1.57,0.88-2.12l45.69-45.72V81.1c0-1.65,1.35-3,3-3      c1.66,0,3,1.35,3,3v10.55c0,0.8-0.31,1.55-0.88,2.12l-45.69,45.72v11.55C282.27,152.69,280.93,154.04,279.27,154.04z"/>
        </g>
        <g>
          <path d="M314.75,105.75c-0.811,0-1.561-0.31-2.13-0.88l-19.21-19.24c-0.561-0.56-0.88-1.33-0.88-2.12V59.29c0-1.65,1.35-3,3-3      c1.659,0,3,1.35,3,3v22.97l18.34,18.37c0.569,0.56,0.88,1.32,0.88,2.12c-0.01,0.8-0.32,1.55-0.891,2.12      C316.3,105.44,315.55,105.75,314.75,105.75z"/>
        </g>
        <g>
          <path d="M352.49,46.38L352.49,46.38c-6.46-0.01-11.721-5.25-11.721-11.69c0-6.43,5.261-11.67,11.721-11.69l0,0l0,0      c6.439,0.01,11.689,5.25,11.689,11.69C364.18,41.14,358.93,46.38,352.49,46.38z M352.49,29c-3.15,0-5.71,2.56-5.721,5.69      c0.011,3.14,2.57,5.69,5.721,5.7c3.13-0.01,5.68-2.56,5.689-5.7C358.17,31.56,355.62,29.01,352.49,29L352.49,29z"/>
        </g>
        <g>
          <path d="M295.53,62.29L295.53,62.29c-6.461-0.01-11.711-5.25-11.721-11.69c0.01-6.46,5.271-11.71,11.721-11.72l0,0l0,0l0,0      c6.439,0,11.68,5.26,11.689,11.72c0,3.13-1.22,6.06-3.42,8.26C301.59,61.07,298.66,62.29,295.53,62.29z M295.53,44.88      c-3.141,0.01-5.711,2.57-5.721,5.72c0.01,3.14,2.58,5.69,5.721,5.69c3.14,0,5.689-2.55,5.689-5.69      C301.22,47.45,298.67,44.89,295.53,44.88L295.53,44.88z"/>
        </g>
        <g>
          <path d="M430.899,328.84h-10.52c-0.811,0-1.561-0.31-2.13-0.88l-45.72-45.72h-11.57c-1.65,0-3-1.341-3-3c0-1.65,1.35-3,3-3      h12.82c0.789,0,1.56,0.319,2.119,0.88l45.721,45.72h9.279c1.65,0,3,1.35,3,3C433.899,327.5,432.55,328.84,430.899,328.84z"/>
        </g>
        <g>
          <path d="M409.28,317.75c-0.801,0-1.551-0.311-2.12-0.88c-0.57-0.57-0.88-1.32-0.88-2.12s0.31-1.561,0.88-2.12l19.21-19.24      c0.569-0.57,1.319-0.88,2.12-0.88h24.22c1.649,0,3,1.34,3,3c0,1.65-1.351,2.99-3,2.99h-22.97l-18.341,18.37      C410.84,317.43,410.08,317.75,409.28,317.75z"/>
        </g>
        <g>
          <path d="M464.93,259.31H360.96c-1.65,0-3-1.34-3-3c0-1.65,1.35-3,3-3h103.97c1.65,0,3,1.35,3,3      C467.93,257.97,466.58,259.31,464.93,259.31z"/>
        </g>
        <g>
          <path d="M447.729,278.55h-38.83c-0.8,0-1.56-0.31-2.119-0.87l-19.24-19.24c-0.57-0.569-0.88-1.319-0.88-2.129      c0-0.8,0.31-1.55,0.88-2.12c1.13-1.13,3.109-1.13,4.24,0l18.359,18.36h37.59c0.011,0,0.021,0,0.021,0.01      c1.649,0,2.979,1.351,2.979,2.99C450.729,277.21,449.39,278.55,447.729,278.55z"/>
        </g>
        <g>
          <path d="M461.399,307.22L461.399,307.22c-6.43,0-11.68-5.25-11.689-11.71c0-6.45,5.24-11.69,11.689-11.7      c6.45,0.01,11.71,5.26,11.721,11.7C473.109,301.96,467.859,307.22,461.399,307.22z M461.399,289.81      c-3.13,0.01-5.689,2.561-5.689,5.7s2.55,5.71,5.689,5.71c3.15,0,5.71-2.57,5.721-5.71      C467.109,292.37,464.55,289.819,461.399,289.81L461.399,289.81z"/>
        </g>
        <g>
          <path d="M473.609,268.03L473.609,268.03c-6.43,0-11.67-5.261-11.68-11.72c0-6.44,5.24-11.68,11.68-11.69      c6.45,0.01,11.69,5.25,11.7,11.69C485.29,262.77,480.05,268.03,473.609,268.03z M473.609,250.62c-3.13,0.01-5.68,2.56-5.68,5.69      c0,3.15,2.55,5.72,5.68,5.72c3.141,0,5.7-2.57,5.7-5.72C479.3,253.18,476.75,250.63,473.609,250.62L473.609,250.62z"/>
        </g>
        <g>
          <path d="M373.78,235.76h-12.82c-1.65,0-3-1.35-3-3c0-1.66,1.35-3,3-3l11.57-0.01l45.72-45.71c0.56-0.56,1.33-0.88,2.13-0.88      h10.52c1.65,0,3,1.34,3,3c0,1.65-1.35,3-3,3h-9.279l-45.721,45.72C375.33,235.44,374.58,235.76,373.78,235.76z"/>
        </g>
        <g>
          <path d="M452.71,219.49h-24.22c-0.801,0-1.551-0.31-2.12-0.88l-19.21-19.23c-0.57-0.57-0.88-1.33-0.88-2.13      c0-0.8,0.31-1.55,0.88-2.12c1.13-1.13,3.109-1.13,4.239,0l18.341,18.36h22.97c0,0,0.01,0,0.01,0.01c1.65,0,2.99,1.35,2.99,2.99      C455.71,218.15,454.359,219.49,452.71,219.49z"/>
        </g>
        <g>
          <path d="M461.399,228.19L461.399,228.19c-6.449-0.01-11.689-5.25-11.689-11.7c0.01-6.46,5.26-11.71,11.689-11.71      c6.46,0,11.71,5.26,11.721,11.71C473.109,222.94,467.85,228.18,461.399,228.19z M461.399,210.77      c-3.14,0.01-5.689,2.58-5.689,5.72s2.56,5.69,5.689,5.7c3.15-0.01,5.71-2.56,5.721-5.7      C467.109,213.35,464.55,210.78,461.399,210.77L461.399,210.77z"/>
        </g>
        <g>
          <path d="M293.33,336.47c-1.65,0-3-1.35-3-3c0-1.66,1.35-3,3-3h37.14V181.53H181.53v148.94h71.8c1.66,0,3,1.34,3,3      c0,1.65-1.34,3-3,3h-74.8c-0.79,0-1.56-0.32-2.12-0.88s-0.88-1.33-0.88-2.12V178.53c0-0.79,0.32-1.56,0.88-2.12      s1.33-0.88,2.12-0.88h154.94c0.78,0,1.561,0.32,2.12,0.88s0.88,1.33,0.88,2.12v154.94c0,0.8-0.32,1.55-0.88,2.12      c-0.57,0.56-1.32,0.88-2.12,0.88H293.33z M273.33,336.47c-1.65,0-3-1.35-3-3c0-1.66,1.35-3,3-3c1.66,0,3,1.34,3,3      C276.33,335.12,274.99,336.47,273.33,336.47z"/>
        </g>
        <g>
          <path d="M256.01,291.84c-9.57-0.01-18.58-3.73-25.35-10.5c-6.77-6.771-10.5-15.76-10.5-25.33c0-9.57,3.73-18.58,10.5-25.35      s15.78-10.49,25.35-10.49c9.57,0,18.57,3.72,25.33,10.49c6.77,6.77,10.5,15.78,10.5,25.35c0,9.57-3.73,18.56-10.5,25.33      C274.569,288.109,265.58,291.83,256.01,291.84z M256.01,226.16c-16.43,0.03-29.82,13.42-29.85,29.85      c0.03,16.42,13.42,29.8,29.85,29.83c16.42-0.03,29.8-13.41,29.83-29.83C285.81,239.58,272.43,226.19,256.01,226.16      L256.01,226.16z"/>
        </g>
        <g>
          <path d="M81.13,328.84c-1.66,0-3-1.34-3-3c0-1.65,1.34-3,3-3h9.28l45.72-45.72c0.55-0.561,1.33-0.88,2.12-0.88h12.82      c1.65,0,3,1.35,3,3c0,1.659-1.35,3-3,3h-11.58l-45.72,45.72c-0.57,0.57-1.32,0.88-2.12,0.88H81.14H81.13z"/>
        </g>
        <g>
          <path d="M102.75,317.75c-0.81,0-1.56-0.32-2.13-0.88l-18.36-18.36H59.29c-1.65,0-3-1.35-3-3c0-1.66,1.35-3.01,3-3.01h24.22      c0.79,0,1.56,0.319,2.12,0.88l19.24,19.24c0.57,0.569,0.88,1.319,0.88,2.13c0,0.8-0.32,1.55-0.88,2.12      C104.3,317.43,103.55,317.75,102.75,317.75z"/>
        </g>
        <g>
          <path d="M151.07,259.31H47.1c-1.65,0-3-1.34-3-2.99c0-1.66,1.35-3.01,3-3.01h103.97c1.65,0,2.99,1.35,2.99,3.01      C154.06,257.97,152.72,259.31,151.07,259.31z"/>
        </g>
        <g>
          <path d="M64.29,278.56c-1.65,0-3-1.35-3-3.01c0-1.65,1.35-3,3-3h37.57l18.36-18.36c1.13-1.13,3.11-1.13,4.24,0      c1.17,1.17,1.17,3.08,0,4.25l-19.24,19.24c-0.56,0.561-1.32,0.87-2.12,0.87H64.31C64.3,278.55,64.3,278.56,64.29,278.56z"/>
        </g>
        <g>
          <path d="M50.6,307.22L50.6,307.22c-6.43,0-11.68-5.26-11.69-11.71c0-6.45,5.25-11.69,11.69-11.7      c6.44,0.01,11.69,5.25,11.69,11.7C62.28,301.96,57.03,307.22,50.6,307.22z M50.6,289.81c-3.13,0.01-5.68,2.561-5.69,5.7      c0,3.14,2.55,5.71,5.69,5.72c3.14-0.01,5.69-2.58,5.69-5.72S53.73,289.819,50.6,289.81L50.6,289.81z"/>
        </g>
        <g>
          <path d="M38.41,268.03L38.41,268.03c-6.46,0-11.71-5.261-11.72-11.72c0.01-6.44,5.27-11.68,11.72-11.69      c6.44,0.01,11.68,5.26,11.69,11.69C50.1,262.77,44.85,268.02,38.41,268.03z M38.41,250.62c-3.15,0.01-5.71,2.56-5.72,5.69      c0.01,3.15,2.57,5.72,5.72,5.72c3.13,0,5.69-2.57,5.69-5.72C44.1,253.18,41.54,250.63,38.41,250.62L38.41,250.62z"/>
        </g>
        <g>
          <path d="M151.07,235.76h-12.82c-0.8,0-1.56-0.32-2.12-0.88l-45.72-45.72h-9.27h-0.01c-1.66,0-3-1.35-3-3c0-1.66,1.34-3,3-3      h10.52c0.79,0,1.56,0.32,2.12,0.88l45.72,45.72h11.58c1.65,0,3,1.34,3,3C154.07,234.41,152.72,235.76,151.07,235.76z"/>
        </g>
        <g>
          <path d="M59.29,219.5c-1.65,0-3-1.35-3-3.01c0-1.65,1.35-3,3-3h22.97l18.37-18.36c1.13-1.13,3.1-1.13,4.24,0      c1.17,1.17,1.17,3.08,0,4.25l-19.24,19.23c-0.57,0.57-1.32,0.88-2.12,0.88H59.3C59.3,219.49,59.3,219.5,59.29,219.5z"/>
        </g>
        <g>
          <path d="M50.6,228.19L50.6,228.19c-6.44-0.01-11.69-5.25-11.69-11.69c0.01-6.46,5.25-11.72,11.69-11.72      c6.44,0,11.68,5.26,11.69,11.72C62.29,222.94,57.04,228.18,50.6,228.19z M50.6,210.78c-3.14,0-5.69,2.57-5.69,5.72      c0.01,3.13,2.56,5.68,5.69,5.69c3.13-0.01,5.69-2.56,5.69-5.69C56.29,213.35,53.74,210.78,50.6,210.78L50.6,210.78z"/>
        </g>
        <g>
          <path d="M159.54,471.62c-1.66,0-3-1.351-3-3.011V413.33c0-0.8,0.32-1.57,0.88-2.13l45.34-45.33v-4.91c0-1.65,1.34-3,2.99-3      c1.66,0,3,1.35,3,3v6.149c0,0.801-0.31,1.551-0.88,2.12l-45.33,45.34v54.04C162.54,470.27,161.19,471.62,159.54,471.62z"/>
        </g>
        <g>
          <path d="M186.16,433.899c-1.66,0-3-1.35-3-3v-10.55c0-0.79,0.32-1.569,0.88-2.12l45.72-45.72v-11.55c0-1.65,1.34-3,3-3      c1.65,0,2.99,1.35,2.99,3v12.79c0,0.8-0.31,1.56-0.87,2.12l-45.72,45.72v9.31C189.16,432.55,187.81,433.899,186.16,433.899z"/>
        </g>
        <g>
          <path d="M216.49,455.71c-1.65,0-3-1.351-3-3v-22.98l-18.36-18.359c-0.56-0.561-0.88-1.32-0.88-2.12s0.32-1.55,0.88-2.12      c1.14-1.13,3.11-1.13,4.25,0l19.24,19.24c0.56,0.569,0.87,1.319,0.87,2.12v24.22C219.49,454.359,218.15,455.71,216.49,455.71z"/>
        </g>
        <g>
          <path d="M255.69,467.899c-1.66,0-3.01-1.35-3.01-3V360.96c0-1.65,1.35-3,3.01-3c1.65,0,3,1.35,3,3v103.939      C258.689,466.55,257.34,467.899,255.69,467.899z"/>
        </g>
        <g>
          <path d="M236.45,450.729c-1.66,0-3-1.34-3-3v-38.83c0-0.79,0.32-1.569,0.87-2.119l19.24-19.24c1.14-1.141,3.11-1.141,4.25,0      c1.17,1.16,1.17,3.069,0,4.24l-18.37,18.359v37.58c0.01,0,0.01,0.01,0.01,0.01C239.45,449.39,238.1,450.729,236.45,450.729z"/>
        </g>
        <g>
          <path d="M159.54,489L159.54,489c-3.13-0.01-6.06-1.23-8.27-3.431c-2.2-2.199-3.42-5.14-3.42-8.26c0-3.13,1.22-6.069,3.42-8.27      c2.21-2.2,5.14-3.42,8.27-3.42c3.12,0,6.06,1.22,8.26,3.42c2.21,2.21,3.42,5.14,3.43,8.27c-0.01,3.12-1.22,6.05-3.43,8.26      C165.6,487.77,162.66,488.99,159.54,489z M159.54,471.609c-3.14,0.011-5.69,2.561-5.69,5.7c0,3.13,2.55,5.681,5.69,5.69      c3.13-0.01,5.69-2.561,5.69-5.69C165.23,474.17,162.67,471.62,159.54,471.609L159.54,471.609z"/>
        </g>
        <g>
          <path d="M216.49,473.09L216.49,473.09c-3.12-0.01-6.06-1.22-8.26-3.43c-2.2-2.2-3.42-5.13-3.43-8.261      c0.01-3.13,1.23-6.06,3.43-8.26c2.2-2.21,5.14-3.43,8.26-3.43c6.45,0,11.69,5.25,11.7,11.689      C228.18,467.84,222.94,473.09,216.49,473.09z M216.49,455.71c-3.13,0-5.69,2.55-5.69,5.689c0,3.131,2.56,5.69,5.69,5.69      c3.14-0.01,5.69-2.56,5.7-5.69C222.18,458.27,219.63,455.71,216.49,455.71L216.49,455.71z"/>
        </g>
        <g>
          <path d="M255.69,485.31L255.69,485.31c-6.45-0.01-11.69-5.25-11.7-11.689c0.02-6.46,5.26-11.721,11.7-11.721      c6.43,0,11.669,5.261,11.69,11.721C267.37,480.06,262.13,485.3,255.69,485.31z M255.69,467.899c-3.14,0-5.7,2.57-5.7,5.721      c0.01,3.13,2.56,5.68,5.7,5.689c3.129-0.01,5.68-2.56,5.69-5.689C261.38,470.47,258.819,467.899,255.69,467.899L255.69,467.899z      "/>
        </g>
        <g>
          <path d="M352.49,471.62c-1.66,0-3-1.351-3-3.011v-54.04l-45.36-45.34c-0.57-0.56-0.88-1.319-0.88-2.12v-6.149c0-1.65,1.34-3,3-3      c1.649,0,3,1.35,3,3l-0.01,4.91l45.369,45.33c0.57,0.569,0.881,1.319,0.881,2.13v55.279      C355.49,470.27,354.14,471.62,352.49,471.62z"/>
        </g>
        <g>
          <path d="M325.84,433.899c-1.65,0-3-1.35-3-3v-9.31l-45.69-45.72c-0.56-0.561-0.88-1.33-0.88-2.12v-12.79c0-1.65,1.351-3,3-3      c1.65,0,3,1.35,3,3v11.55l45.69,45.72c0.57,0.561,0.88,1.32,0.88,2.12v10.53c0,0.01,0,0.01,0,0.02      C328.84,432.55,327.5,433.899,325.84,433.899z"/>
        </g>
        <g>
          <path d="M295.53,455.71c-1.65,0-3-1.351-3-3v-24.22c0-0.79,0.319-1.561,0.88-2.12l19.21-19.24c1.13-1.13,3.109-1.13,4.239,0      c1.171,1.17,1.181,3.07,0.011,4.24l-18.34,18.359v22.96c0,0.011,0,0.011,0,0.021C298.53,454.359,297.189,455.71,295.53,455.71z"/>
        </g>
        <g>
          <path d="M352.49,489L352.49,489c-6.46-0.021-11.721-5.26-11.721-11.69c0-6.439,5.261-11.68,11.721-11.689      c6.439,0,11.689,5.239,11.689,11.689C364.18,483.75,358.93,488.99,352.49,489z M352.49,471.609      c-3.15,0.011-5.71,2.561-5.721,5.7c0.011,3.13,2.57,5.69,5.721,5.69c3.13-0.01,5.68-2.561,5.689-5.69      C358.17,474.17,355.62,471.62,352.49,471.609L352.49,471.609z"/>
        </g>
        <g>
          <path d="M295.53,473.09L295.53,473.09c-6.461-0.01-11.711-5.26-11.721-11.69c0.01-6.43,5.26-11.68,11.721-11.689      c3.13,0,6.06,1.22,8.27,3.43c2.2,2.2,3.42,5.141,3.42,8.26c0,3.131-1.22,6.061-3.42,8.261      C301.59,471.87,298.66,473.08,295.53,473.09z M295.53,455.71c-3.15,0-5.711,2.55-5.721,5.689c0.01,3.141,2.57,5.69,5.721,5.69      c3.14,0,5.689-2.56,5.689-5.69C301.22,458.26,298.67,455.71,295.53,455.71L295.53,455.71z"/>
        </g>
      </g>
    </g>
  </g>
</svg>