<?xml version="1.0" encoding="utf-8"?>
<svg viewBox="0 0 500 500" xmlns="http://www.w3.org/2000/svg">
  <g transform="matrix(5.681362152099609, 0, 0, 5.681362152099609, -34.068058013916016, -5444.78173828125)">
    <g transform="translate(5.9973985,958.34249)">
      <path d="m 44.822834,0.03543307 c 13.429134,0.24803149 26.53937,6.62598423 34.937008,18.35433093 11.799212,16.440944 10.842519,38.763779 -2.267717,54.141731 -0.531496,0.496063 -1.027559,0.389764 -1.417323,0.07087 -0.35433,-0.389763 -0.496063,-1.027559 -0.106299,-1.381889 6.413386,-7.547244 9.779528,-16.830709 9.992126,-26.185039 l -9,0 c -0.248031,8.291338 -3.649606,16.15748 -9.389764,22.039369 -4.535433,4.251969 -8.255905,6.696851 -15.342519,8.893701 -0.708662,0.141732 -1.027559,-0.318898 -1.204725,-0.814961 -0.07087,-0.496063 0.248032,-0.992125 0.708662,-1.133858 6.23622,-1.807086 10.133858,-4.110236 13.464567,-7.370078 -2.090551,-2.090552 -4.322835,-4.429134 -6.413386,-6.377953 -4.393701,4.03937 -10.169291,6.059055 -16.122047,5.704724 -2.870079,-0.177165 -5.740158,-0.92126 -8.468504,-2.267716 -2.551181,-1.275591 -4.712598,-2.976378 -6.519685,-4.96063 l -6.377953,6.377953 c 5.846457,6.271653 14.066929,9.850393 22.712599,9.850393 C 44.751968,75.047243 45,75.720472 45,76.464566 l 0,9.496063 c 9.425196,-0.212598 18.531495,-3.57874 25.795275,-9.637795 0.425197,-0.354331 1.098425,-0.283465 1.417323,0.106299 0.35433,0.425197 0.318897,1.098425 -0.1063,1.417323 -7.901574,6.555118 -17.858267,10.169291 -28.098424,10.169291 -0.779528,-0.03543 -0.992126,-0.531496 -1.02756,-1.204724 l 0,-9.850394 C 33.838582,76.677165 25.192913,72.637794 19.133858,65.728346 18.708661,65.232283 18.992126,64.665354 19.38189,64.204724 21.720472,61.901574 24.023622,59.492125 26.397638,57.224409 21.57874,50.77559 20.480315,41.917322 24.307086,34.228346 27.708661,27.389763 34.405511,22.818897 41.988189,22.110236 l 0,-9.850394 c 0.03543,-0.956693 0.389763,-1.204724 1.204724,-1.240157 11.515748,-0.283465 22.358267,5.492126 28.594488,15.200787 0.389764,0.566929 -0.07087,1.488189 -0.779528,1.559055 -0.35433,0.03543 -0.744094,-0.177165 -0.92126,-0.496063 C 64.381889,18.354331 54.531495,13.03937 44.007874,13.03937 l 0,9.602362 c 0,0.885827 -0.318898,1.346457 -1.02756,1.38189 -7.653543,0.35433 -13.925196,4.96063 -16.901574,11.090551 -4.925197,9.92126 -0.885827,21.897637 9,26.822834 2.551181,1.240158 5.244094,1.913386 7.901574,2.055118 l 0,-9.035433 c -5.598425,-0.496063 -9.992125,-5.208661 -9.992125,-10.948818 0,-6.059056 4.925196,-10.984252 11.019685,-10.984252 6.023622,0 10.948818,4.889763 10.984251,10.948818 0,1.807087 -0.496063,3.649607 -1.204724,5.031496 -0.212598,0.46063 -0.850394,0.708662 -1.346457,0.46063 -0.496063,-0.248031 -0.673228,-0.921259 -0.425197,-1.381889 0.637796,-1.275591 0.992126,-2.657481 0.992126,-4.074803 0,-4.96063 -4.03937,-9 -8.999999,-9 -4.996063,0 -9,4.03937 -9,9 0,4.925196 3.897637,8.858267 8.751968,8.964566 0.92126,0 1.204724,0.637796 1.240158,1.346457 l 0,9.637795 c 6.980314,-0.35433 13.570866,-4.358267 16.901574,-11.055118 4.925197,-9.92126 0.885827,-21.862204 -9,-26.787401 -0.496063,-0.212598 -0.708661,-0.850394 -0.46063,-1.346457 0.212599,-0.46063 0.850394,-0.708661 1.346457,-0.46063 10.84252,5.385827 15.307086,18.637795 9.885827,29.480315 -0.956693,1.913386 -2.019685,3.507874 -3.366142,4.996063 1.913386,2.161417 4.216535,4.322835 6.307087,6.413386 7.405511,-7.937008 10.452755,-19.523622 6.909448,-30.614173 -0.106299,-0.496063 0.212599,-1.027559 0.673229,-1.169292 0.460629,-0.141732 1.027559,0.1063 1.240157,0.531497 0.956693,3.011811 1.452756,6.059055 1.559055,9.070866 l 8.964567,0 C 85.783464,34.795275 83.161416,26.610236 78.12992,19.559055 64.594487,0.70866141 38.374015,-3.6496063 19.523622,9.8503936 19.098425,10.204724 18.389764,10.133858 18.070866,9.6732282 17.751968,9.2480314 17.893701,8.53937 18.354331,8.2559054 26.397638,2.4803149 35.681102,-0.17716535 44.822834,0.03543307 z M 15.200787,12.862205 l 6.696851,6.661417 c 3.862204,-3.188977 7.51181,-5.456693 11.834645,-6.874016 0.496063,-0.177165 1.098425,0.141732 1.275591,0.637795 0.177165,0.496063 -0.141733,1.098426 -0.637796,1.275591 C 16.15748,21.649606 9.1417322,40.818897 15.661417,56.55118 c 0.283465,0.56693 -0.177165,1.346457 -0.81496,1.452756 -0.425197,0.03543 -0.885827,-0.212598 -1.02756,-0.602362 C 8.1496062,44.681102 11.267716,30.259842 20.444882,20.905512 L 14.066929,14.527559 C 8.1496062,20.551181 4.1456692,28.204724 2.6574803,36.566929 -1.488189,59.385826 13.677165,81.212598 36.531496,85.322834 c 0.531496,0.03543 0.992126,0.496063 0.956693,1.027559 -0.1063,0.602362 -0.637796,1.062992 -1.311024,0.992126 C 12.259842,83.019684 -3.6141732,60.094488 0.70866141,36.212598 2.3385827,27.248031 6.6614173,19.027559 13.145669,12.649606 c 0.708662,-0.708661 1.452756,-0.46063 2.055118,0.212599 z m 28.807087,28.169291 c 1.629921,0 2.976377,1.346456 2.976377,2.976378 0,1.665354 -1.346456,3.011811 -2.976377,3.011811 -1.665355,0 -3.011811,-1.346457 -3.011811,-3.011811 0,-1.629922 1.346456,-2.976378 3.011811,-2.976378 z" style="fill: rgb(241, 110, 18);" fill-opacity="1" fill-rule="nonzero" stroke="none"/>
    </g>
  </g>
</svg>