<?xml version="1.0" encoding="utf-8"?>
<svg viewBox="0 0 500 500" style="shape-rendering: geometricprecision;" xmlns="http://www.w3.org/2000/svg" xmlns:xlink="http://www.w3.org/1999/xlink">
  <defs>
    <linearGradient id="color-3-8" gradientUnits="userSpaceOnUse" x1="50" y1="957.391" x2="50" y2="1047.334" xlink:href="#color-3"/>
    <linearGradient id="color-3">
      <stop style="stop-color: #fc4a1a;" offset="0"/>
      <stop style="stop-color: #f7b733;" offset="1"/>
    </linearGradient>
  </defs>
  <g transform="matrix(5.555952072143555, 0, 0, 5.555952072143555, -27.797502517700195, -5319.076171875)">
    <path style="text-indent: 0px; text-transform: none; direction: ltr; baseline-shift: baseline; color: rgb(0, 0, 0); fill: url('#color-3-8');" d="m 82.416828,971.27805 c 9.4965,9.88752 14.37362,23.98952 11.97398,38.53465 -3.36287,20.384 -20.19828,35.864 -40.79099,37.521 -1.38184,-0.069 -2.02615,-0.8623 -2.18269,-1.9102 -0.0217,-1.2067 0.82654,-1.8987 1.85146,-2.0892 9.28203,-0.7468 17.71417,-4.5819 24.23975,-10.4968 l -4.94923,-4.9492 c -10.62754,9.5458 -25.54586,11.3026 -39.8612,3.8468 -1.11105,-0.7438 -1.21519,-2.1063 -0.68572,-2.9149 0.58649,-0.8346 1.86093,-1.0841 2.71872,-0.5322 5.09448,2.9611 9.20379,3.806 13.25732,4.1092 l 3.7e-4,-7.0265 c -5.10965,-0.4573 -9.93798,-2.607 -13.67705,-6.0757 -4.74801,-4.8702 -7.31335,-10.6011 -7.31287,-16.9472 l -6.9823,3e-4 c -0.0357,7.9784 3.09119,15.6463 8.77096,21.3222 0.85346,1.0243 0.41354,2.4466 -0.44206,3.2701 l -5.89991,5.9 c 6.56122,5.9494 14.89498,9.6275 23.75257,10.4501 0.98361,0.1741 1.74416,1.1789 1.64473,2.1729 -0.0995,0.994 -1.04406,1.8284 -2.04267,1.8044 -10.33003,-0.9593 -19.98772,-5.4331 -27.37617,-12.7038 -1.16735,-1.2751 -1.12914,-2.2702 -0.15459,-3.2036 l 6.31976,-6.3197 c -6.02463,-6.7825 -9.11115,-15.7063 -8.50563,-24.8133 0.0287,-1.21395 1.37223,-2.20698 2.54114,-1.87829 l 8.74997,-4.6e-4 c 1.4627,-7.96362 7.09327,-14.9182 15.29129,-17.67752 7.28974,-2.45362 15.26129,-1.05031 21.30027,3.57843 l 6.29765,-6.29767 c 1.06278,-1.11692 2.31665,-0.9466 3.33624,0.0661 8.47522,8.18376 12.13621,20.17422 9.61008,31.70711 -0.25684,1.3739 -2.21066,2.0605 -3.27026,1.1492 -0.56371,-0.4723 -0.83035,-1.2725 -0.66277,-1.9886 2.12062,-9.68159 -0.66619,-19.73784 -7.37863,-26.91246 l -5.92201,5.92201 c -1.35195,1.36651 -2.29106,1.33349 -3.38049,0.3756 -5.09023,-4.51071 -12.21261,-5.99541 -18.67083,-3.82163 -12.01254,2.78471 -17.84694,21.02038 -8.7074,29.96248 l 4.99394,-4.9939 c -3.31767,-4.6785 -2.90326,-11.23743 1.28236,-15.42305 4.66954,-4.66952 12.30062,-4.66993 16.96967,-8.9e-4 4.66905,4.66905 4.66864,12.30014 -8.8e-4,16.96964 -1.33674,1.3368 -2.97552,2.3313 -4.77288,2.917 -1.00726,0.3741 -2.26546,-0.234 -2.59805,-1.2557 -0.33258,-1.0216 0.32647,-2.254 1.36092,-2.5447 1.19835,-0.3905 2.29069,-1.0534 3.1819,-1.9447 3.14095,-3.1409 3.1412,-8.17248 5.9e-4,-11.3131 -3.1406,-3.1406 -8.17216,-3.14036 -11.31311,5.9e-4 -3.09533,3.09533 -3.11616,8.01011 -0.11105,11.15851 1.04248,1.1051 0.89127,2.2904 -0.13274,3.2255 l -6.0325,6.0325 c 4.88215,3.9507 11.59927,5.4043 18.008,3.2472 9.96742,-3.3549 15.30898,-14.096 11.95513,-24.06309 -0.39059,-1.00034 0.19563,-2.26799 1.21086,-2.61831 1.01535,-0.34988 2.25843,0.28651 2.56772,1.31493 4.0432,12.01577 -2.45816,25.10077 -14.47432,29.14527 -1.7699,0.5957 -3.56368,0.9515 -5.34728,1.1051 l 0.0217,7.0486 c 10.13513,-0.6767 19.65595,-6.4742 24.65987,-16.1755 0.40312,-1.0346 1.77075,-1.5598 2.76261,-1.0608 0.99184,0.499 1.38529,1.91 0.79475,2.8504 -1.3334,2.585 -2.96824,4.9465 -4.81727,7.0267 l 4.94921,4.9492 c 6.18556,-6.5113 8.63374,-12.5415 10.09888,-20.8811 2.16761,-13.17907 -2.1829,-25.90887 -10.69983,-34.89449 -5.931,-6.25739 -13.8825,-10.69905 -23.06027,-12.21224 -1.10988,-0.0657 -2.03023,-1.20899 -1.85742,-2.30729 0.17283,-1.09833 1.39986,-1.90394 2.47631,-1.62582 9.75284,2.18288 18.36247,6.39184 25.1224,13.18992 z m -29.74053,-11.00222 -4.1e-4,8.30807 c 4.79956,0.55243 8.76207,1.59848 12.68286,3.57887 0.82566,0.52739 1.15083,1.71113 0.71044,2.58639 -0.44044,0.87526 -1.58477,1.31975 -2.50041,0.97115 -18.64236,-8.59729 -36.11856,1.16338 -41.54108,15.95544 -0.45492,1.24647 -2.31708,1.67436 -3.27024,0.75143 -0.5686,-0.54979 -0.76041,-1.45414 -0.4639,-2.18748 5.03663,-13.04789 17.25056,-21.22835 30.4051,-21.74393 l -0.0217,-7.00441 c -7.89034,0.25284 -15.54195,2.77275 -22.05209,7.29279 -18.6195598,12.92738 -23.2471898,38.45615 -10.32176,57.07425 0.56101,0.8055 0.40403,2.0266 -0.34245,2.6641 -0.90534,0.6977 -2.20415,0.567 -2.9279,-0.3659 -14.1530998,-20.3864 -9.1046198,-48.45518 11.27218,-62.62038 7.48628,-5.27204 18.02765,-8.79776 25.98517,-8.04425 1.60279,-0.0221 2.46339,1.30299 2.38623,2.78386 z m -0.57657,40.08197 c 1.17146,1.1715 1.17137,3.0709 -2.1e-4,4.2425 -1.17156,1.1716 -3.07097,1.1717 -4.24241,2e-4 -1.17145,-1.1715 -1.17135,-3.0709 2.1e-4,-4.2424 1.17158,-1.17161 3.07097,-1.1717 4.24241,-3e-4 z" fill-opacity="1" stroke="none" marker="none" visibility="visible" display="inline" overflow="visible"/>
  </g>
</svg>