<svg xmlns="http://www.w3.org/2000/svg" xmlns:xlink="http://www.w3.org/1999/xlink" version="1.1" x="0px" y="0px" viewBox="0 0 512 640" style="enable-background:new 0 0 512 512;" xml:space="preserve"><g><g><g><path d="M256,500h-0.02c-46.46,0-91.64-13.11-130.66-37.91c-4.66-2.96-6.04-9.15-3.08-13.81c1.84-2.9,5-4.641,8.45-4.641     c1.89,0,3.74,0.54,5.35,1.561C171.87,467.96,213.35,480,256,480c59.819-0.01,116.069-23.311,158.39-65.61     c42.3-42.32,65.601-98.57,65.61-158.39c0.01-88.83-52.561-169.36-133.92-205.15c-3.63-1.6-5.98-5.21-5.971-9.18     c0-1.38,0.29-2.73,0.851-4c1.59-3.63,5.189-5.98,9.16-5.98c1.38,0,2.739,0.29,4.02,0.85c21.3,9.37,41.16,21.75,59.021,36.81     c17.75,14.96,33.27,32.33,46.109,51.64C485.91,161.02,499.99,207.71,500,256c0,16.56-1.67,33.1-4.96,49.18     c-3.21,15.66-7.99,31.07-14.221,45.8c-6.109,14.45-13.68,28.4-22.489,41.44c-8.73,12.92-18.761,25.07-29.8,36.11     c-11.04,11.039-23.19,21.069-36.11,29.8c-13.04,8.81-26.99,16.38-41.44,22.489c-14.729,6.23-30.14,11.011-45.8,14.221     C289.1,498.33,272.56,500,256,500z M91.64,432.56c-2.64,0-5.14-1.02-7.02-2.88c-3.92-3.87-3.97-10.22-0.09-14.14     c1.89-1.92,4.42-2.98,7.11-2.98c2.65,0,5.14,1.03,7.03,2.88c3.92,3.87,3.96,10.221,0.09,14.15     C96.87,431.5,94.34,432.56,91.64,432.56z M60.06,393.95c-3.39,0-6.53-1.69-8.38-4.521C25.72,349.76,12,303.62,12,256     c0-16.42,1.64-32.84,4.88-48.79c3.16-15.55,7.87-30.85,14-45.48c6.02-14.36,13.47-28.22,22.16-41.2     c8.59-12.86,18.47-24.97,29.36-35.99C93.28,73.53,105.26,63.5,118,54.75c12.87-8.84,26.63-16.46,40.9-22.66     c14.53-6.31,29.75-11.21,45.23-14.56c15.88-3.44,32.23-5.29,48.6-5.51c2.7-0.08,5.24,0.99,7.16,2.88     c1.88,1.86,2.94,4.34,2.97,6.99c0.08,5.51-4.35,10.06-9.859,10.13C131.13,33.61,31.99,134.09,32,256     c0,43.71,12.6,86.06,36.42,122.479c1.07,1.641,1.63,3.54,1.63,5.49c-0.01,3.38-1.7,6.5-4.53,8.35     C63.89,393.39,62,393.95,60.06,393.95z M302.55,36.63c-0.67,0-1.33-0.07-1.99-0.2h-0.01c-2.62-0.53-4.87-2.05-6.34-4.27     c-1.48-2.22-2-4.89-1.47-7.51c0.93-4.65,5.05-8.02,9.79-8.02c0.659,0,1.329,0.06,1.989,0.2c5.4,1.09,8.91,6.37,7.82,11.78     C311.399,33.26,307.28,36.63,302.55,36.63z"/></g><g><path d="M256,442c-20.42,0-40.5-3.3-59.66-9.78c-18.53-6.27-35.9-15.41-51.63-27.18c-15.56-11.63-29.15-25.55-40.4-41.37     c-11.4-16.03-20.13-33.66-25.95-52.37c-0.79-2.55-0.55-5.26,0.7-7.63c1.24-2.36,3.33-4.101,5.88-4.89     c0.97-0.301,1.97-0.461,2.98-0.461c4.39,0,8.23,2.83,9.54,7.04C119.16,375.13,182.86,422,255.96,422H256     c44.33-0.01,86.02-17.271,117.38-48.62c31.35-31.36,48.61-73.05,48.62-117.38c0-1.01,0.149-2.01,0.45-2.97     c-0.33-0.95-0.521-1.94-0.551-2.96C418.76,160.31,345.899,90,256.02,90h-0.06c-74.71,0-140.57,50.3-160.16,122.33     c-1.18,4.34-5.14,7.38-9.64,7.38c-0.89,0-1.77-0.12-2.63-0.36c-4.35-1.18-7.39-5.15-7.38-9.65c0-0.88,0.12-1.76,0.35-2.62     c5.31-19.5,13.73-37.92,25.05-54.75c11.14-16.57,24.79-31.17,40.58-43.41c15.96-12.37,33.67-21.99,52.65-28.6     C214.41,73.48,235.01,70,256,70c24.569,0,48.439,4.72,70.95,14.02c10.83,4.47,21.3,10.01,31.109,16.46     c9.721,6.39,18.891,13.73,27.26,21.83c8.36,8.1,16,17.01,22.711,26.51c6.76,9.58,12.64,19.83,17.47,30.48     c10.01,22.1,15.53,45.68,16.38,70.07c0.04,1.13-0.11,2.25-0.44,3.33c0.37,1.06,0.561,2.17,0.561,3.3     c0,25.109-4.92,49.47-14.62,72.399c-4.66,11.021-10.43,21.65-17.15,31.591c-6.649,9.85-14.29,19.109-22.71,27.529     s-17.68,16.061-27.529,22.71c-9.94,6.721-20.57,12.49-31.591,17.15C305.47,437.08,281.109,442,256,442z M80.03,269.14     c-2.64,0-5.13-1.02-7.01-2.859c-1.88-1.851-2.94-4.32-2.99-6.971c-0.05-2.67,0.95-5.19,2.8-7.12c1.86-1.92,4.35-3,7.02-3.05     c2.71-0.06,5.26,0.98,7.18,2.87c1.89,1.84,2.95,4.32,2.99,6.96c0.05,2.67-0.94,5.19-2.8,7.12c-1.85,1.92-4.35,3-7.02,3.05     C80.14,269.14,80.08,269.14,80.03,269.14z"/></g><g><path d="M256,382c-17.01,0-33.51-3.33-49.05-9.9c-15-6.35-28.47-15.43-40.05-27.01c-11.57-11.57-20.65-25.04-27-40.04     c-6.57-15.54-9.9-32.04-9.9-49.05c0.01-25.16,7.4-49.45,21.38-70.24c6.74-10.02,14.88-19.02,24.18-26.75     c9.37-7.78,19.77-14.14,30.92-18.9c1.26-0.54,2.58-0.81,3.93-0.81c4.01,0,7.62,2.38,9.2,6.07c2.17,5.07-0.19,10.96-5.26,13.12     c-39.1,16.74-64.36,55.02-64.35,97.51c0.01,28.3,11.03,54.92,31.05,74.95C201.08,350.97,227.7,361.99,256,362     c28.3-0.01,54.92-11.03,74.95-31.05C350.97,310.92,361.99,284.3,362,256c0.01-40.63-22.65-77.07-59.12-95.1     c-0.01,0-0.01,0-0.01,0c-3.431-1.7-5.57-5.13-5.58-8.95c0-1.55,0.35-3.05,1.04-4.45c1.7-3.44,5.14-5.57,8.97-5.57     c1.54,0,3.03,0.35,4.43,1.03c20.761,10.25,38.311,26.03,50.74,45.64C375.24,208.73,381.99,232.04,382,256     c0,17.01-3.33,33.51-9.9,49.05c-6.35,15-15.43,28.47-27.01,40.04c-11.57,11.58-25.04,20.66-40.04,27.01     C289.51,378.67,273.01,382,256,382z M259.14,150.04v-0.05V150.04c-0.09,0-0.18,0-0.27,0c-5.51-0.15-9.87-4.75-9.73-10.26     c0.07-2.63,1.15-5.08,3.03-6.91c1.94-1.89,4.53-2.9,7.229-2.82c5.521,0.14,9.881,4.75,9.74,10.26c-0.07,2.62-1.149,5.07-3.03,6.9     C264.229,149.04,261.76,150.04,259.14,150.04z"/></g><g><path d="M256,300L256,300c-11.75,0-22.8-4.58-31.11-12.891C216.58,278.8,212,267.75,212,256s4.58-22.8,12.89-31.11     S244.25,212,256,212s22.8,4.58,31.109,12.89C295.42,233.2,300,244.25,300,256s-4.58,22.8-12.891,31.109     C278.8,295.42,267.75,300,256,300z M256,232c-13.21,0.02-23.98,10.79-24,24c0.02,13.21,10.79,23.979,24,24     c13.21-0.021,23.979-10.79,24-24C279.979,242.79,269.21,232.02,256,232L256,232z"/></g><g><g><path d="M284.7,241.71c-2.67,0-5.181-1.04-7.07-2.92c-1.89-1.89-2.93-4.4-2.93-7.07c0-2.68,1.04-5.19,2.93-7.08l134.35-134.35      c1.891-1.88,4.4-2.92,7.07-2.92s5.18,1.04,7.07,2.92c3.899,3.9,3.899,10.25,0,14.15L291.77,238.79      C289.88,240.67,287.37,241.71,284.7,241.71z"/></g><g><path d="M93.78,432.63c-2.67,0-5.18-1.04-7.07-2.93c-1.89-1.881-2.93-4.391-2.93-7.07c0-2.67,1.04-5.18,2.93-7.07l138.41-138.41      c1.89-1.89,4.4-2.93,7.07-2.93c2.68,0,5.19,1.04,7.08,2.93c1.88,1.891,2.92,4.4,2.92,7.07s-1.04,5.18-2.92,7.07L100.85,429.7      C98.96,431.59,96.45,432.63,93.78,432.63z"/></g></g><g><g><path d="M228.13,241.72c-2.67,0-5.18-1.04-7.07-2.93L86.71,104.44c-3.9-3.9-3.9-10.25,0-14.15c1.89-1.88,4.4-2.92,7.07-2.92      s5.18,1.04,7.07,2.92L235.2,224.65c1.89,1.88,2.93,4.39,2.93,7.07c0,2.67-1.04,5.18-2.93,7.07      C233.31,240.68,230.8,241.72,228.13,241.72z"/></g><g><path d="M419.05,432.63c-2.67,0-5.18-1.04-7.07-2.93l-138.41-138.41c-1.89-1.891-2.93-4.4-2.93-7.07s1.04-5.18,2.93-7.07      c1.891-1.89,4.4-2.93,7.07-2.93s5.18,1.04,7.07,2.93l138.41,138.41c3.899,3.9,3.899,10.25,0,14.141      C424.229,431.59,421.72,432.63,419.05,432.63z"/></g></g><g><path d="M450,500H60c-5.51,0-10-4.49-10-10s4.49-10,10-10h390c5.51,0,10,4.49,10,10S455.51,500,450,500z"/></g><rect x="230" y="170" width="20" height="20"/><rect x="260" y="170" width="20" height="20"/><rect x="230" y="320" width="20" height="20"/><rect x="260" y="320" width="20" height="20"/><rect x="170" y="235" width="20" height="20"/><rect x="170" y="265" width="20" height="20"/><rect x="320" y="235" width="20" height="20"/><rect x="320" y="265" width="20" height="20"/></g></g><text x="0" y="527" fill="#000000" font-size="5px" font-weight="bold" font-family="'Helvetica Neue', Helvetica, Arial-Unicode, Arial, Sans-serif">Created by Flatart</text><text x="0" y="532" fill="#000000" font-size="5px" font-weight="bold" font-family="'Helvetica Neue', Helvetica, Arial-Unicode, Arial, Sans-serif">from the Noun Project</text></svg>