<?xml version="1.0" encoding="utf-8"?>
<svg viewBox="102.3362 190.3911 36.4958 47.1654" xmlns="http://www.w3.org/2000/svg">
  <defs>
    <linearGradient data-v-fde0c5aa="" gradientTransform="rotate(25)" id="32e42f76-3401-40ef-824d-9c4a98b2fa6d" x1="0%" y1="0%" x2="100%" y2="0%">
      <stop data-v-fde0c5aa="" offset="0" stop-color="#E9007F" stop-opacity="1"/>
      <stop data-v-fde0c5aa="" offset="1" stop-color="#FEA134" stop-opacity="1"/>
    </linearGradient>
  </defs>
  <g data-v-fde0c5aa="" id="a28bc742-18d4-454a-a23d-eb536d1618a3" stroke="none" fill="url(#32e42f76-3401-40ef-824d-9c4a98b2fa6d)" transform="matrix(0.4822000563144684, 0, 0, 0.4822000563144684, 96.07584381103516, 189.90887451171875)">
    <g clip-rule="evenodd">
      <path d="M12.983 10.59l17.018 88.223-5.872-59.049 29.021-1.892-.054-9.883L64.549 1 53.622 18.977z"/>
      <path d="M59.389 54.548l5.16-53.541-8.74 39.716-19.612 1.045 1.57 20.462-7.766 36.583 12.057-39.899z"/>
      <path d="M62.8 67.182l.549-10.453-15.979 3.755-.032 11.797-17.337 26.532 21.68-27.616zM65.711 62.394l14.841-4.731 1.509-12.532-15.899 2.095zM72.07 44.502l10.988-1.417 1.581-10.278-8.079-.373L64.549 1l8.43 30.967z"/>
      <path d="M87.413 31.294l1.256-9.506-9.544-2.694L64.549 1l14.483 22.437-.422 7z"/>
    </g>
  </g>
</svg>