<svg xmlns="http://www.w3.org/2000/svg" xmlns:xlink="http://www.w3.org/1999/xlink" version="1.1" x="0px" y="0px" viewBox="0 0 512 640" style="enable-background:new 0 0 512 512;" xml:space="preserve"><g><g><g><g><path d="M255.99,372.88c-19.28,0-38.51-2.65-57.16-7.87c-18.13-5.08-35.86-12.64-52.69-22.46c-0.69-0.4-1.19-1.05-1.39-1.83      c-0.2-0.77-0.09-1.58,0.31-2.27c0.54-0.92,1.53-1.49,2.6-1.49c0.52,0,1.05,0.14,1.5,0.41c33.57,19.58,69.51,29.51,106.83,29.51      c73.98,0,144.14-40.42,192.47-110.89c-32.78-47.81-75.521-82.06-123.601-99.03c-0.01,0-0.01,0-0.01-0.01      c-1.18-0.42-1.979-1.53-1.99-2.79c-0.01-0.35,0.051-0.7,0.171-1.03c0.42-1.2,1.56-2,2.829-2c0.341,0,0.671,0.06,1,0.17      c24.96,8.82,48.69,22.26,70.5,39.96c21.45,17.4,40.7,38.61,57.221,63.05c0.68,1,0.68,2.35,0,3.36      c-11.87,17.56-25.28,33.59-39.851,47.649c-14.68,14.171-30.609,26.391-47.319,36.311c-17.051,10.11-35.011,17.9-53.391,23.13      C295.1,370.149,275.569,372.88,255.99,372.88z M130.83,332.189c-0.62,0-1.21-0.189-1.72-0.54c-0.66-0.46-1.1-1.149-1.23-1.939      c-0.14-0.79,0.03-1.59,0.49-2.24c0.92-1.3,2.86-1.66,4.17-0.75c0,0.01,0.01,0.01,0.01,0.01c1.36,0.95,1.69,2.82,0.74,4.181      C132.73,331.71,131.81,332.189,130.83,332.189z M114.93,320.09c-0.69,0-1.37-0.24-1.91-0.68c-20.8-17.16-39.5-37.931-55.6-61.74      c-0.69-1.02-0.69-2.34,0-3.36c11.86-17.57,25.26-33.6,39.83-47.66c14.68-14.17,30.6-26.39,47.32-36.31      c17.04-10.11,35-17.9,53.39-23.13c18.92-5.39,38.44-8.12,58.03-8.12c10.56,0,21.18,0.8,31.58,2.37      c0.79,0.12,1.49,0.54,1.961,1.19c0.479,0.64,0.68,1.43,0.56,2.23c-0.25,1.6-1.8,2.76-3.42,2.51c-10.11-1.52-20.43-2.3-30.68-2.3      c-74,0-144.14,40.42-192.45,110.9c15.51,22.63,33.44,42.41,53.3,58.78c0.69,0.58,1.09,1.42,1.09,2.32      c0,0.69-0.24,1.37-0.68,1.91C116.68,319.689,115.83,320.09,114.93,320.09z M306.72,151.36c-0.24,0-0.49-0.03-0.729-0.09      c-1.601-0.4-2.58-2.04-2.181-3.64c0.4-1.57,2.05-2.58,3.641-2.18c1.6,0.4,2.58,2.04,2.18,3.64      C309.29,150.43,308.1,151.36,306.72,151.36z"/></g><g><path d="M255.99,350.38h-0.01c-11.1,0-21.98-1.91-32.32-5.69c-10-3.64-19.25-8.93-27.5-15.699c-1.28-1.061-1.47-2.95-0.42-4.23      c0.57-0.7,1.42-1.09,2.32-1.09c0.69,0,1.37,0.24,1.9,0.68c15.74,12.91,35.64,20.03,56.03,20.03c23.6,0,45.8-9.2,62.5-25.89      c16.689-16.71,25.89-38.9,25.89-62.5c0-23.61-9.2-45.8-25.89-62.51c-16.7-16.69-38.9-25.89-62.5-25.89      c-23.61,0-45.8,9.2-62.49,25.89c-16.69,16.7-25.88,38.9-25.88,62.51c0,13.37,2.91,26.22,8.65,38.18      c0.19,0.41,0.29,0.85,0.29,1.3c0,1.14-0.67,2.2-1.7,2.7c-1.46,0.7-3.31,0.03-4-1.41c-2.99-6.229-5.29-12.81-6.84-19.54      c-1.59-6.93-2.4-14.07-2.4-21.23c0-12.75,2.5-25.11,7.42-36.74c4.75-11.24,11.55-21.34,20.22-30.01      c8.66-8.67,18.75-15.47,29.99-20.23c11.64-4.92,24-7.42,36.74-7.42s25.1,2.5,36.74,7.42c11.24,4.76,21.33,11.56,30,20.23      s15.471,18.77,20.23,30.01c4.92,11.63,7.42,24,7.42,36.74s-2.5,25.1-7.42,36.74c-4.76,11.24-11.561,21.33-20.23,30      s-18.76,15.471-30,20.23C281.09,347.88,268.729,350.38,255.99,350.38z M184.1,315.399c-0.92,0-1.79-0.42-2.36-1.14      c-0.49-0.63-0.71-1.42-0.62-2.21c0.1-0.8,0.5-1.51,1.13-2.01c1.26-0.99,3.21-0.75,4.2,0.5c0.01,0,0.01,0.01,0.01,0.01      c1.02,1.3,0.79,3.19-0.51,4.21C185.42,315.18,184.78,315.399,184.1,315.399z"/></g><g><path d="M255.99,287.87L255.99,287.87c-8.52,0-16.53-3.32-22.55-9.34c-6.02-6.021-9.34-14.03-9.34-22.541      c0-8.52,3.32-16.53,9.34-22.55s14.03-9.34,22.55-9.34c8.51,0,16.52,3.32,22.541,9.34c6.02,6.02,9.34,14.03,9.34,22.55      c0,8.51-3.32,16.52-9.34,22.541C272.51,284.55,264.5,287.87,255.99,287.87z M255.99,230.1c-14.25,0.03-25.86,11.64-25.89,25.89      c0.03,14.24,11.64,25.85,25.89,25.88c14.24-0.03,25.85-11.641,25.88-25.88C281.84,241.74,270.229,230.13,255.99,230.1      L255.99,230.1z"/></g><g><path d="M207.51,150.83c-1.65,0-3-1.34-3-3v-5.86l-17.29-17.26l-26.44-26.47c-0.56-0.56-0.88-1.34-0.88-2.12V42.79      c0-0.01,0-0.01,0-0.02c0.01-1.64,1.35-2.98,3-2.98s3,1.35,3,3v52.08l25.56,25.59l18.17,18.15c0.57,0.56,0.88,1.32,0.88,2.12v7.1      C210.51,149.49,209.17,150.83,207.51,150.83z"/></g><g><path d="M233.57,146.31c-1.66,0-3-1.35-3-3v-7.75l-44.1-44.09c-0.56-0.56-0.88-1.33-0.88-2.12V79.19c0-1.65,1.35-3,3-3      c1.66,0,3,1.35,3,3v8.91l44.1,44.1c0.57,0.57,0.88,1.32,0.88,2.12v8.99C236.57,144.96,235.22,146.31,233.57,146.31z"/></g><g><path d="M199.3,103.06c-0.8,0-1.55-0.32-2.12-0.88c-1.17-1.17-1.17-3.08,0-4.25l17.68-17.68V58.13c0-1.65,1.35-3,3-3      c1.66,0,3,1.35,3,3v23.36c0,0.8-0.31,1.56-0.88,2.13l-18.55,18.56C200.86,102.74,200.1,103.06,199.3,103.06z"/></g><g><path d="M255.68,145.09c-1.65,0-3-1.35-3-3V46.34c0-1.65,1.35-3,3-3c1.66,0,3,1.35,3,3v95.75      C258.68,143.74,257.34,145.09,255.68,145.09z"/></g><g><path d="M256.05,122.34h-0.01c-0.8,0-1.55-0.31-2.12-0.88L235,102.54c-0.56-0.56-0.88-1.34-0.88-2.12V62.93c0-1.65,1.35-3,3-3      c1.66,0,3,1.35,3,3v36.24l18.041,18.05c1.17,1.17,1.17,3.07,0,4.24C257.6,122.03,256.85,122.34,256.05,122.34z"/></g><g><path d="M162.9,45.79L162.9,45.79c-6.28-0.01-11.4-5.12-11.41-11.41c0.01-6.27,5.12-11.37,11.41-11.38l0,0l0,0      c3.04,0.01,5.9,1.19,8.04,3.34c2.15,2.14,3.34,5,3.34,8.04C174.28,40.67,169.18,45.78,162.9,45.79z M162.9,29      c-2.98,0.01-5.4,2.42-5.41,5.38c0.01,2.98,2.43,5.4,5.41,5.41c2.96-0.01,5.38-2.43,5.38-5.41C168.28,31.42,165.87,29,162.9,29      L162.9,29z"/></g><g><path d="M217.86,61.13L217.86,61.13c-6.28,0-11.4-5.12-11.4-11.4c0-6.28,5.12-11.38,11.4-11.38l0,0l0,0      c3.04,0,5.9,1.19,8.05,3.33c2.14,2.15,3.33,5,3.34,8.05C229.24,56.01,224.14,61.13,217.86,61.13z M217.86,44.35      c-2.97,0-5.4,2.42-5.4,5.38c0,2.97,2.43,5.4,5.4,5.4c2.96,0,5.38-2.43,5.39-5.4C223.25,46.76,220.83,44.35,217.86,44.35      L217.86,44.35z"/></g><g><path d="M304.479,150.83c-1.649,0-3-1.34-3-3v-7.1c0-0.8,0.32-1.56,0.88-2.12l18.181-18.14l25.56-25.59V42.79      c0-1.65,1.351-3,3-3c1.65,0,3,1.35,3,3v53.33c0,0.79-0.319,1.56-0.88,2.12l-26.439,26.47l-17.301,17.27v5.85      C307.479,149.49,306.14,150.83,304.479,150.83z"/></g><g><path d="M278.43,146.31c-1.649,0-3-1.34-3-3v-8.99c0-0.79,0.32-1.56,0.88-2.12l44.101-44.1v-8.91v-0.01      c0.01-1.65,1.35-2.99,3-2.99c1.649,0,3,1.35,3,3v10.16c0,0.8-0.311,1.55-0.88,2.12l-44.101,44.09v7.75      C281.43,144.97,280.09,146.31,278.43,146.31z"/></g><g><path d="M312.7,103.06c-0.801,0-1.561-0.32-2.131-0.88l-18.55-18.57c-0.56-0.55-0.88-1.32-0.88-2.12V58.13c0-1.65,1.34-3,3-3      c1.65,0,3,1.35,3,3v22.12l17.68,17.69c1.171,1.16,1.171,3.07,0,4.24C314.25,102.74,313.5,103.06,312.7,103.06z"/></g><g><path d="M349.1,45.79L349.1,45.79c-6.28-0.01-11.399-5.12-11.41-11.41c0.011-6.27,5.12-11.37,11.41-11.38l0,0l0,0      c6.28,0.01,11.4,5.11,11.41,11.38C360.5,40.67,355.38,45.78,349.1,45.79z M349.1,29c-2.979,0.01-5.399,2.42-5.41,5.38      c0.011,2.98,2.431,5.4,5.41,5.41c2.97-0.01,5.4-2.43,5.41-5.41C354.5,31.42,352.069,29.01,349.1,29L349.1,29z"/></g><g><path d="M294.14,61.13L294.14,61.13c-6.29,0-11.399-5.12-11.41-11.4c0-6.28,5.12-11.38,11.41-11.38l0,0l0,0      c6.28,0,11.4,5.1,11.4,11.38C305.54,56.01,300.42,61.13,294.14,61.13z M294.14,44.35c-2.979,0-5.399,2.42-5.41,5.38      c0.011,2.97,2.431,5.4,5.41,5.4c2.97,0,5.4-2.43,5.4-5.4C299.54,46.77,297.109,44.35,294.14,44.35L294.14,44.35z"/></g><g><path d="M162.9,472.21c-1.65,0-3-1.351-3-3v-53.351c0-0.8,0.32-1.569,0.88-2.13L204.51,370v-5.86c0-1.66,1.35-3,3-3      c1.66,0,3,1.34,3,3v7.101c0,0.8-0.31,1.55-0.87,2.119L165.9,417.1v52.11C165.9,470.859,164.55,472.21,162.9,472.21z"/></g><g><path d="M188.59,435.81c-1.65,0-3-1.35-3-3V422.62c0-0.801,0.31-1.551,0.88-2.12l44.1-44.07v-7.77c0-1.65,1.35-3,3-3s3,1.35,3,3      v9.02c0,0.8-0.31,1.55-0.88,2.12l-44.1,44.07v8.939C191.59,434.46,190.25,435.81,188.59,435.81z"/></g><g><path d="M217.86,456.87c-1.65,0-3-1.351-3-3v-22.15l-17.68-17.68c-0.56-0.57-0.88-1.32-0.88-2.12c0-0.811,0.31-1.561,0.88-2.13      c1.14-1.13,3.11-1.13,4.24,0l18.56,18.569c0.57,0.561,0.88,1.311,0.88,2.12v23.37c0,0.01,0,0.01,0,0.021      C220.86,455.52,219.52,456.87,217.86,456.87z"/></g><g><path d="M255.68,468.63c-1.65,0-3-1.35-3-3v-95.75c0-1.65,1.35-3,3-3c1.66,0,3,1.35,3,3v95.75      C258.68,467.28,257.34,468.63,255.68,468.63z"/></g><g><path d="M237.12,452.04c-1.65,0-3-1.351-3-3v-37.46c0-0.79,0.32-1.561,0.88-2.12l18.92-18.92c1.14-1.13,3.11-1.141,4.24,0      c1.17,1.17,1.17,3.069,0,4.24l-18.041,18.039v36.2c0,0.011,0,0.011,0,0.021C240.12,450.689,238.78,452.04,237.12,452.04z"/></g><g><path d="M162.9,489L162.9,489c-6.28-0.01-11.4-5.13-11.41-11.41c0.01-6.271,5.12-11.38,11.41-11.38c3.04,0,5.9,1.189,8.04,3.33      c2.15,2.149,3.34,5.01,3.34,8.05C174.28,483.87,169.17,488.99,162.9,489z M162.9,472.21c-2.98,0-5.4,2.42-5.41,5.38      c0.01,2.97,2.43,5.4,5.41,5.41c2.96-0.01,5.38-2.44,5.38-5.41S165.87,472.21,162.9,472.21L162.9,472.21z"/></g><g><path d="M217.86,473.649L217.86,473.649c-6.28,0-11.4-5.119-11.4-11.399c0-6.29,5.12-11.4,11.4-11.41      c6.28,0,11.38,5.12,11.39,11.41C229.24,468.53,224.14,473.649,217.86,473.649z M217.86,456.84c-2.97,0-5.4,2.43-5.4,5.41      c0,2.97,2.43,5.399,5.4,5.399c2.96,0,5.38-2.43,5.39-5.399C223.24,459.27,220.82,456.84,217.86,456.84L217.86,456.84z"/></g><g><path d="M349.1,472.21c-1.649,0-3-1.351-3-3V417.1l-43.74-43.74c-0.56-0.56-0.88-1.329-0.88-2.119l0.011-7.101      c0-1.66,1.34-3,2.989-3c1.66,0,3,1.34,3,3V370l43.74,43.729c0.57,0.57,0.88,1.32,0.88,2.13v53.351      C352.1,470.859,350.75,472.21,349.1,472.21z"/></g><g><path d="M323.41,435.81c-1.66,0-3-1.35-3-3v-8.939L276.31,379.8c-0.56-0.56-0.88-1.33-0.88-2.12l0.01-9.02      c0-1.65,1.341-3,2.99-3c1.66,0,3,1.35,3,3v7.77l44.101,44.07c0.569,0.569,0.88,1.319,0.88,2.12v10.189      C326.41,434.46,325.06,435.81,323.41,435.81z"/></g><g><path d="M294.14,456.87c-1.66,0-3-1.351-3-3v-23.391c0-0.79,0.32-1.569,0.87-2.12l18.57-18.56c1.13-1.14,3.1-1.14,4.239-0.01      c1.171,1.18,1.171,3.08,0,4.25l-17.68,17.68v22.13c0,0.01,0,0.01,0,0.021C297.14,455.52,295.79,456.87,294.14,456.87z"/></g><g><path d="M349.1,489L349.1,489c-6.28-0.01-11.399-5.13-11.41-11.41c0.011-6.271,5.12-11.38,11.41-11.38s11.4,5.109,11.41,11.38      C360.5,483.87,355.38,488.99,349.1,489z M349.1,472.21c-2.979,0-5.399,2.42-5.41,5.38c0.011,2.97,2.431,5.4,5.41,5.41      c2.98-0.01,5.4-2.44,5.41-5.41C354.5,474.63,352.08,472.21,349.1,472.21L349.1,472.21z"/></g><g><path d="M294.14,473.649L294.14,473.649c-6.29,0-11.399-5.119-11.41-11.399c0.011-6.29,5.12-11.4,11.41-11.41      c6.28,0.01,11.4,5.12,11.4,11.41C305.54,468.53,300.42,473.649,294.14,473.649z M294.14,456.84c-2.979,0-5.399,2.43-5.41,5.41      c0.011,2.97,2.431,5.399,5.41,5.399c2.97,0,5.4-2.43,5.4-5.399C299.54,459.27,297.109,456.84,294.14,456.84L294.14,456.84z"/></g><g><path d="M255.99,237.23c-1.66,0-3-1.34-3-3v-27.24c0-1.66,1.34-3,3-3c1.65,0,3,1.34,3,3v27.24      C258.99,235.89,257.64,237.23,255.99,237.23z"/></g><g><path d="M271.39,243.62c-0.81,0-1.56-0.32-2.12-0.88c-1.18-1.17-1.18-3.07-0.01-4.24l19.26-19.29c1.13-1.13,3.101-1.13,4.24,0      c0.57,0.57,0.88,1.32,0.88,2.12c0,0.8-0.31,1.56-0.88,2.12l-19.25,19.29C272.939,243.3,272.189,243.62,271.39,243.62z"/></g><g><path d="M305.01,258.979h-27.27c-1.66,0-3-1.34-3-2.99c0-1.66,1.34-3,3-3h27.27c1.66,0,3,1.34,3,3      C308.01,257.64,306.67,258.979,305.01,258.979z"/></g><g><path d="M290.64,293.64L290.64,293.64c-0.8,0-1.56-0.31-2.12-0.88l-19.26-19.28c-1.17-1.17-1.17-3.08,0.01-4.25      c1.13-1.13,3.11-1.13,4.24,0.011l19.25,19.279c1.17,1.17,1.17,3.07,0,4.24C292.189,293.33,291.439,293.64,290.64,293.64z"/></g><g><path d="M255.99,307.979c-1.66,0-3-1.34-3-3V277.74c0-1.66,1.34-3,3-3c1.65,0,3,1.34,3,3v27.239      C258.99,306.64,257.64,307.979,255.99,307.979z"/></g><g><path d="M221.33,293.64c-0.8,0-1.56-0.31-2.12-0.88c-1.17-1.17-1.17-3.07,0-4.24l19.29-19.29c1.13-1.13,3.1-1.13,4.24,0.011      c0.56,0.56,0.87,1.319,0.87,2.119c0,0.801-0.31,1.551-0.88,2.12l-19.28,19.28C222.88,293.33,222.13,293.64,221.33,293.64z"/></g><g><path d="M234.23,258.979h-27.24c-1.66,0-3-1.34-3-2.99c0-1.66,1.34-3,3-3h27.24c1.66,0,3,1.34,3,3      C237.23,257.64,235.89,258.979,234.23,258.979z"/></g><g><path d="M240.62,243.62c-0.81,0-1.56-0.32-2.13-0.88l-19.28-19.29c-1.17-1.16-1.17-3.07,0-4.24c1.13-1.13,3.11-1.13,4.24,0      l19.29,19.28c0.56,0.57,0.88,1.32,0.88,2.13c0,0.8-0.32,1.55-0.88,2.12C242.17,243.3,241.42,243.62,240.62,243.62z"/></g></g></g></g><text x="0" y="527" fill="#000000" font-size="5px" font-weight="bold" font-family="'Helvetica Neue', Helvetica, Arial-Unicode, Arial, Sans-serif">Created by Flatart</text><text x="0" y="532" fill="#000000" font-size="5px" font-weight="bold" font-family="'Helvetica Neue', Helvetica, Arial-Unicode, Arial, Sans-serif">from the Noun Project</text></svg>