<svg xmlns:dc="http://purl.org/dc/elements/1.1/" xmlns:cc="http://creativecommons.org/ns#" xmlns:rdf="http://www.w3.org/1999/02/22-rdf-syntax-ns#" xmlns:svg="http://www.w3.org/2000/svg" xmlns="http://www.w3.org/2000/svg" xmlns:sodipodi="http://sodipodi.sourceforge.net/DTD/sodipodi-0.dtd" xmlns:inkscape="http://www.inkscape.org/namespaces/inkscape" version="1.1" x="0px" y="0px" viewBox="0 0 100 125"><g transform="translate(0,-952.36218)"><path style="text-indent:0;text-transform:none;direction:ltr;block-progression:tb;baseline-shift:baseline;color:#000000;enable-background:accumulate;" d="m 49.165253,958.3711 c -13.401874,0.27338 -26.537194,6.65338 -34.939964,18.3732 -11.7731104,16.42086 -10.8161004,38.7653 2.28141,54.1509 0.54884,0.4902 1.013,0.3584 1.42667,0.052 0.3545,-0.3756 0.47927,-1.0142 0.10469,-1.3959 -6.42084,-7.5425 -9.7734604,-16.8147 -10.0007104,-26.1849 l 9.0006404,0 c 0.26164,8.2938 3.66132,16.17 9.38393,22.0394 4.5458,4.2815 8.24932,6.721 15.33656,8.895 0.71492,0.1474 1.05382,-0.311 1.21698,-0.7979 0.0846,-0.4844 -0.24357,-1.0059 -0.71694,-1.1394 -6.22841,-1.8078 -10.11037,-4.1144 -13.4697,-7.3742 2.10636,-2.0797 4.32111,-4.432 6.42344,-6.3798 4.40352,4.0541 10.18375,6.0828 16.140654,5.7236 2.85263,-0.1721 5.71979,-0.9319 8.43809,-2.281 2.55197,-1.2666 4.73188,-2.9713 6.53171,-4.9683 l 6.37545,6.3744 c -5.85643,6.2958 -14.06084,9.8769 -22.6891,9.874 -0.77307,0.063 -1.00722,0.746 -1.00002,1.4686 l 0,9.4991 c -9.446144,-0.221 -18.528004,-3.5777 -25.814324,-9.6241 -0.40091,-0.3436 -1.07833,-0.2915 -1.42197,0.1094 -0.34364,0.4008 -0.29153,1.0781 0.10938,1.4217 7.90086,6.5563 17.85941,10.1583 28.126984,10.1553 0.76914,-0.027 0.9817,-0.5362 0.99982,-1.1871 l 0,-9.874 c 9.13874,-0.2823 17.80371,-4.3171 23.84543,-11.2176 0.42917,-0.5203 0.15193,-1.06 -0.24991,-1.531 -2.33851,-2.3182 -4.64336,-4.7213 -7.0005,-6.9993 4.81502,-6.4392 5.90915,-15.282 2.0939,-22.96654 -3.40506,-6.85831 -10.10765,-11.43165 -17.68875,-12.12376 l 0,-9.84279 c -0.0195,-0.95475 -0.38397,-1.21816 -1.21838,-1.24948 -11.514974,-0.27475 -22.343364,5.47772 -28.564524,15.18602 -0.39498,0.57647 0.0531,1.5099 0.75006,1.56234 0.37248,0.0261 0.75176,-0.17611 0.93756,-0.49995 5.71171,-8.91329 15.55438,-14.24842 26.095594,-14.2486 l 0,9.62405 c -0.0185,0.89002 0.31203,1.32723 0.99982,1.37467 7.65706,0.36809 13.93216,4.96415 16.90739,11.0927 4.91692,9.90344 0.90443,21.89374 -9.00063,26.80984 -2.54616,1.2637 -5.24024,1.9285 -7.90681,2.0623 l 0,-9.0304 c 5.59732,-0.5071 10.00071,-5.2107 10.00071,-10.9364 0,-6.06274 -4.93707,-10.99894 -11.00078,-10.99894 -6.051044,0 -10.980174,4.8911 -11.000774,10.93644 -0.0144,1.8074 0.50003,3.6484 1.18758,5.0307 0.2239,0.4884 0.88385,0.7182 1.36273,0.4746 0.47887,-0.2436 0.68162,-0.9122 0.41865,-1.3807 -0.64275,-1.2637 -0.96882,-2.6443 -0.96882,-4.0621 0,-4.98194 4.01788,-8.99914 9.000634,-8.99914 4.98275,0 9.00064,4.0172 9.00064,8.99914 0,4.9064 -3.90418,8.8486 -8.78187,8.9679 -0.90755,-0.024 -1.19203,0.6376 -1.21874,1.3435 l 0,9.624 c -6.988114,-0.3525 -13.571814,-4.3429 -16.907444,-11.0614 -4.91692,-9.9033 -0.90442,-21.86254 9.00063,-26.7786 0.47455,-0.22904 0.69787,-0.86915 0.46879,-1.34361 -0.22909,-0.47447 -0.8693,-0.69776 -1.34385,-0.46871 -10.8733,5.39662 -15.3045,18.62572 -9.90695,29.49712 0.94708,1.9075 2.01598,3.4891 3.38975,4.9827 -1.94181,2.1649 -4.22178,4.3171 -6.32745,6.4224 -7.41721,-7.9317 -10.45072,-19.5305 -6.90674,-30.62194 0.10256,-0.4814 -0.20464,-1.0154 -0.67243,-1.1687 -0.46778,-0.1533 -1.03153,0.095 -1.23395,0.5437 -0.95942,3.0027 -1.47186,6.0589 -1.56261,9.06164 l -8.9693904,0 c 0.19357,-8.21804 2.7845904,-16.40932 7.8443104,-23.46645 13.52213,-18.86025 39.734434,-23.20645 58.597884,-9.68655 0.42185,0.35149 1.13687,0.25889 1.45523,-0.18847 0.31836,-0.44734 0.1715,-1.1531 -0.2989,-1.43637 -8.02019,-5.74827 -17.30091,-8.405 -26.47062,-8.21795 z m 29.62709,12.84249 -6.68797,6.6556 c -3.8809,-3.20349 -7.51989,-5.45055 -11.84459,-6.87433 -0.49909,-0.1636 -1.10207,0.14156 -1.2657,0.64057 -0.16365,0.499 0.14157,1.10189 0.64066,1.2655 18.19351,7.08029 25.22636,26.25603 18.72007,41.99587 -0.28356,0.5722 0.14685,1.364 0.78131,1.4374 0.43165,0.063 0.88989,-0.1932 1.06257,-0.5937 5.63957,-12.7272 2.54482,-27.124 -6.65672,-36.49644 l 6.37545,-6.37438 c 5.93838,6.02035 9.93381,13.69308 11.43831,22.02908 4.12158,22.83674 -11.03685,44.65554 -33.87739,48.77644 -0.52364,0.016 -0.98518,0.5076 -0.96882,1.0312 0.10918,0.5992 0.65559,1.0439 1.31259,0.9686 23.90427,-4.3128 39.7848,-27.2197 35.47125,-51.11994 -1.61596,-8.95352 -5.95389,-17.18535 -12.43837,-23.5602 -0.69687,-0.71142 -1.46745,-0.47032 -2.06265,0.21873 z m -28.78328,28.15347 c -1.65696,0 -3.000214,1.34304 -3.000214,2.99974 0,1.6567 1.343254,2.9997 3.000214,2.9997 1.65697,0 3.00021,-1.343 3.00021,-2.9997 0,-1.6567 -1.34324,-2.99974 -3.00021,-2.99974 z" fill="#000000" fill-opacity="1" stroke="none" marker="none" visibility="visible" display="inline" overflow="visible"/></g><text x="0" y="115" fill="#000000" font-size="5px" font-weight="bold" font-family="'Helvetica Neue', Helvetica, Arial-Unicode, Arial, Sans-serif">Created by AFY Studio</text><text x="0" y="120" fill="#000000" font-size="5px" font-weight="bold" font-family="'Helvetica Neue', Helvetica, Arial-Unicode, Arial, Sans-serif">from the Noun Project</text></svg>