<svg xmlns="http://www.w3.org/2000/svg" xmlns:xlink="http://www.w3.org/1999/xlink" version="1.1" x="0px" y="0px" viewBox="0 0 512 640" style="enable-background:new 0 0 512 512;" xml:space="preserve"><g><g><g><g><path d="M107.67,489c-1.65,0-3-1.351-3-3c0-1.66,1.35-3,3-3h310.939c12.12,0,22.75-8.22,25.841-19.98      c0.409-1.569,2.09-2.55,3.67-2.14c1.319,0.35,2.239,1.55,2.229,2.92c0,0.25-0.03,0.5-0.1,0.75      c-1.811,6.86-5.9,13.07-11.53,17.48c-5.81,4.55-12.77,6.96-20.13,6.96L107.67,489z M87.71,488.439c-0.19,0-0.38-0.01-0.58-0.05      c-1.62-0.32-2.68-1.899-2.36-3.52c0.31-1.601,1.92-2.69,3.52-2.37c1.62,0.319,2.68,1.899,2.37,3.52      C90.38,487.43,89.14,488.439,87.71,488.439z M70.79,478.5c-0.88,0-1.71-0.38-2.28-1.05c-5.05-5.92-7.83-13.45-7.83-21.2V127.22      c0-1.66,1.34-3,2.99-3c1.66,0,3.01,1.34,3.01,3v329.03c0,6.319,2.27,12.47,6.39,17.31c0.47,0.55,0.73,1.25,0.72,1.971      c-0.01,0.869-0.39,1.689-1.05,2.26C72.19,478.25,71.5,478.5,70.79,478.5z M448.319,446.87c-1.649,0-2.989-1.351-2.989-3      c0-1.65,1.34-3,2.989-3c1.66,0,3,1.35,3,3C451.319,445.52,449.979,446.87,448.319,446.87z M448.319,426.87      c-1.649,0-2.989-1.351-2.989-3v-350c0-1.65,1.34-3,2.989-3c1.66,0,3,1.35,3,3v350C451.319,425.52,449.979,426.87,448.319,426.87      z M63.67,110.22c-1.65,0-2.99-1.35-2.99-3c0-1.66,1.34-3,2.99-3c1.66,0,3.01,1.34,3.01,3      C66.68,108.87,65.33,110.22,63.67,110.22z M63.67,90.22c-1.65,0-2.99-1.35-2.99-3V55.74C60.69,37.7,75.37,23.01,93.41,23h325.18      c9.19,0,18.03,3.94,24.24,10.8c1.109,1.22,1.02,3.12-0.21,4.23c-1.181,1.07-3.17,0.97-4.24-0.2c-5.08-5.61-12.3-8.83-19.79-8.83      H93.41c-7.1,0-13.81,2.79-18.88,7.86c-5.06,5.07-7.85,11.78-7.85,18.88v31.48C66.68,88.87,65.33,90.22,63.67,90.22z       M448.26,56.87c-1.57,0-2.88-1.23-2.99-2.8c0,0,0,0,0-0.01c-0.1-1.65,1.16-3.08,2.811-3.18c1.67-0.11,3.069,1.16,3.18,2.8      c0,0.01,0,0.02,0,0.02c0.04,0.79-0.22,1.56-0.75,2.15c-0.53,0.61-1.26,0.96-2.06,1.01C448.39,56.87,448.319,56.87,448.26,56.87z      "/></g><g><path d="M363.12,439.43c-1.65,0-3-1.35-3-3c0-1.66,1.35-3,3-3h51.97V141.39c0-1.65,1.35-3,3-3s3,1.35,3,3v295.04      c0,0.8-0.31,1.55-0.88,2.12c-0.561,0.56-1.32,0.88-2.12,0.88H363.12z M343.12,439.43c-1.65,0-3-1.35-3-3c0-1.66,1.35-3,3-3      c1.66,0,3,1.34,3,3C346.12,438.08,344.78,439.43,343.12,439.43z M323.12,439.43H93.91c-0.79,0-1.56-0.32-2.12-0.88      c-0.56-0.56-0.88-1.33-0.88-2.12V315.64c0-1.649,1.35-3,3-3c1.65,0,3,1.351,3,3v117.79h226.21c1.66,0,3,1.34,3,3      C326.12,438.08,324.78,439.43,323.12,439.43z M93.91,298.64c-1.65,0-3-1.34-3-3c0-1.649,1.35-3,3-3c1.65,0,3,1.351,3,3      C96.91,297.3,95.56,298.64,93.91,298.64z M93.91,278.64c-1.65,0-3-1.34-3-3V75.57c0-0.79,0.32-1.56,0.88-2.12      c0.55-0.56,1.33-0.88,2.12-0.88h324.18c0.79,0,1.56,0.32,2.12,0.88c0.56,0.56,0.88,1.33,0.88,2.12v25.82c0,1.66-1.35,3-3,3      s-3-1.34-3-3V78.57H96.91v197.07C96.91,277.3,95.56,278.64,93.91,278.64z M418.09,124.39c-1.65,0-3-1.34-3-3c0-1.65,1.35-3,3-3      s3,1.35,3,3C421.09,123.05,419.74,124.39,418.09,124.39z"/></g><g><path d="M395.29,237.22h-20.82c-0.8,0-1.57-0.32-2.12-0.88c-0.56-0.56-0.88-1.33-0.88-2.12v-82.78c0-0.79,0.32-1.56,0.87-2.12      c0.56-0.56,1.34-0.88,2.13-0.88h20.82c0.79,0,1.56,0.32,2.12,0.88c0.56,0.56,0.88,1.33,0.88,2.12v82.78      c0,0.8-0.311,1.55-0.88,2.12C396.84,236.91,396.09,237.22,395.29,237.22z M377.47,231.22h14.82v-76.78h-14.82V231.22z"/></g><g><path d="M356.62,237.22H335.8c-0.79,0-1.56-0.32-2.12-0.88c-0.56-0.55-0.88-1.33-0.88-2.12v-103.6c0-0.79,0.32-1.56,0.88-2.12      c0.561-0.56,1.33-0.88,2.12-0.88h20.82c0.79,0,1.569,0.32,2.12,0.88c0.56,0.56,0.88,1.33,0.88,2.12v103.6      c0,0.8-0.311,1.56-0.88,2.12C358.18,236.91,357.43,237.22,356.62,237.22z M338.8,231.22h14.82v-97.6H338.8V231.22z"/></g><g><path d="M317.96,237.22h-20.82c-0.79,0-1.56-0.32-2.12-0.88c-0.56-0.56-0.88-1.33-0.88-2.12v-90.21c0-0.79,0.32-1.57,0.88-2.12      c0.561-0.56,1.33-0.88,2.12-0.88h20.82c0.79,0,1.56,0.32,2.12,0.88c0.56,0.55,0.88,1.33,0.88,2.12v90.21      c0,0.8-0.311,1.56-0.88,2.12C319.52,236.91,318.76,237.22,317.96,237.22z M300.14,231.22h14.82V147h-14.82V231.22z"/></g><g><path d="M279.3,237.22h-20.82c-0.79,0-1.57-0.32-2.12-0.88c-0.56-0.56-0.88-1.33-0.88-2.12V113.27c0-0.79,0.32-1.56,0.88-2.12      c0.55-0.56,1.33-0.87,2.12-0.87h20.82c0.79,0,1.56,0.32,2.12,0.87c0.56,0.56,0.88,1.33,0.88,2.12v120.95      c0,0.8-0.32,1.56-0.88,2.12C280.85,236.91,280.1,237.22,279.3,237.22z M261.47,231.22h14.83V116.28h-14.82L261.47,231.22z"/></g><g><path d="M240.64,237.22h-20.83c-0.79,0-1.56-0.32-2.12-0.88c-0.55-0.56-0.87-1.33-0.87-2.12v-60.47c0-0.79,0.32-1.57,0.87-2.12      c0.56-0.56,1.33-0.88,2.12-0.88h20.83c0.78,0,1.56,0.32,2.12,0.88c0.55,0.55,0.88,1.33,0.88,2.12v60.47      c0,0.79-0.33,1.56-0.88,2.12C242.2,236.9,241.42,237.22,240.64,237.22z M222.81,231.22h14.82v-54.47h-14.82V231.22z"/></g><g><path d="M198,123.71h-81.29c-1.65,0-3-1.34-3-3c0-1.65,1.35-3,3-3H198c1.66,0,3,1.35,3,3C201,122.37,199.66,123.71,198,123.71z"/></g><g><path d="M198,145.02h-81.29c-1.65,0-3-1.34-3-3c0-1.65,1.35-3,3-3H198c1.66,0,3,1.35,3,3C201,143.68,199.66,145.02,198,145.02z"/></g><g><path d="M198,166.34h-81.29c-1.65,0-3-1.35-3-3c0-1.66,1.35-3,3-3H198c1.66,0,3,1.34,3,3C201,164.99,199.66,166.34,198,166.34z"/></g><g><path d="M198,187.65h-81.29c-1.65,0-3-1.34-3-3c0-1.65,1.35-3,3-3H198c1.66,0,3,1.35,3,3C201,186.31,199.66,187.65,198,187.65z"/></g><g><path d="M198,208.97h-81.29c-1.65,0-3-1.35-3-3c0-1.66,1.35-3,3-3H198c1.66,0,3,1.34,3,3C201,207.62,199.66,208.97,198,208.97z"/></g><g><path d="M256,471.55L256,471.55c-6.3,0-11.42-5.13-11.43-11.42c0.01-6.3,5.13-11.42,11.43-11.43l0,0l0,0l0,0      c6.29,0.01,11.42,5.13,11.43,11.43C267.42,466.42,262.29,471.55,256,471.55z M256,454.7c-2.99,0.01-5.42,2.439-5.43,5.43      c0.01,2.979,2.44,5.42,5.43,5.42s5.42-2.44,5.43-5.42C261.42,457.14,258.99,454.71,256,454.7L256,454.7z"/></g><g><path d="M188.96,385.27h-0.01c-0.79,0-1.55-0.31-2.11-0.87c-4.14-4.149-8.28-7.81-12.27-11.35c-3.94-3.49-7.67-6.79-10.94-10.16      c-5.3-5.439-11.39-13.04-11.38-23.56c0.01-10.94,8.91-19.851,19.86-19.851h0.13c4.67,0,8.62,1.29,11.75,3.82      c1.8,1.44,3.42,3.31,4.97,5.71c1.54-2.4,3.17-4.26,4.97-5.71c3.12-2.53,7.06-3.82,11.72-3.82h0.13      c10.95,0,19.85,8.91,19.86,19.851c0.01,10.51-6.08,18.109-11.38,23.56c-3.26,3.36-6.97,6.65-10.89,10.13      c-4,3.55-8.14,7.221-12.29,11.37C190.52,384.96,189.76,385.27,188.96,385.27z M172.11,325.479      c-7.63,0.021-13.84,6.23-13.86,13.851c0.01,6.64,2.82,12.26,9.69,19.39c2.99,3.09,6.6,6.29,10.42,9.67      c3.42,3.03,6.95,6.16,10.6,9.68c3.64-3.529,7.18-6.659,10.6-9.699c3.81-3.38,7.41-6.57,10.39-9.65      c6.87-7.13,9.68-12.75,9.69-19.39c-0.02-7.62-6.23-13.83-13.86-13.851c-3.53,0.03-5.88,0.75-8.1,2.5      c-2.05,1.63-3.97,4.32-6.04,8.48c-0.51,1.03-1.54,1.66-2.68,1.66c-1.15,0-2.17-0.63-2.69-1.66c-2.07-4.15-3.98-6.851-6.03-8.47      c-2.23-1.761-4.59-2.48-8.14-2.511H172.11z"/></g><g><path d="M188.96,407.149c-8.08,0-15.93-1.59-23.31-4.71c-7.12-3.01-13.52-7.33-19.02-12.83c-5.49-5.5-9.81-11.899-12.82-19.02      c-3.12-7.38-4.7-15.22-4.7-23.29c0-14.66,5.35-28.76,15.05-39.7c9.62-10.859,22.82-17.84,37.15-19.67      c1.62-0.21,3.14,0.98,3.35,2.601c0.21,1.64-0.95,3.14-2.59,3.359c-26.78,3.41-46.96,26.37-46.96,53.41      c0,14.37,5.6,27.9,15.77,38.07s23.7,15.779,38.08,15.779c14.37,0,27.89-5.609,38.06-15.779c10.16-10.181,15.76-23.7,15.76-38.07      c0-14.39-5.6-27.92-15.76-38.09c-10.17-10.16-23.68-15.76-38.05-15.76h-0.01c-1.65,0-3-1.351-3-3c0-1.66,1.35-3,3-3      c8.08,0,15.91,1.58,23.28,4.699c7.13,3.011,13.52,7.33,19.02,12.82c5.49,5.5,9.8,11.9,12.82,19.021      c3.12,7.38,4.7,15.22,4.7,23.31c0,8.07-1.58,15.91-4.7,23.29c-3.02,7.12-7.33,13.52-12.82,19.02      c-5.5,5.5-11.89,9.82-19.01,12.83C204.87,405.56,197.04,407.149,188.96,407.149z"/></g><g><path d="M322.7,333.91h-30.24c-0.79,0-1.561-0.32-2.12-0.88c-0.56-0.561-0.88-1.33-0.88-2.12v-30.24      c0-0.79,0.32-1.561,0.88-2.12s1.33-0.88,2.12-0.88h30.24c0.79,0,1.56,0.32,2.119,0.88c0.561,0.56,0.881,1.33,0.881,2.12v30.24      c0,0.8-0.311,1.55-0.881,2.12C324.25,333.6,323.5,333.91,322.7,333.91z M295.46,327.91h24.24v-24.24h-24.24V327.91z"/></g><g><path d="M383.39,333.91h-30.24c-0.79,0-1.56-0.32-2.119-0.88c-0.561-0.561-0.881-1.33-0.881-2.12v-30.24      c0-0.78,0.32-1.561,0.881-2.12c0.56-0.56,1.329-0.88,2.119-0.88h30.24c0.79,0,1.561,0.32,2.12,0.88s0.88,1.33,0.88,2.12v30.24      c0,0.8-0.31,1.55-0.88,2.12C384.939,333.6,384.189,333.91,383.39,333.91z M356.149,327.91h24.24v-24.24h-24.24V327.91z"/></g><g><path d="M322.7,386.979h-30.24c-0.79,0-1.561-0.319-2.12-0.88c-0.56-0.56-0.88-1.33-0.88-2.12V353.74      c0-0.79,0.32-1.561,0.88-2.12c0.56-0.561,1.33-0.88,2.12-0.88h30.24c0.79,0,1.56,0.319,2.119,0.88      c0.561,0.56,0.881,1.33,0.881,2.12v30.239c0,0.801-0.311,1.551-0.881,2.12C324.26,386.67,323.5,386.979,322.7,386.979z       M295.46,380.979h24.24V356.74h-24.24V380.979z"/></g><g><path d="M383.39,386.979h-30.24c-0.79,0-1.56-0.319-2.119-0.88c-0.561-0.56-0.881-1.33-0.881-2.12V353.74      c0-0.79,0.32-1.561,0.881-2.12c0.56-0.561,1.329-0.88,2.119-0.88h30.24c0.79,0,1.561,0.319,2.12,0.88      c0.56,0.56,0.88,1.33,0.88,2.12v30.239c0,0.801-0.31,1.551-0.88,2.12C384.95,386.67,384.189,386.979,383.39,386.979z       M356.149,380.979h24.24V356.74h-24.24V380.979z"/></g></g></g></g><text x="0" y="527" fill="#000000" font-size="5px" font-weight="bold" font-family="'Helvetica Neue', Helvetica, Arial-Unicode, Arial, Sans-serif">Created by Flatart</text><text x="0" y="532" fill="#000000" font-size="5px" font-weight="bold" font-family="'Helvetica Neue', Helvetica, Arial-Unicode, Arial, Sans-serif">from the Noun Project</text></svg>