<?xml version="1.0" encoding="UTF-8"?>
<svg width="512pt" height="512pt" version="1.1" viewBox="0 0 512 512" xmlns="http://www.w3.org/2000/svg">
 <path d="m446.98 253.44-93.184-161.79-1.5352-2.5586h-192.52l-96.254 166.91 94.719 164.35 1.5352 2.5586h192.51l94.719-164.35 1.5352-2.5586zm-18.434-11.266-97.789-55.297 20.48-78.848zm-86.016-142.85-20.992 81.922-139.78-81.922zm-28.672 89.602-115.71 58.879-28.16-143.36zm5.6328 9.2148-2.5586 118.79-111.62-61.441zm-159.23-89.09 28.16 141.82h-110.08zm-81.922 152.07 110.08-0.51172-28.16 142.34zm119.81 2.0469 113.15 61.953-141.31 82.43zm-16.383 149.5 137.21-79.871 23.551 79.871zm168.96-8.1914-22.527-76.801 100.86-57.344zm-23.551-88.066 2.5586-118.27 102.4 57.855z"/>
</svg>
