<?xml version="1.0" encoding="UTF-8"?>
<svg width="512pt" height="512pt" version="1.1" viewBox="0 0 512 512" xmlns="http://www.w3.org/2000/svg">
 <path d="m473.43 125.86c-0.011719-0.050781-0.003906-0.10938-0.019531-0.16406-0.078125-0.28516-0.1875-0.55859-0.33203-0.8125-0.050781-0.085938-0.11719-0.16016-0.17578-0.24219-0.11328-0.16406-0.21875-0.32422-0.35938-0.46484-0.082031-0.082032-0.18359-0.14453-0.26953-0.21875-0.12109-0.10156-0.23438-0.21484-0.375-0.29688-0.019531-0.015624-0.046875-0.019531-0.070312-0.03125-0.019531-0.011718-0.035157-0.03125-0.054688-0.039062l-212.51-118.06c-0.019531-0.011718-0.039062-0.011718-0.0625-0.019531-0.28516-0.15234-0.58984-0.26172-0.91016-0.32812-0.035156-0.003906-0.070312-0.015625-0.10938-0.027344-0.0625-0.011718-0.11719-0.003906-0.17969-0.015625-0.10938-0.011719-0.21094-0.039062-0.32422-0.039062-0.1875-0.003907-0.36719 0.019531-0.55469 0.046875-0.035157 0.003906-0.070313 0-0.10156 0.011718h-0.011719c-0.011718 0-0.027344 0-0.035156 0.003907-0.33984 0.0625-0.65625 0.19531-0.96094 0.35156-0.039062 0.019531-0.082031 0.027344-0.12109 0.046875l-216.66 125c-0.019531 0.011719-0.035157 0.03125-0.054688 0.039063-0.019531 0.015625-0.046875 0.019531-0.066406 0.03125-0.15234 0.097656-0.27734 0.21875-0.41016 0.33984-0.070313 0.066407-0.16016 0.11719-0.22656 0.1875-0.41016 0.42969-0.70312 0.95703-0.84375 1.5352-0.019531 0.09375-0.019531 0.18359-0.035156 0.27734-0.03125 0.17969-0.066406 0.35156-0.066406 0.53906v248.62c0 0.003907 0.003906 0.011719 0.003906 0.015626 0 0.039062 0.011719 0.078124 0.015625 0.11328 0.015625 0.33984 0.070313 0.67578 0.18359 1 0.003906 0.019531 0.003906 0.039062 0.015625 0.0625 0.015625 0.039062 0.046875 0.070312 0.0625 0.10938 0.054687 0.13281 0.10156 0.26953 0.17578 0.39844 0.085937 0.14844 0.19531 0.27734 0.29688 0.40625 0.027344 0.03125 0.035156 0.070313 0.0625 0.097657 0.011719 0.015624 0.027344 0.027343 0.035156 0.035156 0.21875 0.25 0.48828 0.46094 0.76953 0.64062 0.039062 0.027343 0.078124 0.0625 0.11719 0.082031 0.011719 0.003906 0.015625 0.015625 0.027344 0.019531l219.57 120.84c0.17578 0.097656 0.35938 0.15234 0.54688 0.21484 0.082031 0.027344 0.15234 0.070313 0.23438 0.09375 0.28125 0.070313 0.56641 0.11328 0.85938 0.11328 0.29688 0 0.59375-0.039063 0.87891-0.11719 0.078125-0.019531 0.14844-0.066406 0.22656-0.09375 0.19922-0.070312 0.40625-0.13281 0.59375-0.24609l209.61-120.84c0.003906-0.003906 0.011719-0.011719 0.015625-0.011719 0.035156-0.019531 0.066406-0.054687 0.10156-0.082031 0.28516-0.18359 0.55469-0.39844 0.77344-0.66016 0.011719-0.011719 0.019531-0.015625 0.03125-0.027344 0.027344-0.03125 0.035156-0.066406 0.054687-0.097656 0.10938-0.13672 0.21875-0.28125 0.30859-0.44141 0.0625-0.11328 0.097656-0.23047 0.14453-0.34766 0.019531-0.046875 0.050781-0.085937 0.070312-0.13281 0.011719-0.027344 0.011719-0.054688 0.019531-0.085938 0.10938-0.32422 0.16406-0.65625 0.17578-0.99219 0-0.027344 0.015626-0.050781 0.015626-0.078125v-0.011719-0.011719l-0.003907-255.53c-0.007812-0.24219-0.046875-0.47266-0.09375-0.70312zm-10.559 0.57422-73.539 37.516-117.79-143.8zm-205.38-112.69 123.75 151.09h-258.82zm-16.57 8.3203-126.95 142.01-26.598-12.504-39.086-18.363zm-196.58 116.81 53.293 25.047 12.969 6.0938-66.262 191.83zm22.461 178.8 48.773-141.2 99.539 175.36 38.805 68.363-208.49-40.652zm190.32 130.56-0.019532 48.973-195.46-107.57 195.5 38.117zm3.2188-30.523-139.67-246.07h262.27zm3.5664 79.363 0.027344-52.023 0.011718-17.316 186.27-38.062zm2.793-76.855 121.32-243.52 77.477 202.89zm200-56.551-73.992-193.79 1.8594-0.94531 72.141-36.801-0.003907 231.53z"/>
</svg>
