<?xml version="1.0" encoding="UTF-8"?>
<svg width="512pt" height="512pt" version="1.1" viewBox="0 0 512 512" xmlns="http://www.w3.org/2000/svg">
 <g>
  <path d="m259.25 455.86c-49.605 0-96.273-16.332-134.95-47.23-37.547-29.992-64.355-72.094-75.496-118.55-0.21484-0.89453-0.007813-1.8359 0.5625-2.5586 0.57031-0.72266 1.4375-1.1445 2.3555-1.1445h79.695c1.2344 0 2.3438 0.75781 2.793 1.9062 1.7227 4.3984 3.6992 8.7578 5.8828 12.953 0.76562 1.4688 0.19141 3.2812-1.2773 4.0469-1.4727 0.76172-3.2812 0.19141-4.0469-1.2773-1.9648-3.7773-3.7695-7.6797-5.3828-11.629l-73.824 0.003906c24.031 92.918 107.25 157.48 203.69 157.48 40.129 0 79.148-11.332 112.84-32.77 1.3984-0.89063 3.2539-0.47656 4.1406 0.92187 0.89063 1.3984 0.47656 3.2539-0.92187 4.1406-34.656 22.051-74.785 33.707-116.06 33.707zm153.12-64.723c-0.75391 0-1.5078-0.28125-2.0898-0.84766-1.1875-1.1523-1.2148-3.0547-0.0625-4.2422 38.363-39.48 59.488-91.551 59.488-146.61 0-116.03-94.414-210.43-210.46-210.43-31.91 0-62.562 6.957-91.098 20.684-1.4922 0.71875-3.2852 0.089844-4.0039-1.4023-0.71875-1.4922-0.089844-3.2852 1.4023-4.0039 29.352-14.117 60.879-21.277 93.695-21.277h0.003907c57.816 0 112.18 22.512 153.06 63.387 40.887 40.879 63.402 95.227 63.402 153.04 0 56.633-21.73 110.18-61.188 150.79-0.58203 0.60156-1.3633 0.90625-2.1445 0.90625zm-153.12-11.48c-34.461 0-67.594-12.629-93.289-35.555-1.2344-1.1016-1.3438-3-0.24219-4.2344 1.1016-1.2344 3-1.3438 4.2344-0.24219 24.598 21.945 56.309 34.031 89.297 34.031 74.012 0 134.23-60.215 134.23-134.23 0-62.918-42.754-116.71-103.97-130.8-1.6133-0.37109-2.6211-1.9805-2.25-3.5977 0.37109-1.6133 1.9844-2.6211 3.5977-2.25 30.395 7 57.973 24.309 77.652 48.734 19.973 24.789 30.973 56.012 30.973 87.914-0.003906 77.328-62.91 140.23-140.23 140.23zm-135.99-118.91h-76.66c-1.5625 0-2.8633-1.1992-2.9883-2.7578-0.53125-6.4961-0.78516-12.566-0.78516-18.562 0-65.477 29.172-126.73 80.035-168.06 1.2852-1.0469 3.1758-0.85156 4.2188 0.4375 1.0469 1.2852 0.85156 3.1758-0.4375 4.2188-49.457 40.184-77.82 99.742-77.82 163.4 0 4.9766 0.18359 10.012 0.55859 15.316h70.504c-0.54687-5.1484-0.82422-10.285-0.82422-15.316 0-34.109 12.387-66.98 34.883-92.566 22.293-25.355 52.895-41.82 86.168-46.363 1.6406-0.22266 3.1523 0.92578 3.3789 2.5664 0.22656 1.6406-0.92578 3.1523-2.5664 3.3789-66.051 9.0195-115.86 66.191-115.86 132.98 0 5.8789 0.39453 11.914 1.1719 17.934 0.10938 0.85547-0.15234 1.7188-0.72266 2.3633-0.57031 0.65234-1.3906 1.0234-2.25 1.0234z"/>
  <path d="m259.25 105.48c-1.6562 0-3-1.3438-3-3v-76.199c0-1.6562 1.3438-3 3-3s3 1.3438 3 3v76.199c0 1.6602-1.3438 3-3 3z"/>
  <path d="m391.53 207c-1.3242 0-2.5352-0.88281-2.8945-2.2266-0.42969-1.6016 0.51953-3.2461 2.1211-3.6758l73.625-19.73c1.6016-0.42578 3.2461 0.51953 3.6758 2.1211 0.42969 1.6016-0.51953 3.2461-2.1211 3.6758l-73.625 19.73c-0.26172 0.070313-0.52344 0.10547-0.78125 0.10547z"/>
  <path d="m465.16 297.6c-0.25781 0-0.51953-0.03125-0.77734-0.10547l-73.625-19.73c-1.6016-0.42969-2.5508-2.0742-2.1211-3.6758 0.42969-1.6016 2.0742-2.5508 3.6758-2.1211l73.625 19.73c1.6016 0.42969 2.5508 2.0742 2.1211 3.6758-0.36328 1.3398-1.5742 2.2266-2.8984 2.2266z"/>
  <path d="m314.41 448.34c-1.3242 0-2.5352-0.88672-2.8945-2.2266l-19.695-73.625c-0.42969-1.6016 0.52344-3.2461 2.1211-3.6758 1.6016-0.42578 3.2461 0.52344 3.6758 2.1211l19.695 73.625c0.42969 1.6016-0.52344 3.2461-2.1211 3.6758-0.26172 0.070313-0.52344 0.10547-0.78125 0.10547z"/>
  <path d="m341.09 489h-270.78c-1.6562 0-3-1.3438-3-3s1.3438-3 3-3h270.78c1.6562 0 3 1.3438 3 3s-1.3438 3-3 3z"/>
  <path d="m416.27 472.55h-187.42c-1.6562 0-3-1.3438-3-3s1.3438-3 3-3h187.42c1.6562 0 3 1.3438 3 3s-1.3438 3-3 3z"/>
  <path d="m458.87 472.55h-23.438c-1.6562 0-3-1.3438-3-3s1.3438-3 3-3h23.438c1.6562 0 3 1.3438 3 3s-1.3438 3-3 3z"/>
  <path d="m148.42 473.04h-88.766c-1.6562 0-3-1.3438-3-3s1.3438-3 3-3h88.766c1.6562 0 3 1.3438 3 3s-1.3438 3-3 3z"/>
  <path d="m133.88 444.45c-0.54297 0-1.0938-0.14453-1.5859-0.45703-23.793-14.867-44.223-33.93-60.723-56.66-16.746-23.07-28.59-48.766-35.199-76.371-0.38672-1.6094 0.60547-3.2305 2.2188-3.6172 1.6133-0.38281 3.2305 0.60547 3.6172 2.2188 12.719 53.105 46.711 100.25 93.266 129.34 1.4062 0.87891 1.832 2.7305 0.95312 4.1328-0.56641 0.91016-1.5469 1.4102-2.5469 1.4102z"/>
  <path d="m265.5 330.55c-40.227 0-75.602-27.168-86.023-66.066-0.42969-1.6016 0.51953-3.2461 2.1211-3.6758l80.293-21.527-6.5312-24.406c-0.42969-1.6016 0.51953-3.2461 2.1211-3.6758 1.6016-0.42578 3.2461 0.52344 3.6758 2.1211l7.3086 27.301c0.42969 1.6016-0.51953 3.2461-2.1211 3.6719l-80.238 21.516c10.66 34.73 42.891 58.738 79.402 58.738 7.25 0 14.516-0.96094 21.594-2.8555 36.301-9.7031 61.652-42.699 61.652-80.25 0-7.2461-0.96094-14.504-2.8555-21.574-9.7266-36.281-42.719-61.621-80.23-61.621-6.2617 0-12.531 0.71875-18.68 2.1328l1.2422 4.6406c0.42969 1.6016-0.51953 3.2461-2.1211 3.6758-1.6016 0.42578-3.2461-0.51953-3.6758-2.1211l-2.0312-7.5898c-0.42969-1.6016 0.51953-3.2461 2.1211-3.6719 7.582-2.0312 15.367-3.0625 23.145-3.0625 40.223 0 75.598 27.168 86.023 66.066 2.0312 7.5742 3.0586 15.355 3.0586 23.125 0 40.262-27.184 75.641-66.102 86.043-7.5898 2.0352-15.375 3.0664-23.148 3.0664z"/>
  <path d="m170.34 246.1c-1.2539 0-2.4258-0.79297-2.8438-2.0508-0.51562-1.543-1-3.207-1.4766-5.0859-1.4805-5.957-2.2305-12.047-2.2305-18.117 0-34.359 23.309-64.156 56.688-72.461 1.6094-0.39844 3.2344 0.57812 3.6367 2.1875l17.328 69.602c0.37891 1.5273-0.48438 3.0898-1.9805 3.5781l-68.188 22.199c-0.3125 0.10156-0.625 0.14844-0.93359 0.14844zm48.688-91.105c-29.141 8.5977-49.238 35.258-49.238 65.852 0 5.582 0.69141 11.184 2.0508 16.656 0.15625 0.625 0.31641 1.2227 0.47656 1.7969l62.621-20.387z"/>
 </g>
</svg>
