<?xml version="1.0" encoding="UTF-8"?>
<svg width="512pt" height="512pt" version="1.1" viewBox="0 0 512 512" xmlns="http://www.w3.org/2000/svg">
 <g>
  <path d="m313.1 363.22c-1.6602 0-3-1.3398-3-3v-77.84c0-0.78906 0.32031-1.5703 0.87891-2.1289 0.55078-0.55078 1.3281-0.87109 2.1211-0.87109h72.23c1.6484 0 3 1.3398 3 3 0 1.6484-1.3516 3-3 3h-69.23v74.84c0 1.6602-1.3516 3-3 3zm-96.352 0c-1.6602 0-3-1.3398-3-3v-74.84h-69.238c-1.6484 0-3-1.3516-3-3 0-1.6602 1.3516-3 3-3h72.238c0.78906 0 1.5586 0.32031 2.1211 0.87891 0.55859 0.55078 0.87891 1.3281 0.87891 2.1211v77.84c0 1.6602-1.3516 3-3 3zm168.58-171.06h-72.227c-0.78906 0-1.5703-0.32031-2.1211-0.87891-0.55859-0.55078-0.87891-1.3281-0.87891-2.1211v-77.84c0-1.6602 1.3398-3 3-3 1.6484 0 3 1.3398 3 3v74.84h69.23c1.6484 0 3 1.3516 3 3-0.003906 1.6602-1.3516 3-3.0039 3zm-168.58 0h-72.238c-1.6484 0-3-1.3398-3-3 0-1.6484 1.3516-3 3-3h69.238v-74.84c0-1.6602 1.3398-3 3-3 1.6484 0 3 1.3398 3 3v77.84c0 0.78906-0.32031 1.5586-0.87891 2.1211-0.5625 0.55859-1.332 0.87891-2.1211 0.87891z"/>
  <path d="m282.96 285.38c-1.6484 0-3-1.3516-3-3v-29.141c0-0.78906 0.32031-1.5586 0.87891-2.1211 0.55859-0.55859 1.3281-0.87891 2.1211-0.87891h27.059c1.6602 0 3 1.3516 3 3 0 1.6484-1.3398 3-3 3h-24.059v26.141c0 1.6523-1.3516 3-3 3zm-36.07 0c-1.6602 0-3-1.3516-3-3v-26.141h-24.07c-1.6484 0-3-1.3516-3-3 0-1.6484 1.3516-3 3-3h27.07c0.78906 0 1.5586 0.32031 2.1211 0.87891 0.55859 0.55859 0.87891 1.3281 0.87891 2.1211v29.121 0.019531c0 1.6523-1.3516 3-3 3zm63.129-64.051h-27.059c-0.78906 0-1.5625-0.32031-2.1211-0.87891-0.55859-0.55859-0.87891-1.3281-0.87891-2.1211v-29.172c0-1.6484 1.3516-3 3-3 1.6484 0 3 1.3516 3 3v26.172h24.059c1.6602 0 3 1.3516 3 3 0 1.6523-1.3398 3-3 3zm-63.129 0h-27.07c-1.6484 0-3-1.3516-3-3s1.3516-3 3-3h24.07v-26.172c0-1.6484 1.3398-3 3-3 1.6484 0 3 1.3516 3 3v29.172c0 0.78906-0.32031 1.5586-0.87891 2.1211-0.5625 0.5625-1.332 0.87891-2.1211 0.87891z"/>
  <path d="m281.95 410.33h-34.051c-0.80859 0-1.5586-0.3125-2.1289-0.87891l-154.53-154.53c-0.55859-0.55859-0.87891-1.3281-0.87891-2.1211v-16.25c0-1.6484 1.3516-3 3-3 1.6602 0 3 1.3516 3 3v15.012l152.78 152.77h31.57l56.5-56.5c1.1406-1.1289 3.1094-1.1289 4.25 0 0.55859 0.57031 0.87109 1.3203 0.87109 2.1211s-0.3125 1.5586-0.87109 2.1172l-57.379 57.383c-0.57031 0.56641-1.332 0.875-2.1328 0.875zm71.531-71.52c-0.80078 0-1.5586-0.30859-2.1211-0.87891-1.1719-1.1719-1.1719-3.0703 0-4.2383 1.1328-1.1406 3.1094-1.1289 4.2383 0 0.57031 0.5625 0.87891 1.3203 0.87891 2.1211s-0.30859 1.5508-0.87891 2.1211c-0.56641 0.56641-1.3164 0.875-2.1172 0.875zm14.141-14.137c-0.80078 0-1.5625-0.3125-2.1211-0.87891-0.57031-0.57031-0.87891-1.3203-0.87891-2.1211 0-0.8125 0.30859-1.5625 0.87891-2.1289l67.988-67.98v-31.578l-152.78-152.79h-31.57l-137.96 137.96s0 0.011719-0.011719 0.011719c-0.96094 0.96875-2.5586 1.1484-3.7109 0.42969-0.19141-0.12109-0.37109-0.26953-0.53125-0.42969-0.57031-0.57031-0.87891-1.3203-0.87891-2.1211s0.30859-1.5508 0.87891-2.1211l138.84-138.85c0.55859-0.55078 1.3281-0.87109 2.1289-0.87109h34.051c0.78906 0 1.5703 0.32031 2.1289 0.87109l154.53 154.54c0.57031 0.55859 0.88281 1.3203 0.88281 2.1211v34.059c0 0.80078-0.3125 1.5508-0.88281 2.1211l-68.867 68.871c-0.55859 0.57031-1.3164 0.88281-2.1172 0.88281zm-272.71-104.48c-0.80078 0-1.5586-0.30859-2.1211-0.87891-1.1719-1.1719-1.1719-3.0703 0-4.2383 1.1289-1.1289 3.1094-1.1289 4.2383 0 1.1719 1.1719 1.1719 3.0703 0 4.2383-0.56641 0.56641-1.3164 0.87891-2.1172 0.87891z"/>
  <path d="m474.69 448.54h-290.94c-1.6484 0-2.9883-1.3516-2.9883-3 0-1.6602 1.3398-3 2.9883-3h287.94v-56.07c0-1.6602 1.3516-3 3-3s3 1.3398 3 3v59.07c0 0.80078-0.30859 1.5508-0.87891 2.1211-0.57031 0.55859-1.3203 0.87891-2.1211 0.87891zm-310.94 0c-1.6484 0-3-1.3516-3-3 0-1.6602 1.3516-3 3-3 1.6602 0 3 1.3398 3 3 0 1.6484-1.3398 3-3 3zm-20 0h-88.59c-0.78906 0-1.5586-0.32031-2.1289-0.87891-0.55078-0.5625-0.87109-1.3281-0.87109-2.1211v-261.41c0-1.6484 1.3398-2.9883 3-2.9883 1.6484 0 2.9883 1.3398 2.9883 2.9883v258.41h85.602c1.6602 0 3.0117 1.3398 3.0117 3 0 1.6406-1.2891 2.9492-2.9297 2.9883zm330.94-79.07c-1.6484 0-3-1.3516-3-3 0-1.6602 1.3516-3 3-3s3 1.3398 3 3c0 1.6523-1.3477 3-3 3zm0-20c-1.6484 0-3-1.3398-3-3v-317.47h-26.527c-1.6602 0-3-1.3398-3-3 0-1.6484 1.3398-3 3-3h29.527c0.78906 0 1.5625 0.32031 2.1211 0.87891 0.5625 0.55859 0.87891 1.3398 0.87891 2.1211v320.47c0 1.6602-1.3477 3-3 3zm-419.53-182.34c-1.6602 0-3-1.3398-3-3 0-1.6484 1.3398-2.9883 3-2.9883 1.6484 0 2.9883 1.3398 2.9883 2.9883 0 1.6602-1.3398 3-2.9883 3zm0-19.988c-1.6602 0-3-1.3516-3-3.0117v-118.13c0-0.78125 0.32031-1.5586 0.87109-2.1211 0.55859-0.55859 1.3398-0.87891 2.1289-0.87891h350c1.6484 0 2.9883 1.3516 2.9883 3 0 1.6602-1.3398 3-2.9883 3h-347.01v115.12c0.011718 0 0.011718 0.011718 0.011718 0.011718 0 1.6562-1.3516 3.0078-3 3.0078zm370-118.14c-1.6602 0-3-1.3398-3-3 0-1.6484 1.3398-3 3-3 1.6484 0 2.9883 1.3516 2.9883 3 0 1.6602-1.3398 3-2.9883 3z"/>
  <path d="m425.39 123.22c-1.6602 0-3.0117-1.3398-3.0117-3v-44.141h-44.16c-1.6602 0-3-1.3398-3-3 0-1.6484 1.3398-3 3-3h47.172c0.78125 0 1.5625 0.32031 2.1211 0.87891 0.55078 0.55859 0.87109 1.3281 0.87109 2.1211l0.011719 47.141c-0.003906 1.6602-1.3555 3-3.0039 3z"/>
  <path d="m361.65 92.609c-10.762 0-19.527-8.7617-19.527-19.531 0-10.781 8.7617-19.559 19.527-19.559 5.2305 0.011719 10.141 2.0508 13.828 5.7305 3.6914 3.6914 5.7227 8.6016 5.7305 13.828 0.003907 10.773-8.7695 19.531-19.559 19.531zm0-33.09c-7.4492 0.019531-13.512 6.1016-13.527 13.559 0.019531 7.4492 6.0781 13.52 13.527 13.531 7.4727-0.011719 13.551-6.0781 13.57-13.531-0.007812-7.4688-6.0898-13.559-13.57-13.559z"/>
  <path d="m425.39 156.34c-10.789 0-19.559-8.7812-19.57-19.559 0.011719-5.2305 2.0508-10.141 5.7383-13.82 3.6797-3.6914 8.5898-5.7305 13.828-5.7383 10.762 0 19.531 8.7812 19.531 19.559-0.007813 10.777-8.7695 19.559-19.527 19.559zm0-33.121c-7.4805 0-13.57 6.0898-13.57 13.559 0.019532 7.4688 6.1016 13.551 13.57 13.559 7.4414-0.011719 13.512-6.0898 13.531-13.559-0.023437-7.457-6.0938-13.539-13.531-13.559z"/>
  <path d="m104.46 123.22c-1.6484 0-3-1.3398-3-3v-47.141c0-0.78906 0.32031-1.5586 0.87891-2.1211 0.55859-0.55859 1.3281-0.87891 2.1211-0.87891h47.172 0.019532c1.6484 0.011719 2.9805 1.3516 2.9805 3 0 1.6602-1.3398 3-3 3h-44.172v44.141c0 1.6602-1.3398 3-3 3z"/>
  <path d="m168.2 92.609c-10.789 0-19.559-8.7617-19.559-19.531 0-5.2305 2.0391-10.141 5.7305-13.828 3.6797-3.6797 8.6016-5.7188 13.828-5.7305 5.2188 0 10.121 2.0391 13.809 5.7305 3.6797 3.6914 5.7109 8.6016 5.7109 13.828 0 10.773-8.7578 19.531-19.52 19.531zm0-33.09c-7.4805 0-13.57 6.0898-13.57 13.559 0.019532 7.4492 6.1016 13.52 13.57 13.531 7.4414-0.011719 13.512-6.0781 13.52-13.531-0.007812-7.457-6.0781-13.539-13.52-13.559z"/>
  <path d="m104.46 156.34c-10.762 0-19.52-8.7812-19.531-19.559 0-10.781 8.7617-19.559 19.531-19.559 5.2305 0.011719 10.141 2.0508 13.828 5.7383 3.6914 3.6797 5.7188 8.5898 5.7305 13.82 0 10.789-8.7695 19.559-19.559 19.559zm0-33.121c-7.4492 0.019531-13.512 6.1016-13.531 13.559 0.019531 7.4688 6.0781 13.551 13.531 13.559 7.4688-0.011719 13.551-6.0898 13.559-13.559 0-7.4688-6.0781-13.559-13.559-13.559z"/>
  <path d="m151.63 401.49h-47.172c-0.78906 0-1.5586-0.32031-2.1211-0.88281-0.55859-0.55859-0.87891-1.3281-0.87891-2.1172l0.003907-47.137c0-1.6602 1.3516-3 3-3 1.6602 0 3 1.3398 3 3v44.141h44.172c1.6602 0 3 1.3516 3 3-0.003906 1.6484-1.3438 2.9961-3.0039 2.9961z"/>
  <path d="m168.2 418.05c-5.2305-0.011719-10.148-2.0508-13.828-5.7305-3.6914-3.6875-5.7305-8.6016-5.7383-13.828 0.011719-5.2305 2.0508-10.141 5.7383-13.828 3.6797-3.6914 8.6016-5.7227 13.828-5.7305 5.2109 0 10.121 2.0312 13.801 5.7188 3.6914 3.6992 5.7188 8.6094 5.7188 13.84 0 10.777-8.7578 19.559-19.52 19.559zm0-33.121c-7.4805 0-13.559 6.0781-13.57 13.562 0.011719 7.4688 6.0898 13.559 13.57 13.559 7.4414-0.011719 13.512-6.1016 13.52-13.559-0.007812-7.4609-6.0781-13.555-13.52-13.562z"/>
  <path d="m104.46 354.35c-10.762-0.011718-19.52-8.7812-19.531-19.559 0-10.789 8.7617-19.562 19.531-19.562 5.2305 0.011719 10.141 2.0391 13.828 5.7305 3.6914 3.6875 5.7188 8.6016 5.7305 13.828 0 10.781-8.7695 19.551-19.559 19.562zm0-33.121c-7.4414 0.011719-13.512 6.0898-13.531 13.562 0.019531 7.4609 6.0898 13.539 13.531 13.559 7.4688-0.019531 13.551-6.1016 13.559-13.559 0-7.4844-6.0781-13.562-13.559-13.562z"/>
  <path d="m378.21 401.49c-1.6484 0-3-1.3398-3-3 0-1.6484 1.3516-3 3-3h44.18v-44.137c0-1.6602 1.3398-3 2.9883-3 1.6602 0 3 1.3398 3 3v47.141c0 0.80078-0.3125 1.5508-0.87109 2.1172-0.57031 0.57031-1.3203 0.88281-2.1289 0.88281h-47.148c0-0.003907-0.011719-0.003907-0.019531-0.003907z"/>
  <path d="m361.65 418.05c-10.77 0-19.527-8.7812-19.527-19.559 0-10.781 8.7617-19.562 19.527-19.562 5.2305 0.011718 10.141 2.0391 13.828 5.7305 3.6914 3.6875 5.7305 8.6016 5.7305 13.828 0 5.2305-2.0391 10.141-5.7305 13.828-3.6875 3.6836-8.5977 5.7227-13.828 5.7344zm0-33.121c-7.4375 0.011718-13.512 6.1016-13.527 13.562 0.019531 7.4609 6.0898 13.551 13.527 13.559 7.4805 0 13.562-6.0781 13.57-13.559-0.007812-7.4805-6.0898-13.562-13.57-13.562z"/>
  <path d="m425.39 354.35c-10.789-0.011718-19.559-8.7812-19.57-19.559 0.011719-5.2305 2.0508-10.141 5.7383-13.828 3.6797-3.6914 8.6016-5.7188 13.828-5.7305 10.762 0 19.531 8.7695 19.531 19.562-0.007813 10.773-8.7695 19.543-19.527 19.555zm0-33.121c-7.4805 0-13.57 6.0781-13.57 13.562 0.019532 7.4609 6.1016 13.539 13.57 13.559 7.4414-0.019531 13.512-6.1016 13.531-13.559-0.023437-7.4727-6.0938-13.555-13.531-13.562z"/>
  <path d="m347.57 470.55h-302.92c-1.6484 0-3-1.3398-3-3 0-1.6484 1.3516-2.9883 3-2.9883h302.92c1.6484 0 3 1.3398 3 2.9883 0.003906 1.6602-1.3477 3-2.9961 3z"/>
  <path d="m431.63 489h-209.61c-1.6602 0-3-1.3516-3-3 0-1.6602 1.3398-3 3-3h209.61c1.6484 0 3 1.3398 3 3 0 1.6484-1.3477 3-3 3z"/>
  <path d="m479.3 489h-26.191c-1.6602 0-3-1.3516-3-3 0-1.6602 1.3398-3 3-3h26.191c1.6484 0 3 1.3398 3 3 0 1.6484-1.3516 3-3 3z"/>
  <path d="m132.03 488.43h-99.332c-1.6602 0-3-1.3398-3-3 0-1.6484 1.3398-3 3-3h99.328c1.6602 0 3 1.3516 3 3 0.003906 1.6602-1.3359 3-2.9961 3z"/>
 </g>
</svg>
