<?xml version="1.0" encoding="UTF-8"?>
<svg width="512pt" height="512pt" version="1.1" viewBox="0 0 512 512" xmlns="http://www.w3.org/2000/svg">
 <g>
  <path d="m224.83 371.54c-1.6289 0-2.9688-1.3203-3-2.9414-0.019531-0.80078 0.28125-1.5586 0.82812-2.1406 0.55859-0.57812 1.3008-0.89844 2.1016-0.92188 1.6602-0.070312 3.0312 1.2891 3.0703 2.9375 0.011719 0.80078-0.28125 1.5625-0.83984 2.1406-0.55078 0.57031-1.3008 0.89844-2.1016 0.92188-0.015625 0.003906-0.035157 0.003906-0.058594 0.003906zm-19.828-2.1172c-0.23047 0-0.46875-0.03125-0.69922-0.078125-8.8516-2.1211-17.25-5.6914-24.961-10.629-7.5781-4.8516-14.27-10.871-19.91-17.898-5.6797-7.1016-10.109-15.012-13.172-23.512-3.1602-8.8008-4.7617-18.031-4.7695-27.441v-90.664c0-0.78906 0.32031-1.5586 0.87891-2.1211 0.55859-0.55859 1.3281-0.87891 2.1211-0.87891h157.4c0.78906 0 1.5625 0.32031 2.1211 0.87891 0.55859 0.55859 0.87891 1.3281 0.87891 2.1211v90.66c0 9.1211-1.5195 18.078-4.4883 26.641-2.8789 8.2812-7.0586 16.012-12.43 23-5.3203 6.9219-11.672 12.91-18.859 17.828-7.3008 5-15.289 8.75-23.738 11.148-1.5703 0.44922-3.2695-0.51953-3.7109-2.0703-0.21875-0.76953-0.12891-1.5781 0.26953-2.2812 0.39062-0.69922 1.0312-1.1992 1.8008-1.4219 32.488-9.2188 55.168-39.18 55.16-72.852v-87.652h-151.4v87.66c-0.011719 34.621 24.469 65.59 58.211 73.641 1.3594 0.32812 2.3086 1.5391 2.3008 2.9375 0 0.23047-0.03125 0.46094-0.078125 0.67969-0.33594 1.3633-1.5352 2.3047-2.9258 2.3047z"/>
  <path d="m289.29 202.2h-132.23c-0.78906 0-1.5586-0.32031-2.1211-0.87109-0.55859-0.57031-0.87891-1.3398-0.87891-2.1289v-11.172c0.011718-8.2305 1.4609-16.301 4.3203-23.98 2.7617-7.4102 6.7617-14.262 11.879-20.359 10.32-12.281 24.59-20.648 40.199-23.59 1.6094-0.30078 3.1992 0.78906 3.5 2.3906 0.14844 0.78906-0.019531 1.5898-0.46875 2.25-0.44922 0.66016-1.1406 1.1094-1.9219 1.2617-29.859 5.6016-51.52 31.691-51.512 62.031v8.1719h126.23v-8.1719c0-16.781-6.5781-32.609-18.531-44.57-11.961-11.961-27.781-18.539-44.559-18.539h-0.019531c-1.6602 0-3-1.3516-3-3 0-1.6602 1.3398-3 3-3h0.019531c9.3008 0 18.328 1.8398 26.84 5.4492 8.2188 3.4883 15.609 8.4883 21.969 14.852 6.3516 6.3516 11.34 13.75 14.828 21.969 3.6211 8.5195 5.4492 17.551 5.4492 26.84v11.172c0 0.80078-0.3125 1.5586-0.87109 2.1211-0.55859 0.56641-1.3086 0.875-2.1211 0.875z"/>
  <path d="m355.14 202.23-62.922-0.03125c-1.6602 0-3-1.3398-3-3 0-1.6484 1.3398-3 3-3l61.16 0.03125 15.859-28.109c0.52734-0.94141 1.5273-1.5312 2.6172-1.5312 0.51172 0 1.0195 0.14062 1.4727 0.39062 1.4375 0.80859 1.9492 2.6484 1.1406 4.0898l-16.719 29.629c-0.53125 0.94141-1.5312 1.5312-2.6094 1.5312z"/>
  <path d="m371.83 357.25c-1.3125 0-2.4883-0.87891-2.8711-2.1289l-16.062-53.16-51.5-0.67969c-0.80078-0.011719-1.5508-0.33984-2.1094-0.91016-0.5625-0.57031-0.85938-1.3281-0.85156-2.1289 0.019531-1.6328 1.3594-2.9609 3-2.9609h0.039062l53.699 0.71094c1.3125 0.019531 2.4492 0.86719 2.8281 2.1289l16.691 55.25v0.011718c0.48047 1.5781-0.42188 3.2617-2 3.7383-0.28125 0.089844-0.57031 0.12891-0.86328 0.12891z"/>
  <path d="m347.74 255.45h-45.848c-1.6602 0-3-1.3398-3-3 0-1.6484 1.3398-3 3-3h45.852c1.6602 0 3 1.3516 3 3-0.003907 1.6602-1.3438 3-3.0039 3z"/>
  <path d="m200.52 154.7c3.3477 0 6.0469 2.6992 6.0469 6.0352 0 3.3242-2.6992 6.0352-6.0469 6.0352-3.3203 0-6.0234-2.7109-6.0234-6.0352 0-3.3359 2.6992-6.0352 6.0234-6.0352" fill-rule="evenodd"/>
  <path d="m245.84 154.7c3.3242 0 6.0195 2.6992 6.0195 6.0352 0 3.3242-2.6953 6.0352-6.0195 6.0352s-6.0234-2.7109-6.0234-6.0352c0-3.3359 2.6992-6.0352 6.0234-6.0352" fill-rule="evenodd"/>
  <path d="m209.78 125.62c-1.6289 0-2.9688-1.3281-2.9883-2.9609l-0.48047-32.609c-0.019531-1.6484 1.3008-3.0195 2.9609-3.0391h0.039062c1.6289 0 2.9805 1.3203 3 2.9609l0.46875 32.602c0.019531 0.80859-0.28906 1.5586-0.83984 2.1406-0.55859 0.57031-1.3086 0.89844-2.1094 0.91016-0.023437-0.003906-0.03125-0.003906-0.050781-0.003906z"/>
  <path d="m237.32 125.95c-1.6289 0-2.9688-1.3203-3-2.9492l-0.46875-32.949c-0.011718-0.80078 0.28906-1.5586 0.83984-2.1289 0.55859-0.57812 1.3086-0.89844 2.1094-0.91016h0.050781c1.6289 0 2.9688 1.3203 3 2.9609l0.46875 32.941c0.011719 0.80078-0.28906 1.5586-0.85156 2.1289-0.55078 0.57812-1.3008 0.89844-2.1016 0.91016-0.015626-0.003906-0.027344-0.003906-0.046876-0.003906z"/>
  <path d="m223.18 371.56c-1.6602 0-3-1.3516-3-3v-169.36c0-1.6484 1.3398-3 3-3 1.6484 0 3 1.3516 3 3v169.36c0 1.6523-1.3516 3-3 3z"/>
  <path d="m350.29 424.99h-279.31c-1.6484 0-3-1.3398-3-3 0-1.6484 1.3516-3 3-3h279.31c1.6484 0 3 1.3516 3 3 0 1.6602-1.3516 3-3 3z"/>
  <path d="m436.9 403.31h-193.41c-1.6484 0-3-1.3398-3-3 0-1.6484 1.3516-3 3-3h193.41c1.6484 0 3 1.3516 3 3 0 1.6602-1.3477 3-3 3z"/>
  <path d="m486 403.31h-27.02c-1.6484 0-3-1.3398-3-3 0-1.6484 1.3516-3 3-3h27.02c1.6484 0 3 1.3516 3 3 0 1.6602-1.3516 3-3 3z"/>
  <path d="m159.98 403.96h-133.98c-1.6484 0-3-1.3398-3-3 0-1.6484 1.3516-3 3-3h133.98c1.6602 0 3.0117 1.3516 3.0117 3-0.003907 1.6602-1.3516 3-3.0117 3z"/>
  <path d="m91.219 202.23c-1.0781 0-2.0781-0.58984-2.6094-1.5312l-16.691-29.629c-0.39844-0.69922-0.5-1.5117-0.28125-2.2812 0.21094-0.78125 0.71875-1.4219 1.4219-1.8086 0.44922-0.25 0.94922-0.39062 1.4688-0.39062 1.0781 0 2.0781 0.58984 2.6094 1.5312l15.828 28.109 61.191-0.03125c1.6602 0 3 1.3516 3 3 0 1.6602-1.3398 3-3 3z"/>
  <path d="m74.559 357.25c-0.30078 0-0.58984-0.039062-0.87109-0.12891-0.76953-0.23047-1.3984-0.75-1.7812-1.4492-0.37891-0.71094-0.46094-1.5195-0.23047-2.2891l16.672-55.262c0.37891-1.2617 1.5195-2.1094 2.8281-2.1289l53.77-0.71094c1.6289 0 2.9688 1.3281 2.9883 2.9609 0.019531 1.6484-1.3008 3.0195-2.9609 3.0391l-51.52 0.67969-16.031 53.16c-0.37109 1.25-1.5508 2.1289-2.8633 2.1289z"/>
  <path d="m144.5 255.45h-45.879c-1.6602 0-3-1.3516-3-3 0-1.6484 1.3398-3 3-3h45.879c1.6484 0 2.9883 1.3516 2.9883 3 0 1.6523-1.3398 3-2.9883 3z"/>
  <path d="m179.5 310.5c-6.6211-0.011719-12.02-5.3906-12.02-12.012 0-6.6328 5.3984-12.02 12.02-12.02 6.6289 0 12.02 5.3906 12.02 12.02 0 6.6211-5.3984 12-12.02 12.012zm0-18.031c-3.3086 0.011719-6.0117 2.7109-6.0195 6.0195 0.011719 3.3086 2.7109 6 6.0195 6.0117 3.3086-0.011719 6.0195-2.6992 6.0195-6.0117 0-3.3086-2.7109-6.0078-6.0195-6.0195z"/>
  <path d="m260.96 239.72c-6.6211 0-12-5.3906-12-12.012 0.019531-6.6211 5.3984-12.012 12-12.012 3.2188 0 6.2305 1.25 8.5 3.5195 2.2617 2.2695 3.5117 5.2812 3.5195 8.4883-0.011719 3.2109-1.2617 6.2188-3.5195 8.4883-2.2734 2.2773-5.2891 3.5273-8.5 3.5273zm0-18.027c-3.3125 0.011719-6 2.7109-6 6.0195 0.011718 3.3086 2.6992 6.0117 6 6.0117 3.3203 0 6.0195-2.6914 6.0195-6.0117 0-3.3125-2.6992-6.0117-6.0195-6.0195z"/>
  <path d="m266.28 306.49c-6.6094 0-11.988-5.3906-11.988-12.012 0.011719-6.6289 5.3906-12.02 11.988-12.02 3.2188 0.011719 6.2383 1.2617 8.5 3.5312 2.2695 2.2617 3.5195 5.2773 3.5195 8.4883 0 3.2109-1.25 6.2227-3.5195 8.4883-2.2617 2.2656-5.2812 3.5156-8.5 3.5234zm0-18.027c-3.3008 0.011718-5.9883 2.7109-5.9883 6.0195 0 3.3125 2.6875 6 5.9883 6.0117 3.3203 0 6.0195-2.6992 6.0195-6.0117 0-3.3203-2.6992-6.0195-6.0195-6.0195z"/>
  <path d="m184.85 252.24c-6.6211 0-12.02-5.3906-12.02-12.012 0-6.6211 5.3984-12.012 12.02-12.02 6.6016 0 11.98 5.3984 11.988 12.02 0 6.625-5.3789 12.012-11.988 12.012zm0-18.027c-3.3203 0.011718-6.0195 2.7109-6.0195 6.0195 0 3.3086 2.6992 6 6.0195 6.0117 3.3008-0.011719 5.9883-2.6992 5.9883-6.0117 0-3.3086-2.6914-6.0117-5.9883-6.0195z"/>
 </g>
</svg>
