<?xml version="1.0" encoding="UTF-8"?>
<svg width="512pt" height="512pt" version="1.1" viewBox="0 0 512 512" xmlns="http://www.w3.org/2000/svg">
 <path d="m508.2 39.473c-2.3516-1.332-5.2383-1.2969-7.5547 0.09375l-98.219 58.93h-228.58c-4.1406 0-7.5 3.3594-7.5 7.5s3.3594 7.5 7.5 7.5h25.156v65h-84v-65h28.844c4.1406 0 7.5-3.3594 7.5-7.5s-3.3594-7.5-7.5-7.5h-34.266l-98.219-58.93c-2.3164-1.3906-5.2031-1.4258-7.5547-0.09375-2.3516 1.332-3.8047 3.8242-3.8047 6.5273v318.79c0 4.1406 3.3594 7.5 7.5 7.5s7.5-3.3594 7.5-7.5v-34.539l45-27v88.039l-45 54v-50.496c0-4.1406-3.3594-7.5-7.5-7.5s-7.5 3.3594-7.5 7.5v71.215c0 4.1406 3.3594 7.5 7.5 7.5h497c4.1406 0 7.5-3.3594 7.5-7.5v-420c0-2.7031-1.4531-5.1953-3.8047-6.5273zm-24.496 389.85c-2.6523-3.1836-7.3828-3.6133-10.562-0.96094-3.1836 2.6523-3.6133 7.3828-0.96094 10.562l16.309 19.574h-143.95l-15.832-57h112.29l10.297 12.355c1.4844 1.7812 3.6172 2.6992 5.7656 2.6992 1.6914 0 3.3945-0.57031 4.7969-1.7383 3.1836-2.6523 3.6133-7.3828 0.96094-10.562l-10.809-12.973v-88.039l45 27v115.04zm-460.19 29.176 47.5-57h112.29l-15.832 57zm76.488-280h-25v-83.254l25 15zm0 15v68.254l-25 15v-83.254zm337 83.254-25-15v-68.254h25zm15-83.254h45v119.25l-45-27zm-152.2 160 9.168 33h-105.93l9.168-33zm97.199-15h-84v-65h84zm-81.633 15h85.621l27.5 33h-103.95zm96.633-10.215v-64.039l25 15v79.039zm0-164.79v-68.254l25-15v83.254zm-15 0h-84v-65h84zm0 15v65h-84v-65zm-99 65h-84v-65h84zm0 15v65h-84v-65zm-99 65h-84v-65h84zm-87.988 15h85.621l-9.168 33h-103.95zm87.855 48h114.27l15.832 57h-145.93zm298.13-223h-45v-92.254l45-27zm-283-65h84v65h-84zm-15 80v65h-84v-65zm-139-107.25v92.254h-45v-119.25zm-45 226.51v-119.25h45v92.254zm60-18.508 25-15v64.039l-25 30z"/>
</svg>
