<?xml version="1.0" encoding="UTF-8"?>
<svg width="512pt" height="512pt" version="1.1" viewBox="0 0 512 512" xmlns="http://www.w3.org/2000/svg">
 <g>
  <path d="m393.43 431.54h-317.46c-1.4023 0-2.6953-0.74609-3.3945-1.9609-0.69922-1.2148-0.69922-2.707-0.003906-3.9219l12.824-22.246c1.082-1.875 3.4805-2.5195 5.3555-1.4375s2.5195 3.4805 1.4375 5.3555l-9.4336 16.363h310.67c2.1641 0 3.9219 1.7578 3.9219 3.9219 0 2.168-1.7539 3.9258-3.9219 3.9258zm31.23-10.281c-1.3555 0-2.6758-0.70312-3.4023-1.9648l-167.96-291.39-136.62 236.96c-1.082 1.875-3.4766 2.5195-5.3555 1.4375-1.875-1.082-2.5195-3.4805-1.4375-5.3555l140.01-242.86c0.69922-1.2148 1.9961-1.9648 3.3984-1.9648s2.6953 0.75 3.3984 1.9648l171.36 297.28c1.082 1.8789 0.4375 4.2734-1.4375 5.3555-0.62109 0.35938-1.293 0.53125-1.957 0.53125z"/>
  <path d="m383.51 310.24c-1.3477 0-2.6562-0.69531-3.3867-1.9414l-126.66-216.27-34.574 56.734c-1.1289 1.8516-3.5391 2.4375-5.3906 1.3086-1.8516-1.1289-2.4375-3.5391-1.3086-5.3906l37.988-62.34c0.71875-1.1797 2.0195-1.8984 3.3828-1.8828 1.3789 0.011718 2.6523 0.75 3.3477 1.9375l129.97 221.93c1.0977 1.8672 0.46875 4.2695-1.4023 5.3633-0.61719 0.37109-1.2969 0.54688-1.9727 0.54688z"/>
  <path d="m253.3 334.82c-16.125 0-29.242-13.09-29.242-29.184 0-16.125 13.117-29.246 29.242-29.246 16.109 0 29.211 13.121 29.211 29.246 0 16.094-13.105 29.184-29.211 29.184zm0-50.582c-11.801 0-21.402 9.6016-21.402 21.402 0 11.766 9.6016 21.34 21.402 21.34 11.781 0 21.371-9.5703 21.371-21.34-0.003907-11.801-9.5898-21.402-21.371-21.402z"/>
  <path d="m253.3 321.65c-8.8477 0-16.043-7.1836-16.043-16.016 0-8.8281 7.1953-16.008 16.043-16.008 8.8281 0 16.012 7.1836 16.012 16.008 0 8.8359-7.1836 16.016-16.012 16.016zm0-24.176c-4.5195 0-8.1992 3.6641-8.1992 8.1641 0 4.4297 3.7539 8.1719 8.1992 8.1719 4.5039 0 8.168-3.6641 8.168-8.1719 0-4.5039-3.6641-8.1641-8.168-8.1641z"/>
  <path d="m253.3 343.2c-27.152 0-52.793-12.059-74.148-34.875-1.4102-1.5078-1.4102-3.8516 0-5.3594 21.355-22.816 46.996-34.875 74.148-34.875 27.156 0 52.797 12.062 74.152 34.875 1.4102 1.5078 1.4102 3.8516 0 5.3594-21.355 22.816-46.996 34.875-74.152 34.875zm-65.84-37.555c19.289 19.453 41.984 29.715 65.84 29.715 23.859 0 46.555-10.258 65.844-29.715-19.289-19.453-41.988-29.711-65.844-29.711s-46.551 10.258-65.84 29.711z"/>
  <path d="m344.88 397.36h-300.27c-2.1641 0-3.9219-1.7578-3.9219-3.9219s1.7578-3.9219 3.9219-3.9219h300.27c2.1641 0 3.9219 1.7578 3.9219 3.9219 0 2.168-1.7578 3.9219-3.9219 3.9219z"/>
  <path d="m467.39 376.83h-300.3c-2.1641 0-3.9219-1.7578-3.9219-3.9219s1.7578-3.9219 3.9219-3.9219h300.3c2.1641 0 3.9219 1.7578 3.9219 3.9219-0.003906 2.168-1.7578 3.9219-3.9219 3.9219z"/>
 </g>
</svg>
