<?xml version="1.0" encoding="UTF-8"?>
<svg width="512pt" height="512pt" version="1.1" viewBox="0 0 512 512" xmlns="http://www.w3.org/2000/svg">
 <g>
  <path d="m268.9 370.12h-88.801c-1.3516 0-2.5391-0.91016-2.8906-2.2227l-15.031-55.672c-0.21094-0.80078-0.089843-1.6484 0.33984-2.3516 0.42969-0.69922 1.1406-1.1992 1.9414-1.3711 5.0898-1.0703 8.7812-5.6211 8.7812-10.828-0.019531-6.0898-4.9805-11.059-11.07-11.07-1.1797 0-2.3516 0.19141-3.4883 0.5625-0.76953 0.26172-1.6406 0.17188-2.3516-0.21094-0.73047-0.39062-1.2617-1.0703-1.4688-1.8594l-13.109-48.59c-0.12891-0.51172-0.12891-1.0586 0-1.5586l0.80859-3.0117c0.42188-1.5586 2.1094-2.5391 3.6797-2.1094 1.3203 0.35938 2.2383 1.5586 2.2188 2.9297 0 0.25-0.039062 0.5-0.10938 0.75l-0.58984 2.2188 12.141 45.031c0.75-0.10156 1.5-0.14844 2.2383-0.14844h0.03125c4.0312 0 7.9492 1.4414 11.031 4.0508 3.0312 2.5781 5.0781 6.1289 5.7695 10.02h91.09c1.4414-8.1484 8.4883-14.07 16.781-14.07h0.019531c0.75 0 1.5 0.050781 2.2383 0.14844l12.148-45.031-12.93-47.879c-0.48828 0.050782-0.98047 0.070313-1.4805 0.070313-9.3984 0-17.051-7.6484-17.051-17.051 0-3.3086 0.94922-6.5195 2.7383-9.2812 1.7383-2.6719 4.1719-4.8086 7.0508-6.1719l-12.98-48.078h-84.199l-12.961 48.078c2.8789 1.3594 5.3203 3.5 7.0508 6.1719 1.7891 2.7617 2.7383 5.9688 2.7383 9.2812 0 9.3984-7.6602 17.039-17.059 17.051-0.5 0-1-0.019531-1.4883-0.070313l-1.8984 7.0391c-0.42188 1.5586-2.1016 2.5391-3.6797 2.1094-0.76953-0.19922-1.4219-0.69922-1.8203-1.3984-0.39062-0.69141-0.5-1.5-0.28906-2.2812l2.6016-9.6602c0.21094-0.78125 0.71094-1.4219 1.3984-1.8281 0.69141-0.39062 1.5117-0.5 2.2812-0.28906 0.96094 0.25 1.9102 0.37891 2.8984 0.37891 6.0898-0.011719 11.051-4.9688 11.07-11.051 0-4.9883-3.3711-9.3906-8.1992-10.691-1.5898-0.44141-2.5391-2.0898-2.1094-3.6797l14.281-52.941c0.35156-1.3086 1.5391-2.2188 2.8906-2.2188h88.801c1.3516 0 2.5391 0.91016 2.8984 2.2188l14.281 52.941c0.21094 0.76953 0.10938 1.5781-0.28906 2.2695-0.39844 0.69922-1.0508 1.1992-1.8203 1.4102-4.8203 1.3008-8.1797 5.6992-8.1797 10.691 0.011719 6.0781 4.9688 11.039 11.051 11.051 0.98828 0 1.9414-0.12891 2.8906-0.37891 1.5703-0.42969 3.25 0.55078 3.6719 2.1094l13.852 51.301c0.14063 0.5 0.14063 1.0508 0 1.5586l-13.102 48.59c-0.21875 0.78906-0.75 1.4688-1.4805 1.8594-0.71094 0.39062-1.5781 0.46094-2.3594 0.21094-1.1289-0.37109-2.2891-0.5625-3.4688-0.5625-6.0781 0.011719-11.039 4.9805-11.051 11.07 0 5.2109 3.6797 9.7617 8.75 10.828 0.80859 0.17188 1.5195 0.67188 1.9375 1.3711 0.42969 0.69922 0.5625 1.5508 0.33984 2.3516l-15.02 55.672c-0.36719 1.3125-1.5547 2.2227-2.9062 2.2227zm-86.5-6h84.199l13.68-50.68c-2.6094-1.0898-4.9219-2.8281-6.6992-5.0391-1.8125-2.2305-3.0195-4.8984-3.5195-7.7188h-91.09c-0.5 2.8203-1.7188 5.4883-3.5312 7.7305-1.7812 2.2109-4.1016 3.9492-6.7188 5.0273zm-31.727-147.7c-0.26172 0-0.51953-0.039063-0.78125-0.10938-0.76953-0.21094-1.4219-0.69922-1.8203-1.3984-0.39844-0.69141-0.5-1.5-0.28906-2.2812 0.42188-1.5586 2.1016-2.5312 3.6719-2.1094 0.78125 0.21094 1.4219 0.71094 1.8203 1.3984 0.39844 0.69922 0.51172 1.5 0.30078 2.2812-0.35547 1.2969-1.543 2.2188-2.9023 2.2188z"/>
  <path d="m268.9 107.34c-0.62891 0-1.2305-0.19141-1.7383-0.55859-1.3516-0.96094-1.6602-2.8398-0.69922-4.1797l28.91-40.629c0.92969-1.3008 2.8789-1.6406 4.1875-0.71094 1.3398 0.96094 1.6602 2.8398 0.69922 4.1914l-28.91 40.629c-0.56641 0.78906-1.4766 1.2578-2.4492 1.2578z"/>
  <path d="m180.11 107.34c-0.96875 0-1.8906-0.46875-2.4492-1.2617l-28.922-40.629c-0.46094-0.66016-0.64844-1.4492-0.51172-2.2383 0.12891-0.78906 0.55859-1.4805 1.2188-1.9492 1.3008-0.92969 3.2617-0.58984 4.1797 0.71094l28.922 40.629c0.46094 0.64844 0.64062 1.4492 0.51172 2.2383-0.12891 0.78906-0.55859 1.4805-1.2188 1.9414-0.51172 0.36719-1.1094 0.55859-1.7305 0.55859z"/>
  <path d="m305.98 69.32c-9.4102 0-17.07-7.6602-17.078-17.07 0.011718-9.4102 7.6719-17.07 17.078-17.078 9.4102 0.011719 17.062 7.6719 17.07 17.078-0.011719 9.4102-7.6602 17.07-17.07 17.07zm0-28.148c-6.1016 0.011719-11.07 4.9805-11.078 11.078 0.011718 6.0898 4.9805 11.059 11.078 11.07 6.0898-0.011718 11.062-4.9805 11.07-11.07-0.011719-6.1016-4.9805-11.07-11.07-11.078z"/>
  <path d="m143.03 69.32c-9.4102 0-17.059-7.6602-17.059-17.07s7.6484-17.07 17.059-17.078c9.4102 0.011719 17.07 7.6719 17.07 17.078 0 9.4102-7.6602 17.07-17.07 17.07zm0-28.148c-6.0898 0.019531-11.051 4.9805-11.059 11.078 0.011719 6.0898 4.9688 11.059 11.059 11.07 6.0898-0.011718 11.059-4.9805 11.07-11.07-0.011718-6.1016-4.9805-11.059-11.07-11.078z"/>
  <path d="m297.82 410.75c-0.96875 0-1.8906-0.46875-2.4492-1.2617l-28.91-40.633c-0.96094-1.3516-0.64063-3.2305 0.69922-4.1875 1.3086-0.92969 3.2617-0.58984 4.1875 0.71094l28.91 40.629c0.96094 1.3398 0.64063 3.2188-0.69922 4.1797-0.51953 0.37109-1.1211 0.5625-1.7383 0.5625z"/>
  <path d="m151.18 410.75c-0.62109 0-1.2188-0.19141-1.7305-0.5625-1.3516-0.96094-1.6719-2.8398-0.71094-4.1797l28.922-40.629c0.92188-1.3008 2.8789-1.6289 4.1797-0.71094 1.3516 0.96094 1.6719 2.8398 0.71094 4.1875l-28.922 40.633c-0.55859 0.79297-1.4805 1.2617-2.4492 1.2617z"/>
  <path d="m305.98 436.28c-9.4219 0-17.078-7.6602-17.078-17.07 0.011718-9.3984 7.6719-17.051 17.078-17.051 9.4102 0 17.07 7.6484 17.07 17.051 0 9.4102-7.6602 17.07-17.07 17.07zm0-28.121c-6.1016 0.011719-11.07 4.9688-11.078 11.051 0.011718 6.0898 4.9805 11.059 11.078 11.07 6.0898-0.011719 11.062-4.9805 11.07-11.07-0.011719-6.082-4.9805-11.039-11.07-11.051z"/>
  <path d="m143.03 436.28c-4.5586-0.011719-8.8398-1.7812-12.059-5-3.2188-3.2227-4.9883-7.5117-5-12.07 0-9.3984 7.6484-17.051 17.059-17.051s17.07 7.6484 17.07 17.051c-0.011718 4.5586-1.7891 8.8516-5.0117 12.07-3.2188 3.2188-7.5 4.9883-12.059 5zm0-28.121c-6.0898 0.011719-11.051 4.9688-11.059 11.051 0 6.1016 4.9609 11.07 11.059 11.07 6.1016 0 11.07-4.9727 11.07-11.07-0.011718-6.082-4.9805-11.039-11.07-11.051z"/>
  <path d="m373.93 173.87h-73.012c-1.6602 0-3-1.3398-3-3 0-1.6484 1.3398-3 3-3h73.012c1.6602 0 3 1.3516 3 3 0 1.6602-1.3398 3-3 3z"/>
  <path d="m272.79 173.87h-96.551c-1.6602 0-3.0117-1.3516-3.0117-3 0-1.6484 1.3516-3 3.0117-3h96.551c1.6602 0 3 1.3516 3 3 0 1.6484-1.3398 3-3 3z"/>
  <path d="m148.09 173.87h-73.02c-1.6484 0-3-1.3398-3-3 0-1.6484 1.3516-3 3-3h73.02c1.6484 0 3 1.3516 3 3 0 1.6602-1.3516 3-3 3z"/>
  <path d="m388.01 187.92c-9.4102 0-17.07-7.6484-17.078-17.051 0.011718-9.4102 7.6719-17.07 17.078-17.07 4.5586 0.011719 8.8398 1.7812 12.059 5 3.2227 3.2188 5 7.5117 5 12.07 0 9.3984-7.6602 17.051-17.059 17.051zm0-28.121c-6.1016 0.011719-11.07 4.9805-11.078 11.07 0.011718 6.0781 4.9805 11.039 11.078 11.051 6.0898-0.011719 11.051-4.9688 11.059-11.051-0.011718-6.1094-4.9688-11.07-11.059-11.07z"/>
  <path d="m61 187.92c-9.4219 0-17.07-7.6484-17.078-17.051 0-9.4102 7.6602-17.07 17.078-17.07 9.4102 0 17.07 7.6602 17.07 17.07 0 9.3984-7.6602 17.051-17.07 17.051zm0-28.121c-6.1016 0.011719-11.07 4.9805-11.078 11.07 0.011719 6.0781 4.9805 11.039 11.078 11.051 6.0898-0.011719 11.059-4.9688 11.07-11.051-0.011718-6.0898-4.9805-11.062-11.07-11.07z"/>
  <path d="m286.84 187.92c-9.3984 0-17.051-7.6484-17.051-17.051 0.011719-4.5586 1.7891-8.8516 5-12.07 3.2188-3.2188 7.5-4.9883 12.051-5 4.5586 0.011719 8.8516 1.7812 12.07 5s5 7.5 5.0117 12.07c0 9.3984-7.6602 17.051-17.082 17.051zm0-28.121c-6.0898 0-11.051 4.9688-11.051 11.07 0.019532 6.0781 4.9688 11.039 11.051 11.051 6.1016-0.011719 11.07-4.9688 11.078-11.051 0.003906-6.1016-4.9688-11.07-11.078-11.07z"/>
  <path d="m162.17 187.92c-9.4219 0-17.078-7.6484-17.078-17.051 0-9.4102 7.6602-17.07 17.078-17.07 9.4102 0 17.059 7.6602 17.059 17.07 0 9.3984-7.6602 17.051-17.059 17.051zm0-28.121c-6.1016 0.011719-11.07 4.9805-11.078 11.07 0.011719 6.0781 4.9805 11.039 11.078 11.051 6.0898-0.011719 11.059-4.9688 11.07-11.051-0.011719-6.0898-4.9805-11.062-11.07-11.07z"/>
  <path d="m373.93 300.68h-73.012c-1.6602 0-3-1.3398-3-3 0-1.6484 1.3398-3 3-3h73.012c1.6602 0 3 1.3516 3 3 0 1.6602-1.3398 3-3 3z"/>
  <path d="m272.8 300.68h-96.559c-1.6602 0-3-1.3398-3-3 0-1.6484 1.3398-3 3-3h96.559c1.6484 0 2.9883 1.3516 2.9883 3 0 1.6602-1.3398 3-2.9883 3z"/>
  <path d="m148.09 300.68h-73.02c-1.6484 0-3-1.3398-3-3 0-1.6484 1.3516-3 3-3h73.02c1.6484 0 3 1.3516 3 3 0 1.6602-1.3516 3-3 3z"/>
  <path d="m388.01 314.73c-9.4102 0-17.07-7.6484-17.078-17.051 0.011718-9.4102 7.6719-17.07 17.078-17.07 9.3984 0 17.051 7.6602 17.059 17.07 0 9.3984-7.6602 17.051-17.059 17.051zm0-28.121c-6.1016 0.011719-11.07 4.9805-11.078 11.07 0.011718 6.0781 4.9805 11.039 11.078 11.051 6.0898-0.011719 11.051-4.9688 11.059-11.051-0.011718-6.0898-4.9688-11.059-11.059-11.07z"/>
  <path d="m61 314.73c-9.4102 0-17.07-7.6484-17.078-17.051 0.011719-9.4102 7.6719-17.07 17.078-17.07 9.4102 0 17.07 7.6602 17.07 17.07 0 9.3984-7.6602 17.051-17.07 17.051zm0-28.121c-6.1016 0.011719-11.07 4.9805-11.078 11.07 0.011719 6.0781 4.9805 11.039 11.078 11.051 6.0898-0.011719 11.059-4.9688 11.07-11.051-0.011718-6.0898-4.9805-11.059-11.07-11.07z"/>
  <path d="m286.84 314.73c-9.3984 0-17.039-7.6484-17.039-17.051 0-9.4102 7.6406-17.07 17.039-17.07 9.4219 0 17.078 7.6602 17.078 17.07 0.003906 9.3984-7.6562 17.051-17.078 17.051zm0-28.121c-6.0781 0.011719-11.031 4.9805-11.051 11.07 0.019532 6.0781 4.9688 11.039 11.051 11.051 6.1016-0.011719 11.059-4.9688 11.078-11.051-0.019531-6.0898-4.9805-11.059-11.078-11.07z"/>
  <path d="m162.16 314.73c-9.4102 0-17.07-7.6484-17.07-17.051 0-9.4102 7.6602-17.07 17.07-17.07s17.07 7.6602 17.07 17.07c0 9.3984-7.6602 17.051-17.07 17.051zm0-28.121c-6.0898 0.011719-11.059 4.9805-11.07 11.07 0.011718 6.0781 4.9805 11.039 11.07 11.051 6.1016-0.011719 11.059-4.9688 11.078-11.051-0.019531-6.0898-4.9766-11.059-11.078-11.07z"/>
  <path d="m224.51 448.48c-1.6484 0-2.9883-1.3516-2.9883-3l-0.003907-29.48c0-1.6484 1.3398-3 2.9883-3 1.6602 0 3 1.3516 3 3v29.48c0.003907 1.6484-1.3359 3-2.9961 3zm0-49.48c-1.6484 0-2.9883-1.3398-2.9883-3 0-1.6484 1.3398-3 2.9883-3 1.6602 0 3 1.3516 3 3 0 1.6602-1.3398 3-3 3zm0-20c-1.6484 0-2.9883-1.3398-2.9883-3l-0.003907-350c0-1.6484 1.3398-3 2.9883-3 1.6602 0 3 1.3516 3 3v350c0.003907 1.6602-1.3359 3-2.9961 3z"/>
  <path d="m396.71 238.73h-344.41c-1.6602 0-3-1.3516-3-3 0-1.6602 1.3398-3 3-3h344.41c1.6484 0 3 1.3398 3 3 0 1.6484-1.3516 3-3 3z"/>
  <path d="m349.62 470.14h-309.72c-1.6602 0-3-1.3398-3-3 0-1.6484 1.3398-2.9883 3-2.9883h309.72c1.6484 0 3 1.3398 3 2.9883 0.003906 1.6602-1.3477 3-2.9961 3z"/>
  <path d="m435.58 489h-214.32c-1.6484 0-3-1.3516-3-3 0-1.6602 1.3516-3 3-3h214.32c1.6484 0 3 1.3398 3 3-0.003906 1.6484-1.3516 3-3.0039 3z"/>
  <path d="m484.31 489h-26.777c-1.6602 0-3-1.3516-3-3 0-1.6602 1.3398-3 3-3h26.777c1.6602 0 3 1.3398 3 3 0 1.6484-1.3398 3-3 3z"/>
  <path d="m129.25 488.43h-101.56c-1.6602 0-3-1.3516-3-3 0-1.6602 1.3398-3 3-3h101.56c1.6602 0 3 1.3398 3 3 0 1.6484-1.3398 3-3 3z"/>
 </g>
</svg>
