<?xml version="1.0" encoding="UTF-8"?>
<svg width="512pt" height="512pt" version="1.1" viewBox="0 0 512 512" xmlns="http://www.w3.org/2000/svg">
 <path d="m497 0h-482c-8.2852 0-15 6.7148-15 15v482c0 8.2852 6.7148 15 15 15h482c8.2852 0 15-6.7148 15-15v-482c0-8.2852-6.7148-15-15-15zm-226 30h189.79l-66.398 66.398h-123.39zm-144.6 211v-93.387l50.332 50.332v43.055zm50.332 30v43.055l-50.332 50.332v-93.387zm-29.117-144.6h93.387v50.332h-43.055zm59.117 80.332h98.531v98.531h-98.531zm64.266 128.54h43.055l50.332 50.332h-93.387zm64.266-21.215v-43.055h50.332v93.387zm0-73.055v-43.055l50.332-50.332v93.387zm-64.266-114.6h93.387l-50.332 50.332h-43.055zm-30-96.398v66.398h-123.39l-66.402-66.398zm-211 21.215 66.398 66.398v123.39h-66.398zm0 219.79h66.398v123.39l-66.398 66.398zm211 211h-189.79l66.398-66.398h123.39zm0-96.398h-93.387l50.332-50.332h43.055zm30 96.398v-66.398h123.39l66.398 66.398zm211-21.215-66.398-66.398v-123.39h66.398zm0-219.79h-66.398v-123.39l66.398-66.398z"/>
</svg>
