<?xml version="1.0" encoding="UTF-8"?>
<svg width="512pt" height="512pt" version="1.1" viewBox="0 0 512 512" xmlns="http://www.w3.org/2000/svg">
 <g>
  <path d="m325.83 421.89c-1.6484 0-3-1.3516-3-3 0-1.6602 1.3516-3 3-3h89.141v-254.87c0-1.6484 1.3398-3 3-3 1.6484 0 3 1.3516 3 3v257.87c0 0.80078-0.32031 1.5508-0.87891 2.1211-0.57031 0.57031-1.3203 0.87891-2.1211 0.87891zm-20 0c-1.6484 0-3-1.3516-3-3 0-1.6602 1.3516-3 3-3 1.6602 0 3 1.3398 3 3 0 1.6484-1.3398 3-3 3zm-20 0h-191.8c-0.78906 0-1.5586-0.32031-2.1211-0.87891-0.55859-0.55859-0.87891-1.3281-0.87891-2.1211v-158.2c0-1.6484 1.3516-3 3-3 1.6602 0 3 1.3516 3 3v155.2h188.8c1.6602 0 3 1.3398 3 3-0.003906 1.6484-1.3438 3-3.0039 3zm-191.8-178.2c-1.6484 0-3-1.3516-3-3 0-1.6484 1.3516-3 3-3 1.6602 0 3 1.3516 3 3 0 1.6484-1.3398 3-3 3zm0-20c-1.6484 0-3-1.3516-3-3v-125.73c0-0.78906 0.32031-1.5703 0.87891-2.1289 0.55859-0.55078 1.3281-0.87109 2.1211-0.87109h323.94c0.78906 0 1.5625 0.32031 2.1211 0.87109 0.55859 0.55859 0.87891 1.3398 0.87891 2.1289v26.059c0 1.6602-1.3516 3-3 3-1.6602 0-3-1.3398-3-3l-0.003906-23.059h-317.94v122.73c0 1.6484-1.3398 3-3 3zm323.94-79.672c-1.6602 0-3-1.3398-3-3 0-1.6484 1.3398-3 3-3 1.6484 0 3 1.3516 3 3 0 1.6602-1.3477 3-3 3z"/>
  <path d="m94.031 327.02c-0.80078 0-1.5508-0.32031-2.1211-0.87891l-67.109-67.082c-0.55078-0.55859-0.87109-1.3281-0.87109-2.1211 0-0.78906 0.32031-1.5703 0.87109-2.1211l67.109-67.109c0.85156-0.85156 2.1602-1.1094 3.2695-0.64844 1.1289 0.46875 1.8516 1.5508 1.8516 2.7695v134.19c0 1.2109-0.71875 2.3008-1.8516 2.7695-0.35938 0.14844-0.75 0.23047-1.1484 0.23047zm-62.859-70.078 59.859 59.828v-119.7z"/>
  <path d="m255.99 489c-0.80078 0-1.5586-0.32031-2.1289-0.87891l-67.07-67.109c-0.85937-0.85938-1.1211-2.1484-0.64844-3.2695 0.46875-1.1211 1.5508-1.8516 2.7695-1.8516h134.18c1.2188 0 2.3086 0.73047 2.7695 1.8516 0.47266 1.1172 0.22266 2.4102-0.64844 3.2695l-67.102 67.109c-0.57031 0.55859-1.3203 0.87891-2.1211 0.87891zm-59.84-67.109 59.84 59.859 59.859-59.859z"/>
  <path d="m417.97 327.01c-0.39844 0-0.78906-0.070313-1.1484-0.21875-1.1289-0.47266-1.8516-1.5625-1.8516-2.7695v-134.2c0-1.2188 0.71875-2.3086 1.8516-2.7695 1.1094-0.46094 2.4219-0.19922 3.2695 0.64844l67.102 67.109c0.57031 0.55859 0.87891 1.3203 0.87891 2.1211s-0.30859 1.5508-0.87891 2.1211l-67.102 67.078c-0.57031 0.5625-1.3203 0.875-2.1211 0.875zm3-129.94-0.011719 119.7 59.871-59.828z"/>
  <path d="m323.09 97.961h-134.18c-1.2188 0-2.3086-0.73047-2.7695-1.8594-0.46875-1.1211-0.21094-2.4102 0.64844-3.2695l67.07-67.102c1.1211-1.1211 3.1211-1.1211 4.25 0l67.102 67.102c0.85937 0.85938 1.1211 2.1484 0.64844 3.2695-0.46094 1.1289-1.5508 1.8594-2.7695 1.8594zm-126.94-6h119.7l-59.859-59.871z"/>
  <path d="m298.55 421.89h-85.121c-0.80078 0-1.5586-0.30859-2.1289-0.87891l-82.281-82.281c-0.55078-0.55859-0.87109-1.3281-0.87109-2.1211v-61.262c0-1.6484 1.3398-3 3-3 1.6484 0 3 1.3516 3 3v60.012l80.52 80.531h82.629l60.84-60.82c1.1289-1.1289 3.1094-1.1289 4.2383 0.011719 0.57031 0.55859 0.87891 1.3203 0.87891 2.1211s-0.30859 1.5508-0.87891 2.1172l-61.711 61.691c-0.5625 0.56641-1.3125 0.87891-2.1133 0.87891zm75.848-75.832c-0.80078 0-1.5508-0.30859-2.1172-0.87891-1.1719-1.1719-1.1719-3.0703 0-4.2383 1.1406-1.1406 3.1094-1.1406 4.25 0 1.1719 1.1719 1.1602 3.0703-0.011719 4.2383-0.55859 0.57031-1.3086 0.87891-2.1211 0.87891zm6.4609-17.328c-1.6602 0-3-1.3398-3-3v-147.25l-80.559-80.531h-82.629l-80.52 80.531v56.871c0 1.6602-1.3516 3-3 3-1.6602 0-3-1.3398-3-3v-58.121c0-0.78906 0.32031-1.5586 0.87109-2.1211l82.281-82.281c0.55859-0.55078 1.3398-0.87109 2.1289-0.87109h85.121c0.78906 0 1.5586 0.32031 2.1211 0.87109l82.309 82.281c0.57031 0.57031 0.87891 1.3203 0.87891 2.1211v148.5c-0.003906 1.6602-1.3516 3-3.0039 3zm-249.71-70.379c-1.6602 0-3-1.3398-3-3 0-1.6484 1.3398-3 3-3 1.6484 0 3 1.3516 3 3 0 1.6602-1.3477 3-3 3z"/>
  <path d="m256.02 364.53h-0.03125c-0.80859 0-1.5586-0.3125-2.1211-0.87109l-60.637-60.66c-0.57031-0.57031-0.87891-1.3203-0.87891-2.1211 0-0.8125 0.30859-1.5625 0.87891-2.1211 1.1289-1.1406 3.1094-1.1406 4.2383 0l58.531 58.551 63.359-63.391v-73.988l-63.359-63.391-63.359 63.391v43.312c0 1.6602-1.3516 3-3 3s-3-1.3398-3-3v-44.562c0-0.78906 0.32031-1.5586 0.87891-2.1211l66.352-66.371c0.55078-0.55859 1.3281-0.87891 2.1211-0.87891h0.03125c0.78906 0 1.5586 0.32031 2.1211 0.87891l66.34 66.371c0.57031 0.57031 0.87891 1.3203 0.87891 2.1211v76.48c0 0.80078-0.30859 1.5586-0.87891 2.1211l-66.34 66.379c-0.57422 0.55859-1.3242 0.87109-2.125 0.87109zm-66.379-78.293c-1.6484 0-3-1.3398-3-3 0-1.6484 1.3516-3 3-3s3 1.3516 3 3c0 1.6602-1.3516 3-3 3z"/>
  <path d="m256.02 364.53h-0.03125c-0.80859 0-1.5586-0.3125-2.1289-0.87109l-26.969-27.012c-0.55859-0.55859-0.87891-1.3281-0.87891-2.1172v-80.211c0-1.6484 1.3398-3 3-3 1.6484 0 3 1.3516 3 3v78.969l23.988 24.02 23.988-24.02v-152.73l-23.988-24.02-23.988 24.02v33.762c0 1.6602-1.3516 3-3 3-1.6602 0-3-1.3398-3-3v-35.012c0-0.78906 0.32031-1.5586 0.87891-2.1211l26.969-27c0.57031-0.57031 1.3281-0.87891 2.1289-0.87891h0.03125c0.80078 0 1.5508 0.30859 2.1211 0.87891l26.969 27c0.5625 0.55859 0.88281 1.3281 0.88281 2.1211v155.22c0 0.78906-0.32031 1.5586-0.88281 2.1172l-26.969 27.012c-0.57031 0.5625-1.3203 0.875-2.1211 0.875zm-27.008-127.21c-1.6602 0-3-1.3398-3-3 0-1.6484 1.3398-3 3-3 1.6484 0 3 1.3516 3 3 0 1.6602-1.3516 3-3 3z"/>
  <path d="m322.36 298.16h-112.21c-1.6602 0-3-1.3398-3-3 0-1.6484 1.3398-3 3-3h112.21c1.6484 0 3 1.3516 3 3 0 1.6602-1.3477 3-3 3z"/>
  <path d="m322.36 221.68h-132.72c-1.6484 0-3-1.3398-3-3 0-1.6484 1.3516-3 3-3h132.72c1.6484 0 3 1.3516 3 3 0 1.6602-1.3477 3-3 3z"/>
  <path d="m172.48 192.45h-21.941c-1.6602 0-3-1.3516-3-3 0-1.6484 1.3398-3 3-3h21.941c1.6484 0 3 1.3516 3 3 0 1.6523-1.3516 3-3 3z"/>
  <path d="m172.48 214.95h-21.941c-1.6602 0-3-1.3516-3-3.0117 0-1.6484 1.3398-2.9883 3-2.9883h21.941c1.6484 0 3 1.3398 3 2.9883 0 1.6641-1.3516 3.0117-3 3.0117z"/>
  <path d="m172.48 237.44h-21.941c-1.6602 0-3-1.3398-3-3 0-1.6484 1.3398-3 3-3h21.941c1.6484 0 3 1.3516 3 3 0 1.6602-1.3516 3-3 3z"/>
  <path d="m172.48 259.94h-21.941c-1.6602 0-3-1.3516-3-3 0-1.6602 1.3398-3 3-3h21.941c1.6484 0 3 1.3398 3 3 0 1.6523-1.3516 3-3 3z"/>
  <path d="m172.48 282.4h-21.941c-1.6602 0-3-1.3398-3-3 0-1.6484 1.3398-3 3-3h21.941c1.6484 0 3 1.3516 3 3 0 1.6602-1.3516 3-3 3z"/>
  <path d="m172.48 304.9h-21.941c-1.6602 0-3-1.3516-3-3 0-1.6602 1.3398-3 3-3h21.941c1.6484 0 3 1.3398 3 3 0 1.6523-1.3516 3-3 3z"/>
  <path d="m172.48 327.4h-21.941c-1.6602 0-3-1.3516-3-3 0-1.6602 1.3398-3 3-3h21.941c1.6484 0 3 1.3398 3 3 0 1.6523-1.3516 3-3 3z"/>
  <path d="m361.44 192.45h-21.922c-1.6484 0-3-1.3516-3-3 0-1.6484 1.3516-3 3-3h21.922c1.6484 0 3 1.3516 3 3 0 1.6523-1.3477 3-3 3z"/>
  <path d="m361.44 214.95h-21.922c-1.6484 0-3-1.3516-3-3.0117 0-1.6484 1.3516-2.9883 3-2.9883h21.922c1.6484 0 3 1.3398 3 2.9883 0 1.6641-1.3477 3.0117-3 3.0117z"/>
  <path d="m361.44 237.44h-21.922c-1.6484 0-3-1.3398-3-3 0-1.6484 1.3516-3 3-3h21.922c1.6484 0 3 1.3516 3 3 0 1.6602-1.3477 3-3 3z"/>
  <path d="m361.44 259.94h-21.922c-1.6484 0-3-1.3516-3-3 0-1.6602 1.3516-3 3-3h21.922c1.6484 0 3 1.3398 3 3 0 1.6523-1.3477 3-3 3z"/>
  <path d="m361.44 282.4h-21.922c-1.6484 0-3-1.3398-3-3 0-1.6484 1.3516-3 3-3h21.922c1.6484 0 3 1.3516 3 3 0 1.6602-1.3477 3-3 3z"/>
  <path d="m361.44 304.9h-21.922c-1.6484 0-3-1.3516-3-3 0-1.6484 1.3516-3 3-3h21.922c1.6484 0 3 1.3516 3 3 0 1.6523-1.3477 3-3 3z"/>
  <path d="m361.44 327.39h-21.922c-1.6484 0-3-1.3398-3-2.9883 0-1.6602 1.3516-3 3-3h21.922c1.6484 0 3 1.3398 3 3 0 1.6484-1.3477 2.9883-3 2.9883z"/>
  <path d="m390.49 70.328h-52.02c-0.80078 0-1.5508-0.30859-2.1211-0.87109l-41.328-41.328c-1.1719-1.1719-1.1719-3.0781 0-4.25 1.1289-1.1289 3.1094-1.1289 4.2383 0l40.449 40.449 50.781 0.011719c1.6602 0 3 1.3398 3 2.9883 0 1.6602-1.3398 3-3 3z"/>
  <path d="m60.941 399.04h-0.042968c-0.80078-0.011718-1.5508-0.32812-2.1094-0.89844-0.55859-0.57031-0.85937-1.3281-0.85156-2.1289l1.1719-104.19c0.019531-1.6406 1.3594-2.9688 2.9883-2.9688h0.039063c0.80078 0.011719 1.5508 0.32813 2.1094 0.91016 0.55859 0.57031 0.85938 1.3281 0.85156 2.1289l-1.1602 104.19c-0.015625 1.6289-1.3672 2.957-2.9961 2.957z"/>
  <path d="m333.23 458.47h-46.719c-1.6602 0-3-1.3398-3-2.9883 0-1.6602 1.3398-3.0117 3-3.0117h46.719c1.6484 0 3 1.3516 3 3.0117 0 1.6484-1.3516 2.9883-3 2.9883z"/>
  <path d="m225.5 458.47h-138.79c-1.6484 0-3-1.3398-3-2.9883 0-1.6602 1.3516-3.0117 3-3.0117h138.79c1.6484 0 2.9883 1.3516 2.9883 3.0117 0 1.6484-1.3398 2.9883-2.9883 2.9883z"/>
  <path d="m401.66 443.48h-100.16c-1.6484 0-3-1.3516-3-3 0-1.6602 1.3516-3 3-3h100.16c1.6484 0 2.9883 1.3398 2.9883 3 0 1.6484-1.3398 3-2.9883 3z"/>
  <path d="m440.43 443.48h-21.32c-1.6484 0-3-1.3516-3-3 0-1.6602 1.3516-3 3-3h21.32c1.6602 0 3 1.3398 3 3 0 1.6484-1.3398 3-3 3z"/>
  <path d="m157.83 443.94h-80.816c-1.6484 0-3-1.3398-3-2.9883 0-1.6602 1.3516-3 3-3h80.82c1.6602 0 3 1.3398 3 3-0.003906 1.6523-1.3438 2.9883-3.0039 2.9883z"/>
 </g>
</svg>
