<?xml version="1.0" encoding="UTF-8"?>
<svg width="512pt" height="512pt" version="1.1" viewBox="0 0 512 512" xmlns="http://www.w3.org/2000/svg">
 <g>
  <path d="m230.03 454.78c-0.19531 0-0.39453-0.011719-0.58984-0.035156-33.605-4.2305-65.812-17.129-93.145-37.305-1.0938-0.80859-1.7891-2.0508-1.9023-3.4023-0.11328-1.3555 0.35938-2.6953 1.3047-3.6758 8.5117-8.8359 8.3789-23.082-0.29688-31.758-4.2812-4.2812-9.9766-6.6445-16.035-6.6445-6.0469 0-11.734 2.3555-16.016 6.625-0.96484 0.96094-2.2891 1.4531-3.6484 1.3711-1.3555-0.089844-2.6094-0.76172-3.4375-1.8398-20.707-27.016-34.195-59.051-39.012-92.641-0.19141-1.3398 0.19922-2.6953 1.0742-3.7266s2.1523-1.6367 3.5039-1.6641c12.238-0.25391 22.199-10.422 22.199-22.664 0-12.301-10.008-22.469-22.309-22.664-1.3516-0.023437-2.6328-0.62109-3.5117-1.6484-0.88281-1.0273-1.2773-2.3828-1.0938-3.7227 4.6289-33.445 17.848-65.398 38.234-92.414 0.79688-1.0547 1.9961-1.7266 3.3125-1.8555 1.3164-0.13281 2.6211 0.30078 3.6094 1.1797 4.1523 3.7109 9.5117 5.7539 15.098 5.7539 6.0547 0 11.75-2.3594 16.031-6.6406 8.4805-8.4805 8.8867-22.133 0.92188-31.086-0.87891-0.98828-1.3047-2.2969-1.1719-3.6094 0.13281-1.3125 0.80859-2.5156 1.8633-3.3086 26.82-20.129 58.516-33.227 91.66-37.871 1.2695-0.17578 2.5586 0.16797 3.5664 0.95703 1.0117 0.78906 1.6562 1.957 1.7852 3.2344 1.1953 11.578 10.895 20.309 22.555 20.309 11.66 0 21.355-8.7305 22.555-20.309 0.13281-1.2773 0.77734-2.4414 1.7891-3.2344 1.0078-0.78906 2.2969-1.1367 3.5664-0.95703 32.926 4.6133 64.441 17.574 91.141 37.48 1.0117 0.75391 1.6797 1.8789 1.8555 3.1289s-0.15625 2.5156-0.91797 3.5195c-6.8242 8.9727-5.9531 21.758 2.0273 29.738 4.2812 4.2812 9.9727 6.6367 16.023 6.6367 5.0234 0 9.9609-1.6914 13.902-4.7578 0.99219-0.77344 2.2578-1.1172 3.5078-0.95703 1.25 0.16406 2.3828 0.81641 3.1484 1.8203 20.195 26.477 33.508 57.797 38.492 90.578 0.1875 1.2539-0.13281 2.5312-0.89453 3.5469-0.76172 1.0156-1.8984 1.6797-3.1562 1.8477-11.207 1.4883-19.656 11.148-19.656 22.469 0 11.598 8.6836 21.289 20.195 22.539 1.2617 0.13672 2.4141 0.77344 3.1992 1.7695s1.1367 2.2656 0.97656 3.5234c-4.2148 33.043-16.844 64.785-36.523 91.801-0.76562 1.0508-1.9297 1.7383-3.2227 1.9023-1.293 0.16016-2.5898-0.21094-3.5938-1.0352-4.0273-3.3086-9.1328-5.1289-14.363-5.1289-6.0586 0-11.75 2.3594-16.031 6.6406-8.4102 8.4102-8.8672 22-1.0469 30.941 0.85547 0.98047 1.2695 2.2656 1.1484 3.5625-0.125 1.293-0.77344 2.4805-1.8008 3.2773-26.605 20.699-58.207 34.375-91.395 39.543-1.3203 0.20703-2.6719-0.16016-3.7109-1.0039s-1.6719-2.0898-1.7344-3.4297c-0.60547-12.07-10.551-21.523-22.648-21.523-12.234 0-22.402 9.9531-22.664 22.188-0.027344 1.3398-0.62109 2.6016-1.6367 3.4766-0.85938 0.75-1.957 1.1523-3.082 1.1523zm-84.117-42.066c23.832 16.648 51.285 27.637 79.941 31.992 2.8203-14.844 16.012-26.188 31.559-26.188 15.344 0 28.246 10.738 31.395 25.266 28.359-5.1719 55.359-16.871 78.617-34.074-7.8203-12.457-6.2109-29.09 4.4922-39.789 6.0664-6.0664 14.133-9.4102 22.715-9.4102 5.7148 0 11.324 1.5352 16.211 4.3867 16.371-23.672 27.195-50.898 31.508-79.27-13.879-3.6719-23.832-16.266-23.832-31.043 0-14.391 9.6406-26.887 23.094-30.828-4.9805-28.184-16.426-55.105-33.312-78.352-4.7617 2.6523-10.184 4.082-15.676 4.082-8.5781 0-16.641-3.3398-22.707-9.4062-10.152-10.152-12.184-25.793-5.4922-38.086-23.422-16.621-50.48-27.762-78.77-32.426-3.6406 13.926-16.234 23.914-31.07 23.914-14.84 0-27.43-9.9844-31.07-23.914-28.391 4.6836-55.531 15.879-79.012 32.602 7.9258 12.477 6.3516 29.145-4.4219 39.914-6.0664 6.0664-14.133 9.4062-22.711 9.4062-6.168 0-12.145-1.7617-17.27-5.0312-16.879 23.574-28.176 50.836-32.887 79.379 14.895 2.7812 26.27 15.969 26.27 31.578 0 15.527-11.309 28.699-26.117 31.547 4.8672 28.605 16.352 55.891 33.445 79.441 5.3867-3.8281 11.816-5.8945 18.559-5.8945 8.582 0 16.648 3.3438 22.715 9.4102 10.992 10.996 12.301 28.305 3.8281 40.793z"/>
  <path d="m254.58 93.48c-16.52 0-30.254-12.375-31.953-28.785-0.11328-1.1055-0.17578-2.2305-0.17578-3.3398 0-17.715 14.41-32.125 32.125-32.125s32.125 14.41 32.125 32.125c0 1.1055-0.058594 2.2305-0.17188 3.3398-1.6953 16.41-15.43 28.785-31.949 28.785zm0-54.805c-12.504 0-22.676 10.172-22.676 22.676 0 0.78516 0.042969 1.5781 0.125 2.3633 1.1992 11.582 10.895 20.312 22.555 20.312 11.66 0 21.355-8.7305 22.555-20.309 0.082031-0.78516 0.12109-1.5859 0.12109-2.3672 0-12.5-10.176-22.676-22.68-22.676z"/>
  <path d="m257.42 482.77c-17.715 0-32.125-14.41-32.125-32.125 0-0.17969 0.003906-0.35938 0.011719-0.53906l0.003906-0.16016c0.36719-17.32 14.773-31.426 32.109-31.426 17.137 0 31.23 13.398 32.086 30.5 0.027344 0.53906 0.039063 1.082 0.039063 1.6289 0 17.711-14.41 32.121-32.125 32.121zm0-54.801c-12.234 0-22.402 9.9531-22.664 22.188l-0.015625 0.49219c0 12.504 10.172 22.68 22.676 22.68 12.504 0 22.68-10.176 22.68-22.68 0-0.38672-0.011719-0.77344-0.027344-1.1523-0.60547-12.074-10.551-21.527-22.648-21.527z"/>
  <path d="m392.62 149.48c-8.5781 0-16.641-3.3398-22.707-9.4062-11.309-11.309-12.539-29.426-2.8672-42.141 0.89844-1.1836 1.8633-2.2891 2.8672-3.293 6.0664-6.0664 14.137-9.4102 22.715-9.4102 8.582 0 16.648 3.3398 22.719 9.4102 12.523 12.527 12.523 32.906 0 45.434-0.91797 0.91797-1.9336 1.8125-3.0234 2.6562-5.5938 4.3516-12.59 6.75-19.703 6.75zm0.011718-54.801c-6.0586 0-11.754 2.3594-16.035 6.6406-0.70312 0.70312-1.3867 1.4883-2.0273 2.332-6.8242 8.9727-5.9531 21.754 2.0273 29.738 4.2812 4.2812 9.9727 6.6367 16.023 6.6367 5.0195 0 9.9609-1.6875 13.902-4.7578 0.79297-0.61719 1.4922-1.2305 2.1445-1.8789 4.2812-4.2812 6.6406-9.9766 6.6406-16.035s-2.3594-11.754-6.6406-16.035-9.9766-6.6406-16.035-6.6406z"/>
  <path d="m119.37 426.77c-8.582 0-16.648-3.3438-22.715-9.4102-12.527-12.523-12.527-32.906 0-45.434l0.082031-0.082031c6.0625-6.0195 14.098-9.3281 22.633-9.3281 8.582 0 16.648 3.3438 22.715 9.4102 12.289 12.289 12.48 32.477 0.42188 44.992l-0.10156 0.10938c-0.10547 0.10937-0.21094 0.22266-0.32031 0.33203-6.0664 6.0664-14.133 9.4102-22.715 9.4102zm-16.086-48.113c-8.793 8.8516-8.7734 23.195 0.050781 32.02 4.2812 4.2812 9.9766 6.6406 16.035 6.6406 6.0586 0 11.754-2.3594 16.035-6.6445l0.30859-0.32812c8.4961-8.8203 8.3633-23.066-0.30859-31.742-4.2812-4.2812-9.9766-6.6445-16.035-6.6445-6.0469 0-11.734 2.3555-16.016 6.625-0.023437 0.027344-0.046874 0.050781-0.070312 0.074219z"/>
  <path d="m450.64 286.71c-1.1445 0-2.3203-0.066407-3.5039-0.19531-16.316-1.7734-28.621-15.5-28.621-31.934 0-16.039 11.98-29.727 27.859-31.836 1.4414-0.19141 2.8789-0.28906 4.2656-0.28906 17.715 0 32.125 14.41 32.125 32.125 0 17.715-14.41 32.129-32.125 32.129zm0-54.805c-0.97266 0-1.9883 0.070312-3.0195 0.20703-11.207 1.4883-19.656 11.148-19.656 22.469 0 11.598 8.6836 21.289 20.195 22.539 0.84375 0.09375 1.6797 0.14062 2.4805 0.14062 12.504 0 22.68-10.172 22.68-22.676 0-12.508-10.176-22.68-22.68-22.68z"/>
  <path d="m61.355 289.54c-17.715 0-32.125-14.41-32.125-32.125 0-17.715 14.41-32.125 32.125-32.125 0.14453 0 0.28516 0.003906 0.42578 0.007812l0.10547 0.003907c17.414 0.27734 31.594 14.684 31.594 32.113 0 17.348-14.109 31.754-31.453 32.109l-0.14062 0.003906c-0.17578 0.007812-0.35547 0.011719-0.53125 0.011719zm-0.003907-54.805c-12.5 0-22.672 10.172-22.672 22.676 0 12.504 10.172 22.68 22.676 22.68l0.46094-0.015625c12.258-0.25391 22.215-10.422 22.215-22.664 0-12.301-10.008-22.469-22.309-22.664z"/>
  <path d="m117.37 151.49h-0.003907c-7.9102 0-15.508-2.8984-21.391-8.1562-0.44922-0.39844-0.89062-0.81641-1.3242-1.2461-12.527-12.531-12.527-32.91-0.003907-45.438 6.0664-6.0664 14.137-9.4102 22.719-9.4102s16.648 3.3438 22.715 9.4102c0.44922 0.44922 0.87891 0.91406 1.3008 1.3867 11.285 12.688 10.711 32.035-1.3008 44.047-6.0664 6.0625-14.133 9.4062-22.711 9.4062zm-0.003907-54.805c-6.0586 0-11.754 2.3594-16.035 6.6445-8.8398 8.8398-8.8398 23.227 0 32.07 0.30469 0.30469 0.62109 0.59766 0.94141 0.88672 4.1523 3.7109 9.5156 5.7539 15.098 5.7539 6.0547 0 11.746-2.3594 16.027-6.6406 8.4805-8.4805 8.8867-22.133 0.92188-31.086-0.29688-0.33203-0.59766-0.66016-0.91797-0.98047-4.2852-4.2891-9.9766-6.6484-16.035-6.6484z"/>
  <path d="m394.64 424.76c-8.582 0-16.648-3.3438-22.715-9.4102-0.47266-0.47266-0.94141-0.97656-1.4766-1.5898-11.086-12.672-10.438-31.93 1.4766-43.844 6.0664-6.0664 14.133-9.4102 22.715-9.4102 7.4141 0 14.645 2.582 20.359 7.2734 0.82812 0.67969 1.6211 1.3984 2.3594 2.1406 12.523 12.523 12.523 32.906-0.003907 45.43-6.0664 6.0703-14.133 9.4102-22.715 9.4102zm0-54.801c-6.0586 0-11.75 2.3594-16.031 6.6406-8.4102 8.4102-8.8672 22-1.0469 30.941 0.33594 0.38281 0.67969 0.76172 1.0469 1.1289 4.2812 4.2812 9.9805 6.6406 16.035 6.6406s11.754-2.3594 16.035-6.6406c4.2812-4.2852 6.6406-9.9805 6.6406-16.035 0-6.0586-2.3594-11.754-6.6406-16.035-0.52344-0.52344-1.0859-1.0312-1.6719-1.5117-4.0312-3.3086-9.1328-5.1289-14.367-5.1289z"/>
  <path d="m264.29 193.88c0 4.8281-3.9141 8.7422-8.7461 8.7422-4.8281 0-8.7422-3.9141-8.7422-8.7422 0-4.832 3.9141-8.7461 8.7422-8.7461 4.832 0 8.7461 3.9141 8.7461 8.7461"/>
  <path d="m265.2 318.12c0 4.8281-3.918 8.7461-8.7461 8.7461s-8.7461-3.918-8.7461-8.7461 3.918-8.7461 8.7461-8.7461 8.7461 3.918 8.7461 8.7461"/>
  <path d="m308.35 211.75c0 4.8281-3.9141 8.7422-8.7461 8.7422-4.8281 0-8.7461-3.9141-8.7461-8.7422 0-4.832 3.918-8.7461 8.7461-8.7461 4.832 0 8.7461 3.9141 8.7461 8.7461"/>
  <path d="m221.14 300.25c0 4.8281-3.918 8.7461-8.7461 8.7461-4.832 0-8.7461-3.918-8.7461-8.7461s3.9141-8.7461 8.7461-8.7461c4.8281 0 8.7461 3.918 8.7461 8.7461"/>
  <path d="m326.87 255.55c0 4.8281-3.918 8.7461-8.7461 8.7461s-8.7461-3.918-8.7461-8.7461 3.918-8.7461 8.7461-8.7461 8.7461 3.918 8.7461 8.7461"/>
  <path d="m202.62 256.45c0 4.8281-3.9141 8.7461-8.7422 8.7461-4.832 0-8.7461-3.918-8.7461-8.7461s3.9141-8.7461 8.7461-8.7461c4.8281 0 8.7422 3.918 8.7422 8.7461"/>
  <path d="m220.5 212.39c0 4.8281-3.918 8.7461-8.7461 8.7461s-8.7461-3.918-8.7461-8.7461c0-4.832 3.918-8.7461 8.7461-8.7461s8.7461 3.9141 8.7461 8.7461"/>
  <path d="m308.99 299.61c0 4.832-3.918 8.7461-8.7461 8.7461s-8.7461-3.9141-8.7461-8.7461c0-4.8281 3.918-8.7461 8.7461-8.7461s8.7461 3.918 8.7461 8.7461"/>
  <path d="m264.29 193.88c0 4.8281-3.9141 8.7422-8.7461 8.7422-4.8281 0-8.7422-3.9141-8.7422-8.7422 0-4.832 3.9141-8.7461 8.7422-8.7461 4.832 0 8.7461 3.9141 8.7461 8.7461"/>
  <path d="m265.2 318.12c0 4.8281-3.918 8.7461-8.7461 8.7461s-8.7461-3.918-8.7461-8.7461 3.918-8.7461 8.7461-8.7461 8.7461 3.918 8.7461 8.7461"/>
  <path d="m308.35 211.75c0 4.8281-3.9141 8.7422-8.7461 8.7422-4.8281 0-8.7461-3.9141-8.7461-8.7422 0-4.832 3.918-8.7461 8.7461-8.7461 4.832 0 8.7461 3.9141 8.7461 8.7461"/>
  <path d="m221.14 300.25c0 4.8281-3.918 8.7461-8.7461 8.7461-4.832 0-8.7461-3.918-8.7461-8.7461s3.9141-8.7461 8.7461-8.7461c4.8281 0 8.7461 3.918 8.7461 8.7461"/>
  <path d="m326.87 255.55c0 4.8281-3.918 8.7461-8.7461 8.7461s-8.7461-3.918-8.7461-8.7461 3.918-8.7461 8.7461-8.7461 8.7461 3.918 8.7461 8.7461"/>
  <path d="m202.62 256.45c0 4.8281-3.9141 8.7461-8.7422 8.7461-4.832 0-8.7461-3.918-8.7461-8.7461s3.9141-8.7461 8.7461-8.7461c4.8281 0 8.7422 3.918 8.7422 8.7461"/>
  <path d="m220.5 212.39c0 4.8281-3.918 8.7461-8.7461 8.7461s-8.7461-3.918-8.7461-8.7461c0-4.832 3.918-8.7461 8.7461-8.7461s8.7461 3.9141 8.7461 8.7461"/>
  <path d="m308.99 299.61c0 4.832-3.918 8.7461-8.7461 8.7461s-8.7461-3.9141-8.7461-8.7461c0-4.8281 3.918-8.7461 8.7461-8.7461s8.7461 3.918 8.7461 8.7461"/>
  <path d="m309.68 357.1h-110.19c-1.6641 0-3.207-0.87891-4.0586-2.3086l-54.512-91.648c-1.3359-2.2422-0.59766-5.1406 1.6445-6.4766 2.2422-1.3359 5.1406-0.59766 6.4766 1.6445l53.137 89.34h104.78l52.367-90.703-52.367-90.703h-107.46c-2.6094 0-4.7227-2.1133-4.7227-4.7227s2.1133-4.7266 4.7227-4.7266h110.19c1.6875 0 3.2461 0.89844 4.0898 2.3633l55.098 95.43c0.84375 1.4609 0.84375 3.2617 0 4.7227l-55.098 95.43c-0.84375 1.457-2.4023 2.3594-4.0898 2.3594z"/>
  <path d="m144.98 265.45c-0.25781 0-0.51953-0.019531-0.78125-0.066407l-56.691-9.4492c-2.5742-0.42969-4.3125-2.8633-3.8828-5.4375 0.42969-2.5742 2.8633-4.3086 5.4375-3.8828l56.691 9.4492c2.5742 0.42969 4.3125 2.8633 3.8828 5.4375-0.38672 2.3125-2.3867 3.9492-4.6562 3.9492z"/>
  <path d="m418.99 265.45h-56.691c-2.6094 0-4.7227-2.1133-4.7227-4.7266 0-2.6094 2.1133-4.7266 4.7227-4.7266h56.691c2.6094 0 4.7266 2.1133 4.7266 4.7266 0 2.6133-2.1172 4.7266-4.7266 4.7266z"/>
  <path d="m258.36 426.08c-2.6094 0-4.7266-2.1133-4.7266-4.7266v-66.141c0-2.6094 2.1133-4.7266 4.7266-4.7266 2.6094 0 4.7266 2.1133 4.7266 4.7266v66.141c-0.003906 2.6133-2.1172 4.7266-4.7266 4.7266z"/>
  <path d="m258.36 161.51c-2.6094 0-4.7266-2.1133-4.7266-4.7227v-66.145c0-2.6094 2.1133-4.7227 4.7266-4.7227 2.6094 0 4.7266 2.1133 4.7266 4.7227v66.141c-0.003906 2.6094-2.1172 4.7266-4.7266 4.7266z"/>
  <path d="m256.47 290.02c-19.277 0-34.961-16.105-34.961-35.906 0-19.797 15.684-35.906 34.961-35.906s34.961 16.105 34.961 35.906c0 19.797-15.684 35.906-34.961 35.906zm0-62.363c-14.066 0-25.512 11.867-25.512 26.457s11.445 26.457 25.512 26.457 25.512-11.867 25.512-26.457c0-14.586-11.445-26.457-25.512-26.457z"/>
 </g>
</svg>
