<?xml version="1.0" encoding="UTF-8"?>
<svg width="512pt" height="512pt" version="1.1" viewBox="0 0 512 512" xmlns="http://www.w3.org/2000/svg">
 <g>
  <path d="m230.91 384.51v-51.199c44.031 0 82.434-35.84 82.434-76.801 0-40.961-38.398-76.801-82.434-76.801v-51.199c72.703 0 133.63 58.879 133.63 128 0 69.121-60.926 128-133.63 128z"/>
  <path d="m231.43 485.89v-51.199c98.301 0 178.18-79.871 178.18-178.18 0-98.305-79.875-177.66-178.18-177.66v-51.199c126.46 0 229.38 102.4 229.38 228.86 0 126.46-102.91 229.38-229.38 229.38z"/>
  <path d="m231.43 434.69c-98.305 0-177.66-79.871-177.66-177.66 0-97.793 79.871-177.66 177.66-177.66v51.199c-69.633 0-126.46 56.832-126.46 126.46 0 69.633 56.832 126.46 126.46 126.46z"/>
  <path d="m231.94 334.85c-43.008 0-78.336-35.328-78.336-78.336 0-43.008 35.328-78.336 78.336-78.336v51.199c-14.848 0-27.137 12.289-27.137 27.137 0 14.848 12.289 27.137 27.137 27.137z"/>
 </g>
</svg>
