<?xml version="1.0" encoding="UTF-8"?>
<svg width="512pt" height="512pt" version="1.1" viewBox="0 0 512 512" xmlns="http://www.w3.org/2000/svg">
 <g>
  <path d="m336.16 424c-30.789 0-55.84-25.051-55.84-55.84 0-30.789 25.051-55.84 55.84-55.84 30.789 0.003907 55.84 25.051 55.84 55.84 0 30.789-25.051 55.84-55.84 55.84zm0-107.68c-28.586 0-51.84 23.254-51.84 51.84 0.003907 28.582 23.258 51.836 51.84 51.836 28.586 0 51.84-23.254 51.84-51.84 0-28.582-23.254-51.836-51.84-51.836z"/>
  <path d="m336.16 397.08c-15.945 0-28.918-12.973-28.918-28.918 0-15.945 12.973-28.918 28.918-28.918 15.945 0 28.918 12.973 28.918 28.918 0.003906 15.941-12.969 28.918-28.918 28.918zm0-53.84c-13.738 0-24.918 11.18-24.918 24.918 0 13.738 11.18 24.918 24.918 24.918 13.738 0 24.918-11.18 24.918-24.918 0.003906-13.738-11.176-24.918-24.918-24.918z"/>
  <path d="m120.81 316.32c-30.789 0-55.84-25.051-55.84-55.84s25.051-55.84 55.84-55.84 55.836 25.051 55.836 55.84-25.047 55.84-55.836 55.84zm0-107.68c-28.582 0-51.84 23.254-51.84 51.84 0 28.586 23.254 51.84 51.84 51.84 28.582 0 51.836-23.254 51.836-51.84 0-28.586-23.254-51.84-51.836-51.84z"/>
  <path d="m120.81 289.4c-15.945 0-28.922-12.973-28.922-28.918s12.973-28.918 28.922-28.918c15.945 0 28.918 12.973 28.918 28.918 0 15.949-12.973 28.918-28.918 28.918zm0-53.836c-13.742 0-24.922 11.18-24.922 24.918s11.18 24.918 24.922 24.918c13.738 0 24.918-11.18 24.918-24.918s-11.18-24.918-24.918-24.918z"/>
  <path d="m336.16 199.68c-30.789 0-55.84-25.051-55.84-55.84 0.003907-30.785 25.051-55.836 55.84-55.836 30.789 0 55.84 25.051 55.84 55.84 0 30.789-25.051 55.836-55.84 55.836zm0-107.68c-28.586 0-51.84 23.254-51.84 51.84 0 28.586 23.254 51.84 51.84 51.84 28.586-0.003907 51.84-23.258 51.84-51.84 0-28.586-23.254-51.84-51.84-51.84z"/>
  <path d="m336.16 172.76c-15.945 0-28.918-12.973-28.918-28.918 0-15.945 12.973-28.918 28.918-28.918 15.945 0 28.918 12.973 28.918 28.918 0.003906 15.945-12.969 28.918-28.918 28.918zm0-53.84c-13.738 0-24.918 11.18-24.918 24.918 0 13.738 11.18 24.918 24.918 24.918 13.738 0 24.918-11.18 24.918-24.918 0.003906-13.738-11.176-24.918-24.918-24.918z"/>
  <path d="m165.68 226.59c-0.71094 0-1.4023-0.38281-1.7617-1.0508-0.52344-0.97266-0.16016-2.1875 0.8125-2.7109l116.65-62.812c0.97266-0.52344 2.1875-0.16016 2.7109 0.8125 0.52344 0.97266 0.16016 2.1875-0.8125 2.7109l-116.65 62.812c-0.30859 0.16406-0.63281 0.23828-0.94922 0.23828z"/>
  <path d="m282.32 352.21c-0.28125 0-0.56641-0.058594-0.83594-0.18359l-116.65-53.84c-1.0039-0.46484-1.4414-1.6484-0.97656-2.6523 0.46094-1.0039 1.6523-1.4453 2.6523-0.97656l116.65 53.836c1.0039 0.46484 1.4375 1.6523 0.98047 2.6523-0.33984 0.73438-1.0664 1.1641-1.8203 1.1641z"/>
  <path d="m256 492c-63.039 0-122.3-24.547-166.88-69.121-44.574-44.574-69.121-103.84-69.121-166.88s24.547-122.3 69.121-166.88c44.574-44.574 103.84-69.121 166.88-69.121s122.3 24.547 166.88 69.121c44.574 44.574 69.121 103.84 69.121 166.88s-24.547 122.3-69.121 166.88c-44.574 44.574-103.84 69.121-166.88 69.121zm0-468c-127.93 0-232 104.07-232 232s104.07 232 232 232 232-104.07 232-232-104.07-232-232-232z"/>
  <path d="m256 452c-38.07 0-74.988-10.926-106.76-31.602-30.953-20.145-55.523-48.441-71.059-81.844-0.46484-1.0039-0.03125-2.1914 0.96875-2.6562 1.0039-0.46484 2.1914-0.03125 2.6562 0.97266 31.398 67.508 99.77 111.13 174.19 111.13 1.1055 0 2 0.89453 2 2s-0.89453 2-2 2z"/>
  <path d="m439.2 322c-0.21875 0-0.44141-0.035156-0.66016-0.11328-1.043-0.36328-1.5938-1.5078-1.2305-2.5469 7.0977-20.312 10.695-41.621 10.695-63.34 0-37.438-10.777-73.715-31.168-104.91-0.60547-0.92578-0.34375-2.1641 0.57812-2.7695 0.92578-0.60156 2.1641-0.34375 2.7695 0.57813 20.816 31.852 31.82 68.887 31.82 107.1 0 22.168-3.6719 43.926-10.918 64.66-0.28516 0.82422-1.0625 1.3398-1.8867 1.3398z"/>
  <path d="m70.203 202c-0.19141 0-0.38672-0.027344-0.57812-0.085938-1.0586-0.31641-1.6562-1.4336-1.3398-2.4922 11.887-39.484 36.652-74.984 69.742-99.961 34.211-25.816 75-39.461 117.97-39.461 1.1055 0 2 0.89453 2 2s-0.89453 2-2 2c-84.062 0-159.68 56.16-183.88 136.58-0.25781 0.86328-1.0547 1.4219-1.9141 1.4219z"/>
  <path d="m210 250h20v20h-20z"/>
  <path d="m240 250h20v20h-20z"/>
  <path d="m270 250h20v20h-20z"/>
  <path d="m300 250h20v20h-20z"/>
  <path d="m330 250h20v20h-20z"/>
 </g>
</svg>
