<?xml version="1.0" encoding="UTF-8"?>
<svg width="512pt" height="512pt" version="1.1" viewBox="0 0 512 512" xmlns="http://www.w3.org/2000/svg">
 <g>
  <path d="m167.46 195.64v120.71l104.54 60.359 104.54-60.348v-120.72l-104.54-60.352zm189.29 109.29-84.75 48.922-84.746-48.934 0.003906-97.848 84.742-48.934 84.75 48.934z"/>
  <path d="m267.05 101.2-131.59 75.969-0.003906 157.65 131.59 75.98c1.5547 0.90234 3.2617 1.3203 4.9375 1.3203 3.4258 0 6.75-1.7734 8.5859-4.9453 2.7305-4.7344 1.1094-10.781-3.625-13.523l-121.7-70.258 0.003906-134.8 121.69-70.258c4.7344-2.7344 6.3555-8.793 3.625-13.523-2.7344-4.7227-8.7891-6.3555-13.52-3.6094z"/>
  <path d="m276.95 63.879c-4.7422-2.7383-10.789-1.1172-13.523 3.625-2.7305 4.7305-1.1094 10.781 3.625 13.523l154.02 88.898v172.14l-154.02 88.914c-4.7344 2.7344-6.3555 8.7852-3.625 13.523 1.832 3.1758 5.1602 4.9492 8.582 4.9492 1.6797 0 3.3789-0.42578 4.9414-1.332l163.92-94.617-0.003906-195z"/>
  <path d="m276.95 467.93-186.02-107.4 0.003906-209.07 186.01-107.39c4.7344-2.7305 6.3555-8.793 3.625-13.523-2.7344-4.7305-8.793-6.3594-13.523-3.6211l-195.89 113.11-0.011719 231.93 195.91 113.11c1.5547 0.90234 3.2617 1.332 4.9375 1.332 3.4258 0 6.75-1.7812 8.5859-4.9492 2.7266-4.7383 1.1094-10.793-3.6289-13.52z"/>
 </g>
</svg>
