<?xml version="1.0" encoding="UTF-8"?>
<svg width="512pt" height="512pt" version="1.1" viewBox="0 0 512 512" xmlns="http://www.w3.org/2000/svg">
 <g>
  <path d="m368.76 389.65h-97.219c-1.6562 0-3-1.3438-3-3 0-11.746-9.5586-21.309-21.305-21.309-11.738 0-21.289 9.5586-21.289 21.309 0 1.6562-1.3438 3-3 3h-97.219c-1.6562 0-3-1.3438-3-3 0-11.746-9.5508-21.309-21.285-21.309-1.6562 0-3-1.3438-3-3v-97.219c0-1.6562 1.3438-3 3-3 7.6992 0 14.82-4.1797 18.586-10.906 0.80859-1.4453 2.6367-1.9648 4.082-1.1523 1.4453 0.80859 1.9609 2.6367 1.1523 4.082-4.332 7.7383-12.133 12.848-20.82 13.812v91.551c12.656 1.3906 22.734 11.477 24.125 24.145h91.547c1.4961-13.648 13.094-24.309 27.129-24.309 14.043 0 25.645 10.656 27.141 24.309h91.547c1.3906-12.664 11.477-22.754 24.145-24.145v-26.961c0-1.6562 1.3438-3 3-3s3 1.3438 3 3v29.797c0 1.6562-1.3438 3-3 3-11.75 0-21.309 9.5586-21.309 21.309-0.007812 1.6523-1.3516 2.9961-3.0078 2.9961zm24.305-104.1c-1.6562 0-3-1.3438-3-3v-14.586c-13.652-1.4961-24.309-13.098-24.309-27.141 0-14.023 10.656-25.609 24.309-27.105v-91.547c-12.664-1.3906-22.754-11.477-24.145-24.141h-91.547c-1.4961 13.648-13.098 24.305-27.141 24.305-14.035 0-25.629-10.656-27.129-24.305h-91.547c-1.3906 12.664-11.469 22.75-24.125 24.141v92.664c0.35547 0.50391 0.55859 1.125 0.54297 1.7891-0.035156 1.6562-1.3945 2.9648-3.0625 2.9336-0.16016-0.003907-0.32031-0.003907-0.48047-0.003907-1.6562 0-3-1.3438-3-3v-97.219c0-1.6562 1.3438-3 3-3 11.738 0 21.285-9.5586 21.285-21.305 0-1.6562 1.3438-3 3-3h97.219c1.6562 0 3 1.3438 3 3 0 11.746 9.5508 21.305 21.289 21.305 11.746 0 21.305-9.5586 21.305-21.305 0-1.6562 1.3438-3 3-3h97.219c1.6562 0 3 1.3438 3 3 0 11.746 9.5586 21.305 21.309 21.305 1.6562 0 3 1.3438 3 3v97.219c0 1.6562-1.3438 3-3 3-11.75 0-21.309 9.543-21.309 21.27 0 11.746 9.5586 21.305 21.309 21.305 1.6562 0 3 1.3438 3 3v17.422c0.007812 1.6562-1.332 3-2.9922 3zm-145.83-17.426c-15.047 0-27.289-12.25-27.289-27.305 0-15.035 12.242-27.27 27.289-27.27 15.055 0 27.305 12.234 27.305 27.27 0 15.055-12.246 27.305-27.305 27.305zm0-48.574c-11.738 0-21.289 9.543-21.289 21.27 0 11.746 9.5508 21.305 21.289 21.305 11.746 0 21.305-9.5586 21.305-21.305 0-11.727-9.5547-21.27-21.305-21.27z"/>
  <path d="m247.24 268.12c-15.047 0-27.289-12.25-27.289-27.305 0-15.039 12.242-27.27 27.289-27.27 15.055 0 27.305 12.234 27.305 27.27 0 15.059-12.25 27.305-27.305 27.305zm0-48.574c-11.738 0-21.289 9.543-21.289 21.27 0 11.746 9.5508 21.305 21.289 21.305 11.746 0 21.305-9.5586 21.305-21.305 0-11.727-9.5586-21.27-21.305-21.27z"/>
  <path d="m393.07 122.33c-15.059 0-27.309-12.25-27.309-27.305 0-15.059 12.25-27.309 27.309-27.309 15.047 0 27.285 12.25 27.285 27.309 0.003907 15.055-12.238 27.305-27.285 27.305zm0-48.613c-11.746 0-21.309 9.5586-21.309 21.309 0 11.746 9.5586 21.305 21.309 21.305 11.734 0 21.285-9.5586 21.285-21.305 0.003907-11.75-9.5469-21.309-21.285-21.309z"/>
  <path d="m101.44 122.33c-15.055 0-27.305-12.25-27.305-27.305 0-15.059 12.25-27.309 27.305-27.309 15.047 0 27.289 12.25 27.289 27.309 0 15.055-12.242 27.305-27.289 27.305zm0-48.613c-11.746 0-21.305 9.5586-21.305 21.309 0 11.746 9.5586 21.305 21.305 21.305 11.738 0 21.289-9.5586 21.289-21.305 0-11.75-9.5469-21.309-21.289-21.309z"/>
  <path d="m101.44 413.92c-15.055 0-27.305-12.234-27.305-27.27 0-15.059 12.25-27.309 27.305-27.309 15.047 0 27.289 12.25 27.289 27.309 0 15.035-12.242 27.27-27.289 27.27zm0-48.578c-11.746 0-21.305 9.5586-21.305 21.309 0 11.73 9.5586 21.27 21.305 21.27 11.738 0 21.289-9.543 21.289-21.27 0-11.754-9.5469-21.309-21.289-21.309z"/>
  <path d="m393.07 413.92c-15.059 0-27.309-12.234-27.309-27.27 0-15.059 12.25-27.309 27.309-27.309 15.047 0 27.285 12.25 27.285 27.309 0.003907 15.035-12.238 27.27-27.285 27.27zm0-48.578c-11.746 0-21.309 9.5586-21.309 21.309 0 11.73 9.5586 21.27 21.309 21.27 11.734 0 21.285-9.543 21.285-21.27 0.003907-11.754-9.5469-21.309-21.285-21.309z"/>
  <path d="m393.07 268.12c-15.059 0-27.309-12.25-27.309-27.305 0-15.039 12.25-27.27 27.309-27.27 15.047 0 27.285 12.234 27.285 27.27 0.003907 15.059-12.238 27.305-27.285 27.305zm0-48.574c-11.746 0-21.309 9.543-21.309 21.27 0 11.746 9.5586 21.305 21.309 21.305 11.734 0 21.285-9.5586 21.285-21.305 0.003907-11.727-9.5469-21.27-21.285-21.27z"/>
  <path d="m101.44 268.12c-15.055 0-27.305-12.25-27.305-27.305 0-15.039 12.25-27.27 27.305-27.27 15.047 0 27.289 12.234 27.289 27.27 0 15.059-12.242 27.305-27.289 27.305zm0-48.574c-11.746 0-21.305 9.543-21.305 21.27 0 11.746 9.5586 21.305 21.305 21.305 11.738 0 21.289-9.5586 21.289-21.305 0-11.727-9.5469-21.27-21.289-21.27z"/>
  <path d="m247.24 122.33c-15.047 0-27.289-12.25-27.289-27.305 0-15.059 12.242-27.309 27.289-27.309 15.055 0 27.305 12.25 27.305 27.309 0 15.055-12.25 27.305-27.305 27.305zm0-48.613c-11.738 0-21.289 9.5586-21.289 21.309 0 11.746 9.5508 21.305 21.289 21.305 11.746 0 21.305-9.5586 21.305-21.305 0-11.75-9.5586-21.309-21.305-21.309z"/>
  <path d="m247.24 413.92c-15.047 0-27.289-12.234-27.289-27.27 0-15.059 12.242-27.309 27.289-27.309 15.055 0 27.305 12.25 27.305 27.309 0 15.035-12.25 27.27-27.305 27.27zm0-48.578c-11.738 0-21.289 9.5586-21.289 21.309 0 11.73 9.5508 21.27 21.289 21.27 11.746 0 21.305-9.543 21.305-21.27 0-11.754-9.5586-21.309-21.305-21.309z"/>
  <path d="m230.07 226.66c-0.76953 0-1.5352-0.29297-2.1211-0.87891l-46.969-46.973c-1.1719-1.1719-1.1719-3.0703 0-4.2422s3.0703-1.1719 4.2422 0l46.969 46.973c1.1719 1.1719 1.1719 3.0703 0 4.2422-0.58594 0.58594-1.3555 0.87891-2.1211 0.87891zm-73.941-73.965c-0.76953 0-1.5352-0.29297-2.1211-0.87891l-37.508-37.504c-1.1719-1.1719-1.1719-3.0703 0-4.2422s3.0703-1.1719 4.2422 0l37.508 37.504c1.1719 1.1719 1.1719 3.0703 0 4.2422-0.58594 0.58594-1.3555 0.87891-2.1211 0.87891z"/>
  <path d="m264.43 226.66c-0.76953 0-1.5352-0.29297-2.1211-0.87891-1.1719-1.1719-1.1719-3.0703 0-4.2422l46.973-46.973c1.1719-1.1719 3.0703-1.1719 4.2422 0s1.1719 3.0703 0 4.2422l-46.973 46.973c-0.58594 0.58594-1.3555 0.87891-2.1211 0.87891zm73.93-73.965c-0.76953 0-1.5352-0.29297-2.1211-0.87891-1.1719-1.1719-1.1719-3.0703 0-4.2422l37.52-37.504c1.1719-1.1719 3.0703-1.1719 4.2422 0s1.1719 3.0703 0 4.2422l-37.52 37.504c-0.58594 0.58594-1.3516 0.87891-2.1211 0.87891z"/>
  <path d="m118.62 372.12c-0.76953 0-1.5352-0.29297-2.1211-0.87891-1.1719-1.1719-1.1719-3.0703 0-4.2422l38.176-38.16c1.1719-1.1719 3.0703-1.1719 4.2422 0s1.1719 3.0703 0 4.2422l-38.176 38.16c-0.58594 0.58594-1.3516 0.87891-2.1211 0.87891zm65.18-65.184c-0.76953 0-1.5352-0.29297-2.1211-0.87891-1.1719-1.1719-1.1719-3.0703 0-4.2422l46.27-46.25c1.1719-1.1719 3.0703-1.1719 4.2422 0s1.1719 3.0703 0 4.2422l-46.27 46.25c-0.58594 0.58594-1.3516 0.87891-2.1211 0.87891z"/>
  <path d="m375.89 372.12c-0.76953 0-1.5352-0.29297-2.1211-0.87891l-41.402-41.402c-1.1719-1.1719-1.1719-3.0703 0-4.2422s3.0703-1.1719 4.2422 0l41.402 41.402c1.1719 1.1719 1.1719 3.0703 0 4.2422-0.58594 0.58594-1.3555 0.87891-2.1211 0.87891zm-68.316-68.324c-0.76953 0-1.5352-0.29297-2.1211-0.87891l-43.141-43.105c-1.1719-1.1719-1.1719-3.0703-0.003906-4.2422 1.1719-1.1719 3.0703-1.1719 4.2422 0l43.141 43.105c1.1719 1.1719 1.1719 3.0703 0.003906 4.2422-0.58203 0.58594-1.3516 0.87891-2.1211 0.87891z"/>
  <path d="m223.03 243.82h-97.305c-1.6562 0-3-1.3438-3-3s1.3438-3 3-3h97.305c1.6562 0 3 1.3438 3 3 0 1.6602-1.3438 3-3 3z"/>
  <path d="m247.3 219.58c-1.6562 0-3-1.3438-3-3v-97.316c0-1.6562 1.3438-3 3-3s3 1.3438 3 3v97.316c0 1.6562-1.3438 3-3 3z"/>
  <path d="m368.84 243.82h-97.301c-1.6562 0-3-1.3438-3-3s1.3438-3 3-3h97.301c1.6562 0 3 1.3438 3 3 0 1.6602-1.3438 3-3 3z"/>
  <path d="m247.3 365.38c-1.6562 0-3-1.3438-3-3v-97.285c0-1.6562 1.3438-3 3-3s3 1.3438 3 3v97.285c0 1.6562-1.3438 3-3 3z"/>
  <path d="m325.75 186.17c-12.184 0-22.098-9.9258-22.098-22.129 0-12.184 9.9102-22.098 22.098-22.098 12.191 0 22.113 9.9141 22.113 22.098 0 12.199-9.9219 22.129-22.113 22.129zm0-38.227c-8.875 0-16.098 7.2227-16.098 16.098 0 8.8945 7.2227 16.129 16.098 16.129 8.8867 0 16.113-7.2344 16.113-16.129 0-8.875-7.2266-16.098-16.113-16.098z"/>
  <path d="m168.75 186.17c-12.191 0-22.113-9.9258-22.113-22.129 0-12.184 9.9219-22.098 22.113-22.098 12.184 0 22.098 9.9141 22.098 22.098 0 12.199-9.9141 22.129-22.098 22.129zm0-38.227c-8.8867 0-16.113 7.2227-16.113 16.098 0 8.8945 7.2305 16.129 16.113 16.129 8.8789 0 16.098-7.2344 16.098-16.129 0-8.875-7.2227-16.098-16.098-16.098z"/>
  <path d="m170.45 339.7c-12.184 0-22.098-9.9141-22.098-22.098s9.9102-22.098 22.098-22.098 22.102 9.9102 22.102 22.098c0 12.184-9.9141 22.098-22.102 22.098zm0-38.191c-8.875 0-16.098 7.2227-16.098 16.098 0 8.8789 7.2227 16.098 16.098 16.098 8.8789 0 16.102-7.2227 16.102-16.098 0-8.8789-7.2227-16.098-16.102-16.098z"/>
  <path d="m319.84 337.56c-12.191 0-22.113-9.9297-22.113-22.129 0-12.184 9.9219-22.098 22.113-22.098s22.113 9.9102 22.113 22.098c-0.003906 12.207-9.9219 22.129-22.113 22.129zm0-38.223c-8.8867 0-16.113 7.2227-16.113 16.098 0 8.8945 7.2305 16.129 16.113 16.129 8.8828 0 16.113-7.2344 16.113-16.129-0.003906-8.875-7.2305-16.098-16.113-16.098z"/>
  <path d="m442.02 248.29c-1.6562 0-3-1.3438-3-3v-195.25h-298.75c-1.6562 0-3-1.3438-3-3s1.3438-3 3-3h301.75c1.6562 0 3 1.3438 3 3v198.25c0 1.6562-1.3438 3-3 3z"/>
  <path d="m350.3 449h-312.02c-1.6562 0-3-1.3438-3-3s1.3438-3 3-3h312.02c1.6562 0 3 1.3438 3 3s-1.3438 3-3 3z"/>
  <path d="m436.91 467.97h-215.91c-1.6562 0-3-1.3438-3-3s1.3438-3 3-3h215.91c1.6562 0 3 1.3438 3 3s-1.3438 3-3 3z"/>
  <path d="m486 467.97h-26.992c-1.6562 0-3-1.3438-3-3s1.3438-3 3-3h26.992c1.6562 0 3 1.3438 3 3s-1.3438 3-3 3z"/>
  <path d="m128.3 467.41h-102.3c-1.6562 0-3-1.3438-3-3s1.3438-3 3-3h102.3c1.6562 0 3 1.3438 3 3s-1.3438 3-3 3z"/>
 </g>
</svg>
