<?xml version="1.0" encoding="UTF-8"?>
<svg width="512pt" height="512pt" version="1.1" viewBox="0 0 512 512" xmlns="http://www.w3.org/2000/svg">
 <path d="m504.24 256c0-136.88-111.36-248.24-248.24-248.24-30.465 0-60.223 5.457-88.445 16.219-4.0039 1.5312-6.0117 6.0117-4.4844 10.016 1.5312 4.0039 6.0273 6.0039 10.016 4.4844 26.445-10.09 54.344-15.203 82.91-15.203 128.32 0 232.72 104.4 232.72 232.73 0 38.762-9.8242 76.168-27.477 109.27l-27.887-13.277c15.945-29.379 24.34-62.387 24.34-95.992 0-104.15-81.242-192.44-184.95-201.01-4.3555-0.42188-8.0234 2.8242-8.3711 7.0898-0.35156 4.2734 2.8203 8.0195 7.0898 8.3711 95.73 7.9062 170.72 89.41 170.72 185.54h-31.031c0-30.75-9.1055-59.367-24.602-83.504-0.0625-0.12891-0.054688-0.26562-0.125-0.39062-0.10156-0.1875-0.28125-0.29297-0.39453-0.46484-27.699-42.539-75.594-70.785-130.03-70.785-32.562 0-62.781 10.133-87.766 27.34l-22.625-21.852c24.859-18.398 54.422-30.941 86.895-35.047 4.25-0.53906 7.2617-4.4219 6.7227-8.6719-0.53906-4.2539-4.4258-7.2227-8.6719-6.7227-75.527 9.5508-137.08 60.523-163.01 128.3l-28.562-12.516c17.844-46.121 50.227-85.922 93.848-113.18 3.6367-2.2734 4.7383-7.0586 2.4688-10.688-2.2695-3.6367-7.0625-4.7305-10.688-2.4688-73.172 45.73-116.86 124.48-116.86 210.66 0 136.88 111.36 248.24 248.24 248.24 4.2852 0 7.7578-3.4727 7.7578-7.7578s-3.4727-7.7578-7.7578-7.7578c-128.32 0-232.73-104.4-232.73-232.73 0-24.043 3.707-47.438 10.609-69.613l28.703 12.574c-5.3711 18.152-8.2812 37.297-8.2812 57.043 0 111.21 90.48 201.7 201.7 201.7 38.891 0 76.672-11.141 109.25-32.215 3.5977-2.3281 4.6289-7.1328 2.3047-10.727-2.3242-3.5977-7.1367-4.625-10.727-2.3047-30.07 19.449-64.938 29.73-100.83 29.73-102.66 0-186.18-83.52-186.18-186.18 0-55.277 24.531-105.48 63.633-139.84l22.348 21.586c-34.062 28.906-54.949 71.859-54.949 118.25 0 11.254 1.2188 22.496 3.625 33.414 0.92578 4.1836 5.0352 6.8164 9.2461 5.9062 4.1836-0.92187 6.8242-5.0586 5.9062-9.2461-2.1641-9.8164-3.2617-19.934-3.2617-30.07 0-29.715 9.4023-57.234 25.285-79.898l23.93 19.883c-3.5898 5.4102-6.7891 11.145-9.4141 17.262-1.6914 3.9375 0.12891 8.5 4.0625 10.195 1 0.42969 2.0391 0.63281 3.0586 0.63281 3.0078 0 5.8672-1.7617 7.1328-4.6953 13.707-31.902 43.727-53.277 77.82-56.117v31.219c-30.562 3.8359-54.305 29.934-54.305 61.52 0 34.219 27.84 62.062 62.062 62.062 23.406 0 44.59-12.977 55.285-33.871 1.9492-3.8125 0.44141-8.4883-3.3711-10.438-3.8281-1.957-8.4883-0.44141-10.438 3.3711-8.0273 15.684-23.922 25.426-41.473 25.426-25.668 0-46.547-20.879-46.547-46.547 0-25.668 20.879-46.547 46.547-46.547 23.789 0 43.68 17.812 46.27 41.43 0.46484 4.2578 4.25 7.332 8.5547 6.8672 4.2617-0.46875 7.332-4.3008 6.8672-8.5547-3.168-28.887-25.754-51.203-53.934-54.715v-31.215c15.297 1.2734 30.012 6.2695 42.938 14.695 3.6016 2.3438 8.4023 1.3281 10.738-2.2617 2.3359-3.5898 1.3242-8.3984-2.2617-10.738-17.629-11.488-38.086-17.566-59.172-17.566-31.48 0-60.676 13.617-80.938 36.301l-23.777-19.762c25.609-29.09 63.004-47.57 104.71-47.57 46.031 0 86.809 22.484 112.26 56.945l-33.199 18.434c-1.9219 1.0664-3.2969 2.8945-3.793 5.0312-0.49609 2.1367-0.0625 4.3867 1.1875 6.1875 10.879 15.629 16.629 33.969 16.629 53.043 0 51.328-41.762 93.09-93.09 93.09s-93.09-41.762-93.09-93.09l0.019532-1.6562c0.078124-4.2852-3.3242-7.8203-7.6094-7.9062-4.207-0.03125-7.8203 3.332-7.9062 7.6094l-0.019531 1.9492c0 59.887 48.719 108.61 108.61 108.61s108.6-48.719 108.6-108.61c0-19.387-5.0898-38.129-14.797-54.695l27.016-14.996c11.895 20.539 18.816 44.301 18.816 69.691 0 76.996-62.645 139.64-139.64 139.64-30.902 0-60.203-9.9336-84.738-28.727-3.3906-2.5977-8.2695-1.957-10.875 1.4414-2.6055 3.3984-1.957 8.2695 1.4414 10.875 27.262 20.887 59.824 31.926 94.172 31.926 80.316 0 146.56-61.348 154.37-139.64h31.094c-2.3594 28.211-11.051 55.574-25.633 79.906-1.1289 1.875-1.4102 4.1406-0.77344 6.2305 0.62891 2.0938 2.1133 3.8203 4.0898 4.7617l34.309 16.332c-23.387 37.625-57.332 68.668-98.82 88.105-3.8789 1.8203-5.5508 6.4414-3.7344 10.316 1.3203 2.8125 4.1133 4.4688 7.0312 4.4648 1.1016 0 2.2227-0.23438 3.2852-0.73047 46.371-21.727 83.855-57.082 108.85-99.84 0.65625-0.63281 1.25-1.3438 1.6641-2.2148 0.16406-0.34766 0.16016-0.71484 0.26953-1.0703 20.645-36.582 32.242-78.371 32.242-121.78z"/>
</svg>
