<?xml version="1.0" encoding="UTF-8"?>
<svg width="512pt" height="512pt" version="1.1" viewBox="0 0 512 512" xmlns="http://www.w3.org/2000/svg">
 <g>
  <path d="m256 483c-60.633 0-117.64-23.613-160.52-66.488-42.871-42.871-66.484-99.879-66.484-160.51s23.613-117.64 66.484-160.52c42.875-42.871 99.883-66.484 160.52-66.484s117.64 23.613 160.51 66.484c42.875 42.875 66.488 99.883 66.488 160.52s-23.613 117.64-66.488 160.51c-42.871 42.875-99.879 66.488-160.51 66.488zm0-450c-122.96 0-223 100.04-223 223 0 122.96 100.04 223 223 223 122.96 0 223-100.04 223-223 0-122.96-100.04-223-223-223z"/>
  <path d="m481 260h-450c-1.1055 0-2-0.89453-2-2s0.89453-2 2-2h450c1.1055 0 2 0.89453 2 2s-0.89453 2-2 2z"/>
  <path d="m256 483c-18.52 0-35.656-18.203-49.566-52.641-0.19922-0.49609-0.19531-1.0508 0.019531-1.5391 0.21094-0.48828 0.60938-0.875 1.1055-1.0703 6.9492-2.7266 11.441-9.3008 11.441-16.75 0-9.9258-8.0742-18-18-18-1.4141 0-2.8828 0.1875-4.3594 0.55859-1.0703 0.26953-2.1523-0.38281-2.4258-1.4492-4.9609-19.664-8.7852-41.438-11.371-64.719-2.5508-22.977-3.8438-46.996-3.8438-71.391 0-24.398 1.293-48.414 3.8438-71.387 4.957-44.637 14.312-83.035 27.051-111.04 13.262-29.16 29.203-44.57 46.105-44.57s32.844 15.41 46.105 44.57c12.738 28.008 22.094 66.406 27.051 111.04 2.5508 22.973 3.8438 46.988 3.8438 71.387 0 24.395-1.293 48.414-3.8477 71.387-4.957 44.637-14.312 83.035-27.051 111.04-13.258 29.16-29.199 44.57-46.102 44.57zm-45.129-52.352c12.934 31.203 28.922 48.352 45.129 48.352 15.219 0 29.898-14.602 42.465-42.227 12.566-27.629 21.805-65.605 26.715-109.83 2.5352-22.824 3.8203-46.695 3.8203-70.945s-1.2852-48.121-3.8203-70.945c-4.9102-44.223-14.148-82.199-26.715-109.83-12.566-27.625-27.246-42.227-42.465-42.227-15.215 0-29.898 14.602-42.465 42.227-12.566 27.629-21.805 65.605-26.715 109.83-2.5352 22.824-3.8203 46.695-3.8203 70.945s1.2852 48.121 3.8203 70.945c2.4844 22.367 6.1211 43.328 10.809 62.328 1.1367-0.18359 2.2656-0.27344 3.3672-0.27344 12.133 0 22 9.8672 22 22 0.003906 8.4258-4.6953 15.934-12.125 19.648z"/>
  <path d="m201 433c-12.133 0-22-9.8672-22-22 0-10.109 6.8555-18.879 16.672-21.324 1.7969-0.44922 3.5898-0.67578 5.3281-0.67578 12.133 0 22 9.8672 22 22 0 9.1055-5.4883 17.145-13.98 20.473-2.5859 1.0117-5.2852 1.5273-8.0195 1.5273zm0-40c-1.4141 0-2.8828 0.1875-4.3594 0.55859-8.0312 2-13.641 9.1719-13.641 17.441 0 9.9258 8.0742 18 18 18 2.2344 0 4.4375-0.42188 6.5586-1.2539 6.9492-2.7227 11.441-9.2969 11.441-16.746 0-9.9258-8.0742-18-18-18z"/>
  <path d="m256 333c-24.398 0-48.414-1.293-71.387-3.8477-44.637-4.957-83.035-14.312-111.04-27.051-29.16-13.258-44.57-29.199-44.57-46.102 0-18.52 18.203-35.656 52.641-49.566 0.49609-0.19922 1.0508-0.19531 1.5391 0.019531 0.48828 0.21094 0.875 0.60938 1.0703 1.1055 2.7266 6.9492 9.3008 11.441 16.75 11.441 9.9258 0 18-8.0742 18-18 0-1.4141-0.1875-2.8828-0.55859-4.3594-0.26562-1.0703 0.38281-2.1523 1.4492-2.4258 19.664-4.9609 41.438-8.7852 64.719-11.371 22.977-2.5508 46.992-3.8438 71.391-3.8438 24.395 0 48.414 1.293 71.387 3.8438 44.637 4.957 83.035 14.312 111.04 27.051 29.16 13.262 44.57 29.203 44.57 46.105s-15.41 32.844-44.57 46.105c-28.008 12.738-66.406 22.094-111.04 27.051-22.973 2.5508-46.992 3.8438-71.387 3.8438zm-174.65-122.13c-31.203 12.934-48.352 28.922-48.352 45.129 0 15.219 14.602 29.898 42.227 42.465 27.629 12.566 65.605 21.805 109.83 26.715 22.824 2.5352 46.695 3.8203 70.945 3.8203s48.121-1.2852 70.945-3.8203c44.223-4.9102 82.199-14.148 109.83-26.715 27.625-12.566 42.227-27.246 42.227-42.465s-14.602-29.902-42.227-42.465c-27.629-12.566-65.605-21.805-109.83-26.715-22.824-2.5352-46.695-3.8203-70.945-3.8203s-48.121 1.2852-70.945 3.8203c-22.371 2.4844-43.328 6.1211-62.328 10.809 0.18359 1.1367 0.27344 2.2656 0.27344 3.3672 0 12.133-9.8672 22-22 22-8.4258 0.003906-15.934-4.6953-19.648-12.125z"/>
  <path d="m101 223c-9.1055 0-17.141-5.4883-20.473-13.98-1.0117-2.5898-1.5273-5.2852-1.5273-8.0195 0-12.133 9.8672-22 22-22 10.109 0 18.879 6.8555 21.324 16.672 0.44922 1.7969 0.67578 3.5898 0.67578 5.3281 0 12.133-9.8672 22-22 22zm0-40c-9.9258 0-18 8.0742-18 18 0 2.2305 0.42188 4.4375 1.2539 6.5586 2.7227 6.9492 9.2969 11.441 16.746 11.441 9.9258 0 18-8.0742 18-18 0-1.4141-0.1875-2.8828-0.55859-4.3594-2-8.0312-9.1719-13.641-17.441-13.641z"/>
  <path d="m201 281h20v20h-20z"/>
  <path d="m231 281h20v20h-20z"/>
  <path d="m261 281h20v20h-20z"/>
  <path d="m231 211h20v20h-20z"/>
  <path d="m261 211h20v20h-20z"/>
  <path d="m291 211h20v20h-20z"/>
 </g>
</svg>
