<?xml version="1.0" encoding="UTF-8"?>
<svg width="512pt" height="512pt" version="1.1" viewBox="0 0 512 512" xmlns="http://www.w3.org/2000/svg">
 <g>
  <path d="m286.47 465.53c-1.1484 0-2.2812-0.39844-3.1602-1.1211-1.1016-0.89844-1.7695-2.2227-1.8398-3.6289-0.64062-12.781-11.16-22.781-23.957-22.781-7.6719 0-14.699 3.5391-19.281 9.6992 0 0.011719-0.011719 0.011719-0.011719 0.011719-0.94141 1.2617-2.4414 2.0117-4.0117 2.0117-1.0781 0-2.1094-0.33984-2.9805-0.98828-1.2695-0.94922-2.0117-2.3984-2.0195-4 0-1.0781 0.33984-2.1211 0.98828-2.9883 3.0898-4.1719 7.1602-7.6211 11.77-9.9883 4.7695-2.4492 10.141-3.75 15.52-3.75 4 0 7.8984 0.6875 11.609 2.0312 3.5898 1.3086 6.9219 3.1992 9.8906 5.6172 5.9375 4.8516 10.109 11.633 11.73 19.09 29.91-5.4492 58.68-17.91 83.211-36.062-3.4102-5.4219-5.1992-11.672-5.1992-18.09-0.011718-4.3984 0.82813-8.6992 2.4883-12.781 1.7109-4.2305 4.2188-8.0117 7.4609-11.25 3.2383-3.2383 7.0195-5.75 11.238-7.4609 4.0781-1.6602 8.3789-2.5 12.781-2.5h0.050782c6.0195 0 11.949 1.6094 17.129 4.6406 17.531-25.32 28.75-53.551 33.34-83.891-14.84-3.9492-25.211-17.461-25.219-32.852 0-7.5117 2.3984-14.629 6.9375-20.578 4.3789-5.75 10.59-10.031 17.5-12.051-5.2383-29.719-17.43-58.391-35.262-82.91-5.0391 2.8203-10.77 4.3086-16.578 4.3086h-0.03125c-4.3984 0-8.6992-0.83984-12.777-2.4883-4.2227-1.7188-7.9883-4.2305-11.23-7.4609-3.2383-3.2383-5.75-7.0312-7.4609-11.25-1.6602-4.0781-2.5-8.3789-2.4883-12.789-0.011719-5.6797 1.4219-11.301 4.1328-16.27-24.699-17.551-53.531-29.41-83.359-34.32-3.9297 14.898-17.441 25.301-32.879 25.309-15.441-0.011719-28.949-10.41-32.879-25.309-25.578 4.2109-49.781 13.211-71.91 26.762-0.78906 0.48047-1.6914 0.73828-2.6094 0.73828-1.7617 0-3.3516-0.89844-4.2695-2.3984-1.4414-2.3516-0.69141-5.4297 1.6602-6.8711 12.109-7.4102 25-13.609 38.328-18.422 13.602-4.9102 27.781-8.4219 42.141-10.43 1.3281-0.19141 2.7188 0.19141 3.7812 1.0117 1.0586 0.82812 1.75 2.0781 1.8906 3.4297 1.2656 12.25 11.516 21.488 23.848 21.488h0.039062c12.328 0 22.578-9.2383 23.852-21.5 0.14062-1.3398 0.82812-2.5781 1.8906-3.4219 1.0586-0.82031 2.4492-1.1992 3.7812-1.0117 17.621 2.4688 34.871 7.1719 51.27 13.969 16.031 6.6484 31.23 15.289 45.18 25.699 1.0781 0.80078 1.7773 1.9805 1.9688 3.3086 0.17969 1.3086-0.17188 2.6719-0.98047 3.7188-3.1797 4.1914-4.8711 9.2109-4.8711 14.512 0 6.4102 2.5 12.441 7.0195 16.969 4.5312 4.5195 10.551 7.0117 16.961 7.0195 5.3984 0 10.48-1.7383 14.719-5.0391 1.0391-0.80078 2.3984-1.1719 3.7109-1.0117 1.3281 0.17969 2.5117 0.85937 3.3281 1.9297 10.551 13.828 19.359 28.922 26.18 44.84 6.9883 16.309 11.891 33.469 14.559 51.02 0.19922 1.3203-0.14844 2.6914-0.94922 3.75-0.80078 1.0703-2.0117 1.7812-3.3281 1.9609-11.879 1.5781-20.82 11.801-20.809 23.781-0.011719 12.281 9.1797 22.531 21.371 23.852 1.3281 0.14844 2.5586 0.82812 3.3906 1.8789 0.82031 1.0508 1.1992 2.4102 1.0312 3.7305-2.2617 17.699-6.7695 35.059-13.41 51.59-6.4688 16.129-14.969 31.461-25.238 45.559-0.80859 1.1094-2.0508 1.8398-3.4102 2.0195-1.3516 0.17188-2.75-0.23828-3.8008-1.1016-4.2695-3.5-9.6602-5.4297-15.199-5.4297-6.4219 0.011718-12.449 2.5117-16.98 7.0391-4.5195 4.5195-7.0195 10.539-7.0312 16.949 0.011719 5.8203 2.1094 11.43 5.9297 15.789 0.89844 1.0312 1.3398 2.3984 1.2109 3.7695-0.12891 1.3594-0.82031 2.6328-1.9102 3.4727-13.891 10.809-29.09 19.852-45.172 26.859-16.449 7.1797-33.801 12.223-51.551 14.988-0.25 0.054688-0.5 0.074219-0.76172 0.074219zm-69.91-1.0195c-0.30859 0-0.60938-0.03125-0.91016-0.078125h-0.011719c-2.7109-0.51172-4.5117-3.1289-4.0117-5.8398 0.44922-2.3594 2.5117-4.0781 4.9219-4.0781 0.30078 0 0.60938 0.03125 0.92188 0.078125 2.7109 0.51172 4.5 3.1211 4 5.8281-0.4375 2.3672-2.5078 4.0898-4.9102 4.0898zm-28.988-7.6328c-0.55078 0-1.1016-0.089844-1.6211-0.26953-20.262-6.9609-39.32-16.969-56.641-29.762-1.1484-0.85156-1.8906-2.1602-2.0117-3.6016-0.12109-1.4297 0.37891-2.8516 1.3789-3.8906 4.3203-4.4883 6.7109-10.398 6.7109-16.641 0-6.4102-2.5-12.438-7.0195-16.969-4.5312-4.5195-10.551-7.0195-16.961-7.0312-6.4102 0.011718-12.441 2.5-16.961 7.0117-1.0312 1.0312-2.4219 1.5625-3.8711 1.4609-1.4297-0.10156-2.7617-0.80859-3.6289-1.9492-10.809-14.102-19.801-29.52-26.73-45.82-7.0781-16.68-11.98-34.262-14.559-52.23-0.19922-1.4102 0.21094-2.8516 1.1406-3.9375 0.92188-1.0898 2.2695-1.7305 3.7109-1.7617 12.961-0.26953 23.5-11.031 23.488-23.988 0-13.02-10.59-23.781-23.609-23.988-1.4297-0.019531-2.7891-0.66016-3.7188-1.7383-0.92969-1.0898-1.3516-2.5312-1.1484-3.9414 2.4688-17.898 7.25-35.41 14.199-52.059 6.7812-16.25 15.621-31.641 26.262-45.75 0.83984-1.1094 2.1211-1.8281 3.5117-1.9609 1.3789-0.14062 2.7812 0.32031 3.8086 1.25 4.3906 3.9219 10.059 6.0781 15.969 6.0898 6.4219-0.011719 12.449-2.5117 16.969-7.0312 0.64844-0.64844 1.2695-1.3516 1.8594-2.0781 0.94922-1.1992 2.3789-1.8906 3.9102-1.8906 1.1406 0 2.2188 0.37891 3.1094 1.0898 1.2109 0.96094 1.8984 2.3906 1.8906 3.9414 0 1.1289-0.37891 2.1914-1.0781 3.0781-0.80078 1.0117-1.6797 1.9883-2.6094 2.9297-3.2383 3.2383-7.0195 5.75-11.238 7.4609-4.0781 1.6484-8.3789 2.4883-12.781 2.4883h-0.039062c-6.4883 0-12.801-1.8398-18.262-5.3203-17.809 24.859-29.84 53.91-34.801 84 16.109 2.9688 27.801 17.02 27.801 33.43 0 16.328-11.621 30.359-27.641 33.398 5.1211 30.16 17.359 59.23 35.398 84.062 5.7617-4.0781 12.539-6.2383 19.629-6.2383h0.050781c4.3984 0 8.6914 0.83984 12.77 2.5 4.2188 1.7109 7.9883 4.2188 11.23 7.4609 3.2383 3.2383 5.75 7.0195 7.4609 11.25 1.6602 4.0781 2.5 8.3789 2.4883 12.789 0.011719 6.8594-2.0312 13.48-5.8906 19.141 15.352 10.723 32.07 19.23 49.699 25.289 2.6016 0.89062 4 3.7383 3.1016 6.3516-0.6875 2.0156-2.5859 3.375-4.7266 3.375zm-51.199-350.82c-2.0586 0-3.9414-1.3008-4.6719-3.2188-0.48047-1.25-0.44141-2.6094 0.10938-3.8281 0.55078-1.2188 1.5312-2.1484 2.7812-2.6289 0.57812-0.21094 1.1719-0.32812 1.7812-0.32812 2.0586 0 3.9414 1.3008 4.6719 3.2305 0.98047 2.5703-0.30859 5.4688-2.8906 6.4492-0.57422 0.21484-1.1719 0.32422-1.7812 0.32422z"/>
  <path d="m254.5 84c-8.4688 0-16.578-3.1289-22.84-8.8086-6.2109-5.6406-10.109-13.328-10.98-21.648-0.12109-1.1719-0.17969-2.3594-0.17969-3.5391 0-9.0781 3.5391-17.621 9.9609-24.039 6.418-6.4258 14.961-9.9648 24.039-9.9648s17.621 3.5391 24.039 9.9609c6.4219 6.418 9.9609 14.961 9.9609 24.039 0 1.1719-0.0625 2.3594-0.17969 3.5312-0.86719 8.3281-4.7695 16.02-10.98 21.66-6.2617 5.6797-14.371 8.8086-22.84 8.8086zm0-10h0.019531c12.328 0 22.578-9.2383 23.852-21.488 0.089844-0.85156 0.12891-1.6914 0.12891-2.5117-0.019531-13.211-10.789-23.98-24-24-13.211 0.019531-23.98 10.789-24 24 0 0.83984 0.039062 1.6797 0.12891 2.5117 1.2695 12.25 11.52 21.488 23.852 21.488z"/>
  <path d="m257.5 496c-9.0781 0-17.621-3.5391-24.039-9.9609-6.4219-6.4219-9.9609-14.961-9.9609-24.039 0-0.28125 0.011719-0.48047 0.011719-0.62109 0.011719-0.050781 0.011719-0.078125 0.011719-0.10938 0.19141-8.9297 3.8086-17.289 10.191-23.551 6.3789-6.2695 14.828-9.7188 23.789-9.7188 18.129 0.011719 33.051 14.188 33.961 32.281 0.019531 0.58984 0.039062 1.1719 0.039062 1.7188 0 9.0781-3.5391 17.621-9.9609 24.039-6.4219 6.4219-14.965 9.9609-24.043 9.9609zm0-58c-12.961 0-23.711 10.539-23.988 23.488 0 0.14844 0 0.26172-0.011719 0.35156v0.16016c0.019531 13.211 10.789 23.98 24 24 13.211-0.019531 23.98-10.789 24-24 0-0.39062-0.011719-0.8125-0.03125-1.2188-0.64062-12.77-11.16-22.781-23.957-22.781z"/>
  <path d="m400.6 143.27h-0.03125c-4.3984 0-8.6992-0.83984-12.777-2.4883-4.2109-1.7188-7.9883-4.2305-11.23-7.4609-3.2383-3.2383-5.75-7.0312-7.4609-11.25-1.6602-4.0781-2.5-8.3789-2.4883-12.789-0.011719-7.3906 2.4492-14.691 6.9219-20.559 0.94922-1.25 1.9688-2.4297 3.0273-3.4883 3.2383-3.2383 7.0195-5.75 11.238-7.4609 4.0781-1.6602 8.3789-2.5 12.781-2.5h0.039063c4.3984 0 8.6992 0.83984 12.777 2.5 4.2227 1.7109 8.0117 4.2188 11.238 7.4609 3.25 3.2383 5.7617 7.0312 7.4688 11.25 1.6602 4.0781 2.4883 8.3906 2.4883 12.801 0 4.3984-0.82812 8.7109-2.4883 12.789-1.7109 4.2188-4.2188 8.0117-7.4688 11.25-0.96875 0.96875-2.0391 1.9219-3.1992 2.8086-5.918 4.5977-13.316 7.1367-20.836 7.1367zm-16.973-17.02c4.5312 4.5195 10.551 7.0117 16.961 7.0195 5.3203 0 10.539-1.7891 14.719-5.0312 0.83984-0.66016 1.5781-1.3086 2.2617-1.9883 4.5312-4.5312 7.0312-10.559 7.0312-16.969 0-6.4219-2.5-12.449-7.0312-16.98-4.5273-4.5195-10.551-7.0195-16.969-7.0195-6.4102 0-12.438 2.5-16.969 7.0195-0.75 0.76172-1.4688 1.5898-2.1406 2.4688-3.1914 4.1992-4.8828 9.2109-4.8828 14.512 0 6.4102 2.5 12.438 7.0195 16.969z"/>
  <path d="m111.38 436.72c-4.4102 0-8.7109-0.83984-12.789-2.4883-4.2188-1.7109-8-4.2305-11.238-7.4688-3.2383-3.2383-5.75-7.0195-7.4609-11.25-1.6602-4.0781-2.5-8.3789-2.4883-12.789-0.011719-4.3984 0.82812-8.7109 2.4883-12.789 1.7109-4.2188 4.2188-8.0117 7.4688-11.25l0.10938-0.10938c3.2383-3.2109 7.0195-5.6992 11.238-7.3906 4.0586-1.6289 8.3398-2.4609 12.738-2.4609h0.039063c4.3906 0 8.6797 0.85156 12.75 2.5117 4.1992 1.7109 7.9688 4.2227 11.199 7.4492 3.2383 3.2383 5.75 7.0195 7.4609 11.25 1.6602 4.0781 2.4883 8.3789 2.4883 12.789 0.011719 8.8398-3.3711 17.211-9.5117 23.578l-0.011719 0.011719c-0.011719 0.011719-0.03125 0.03125-0.058594 0.070312-0.070312 0.070313-0.19141 0.19922-0.37109 0.39063-3.2383 3.2383-7.0195 5.75-11.238 7.4609-4.0781 1.6484-8.3789 2.4883-12.789 2.4883zm-16.949-50.969v0.011719c-4.5312 4.5195-7.0312 10.551-7.0312 16.961 0 6.4219 2.5 12.441 7.0312 16.969 4.5312 4.5312 10.551 7.0312 16.969 7.0312 6.4102 0 12.441-2.5 16.969-7.0312l0.050781-0.050781c0.050781-0.050781 0.12891-0.14062 0.26172-0.26953v-0.011719c4.3203-4.4883 6.7109-10.398 6.7109-16.641 0-6.4219-2.5-12.438-7.0195-16.961-4.5312-4.5312-10.531-7.0312-16.898-7.0391-6.4492 0.011719-12.5 2.5-17.02 7.0117z"/>
  <path d="m462 288.5c-1.1992 0-2.4492-0.070312-3.7109-0.19922-8.2812-0.91016-15.93-4.8203-21.531-11.031-5.6484-6.25-8.7617-14.328-8.7617-22.77 0-8.3008 3.0195-16.281 8.5-22.488 5.4297-6.1484 12.879-10.129 20.98-11.199 1.5312-0.21094 3.0508-0.30859 4.5195-0.30859 9.0781 0 17.621 3.5391 24.039 9.9609 6.4258 6.4141 9.9648 14.957 9.9648 24.035s-3.5391 17.621-9.9609 24.039c-6.418 6.4219-14.961 9.9609-24.039 9.9609zm0-58c-1.0391 0-2.1094 0.070312-3.1992 0.21875-11.871 1.5781-20.809 11.801-20.801 23.781-0.011719 12.27 9.1797 22.531 21.371 23.852 0.89844 0.10156 1.7773 0.14844 2.6289 0.14844 13.211-0.019531 23.98-10.789 24-24-0.019531-13.211-10.789-23.98-24-24z"/>
  <path d="m50 291.5c-9.0781 0-17.621-3.5391-24.039-9.9609-6.4219-6.418-9.9609-14.961-9.9609-24.039s3.5391-17.621 9.9609-24.039c6.418-6.4219 14.961-9.9609 24.039-9.9609 0.28125 0 0.46094 0.011719 0.51953 0.011719h0.03125c8.9688 0.14844 17.371 3.75 23.672 10.141 6.3008 6.3906 9.7812 14.859 9.7812 23.852 0 8.9609-3.4609 17.41-9.7188 23.801-6.2617 6.3789-14.629 10-23.551 10.18-0.039063 0-0.10156 0-0.17188 0.011719-0.13281-0.007813-0.32422 0.003906-0.5625 0.003906zm0.011719-58c-13.219 0.03125-23.988 10.789-24.012 24 0.019531 13.211 10.789 23.98 24 24h0.14062l0.37109-0.011719c12.957-0.26953 23.488-11.027 23.488-23.988 0-13.02-10.59-23.781-23.621-23.988-0.17188 0-0.26953-0.011719-0.32031-0.011719h-0.046875z"/>
  <path d="m109.3 145.39h-0.039062c-8.3594 0-16.391-3.0586-22.621-8.6289-0.51172-0.44922-0.96875-0.89062-1.4102-1.3203-3.2383-3.2383-5.75-7.0312-7.4609-11.25-1.6602-4.0781-2.5-8.3906-2.4883-12.789-0.011719-4.4102 0.82812-8.7109 2.4883-12.801 1.7109-4.2188 4.2188-8 7.4609-11.238 3.2383-3.2383 7.0195-5.75 11.238-7.4688 4.0781-1.6484 8.3789-2.4883 12.781-2.4883h0.050781c4.3984 0 8.6992 0.83984 12.781 2.4883 4.2188 1.7109 8 4.2188 11.23 7.4609 0.44922 0.44922 0.89844 0.92969 1.3906 1.4688 5.5312 6.2305 8.5781 14.238 8.5703 22.578 0 4.4102-0.82813 8.7109-2.4883 12.789-1.7109 4.2188-4.2188 8.0117-7.4609 11.25-3.2383 3.2383-7.0195 5.75-11.238 7.4609-4.0859 1.6484-8.375 2.4883-12.785 2.4883zm-0.03125-57.992c-6.4102 0-12.441 2.5-16.969 7.0312-4.5195 4.5312-7.0195 10.551-7.0195 16.969 0 6.4102 2.5 12.441 7.0195 16.961 0.30859 0.30859 0.64844 0.62891 1 0.94922 4.3984 3.9219 10.07 6.0781 15.98 6.0898 6.4102-0.011719 12.441-2.5117 16.969-7.0312 4.5195-4.5312 7.0195-10.559 7.0195-16.969 0-5.8906-2.1484-11.551-6.0508-15.93-0.37891-0.44141-0.69141-0.76172-0.96875-1.0391-4.5312-4.5312-10.559-7.0312-16.98-7.0312z"/>
  <path d="m402.7 434.6c-4.4102 0-8.7109-0.83984-12.781-2.4883-4.2188-1.7188-8-4.2305-11.238-7.4609-0.5-0.51172-1.0117-1.0586-1.5586-1.6875-5.4219-6.1914-8.3984-14.129-8.3906-22.359-0.011719-4.4102 0.82812-8.7109 2.4883-12.789 1.7109-4.2188 4.2188-8 7.4492-11.238 0.011719 0 0.011719 0 0.011719-0.011719 3.2383-3.2383 7.0195-5.75 11.238-7.4609 4.0781-1.6602 8.3789-2.5 12.789-2.5h0.039063c7.8281 0 15.469 2.7383 21.52 7.6992 0.85938 0.71094 1.6992 1.4688 2.4883 2.2617 3.25 3.2383 5.7617 7.0195 7.4688 11.25 1.6602 4.0781 2.5 8.3906 2.4883 12.789 0.011718 4.4102-0.82813 8.7109-2.4883 12.801-1.7109 4.2227-4.2188 8-7.4688 11.25-3.2305 3.2305-7.0117 5.7383-11.23 7.4492-4.0781 1.6602-8.3828 2.5-12.781 2.5zm-16.949-50.973c-4.5195 4.5312-7.0195 10.559-7.0195 16.969 0 5.8125 2.1016 11.422 5.9219 15.781 0.39844 0.46094 0.76172 0.85156 1.1094 1.1875 4.5195 4.5312 10.551 7.0312 16.961 7.0312s12.441-2.5 16.969-7.0312c4.5312-4.5273 7.0312-10.551 7.0312-16.969 0-6.4102-2.5-12.438-7.0312-16.969-0.53906-0.55078-1.1211-1.0703-1.7695-1.6016-4.2617-3.5-9.6484-5.4297-15.191-5.4297-6.4219 0.011719-12.449 2.5-16.969 7.0312z"/>
  <path d="m264.78 190.25c0 5.1133-4.1445 9.2578-9.2578 9.2578-5.1094 0-9.2539-4.1445-9.2539-9.2578 0-5.1094 4.1445-9.2539 9.2539-9.2539 5.1133 0 9.2578 4.1445 9.2578 9.2539"/>
  <path d="m265.73 321.75c0 5.1094-4.1445 9.2539-9.2539 9.2539-5.1133 0-9.2578-4.1445-9.2578-9.2539 0-5.1133 4.1445-9.2578 9.2578-9.2578 5.1094 0 9.2539 4.1445 9.2539 9.2578"/>
  <path d="m311.41 209.17c0 5.1133-4.1445 9.2539-9.2578 9.2539-5.1094 0-9.2539-4.1406-9.2539-9.2539 0-5.1094 4.1445-9.2539 9.2539-9.2539 5.1133 0 9.2578 4.1445 9.2578 9.2539"/>
  <path d="m219.11 302.83c0 5.1094-4.1445 9.2539-9.2539 9.2539-5.1133 0-9.2578-4.1445-9.2578-9.2539 0-5.1133 4.1445-9.2578 9.2578-9.2578 5.1094 0 9.2539 4.1445 9.2539 9.2578"/>
  <path d="m331 255.52c0 5.1133-4.1445 9.2578-9.2539 9.2578-5.1133 0-9.2578-4.1445-9.2578-9.2578 0-5.1094 4.1445-9.2539 9.2578-9.2539 5.1094 0 9.2539 4.1445 9.2539 9.2539"/>
  <path d="m199.51 256.48c0 5.1094-4.1445 9.2539-9.2578 9.2539-5.1094 0-9.2539-4.1445-9.2539-9.2539 0-5.1133 4.1445-9.2578 9.2539-9.2578 5.1133 0 9.2578 4.1445 9.2578 9.2578"/>
  <path d="m218.43 209.85c0 5.1094-4.1445 9.2539-9.2578 9.2539-5.1094 0-9.2539-4.1445-9.2539-9.2539 0-5.1133 4.1445-9.2578 9.2539-9.2578 5.1133 0 9.2578 4.1445 9.2578 9.2578"/>
  <path d="m312.08 302.15c0 5.1133-4.1445 9.2578-9.2539 9.2578-5.1133 0-9.2578-4.1445-9.2578-9.2578 0-5.1094 4.1445-9.2539 9.2578-9.2539 5.1094 0 9.2539 4.1445 9.2539 9.2539"/>
  <path d="m264.78 190.25c0 5.1133-4.1445 9.2578-9.2578 9.2578-5.1094 0-9.2539-4.1445-9.2539-9.2578 0-5.1094 4.1445-9.2539 9.2539-9.2539 5.1133 0 9.2578 4.1445 9.2578 9.2539"/>
  <path d="m265.73 321.75c0 5.1094-4.1445 9.2539-9.2539 9.2539-5.1133 0-9.2578-4.1445-9.2578-9.2539 0-5.1133 4.1445-9.2578 9.2578-9.2578 5.1094 0 9.2539 4.1445 9.2539 9.2578"/>
  <path d="m311.41 209.17c0 5.1133-4.1445 9.2539-9.2578 9.2539-5.1094 0-9.2539-4.1406-9.2539-9.2539 0-5.1094 4.1445-9.2539 9.2539-9.2539 5.1133 0 9.2578 4.1445 9.2578 9.2539"/>
  <path d="m219.11 302.83c0 5.1094-4.1445 9.2539-9.2539 9.2539-5.1133 0-9.2578-4.1445-9.2578-9.2539 0-5.1133 4.1445-9.2578 9.2578-9.2578 5.1094 0 9.2539 4.1445 9.2539 9.2578"/>
  <path d="m331 255.52c0 5.1133-4.1445 9.2578-9.2539 9.2578-5.1133 0-9.2578-4.1445-9.2578-9.2578 0-5.1094 4.1445-9.2539 9.2578-9.2539 5.1094 0 9.2539 4.1445 9.2539 9.2539"/>
  <path d="m199.51 256.48c0 5.1094-4.1445 9.2539-9.2578 9.2539-5.1094 0-9.2539-4.1445-9.2539-9.2539 0-5.1133 4.1445-9.2578 9.2539-9.2578 5.1133 0 9.2578 4.1445 9.2578 9.2578"/>
  <path d="m218.43 209.85c0 5.1094-4.1445 9.2539-9.2578 9.2539-5.1094 0-9.2539-4.1445-9.2539-9.2539 0-5.1133 4.1445-9.2578 9.2539-9.2578 5.1133 0 9.2578 4.1445 9.2578 9.2578"/>
  <path d="m312.08 302.15c0 5.1133-4.1445 9.2578-9.2539 9.2578-5.1133 0-9.2578-4.1445-9.2578-9.2578 0-5.1094 4.1445-9.2539 9.2578-9.2539 5.1094 0 9.2539 4.1445 9.2539 9.2539"/>
  <path d="m312.81 362.99h-116.62c-1.7812 0-3.3906-0.91016-4.3008-2.4414l-57.691-96.988v-0.019532c-0.67969-1.1406-0.87109-2.4805-0.55078-3.7695 0.32812-1.3008 1.1484-2.3789 2.2891-3.0703 0.78125-0.46094 1.6602-0.69922 2.5586-0.69922 1.75 0 3.3984 0.94141 4.3008 2.4375l56.234 94.562h110.89l55.422-96-55.422-96-34.398 0.011719c-2.75 0-5-2.25-5-5.0117 0-2.75 2.25-5 5-5h37.289c1.7812 0 3.4414 0.96094 4.3281 2.5117l58.309 100.99c0.89062 1.5391 0.89062 3.4609 0 5l-58.312 101c-0.88672 1.5391-2.5469 2.4883-4.3281 2.4883zm-67.289-201.99c-2.7617 0-5-2.2383-5-5 0-2.75 2.2383-5 5-5s5 2.25 5 5c0 2.7617-2.2383 5-5 5zm-30 0h-19.328c-2.7617 0-5-2.2383-5-5 0-2.75 2.2383-5 5-5h19.328c2.7617 0 5 2.25 5 5 0 2.7617-2.2383 5-5 5z"/>
  <path d="m138.5 266c-0.26953 0-0.55078-0.019531-0.82031-0.070312l-60-10c-1.3203-0.21875-2.4688-0.94141-3.25-2.0195-0.78125-1.0898-1.0781-2.4102-0.85938-3.7305 0.39844-2.4219 2.4688-4.1797 4.9297-4.1797 0.26953 0 0.55078 0.019531 0.82031 0.070312l60 10c1.3203 0.21875 2.4688 0.94141 3.25 2.0195 0.76953 1.0898 1.0781 2.4102 0.85938 3.7305-0.39844 2.418-2.4688 4.1797-4.9297 4.1797z"/>
  <path d="m428.5 266h-60c-2.7617 0-5-2.2383-5-5s2.2383-5 5-5h60c2.7617 0 5 2.2383 5 5s-2.2383 5-5 5z"/>
  <path d="m258.5 436c-2.7617 0-5-2.2383-5-5v-70c0-2.7617 2.2383-5 5-5s5 2.2383 5 5v70c0 2.7617-2.2383 5-5 5z"/>
  <path d="m258.5 156c-2.7617 0-5-2.2383-5-5v-70c0-2.7617 2.2383-5 5-5s5 2.2383 5 5v70c0 2.7617-2.2383 5-5 5z"/>
  <path d="m256.5 292c-9.9102-0.011719-19.219-3.9805-26.191-11.18-6.9492-7.1719-10.789-16.699-10.809-26.82 0.019531-10.121 3.8594-19.648 10.809-26.82 6.9688-7.1992 16.281-11.172 26.191-11.18 9.9102 0.011719 19.219 3.9805 26.188 11.18 6.9492 7.1719 10.789 16.699 10.812 26.82-0.019531 10.121-3.8594 19.648-10.812 26.82-6.9688 7.1992-16.277 11.168-26.188 11.18zm0-66c-7.1797 0-13.941 2.8984-19.039 8.1484-5.1289 5.2891-7.9609 12.34-7.9609 19.852s2.8281 14.559 7.9609 19.852c5.1016 5.25 11.871 8.1484 19.039 8.1484 7.1719 0 13.938-2.8984 19.039-8.1484 5.1289-5.3008 7.9609-12.352 7.9609-19.852s-2.8281-14.559-7.9609-19.852c-5.1016-5.25-11.859-8.1484-19.039-8.1484z"/>
 </g>
</svg>
