<?xml version="1.0" encoding="UTF-8"?>
<svg width="512pt" height="512pt" version="1.1" viewBox="0 0 512 512" xmlns="http://www.w3.org/2000/svg">
 <g>
  <path d="m326 168c-17.645 0-32-14.355-32-32s14.355-32 32-32 32 14.355 32 32-14.355 32-32 32zm0-60c-15.438 0-28 12.562-28 28s12.562 28 28 28 28-12.562 28-28-12.562-28-28-28z"/>
  <path d="m96 236h20v20h-20z"/>
  <path d="m126 236h20v20h-20z"/>
  <path d="m156 236h20v20h-20z"/>
  <path d="m186 236h20v20h-20z"/>
  <path d="m216 236h20v20h-20z"/>
  <path d="m66 174.05c-0.18359 0-0.36719-0.023437-0.55078-0.078125-0.85938-0.24609-1.4492-1.0312-1.4492-1.9219v-76.047c0-1.1055 0.89453-2 2-2h50c1.1055 0 2 0.89453 2 2v20.562c0 0.61328-0.28125 1.1914-0.76562 1.5703-19.906 15.656-36.574 34.152-49.539 54.969-0.37109 0.60156-1.0156 0.94531-1.6953 0.94531zm2-76.047v67.262c12.453-18.625 27.898-35.309 46-49.668v-17.594z"/>
  <path d="m308.73 278h-272.73c-1.1055 0-2-0.89453-2-2 0-36.863 10.48-73.176 30.301-105.01 13.211-21.211 30.188-40.055 50.461-56 41.812-32.883 95.199-50.992 150.33-50.992h130.91c1.1055 0 2 0.89453 2 2v130c0 1.1055-0.89453 2-2 2-47.02 0-85.273 34.992-85.273 78 0 1.1055-0.89453 2-2 2zm-270.71-4h268.74c1.1445-43.688 39.66-79.016 87.246-79.98v-126.02h-128.91c-54.238 0-106.75 17.805-147.86 50.137-19.906 15.656-36.574 34.152-49.539 54.969-19.066 30.621-29.312 65.469-29.684 100.89z"/>
  <path d="m316 308h-280c-1.1055 0-2-0.89453-2-2s0.89453-2 2-2h280c1.1055 0 2 0.89453 2 2s-0.89453 2-2 2z"/>
  <path d="m266 448h-40c-1.1055 0-2-0.89453-2-2v-80c0-1.1055 0.89453-2 2-2h40c23.16 0 42 18.84 42 42s-18.84 42-42 42zm-38-4h38c20.953 0 38-17.047 38-38s-17.047-38-38-38h-38z"/>
  <path d="m226 428h-40c-1.1055 0-2-0.89453-2-2s0.89453-2 2-2h40c1.1055 0 2 0.89453 2 2s-0.89453 2-2 2z"/>
  <path d="m226 388h-40c-1.1055 0-2-0.89453-2-2s0.89453-2 2-2h40c1.1055 0 2 0.89453 2 2s-0.89453 2-2 2z"/>
  <path d="m276 406c0 5.5234-4.4766 10-10 10s-10-4.4766-10-10 4.4766-10 10-10 10 4.4766 10 10"/>
  <path d="m421 408h-115c-1.1055 0-2-0.89453-2-2s0.89453-2 2-2h115c12.684 0 23-10.316 23-23s-10.316-23-23-23h-15c-17.645 0-32-14.355-32-32s14.355-32 32-32h45c12.684 0 23-10.316 23-23v-120c0-12.684-10.316-23-23-23h-55c-1.1055 0-2-0.89453-2-2s0.89453-2 2-2h55c14.887 0 27 12.113 27 27v120c0 14.887-12.113 27-27 27h-45c-15.438 0-28 12.562-28 28s12.562 28 28 28h15c14.887 0 27 12.113 27 27s-12.113 27-27 27z"/>
  <path d="m266 218h-170c-0.66406 0-1.2852-0.32812-1.6562-0.87891-0.37109-0.55078-0.44531-1.2461-0.19922-1.8633 20.883-52.211 55.52-79.672 80.898-93.512 27.527-15.016 49.801-17.629 50.738-17.73 1.0938-0.12109 2.0859 0.66797 2.207 1.7656 0.12109 1.0977-0.66797 2.0859-1.7656 2.2109-0.22266 0.023437-22.559 2.6641-49.422 17.355-24.301 13.281-57.316 39.402-77.824 88.652h165.02v-36h-96.422c-1.1055 0-2-0.89453-2-2s0.89453-2 2-2h98.422c1.1055 0 2 0.89453 2 2v40c0 1.1055-0.89453 2-2 2z"/>
 </g>
</svg>
