<?xml version="1.0" encoding="UTF-8"?>
<svg width="512pt" height="512pt" version="1.1" viewBox="0 0 512 512" xmlns="http://www.w3.org/2000/svg">
 <g>
  <path d="m256 7.7578c-28.562 0-56.566 4.8125-83.238 14.301-3.9141 1.3945-5.957 5.6953-4.5703 9.6094 1.3867 3.918 5.707 5.9375 9.6094 4.5703 22.695-8.0781 46.457-12.348 70.676-13.113v26.164c-110.61 3.9766-199.38 95.145-199.38 206.71 0 34.863 8.7031 67.719 23.996 96.57l-22.836 13.504c-17.816-33.262-27.461-70.777-27.461-110.07 0-79.051 39.566-152.09 105.84-195.38 3.4766-2.2734 4.4609-6.9336 2.1836-10.414-2.2617-3.4766-6.9258-4.4492-10.41-2.1836-70.535 46.078-112.65 123.83-112.65 207.98 0 79.188 36.469 151.78 100.04 199.17 3.3594 2.5 8.0625 1.7695 10.527-1.5352 2.4844-3.332 1.793-8.043-1.5352-10.527-23.988-17.879-43.789-39.625-58.988-64.012l22.828-13.504c17.305 27.594 40.91 50.852 68.824 67.691 0.003906 0.003906 0.007813 0.007812 0.007813 0.007812 0.023437 0.015626 0.046874 0.019532 0.0625 0.03125 31.125 18.762 67.559 29.578 106.48 29.578 37.66 0 72.969-10.164 103.42-27.816 0.13672-0.066406 0.28125-0.09375 0.41797-0.17188 0.089844-0.050781 0.14062-0.14453 0.22656-0.19922 61.445-35.918 102.84-102.55 102.84-178.71 0-57.555-24.344-113-66.801-152.12-3.0469-2.8125-7.8086-2.6172-10.629 0.43359-2.8125 3.0547-2.6211 7.8125 0.43359 10.629 39.367 36.285 61.949 87.699 61.949 141.06 0 68.008-35.602 127.82-89.117 161.9l-13.145-22.887c16.781-10.809 31.715-24.633 43.809-41.062 2.4609-3.3477 1.7422-8.0547-1.6016-10.516-3.3594-2.4609-8.0586-1.7461-10.52 1.5977-28.332 38.5-73.676 61.484-121.29 61.484-45.883 0-88.727-20.629-117.53-56.59-2.5859-3.2344-7.3164-3.7734-10.57-1.1719-3.2461 2.6016-3.7695 7.332-1.168 10.574 11.418 14.262 24.871 26.289 39.742 35.891l-14.844 21.629c-52.605-34.25-87.48-93.539-87.48-160.85 0-105.79 86.066-191.86 191.85-191.86 29.914 0 58.586 6.7227 85.223 19.98 3.7109 1.8594 8.2422 0.33984 10.086-3.3789 1.8516-3.7188 0.33984-8.2344-3.3867-10.086-26.492-13.188-54.859-20.305-84.398-21.348v-26.316c125.11 3.9961 225.68 106.95 225.68 233.01 0 128.59-104.61 233.2-233.2 233.2-32.961 0-64.828-6.7383-94.707-20.031-3.7891-1.6992-8.2344 0.027343-9.9336 3.8125-1.6836 3.7969 0.023437 8.2422 3.8203 9.9336 31.816 14.152 65.734 21.328 100.82 21.328 136.88 0 248.24-111.36 248.24-248.24s-111.36-248.24-248.24-248.24zm-76.488 395.04c23.289 12.172 49.391 18.762 76.488 18.762 26.938 0 53.188-6.7266 76.594-18.98l13.16 22.914c-26.801 14.246-57.34 22.355-89.754 22.355-33.094 0-64.258-8.4258-91.461-23.242z"/>
  <path d="m403.36 313.6c3.9609 1.3438 8.2188-0.8125 9.5352-4.7148 5.7461-16.992 8.6602-34.789 8.6602-52.891 0-60.941-33.121-114.26-82.285-143-0.058594-0.035157-0.089844-0.097657-0.14844-0.13281-0.0625-0.035156-0.13281-0.03125-0.19922-0.066406-24.398-14.188-52.719-22.359-82.926-22.359-39.559 0-77.875 14.234-107.89 40.078-3.1523 2.7109-3.5039 7.4609-0.79297 10.609 2.7188 3.1562 7.4648 3.4961 10.609 0.79297 27.293-23.492 62.121-36.434 98.078-36.434 24.836 0 48.227 6.1484 68.895 16.848l-13.289 22.746c-16.754-8.4336-35.602-13.297-55.605-13.297-12.488 0-24.832 1.8594-36.68 5.5273-3.9688 1.2266-6.1836 5.4414-4.957 9.4102 1.2266 3.9648 5.4297 6.2109 9.4102 4.957 10.402-3.2188 21.246-4.8516 32.227-4.8516 58.027 0 105.49 45.535 108.85 102.73l-26.301-0.85156c-0.58203-6.6562-1.9492-13.199-4.1172-19.52-1.3516-3.9297-5.6328-6.0234-9.5586-4.6758-3.9297 1.3477-6.0234 5.625-4.6797 9.5547 2.418 7.043 3.6445 14.426 3.6445 21.938 0 37.406-30.434 67.84-67.844 67.84-23.426 0-44.898-11.883-57.441-31.785-2.2031-3.5078-6.832-4.5625-10.371-2.3555-3.5117 2.2148-4.5703 6.8633-2.3516 10.375 15.301 24.297 41.535 38.805 70.164 38.805 12.406 0 24.141-2.8164 34.719-7.7227l13.555 22.621c-14.578 7.2266-30.93 11.398-48.273 11.398-60.195 0-109.17-48.977-109.17-109.18 0-34.309 15.715-65.969 43.105-86.859 3.3047-2.5195 3.9375-7.2383 1.418-10.547-2.5117-3.293-7.2344-3.9414-10.543-1.4219-28.797 21.961-46.051 54.438-48.527 90.055h-26.551c1.1719-20.641 6.5-40.449 15.883-58.98 1.875-3.707 0.39062-8.2344-3.3203-10.109-3.7109-1.8789-8.2188-0.39062-10.109 3.3125-11.555 22.84-17.488 47.43-17.707 73.094-0.003906 0.070313-0.042968 0.13281-0.042968 0.20703 0 0.054687 0.03125 0.10156 0.03125 0.15625-0.003907 0.36719-0.03125 0.72656-0.03125 1.0938 0 24.809 5.3789 48.68 15.977 70.949 1.7969 3.7617 6.2891 5.332 10.027 3.5547 3.7539-1.7852 5.3477-6.2734 3.5625-10.027-8.7422-18.348-13.527-37.902-14.352-58.203h26.445c3.3125 65.578 57.531 117.95 123.91 117.95 22.523 0 43.602-6.1172 61.836-16.641 0.28516-0.125 0.58594-0.20312 0.85937-0.36719 0.20703-0.125 0.32031-0.32813 0.51172-0.46875 35.93-21.359 60.227-60.223 60.922-104.81 0.011719-0.12891 0.078125-0.23438 0.082032-0.36328 0.003906-0.10547-0.050782-0.19531-0.050782-0.30078 0.003906-0.42969 0.0625-0.84766 0.0625-1.2812 0-43.125-22.113-81.156-55.57-103.43l13.246-22.676c41.242 26.875 68.617 73.32 68.617 126.11 0 16.461-2.6445 32.633-7.8672 48.07-1.3281 3.9375 0.77734 8.2109 4.7148 9.5391zm-86.051 32.672-13.566-22.641c19.23-13.617 32.441-35.168 34.75-59.879l26.25 0.84766c-2.668 33.91-20.805 63.527-47.434 81.672z"/>
  <path d="m256 188.16c15.148 0 29.488 4.9023 41.461 14.176 3.2969 2.5508 8.0156 1.9414 10.555-1.3398 2.543-3.2852 1.9375-8.0117-1.3438-10.551-14.641-11.336-32.16-17.324-50.676-17.324-15.77 0-30.645 4.5156-43.34 12.348-0.09375 0.050781-0.19922 0.046875-0.28906 0.10156-0.16016 0.09375-0.24609 0.25-0.39453 0.35547-20.219 12.746-34.758 33.965-38.121 58.992-0.55078 4.1172 2.3359 7.9023 6.457 8.457 0.33984 0.042969 0.67578 0.066406 1.0078 0.066406 3.7109 0 6.9414-2.7422 7.4492-6.5195 2.3984-17.883 11.797-33.367 25.148-43.965l13.559 22.922c-7.9961 7.5742-13.02 18.262-13.02 30.121 0 22.906 18.637 41.543 41.543 41.543s41.543-18.637 41.543-41.543c0.003907-22.906-18.633-41.543-41.539-41.543-5.6367 0-11.012 1.1406-15.918 3.1836l-13.449-22.734c8.9375-4.3203 18.914-6.7461 29.367-6.7461zm26.496 67.836c0 14.613-11.887 26.496-26.496 26.496-14.613 0-26.496-11.887-26.496-26.496s11.887-26.492 26.496-26.492c14.613 0 26.496 11.883 26.496 26.492z"/>
 </g>
</svg>
