<?xml version="1.0" encoding="UTF-8"?>
<svg width="512pt" height="512pt" version="1.1" viewBox="0 0 512 512" xmlns="http://www.w3.org/2000/svg">
 <g>
  <path d="m504.24 256c0-58.742-20.895-115.73-58.84-160.48-2.7734-3.2578-7.668-3.668-10.934-0.89844-3.2734 2.7734-3.6758 7.668-0.90234 10.938 35.57 41.941 55.16 95.371 55.16 150.44 0 68.254-29.539 129.74-76.504 172.35l-32.621-30.254c-2.8125-2.6133-7.1211-2.7812-10.129-0.35938-32.539 26.102-71.773 39.902-113.46 39.902-90.738 0-166.14-66.863-179.54-153.9h36.203c13.102 68.16 72.828 118.32 143.33 118.32 71.379 0 131.93-51.043 143.95-121.36 0.38672-2.2539-0.24219-4.5625-1.7109-6.3086-1.4766-1.75-3.6445-2.7578-5.9297-2.7578h-42.652c0.83984-5.0977 1.2969-10.316 1.2969-15.629 0-43.324-29.297-81.145-71.242-91.965-4.1289-1.0547-8.3711 1.4258-9.4531 5.5742-1.0664 4.1523 1.4336 8.3828 5.5742 9.4492 27.047 6.9766 47.746 27.387 55.848 52.957h-38.961c-17.246-26.48-56.23-26.605-73.582 0.22266-2.3242 3.5977-1.2969 8.4023 2.3047 10.727 3.6055 2.332 8.4023 1.293 10.727-2.3047 11.922-18.422 39.23-17.039 49.16 2.6094 1.3164 2.6094 4 4.2578 6.9258 4.2578h46.688c0.29688 2.793 0.50391 5.6094 0.50391 8.4688 0 36.078-24.391 68.32-60.531 77.18-4.1602 1.0195-6.7031 5.2188-5.6875 9.3828 1.0195 4.1445 5.2109 6.7031 9.3867 5.6836 32.059-7.8594 56.828-31.293 67.129-61.102h37.055c-14.176 58.121-66.09 99.398-126.78 99.398-66.34 0-122.1-49.645-129.7-115.48-0.48438-4.2539-4.4102-7.3516-8.5898-6.8125-2.5664 0.29297-4.5742 1.8789-5.7539 3.9688l-37.16 0.003906c-0.26953-4.043-0.45703-8.1094-0.45703-12.219 0-40.941 13.355-79.621 38.637-111.86 2.6445-3.3711 2.0508-8.25-1.3164-10.895-3.3867-2.6484-8.2578-2.0508-10.895 1.3164-27.441 34.996-41.941 76.988-41.941 121.43 0 108.18 88.004 197.15 197.17 197.15 42.371 0 83.961-13.879 117.86-39.207l26.387 24.473c-39.691 31.453-89.805 50.309-144.27 50.309-54.766 0-107.95-19.391-149.78-54.594-3.2812-2.7617-8.1758-2.3242-10.926 0.9375-2.7656 3.2773-2.3398 8.1719 0.9375 10.934 44.617 37.559 101.35 58.238 159.77 58.238 137.39 0 248.24-112.08 248.24-248.24z"/>
  <path d="m23.273 256c0-68.844 30.07-130.77 77.738-173.42l31.617 30.898c2.8125 2.7422 7.2031 2.9531 10.266 0.51562 32.469-25.926 71.582-39.625 113.12-39.625 90.832 0 166.3 67.031 179.55 154.23h-36.09c-12.992-68.102-73.508-118.65-143.46-118.65-70.629 0-131.07 50.391-143.7 119.82-0.41797 2.2656 0.19531 4.5938 1.6758 6.3594 1.4688 1.7656 3.6523 2.7891 5.9531 2.7891h42.672c-1.0117 5.5625-1.5742 11.27-1.5742 17.086 0 43.43 30.672 82.75 73.832 92.594 4.1484 0.94141 8.332-1.6328 9.2891-5.8398 0.95312-4.1758-1.6602-8.332-5.832-9.2891-29.379-6.6992-52.113-29.855-59.332-58.242h37.574c15.48 31.785 60.523 33.137 77.805 2.0391 2.082-3.7461 0.73438-8.4688-3.0156-10.551-3.7344-2.082-8.4688-0.72656-10.547 3.0117-12.035 21.66-43.887 18.543-51.695-4.7266-1.0586-3.1602-4.0234-5.2891-7.3555-5.2891h-45.043c-0.058594-1.2344-0.16406-2.4609-0.16406-3.707 0-36.559 24.773-68.262 60.25-77.102 4.1523-1.0352 6.6797-5.2461 5.6523-9.4023-1.0391-4.1602-5.2109-6.7148-9.4102-5.6523-31.336 7.8086-55.648 30.574-66.223 59.555h-37.25c14.703-57.277 66.461-97.934 126.44-97.934 64.547 0 120.1 48.145 129.21 111.99 0.54688 3.8203 3.8164 6.6602 7.6797 6.6602h44.297c0.25781 3.9336 0.43359 7.8906 0.43359 11.891 0 41.512-13.688 80.613-39.582 113.08-2.6758 3.3477-2.1289 8.2305 1.2188 10.902 3.3555 2.6719 8.2266 2.1211 10.91-1.2266 27.703-34.738 42.969-78.332 42.969-122.75 0-107.67-87.539-197.15-197.14-197.15-42.152 0-83.555 13.738-117.36 38.82l-25.66-25.082c39.492-30.859 89.117-49.32 143-49.32 55.402 0 109.07 19.797 151.14 55.742 3.2578 2.7812 8.1523 2.3984 10.934-0.85547 2.7891-3.2578 2.4023-8.1562-0.85547-10.941-44.867-38.344-102.12-59.461-161.21-59.461-135.79 0-248.24 110.24-248.24 248.24 0 58.312 20.621 114.98 58.074 159.57 2.7461 3.2773 7.6484 3.7109 10.934 0.94922 3.2812-2.7539 3.7031-7.6484 0.94531-10.93-35.105-41.797-54.438-94.926-54.438-149.59z"/>
 </g>
</svg>
