<?xml version="1.0" encoding="UTF-8"?>
<svg width="512pt" height="512pt" version="1.1" viewBox="0 0 512 512" xmlns="http://www.w3.org/2000/svg">
 <g>
  <path d="m256.01 414.57v-0.050781 0.050781c-21.422 0-42.191-4.1875-61.738-12.461-9.3984-3.9688-18.461-8.8906-26.941-14.617-8.3906-5.6719-16.289-12.18-23.469-19.359-7.1719-7.1797-13.691-15.07-19.359-23.469-5.7305-8.4727-10.648-17.539-14.621-26.93-8.2695-19.551-12.469-40.32-12.469-61.719 0-2.2383 0.050782-4.4883 0.14063-6.6992 0.070312-1.6484 1.4492-2.9492 3.1211-2.8711 0.80078 0.03125 1.5391 0.37109 2.0898 0.96094 0.53906 0.58984 0.82031 1.3594 0.78125 2.1602-0.078125 2.1289-0.12891 4.3008-0.12891 6.4492 0 40.75 15.879 79.059 44.691 107.88 28.828 28.812 67.141 44.68 107.89 44.68 32.891 0 64.219-10.301 90.602-29.789 0 0 0-0.011718 0.011719-0.011718 1.2812-0.94922 3.25-0.64844 4.1914 0.62891 0.39062 0.53125 0.58984 1.1484 0.58984 1.8008-0.011719 0.96094-0.44922 1.8281-1.2188 2.3984-13.34 9.8594-28.062 17.531-43.73 22.781-16.227 5.4375-33.184 8.1875-50.434 8.1875zm107.64-43.262c-0.82031 0-1.5898-0.32812-2.1602-0.92969-0.5625-0.57812-0.85156-1.3398-0.83984-2.1406 0.019531-0.80078 0.35156-1.5508 0.92969-2.1016 1.1602-1.1094 3.1289-1.0703 4.2383 0.089843 1.1406 1.1992 1.1016 3.1016-0.089844 4.2383-0.55469 0.54688-1.2969 0.84375-2.0781 0.84375zm13.512-14.719c-0.67969 0-1.3516-0.23828-1.8789-0.67188-1.2891-1.0391-1.4883-2.9297-0.44922-4.2188 22.07-27.371 33.738-60.461 33.738-95.691 0-40.762-15.867-79.07-44.688-107.89-28.82-28.82-67.141-44.691-107.89-44.691-67.391-0.011719-126 43.23-145.84 107.59-0.39062 1.2617-1.5391 2.1094-2.8594 2.1094-0.30078 0-0.60156-0.039062-0.89062-0.12891-1.2617-0.39062-2.1094-1.5391-2.1094-2.8594 0-0.30078 0.039062-0.60156 0.12891-0.89062 0.011719-0.019532 0.011719-0.050782 0.019531-0.070313 4.9414-15.988 12.359-31.059 22.078-44.77 9.5898-13.531 21.18-25.43 34.461-35.379 13.422-10.059 28.25-17.879 44.07-23.238 16.359-5.5508 33.5-8.3594 50.941-8.3594 21.41 0 42.18 4.1914 61.73 12.461 9.3906 3.9688 18.461 8.8906 26.93 14.621 8.3984 5.6719 16.301 12.191 23.473 19.359 7.1797 7.1797 13.688 15.07 19.371 23.469 5.7305 8.4805 10.641 17.539 14.617 26.941 8.2695 19.551 12.461 40.32 12.461 61.73 0 18.422-3.1289 36.469-9.3086 53.648-5.9688 16.609-14.641 32.02-25.762 45.809-0.57422 0.71094-1.4258 1.1211-2.3438 1.1211zm-274.51-124.02c-0.17188 0-0.33984-0.019531-0.51172-0.050781-1.6289-0.28125-2.7305-1.8281-2.4492-3.4609v-0.011719c0.28125-1.6094 1.8398-2.7188 3.4688-2.4414 1.6289 0.28125 2.7188 1.8281 2.4492 3.4609-0.24609 1.4531-1.4844 2.5039-2.957 2.5039z"/>
  <path d="m255.99 414.57h-0.03125c-7.1016 0-14.148-1.7109-20.949-5.0781-6.5195-3.2305-12.809-7.9805-18.68-14.121-5.7188-5.9883-11.07-13.281-15.891-21.672-4.7812-8.3203-9.0508-17.73-12.711-27.988-0.26953-0.76172-0.21875-1.6211 0.14844-2.3398 0.35938-0.73047 1.0117-1.2812 1.7812-1.5312 4.6992-1.4805 8.2617-5.5703 9.0508-10.41 0.12109-0.71875 0.17969-1.4375 0.17969-2.1484-0.011719-7.2383-5.9219-13.141-13.191-13.16-1.0391 0-2.0703 0.12109-3.0508 0.35156-0.78125 0.17969-1.6211 0.039063-2.3008-0.39844-0.69141-0.4375-1.1602-1.1172-1.3203-1.9219-3.7617-18.398-5.6719-37.961-5.6719-58.141 0-21.371 2.1406-42.012 6.3516-61.352 0.17188-0.80078 0.64844-1.4805 1.3398-1.9102 0.69141-0.42188 1.5312-0.55859 2.3086-0.35938 1.0586 0.26172 2.1484 0.39062 3.2305 0.39062h0.019531c6.4688 0 11.93-4.6211 12.969-11l0.011719-0.011719c0.10938-0.67969 0.16016-1.3789 0.16016-2.1484 0-5.6914-3.6211-10.711-9.0312-12.488-0.76953-0.26172-1.4219-0.82031-1.7695-1.5508-0.35156-0.73828-0.39062-1.5898-0.10156-2.3516 3.6797-9.8398 7.9414-18.852 12.672-26.789 4.7891-8.0312 10.059-15 15.68-20.711 5.7695-5.8594 11.93-10.391 18.309-13.469 13.672-6.5898 28.41-6.3984 42.012 0.53125 6.6914 3.4102 13.121 8.4219 19.109 14.891 5.8398 6.3008 11.27 13.969 16.129 22.789 4.8281 8.75 9.1016 18.629 12.711 29.379 1.0781 3.25 2 6.1992 2.8203 9.0391l0.011719 0.039063c3.3281 11.551 5.8906 23.871 7.6289 36.609 1.7891 13.141 2.6914 26.762 2.6914 40.469 0 20.02-1.9102 39.539-5.6797 58.039-0.16016 0.78906-0.64844 1.5-1.3203 1.9297-0.67969 0.42969-1.5312 0.57031-2.3125 0.39063-1-0.23828-2.0195-0.35938-3.0273-0.35938-7.25 0.019532-13.16 5.9297-13.172 13.18-0.011718 5.7695 3.6992 10.82 9.2227 12.562 0.77734 0.23828 1.4297 0.80078 1.7891 1.5195 0.35938 0.73047 0.41016 1.5781 0.14062 2.3516-5.2188 14.688-11.641 27.5-19.07 38.051-0.92188 1.3008-2.8789 1.6484-4.1875 0.73047-0.64844-0.46094-1.0898-1.1484-1.2305-1.9375-0.12891-0.78906 0.050781-1.5898 0.51172-2.2383 6.6602-9.4609 12.5-20.871 17.352-33.93-3.1016-1.5703-5.7305-3.9609-7.5898-6.9102-1.9102-3.0508-2.9297-6.5703-2.9297-10.191 0-10.57 8.6016-19.172 19.172-19.18 0.44922 0 0.89844 0.019531 1.3281 0.050781 3.3281-17.277 5.0195-35.461 5.0195-54.051 0-25.41-3.2383-50.609-9.3711-72.852-2.6289 0.46875-5.2812 0.91016-7.8711 1.3203-0.03125 0-0.039063 0.011719-0.058594 0.011719s-0.039063 0.011718-0.070313 0.011718c-16.359 2.5703-32.988 4.0898-49.41 4.5h-0.058594c-0.14062 0-0.26953 0.011719-0.41016 0.011719h-0.078125c-0.12891 0.011719-0.26953 0.011719-0.39844 0.011719h-0.089844l-0.87891 0.019531h-0.070313c-0.23047 0.011719-0.46875 0.011719-0.69922 0.019531l-2.9883 0.039063h-0.10938-0.55859c-0.050781 0.011719-0.10156 0.011719-0.14062 0.011719h-0.9375-0.26953-0.011718c-0.078126 0.011718-0.16016 0.011718-0.23047 0l-1.5312 0.011718c-17.078 0-34.43-1.1914-51.57-3.5195-2.5781 7.8789-9.8984 13.18-18.219 13.18-0.53125 0-1.0703-0.019531-1.6094-0.070313-3.7305 18.129-5.6211 37.41-5.6211 57.301 0 18.738 1.6797 36.961 5 54.16 0.44922-0.03125 0.89844-0.050782 1.3398-0.050782 5.1797 0.011719 10.02 2.0273 13.641 5.6992 3.5703 3.6211 5.5391 8.4102 5.5391 13.461 0 1.0273-0.078125 2.0781-0.25 3.1094-0.98828 6-4.8281 11.23-10.27 13.988 6.9219 18.602 16.02 34.102 26.309 44.84 11.039 11.512 22.922 17.352 35.309 17.352 5.3516 0 10.691-1.1172 15.891-3.3398 0.37891-0.16016 0.77734-0.23828 1.1797-0.23828 1.1992 0 2.2891 0.71094 2.7617 1.8203 0.16016 0.37109 0.23828 0.76172 0.23828 1.1719 0 1.1992-0.71094 2.2891-1.8203 2.7695-5.9453 2.5156-12.086 3.8047-18.246 3.8047zm-50.238-234.9c16.551 2.25 33.301 3.4102 49.781 3.4492h0.85156 0.55078 0.12109 0.089843 0.3125l0.30859-0.011719h0.32812 0.25 0.30859 0.28125 0.28125l1.9297-0.019531c0.050781 0 0.10156 0 0.14844-0.011719l0.89844-0.011719h0.10938l0.53125-0.011718c0.14844 0 0.30078 0 0.46094-0.011719l0.55078-0.011719h0.058594l1.0703-0.019531c0.17188-0.011719 0.33984-0.011719 0.5-0.011719 12.609-0.30859 25.379-1.2812 37.961-2.8906h0.050781c0.14844-0.019531 0.30078-0.039063 0.46094-0.058594l0.089844-0.011719c0.12891-0.019531 0.26172-0.039062 0.39062-0.050781l0.44922-0.058593c3.6094-0.48047 7.2773-1.0117 10.891-1.6016 0.03125 0 0.050781 0 0.070313-0.011719 1.8984-0.30078 3.8281-0.62891 5.7383-0.96875-0.55078-1.8086-1.1406-3.6484-1.7891-5.6094-6.9727-20.789-16.5-38.078-27.551-49.988-11.289-12.16-23.488-18.328-36.25-18.328-12.078 0-23.691 5.5586-34.512 16.512-10.051 10.191-19.031 24.961-25.98 42.711 6.3281 3.3203 10.262 9.8203 10.262 16.969zm83.898 220.35c-0.83984 0-1.6484-0.35938-2.2109-0.98047-0.55078-0.58984-0.82031-1.3594-0.78906-2.1602 0.039062-0.80078 0.39062-1.5391 0.98047-2.0781 1.1719-1.0703 3.1602-0.98047 4.2383 0.19141 1.1094 1.2305 1.0273 3.1289-0.19922 4.2383-0.54688 0.50781-1.2695 0.78906-2.0195 0.78906z"/>
  <path d="m411.57 259.01h-311.16c-1.6484 0-3-1.3516-3-3 0-1.6602 1.3516-3 3-3h311.16c1.6602 0 3 1.3398 3 3 0 1.6484-1.3398 3-3 3z"/>
  <path d="m255.99 414.57c-1.6484 0-3-1.3398-3-3v-311.14c0-1.6602 1.3516-3 3-3 1.6602 0 3 1.3398 3 3v311.14c0 1.6602-1.3398 3-3 3z"/>
  <path d="m186.59 198.78c-10.57 0-19.172-8.5898-19.172-19.148 0-0.32031 0.011719-0.64844 0.019531-0.96875-12.828-3.0117-25.781-6.6992-38.512-10.98-0.76172-0.25-1.3789-0.78906-1.7305-1.5117-0.35937-0.71094-0.42187-1.5312-0.16016-2.2812 0.41016-1.2305 1.5508-2.0508 2.8398-2.0508 0.32812 0 0.64844 0.050781 0.96094 0.16016 12.52 4.2109 25.262 7.8398 37.852 10.789 1.3594-3.5781 3.75-6.6406 6.8984-8.8516 3.2305-2.2695 7.0391-3.4688 11-3.4688 10.57 0 19.16 8.5898 19.16 19.16v0.039063c16.828 2.2891 33.859 3.4414 50.641 3.4414 41.5 0 83.461-7.1016 124.71-21.109 0.32031-0.10938 0.64062-0.16016 0.96875-0.16016 1.2812 0 2.4297 0.82031 2.8398 2.0391 0.52734 1.5586-0.3125 3.2695-1.8789 3.8008-20.961 7.1211-42.262 12.531-63.301 16.09-20.98 3.5508-42.289 5.3398-63.328 5.3398h-0.011719c-17.102 0-34.449-1.1797-51.578-3.5195-2.5781 7.8906-9.8984 13.191-18.219 13.191zm-0.011719-32.312c-6.2188 0-11.629 4.3984-12.871 10.461h-0.058593l0.050781 0.011718c-0.19141 0.94141-0.28125 1.8203-0.28125 2.6914 0.011719 7.2383 5.9219 13.141 13.172 13.148h0.019531c6.4805 0 11.941-4.6289 12.98-11.012 0.10938-0.67188 0.16016-1.3711 0.16016-2.1406-0.011719-7.25-5.9102-13.148-13.16-13.16z"/>
  <path d="m382.07 346.89c-0.32812 0-0.64844-0.050781-0.96094-0.16016-13.359-4.5195-26.711-8.3203-39.672-11.301h-0.011719c-0.78906-0.17969-1.4492-0.66016-1.8789-1.3398-0.42188-0.67969-0.55859-1.4805-0.37891-2.2617 0.32031-1.3711 1.5195-2.3281 2.9219-2.3281 0.23047 0 0.46094 0.019531 0.67969 0.078125 13.199 3.0273 26.75 6.8906 40.262 11.469 1.5703 0.53125 2.4102 2.2383 1.8789 3.8086-0.41016 1.2227-1.5508 2.0352-2.8398 2.0352zm-252.19 0c-1.2891 0-2.4297-0.82031-2.8398-2.0391-0.26172-0.76172-0.19922-1.5781 0.16016-2.2891 0.35938-0.71875 0.96875-1.2617 1.7305-1.5117 13.34-4.4688 26.898-8.3008 40.281-11.391 1.6094-0.37891 3.2305 0.64844 3.6016 2.2383 0.17969 0.78906 0.050781 1.5898-0.37891 2.2695-0.42188 0.67969-1.0898 1.1484-1.8711 1.3281-13.23 3.0586-26.59 6.8398-39.719 11.238-0.3125 0.10547-0.63281 0.15625-0.96484 0.15625zm71.781-17.281c-1.4805 0-2.7617-1.1016-2.9688-2.5703-0.12109-0.78906 0.078125-1.5781 0.55859-2.2227 0.48047-0.64844 1.1797-1.0586 1.9688-1.1797 18.309-2.6719 36.84-4.0195 55.09-4.0195 18.102 0 36.418 1.3281 54.449 3.9375 1.6289 0.23828 2.7695 1.7695 2.5391 3.3984-0.23828 1.6094-1.7812 2.7695-3.3984 2.5391-17.75-2.5703-35.77-3.8789-53.59-3.8789-17.969 0-36.211 1.3281-54.211 3.9609h-0.011718c-0.14453 0.027343-0.28516 0.035156-0.42578 0.035156z"/>
  <path d="m281.09 57.449c-0.85938 0-1.6797-0.37109-2.25-1.0117l-22.82-25.91-22.918 25.691c-1.0586 1.1797-3.0391 1.3008-4.2305 0.23828-0.60156-0.53906-0.96094-1.2695-1-2.0703-0.050782-0.80078 0.21875-1.5703 0.76172-2.1719l25.172-28.199c0.57031-0.64062 1.3789-1.0117 2.2305-1.0117h0.019532c0.85156 0.011719 1.6719 0.37891 2.2383 1.0195l25.051 28.441c1.0898 1.2383 0.96875 3.1406-0.26953 4.2383-0.55469 0.48828-1.2539 0.74609-1.9844 0.74609z"/>
  <path d="m378.5 97.012c-1.4219 0-2.6484-1.0195-2.9414-2.4102l-6.8086-33.852-32.672 10.789h-0.011719c-0.30859 0.10156-0.61719 0.14844-0.9375 0.14844-1.3008 0-2.4414-0.82812-2.8516-2.0586-0.25-0.76172-0.19141-1.5703 0.17188-2.2891 0.35938-0.71094 0.98047-1.25 1.7383-1.5l35.891-11.84c0.80078-0.26953 1.7109-0.17188 2.4492 0.25 0.73828 0.42969 1.2617 1.1602 1.4297 2l7.4883 37.16c0.32031 1.6211-0.73047 3.2109-2.3516 3.5391-0.19531 0.039062-0.39453 0.0625-0.59375 0.0625z"/>
  <path d="m443.09 179.97c-0.32031 0-0.64062-0.050781-0.94922-0.16016-0.76953-0.25-1.3789-0.78906-1.7383-1.5117-0.35156-0.71875-0.41016-1.5312-0.14844-2.2891l11.012-32.719-33.672-7h-0.011719c-0.78125-0.17187-1.4492-0.62109-1.8906-1.2891-0.4375-0.67188-0.58984-1.4688-0.42969-2.2617 0.32812-1.5781 1.9609-2.6602 3.5508-2.3281l36.988 7.6914c0.83984 0.17969 1.5586 0.71094 1.9883 1.4492 0.42969 0.73828 0.51172 1.6406 0.23828 2.4492l-12.09 35.922c-0.41797 1.2266-1.5586 2.0469-2.8477 2.0469z"/>
  <path d="m457.55 284.1c-0.85938 0-1.6914-0.37109-2.2617-1.0117-0.53125-0.60156-0.78906-1.3789-0.73828-2.1797 0.050781-0.80078 0.41016-1.5312 1.0117-2.0625l25.91-22.828-25.66-22.891c0-0.011718-0.011719-0.011718-0.011719-0.011718-1.2383-1.1016-1.3398-3-0.23828-4.2383 1.0625-1.1914 3.0391-1.3008 4.2305-0.23828l28.188 25.16c0.64062 0.57031 1.0117 1.3906 1.0117 2.25-0.011719 0.85938-0.38281 1.6719-1.0195 2.2383l-28.438 25.059c-0.55469 0.49219-1.2539 0.75391-1.9844 0.75391z"/>
  <path d="m417.98 381.51c-1.4219 0-2.6602-1.0195-2.9375-2.4102-0.32812-1.6211 0.71875-3.2109 2.3516-3.5391l33.84-6.8086-10.75-32.66v-0.011719c-0.51953-1.5703 0.33984-3.2695 1.9102-3.7891 0.30078-0.10156 0.62109-0.14844 0.94141-0.14844 1.2891 0 2.4375 0.82812 2.8516 2.0625l11.812 35.879c0.26953 0.82031 0.17188 1.7109-0.26172 2.4492-0.42969 0.73828-1.1602 1.2617-2 1.4297l-37.16 7.4883c-0.19922 0.035156-0.39844 0.058594-0.59766 0.058594z"/>
  <path d="m370.94 458.19c-0.32031 0-0.64844-0.058594-0.96094-0.16016l-35.91-12.09c-1.5586-0.52734-2.4102-2.2383-1.8789-3.8086 0.41016-1.2188 1.5508-2.0391 2.8398-2.0391 0.32812 0 0.64844 0.050781 0.96094 0.16016l32.699 11.02 7.0195-33.68v-0.019532c0.33984-1.5781 1.9688-2.6406 3.5508-2.3086 1.6211 0.33984 2.6602 1.9297 2.3203 3.5508l-7.6992 36.988c-0.17969 0.83984-0.69922 1.5586-1.4492 1.9883-0.44922 0.26172-0.96875 0.39844-1.4922 0.39844z"/>
  <path d="m255.97 488.99h-0.019531c-0.85938-0.011719-1.6719-0.38281-2.2383-1.0195l-25.059-28.438c-0.53906-0.60156-0.80078-1.3711-0.75-2.1719 0.050781-0.80078 0.41016-1.5273 1.0117-2.0586 1.1914-1.0586 3.1797-0.92969 4.2383 0.26172l22.82 25.91 22.91-25.688c1.0586-1.1797 3.0508-1.3008 4.2383-0.23828 1.2305 1.1016 1.3398 3 0.23828 4.2383l-25.16 28.195c-0.57031 0.64062-1.3906 1.0078-2.2305 1.0078z"/>
  <path d="m140.98 458.15c-0.53125 0-1.0508-0.14063-1.5117-0.39844-0.73828-0.42969-1.2617-1.1602-1.4297-2l-7.4883-37.16c-0.32031-1.6211 0.73047-3.2109 2.3516-3.5391 1.6016-0.32031 3.2109 0.76172 3.5391 2.3516l6.8086 33.84 32.672-10.781c0.30078-0.10156 0.62109-0.14844 0.94141-0.14844 1.2891 0 2.4414 0.82812 2.8516 2.0625 0.51953 1.5703-0.33984 3.2695-1.9102 3.7891l-35.883 11.836c-0.30078 0.10156-0.62109 0.14844-0.94141 0.14844z"/>
  <path d="m93.82 381.65c-0.19922 0-0.41016-0.019532-0.60937-0.070313l-37.012-7.6797c-0.83984-0.17969-1.5586-0.71094-1.9883-1.4492-0.42969-0.73828-0.51172-1.6406-0.23828-2.4492l12.102-35.922c0.41016-1.2305 1.5508-2.0508 2.8398-2.0508 0.32031 0 0.64063 0.050781 0.96094 0.16016 1.5586 0.53125 2.4102 2.2305 1.8789 3.8008l-11.02 32.719 33.699 7c1.6211 0.33984 2.6602 1.9297 2.3203 3.5508-0.28516 1.3828-1.5234 2.3906-2.9336 2.3906z"/>
  <path d="m54.219 284.12c-0.73828 0-1.4492-0.26953-2-0.76172l-28.199-25.16c-0.64062-0.57031-1.0117-1.3906-1.0117-2.25 0.011719-0.85938 0.37891-1.6719 1.0195-2.2383l28.441-25.059c1.1914-1.0586 3.1797-0.92969 4.2305 0.26172 0.53125 0.60156 0.80078 1.3711 0.75 2.1719-0.050781 0.80078-0.41016 1.5391-1.0117 2.0703l-25.91 22.82 25.691 22.91c1.2305 1.1016 1.3398 3 0.23828 4.2383-0.56641 0.625-1.3867 0.99609-2.2383 0.99609z"/>
  <path d="m68.691 179.86c-1.3008 0-2.4414-0.82812-2.8516-2.0586l-11.84-35.879c-0.26953-0.82031-0.17969-1.7109 0.25-2.4492 0.42969-0.73828 1.1602-1.2617 2-1.4297l37.16-7.4883c1.6016-0.32031 3.2188 0.76172 3.5391 2.3516 0.32031 1.6211-0.73047 3.2109-2.3516 3.5312l-33.852 6.8203 10.781 32.66c0.011718 0 0.011718 0 0.011718 0.011719 0.51953 1.5703-0.33984 3.2695-1.9102 3.7891-0.30859 0.089844-0.61719 0.14062-0.9375 0.14062z"/>
  <path d="m133.36 96.801c-0.21094 0-0.41016-0.019531-0.62109-0.058593-0.78125-0.16016-1.4609-0.62109-1.8984-1.2891-0.44141-0.67188-0.58984-1.4688-0.42188-2.2617l7.6797-36.988c0.17969-0.83984 0.71094-1.5586 1.4492-1.9883 0.73047-0.42188 1.6406-0.51172 2.4492-0.23828l35.91 12.102c1.5703 0.51953 2.4102 2.2305 1.8906 3.8008-0.42188 1.2188-1.5586 2.0391-2.8516 2.0391-0.32031 0-0.64062-0.050781-0.96094-0.16016l-32.699-11.012-7 33.672c-0.28516 1.3828-1.5156 2.3828-2.9258 2.3828z"/>
  <path d="m326.28 348.35c-10.57-0.011718-19.172-8.6016-19.172-19.16 0-10.57 8.6016-19.172 19.172-19.172 10.559 0.011719 19.16 8.5898 19.16 19.129 0 1.0312-0.089844 2.0781-0.26172 3.1328-0.71875 4.4375-3 8.5117-6.4297 11.449-3.4609 2.9688-7.8906 4.6094-12.469 4.6211zm0-32.34c-7.25 0.019531-13.16 5.9297-13.172 13.18 0.011719 7.2383 5.9219 13.141 13.172 13.16 6.4805 0 11.938-4.6406 12.98-11.031 0.12109-0.73047 0.17969-1.4609 0.17969-2.1719-0.019531-7.2266-5.9219-13.117-13.16-13.137z"/>
  <path d="m185.7 348.44c-10.559 0-19.148-8.6016-19.16-19.16 0.011719-5.1094 2-9.9102 5.6016-13.531 3.6211-3.6289 8.4297-5.6289 13.559-5.6289 5.1797 0.011718 10.02 2.0273 13.641 5.6992 3.5703 3.6328 5.5391 8.4102 5.5508 13.461 0 1.0273-0.089844 2.0703-0.26172 3.1172-0.73047 4.4297-3.0195 8.4883-6.4492 11.43-3.4688 2.9766-7.8984 4.6133-12.48 4.6133zm0-32.316c-7.25 0.019531-13.148 5.9219-13.16 13.16 0.019532 7.2383 5.9219 13.148 13.16 13.16 6.4883 0 11.961-4.6289 13.012-11.012 0.12109-0.71875 0.17969-1.4375 0.17969-2.1484 0-7.2422-5.9219-13.141-13.191-13.16z"/>
  <path d="m255.99 443.95c-13.941 0-27.852-1.5312-41.34-4.5625-13.121-2.9492-25.949-7.3281-38.141-13.031-11.969-5.5898-23.391-12.48-33.961-20.488-10.48-7.9414-20.16-17.02-28.762-26.973-0.53125-0.60156-0.78906-1.3789-0.73047-2.1797 0.058593-0.80078 0.42969-1.5312 1.0312-2.0508 1.2109-1.0391 3.1914-0.89844 4.2305 0.30078 34.629 40.031 84.809 62.98 137.67 62.98 63.73 0 123.63-34.039 156.34-88.828h0.011719c0.53906-0.91016 1.5195-1.4727 2.5781-1.4727 0.53125 0 1.0703 0.14844 1.5312 0.42969 0.91016 0.53906 1.4609 1.4883 1.4609 2.5508 0.011719 0.55078-0.14062 1.0781-0.42188 1.5508v0.011719c-0.011719 0.019531-0.03125 0.050781-0.039062 0.070312-16.391 27.43-39.66 50.398-67.301 66.43-14.012 8.1289-29.012 14.398-44.602 18.648-16.066 4.3945-32.738 6.6133-49.559 6.6133zm-152.18-79.809c-0.98047 0-1.9102-0.48047-2.4688-1.2891-0.44922-0.66016-0.62109-1.4609-0.48047-2.2383 0.14062-0.78906 0.57812-1.4805 1.2383-1.9297 0.51172-0.35156 1.1016-0.53906 1.7109-0.53906 0.98047 0 1.8984 0.48047 2.4609 1.2891 0 0 0.011719 0 0.011719 0.011718 0.44922 0.64844 0.62891 1.4492 0.48047 2.2383-0.14062 0.78906-0.57812 1.4688-1.2383 1.9297-0.51172 0.34766-1.1016 0.52734-1.7148 0.52734zm-10.469-17.012c-1.1016 0-2.1094-0.60156-2.6289-1.5703-7.3086-13.461-12.949-27.789-16.762-42.609-3.9297-15.25-5.9219-31.051-5.9219-46.941 0-22.641 3.9883-44.781 11.84-65.801 7.5898-20.309 18.578-39.031 32.66-55.641 13.98-16.5 30.531-30.359 49.18-41.199 19.07-11.07 39.73-18.629 61.422-22.461 1.6211-0.28906 3.1914 0.82812 3.4688 2.4414 0.14062 0.78906-0.039062 1.5781-0.5 2.2383-0.44922 0.66016-1.1406 1.0898-1.9297 1.2305-87 15.352-150.14 90.711-150.14 179.19 0 30.27 7.5898 60.25 21.949 86.68 0.23047 0.44141 0.35938 0.94141 0.35938 1.4297 0 1.1094-0.60156 2.1211-1.5703 2.6406-0.4375 0.24219-0.92578 0.37109-1.4258 0.37109zm330.87-11.168c-0.42969 0-0.85156-0.089844-1.2383-0.26953-1.5117-0.6875-2.1719-2.4805-1.4805-3.9805 0.48828-1.0703 1.5586-1.75 2.7305-1.75 0.42969 0 0.85156 0.089843 1.2383 0.26953 0.73047 0.32812 1.2891 0.92969 1.5703 1.6797 0.27734 0.75 0.25 1.5703-0.089844 2.3008-0.49219 1.0586-1.5625 1.75-2.7305 1.75zm7.3281-18.602c-0.32031 0-0.64062-0.050781-0.94141-0.14844-0.76953-0.26172-1.3789-0.78906-1.7383-1.5117-0.35938-0.72266-0.42188-1.5312-0.17188-2.2891 6.1406-18.449 9.25-37.77 9.25-57.398 0-48.602-18.93-94.301-53.289-128.67-34.367-34.359-80.059-53.289-128.66-53.289-1.6484 0-3-1.3516-3-3 0-1.6484 1.3516-3 3-3 25.371 0 49.988 4.9688 73.16 14.77 11.133 4.7109 21.871 10.539 31.922 17.328 9.9492 6.7188 19.312 14.449 27.82 22.949 8.5 8.5117 16.219 17.859 22.949 27.82 6.7812 10.051 12.609 20.789 17.32 31.922 9.8086 23.18 14.777 47.789 14.777 73.172 0 20.281-3.2188 40.23-9.5508 59.289-0.40625 1.2305-1.5469 2.0586-2.8477 2.0586zm-188.06-242.89c-1.5703 0-2.8789-1.2305-2.9883-2.8008-0.050782-0.80078 0.21094-1.5781 0.73828-2.1797 0.51953-0.60156 1.2617-0.96094 2.0508-1.0195 1.6797-0.10938 3.0898 1.1602 3.1992 2.8008 0.10938 1.6484-1.1406 3.0781-2.7891 3.1914-0.070312 0-0.14062 0.007812-0.21094 0.007812z"/>
 </g>
</svg>
