<?xml version="1.0" encoding="UTF-8"?>
<svg width="512pt" height="512pt" version="1.1" viewBox="0 0 512 512" xmlns="http://www.w3.org/2000/svg">
 <g>
  <path d="m305.61 449.3c-0.71875 0-1.4492-0.14844-2.1016-0.44922l-7.1016-3.2695c-2.5-1.1602-3.6016-4.1289-2.4492-6.6406 0.80859-1.7695 2.6016-2.9102 4.5391-2.9102 0.73047 0 1.4297 0.16016 2.0898 0.46094l5.0898 2.3398 142.26-60.98-136.94-54.773-137.35 54.941 72.449 33.371c2.5 1.1484 3.6016 4.1289 2.4492 6.6289-0.82031 1.7695-2.6016 2.9102-4.5508 2.9102-0.71875 0-1.4219-0.14844-2.0898-0.46094l-83-38.238c-1.8203-0.82812-2.9609-2.6719-2.9102-4.6602 0.050781-2.0117 1.2891-3.7773 3.1406-4.5195l150-60c1.1797-0.46875 2.5391-0.46875 3.7188 0l150 60c1.8828 0.75 3.1094 2.5508 3.1406 4.5781 0.019531 2.0312-1.1602 3.8594-3.0312 4.6602l-155.39 66.609c-0.625 0.27344-1.2852 0.40234-1.9648 0.40234zm-34.359-15.82c-0.71875 0-1.4297-0.14844-2.0898-0.46094-1.2109-0.55859-2.1289-1.5508-2.6016-2.8086-0.46094-1.25-0.41016-2.6094 0.14844-3.8203 0.82031-1.7695 2.6016-2.9102 4.5508-2.9102 0.71875 0 1.4219 0.16016 2.0898 0.46094 1.2109 0.5625 2.1289 1.5625 2.5898 2.8125 0.47266 1.25 0.41016 2.6094-0.14062 3.8203-0.81641 1.7656-2.5977 2.9062-4.5469 2.9062z"/>
  <path d="m311 322.69h-0.03125c-2.7617-0.011719-4.9883-2.2695-4.9688-5.0273l1.4688-248.38c0.011719-2.7383 2.2617-4.9688 5-4.9688h0.03125c2.75 0.019531 4.9805 2.2695 4.9688 5.0312l-1.4688 248.38c-0.019531 2.7422-2.2617 4.9688-5 4.9688z"/>
  <path d="m156.57 332.69c-0.46875 0-0.94141-0.058594-1.3906-0.1875l-105.57-30.562c-2.1211-0.62109-3.6094-2.5898-3.6094-4.8086v-132.42c0-1.5703 0.75-3.0586 2-4 1.2305-0.92969 2.8984-1.2383 4.3906-0.80859l105.57 30.559c2.1289 0.62109 3.6094 2.5898 3.6094 4.8086v132.42c0 1.5703-0.75 3.0625-1.9883 4-0.86328 0.65234-1.9336 1-3.0117 1zm-100.57-39.309 95.57 27.66v-122.02l-95.57-27.66z"/>
  <path d="m156.57 200.27c-0.46875 0-0.94141-0.070312-1.3906-0.19922l-105.57-30.559c-2.1211-0.62109-3.6094-2.5898-3.6094-4.8008 0-2.2188 1.4883-4.1914 3.6094-4.8086l105.57-30.559c0.91016-0.26172 1.8711-0.26172 2.7812 0l105.57 30.559c2.1289 0.62109 3.6094 2.5898 3.6094 4.8086 0 2.2109-1.4805 4.1797-3.6094 4.8008l-105.57 30.559c-0.44922 0.12891-0.92188 0.19922-1.3906 0.19922zm-87.59-35.559 87.59 25.352 87.59-25.352-87.59-25.359z"/>
  <path d="m156.57 332.69c-1.0781 0-2.1406-0.35156-3-1-1.25-0.9375-2-2.4375-2-4v-132.42c0-2.2188 1.4883-4.1914 3.6094-4.8086l105.57-30.559c1.4883-0.42969 3.1602-0.12109 4.3984 0.80859 1.25 0.94141 1.9883 2.4297 1.9883 4v7.0586c0 0.76172-0.17188 1.5195-0.51172 2.1992l-71.781 146.15c-0.62109 1.25-1.75 2.1992-3.1016 2.5898l-33.789 9.7891c-0.44141 0.13281-0.91406 0.19141-1.3828 0.19141zm5-133.67v122.02l25.281-7.3203 69.859-142.24z"/>
  <path d="m461 382.69c-0.64062 0-1.2617-0.12109-1.8594-0.35156l-99.051-39.629c-0.44922-0.17969-0.87109-0.42188-1.25-0.71875-0.011719 0-0.019532-0.011719-0.019532-0.011719-1.5273-1.2305-2.2109-3.25-1.7188-5.1484 0.050782-0.19922 0.12109-0.41016 0.19922-0.62109 0.17969-0.44141 0.42188-0.85938 0.71094-1.2305 0.011719 0 0.011719-0.011718 0.011719-0.011718l0.023437-0.023438c1.3281-1.6719 3.75-2.3281 5.7617-1.5195l87.109 34.84-138.5-287.52-141.19 287.48 133.15-53.262c0.60156-0.23828 1.2188-0.35938 1.8594-0.35938 2.0508 0 3.8672 1.2305 4.6406 3.1406 0.48828 1.2383 0.48047 2.6016-0.050781 3.8281-0.51953 1.2305-1.5 2.1719-2.7383 2.6719l-145.23 58.102c-1.8906 0.75-4.1484 0.23047-5.5312-1.25-1.3906-1.5117-1.7188-3.7617-0.82031-5.6016l151.47-308.39c0.85156-1.7188 2.5703-2.7891 4.4805-2.7891h0.03125c1.8984 0.011719 3.6602 1.1211 4.4805 2.8281l148.53 308.38c0.91016 1.8789 0.57031 4.0703-0.85156 5.5781-0.9375 1.0234-2.2695 1.5898-3.6484 1.5898zm-126.91-50.758c-0.64062 0-1.2617-0.12109-1.8594-0.35938-2.5586-1.0195-3.8086-3.9375-2.7773-6.5 0.76172-1.9102 2.5781-3.1406 4.6406-3.1406 0.64062 0 1.2617 0.12109 1.8594 0.35937 2.5586 1.0195 3.8086 3.9375 2.7773 6.5-0.76172 1.9102-2.582 3.1406-4.6406 3.1406z"/>
  <path d="m251 67.695h20v20h-20z"/>
  <path d="m221 67.695h20v20h-20z"/>
  <path d="m191 67.695h20v20h-20z"/>
  <path d="m161 67.695h20v20h-20z"/>
  <path d="m131 67.695h20v20h-20z"/>
  <path d="m181 417.69h20v20h-20z"/>
  <path d="m151 417.69h20v20h-20z"/>
  <path d="m121 417.69h20v20h-20z"/>
  <path d="m91 417.69h20v20h-20z"/>
  <path d="m61 417.69h20v20h-20z"/>
 </g>
</svg>
