<?xml version="1.0" encoding="UTF-8"?>
<svg width="512pt" height="512pt" version="1.1" viewBox="0 0 512 512" xmlns="http://www.w3.org/2000/svg">
 <g>
  <path d="m151.81 196.61-0.003906 120.3 104.2 60.152 104.2-60.148v-120.31l-104.2-60.16zm188.66 108.92-84.465 48.758-84.465-48.762v-97.527l84.465-48.77 84.465 48.77z"/>
  <path d="m387.15 175.34-131.15-75.719-136.09 78.566-0.003906 157.14 131.15 75.719c1.5547 0.90234 3.25 1.3203 4.9258 1.3203 3.4102 0 6.7227-1.7734 8.5547-4.9297 2.7188-4.7188 1.1055-10.754-3.6094-13.477l-121.29-70.031 0.003906-134.36 116.36-67.172 121.29 70.027c4.7109 2.7188 10.754 1.1016 13.473-3.6094 2.7266-4.7188 1.1094-10.75-3.6133-13.477z"/>
  <path d="m419.38 156.74-163.38-94.316-168.3 97.168-0.011719 194.34 163.38 94.324c1.5547 0.90234 3.25 1.3242 4.9258 1.3242 3.4102 0 6.7227-1.7734 8.5547-4.9375 2.7188-4.7148 1.1055-10.754-3.6094-13.473l-153.52-88.633 0.011719-171.55 148.57-85.77 153.51 88.617c4.7266 2.7305 10.754 1.1055 13.477-3.6094 2.7227-4.7227 1.1094-10.746-3.6094-13.477z"/>
  <path d="m451.27 138.33-195.27-112.73-200.19 115.58-0.011719 231.16 195.27 112.74c1.5586 0.89844 3.2539 1.3203 4.9258 1.3203 3.4102 0 6.7227-1.7734 8.5547-4.9297 2.7188-4.7188 1.1055-10.754-3.6094-13.48l-185.41-107.04 0.011718-208.38 180.46-104.19 185.41 107.04c4.7188 2.7227 10.754 1.1055 13.477-3.6094 2.7227-4.7188 1.1055-10.75-3.6172-13.473z"/>
 </g>
</svg>
