<?xml version="1.0" encoding="UTF-8"?>
<svg width="512pt" height="512pt" version="1.1" viewBox="0 0 512 512" xmlns="http://www.w3.org/2000/svg">
 <path d="m259.32 25.816-198.57 114.64v229.77l197.8 114.21 0.76953 0.44141 198.29-114.2 0.76953-0.44531v-229.77l-198.29-114.21zm-4.7695 228.01h-78.508c-0.70703 0-1.2812 0.57422-1.2812 1.2812s0.57422 1.2812 1.2812 1.2812h78.52l-190.75 110.59 0.003906-223.28zm47.641 72.883-39.363-68.098 191.2 110.59-193.43 111.4v-220.71l39.367 68.105c0.24219 0.41016 0.67188 0.64062 1.1094 0.64062 0.21875 0 0.44141-0.0625 0.64062-0.17578 0.62109-0.35156 0.82422-1.1328 0.47266-1.7422zm-38.098-70.32h78.992c0.70703 0 1.2812-0.57422 1.2812-1.2812s-0.57422-1.2812-1.2812-1.2812h-78.973l191.2-110.12v223.27zm-1.2656-4.7773 39.363-67.859c0.35156-0.61328 0.14844-1.3945-0.46484-1.75-0.60547-0.35156-1.3945-0.15234-1.7461 0.46484l-39.371 67.887-0.003907-220.26 193.42 111.39zm-4.7852-1.293-39.133-67.855c-0.36328-0.61328-1.1523-0.82031-1.75-0.47266-0.60938 0.35156-0.82031 1.1367-0.47266 1.75l39.137 67.867-190.73-110.11 192.95-111.39zm-2.207 8.2891-39.141 68.102c-0.34766 0.60937-0.13672 1.3945 0.47266 1.75 0.20313 0.10937 0.41797 0.16797 0.64063 0.16797 0.44141 0 0.875-0.23047 1.1094-0.64453l39.133-68.082v220.69l-192.96-111.4z"/>
</svg>
