<?xml version="1.0" encoding="UTF-8"?>
<svg width="512pt" height="512pt" version="1.1" viewBox="0 0 512 512" xmlns="http://www.w3.org/2000/svg">
 <defs>
  <clipPath id="b">
   <path d="m256 94.781h161.22v322.44h-161.22z"/>
  </clipPath>
  <clipPath id="a">
   <path d="m94.781 94.781h322.44v322.44h-322.44z"/>
  </clipPath>
 </defs>
 <g>
  <g clip-path="url(#b)">
   <path d="m256 94.781c89.039 0 161.22 72.18 161.22 161.22s-72.18 161.22-161.22 161.22z"/>
  </g>
  <g clip-path="url(#a)">
   <path d="m94.992 247.7c5.8594-86.168 75.215-150.75 161.01-152.92 89.039 0 161.22 72.18 161.22 161.22s-72.18 161.22-161.22 161.22-161.22-72.18-161.22-161.22zm12.688 8.2969c0 81.914 66.406 148.32 148.32 148.32s148.32-66.406 148.32-148.32-66.406-148.32-148.32-148.32-148.32 66.406-148.32 148.32z"/>
  </g>
 </g>
</svg>
