<?xml version="1.0" encoding="UTF-8"?>
<svg width="512pt" height="512pt" version="1.1" viewBox="0 0 512 512" xmlns="http://www.w3.org/2000/svg">
 <g>
  <path d="m256.01 342.86c-7.75 0-15.441-1.0195-22.852-3.0391-7.1914-1.9609-14.109-4.8398-20.578-8.5781-12.75-7.3828-23.5-17.949-31.078-30.57-0.85156-1.4219-0.39062-3.2695 1.0312-4.1211 0.46094-0.28125 1-0.42969 1.5391-0.42969 1.0586 0 2.0312 0.53906 2.5703 1.4609 14.781 24.59 40.719 39.277 69.371 39.277 21.59 0 41.891-8.4102 57.16-23.688 15.27-15.27 23.68-35.578 23.68-57.172 0-21.59-8.4102-41.898-23.68-57.18-15.27-15.27-35.57-23.68-57.16-23.68-21.602 0-41.91 8.4102-57.18 23.68-15.27 15.281-23.68 35.59-23.68 57.18 0 1.6875 0.050781 3.4102 0.16016 5.1094v0.16016c0.019532 1.5898-1.2109 2.9219-2.8086 3.0195-1.6484 0.10938-3.0781-1.1719-3.1797-2.8125-0.10938-1.7891-0.17188-3.6406-0.17188-5.4805 0-11.719 2.3008-23.102 6.8281-33.809 4.3711-10.34 10.629-19.629 18.609-27.609 7.9688-7.9805 17.262-14.238 27.609-18.609 10.711-4.5312 22.078-6.8281 33.809-6.8281s23.102 2.3008 33.801 6.8281c10.34 4.3711 19.629 10.641 27.609 18.609 7.9688 7.9805 14.23 17.27 18.602 27.609 4.5312 10.711 6.8281 22.09 6.8281 33.809s-2.3008 23.102-6.8281 33.809c-4.3711 10.34-10.629 19.629-18.602 27.602-7.9805 7.9805-17.27 14.25-27.609 18.621-10.703 4.5312-22.074 6.832-33.801 6.832zm-80.102-58.938c-1.3086 0-2.4609-0.85156-2.8516-2.1016l-0.011719-0.011718c-0.48828-1.5781 0.39844-3.2695 1.9688-3.7617 0.28906-0.089844 0.58984-0.14062 0.89062-0.14062 1.3281 0 2.4805 0.85156 2.8711 2.1094 0.48828 1.5898-0.39844 3.2695-1.9688 3.7617-0.28906 0.09375-0.59766 0.14453-0.89844 0.14453z"/>
  <path d="m339.85 259h-167.72c-1.6602 0-3-1.3516-3-3s1.3398-3 3-3h167.72c1.6484 0 3 1.3516 3 3 0.003906 1.6484-1.3477 3-2.9961 3z"/>
  <path d="m256.01 342.86c-1.6484 0-3-1.3516-3-3v-167.72c0-1.6602 1.3516-3 3-3 1.6602 0 3 1.3398 3 3v167.72c0 1.6523-1.3398 3-3 3z"/>
  <path d="m256.21 220.19h-0.039063c-22.59 0-45.531-3.9102-68.219-11.629h-0.011719c-1.5703-0.53125-2.4102-2.2383-1.8789-3.8086 0.42188-1.2109 1.5586-2.0312 2.8398-2.0312 0.32812 0 0.64844 0.050782 0.96875 0.16016 22.07 7.5 44.379 11.309 66.309 11.309 21.93 0 44.121-3.8086 65.941-11.309 0.32031-0.10937 0.64844-0.16016 0.98047-0.16016 1.2812 0 2.4219 0.80859 2.8281 2.0312 0.53906 1.5586-0.30078 3.2695-1.8594 3.8086-22.449 7.707-45.281 11.629-67.859 11.629z"/>
  <path d="m188.9 308.99c-1.2812 0-2.4219-0.82031-2.8398-2.0312-0.26172-0.76172-0.19922-1.5781 0.14844-2.3008 0.35156-0.72266 0.96875-1.25 1.7188-1.5117 22.691-7.7305 45.648-11.648 68.238-11.648h0.03125c22.59 0 45.43 3.9219 67.879 11.648 1.5586 0.53906 2.3906 2.25 1.8516 3.8125-0.41016 1.2109-1.5508 2.0312-2.8281 2.0312-0.32812 0-0.66016-0.0625-0.98047-0.17188-21.812-7.5117-44-11.32-65.941-11.328-21.93 0.011719-44.25 3.8203-66.309 11.34-0.30859 0.10156-0.63672 0.16016-0.96875 0.16016z"/>
  <path d="m256.04 342.86h-0.050781c-6.4414 0-12.898-2.5117-18.68-7.2695-5.4492-4.4883-10.32-10.859-14.469-18.922-8.3594-16.27-12.969-37.812-12.98-60.672 0-15.211 2.0898-30.172 6.0391-43.238 0.46094-1.5391 2.1914-2.4688 3.7383-2.0117 1.5781 0.48047 2.4805 2.1602 2 3.7383-3.7812 12.52-5.7812 26.879-5.7812 41.512-0.03125 16.352 2.4609 32.219 7.2188 45.891 4.5 12.949 10.91 23.27 18.039 29.062 4.7812 3.9219 9.7891 5.8984 14.891 5.9102 5.1016-0.011719 10.109-1.9883 14.879-5.9102 4.7383-3.8984 9.2188-9.7891 12.941-17.031 7.9375-15.422 12.309-35.988 12.309-57.922 0.03125-16.352-2.4609-32.23-7.2188-45.898-4.5-12.949-10.91-23.27-18.031-29.051-4.7812-3.9219-9.7812-5.9102-14.879-5.9102-5.3594 0-10.602 2.1914-15.59 6.5-1.2109 1.0508-3.1914 0.89844-4.2305-0.30078-0.46875-0.55078-0.73047-1.2383-0.73047-1.9609-0.011719-0.87109 0.37109-1.6992 1.0312-2.2695 6-5.2188 12.738-7.9688 19.5-7.9688h0.050781c6.4375 0 12.891 2.5117 18.66 7.2695 5.4492 4.4883 10.32 10.859 14.469 18.922 8.3516 16.27 12.961 37.809 12.969 60.672-0.039062 17.25-2.6406 33.801-7.5312 47.871-4.8398 13.93-11.719 24.898-19.91 31.711-5.7617 4.7578-12.211 7.2773-18.652 7.2773zm-29.711-144.72h-0.011719c-0.48828 0-0.98828-0.12109-1.4219-0.35938-1.4609-0.78906-2-2.6211-1.2109-4.0703 0.53125-0.96875 1.5391-1.5703 2.6406-1.5703 0.5 0 0.98828 0.12891 1.4297 0.35938 1.4492 0.78906 1.9883 2.6211 1.2109 4.0703-0.52344 0.96875-1.5352 1.5703-2.6367 1.5703z"/>
  <path d="m270.22 454.68c-0.80078 0-1.5586-0.30859-2.1211-0.87109-3.2305-3.2305-7.5312-5.0117-12.09-5.0117-4.5586 0-8.8516 1.7812-12.078 5.0117-1.1211 1.1094-3.1289 1.1094-4.2383 0l-181.51-181.48c-0.57031-0.57031-0.87891-1.3281-0.87891-2.1289 0-0.8125 0.32031-1.5625 0.89062-2.1211 1.4297-1.4219 2.5781-3.0703 3.4297-4.8984 0.48047-1.0586 1.5508-1.7383 2.7188-1.7383 0.44141 0 0.85938 0.089844 1.2617 0.28125 1.5 0.69141 2.1602 2.4805 1.4609 3.9805-0.71094 1.5508-1.6094 3.0195-2.6484 4.3672l177.53 177.51c4.0586-3.1289 8.9297-4.7812 14.059-4.7812 5.1484 0 10.012 1.6484 14.078 4.7812l36.688-36.691s0.011719 0 0.011719-0.011719c1.1289-1.1211 3.1016-1.1211 4.2305 0.011719 1.1719 1.1719 1.1719 3.0781 0 4.25l-38.672 38.672c-0.56641 0.5625-1.3164 0.87109-2.1172 0.87109zm91.262-91.25c-0.80859 0-1.5586-0.30859-2.1289-0.87891-1.1602-1.1719-1.1602-3.0703 0-4.2383l88.621-88.621c1.1289-1.1289 3.1094-1.1289 4.2383 0 0.57031 0.57031 0.87891 1.3203 0.87891 2.1211s-0.30859 1.5508-0.87891 2.1211l-88.609 88.621c-0.57031 0.56641-1.3203 0.875-2.1211 0.875zm84.43-106.37c-0.089844 0-0.17969 0-0.28906-0.011719-0.80078-0.078125-1.5195-0.46094-2.0312-1.0781-0.50781-0.62109-0.75-1.3984-0.67188-2.1992v-0.011719c0.16016-1.6406 1.6211-2.8398 3.2695-2.6914 1.6484 0.16016 2.8594 1.6289 2.6992 3.2695-0.13672 1.5547-1.4258 2.7227-2.9766 2.7227zm-382.8-8.7695c-1.0391 0-1.9883-0.51953-2.5391-1.3984-0.87891-1.3984-0.46094-3.25 0.92969-4.1406 0.48828-0.30078 1.0391-0.46094 1.6016-0.46094 1.0391 0 1.9883 0.51953 2.5391 1.3984 0.89062 1.3984 0.46875 3.25-0.92969 4.1406-0.48047 0.30078-1.0391 0.46094-1.6016 0.46094zm384.24-7.8477c-0.80859 0-1.5586-0.30859-2.1289-0.87891l-175.14-175.14c-4.0117 3.0781-9.0117 4.7812-14.07 4.7812-5.1406 0-10.012-1.6602-14.07-4.7812l-46.059 46.031c0 0.011719 0 0.011719-0.011718 0.011719-1.1289 1.1289-3.1094 1.1289-4.2383 0-1.1719-1.1719-1.1719-3.0703 0-4.2383l48.059-48.031c1.1289-1.1289 3.1016-1.1289 4.2383 0 3.2305 3.2305 7.5195 5.0117 12.078 5.0117s8.8594-1.7812 12.09-5.0117c1.1094-1.1094 3.1211-1.1211 4.2383 0l177.13 177.13c1.1719 1.1719 1.1719 3.0703 0 4.2383-0.5625 0.56641-1.3125 0.87891-2.1094 0.87891zm-376.09-6.6133c-0.80078 0-1.5508-0.30859-2.1211-0.87891-0.55859-0.57031-0.87109-1.3203-0.87109-2.1211s0.30859-1.5586 0.87109-2.1211l64.82-64.82c1.1289-1.1289 3.1094-1.1289 4.2383 0 1.1719 1.1719 1.1719 3.0781 0 4.25l-64.809 64.809c-0.57031 0.57422-1.3203 0.88281-2.1289 0.88281z"/>
  <path d="m465.91 279.09c-6.1797 0-11.973-2.3984-16.328-6.7617-4.3594-4.3594-6.7695-10.16-6.7695-16.328 0-6.1719 2.4102-11.969 6.7695-16.32 4.3516-4.3594 10.148-6.7617 16.328-6.7695 12.719 0 23.078 10.359 23.09 23.09-0.011719 12.73-10.371 23.09-23.09 23.09zm0-40.18c-9.4102 0.011719-17.078 7.6797-17.102 17.09 0.019531 9.4219 7.6914 17.09 17.102 17.09 9.3984-0.019532 17.07-7.6797 17.09-17.09-0.019531-9.4102-7.6914-17.078-17.09-17.09z"/>
  <path d="m46.09 279.09c-12.73 0-23.078-10.359-23.09-23.09 0.011719-12.73 10.359-23.09 23.09-23.09 6.1797 0.011719 11.969 2.4102 16.328 6.7695 4.3516 4.3516 6.75 10.148 6.7617 16.32-0.011719 6.1719-2.4102 11.969-6.7617 16.32-4.3594 4.3594-10.148 6.7578-16.328 6.7695zm0-40.18c-9.3984 0.011719-17.07 7.6797-17.09 17.09 0.019531 9.3984 7.6914 17.07 17.09 17.09 9.4297 0 17.09-7.6719 17.09-17.09 0-9.4219-7.6602-17.09-17.09-17.09z"/>
  <path d="m256.01 69.199c-12.738-0.011719-23.109-10.359-23.109-23.09 0-6.1797 2.3984-11.98 6.7695-16.34 4.3711-4.3516 10.172-6.75 16.34-6.75 12.73 0 23.09 10.359 23.09 23.09 0 12.719-10.363 23.082-23.09 23.09zm0-40.18c-9.4219 0.011719-17.102 7.6797-17.109 17.09 0.011718 9.3984 7.6914 17.07 17.109 17.09 9.4102-0.019531 17.078-7.6914 17.09-17.09-0.011718-9.4102-7.6797-17.078-17.09-17.09z"/>
  <path d="m256.01 488.98c-6.1719 0-11.969-2.3984-16.34-6.7617-4.3711-4.3594-6.7695-10.16-6.7695-16.328 0-6.1719 2.3984-11.969 6.7695-16.328s10.172-6.7617 16.34-6.7617c12.73 0 23.09 10.359 23.09 23.09s-10.363 23.09-23.09 23.09zm0-40.18c-9.4219 0.019531-17.102 7.6797-17.109 17.09 0.011718 9.4102 7.6914 17.078 17.109 17.09 9.4102-0.011719 17.078-7.6797 17.09-17.09-0.011718-9.4102-7.6797-17.07-17.09-17.09z"/>
  <path d="m440.7 204.72c-0.80078 0-1.5625-0.32031-2.1211-0.87891l-131.44-131.41c-0.57031-0.57031-0.87891-1.3203-0.87891-2.1211 0-0.80859 0.30859-1.5586 0.87891-2.1289 1.1289-1.1289 3.1094-1.1289 4.2383 0l131.44 131.42c1.1719 1.1602 1.1719 3.0703 0 4.2383-0.57031 0.55859-1.3203 0.87891-2.1211 0.87891z"/>
  <path d="m228.39 441.65h-111.45c-1.6484 0-3-1.3516-3-3 0-1.6602 1.3516-3.0117 3-3.0117h111.45c1.6602 0 3.0117 1.3516 3.0117 3.0117-0.003906 1.6523-1.3516 3-3.0117 3z"/>
  <path d="m405.77 454.77h-118.83c-1.6484 0-3-1.3516-3-3 0-1.6602 1.3516-3 3-3h118.83c1.6484 0 3 1.3398 3 3 0 1.6523-1.3477 3-3 3z"/>
  <path d="m443.99 454.77h-21.02c-1.6602 0-3-1.3516-3-3 0-1.6602 1.3398-3 3-3h21.02c1.6484 0 3 1.3398 3 3 0 1.6523-1.3477 3-3 3z"/>
  <path d="m165.45 454.37h-79.648c-1.6484 0-3-1.3516-3-3 0-1.6602 1.3516-3 3-3h79.648c1.6484 0 3 1.3398 3 3 0 1.6484-1.3477 3-3 3z"/>
  <path d="m265.66 392.18c-0.8125 0-1.5703-0.30859-2.1289-0.89063-2.0117-2.0195-4.6797-3.1289-7.5195-3.1289-2.8516 0-5.5312 1.1094-7.5391 3.1289-0.57031 0.57813-1.3203 0.89063-2.1211 0.89063h-0.011718c-0.80078 0-1.5586-0.30859-2.1211-0.87109l-32.711-32.711c-0.57031-0.57031-0.87891-1.3203-0.87891-2.1211 0-0.80078 0.30859-1.5508 0.87891-2.1211 1.1289-1.1289 3.1094-1.1406 4.2383 0l30.77 30.77c2.7891-1.9492 6.0703-2.9688 9.4883-2.9688 3.4102 0 6.6797 1.0195 9.4688 2.9688l119.64-119.65c-1.9297-2.8008-2.9492-6.0781-2.9492-9.4805 0-3.4102 1.0195-6.6914 2.9492-9.4805l-58.941-58.949c-0.57031-0.55859-0.87891-1.3203-0.87891-2.1211 0-0.80078 0.30859-1.5508 0.87891-2.1211 1.1289-1.1289 3.1094-1.1289 4.2383 0l60.871 60.871c0.57031 0.57031 0.87891 1.3203 0.87891 2.1289 0 0.80078-0.3125 1.5508-0.87891 2.1211-2.0117 2.0117-3.1211 4.6992-3.1211 7.5508 0 2.8086 1.1406 5.5586 3.1211 7.5508 0.57031 0.57031 0.87891 1.3203 0.87891 2.1211 0 0.80859-0.3125 1.5586-0.87891 2.1211l-123.5 123.52c-0.57031 0.5625-1.3203 0.87109-2.1211 0.87109zm-91.262-71.949c-0.80078 0-1.5508-0.32031-2.1211-0.87891l-51.578-51.559c-0.57031-0.5625-0.87891-1.3203-0.87109-2.1211 0-0.8125 0.30859-1.5703 0.89062-2.1289 2-1.9883 3.1094-4.6719 3.1094-7.5391 0-2.8789-1.1094-5.5508-3.1094-7.5391-0.57812-0.57031-0.89062-1.3203-0.89062-2.1289-0.011719-0.80078 0.30078-1.5586 0.87109-2.1289l123.52-123.51c0.55859-0.57031 1.3086-0.87891 2.1094-0.87891h0.019531c0.80078 0 1.5508 0.32031 2.1211 0.89062 2.0117 2.0195 4.6797 3.1406 7.5391 3.1406 2.8398 0 5.5117-1.1211 7.5195-3.1406 1.1289-1.1484 3.1172-1.1406 4.25-0.011719l26.32 26.32c1.1719 1.1719 1.1719 3.0781 0 4.2383-1.1289 1.1406-3.1094 1.1406-4.2383 0l-24.379-24.379c-2.7891 1.9414-6.0586 2.9688-9.4688 2.9688-3.4219 0-6.6992-1.0312-9.4883-2.9688l-119.64 119.64c1.9297 2.7812 2.9492 6.0586 2.9492 9.4883 0 3.4219-1.0195 6.6992-2.9492 9.4883l49.648 49.609c0.55859 0.57031 0.87109 1.3203 0.87109 2.1289 0 0.80078-0.30859 1.5508-0.87109 2.1211-0.56641 0.5625-1.3164 0.88281-2.1289 0.88281z"/>
  <path d="m173.88 440.45c-0.80859 0-1.5586-0.3125-2.1289-0.88281l-115.72-115.74c-1.1719-1.1797-1.1719-3.0781 0-4.25 0.57031-0.5625 1.3203-0.87891 2.1289-0.87891 0.80078 0 1.5508 0.32031 2.1094 0.87891l115.73 115.75c0.55859 0.57031 0.87891 1.3203 0.87891 2.1211s-0.32031 1.5586-0.87891 2.1172c-0.57031 0.57422-1.3203 0.88281-2.1211 0.88281z"/>
 </g>
</svg>
