<?xml version="1.0" encoding="UTF-8"?>
<svg width="512pt" height="512pt" version="1.1" viewBox="0 0 512 512" xmlns="http://www.w3.org/2000/svg">
 <g>
  <path d="m285 458c-0.35156 0-0.69922-0.09375-1.0156-0.27734l-170-100c-0.48047-0.28125-0.82422-0.75391-0.94141-1.3008-0.11719-0.54688-0.003907-1.1172 0.32031-1.5742l136.92-194.57c0.63672-0.90234 1.8828-1.1211 2.7852-0.48438 0.90234 0.63672 1.1211 1.8828 0.48438 2.7852l-135.67 192.8 165.3 97.23 5.3672-99.336c0.058594-1.1055 0.98828-1.9375 2.1055-1.8906 1.1016 0.058594 1.9492 1.0039 1.8906 2.1055l-5.5469 102.62c-0.039063 0.69531-0.4375 1.3242-1.0508 1.6523-0.29687 0.16406-0.62109 0.24219-0.94531 0.24219zm7.168-132.57c-0.035157 0-0.074219 0-0.10938-0.003906-1.1016-0.0625-1.9492-1.0039-1.8906-2.1055l12.457-230.47-31.805 45.195c-0.63672 0.90234-1.8828 1.1211-2.7852 0.48438-0.90234-0.63672-1.1211-1.8828-0.48438-2.7852l35.812-50.891c0.51562-0.73047 1.4453-1.0312 2.2891-0.73828s1.3906 1.1055 1.3438 1.9961l-12.836 237.43c-0.054687 1.0625-0.9375 1.8906-1.9922 1.8906z"/>
  <path d="m445 358h-112.12c-1.1055 0-2-0.89453-2-2s0.89453-2 2-2h108.96l-77.871-165.47-222.81 84.516c-1.0352 0.39062-2.1875-0.12891-2.5781-1.1602-0.39063-1.0312 0.12891-2.1875 1.1602-2.5781l224.55-85.172c0.97656-0.36719 2.0742 0.074219 2.5195 1.0195l80 170c0.29297 0.61719 0.24609 1.3477-0.12109 1.9258-0.37109 0.57031-1.0078 0.92188-1.6914 0.92188zm-142.12 0h-187.88c-0.66797 0-1.293-0.33594-1.6641-0.89062l-40-60c-0.33984-0.50781-0.42578-1.1406-0.24219-1.7188 0.1875-0.57812 0.625-1.043 1.1953-1.2617l37.406-14.188c1.0352-0.39453 2.1875 0.12891 2.5781 1.1602 0.39062 1.0312-0.12891 2.1875-1.1602 2.5781l-35.059 13.297 38.016 57.023h186.81c1.1055 0 2 0.89453 2 2s-0.89453 2-2 2z"/>
  <path d="m75 298c-0.47266 0-0.94141-0.16797-1.3086-0.48828-0.55469-0.48047-0.80469-1.2305-0.64453-1.9453l40-180c0.11719-0.53516 0.45312-1 0.92578-1.2812s1.0391-0.35938 1.5664-0.21094l90.68 25.391c1.0625 0.29688 1.6836 1.4023 1.3867 2.4648s-1.4023 1.6875-2.4648 1.3867l-88.645-24.82-38.738 174.32 104.63-39.688c1.0312-0.39062 2.1875 0.12891 2.5781 1.1602s-0.12891 2.1875-1.1602 2.5781l-108.09 41.004c-0.23047 0.085937-0.47266 0.12891-0.71094 0.12891zm136.14-51.641c-0.80859 0-1.5664-0.49219-1.8711-1.2891-0.39063-1.0312 0.12891-2.1875 1.1602-2.5781l148.17-56.203-124.57-34.883c-1.0625-0.29688-1.6836-1.4023-1.3867-2.4648s1.4023-1.6875 2.4648-1.3867l130.43 36.52c0.83203 0.23438 1.4219 0.97266 1.4609 1.8359 0.039063 0.86328-0.48047 1.6523-1.2891 1.9609l-153.86 58.359c-0.23828 0.085937-0.48047 0.12891-0.71484 0.12891z"/>
  <path d="m435 468c-12.133 0-22-9.8672-22-22s9.8672-22 22-22 22 9.8672 22 22-9.8672 22-22 22zm0-40c-9.9258 0-18 8.0742-18 18s8.0742 18 18 18 18-8.0742 18-18-8.0742-18-18-18z"/>
  <path d="m195 88c-12.133 0-22-9.8672-22-22s9.8672-22 22-22 22 9.8672 22 22-9.8672 22-22 22zm0-40c-9.9258 0-18 8.0742-18 18s8.0742 18 18 18 18-8.0742 18-18-8.0742-18-18-18z"/>
  <path d="m385 328c-0.53125 0-1.0391-0.22266-1.4219-0.58984-0.37109-0.37109-0.57812-0.89062-0.57812-1.4102 0-0.53125 0.21094-1.0508 0.57812-1.4219 0.75-0.73828 2.0898-0.73828 2.8281 0 0.37891 0.37891 0.58984 0.89062 0.58984 1.4219 0 0.51953-0.21094 1.0391-0.58984 1.4102-0.36719 0.36719-0.875 0.58984-1.4062 0.58984z"/>
  <path d="m355 328c-0.53125 0-1.0391-0.22266-1.4102-0.58984-0.37891-0.37109-0.58984-0.89062-0.58984-1.4102 0-0.53125 0.21094-1.0508 0.58984-1.4219 0.73047-0.73828 2.0781-0.73828 2.8203 0 0.37891 0.37891 0.58984 0.89062 0.58984 1.4219 0 0.51953-0.21094 1.0391-0.57812 1.4102-0.38281 0.36719-0.89062 0.58984-1.4219 0.58984z"/>
  <path d="m325 328c-0.53125 0-1.0391-0.22266-1.4219-0.58984-0.37109-0.37109-0.57812-0.89062-0.57812-1.4102 0-0.53125 0.21094-1.0391 0.57812-1.4219 0.75-0.73828 2.0898-0.73828 2.8281 0 0.37891 0.37891 0.58984 0.89062 0.58984 1.4219 0 0.51953-0.21094 1.0391-0.57812 1.4102-0.37891 0.36719-0.88672 0.58984-1.418 0.58984z"/>
  <path d="m325 298c-0.51953 0-1.0391-0.22266-1.4219-0.58984-0.37109-0.37109-0.57812-0.89062-0.57812-1.4102 0-0.53125 0.21094-1.0391 0.57812-1.4219 0.75-0.73828 2.0898-0.73828 2.8281 0 0.37891 0.37891 0.58984 0.89062 0.58984 1.4219 0 0.51953-0.21094 1.0391-0.58984 1.4102-0.36719 0.36719-0.88672 0.58984-1.4062 0.58984z"/>
  <path d="m325 268c-0.53125 0-1.0391-0.22266-1.4102-0.58984-0.37891-0.37109-0.58984-0.89062-0.58984-1.4102 0-0.53125 0.21094-1.0391 0.57812-1.4219 0.75-0.73828 2.0898-0.73828 2.8281 0 0.37891 0.37891 0.58984 0.89062 0.58984 1.4219 0 0.51953-0.21094 1.0391-0.57812 1.4102-0.37891 0.36719-0.88672 0.58984-1.418 0.58984z"/>
  <path d="m55 436h20v20h-20z"/>
  <path d="m85 436h20v20h-20z"/>
  <path d="m115 436h20v20h-20z"/>
  <path d="m145 436h20v20h-20z"/>
 </g>
</svg>
