<?xml version="1.0" encoding="UTF-8"?>
<svg width="512pt" height="512pt" version="1.1" viewBox="0 0 512 512" xmlns="http://www.w3.org/2000/svg">
 <g>
  <path d="m256.01 342.85c-47.895 0-86.859-38.953-86.859-86.836 0-37.426 23.824-70.535 59.281-82.395 1.5703-0.52344 3.2695 0.32031 3.7969 1.8945 0.52344 1.5703-0.32031 3.2695-1.8945 3.7969-33.008 11.035-55.184 41.863-55.184 76.703 0 44.57 36.273 80.836 80.859 80.836 44.59 0 80.863-36.262 80.863-80.836 0-44.586-36.273-80.859-80.863-80.859-1.6562 0-3-1.3438-3-3s1.3438-3 3-3c47.895 0 86.863 38.965 86.863 86.859 0 47.883-38.969 86.836-86.863 86.836z"/>
  <path d="m339.88 259.01h-167.72c-1.6562 0-3-1.3438-3-3s1.3438-3 3-3h167.72c1.6562 0 3 1.3438 3 3 0 1.6602-1.3438 3-3 3z"/>
  <path d="m256.01 342.85c-1.6562 0-3-1.3438-3-3v-167.72c0-1.6562 1.3438-3 3-3s3 1.3438 3 3v167.72c0 1.6562-1.3438 3-3 3z"/>
  <path d="m256.19 220.18c-22.594 0-45.559-3.9141-68.25-11.629-1.5703-0.53516-2.4062-2.2383-1.875-3.8047 0.53516-1.5703 2.2383-2.4062 3.8047-1.875 22.07 7.5039 44.383 11.309 66.32 11.309 21.934 0 44.125-3.8047 65.961-11.309 1.5625-0.53906 3.2734 0.29687 3.8125 1.8633 0.53906 1.5664-0.29688 3.2734-1.8633 3.8125-22.461 7.7188-45.312 11.633-67.91 11.633z"/>
  <path d="m188.9 308.98c-1.25 0-2.4141-0.78516-2.8398-2.0312-0.53516-1.5664 0.30469-3.2734 1.8711-3.8086 22.676-7.7266 45.629-11.641 68.223-11.641 22.598 0 45.453 3.918 67.938 11.645 1.5664 0.53906 2.4023 2.2461 1.8633 3.8125-0.53906 1.5664-2.2461 2.4023-3.8125 1.8633-21.855-7.5117-44.059-11.316-65.988-11.316-21.934 0-44.238 3.8086-66.289 11.32-0.31641 0.10547-0.64063 0.15625-0.96484 0.15625z"/>
  <path d="m256.01 342.85c-12.703 0-24.48-9.2969-33.164-26.18-8.3555-16.25-12.961-37.789-12.961-60.652 0-22.875 4.6016-44.426 12.961-60.676 8.6836-16.887 20.461-26.184 33.164-26.184 12.695 0 24.473 9.3008 33.156 26.184 8.3633 16.258 12.969 37.805 12.969 60.676 0 22.859-4.6055 44.398-12.969 60.652-8.6875 16.883-20.461 26.18-33.156 26.18zm0-167.7c-10.344 0-20.227 8.1445-27.828 22.93-7.9297 15.418-12.293 35.992-12.293 57.934 0 21.93 4.3672 42.492 12.293 57.91 7.6055 14.785 17.484 22.926 27.828 22.926 10.336 0 20.215-8.1406 27.82-22.926 7.9336-15.422 12.305-35.984 12.305-57.91 0-21.934-4.3711-42.508-12.305-57.934-7.6055-14.785-17.484-22.93-27.82-22.93z"/>
  <path d="m241.81 454.67c-0.76953 0-1.5352-0.29297-2.1211-0.87891l-181.48-181.48c-0.5625-0.5625-0.87891-1.3242-0.87891-2.1211s0.31641-1.5586 0.87891-2.1211c3.2266-3.2266 5.0039-7.5195 5.0039-12.086s-1.7773-8.8594-5.0039-12.086c-0.5625-0.5625-0.87891-1.3242-0.87891-2.1211s0.31641-1.5586 0.87891-2.1211l131.05-131.05c1.1719-1.1719 3.0703-1.1719 4.2422 0s1.1719 3.0703 0 4.2422l-129.06 129.07c3.0977 4.0156 4.7773 8.9141 4.7773 14.07s-1.6797 10.059-4.7773 14.07l177.51 177.51c4.0156-3.0977 8.9141-4.7773 14.07-4.7773 4.1133 0 8.1562 1.0977 11.691 3.1758 1.4297 0.83984 1.9062 2.6797 1.0664 4.1055-0.83984 1.4297-2.6797 1.9062-4.1055 1.0664-2.6133-1.5352-5.6055-2.3477-8.6523-2.3477-4.5664 0-8.8555 1.7773-12.086 5.0039-0.58203 0.58984-1.3516 0.88281-2.1172 0.88281zm60.148-31.734c-0.76953 0-1.5352-0.29297-2.1211-0.87891-1.1719-1.1719-1.1719-3.0703 0-4.2422l147.75-147.75c-3.0977-4-4.7734-8.8984-4.7734-14.078s1.6797-10.078 4.7734-14.074l-177.5-177.5c-4 3.0977-8.8984 4.7734-14.078 4.7734-5.1758 0-10.074-1.6758-14.074-4.7734l-13.082 13.082c-1.1719 1.1719-3.0703 1.1719-4.2422 0s-1.1719-3.0703 0-4.2422l15.074-15.074c0.5625-0.5625 1.3242-0.87891 2.1211-0.87891h0.003906c0.79688 0 1.5625 0.32031 2.125 0.88672 3.1992 3.2227 7.4883 4.9961 12.074 4.9961 4.5898 0 8.8828-1.7734 12.078-4.9961 0.5625-0.56641 1.3242-0.88672 2.1211-0.88672h0.007812c0.79688 0 1.5586 0.31641 2.1211 0.87891l181.48 181.48c0.5625 0.5625 0.88281 1.3281 0.87891 2.1289-0.003907 0.79688-0.32031 1.5625-0.88672 2.125-3.2266 3.1992-5 7.4883-5 12.074 0 4.5898 1.7734 8.8789 5 12.078 0.56641 0.5625 0.88672 1.3242 0.88672 2.125 0.003906 0.79688-0.3125 1.5625-0.87891 2.1289l-149.74 149.74c-0.58594 0.58594-1.3555 0.87891-2.1211 0.87891z"/>
  <path d="m465.91 279.11c-12.734 0-23.094-10.371-23.094-23.117 0-12.73 10.359-23.09 23.094-23.09 12.73 0 23.09 10.359 23.09 23.09 0 12.746-10.359 23.117-23.09 23.117zm0-40.211c-9.4258 0-17.094 7.668-17.094 17.09 0 9.4375 7.668 17.117 17.094 17.117s17.09-7.6797 17.09-17.117c0-9.4219-7.668-17.09-17.09-17.09z"/>
  <path d="m46.121 279.11c-12.746 0-23.117-10.371-23.117-23.117 0-12.73 10.371-23.09 23.117-23.09 12.73 0 23.09 10.359 23.09 23.09 0 12.746-10.359 23.117-23.09 23.117zm0-40.211c-9.4375 0-17.117 7.668-17.117 17.09 0 9.4375 7.6797 17.117 17.117 17.117 9.4219 0 17.09-7.6797 17.09-17.117 0-9.4219-7.668-17.09-17.09-17.09z"/>
  <path d="m256.01 69.184c-12.746 0-23.113-10.359-23.113-23.09s10.367-23.09 23.113-23.09c12.734 0 23.094 10.359 23.094 23.09s-10.359 23.09-23.094 23.09zm0-40.18c-9.4375 0-17.113 7.668-17.113 17.09 0 9.4258 7.6758 17.09 17.113 17.09 9.4258 0 17.094-7.668 17.094-17.09s-7.668-17.09-17.094-17.09z"/>
  <path d="m256.01 489c-12.746 0-23.113-10.371-23.113-23.117 0-12.73 10.367-23.09 23.113-23.09 12.734 0 23.094 10.359 23.094 23.09 0 12.746-10.359 23.117-23.094 23.117zm0-40.207c-9.4375 0-17.113 7.6641-17.113 17.09 0 9.4375 7.6758 17.117 17.113 17.117 9.4258 0 17.094-7.6797 17.094-17.117 0-9.4258-7.668-17.09-17.094-17.09z"/>
  <path d="m436.06 208.95c-0.76953 0-1.5352-0.29297-2.1211-0.87891l-131.44-131.44c-1.1719-1.1719-1.1719-3.0703 0-4.2422s3.0703-1.1719 4.2422 0l131.44 131.44c1.1719 1.1719 1.1719 3.0703 0 4.2422-0.58594 0.58594-1.3555 0.87891-2.1211 0.87891z"/>
  <path d="m256.01 379.27c-42.855 0-81.988-21.746-104.68-58.168-0.875-1.4062-0.44531-3.2578 0.96094-4.1328s3.2578-0.44531 4.1328 0.96094c21.59 34.652 58.82 55.34 99.59 55.34 64.656 0 117.26-52.602 117.26-117.25 0-64.668-52.602-117.28-117.26-117.28-64.652 0-117.25 52.609-117.25 117.28 0 5.5039 0.38672 11.035 1.1445 16.438 0.23047 1.6406-0.91406 3.1562-2.5547 3.3867-1.6367 0.22656-3.1562-0.91406-3.3867-2.5547-0.79688-5.6797-1.2031-11.492-1.2031-17.273 0-67.977 55.289-123.28 123.25-123.28 67.965 0 123.26 55.305 123.26 123.28 0 67.969-55.293 123.26-123.26 123.26z"/>
  <path d="m228.39 441.66h-111.45c-1.6562 0-3-1.3438-3-3s1.3438-3 3-3h111.45c1.6562 0 3 1.3438 3 3 0 1.6602-1.3438 3-3 3z"/>
  <path d="m405.77 454.75h-118.82c-1.6562 0-3-1.3438-3-3s1.3438-3 3-3h118.82c1.6562 0 3 1.3438 3 3s-1.3438 3-3 3z"/>
  <path d="m443.99 454.75h-21.02c-1.6562 0-3-1.3438-3-3s1.3438-3 3-3h21.02c1.6562 0 3 1.3438 3 3s-1.3438 3-3 3z"/>
  <path d="m165.48 454.36h-79.68c-1.6562 0-3-1.3438-3-3s1.3438-3 3-3h79.676c1.6562 0 3 1.3438 3 3 0.003906 1.6562-1.3398 3-2.9961 3z"/>
 </g>
</svg>
