<?xml version="1.0" encoding="UTF-8"?>
<svg width="512pt" height="512pt" version="1.1" viewBox="0 0 512 512" xmlns="http://www.w3.org/2000/svg">
 <g>
  <path d="m253.13 309.25-0.30859 45.621 2.5117 1.0742 2.6094-1.0742 0.30859-45.672-2.7148 1.0781z"/>
  <path d="m258.87 203.47 0.30859-45.672-2.6133-1.125-2.5078 1.0234-0.30859 45.672 2.457-1.0234z"/>
  <path d="m255.13 251.5 0.87109 0.86719 0.92188-0.86719-0.87109-2.2031 2.6133-6.1445 0.20313-34.148-2.7148-1.1289-2.4062 1.0234-0.20312 34.203 2.5078 6.1953z"/>
  <path d="m256.87 260.5-0.87109-0.86719-0.92188 0.86719 0.87109 2.2031-2.6133 6.1445-0.20313 34.867 2.4062 1.0234 2.7148-1.125 0.20312-34.715-2.5078-6.1953z"/>
  <path d="m259.23 152.27 0.25391-45.723-2.5586-1.0742-2.5586 1.0742-0.25781 45.621 2.457-1.0273z"/>
  <path d="m252.77 360.45-0.25391 45.617 2.5586 1.0742 2.5586-1.0742 0.25781-45.668-2.6133 1.0742z"/>
  <path d="m254.05 412.26-1.5859-0.66406-0.30859 51.762h5.1211l0.30469-51.711-2.5586 1.0234z"/>
  <path d="m259.53 101.02 0.30859-52.379h-5.1211l-0.30469 52.379 2.5586-1.0781z"/>
  <path d="m295.63 346.57-17.203-42.293-2.0977 2.0469h-2.6133l17.203 42.242 2.7148 0.050782z"/>
  <path d="m216.57 165.94 17.203 42.242 1.8438-1.8438 2.918 0.050781-17.203-42.344h-2.8125z"/>
  <path d="m253.44 252.16 1.1758 0.46094 0.51172-1.125-1.6367-1.6914 0.050781-6.707-12.902-31.59h-2.918l-1.8438 1.8438 12.902 31.691 4.7109 4.7617z"/>
  <path d="m274.23 301.21 2.1016-2.1016-13.109-32.152-4.7109-4.7617v-2.3555l-1.125-0.46094-0.51172 1.125 1.6367 1.6914-0.050781 6.707 13.16 32.258z"/>
  <path d="m197.27 118.53 17.203 42.293 1.9453-1.8945h2.8164l-17.203-42.344h-2.7656z"/>
  <path d="m314.93 394.04-17.203-42.293-1.9961 2-2.7109-0.050782 17.203 42.289h2.7617z"/>
  <path d="m315.09 401.15-1.0781-0.050782h-1.7383l19.559 47.922 4.7109-1.9453-19.508-47.922z"/>
  <path d="m197.17 111.46h2.7656l-19.715-48.484-4.7617 1.9453 19.766 48.484z"/>
  <path d="m294.04 294.71-2.4062 1.0234 32.051 32.41 2.5078-0.97266 1.0742-2.6641-32.102-32.461z"/>
  <path d="m218.21 217.91 2.7148-1.0742-32.156-32.512-2.6094 1.0742-1.0234 2.5078 32.051 32.461z"/>
  <path d="m252.21 253.39 1.2305 0.050781v-1.2812l-2.1523-0.92188-2.5078-6.1953-23.961-24.27-2.7148 1.0742-1.0234 2.4609 24.062 24.32 6.1445 2.6094z"/>
  <path d="m259.79 258.61-1.2305-0.050781-0.050782 1.2812 2.2031 0.92188 2.5078 6.1953 24.523 24.781 2.4102-0.97266 1.125-2.6641-24.422-24.73-6.1445-2.6094z"/>
  <path d="m182.27 181.45 2.6094-1.0742-32.102-32.512-2.5586 1.0234-1.0781 2.5586 32.102 32.461z"/>
  <path d="m330.09 331.11-2.5078 0.97266 32.051 32.512 2.6094-1.0742 1.0273-2.5586-32.105-32.461z"/>
  <path d="m366.13 367.46-1.0273 0.41016-1.5859 0.66797 36.402 36.812 3.6367-3.6367-36.352-36.812z"/>
  <path d="m146.33 145 2.5625-1.0781-36.812-37.273-3.6367 3.6367 36.812 37.273z"/>
  <path d="m348.06 294.86v-2.8164l-42.086-17.766v2.918l-1.8438 1.8438 42.035 17.715z"/>
  <path d="m166.5 215.5-2.0508 1.9961v2.7148l42.035 17.715v-2.6602l2.1016-2.0508z"/>
  <path d="m251.5 255.08 1.1758-0.46094-0.46094-1.2266h-2.3555l-4.7109-4.7617-31.438-13.262-2.0977 2.0469v2.6641l31.539 13.258 6.707 0.054687z"/>
  <path d="m260.5 256.92-1.1758 0.46094 0.46094 1.2266h2.3555l4.7109 4.7617 32.152 13.52 1.8438-1.8438v-2.918l-32-13.465-6.707-0.054687z"/>
  <path d="m159.34 215.35 2.0469-1.9961-42.086-17.766-1.9961 1.9453v2.7617l42.035 17.77z"/>
  <path d="m395.27 314.73v-2.8164l-42.09-17.715v2.8164l-1.8945 1.8945 42.039 17.715z"/>
  <path d="m400.38 316.88-0.76562 0.71875-1.2305 1.2305 47.719 20.07 1.9961-4.7109-47.719-20.121z"/>
  <path d="m112.18 195.38 1.9961-1.9453-48.281-20.328-1.9961 4.7109 48.281 20.328z"/>
  <path d="m355.94 256.66-1.0742-2.6094-45.672-0.30859 1.0781 2.7148-1.0273 2.4062 45.621 0.30859z"/>
  <path d="m202.34 255.8 1.125-2.6641-45.672-0.30859-1.125 2.6133 1.0234 2.5078 45.672 0.30859z"/>
  <path d="m251.5 256.87 0.86719-0.87109-0.86719-0.92188-2.2031 0.87109-6.1445-2.6133-34.148-0.20313-1.1289 2.7148 1.0234 2.4062 34.203 0.20312 6.1953-2.5078z"/>
  <path d="m260.5 255.13-0.86719 0.87109 0.86719 0.92188 2.2031-0.87109 6.1445 2.6133 34.867 0.20313 1.0234-2.4062-1.125-2.7148-34.715-0.20312-6.1953 2.5078z"/>
  <path d="m105.47 255.08 1.0742 2.5586 45.621 0.30859-1.0273-2.5078 1.1289-2.6133-45.723-0.30469z"/>
  <path d="m407.14 256.92-1.0742-2.5586-45.668-0.25781 1.0742 2.6133-1.0234 2.5078 45.617 0.25391z"/>
  <path d="m411.65 254.41 1.0234 2.5586-0.41016 0.97266-0.66406 1.5859 51.762 0.30859v-5.1211z"/>
  <path d="m99.941 255.03 1.0781-2.5586-52.379-0.30859v5.1211l52.379 0.30469z"/>
  <path d="m306.33 238.29 42.242-17.203 0.050782-2.7148-2.0469-1.9961-42.293 17.203 2.0469 2.0977z"/>
  <path d="m206.39 273.46-42.344 17.203v2.8125l1.8945 1.9492 42.242-17.203-1.8438-1.8438z"/>
  <path d="m252.16 258.56 0.46094-1.1758-1.125-0.51172-1.6914 1.6367-6.707-0.050781-31.59 12.902v2.918l1.8438 1.8438 31.691-12.902 4.7617-4.7109z"/>
  <path d="m259.84 253.49-0.46094 1.125 1.125 0.51172 1.6914-1.6367 6.707 0.050781 32.258-13.16 0.050782-2.6094-2.1016-2.1016-32.152 13.109-4.7617 4.7109z"/>
  <path d="m160.82 297.52-1.8945-1.9453v-2.8164l-42.344 17.203v2.7656l1.9453 1.9961z"/>
  <path d="m395.98 201.78v-2.7617l-1.9453-1.9453-42.293 17.203 2 1.9961-0.050782 2.7109z"/>
  <path d="m401.15 196.91-0.050782 1.0781v1.7383l47.922-19.508-1.9453-4.7617-47.922 19.508z"/>
  <path d="m111.46 314.83v-2.7656l-48.484 19.766 1.9453 4.7109 48.484-19.715z"/>
  <path d="m324.5 184.73-32.461 32.102 2.6641 1.125 1.0234 2.4062 32.41-32.051-0.97266-2.5078z"/>
  <path d="m187.9 326.86 32.461-32.051-2.457-1.0234-1.0742-2.7148-32.512 32.156 1.0742 2.6094z"/>
  <path d="m253.39 259.79 0.050781-1.2305h-1.2812l-0.92188 2.1523-6.1953 2.5078-24.27 23.961 1.0742 2.7148 2.4609 1.0234 24.32-24.062 2.6094-6.1445z"/>
  <path d="m258.61 252.21-0.050781 1.2305 1.2812 0.050782 0.92188-2.2031 6.1953-2.5078 24.781-24.523-0.97266-2.4102-2.6641-1.125-24.73 24.422-2.6094 6.1445z"/>
  <path d="m181.45 329.73-1.0742-2.6094-32.512 32.102 1.0234 2.5586 2.5586 1.0781 32.461-32.051z"/>
  <path d="m331.11 181.91 0.97266 2.5078 32.512-32.051-1.0742-2.6094-2.5586-1.0273-32.461 32.105z"/>
  <path d="m367.87 146.89 0.66797 1.5859 36.812-36.402-3.6367-3.6367-36.812 36.402 2.5586 1.0234z"/>
  <path d="m143.92 363.11-37.273 36.812 3.6367 3.6367 37.273-36.812-2.5586-1.0742z"/>
  <path d="m279.04 207.87 17.715-42.035-1.8945-1.8945h-2.8164l-17.766 42.086h2.918z"/>
  <path d="m233.21 303.41-17.715 42.086 1.9961 2.0508h2.7148l17.715-42.035h-2.6602z"/>
  <path d="m255.08 260.5-0.46094-1.1758-1.2266 0.46094v2.3555l-4.7617 4.7109-13.262 31.438 2.0469 2.0977h2.6641l13.258-31.539 0.054687-6.707z"/>
  <path d="m256.92 251.5 0.46094 1.1758 1.2266-0.46094v-2.3555l4.7617-4.7109 13.52-32.152-1.8438-1.8438h-2.918l-13.465 32-0.054687 6.707z"/>
  <path d="m213.35 350.62-17.766 42.086 1.9453 1.9961h2.7617l17.77-42.035h-2.7148z"/>
  <path d="m298.91 160.72 17.715-42.039-1.8945-1.9453h-2.8164l-17.715 42.09h2.8164z"/>
  <path d="m317.59 112.38 1.2305 1.2305 20.07-47.719-4.7109-1.9961-20.121 47.719h2.8125z"/>
  <path d="m193.43 397.82-20.328 48.281 4.7109 1.9961 20.328-48.281h-2.7656z"/>
 </g>
</svg>
