<?xml version="1.0" encoding="UTF-8"?>
<svg width="512pt" height="512pt" version="1.1" viewBox="0 0 512 512" xmlns="http://www.w3.org/2000/svg">
 <g>
  <path d="m387.59 226.82h-51.715c0 44.543-36.352 83.457-77.312 83.457-40.957 0-77.824-38.914-77.824-83.457h-51.711c0 73.215 59.391 135.17 129.02 135.17s129.54-61.953 129.54-135.17z"/>
  <path d="m489.47 227.33h-51.711c0 98.816-80.383 179.71-179.71 179.71-99.332 0-179.71-80.383-179.71-179.71h-51.711c0 127.49 103.94 231.43 231.43 231.43 127.48 0 231.42-103.94 231.42-231.43z"/>
  <path d="m258.05 48.129c-98.816 0-179.71 80.383-179.71 179.71h51.711c0-70.656 57.344-128 128-128s128 57.344 128 128h51.711c0.003907-99.328-80.383-179.71-179.71-179.71z"/>
  <path d="m258.05 148.99c-43.52 0-78.848 35.328-78.848 78.848h51.711c0-14.848 12.289-27.137 27.137-27.137s27.137 12.289 27.137 27.137h51.711c0-43.52-35.328-78.848-78.848-78.848z"/>
 </g>
</svg>
