<?xml version="1.0" encoding="UTF-8"?>
<svg width="512pt" height="512pt" version="1.1" viewBox="0 0 512 512" xmlns="http://www.w3.org/2000/svg">
 <g>
  <path d="m326.87 416.63h-226.77c-2.6094 0-4.7266-2.1133-4.7266-4.7266l0.003906-226.77c0-2.6094 2.1133-4.7227 4.7266-4.7227h226.77c2.6094 0 4.7266 2.1133 4.7266 4.7227v226.77c-0.003906 2.6133-2.1172 4.7266-4.7266 4.7266zm-222.05-9.4492h217.32l-0.003906-217.32h-217.32z"/>
  <path d="m411.91 331.59h-226.77c-2.6094 0-4.7227-2.1133-4.7227-4.7266v-226.77c0-2.6094 2.1133-4.7266 4.7227-4.7266h226.77c2.6094 0 4.7266 2.1133 4.7266 4.7266v226.77c0 2.6133-2.1133 4.7266-4.7227 4.7266zm-222.05-9.4492h217.32v-217.32h-217.32z"/>
  <path d="m100.09 416.63c-1.2109 0-2.418-0.46094-3.3398-1.3828-1.8438-1.8438-1.8438-4.8359 0-6.6797l85.039-85.039c1.8477-1.8438 4.8359-1.8438 6.6836 0 1.8438 1.8438 1.8438 4.8359 0 6.6797l-85.039 85.039c-0.92578 0.92188-2.1328 1.3828-3.3438 1.3828z"/>
  <path d="m326.87 189.86c-1.2109 0-2.418-0.46094-3.3398-1.3828-1.8438-1.8438-1.8438-4.8359 0-6.6836l85.039-85.039c1.8438-1.8438 4.8359-1.8438 6.6797 0s1.8438 4.8359 0 6.6797l-85.039 85.039c-0.92188 0.92578-2.1328 1.3867-3.3398 1.3867z"/>
  <path d="m100.09 189.86c-1.2109 0-2.418-0.46094-3.3398-1.3828-1.8438-1.8438-1.8438-4.8359 0-6.6836l85.039-85.039c1.8477-1.8438 4.8359-1.8438 6.6836 0 1.8438 1.8438 1.8438 4.8359 0 6.6797l-85.039 85.039c-0.92578 0.92578-2.1328 1.3867-3.3438 1.3867z"/>
  <path d="m326.87 416.63c-1.2109 0-2.418-0.46094-3.3398-1.3828-1.8438-1.8438-1.8438-4.8359 0-6.6797l85.039-85.039c1.8438-1.8438 4.8359-1.8438 6.6797 0s1.8438 4.8359 0 6.6797l-85.039 85.039c-0.92188 0.92188-2.1328 1.3828-3.3398 1.3828z"/>
  <path d="m232.38 118.99h18.898v18.898h-18.898z"/>
  <path d="m232.38 147.34h18.898v18.898h-18.898z"/>
  <path d="m232.38 204.03h18.898v18.898h-18.898z"/>
  <path d="m232.38 232.38h18.898v18.898h-18.898z"/>
  <path d="m204.03 260.73h18.898v18.898h-18.898z"/>
  <path d="m147.34 260.73h18.898v18.898h-18.898z"/>
  <path d="m118.99 260.73h18.898v18.898h-18.898z"/>
  <path d="m232.38 260.73h18.898v18.898h-18.898z"/>
  <path d="m232.38 289.07h18.898v18.898h-18.898z"/>
  <path d="m232.38 345.77h18.898v18.898h-18.898z"/>
  <path d="m232.38 374.11h18.898v18.898h-18.898z"/>
  <path d="m260.73 260.73h18.898v18.898h-18.898z"/>
  <path d="m289.07 260.73h18.898v18.898h-18.898z"/>
  <path d="m345.77 260.73h18.898v18.898h-18.898z"/>
  <path d="m374.11 260.73h18.898v18.898h-18.898z"/>
 </g>
</svg>
