<?xml version="1.0" encoding="UTF-8"?>
<svg width="512pt" height="512pt" version="1.1" viewBox="0 0 512 512" xmlns="http://www.w3.org/2000/svg">
 <g fill-rule="evenodd">
  <path d="m410.16 254.44c0.015626 30.469 7.582 55.148 16.91 55.148 9.332 0 16.906-24.699 16.922-55.133-0.015625-30.469-7.5742-55.156-16.91-55.156-9.3398 0.003906-16.938 24.691-16.922 55.141z"/>
  <path d="m200.39 72.469c-77.184 32.051-130.71 102.04-130.71 183.19-0.019532 81.164 53.523 151.14 130.75 183.18-44.246-38.289-73.633-106.04-73.633-183.18 0-77.137 29.406-144.88 73.594-183.19z"/>
  <path d="m252.67 52.379c-36.18 0-65.551 91.414-65.551 204.07 0 112.72 29.367 204.08 65.578 204.09 17.875-0.011718 34.098-22.359 45.922-58.562 10.004 24.352 22.602 38.902 36.27 38.902 32.598 0.011719 59.043-82.258 59.02-183.72 0.027344-101.46-26.398-183.74-58.988-183.7-13.574 0-26.074 14.32-36.051 38.316-11.855-36.668-28.168-59.371-46.199-59.391zm132.48 204.79c0.027344 56.941-14.152 103.13-31.609 103.13-17.469 0-31.621-46.199-31.621-103.11 0-56.969 14.152-103.15 31.621-103.17 17.477 0.015625 31.629 46.188 31.609 103.15zm-89.258-137.78c-12.262 33.668-20.004 82.898-20.004 137.77-0.003906 54.391 7.5977 103.25 19.664 136.89-5.8867 7.9805-12.379 12.41-19.191 12.41-26.633-0.019531-48.199-67.16-48.199-150.01 0-82.812 21.566-149.98 48.164-149.98 6.9766 0.019531 13.598 4.6484 19.566 12.926z"/>
 </g>
</svg>
