<?xml version="1.0" encoding="UTF-8"?>
<svg width="512pt" height="512pt" version="1.1" viewBox="0 0 512 512" xmlns="http://www.w3.org/2000/svg">
 <g>
  <path d="m256 454c-0.42969 0-0.85938-0.13672-1.2188-0.41406l-183.98-141.14c-0.49219-0.37891-0.78125-0.96484-0.78125-1.5859s0.28906-1.2109 0.78125-1.5859l183.98-141.04c0.71875-0.55078 1.7148-0.55078 2.4336 0l183.98 141.04c0.49219 0.37891 0.78125 0.96484 0.78125 1.5859s-0.28906 1.207-0.78125 1.5859l-183.98 141.14c-0.35938 0.27734-0.78906 0.41406-1.2188 0.41406zm-180.7-143.14 180.7 138.62 180.7-138.62-180.7-138.52z"/>
  <path d="m256 400.09c-0.42969 0-0.85938-0.13672-1.2188-0.41406l-183.98-141.14c-0.49219-0.37891-0.78125-0.96484-0.78125-1.5859 0-0.62109 0.28906-1.207 0.78125-1.5859l183.98-141.04c0.71875-0.55078 1.7148-0.55078 2.4336 0l183.98 141.04c0.49219 0.37891 0.78125 0.96484 0.78125 1.5859 0 0.62109-0.28906 1.207-0.78125 1.5859l-183.98 141.14c-0.35938 0.27344-0.78906 0.41016-1.2188 0.41016zm-180.7-143.14 180.7 138.62 180.7-138.62-180.7-138.52z"/>
  <path d="m256 346.18c-0.42969 0-0.85938-0.13672-1.2188-0.41406l-183.98-141.14c-0.49219-0.37891-0.78125-0.96484-0.78125-1.5859 0-0.62109 0.28906-1.207 0.78125-1.5859l183.98-141.04c0.71875-0.55078 1.7148-0.55078 2.4336 0l183.98 141.04c0.49219 0.37891 0.78125 0.96484 0.78125 1.5859 0 0.62109-0.28906 1.207-0.78125 1.5859l-183.98 141.14c-0.35938 0.27344-0.78906 0.41406-1.2188 0.41406zm-180.7-143.14 180.7 138.62 180.7-138.62-180.7-138.52z"/>
  <path d="m80 141h20v20h-20z"/>
  <path d="m80 111h20v20h-20z"/>
  <path d="m80 81h20v20h-20z"/>
  <path d="m80 51h20v20h-20z"/>
  <path d="m110 51h20v20h-20z"/>
  <path d="m140 51h20v20h-20z"/>
  <path d="m410 141h20v20h-20z"/>
  <path d="m410 111h20v20h-20z"/>
  <path d="m410 81h20v20h-20z"/>
  <path d="m410 51h20v20h-20z"/>
  <path d="m380 51h20v20h-20z"/>
  <path d="m350 51h20v20h-20z"/>
  <path d="m80 351h20v20h-20z"/>
  <path d="m80 381h20v20h-20z"/>
  <path d="m80 411h20v20h-20z"/>
  <path d="m80 441h20v20h-20z"/>
  <path d="m110 441h20v20h-20z"/>
  <path d="m140 441h20v20h-20z"/>
  <path d="m410 351h20v20h-20z"/>
  <path d="m410 381h20v20h-20z"/>
  <path d="m410 411h20v20h-20z"/>
  <path d="m410 441h20v20h-20z"/>
  <path d="m380 441h20v20h-20z"/>
  <path d="m350 441h20v20h-20z"/>
 </g>
</svg>
