<?xml version="1.0" encoding="UTF-8"?>
<svg width="512pt" height="512pt" version="1.1" viewBox="0 0 512 512" xmlns="http://www.w3.org/2000/svg">
 <g>
  <path d="m256 445.57h-0.015625c-104.52 0-189.55-85.031-189.55-189.55 0-59.137 26.855-113.83 73.684-150.05 1.3086-1.0117 3.1953-0.77344 4.207 0.53906 1.0156 1.3125 0.77344 3.1953-0.53906 4.207-45.344 35.078-71.352 88.039-71.352 145.3 0 101.21 82.34 183.55 183.55 183.55h0.015625c11.969 0 23.934-1.1602 35.574-3.4453 1.6328-0.32422 3.2031 0.73828 3.5195 2.3633 0.32031 1.625-0.73828 3.2031-2.3633 3.5195-12.02 2.3672-24.375 3.5625-36.73 3.5625zm83.32-19.59c-1.1016 0-2.1602-0.60937-2.6875-1.6602-0.73828-1.4805-0.14062-3.2852 1.3438-4.0234 62.668-31.324 101.6-94.273 101.6-164.28 0-101.23-82.355-183.59-183.59-183.59-24.152 0-47.625 4.6172-69.766 13.727-1.5312 0.63281-3.2852-0.10156-3.9141-1.6328-0.62891-1.5312 0.10156-3.2852 1.6328-3.9141 22.871-9.4062 47.109-14.176 72.047-14.176 104.54 0 189.59 85.047 189.59 189.59 0 35.879-10.074 70.809-29.133 101.01-18.547 29.387-44.75 53.117-75.781 68.633-0.42969 0.21094-0.88672 0.3125-1.3398 0.3125zm-83.336-71.172c-54.473 0-98.785-44.316-98.785-98.785 0-16.715 4.25-33.23 12.285-47.77 0.80078-1.4492 2.6289-1.9766 4.0781-1.1758 1.4492 0.80078 1.9766 2.6289 1.1758 4.0781-7.5469 13.648-11.539 29.164-11.539 44.863 0 51.164 41.625 92.785 92.785 92.785 51.18 0 92.82-41.621 92.82-92.785 0-51.18-41.641-92.82-92.82-92.82-17.004 0-33.629 4.6406-48.082 13.418-1.4141 0.85938-3.2617 0.41016-4.1211-1.0078-0.85938-1.4141-0.41016-3.2617 1.0078-4.1211 15.391-9.3477 33.094-14.289 51.195-14.289 54.488 0 98.82 44.332 98.82 98.82 0 54.473-44.328 98.789-98.82 98.789z"/>
  <path d="m302.25 175.06c-0.5 0-0.99609-0.125-1.4453-0.37109-13.648-7.5195-29.145-11.492-44.816-11.492-15.668 0-31.164 3.9766-44.816 11.492-0.84375 0.46484-1.8594 0.49609-2.7305 0.085938s-1.4922-1.2148-1.668-2.1602l-17.148-91.582c-0.26953-1.4453 0.54688-2.875 1.9336-3.375 20.688-7.4492 42.363-11.23 64.43-11.23 22.102 0 43.781 3.7773 64.434 11.23 1.3867 0.5 2.2031 1.9297 1.9336 3.375l-17.148 91.582c-0.17969 0.94531-0.79688 1.75-1.668 2.1602-0.41406 0.19141-0.85156 0.28516-1.2891 0.28516zm-106.25-92.605 15.93 85.066c13.617-6.7656 28.766-10.328 44.062-10.328 15.301 0 30.445 3.5625 44.062 10.328l15.93-85.07c-19.273-6.6523-39.441-10.023-59.992-10.023-20.52 0-40.688 3.375-59.992 10.027z"/>
  <path d="m351.8 257.09c-0.60547 0-1.2031-0.18359-1.7109-0.53516-0.78906-0.55078-1.2695-1.4453-1.2891-2.4102-0.28906-15.578-4.5938-30.988-12.441-44.559-7.8516-13.59-19.039-25.012-32.367-33.035-0.82422-0.49609-1.3633-1.3594-1.4414-2.3203-0.082032-0.96094 0.30469-1.8984 1.0352-2.5273l70.746-60.676c1.1172-0.96094 2.7656-0.96484 3.8867-0.015625 16.801 14.18 30.91 31.062 41.938 50.188 11.035 19.098 18.605 39.762 22.492 61.414 0.26172 1.4492-0.57031 2.8711-1.957 3.3594l-87.898 30.941c-0.32031 0.11719-0.66016 0.17578-0.99219 0.17578zm-41.23-83.473c12.66 8.3789 23.316 19.703 30.98 32.969 7.6641 13.25 12.152 28.145 13.082 43.324l81.645-28.738c-3.8867-20.055-11.055-39.211-21.312-56.969-10.258-17.781-23.262-33.562-38.676-46.941z"/>
  <path d="m376.29 401.69c-0.69531 0-1.3945-0.23828-1.9531-0.72266l-70.746-60.672c-0.73047-0.62891-1.1172-1.5664-1.0352-2.5273 0.078125-0.96094 0.61719-1.8203 1.4414-2.3203 13.355-8.0391 24.547-19.461 32.363-33.031 7.8555-13.574 12.156-28.98 12.445-44.559 0.019531-0.96484 0.49609-1.8594 1.2891-2.4102 0.78906-0.55078 1.7969-0.68359 2.707-0.36328l87.898 30.938c1.3867 0.48828 2.2188 1.9102 1.957 3.3594-3.8906 21.688-11.453 42.352-22.492 61.418-11.062 19.184-25.176 36.066-41.938 50.184-0.5625 0.46875-1.25 0.70703-1.9375 0.70703zm-65.711-63.305 65.715 56.355c15.383-13.324 28.387-29.105 38.672-46.941 10.266-17.734 17.43-36.887 21.316-56.969l-81.645-28.738c-0.92969 15.18-5.418 30.074-13.086 43.324-7.625 13.246-18.281 24.574-30.973 32.969z"/>
  <path d="m255.98 445.57c-22.16 0-43.836-3.7773-64.434-11.23-1.3828-0.5-2.1992-1.9297-1.9297-3.3711l17.148-91.582c0.17578-0.94531 0.79688-1.75 1.668-2.1602s1.8867-0.37891 2.7305 0.085938c13.648 7.5195 29.145 11.492 44.816 11.492 15.676 0 31.172-3.9766 44.816-11.492 0.84375-0.46484 1.8555-0.49609 2.7305-0.085938 0.87109 0.41016 1.4883 1.2148 1.668 2.1602l17.148 91.582c0.26953 1.4453-0.54688 2.8711-1.9258 3.3711-20.562 7.4531-42.242 11.23-64.438 11.23zm-59.988-16.02c19.219 6.6523 39.391 10.023 59.992 10.023 20.633 0 40.805-3.3711 59.996-10.02l-15.934-85.07c-13.613 6.7695-28.762 10.328-44.062 10.328s-30.445-3.5625-44.062-10.328z"/>
  <path d="m135.68 401.69c-0.6875 0-1.375-0.23438-1.9336-0.70703-16.727-14.109-30.836-30.992-41.941-50.184-11.07-19.195-18.629-39.859-22.457-61.426-0.25781-1.4453 0.57031-2.8672 1.957-3.3555l87.895-30.938c0.90625-0.32031 1.9141-0.18359 2.707 0.36328 0.79297 0.55078 1.2695 1.4453 1.2891 2.4062 0.29297 15.57 4.5859 30.98 12.414 44.562 7.8477 13.566 19.039 24.992 32.367 33.031 0.82422 0.49609 1.3594 1.3594 1.4414 2.3203 0.078125 0.96094-0.30469 1.8984-1.0352 2.5234l-70.746 60.672c-0.56641 0.48438-1.2617 0.73047-1.957 0.73047zm-59.961-110.86c3.8359 19.973 10.992 39.129 21.285 56.969 10.324 17.84 23.328 33.617 38.68 46.941l65.715-56.355c-12.66-8.3906-23.32-19.719-30.98-32.965-7.6445-13.262-12.121-28.156-13.051-43.324z"/>
  <path d="m160.2 257.09c-0.33594 0-0.67187-0.058594-0.99609-0.17188l-87.895-30.941c-1.3867-0.48828-2.2148-1.9062-1.957-3.3555 3.832-21.531 11.387-42.195 22.457-61.418 11.07-19.129 25.184-36.012 41.941-50.188 1.125-0.94922 2.7695-0.94531 3.8906 0.011719l70.746 60.676c0.73047 0.62891 1.1172 1.5664 1.0352 2.5273-0.078125 0.96094-0.61719 1.8203-1.4414 2.3203-13.301 8.0234-24.492 19.449-32.371 33.035-7.8242 13.574-12.117 28.984-12.41 44.555-0.019531 0.96484-0.49609 1.8594-1.2891 2.4102-0.50781 0.35547-1.1055 0.53906-1.7109 0.53906zm-84.477-35.918 81.645 28.738c0.92969-15.168 5.4062-30.066 13.051-43.324 7.6875-13.266 18.348-24.59 30.984-32.969l-65.715-56.355c-15.383 13.379-28.391 29.16-38.684 46.941-10.289 17.867-17.445 37.023-21.281 56.969z"/>
  <path d="m255.98 72.43c-1.6562 0-3-1.3438-3-3v-43.426c0-1.6562 1.3438-3 3-3s3 1.3438 3 3v43.43c0 1.6562-1.3398 2.9961-3 2.9961z"/>
  <path d="m349.29 97.438c-0.50781 0-1.0234-0.12891-1.4961-0.40234-1.4375-0.82812-1.9297-2.6602-1.1016-4.0977l21.684-37.625c0.82812-1.4336 2.6602-1.9297 4.0977-1.1016 1.4375 0.82812 1.9297 2.6602 1.1016 4.0977l-21.688 37.625c-0.55078 0.96484-1.5625 1.5039-2.5977 1.5039z"/>
  <path d="m417.57 165.71c-1.0352 0-2.0469-0.53906-2.6016-1.5-0.82812-1.4336-0.33594-3.2695 1.1016-4.0977l37.625-21.715c1.4375-0.82812 3.2695-0.33594 4.0977 1.0977 0.82813 1.4336 0.33594 3.2695-1.0977 4.0977l-37.625 21.715c-0.47656 0.27344-0.99219 0.40234-1.5 0.40234z"/>
  <path d="m486 259.02h-43.43c-1.6562 0-3-1.3438-3-3s1.3438-3 3-3h43.43c1.6562 0 3 1.3438 3 3s-1.3398 3-3 3z"/>
  <path d="m455.18 374.01c-0.50781 0-1.0234-0.12891-1.4961-0.40234l-37.625-21.715c-1.4375-0.82812-1.9297-2.6641-1.1016-4.0977 0.82812-1.4336 2.6641-1.9258 4.0977-1.1016l37.625 21.715c1.4375 0.82812 1.9297 2.6641 1.1016 4.0977-0.55469 0.96484-1.5625 1.5039-2.6016 1.5039z"/>
  <path d="m370.98 458.19c-1.0352 0-2.0469-0.53906-2.6016-1.5039l-21.684-37.59c-0.82812-1.4375-0.33594-3.2695 1.1016-4.0977 1.4336-0.82422 3.2695-0.33594 4.0977 1.1016l21.688 37.59c0.82812 1.4375 0.33594 3.2695-1.1016 4.0977-0.47656 0.27344-0.99219 0.40234-1.5 0.40234z"/>
  <path d="m255.98 489c-1.6562 0-3-1.3438-3-3v-43.43c0-1.6562 1.3438-3 3-3s3 1.3438 3 3v43.43c0 1.6562-1.3398 3-3 3z"/>
  <path d="m140.99 458.19c-0.50781 0-1.0234-0.12891-1.4961-0.40234-1.4336-0.82812-1.9258-2.6641-1.0977-4.1016l21.715-37.59c0.82812-1.4375 2.6641-1.9297 4.0977-1.0977 1.4336 0.82812 1.9258 2.6641 1.0977 4.1016l-21.715 37.59c-0.55469 0.96094-1.5625 1.5-2.6016 1.5z"/>
  <path d="m56.816 374.01c-1.0352 0-2.0469-0.53906-2.6016-1.5-0.82812-1.4375-0.33594-3.2695 1.0977-4.0977l37.59-21.715c1.4375-0.83203 3.2695-0.33984 4.0977 1.0977s0.33594 3.2695-1.0977 4.0977l-37.59 21.715c-0.47266 0.27344-0.98828 0.40234-1.4961 0.40234z"/>
  <path d="m69.43 259.02h-43.426c-1.6562 0-3-1.3438-3-3s1.3438-3 3-3h43.426c1.6562 0 3 1.3438 3 3s-1.3438 3-3 3z"/>
  <path d="m94.398 165.71c-0.50781 0-1.0234-0.12891-1.4961-0.40234l-37.59-21.715c-1.4336-0.82812-1.9258-2.6641-1.0977-4.0977 0.82812-1.4375 2.6641-1.9258 4.0977-1.0977l37.59 21.715c1.4336 0.82812 1.9258 2.6641 1.0977 4.0977-0.55469 0.96094-1.5625 1.5-2.6016 1.5z"/>
  <path d="m162.71 97.438c-1.0352 0-2.0469-0.53906-2.6016-1.5l-21.715-37.625c-0.82812-1.4336-0.33594-3.2695 1.0977-4.0977 1.4336-0.82812 3.2695-0.33594 4.0977 1.0977l21.715 37.625c0.82812 1.4336 0.33594 3.2695-1.0977 4.0977-0.47266 0.27344-0.98828 0.40234-1.4961 0.40234z"/>
 </g>
</svg>
