<?xml version="1.0" encoding="UTF-8"?>
<svg width="512pt" height="512pt" version="1.1" viewBox="0 0 512 512" xmlns="http://www.w3.org/2000/svg">
 <g>
  <path d="m159.32 185.45c-9.6406 0-18.988-1.8906-27.781-5.6094-8.5-3.5898-16.129-8.7383-22.691-15.289-6.5508-6.5586-11.691-14.191-15.281-22.68-3.7188-8.8008-5.6094-18.141-5.6094-27.77 0-9.7812 1.9414-19.262 5.7695-28.172 0.48047-1.1016 1.5586-1.8203 2.7617-1.8203 0.41016 0 0.80078 0.089844 1.1797 0.25 1.5195 0.64844 2.2305 2.4219 1.5703 3.9414-3.5 8.1602-5.2812 16.84-5.2812 25.801 0 17.449 6.8008 33.859 19.141 46.199 12.352 12.352 28.762 19.148 46.219 19.148 17.449 0 33.871-6.8008 46.219-19.148 12.34-12.34 19.129-28.762 19.129-46.199 0-17.461-6.7891-33.879-19.129-46.219-12.352-12.34-28.762-19.141-46.219-19.141-12.801 0-25.191 3.6914-35.84 10.68-0.48828 0.32031-1.0586 0.48828-1.6406 0.48828-1.0195 0-1.9492-0.5-2.5117-1.3516-0.32031-0.48047-0.48828-1.0391-0.48828-1.6094-0.019532-1.0195 0.48828-1.9688 1.3398-2.5391h0.011719c0.03125-0.019531 0.058594-0.039062 0.089844-0.058594 11.602-7.5898 25.09-11.609 39.02-11.609 9.6484 0 19 1.8906 27.801 5.6094 8.5 3.5898 16.129 8.7305 22.68 15.281 6.5508 6.5586 11.699 14.191 15.289 22.68 3.7188 8.8008 5.6016 18.148 5.6016 27.789 0 9.6289-1.8789 18.969-5.6016 27.77-3.5898 8.4883-8.7383 16.121-15.289 22.68-6.5508 6.5508-14.18 11.699-22.68 15.289-8.7969 3.7188-18.148 5.6094-27.777 5.6094zm-52.379-112.3c-0.69922 0-1.3906-0.25-1.9297-0.69922-1.2617-1.0586-1.4297-2.9609-0.35938-4.2305 1.0312-1.2188 3-1.3906 4.2188-0.35938 1.2695 1.0586 1.4297 2.9609 0.37109 4.2188-0.57031 0.68359-1.4141 1.0703-2.3008 1.0703z"/>
  <path d="m159.32 428.49c-9.6406 0-18.988-1.8828-27.781-5.6094-8.5-3.5898-16.129-8.7383-22.68-15.289-6.5586-6.5508-11.699-14.191-15.289-22.68-3.7188-8.8008-5.6094-18.141-5.6094-27.77 0-9.7812 1.9414-19.25 5.7695-28.172 0.48047-1.1016 1.5586-1.8203 2.7617-1.8203 0.41016 0 0.80078 0.089843 1.1797 0.25 1.5195 0.64844 2.2305 2.4219 1.5703 3.9414-3.5 8.1484-5.2812 16.828-5.2812 25.801 0 17.449 6.8008 33.859 19.141 46.211 12.34 12.34 28.762 19.141 46.219 19.141 17.461 0 33.871-6.8008 46.219-19.141 12.34-12.352 19.129-28.762 19.129-46.211 0-17.461-6.7891-33.879-19.129-46.219-12.352-12.34-28.762-19.141-46.219-19.141-12.801 0-25.18 3.6875-35.828 10.68l-0.011719 0.011718c-0.48828 0.32031-1.0586 0.48828-1.6406 0.48828-1.0195 0-1.9609-0.51172-2.5117-1.3594-0.32031-0.48047-0.48828-1.0391-0.48828-1.6094-0.011719-1.0312 0.48828-1.9805 1.3516-2.5391 11.621-7.6328 25.148-11.672 39.121-11.672 9.6406 0 18.988 1.8906 27.789 5.6094 8.5 3.5898 16.129 8.7383 22.68 15.289 6.5508 6.5508 11.699 14.18 15.289 22.68 3.7188 8.7891 5.6016 18.141 5.6016 27.781 0 9.6289-1.8789 18.969-5.6016 27.77-3.5898 8.4883-8.7383 16.129-15.289 22.68-6.5508 6.5508-14.18 11.699-22.68 15.289-8.8008 3.7305-18.152 5.6094-27.781 5.6094zm-52.379-112.3c-0.69922 0-1.3789-0.25-1.9219-0.69922-0.62109-0.51172-0.98828-1.2383-1.0586-2.0312-0.070313-0.80078 0.17187-1.5703 0.67969-2.1914h0.011719c1.0195-1.2188 3-1.3984 4.2188-0.37109 1.2695 1.0625 1.4414 2.9609 0.37109 4.2227 0 0.011718 0 0.011718-0.011719 0.011718-0.57031 0.67969-1.4023 1.0586-2.2891 1.0586z"/>
  <path d="m159.32 398.11c-10.949 0-21.238-4.2617-28.98-12-7.7305-7.7383-12-18.027-12-28.969 0-10.949 4.2695-21.238 12-28.98 7.7383-7.7305 18.031-12 28.98-12 10.941 0 21.23 4.2695 28.969 12 7.7383 7.7383 12 18.027 12 28.98 0 10.949-4.2617 21.238-12 28.969-7.7383 7.7422-18.027 12-28.969 12zm0-75.949c-9.3398 0-18.121 3.6406-24.73 10.25s-10.25 15.391-10.25 24.73 3.6406 18.121 10.25 24.73c6.6016 6.6016 15.391 10.238 24.73 10.238 9.3398 0 18.121-3.6406 24.73-10.238 6.6016-6.6094 10.238-15.391 10.238-24.73s-3.6406-18.129-10.238-24.73c-6.6094-6.6094-15.391-10.25-24.73-10.25z"/>
  <path d="m177.71 360.14h-36.789c-1.6484 0-3-1.3516-3-3 0-1.6602 1.3516-3 3-3h36.789c1.6602 0 3 1.3398 3 3 0 1.6484-1.3398 3-3 3z"/>
  <path d="m159.32 378.53c-1.6602 0-3-1.3398-3-3v-36.789c0-1.6484 1.3398-3 3-3 1.6484 0 3 1.3516 3 3v36.789c0 1.6562-1.3516 3-3 3z"/>
  <path d="m159.32 291.78c-1.6602 0-3-1.3398-3-3v-174.68c0-1.6602 1.3398-3 3-3 1.6484 0 3 1.3398 3 3v174.68c0 1.6562-1.3516 3-3 3z"/>
  <path d="m256.19 233.16h-230.19c-1.6484 0-3-1.3516-3-3 0-1.6602 1.3516-3 3-3h230.19c1.6484 0 2.9883 1.3398 2.9883 3 0 1.6484-1.3398 3-2.9883 3z"/>
  <path d="m283.57 109.83c-8.1172 0-15.75-3.1719-21.488-8.9219-5.7383-5.7383-8.8906-13.379-8.8984-21.5 0.011718-8.1211 3.1602-15.75 8.8984-21.5 5.7383-5.7383 13.371-8.9102 21.488-8.9102 8.1328 0 15.77 3.1719 21.512 8.9102 5.7383 5.75 8.8984 13.379 8.8984 21.5 0 8.1289-3.1602 15.762-8.8984 21.512-5.7422 5.7422-13.383 8.9102-21.512 8.9102zm0-54.828c-13.422 0.019531-24.359 10.98-24.391 24.41 0.03125 13.441 10.969 24.391 24.391 24.422 13.441-0.03125 24.391-10.98 24.41-24.422-0.019531-13.43-10.969-24.391-24.41-24.41z"/>
  <path d="m283.57 185.18c-8.1172 0-15.75-3.1602-21.48-8.8984-5.7305-5.7305-8.8906-13.371-8.9102-21.512 0.011718-8.1211 3.1602-15.762 8.8984-21.5 5.7383-5.75 13.371-8.9102 21.488-8.9102 8.1328 0 15.77 3.1602 21.512 8.9102 5.7383 5.7383 8.8984 13.379 8.8984 21.5-0.011718 8.1289-3.1797 15.77-8.9102 21.5-5.7266 5.7422-13.367 8.9023-21.496 8.9102zm0-54.82c-13.422 0.019531-24.359 10.969-24.391 24.41 0 13.461 10.949 24.41 24.391 24.41 13.461 0 24.41-10.949 24.41-24.41-0.019531-13.441-10.969-24.391-24.41-24.41z"/>
  <path d="m283.57 260.57c-8.1172 0-15.75-3.1719-21.488-8.9102-5.7383-5.7383-8.8906-13.379-8.8984-21.5 0.011718-8.1211 3.1602-15.762 8.8984-21.5 5.7383-5.75 13.371-8.9102 21.488-8.9102 8.1328 0 15.77 3.1602 21.512 8.9102 5.7383 5.7383 8.8984 13.379 8.8984 21.5s-3.1602 15.762-8.8984 21.5c-5.7422 5.75-13.383 8.9102-21.512 8.9102zm0-54.82c-13.422 0.019531-24.359 10.969-24.391 24.41 0.03125 13.441 10.969 24.391 24.391 24.41 13.441-0.019531 24.391-10.969 24.41-24.41-0.019531-13.441-10.969-24.391-24.41-24.41z"/>
  <path d="m283.57 335.93c-8.1172-0.019532-15.75-3.1797-21.48-8.9102-5.7305-5.7383-8.8906-13.371-8.9102-21.5 0-8.1211 3.1602-15.762 8.8984-21.5 5.7383-5.75 13.371-8.9219 21.488-8.9219 8.1328 0 15.77 3.1719 21.512 8.9102 5.7383 5.75 8.8984 13.379 8.8984 21.512-0.011718 8.1289-3.1797 15.762-8.9102 21.5-5.7266 5.7305-13.367 8.8906-21.496 8.9102zm0-54.828c-13.422 0.03125-24.359 10.98-24.391 24.422 0 13.461 10.941 24.41 24.391 24.41 13.461 0 24.41-10.961 24.41-24.41-0.019531-13.445-10.969-24.395-24.41-24.422z"/>
  <path d="m283.57 411.32c-8.1172-0.011718-15.75-3.1719-21.488-8.9219-5.7383-5.7383-8.8984-13.379-8.8984-21.5 0-8.1172 3.1602-15.75 8.8984-21.5 5.7383-5.7383 13.371-8.9102 21.488-8.9102 8.1328 0 15.77 3.1602 21.512 8.9102 5.7383 5.75 8.8984 13.383 8.8984 21.5 0 8.1328-3.1602 15.762-8.8984 21.5-5.7422 5.75-13.383 8.9102-21.512 8.9219zm0-54.832c-13.422 0.019531-24.359 10.98-24.391 24.41 0.03125 13.441 10.969 24.391 24.391 24.422 13.441-0.027343 24.391-10.98 24.41-24.422-0.019531-13.43-10.969-24.387-24.41-24.41z"/>
  <path d="m486 233.16h-202.43c-1.6484 0-3-1.3516-3-3 0-1.6602 1.3516-3 3-3h202.43c1.6484 0 3 1.3398 3 3 0 1.6484-1.3516 3-3 3z"/>
  <path d="m452.47 206.1h-44.262c-1.2812 0-2.4102-0.80078-2.8281-2l-42.82-121.69h-78.988c-1.6484 0-3-1.3398-3-3 0-1.6484 1.3516-3 3-3h81.109c1.2695 0 2.4102 0.80859 2.8281 2.0117l42.82 121.68h42.141c1.6484 0 3 1.3516 3 3 0 1.6602-1.3477 3-3 3z"/>
  <path d="m474.96 219.81h-86.191c-1.2305 0-2.3516-0.76953-2.8008-1.9219l-23.172-60.121h-79.23c-1.6484 0-3-1.3398-3-3 0-1.6484 1.3516-3 3-3h81.289c1.2305 0 2.3516 0.76953 2.8008 1.9219l23.172 60.121h84.129c1.6484 0 3 1.3398 3 3 0.003907 1.6523-1.3477 3-2.9961 3z"/>
  <path d="m364.68 383.9h-81.109c-1.6484 0-3-1.3398-3-3 0-1.6484 1.3516-3 3-3h78.98l42.82-122.8c0.42188-1.1992 1.5586-2.0117 2.8398-2.0117h44.262c1.6484 0 3 1.3398 3 3 0 1.6484-1.3516 3-3 3h-42.129l-42.82 122.8c-0.42188 1.2148-1.5625 2.0117-2.8438 2.0117z"/>
  <path d="m283.57 308.52c-1.6484 0-3-1.3516-3-3 0-1.6602 1.3516-3 3-3h79.23l23.172-60.09c0.44922-1.1484 1.5703-1.9219 2.8008-1.9219h86.191c1.6484 0 3 1.3516 3 3 0 1.6484-1.3516 3-3 3h-84.129l-23.172 60.078c-0.44141 1.1484-1.5703 1.9219-2.8008 1.9219l-81.285 0.003907c0 0.007812 0 0.007812-0.007813 0.007812z"/>
  <path d="m52.102 156.32c-5.8906 0-11.422-2.2891-15.578-6.4492-4.1602-4.1602-6.4492-9.6914-6.4609-15.57 0.019531-5.8906 2.3086-11.43 6.4609-15.59 4.1602-4.1484 9.6914-6.4492 15.578-6.4609 5.8906 0.011719 11.422 2.3086 15.578 6.4609 4.1602 4.1602 6.4492 9.6992 6.4609 15.59 0 5.8789-2.2891 11.41-6.4492 15.57s-9.7031 6.4492-15.59 6.4492zm0-38.07c-8.8398 0-16.039 7.1992-16.039 16.051 0.019531 8.8203 7.2109 16 16.039 16.02 8.8281-0.019531 16.031-7.1992 16.039-16.02 0-8.8516-7.1992-16.051-16.039-16.051z"/>
  <path d="m52.102 348.06c-12.148 0-22.031-9.8906-22.039-22.039 0.011719-12.16 9.8906-22.051 22.039-22.051 12.148 0 22.039 9.8906 22.039 22.051 0 12.152-9.8906 22.039-22.039 22.039zm0-38.09c-8.8281 0.019531-16.02 7.2188-16.039 16.051 0.019531 8.8281 7.2109 16.031 16.039 16.039 8.8281-0.011719 16.031-7.2109 16.039-16.039-0.011719-8.832-7.2109-16.031-16.039-16.051z"/>
  <path d="m52.102 309.97c-1.6602 0-3-1.3516-3-3v-153.65c0-1.6602 1.3398-3 3-3 1.6484 0 2.9883 1.3398 2.9883 3v153.65c0 1.6523-1.3398 3-2.9883 3z"/>
  <path d="m313.18 454.07h-249.69c-1.6602 0-3-1.3516-3-3 0-1.6602 1.3398-3 3-3h249.69c1.6484 0 3 1.3398 3 3 0 1.6484-1.3516 3-3 3z"/>
  <path d="m382.48 469.26h-172.79c-1.6484 0-3-1.3516-3-3 0-1.6602 1.3516-3 3-3h172.79c1.6602 0 3 1.3398 3 3 0 1.6484-1.3398 3-3 3z"/>
  <path d="m421.77 469.26h-21.602c-1.6602 0-3-1.3516-3-3 0-1.6602 1.3398-3 3-3h21.602c1.6484 0 3 1.3398 3 3 0 1.6484-1.3477 3-3 3z"/>
  <path d="m135.52 468.81h-81.848c-1.6484 0-3-1.3398-3-3 0-1.6484 1.3516-3 3-3h81.852c1.6602 0 3 1.3516 3 3-0.003907 1.6602-1.3438 3-3.0039 3z"/>
 </g>
</svg>
