<?xml version="1.0" encoding="UTF-8"?>
<svg width="512pt" height="512pt" version="1.1" viewBox="0 0 512 512" xmlns="http://www.w3.org/2000/svg">
 <g>
  <path d="m163.04 455.2-106.24-106.24c21.918 46.559 59.68 84.32 106.24 106.24z"/>
  <path d="m36 256c0 25.922 4.8008 50.559 12.961 73.762l133.28 133.28c23.199 8.1602 47.84 12.961 73.762 12.961 7.3594 0 14.719-0.32031 21.922-1.1211l-240.8-240.8c-0.80078 7.2031-1.1211 14.562-1.1211 21.922z"/>
  <path d="m38.559 224.32 249.12 249.12c22.719-3.3594 44.16-10.078 64.16-19.68l-293.6-293.6c-9.5977 20-16.316 41.441-19.68 64.16z"/>
  <path d="m61.922 152.64 297.44 297.44c17.762-9.4414 34.078-21.441 48.48-35.359l-310.56-310.56c-13.922 14.398-25.922 30.719-35.359 48.48z"/>
  <path d="m102.72 98.398 310.88 310.72c14.398-14.719 26.719-31.359 36.48-49.762l-297.44-297.43c-18.402 9.7578-35.039 22.078-49.922 36.477z"/>
  <path d="m160.16 58.238 293.6 293.6c9.6016-20 16.32-41.441 19.68-64.16l-249.12-249.12c-22.719 3.3633-44.16 10.082-64.16 19.68z"/>
  <path d="m463.04 182.24-133.28-133.28c-23.199-8.1562-47.836-12.957-73.758-12.957-7.3594 0-14.719 0.32031-21.922 1.1211l240.8 240.8c0.80078-7.1992 1.1211-14.559 1.1211-21.922 0-25.922-4.8008-50.559-12.961-73.762z"/>
  <path d="m348.96 56.801 106.24 106.24c-21.918-46.559-59.68-84.32-106.24-106.24z"/>
 </g>
</svg>
