<?xml version="1.0" encoding="UTF-8"?>
<svg width="512pt" height="512pt" version="1.1" viewBox="0 0 512 512" xmlns="http://www.w3.org/2000/svg">
 <g>
  <path d="m355.47 402.34h-205.7c-0.79688 0-1.5586-0.31641-2.1211-0.87891l-34.672-34.637c-0.5625-0.5625-0.87891-1.3242-0.87891-2.1211v-243.68c0-1.6562 1.3438-3 3-3s3 1.3438 3 3v242.43l32.914 32.883h203.22l0.26172-0.26172c1.1719-1.1719 3.0703-1.1719 4.2422 0.003906 1.1719 1.1719 1.1719 3.0703-0.003907 4.2422l-1.1406 1.1406c-0.5625 0.55859-1.3242 0.875-2.1172 0.875zm34.668-37.242c-1.6562 0-3-1.3438-3-3v-244.02l-32.91-32.914h-203.22l-1.4023 1.4023c-1.1719 1.1719-3.0703 1.1719-4.2422 0s-1.1719-3.0703 0-4.2422l2.2812-2.2812c0.5625-0.5625 1.3242-0.87891 2.1211-0.87891h205.7c0.79688 0 1.5586 0.31641 2.1211 0.87891l34.668 34.672c0.5625 0.5625 0.87891 1.3242 0.87891 2.1211v245.27c0 1.6523-1.3438 2.9961-3 2.9961z"/>
  <path d="m252.63 372.94c-0.76953 0-1.5352-0.29297-2.1211-0.87891l-81.988-81.957c-0.5625-0.5625-0.87891-1.3242-0.87891-2.1211v-57.789c0-1.6562 1.3438-3 3-3s3 1.3438 3 3v56.547l78.988 78.957 78.957-78.957v-91.992l-78.957-78.957-70.453 70.426c-1.1719 1.1719-3.0703 1.1719-4.2422 0s-1.1719-3.0703 0-4.2422l72.574-72.547c1.1719-1.1719 3.0703-1.1719 4.2422 0l81.957 81.957c0.5625 0.5625 0.87891 1.3242 0.87891 2.1211v94.477c0 0.79688-0.31641 1.5586-0.87891 2.1211l-81.957 81.957c-0.58594 0.58594-1.3555 0.87891-2.1211 0.87891z"/>
  <path d="m348.03 489h-57.742c-1.6562 0-3-1.3438-3-3s1.3438-3 3-3h57.742c1.6562 0 3 1.3438 3 3s-1.3438 3-3 3z"/>
  <path d="m214.94 489h-171.41c-1.6562 0-3-1.3438-3-3s1.3438-3 3-3h171.41c1.6562 0 3 1.3438 3 3s-1.3438 3-3 3z"/>
  <path d="m432.53 470.5h-123.72c-1.6562 0-3-1.3438-3-3s1.3438-3 3-3h123.72c1.6562 0 3 1.3438 3 3s-1.3438 3-3 3z"/>
  <path d="m480.45 470.5h-26.348c-1.6562 0-3-1.3438-3-3s1.3438-3 3-3h26.348c1.6562 0 3 1.3438 3 3s-1.3398 3-3 3z"/>
  <path d="m131.36 471.04h-99.812c-1.6562 0-3-1.3438-3-3s1.3438-3 3-3h99.812c1.6562 0 3 1.3438 3 3s-1.3438 3-3 3z"/>
  <path d="m252.63 243.76c-0.50781 0-1.0234-0.12891-1.4961-0.40234l-81.988-47.254c-1.4375-0.82812-1.9297-2.6602-1.1016-4.0977s2.6602-1.9297 4.0977-1.1016l81.988 47.254c1.4375 0.82812 1.9297 2.6602 1.1016 4.0977-0.55469 0.96484-1.5664 1.5039-2.6016 1.5039z"/>
  <path d="m252.63 243.76c-1.0391 0-2.0469-0.53906-2.6016-1.5039-0.82812-1.4375-0.33594-3.2695 1.1016-4.0977l81.957-47.254c1.4336-0.82812 3.2695-0.33594 4.0977 1.1016s0.33594 3.2695-1.1016 4.0977l-81.957 47.254c-0.47266 0.27344-0.98828 0.40234-1.4961 0.40234z"/>
  <path d="m170.64 290.98c-1.0391 0-2.0469-0.53906-2.6016-1.5039-0.82812-1.4375-0.33203-3.2695 1.1016-4.0977l81.988-47.223c1.4375-0.82812 3.2695-0.33594 4.0977 1.1016s0.33203 3.2695-1.1016 4.0977l-81.988 47.223c-0.47266 0.27344-0.98828 0.40234-1.4961 0.40234z"/>
  <path d="m334.59 290.98c-0.50781 0-1.0234-0.12891-1.4961-0.40234l-81.957-47.223c-1.4375-0.82812-1.9297-2.6602-1.1016-4.0977 0.82812-1.4336 2.6602-1.9297 4.0977-1.1016l81.957 47.223c1.4375 0.82813 1.9297 2.6602 1.1016 4.0977-0.55469 0.96484-1.5664 1.5039-2.6016 1.5039z"/>
  <path d="m252.63 372.94c-1.6562 0-3-1.3438-3-3v-258.39c0-1.6562 1.3438-3 3-3s3 1.3438 3 3v258.39c0 1.6562-1.3438 3-3 3z"/>
  <path d="m346.28 131.74c-0.68359 0-1.3711-0.23438-1.9375-0.71094-1.2656-1.0703-1.4219-2.9648-0.35156-4.2266l64.352-75.98c1.0703-1.2617 2.9648-1.4219 4.2266-0.35156 1.2656 1.0703 1.4219 2.9648 0.35156 4.2266l-64.352 75.98c-0.58984 0.70312-1.4336 1.0625-2.2891 1.0625z"/>
  <path d="m353.81 162.38c-1.3516 0-2.5742-0.91406-2.9102-2.2852l-6.9844-28.414-29.238-0.79688c-1.6562-0.046874-2.9609-1.4258-2.918-3.082 0.046875-1.6562 1.4102-2.957 3.082-2.918l31.523 0.85938c1.3516 0.035156 2.5078 0.97266 2.832 2.2812l7.5312 30.637c0.39453 1.6094-0.58984 3.2344-2.1953 3.6289-0.24609 0.0625-0.48828 0.089844-0.72266 0.089844z"/>
  <path d="m434.31 55.762h-25.645c-1.6562 0-3-1.3438-3-3v-25.648c0-1.6562 1.3438-3 3-3h25.645c1.6562 0 3 1.3438 3 3v25.645c0 1.6602-1.3438 3.0039-3 3.0039zm-22.645-6h19.645v-19.648h-19.645z"/>
  <path d="m160.57 131.74c-0.85156 0-1.6953-0.35938-2.2891-1.0625l-64.352-75.98c-1.0703-1.2656-0.91406-3.1562 0.35156-4.2305 1.2656-1.0703 3.1562-0.91406 4.2305 0.35156l64.352 75.98c1.0703 1.2656 0.91406 3.1562-0.35156 4.2305-0.57031 0.48047-1.2578 0.71094-1.9414 0.71094z"/>
  <path d="m153.04 162.38c-0.23828 0-0.47656-0.027344-0.71875-0.085937-1.6094-0.39453-2.5938-2.0195-2.1953-3.6289l7.5312-30.637c0.32031-1.3125 1.4805-2.2461 2.832-2.2812l31.523-0.85938c1.6836-0.023438 3.0352 1.2617 3.082 2.918s-1.2617 3.0352-2.918 3.082l-29.238 0.79688-6.9844 28.414c-0.33984 1.3672-1.5664 2.2812-2.9141 2.2812z"/>
  <path d="m98.188 55.762h-25.645c-1.6562 0-3-1.3438-3-3v-25.648c0-1.6562 1.3438-3 3-3h25.645c1.6562 0 3 1.3438 3 3v25.645c0 1.6602-1.3398 3.0039-3 3.0039zm-22.645-6h19.645v-19.648h-19.645z"/>
  <path d="m410.63 430.14c-0.85156 0-1.6992-0.35938-2.2891-1.0625l-64.352-75.98c-1.0703-1.2656-0.91406-3.1562 0.35156-4.2266s3.1562-0.91406 4.2266 0.35156l64.352 75.98c1.0703 1.2656 0.91406 3.1562-0.35156 4.2266-0.5625 0.47656-1.2539 0.71094-1.9375 0.71094z"/>
  <path d="m314.76 355.02c-1.6172 0-2.9531-1.2891-2.9961-2.918-0.046875-1.6562 1.2617-3.0352 2.918-3.082l29.238-0.79688 6.9844-28.414c0.39453-1.6094 2.0156-2.5977 3.6289-2.1953 1.6094 0.39453 2.5938 2.0195 2.1953 3.6289l-7.5312 30.637c-0.32031 1.3125-1.4805 2.2461-2.832 2.2812l-31.523 0.85938h-0.082032z"/>
  <path d="m434.31 455.79h-25.645c-1.6562 0-3-1.3438-3-3v-25.645c0-1.6562 1.3438-3 3-3h25.645c1.6562 0 3 1.3438 3 3v25.645c0 1.6562-1.3438 3-3 3zm-22.645-6h19.645v-19.645h-19.645z"/>
  <path d="m96.219 430.14c-0.68359 0-1.375-0.23438-1.9375-0.71094-1.2656-1.0703-1.4219-2.9648-0.35156-4.2266l64.352-75.98c1.0703-1.2656 2.9648-1.4219 4.2305-0.35156s1.4219 2.9648 0.35156 4.2266l-64.352 75.98c-0.59766 0.69922-1.4414 1.0625-2.293 1.0625z"/>
  <path d="m192.09 355.02h-0.082031l-31.523-0.85938c-1.3516-0.035156-2.5078-0.97266-2.832-2.2812l-7.5312-30.637c-0.39453-1.6094 0.58984-3.2344 2.1953-3.6289 1.6094-0.39844 3.2344 0.58594 3.6289 2.1953l6.9844 28.414 29.238 0.79688c1.6562 0.046875 2.9609 1.4258 2.918 3.082-0.042969 1.6289-1.3789 2.918-2.9961 2.918z"/>
  <path d="m98.188 455.79h-25.645c-1.6562 0-3-1.3438-3-3v-25.645c0-1.6562 1.3438-3 3-3h25.645c1.6562 0 3 1.3438 3 3v25.645c0 1.6562-1.3398 3-3 3zm-22.645-6h19.645v-19.645l-19.645-0.003906z"/>
  <path d="m175.54 63.039c-1.6562 0-3-1.3438-3-3v-34.035c0-1.6562 1.3438-3 3-3s3 1.3438 3 3v34.035c0 1.6562-1.3398 3-3 3z"/>
  <path d="m201.21 63.039c-1.6562 0-3-1.3438-3-3v-34.035c0-1.6562 1.3438-3 3-3s3 1.3438 3 3v34.035c0 1.6562-1.3438 3-3 3z"/>
  <path d="m226.92 63.039c-1.6562 0-3-1.3438-3-3v-34.035c0-1.6562 1.3438-3 3-3s3 1.3438 3 3v34.035c0 1.6562-1.3438 3-3 3z"/>
  <path d="m252.63 63.039c-1.6562 0-3-1.3438-3-3v-34.035c0-1.6562 1.3438-3 3-3s3 1.3438 3 3v34.035c0 1.6562-1.3438 3-3 3z"/>
  <path d="m278.31 63.039c-1.6562 0-3-1.3438-3-3v-34.035c0-1.6562 1.3438-3 3-3s3 1.3438 3 3v34.035c0 1.6562-1.3438 3-3 3z"/>
  <path d="m304.02 63.039c-1.6562 0-3-1.3438-3-3v-34.035c0-1.6562 1.3438-3 3-3s3 1.3438 3 3v34.035c0 1.6562-1.3438 3-3 3z"/>
  <path d="m329.73 63.039c-1.6562 0-3-1.3438-3-3v-34.035c0-1.6562 1.3438-3 3-3s3 1.3438 3 3v34.035c0 1.6562-1.3438 3-3 3z"/>
  <path d="m92.215 166.67h-34.035c-1.6562 0-3-1.3438-3-3s1.3438-3 3-3h34.035c1.6562 0 3 1.3438 3 3s-1.3438 3-3 3z"/>
  <path d="m92.215 192.34h-34.035c-1.6562 0-3-1.3438-3-3s1.3438-3 3-3h34.035c1.6562 0 3 1.3438 3 3 0 1.6602-1.3438 3-3 3z"/>
  <path d="m92.215 218.05h-34.035c-1.6562 0-3-1.3438-3-3s1.3438-3 3-3h34.035c1.6562 0 3 1.3438 3 3s-1.3438 3-3 3z"/>
  <path d="m92.215 243.76h-34.035c-1.6562 0-3-1.3438-3-3s1.3438-3 3-3h34.035c1.6562 0 3 1.3438 3 3 0 1.6602-1.3438 3-3 3z"/>
  <path d="m92.215 269.44h-34.035c-1.6562 0-3-1.3438-3-3s1.3438-3 3-3h34.035c1.6562 0 3 1.3438 3 3 0 1.6602-1.3438 3-3 3z"/>
  <path d="m92.215 295.15h-34.035c-1.6562 0-3-1.3438-3-3s1.3438-3 3-3h34.035c1.6562 0 3 1.3438 3 3s-1.3438 3-3 3z"/>
  <path d="m92.215 320.86h-34.035c-1.6562 0-3-1.3438-3-3s1.3438-3 3-3h34.035c1.6562 0 3 1.3438 3 3 0 1.6602-1.3438 3-3 3z"/>
  <path d="m447.88 166.67h-34.035c-1.6562 0-3-1.3438-3-3s1.3438-3 3-3h34.035c1.6562 0 3 1.3438 3 3s-1.3438 3-3 3z"/>
  <path d="m447.88 192.34h-34.035c-1.6562 0-3-1.3438-3-3s1.3438-3 3-3h34.035c1.6562 0 3 1.3438 3 3 0 1.6602-1.3438 3-3 3z"/>
  <path d="m447.88 218.05h-34.035c-1.6562 0-3-1.3438-3-3s1.3438-3 3-3h34.035c1.6562 0 3 1.3438 3 3s-1.3438 3-3 3z"/>
  <path d="m447.88 243.76h-34.035c-1.6562 0-3-1.3438-3-3s1.3438-3 3-3h34.035c1.6562 0 3 1.3438 3 3 0 1.6602-1.3438 3-3 3z"/>
  <path d="m447.88 269.44h-34.035c-1.6562 0-3-1.3438-3-3s1.3438-3 3-3h34.035c1.6562 0 3 1.3438 3 3 0 1.6602-1.3438 3-3 3z"/>
  <path d="m447.88 295.15h-34.035c-1.6562 0-3-1.3438-3-3s1.3438-3 3-3h34.035c1.6562 0 3 1.3438 3 3s-1.3438 3-3 3z"/>
  <path d="m447.88 320.86h-34.035c-1.6562 0-3-1.3438-3-3s1.3438-3 3-3h34.035c1.6562 0 3 1.3438 3 3 0 1.6602-1.3438 3-3 3z"/>
 </g>
</svg>
