<?xml version="1.0" encoding="UTF-8"?>
<svg width="512pt" height="512pt" version="1.1" viewBox="0 0 512 512" xmlns="http://www.w3.org/2000/svg">
 <g>
  <path d="m256.01 342.85c-7.75 0-15.441-1.0312-22.852-3.0391-7.1914-1.9492-14.109-4.8398-20.57-8.5703-12.75-7.3711-23.5-17.941-31.078-30.562-0.41016-0.67969-0.53125-1.4883-0.33984-2.2695s0.67969-1.4297 1.3711-1.8398c0.46094-0.27734 1-0.42969 1.5391-0.42969 1.0586 0 2.0195 0.53906 2.5703 1.4492 14.781 24.578 40.711 39.262 69.359 39.262 21.59 0 41.898-8.4102 57.18-23.68 15.27-15.27 23.68-35.57 23.691-57.16-0.011718-21.602-8.4219-41.91-23.691-57.18-15.277-15.27-35.59-23.68-57.18-23.68-21.602 0-41.91 8.4102-57.18 23.68s-23.68 35.578-23.68 57.18c0 1.6992 0.058594 3.4219 0.16016 5.1211 0 0.050782 0.011719 0.10938 0.011719 0.16016 0.019531 1.5898-1.2188 2.9219-2.8086 3.0195-1.6602 0.10938-3.0781-1.1602-3.1914-2.8008-0.10938-1.8203-0.17188-3.6719-0.17188-5.5 0-11.73 2.3008-23.109 6.8281-33.809 4.3711-10.352 10.629-19.641 18.609-27.609 7.9688-7.9805 17.262-14.238 27.609-18.609 10.699-4.5312 22.078-6.8281 33.809-6.8281 11.73 0 23.102 2.3008 33.809 6.8281 10.34 4.3711 19.633 10.629 27.609 18.609 7.9805 7.9688 14.238 17.262 18.621 27.602 4.5312 10.711 6.8203 22.09 6.8203 33.82s-2.2891 23.102-6.8203 33.801c-4.3789 10.34-10.641 19.629-18.621 27.602-7.9805 7.9805-17.27 14.238-27.609 18.609-10.707 4.5234-22.078 6.8242-33.805 6.8242zm-80.09-58.914c-1.3203 0-2.4688-0.83984-2.8594-2.1016l-0.011719-0.011719c-0.23828-0.76953-0.16016-1.5781 0.21094-2.2891 0.37891-0.71094 1-1.2305 1.7695-1.4727 0.28906-0.089844 0.58984-0.12891 0.89062-0.12891 1.3203 0 2.4688 0.83984 2.8711 2.1094 0.48047 1.5781-0.39844 3.2617-1.9805 3.75-0.29297 0.097656-0.59375 0.14453-0.89062 0.14453z"/>
  <path d="m339.88 259.01h-167.73c-1.6484 0-3-1.3398-3-3 0-1.6484 1.3516-3 3-3h167.73c1.6484 0 2.9883 1.3516 2.9883 3 0.003906 1.6602-1.3359 3-2.9883 3z"/>
  <path d="m256.01 342.85c-1.6484 0-3-1.3516-3-3v-167.72c0-1.6602 1.3516-3 3-3 1.6602 0 3 1.3398 3 3v167.72c0 1.6523-1.3398 3.0039-3 3.0039z"/>
  <path d="m256.21 220.17h-0.039063c-11.309 0-22.801-0.98047-34.141-2.9102-11.301-1.9297-22.77-4.8594-34.09-8.7109-1.5703-0.53125-2.4102-2.2383-1.8789-3.8086 0.42188-1.2188 1.5586-2.0312 2.8398-2.0312 0.32812 0 0.66016 0.050781 0.96875 0.16016 22.07 7.5 44.379 11.301 66.32 11.309 21.93-0.011719 44.129-3.8086 65.961-11.309 0.3125-0.10938 0.64062-0.16016 0.97266-0.16016 1.2773 0 2.4219 0.80859 2.8398 2.0195 0.26172 0.76172 0.21094 1.5703-0.14062 2.2891-0.35156 0.71875-0.96875 1.2617-1.7188 1.5195-22.465 7.7227-45.305 11.633-67.895 11.633z"/>
  <path d="m188.91 308.98h-0.011718c-1.2812 0-2.4219-0.82031-2.8398-2.0391-0.25-0.76172-0.19922-1.5703 0.14844-2.2891 0.35938-0.71875 0.96875-1.2617 1.7305-1.5195 22.672-7.7188 45.621-11.641 68.199-11.641h0.03125c11.289 0 22.719 0.98047 33.98 2.9102 11.281 1.9297 22.699 4.8711 33.949 8.7383 0.76172 0.26172 1.3711 0.80078 1.7188 1.5195 0.35156 0.71875 0.39844 1.5273 0.14062 2.2891-0.42188 1.2109-1.5625 2.0195-2.8398 2.0195-0.32813 0-0.66016-0.050781-0.97266-0.16016-21.852-7.5117-44.051-11.32-65.988-11.32-21.941 0-44.238 3.8086-66.289 11.32-0.30859 0.11328-0.62891 0.17188-0.95703 0.17188z"/>
  <path d="m256.04 342.85h-0.050781c-6.4414 0-12.898-2.5195-18.672-7.2695-5.4492-4.4883-10.32-10.852-14.469-18.91-8.3516-16.262-12.949-37.801-12.961-60.66 0-15.23 2.0898-30.199 6.0391-43.289 0.46094-1.5312 2.1914-2.4688 3.7383-2 1.5781 0.48047 2.4805 2.1484 2 3.7383-3.7812 12.52-5.7812 26.891-5.7812 41.551-0.039062 16.359 2.4492 32.23 7.2109 45.891 4.5 12.949 10.898 23.262 18.031 29.039 4.7695 3.9102 9.7812 5.8984 14.879 5.9102 5.1016-0.011718 10.102-2 14.879-5.9102 4.75-3.8984 9.2188-9.7773 12.941-17.02 7.9492-15.41 12.32-35.98 12.309-57.91 0.03125-16.359-2.4609-32.23-7.2188-45.898-4.5-12.949-10.91-23.27-18.031-29.051-4.7812-3.9219-9.7812-5.8984-14.879-5.9102-5.3398 0.011718-10.578 2.1797-15.551 6.4688-1.1992 1.0391-3.1914 0.89844-4.2305-0.30859-0.46875-0.53906-0.73047-1.2383-0.73047-1.9609 0-0.87109 0.37891-1.6992 1.0391-2.2695 5.9805-5.1914 12.711-7.9297 19.449-7.9297h0.039062c6.4414 0 12.898 2.5195 18.672 7.2695 5.4492 4.4883 10.32 10.859 14.469 18.922 8.3516 16.262 12.961 37.809 12.969 60.672-0.039062 17.25-2.6406 33.801-7.5312 47.859-4.8398 13.93-11.719 24.898-19.91 31.711-5.7578 4.7422-12.219 7.2656-18.648 7.2656zm-29.68-144.74c-0.5 0-0.98828-0.12891-1.4297-0.37109-0.69922-0.37891-1.2188-1.0117-1.4492-1.7812-0.21875-0.76953-0.14062-1.5781 0.25-2.2891 0.51953-0.96094 1.5312-1.5586 2.6289-1.5586 0.5 0 0.98828 0.12109 1.4297 0.35938 0.71094 0.37891 1.2188 1.0195 1.4492 1.7812 0.21875 0.76953 0.14062 1.5781-0.23828 2.2812v0.011719c-0.53125 0.96875-1.5391 1.5664-2.6406 1.5664z"/>
  <path d="m270.22 454.67c-0.80078 0-1.5508-0.3125-2.1211-0.87891-3.2305-3.2227-7.5195-5-12.09-5-4.5586 0-8.8516 1.7773-12.078 5-1.1211 1.1211-3.1406 1.1211-4.2383 0l-115.65-115.64c-0.57031-0.57031-0.87891-1.3281-0.87891-2.1289-0.011718-0.80078 0.30859-1.5508 0.87109-2.1211 1.1406-1.1289 3.1094-1.1289 4.25 0l113.66 113.67c4.0703-3.1289 8.9297-4.7773 14.059-4.7773h0.019531c5.1289 0 10 1.6484 14.059 4.7773l107.53-107.53c1.0391-1.0391 2.8125-1.1484 3.9609-0.26172 0.10156 0.078125 0.19922 0.17188 0.28906 0.26172 0.57031 0.55859 0.88281 1.3086 0.88281 2.1211 0 0.80078-0.3125 1.5508-0.88281 2.1211l-109.52 109.51c-0.55859 0.57031-1.3203 0.88281-2.1211 0.88281zm123.66-123.66c-0.80078 0-1.5625-0.30859-2.1211-0.87891-1.1719-1.1719-1.1719-3.0703 0-4.2383 1.1289-1.1289 3.1094-1.1289 4.2383 0 0.57031 0.57031 0.87891 1.3203 0.87891 2.1211s-0.3125 1.5586-0.87891 2.1211c-0.55859 0.5625-1.3164 0.875-2.1172 0.875zm-281.87-6.1328c-0.80078 0-1.5508-0.3125-2.1211-0.87891-1.1719-1.1719-1.1719-3.0703 0-4.2383 1.1406-1.1406 3.1094-1.1406 4.2383 0 1.1719 1.1719 1.1719 3.0703 0 4.2383-0.55859 0.57031-1.3203 0.87891-2.1172 0.87891zm296.01-8.0078c-0.80078 0-1.5508-0.3125-2.1211-0.87109-0.57031-0.57031-0.87891-1.3281-0.87891-2.1289 0-0.80078 0.3125-1.5508 0.87891-2.1211l41.691-41.691c-3.1289-4.0508-4.7812-8.9102-4.7812-14.07 0-5.0898 1.6992-10.09 4.7812-14.078l-177.51-177.51c-0.078125 0.070312-0.14844 0.12891-0.23047 0.19141 0 0 0 0.011718-0.011718 0.011718-0.51953 0.39063-1.1406 0.60156-1.8008 0.60156-0.94922 0-1.8281-0.44141-2.3984-1.1992-0.48047-0.64062-0.67969-1.4297-0.57031-2.2305 0.12109-0.78906 0.53125-1.4883 1.1719-1.9688 0.35156-0.26172 0.73828-0.44141 1.1602-0.53125 0.14844-0.41016 0.39062-0.78125 0.69922-1.0898 1.1289-1.1406 3.1094-1.1289 4.2383 0l181.48 181.48c0.57031 0.57031 0.88281 1.3203 0.88281 2.1289 0 0.80078-0.32031 1.5508-0.89062 2.1211-3.2188 3.1992-4.9883 7.4883-5 12.078 0.011718 4.5781 1.7812 8.8711 5 12.07 0.57031 0.57031 0.89062 1.3203 0.89062 2.1289 0 0.80078-0.3125 1.5508-0.88281 2.1211l-43.676 43.688c-0.5625 0.55859-1.3203 0.87109-2.1211 0.87109zm-310.15-6.1328c-0.80078 0-1.5508-0.3125-2.1211-0.88281l-37.551-37.547c-0.55078-0.55078-0.87109-1.3281-0.87109-2.1211 0-0.78906 0.32031-1.5586 0.87891-2.1211 3.2188-3.2305 5-7.5195 5-12.078 0-4.5703-1.7812-8.8594-5-12.09-0.55859-0.55078-0.87891-1.3281-0.87891-2.1211 0-0.78906 0.32031-1.5586 0.87109-2.1211l181.49-181.48c0.55859-0.57031 1.3086-0.87891 2.1094-0.87891 0.82031 0 1.5703 0.32031 2.1406 0.89062 1.75 1.7695 3.8203 3.1016 6.1484 3.9492 0.75 0.28125 1.3516 0.82812 1.6914 1.5586 0.32812 0.71875 0.37109 1.5391 0.089844 2.2891-0.42969 1.1797-1.5586 1.9688-2.8203 1.9688-0.35156 0-0.69922-0.058593-1.0312-0.19141-2.1914-0.80078-4.2305-1.9297-6.0781-3.3594l-177.51 177.52c3.1289 4.0703 4.7812 8.9297 4.7812 14.07 0 5.1406-1.6484 10-4.7812 14.07l35.559 35.562c0.57031 0.55859 0.87891 1.3203 0.87891 2.1211 0 0.80078-0.30859 1.5508-0.87891 2.1172-0.55859 0.56641-1.3164 0.875-2.1172 0.875z"/>
  <path d="m465.91 279.1c-6.1797 0-11.98-2.3984-16.34-6.7695-4.3594-4.3711-6.7617-10.172-6.7617-16.34 0.011718-12.73 10.371-23.09 23.102-23.09 12.719 0 23.078 10.359 23.09 23.09-0.011719 12.738-10.371 23.109-23.09 23.109zm0-40.203c-9.4102 0.011718-17.078 7.6797-17.102 17.09 0.019531 9.4219 7.6914 17.102 17.102 17.109 9.3984-0.011718 17.07-7.6875 17.09-17.109-0.019531-9.4102-7.6914-17.078-17.09-17.09z"/>
  <path d="m46.121 279.1c-12.738 0-23.109-10.371-23.121-23.109 0.011719-12.73 10.379-23.09 23.121-23.09 12.73 0 23.09 10.359 23.09 23.09 0 12.738-10.359 23.109-23.09 23.109zm0-40.203c-9.4219 0.011718-17.102 7.6797-17.121 17.09 0.019531 9.4219 7.6992 17.102 17.121 17.109 9.4102-0.011718 17.07-7.6875 17.09-17.109-0.019532-9.4102-7.6797-17.078-17.09-17.09z"/>
  <path d="m256.01 69.18c-6.1719 0-11.969-2.3984-16.34-6.75-4.3594-4.3594-6.7695-10.16-6.7695-16.34 0-12.719 10.371-23.078 23.109-23.09 12.73 0.011719 23.09 10.371 23.09 23.09 0 12.738-10.363 23.09-23.09 23.09zm0-40.18c-9.4219 0.019531-17.09 7.6914-17.109 17.09 0.019531 9.4102 7.6914 17.078 17.109 17.09 9.4102-0.011719 17.078-7.6797 17.102-17.09-0.023437-9.3984-7.6914-17.07-17.102-17.09z"/>
  <path d="m256.01 489c-12.738-0.011719-23.109-10.379-23.109-23.121 0-12.73 10.371-23.09 23.109-23.09 12.73 0 23.09 10.359 23.09 23.09 0 12.742-10.363 23.109-23.09 23.121zm0-40.211c-9.4219 0.019532-17.09 7.6797-17.109 17.09 0.019531 9.4219 7.6914 17.102 17.109 17.121 9.4102-0.019531 17.078-7.6992 17.09-17.121-0.011718-9.4102-7.6797-17.07-17.09-17.09z"/>
  <path d="m436.06 208.94c-0.80078 0-1.5508-0.30859-2.1211-0.87109l-131.44-131.44c-1.1719-1.1719-1.1719-3.0703 0-4.2383 1.1406-1.1406 3.1094-1.1406 4.25 0l131.43 131.43c1.1719 1.1719 1.1719 3.0781 0 4.25-0.55859 0.55859-1.3203 0.87109-2.1211 0.87109z"/>
  <path d="m263.95 379.01c-1.5781 0-2.8906-1.2383-2.9883-2.8086-0.050782-0.80078 0.21094-1.5703 0.73828-2.1719 0.51953-0.60156 1.25-0.96094 2.0391-1.0117 0.011719-0.011719 0.011719-0.011719 0.019531-0.011719 1.6602-0.12109 3.0781 1.1602 3.1797 2.8008 0.0625 0.80078-0.21094 1.5703-0.73047 2.1719-0.53125 0.60938-1.2617 0.97266-2.0625 1.0195-0.066406 0-0.13281 0.011719-0.19531 0.011719zm-19.961-0.33984c-0.10156 0-0.19922 0-0.30078-0.011719-30.27-3.0117-58.262-17.102-78.828-39.691-20.699-22.73-32.102-52.188-32.102-82.961 0-15.301 2.7695-30.23 8.2305-44.371 5.2695-13.672 12.879-26.191 22.621-37.219 19.73-22.328 46.77-36.75 76.16-40.629 1.6211-0.21094 3.1484 0.96875 3.3711 2.5898 0.10156 0.78906-0.10938 1.5781-0.60156 2.2188-0.48047 0.62891-1.1914 1.0391-1.9805 1.1406-58.039 7.6406-101.81 57.629-101.8 116.27-0.011718 60.539 45.359 110.7 105.52 116.68h0.011718c1.5312 0.14844 2.6914 1.4297 2.6914 2.9727 0 0.10156 0 0.19922-0.011719 0.30859-0.16016 1.543-1.4375 2.7031-2.9805 2.7031zm39.711-2.6133c-1.3984 0-2.6016-0.94922-2.9219-2.3086-0.17969-0.78125-0.050782-1.5898 0.36719-2.2695 0.42188-0.67969 1.0781-1.1602 1.8594-1.3398 53.148-12.539 90.262-59.469 90.262-114.13 0-31.32-12.211-60.77-34.352-82.922-22.16-22.148-51.602-34.352-82.91-34.359-1.6484 0-3-1.3398-3-3 0-1.6484 1.3516-3 3-3 16.641 0 32.781 3.2617 47.969 9.6914 14.68 6.2109 27.859 15.102 39.18 26.422 11.32 11.328 20.211 24.512 26.422 39.191 6.4297 15.199 9.6875 31.34 9.6875 47.98 0 14.262-2.4219 28.23-7.1797 41.531-4.6016 12.859-11.289 24.801-19.871 35.5-8.5 10.609-18.621 19.688-30.059 26.98-11.648 7.4297-24.359 12.801-37.77 15.961-0.22266 0.042969-0.45312 0.070313-0.68359 0.070313z"/>
  <path d="m228.39 441.66h-111.45c-1.6484 0-3-1.3516-3-3 0-1.6602 1.3516-3 3-3h111.45c1.6602 0 3.0117 1.3398 3.0117 3-0.003906 1.6484-1.3516 3-3.0117 3z"/>
  <path d="m405.77 454.75h-118.82c-1.6602 0-3-1.3398-3-3 0-1.6484 1.3398-3 3-3h118.82c1.6484 0 3 1.3516 3 3 0 1.6602-1.3477 3-3 3z"/>
  <path d="m443.99 454.75h-21.02c-1.6602 0-3-1.3398-3-3 0-1.6484 1.3398-3 3-3h21.02c1.6484 0 3 1.3516 3 3 0 1.6602-1.3477 3-3 3z"/>
  <path d="m165.48 454.35h-79.68c-1.6602 0-3-1.3398-3-2.9883 0-1.6602 1.3398-3 3-3h79.68c1.6484 0 2.9883 1.3398 2.9883 3 0 1.6484-1.3398 2.9883-2.9883 2.9883z"/>
 </g>
</svg>
