<?xml version="1.0" encoding="UTF-8"?>
<svg width="512pt" height="512pt" version="1.1" viewBox="0 0 512 512" xmlns="http://www.w3.org/2000/svg">
 <g>
  <path d="m368.67 313.2-112.67-64.719-112.67 64.719v129.47l112.67 64.719 112.67-64.719zm-112.67-55.504 104.67 60.129v56.113h-209.34v-56.113zm0 240.46-104.67-60.129v-56.113h209.34v56.113z"/>
  <path d="m508 69.344-112.67-64.719-112.67 64.719v129.47l112.67 64.703 112.67-64.703zm-112.67-55.504 104.67 60.129v56.109h-209.34v-56.109zm0 240.45-104.67-60.113v-56.098h209.34v56.113z"/>
  <path d="m4 198.8 112.67 64.703 112.67-64.703v-129.46l-112.67-64.719-112.67 64.719zm112.67 55.488-104.67-60.113v-56.098h209.34v56.113zm0-240.45 104.67 60.129v56.109h-209.34v-56.109z"/>
 </g>
</svg>
