<?xml version="1.0" encoding="UTF-8"?>
<svg width="512pt" height="512pt" version="1.1" viewBox="0 0 512 512" xmlns="http://www.w3.org/2000/svg">
 <g>
  <path d="m185.8 111.36-6.6289-11.422 13.348-23.09h13.234zm-3.3398-11.418 3.3477 5.7656 15.031-26.012h-6.6719z"/>
  <path d="m230.85 166.39-13.289-0.007813-13.355-23.117 6.6211-11.492zm-11.648-2.8516h6.7109l-15.09-26.09-3.3438 5.8008z"/>
  <path d="m267.6 166.39-6.6719-11.527 39.984-0.015625-6.6641 11.535zm-1.7422-8.6836 3.3867 5.8398 23.375-0.007813 3.3711-5.8398z"/>
  <path d="m305.98 123.05 19.961-34.574 6.6758 11.477-13.355 23.09zm19.977-28.891-15.039 26.047h6.7109l11.703-20.238z"/>
  <path d="m190.83 120.11-6.5-11.18 0.25-1.1172 17.906-30.969h13.285zm-3.4062-11.527 3.3906 5.8438 20.023-34.738h-6.7109z"/>
  <path d="m227.56 166.39-18.375-31.785 6.6719-11.465 24.98 43.242zm-15.09-31.781 16.734 28.93h6.707l-20.066-34.723z"/>
  <path d="m262.56 157.7-6.6133-11.492h49.941l-6.6328 11.477zm-1.6914-8.6484 3.3359 5.7969 33.414-0.015624 3.3438-5.7812z"/>
  <path d="m309.26 123.05-13.277-0.007812 24.996-43.258 6.3867 11.109v0.75391l-0.18359 0.375zm-8.3633-2.8438h6.7188l16.695-28.906-3.3555-5.8242z"/>
  <path d="m195.84 128.8-6.6562-11.527 23.297-40.434 13.328 0.015625zm-3.3789-11.535 3.3633 5.8164 25.047-43.391-6.7539-0.007812z"/>
  <path d="m250.84 166.38h-13.285l-23.348-40.406 6.6719-11.535zm-11.648-2.8438h6.7109l-25.039-43.398-3.3789 5.8398z"/>
  <path d="m304.25 149.05h-46.465l-0.64844-0.75391-6.2148-10.781 59.953-0.007812zm-45.027-2.8438h43.391l3.3711-5.8438-50.125 0.007812z"/>
  <path d="m285.95 123.06 30.008-51.934 6.6641 11.512-23.352 40.414zm30.008-46.266-25.074 43.422 6.7422-0.007813 21.703-37.574z"/>
  <path d="m260.89 166.38h-13.332l-28.324-49.09 6.6055-11.535zm-11.699-2.8438h6.7539l-30.094-52.074-3.3438 5.832z"/>
  <path d="m200.82 137.37-6.6289-11.422 28.324-49.09 13.332-0.007813zm-3.3398-11.434 3.3477 5.7812 30.094-52.023h-6.7539z"/>
  <path d="m252.57 140.38-6.6133-11.484h69.973l-6.6758 11.484zm-1.6953-8.6406 3.3359 5.7891 53.398-0.007813 3.3789-5.7891z"/>
  <path d="m289.24 123.06-13.297-0.015625 34.988-60.637 6.6758 11.555zm-8.3711-2.8516 6.7266 0.007813 26.719-46.258-3.3789-5.8438z"/>
  <path d="m248.42 131.73h-0.61719l-0.46094-0.50391-6.3945-11.031h79.973l-6.6211 11.535zm-2.5586-8.6836 3.3633 5.8398h63.41l3.3555-5.8398z"/>
  <path d="m270.88 166.39-13.289-0.007813-33.402-57.777 6.6758-11.469zm-11.648-2.8516h6.7188l-35.086-60.742-3.3789 5.8086z"/>
  <path d="m279.21 123.03h-13.285l40.027-69.27 6.6055 11.477zm-8.3555-2.8516h6.7109l31.707-54.934-3.3438-5.7969z"/>
  <path d="m205.84 146.12-6.6641-11.59 33.387-57.691h13.285zm-3.3789-11.574 3.3789 5.8672 35.07-60.73h-6.7109z"/>
  <path d="m300.86 68.16-19.98-34.617 13.312-0.007813 13.34 23.09zm-15.055-31.773 15.047 26.09 3.3867-5.8438-11.691-20.246z"/>
  <path d="m250.8 45.062-39.914-0.015625 6.5977-11.52 26.672 0.027344zm-27.492-2.8633 22.555 0.019531-3.3555-5.8164-23.387-0.019532-3.3359 5.8242z"/>
  <path d="m295.87 76.793-24.961-43.234 13.246-0.015625 18.332 31.781zm-20.039-40.391 20.039 34.707 3.3477-5.7891-16.695-28.934z"/>
  <path d="m228.33 53.738-22.488-0.050781 6.5938-11.156 0.38281-0.29688 0.51953-0.027344 9.9688-0.007812 25.848 0.019531 6.6406 11.492zm-17.559-2.8789 17.559 0.027344 22.543-0.015625-3.3633-5.8086-24.199-0.015625h-9.1719z"/>
  <path d="m290.86 85.477-29.973-51.926 7.7227-0.007812 5.582 0.019531 23.188 40.148-0.29297 1.0234zm-25.047-49.09 25.047 43.406 3.3867-5.8164-21.688-37.574z"/>
  <path d="m213.29 62.422-12.445-0.035156 6.6484-11.535 46.672 0.015626 6.6641 11.535zm-7.5312-2.8672 7.2461 0.019531 0.33203-0.019531 9.957-0.015626 32.605 0.019532-3.3789-5.8398-24.184 0.019531-19.199-0.035156z"/>
  <path d="m285.89 94.117-35.008-60.602 13.289 0.027344 28.332 49.09zm-30.07-57.75 30.074 52.055 3.3359-5.7891-26.695-46.242z"/>
  <path d="m195.82 71.082 6.6562-11.543 56.695 0.015626 6.6562 11.504zm12.465-2.8867 20.039 0.027344 15.074-0.027344 17.5 0.019532-3.3633-5.8164-34.246-0.019532-10.004 0.035156-9.168-0.027343-3.3633 5.832z"/>
  <path d="m280.86 102.8-39.977-69.242 13.285-0.050781 33.336 57.707-0.34766 0.68359zm-35.062-66.41 35.066 60.73 3.3906-5.8438-31.723-54.906z"/>
  <path d="m213.3 79.781-22.484-0.050781 6.6328-11.465 10.832-0.035156 20.023 0.027343 15.105-0.050781 20.75 0.042969 6.6484 11.5-27.484 0.019531-20.023-0.042969zm-17.562-2.8906 17.551 0.035156 10.02-0.058593 20.023 0.042968 22.551-0.015625-3.3555-5.8164-19.117-0.023437-15.109 0.050781-20.02-0.03125-9.1875 0.027343z"/>
  <path d="m321.05 189.44-6.6289-11.414 13.355-23.09h13.234zm-3.3281-11.414 3.3477 5.7656 15.031-26.012h-6.6758z"/>
  <path d="m366.1 244.46h-13.285l-13.348-23.125 6.6055-11.5zm-11.641-2.8438h6.7109l-15.082-26.082-3.3438 5.8008z"/>
  <path d="m429.5 244.47-26.652-0.007812-6.6719-11.52 39.984-0.015624zm-25.008-2.8516 23.375 0.007812 3.3711-5.8438-30.121 0.007813z"/>
  <path d="m454.52 201.14h-13.285l19.98-34.574 6.6641 11.484zm-8.3555-2.8516h6.7109l11.703-20.246-3.3711-5.8008z"/>
  <path d="m326.07 198.2-6.4375-11.102v-0.76953l0.19141-0.43359 17.914-30.961h13.277zm-3.4023-11.527 3.3984 5.8438 20.023-34.73h-6.7188z"/>
  <path d="m376.09 244.46h-13.27l-18.383-31.781 6.6758-11.457zm-11.637-2.8438h6.6992l-20.055-34.723-3.3789 5.7969z"/>
  <path d="m397.82 235.8-6.6133-11.5h49.934l-6.6328 11.484zm-1.6914-8.6523 3.3359 5.8008 33.414-0.007812 3.3438-5.7969z"/>
  <path d="m444.52 201.14h-13.262l24.98-43.258 6.3984 11.109v0.76172l-0.19141 0.36328zm-8.3477-2.8516h6.707l16.703-28.906-3.3633-5.8242z"/>
  <path d="m331.08 206.9-6.6562-11.547 23.309-40.418h13.305zm-3.3633-11.551 3.3789 5.832 25.039-43.398h-6.75z"/>
  <path d="m386.09 244.46h-13.285l-23.332-40.406 6.6562-11.543zm-11.648-2.8438h6.7109l-25.039-43.406-3.3789 5.8438z"/>
  <path d="m439.5 227.14h-46.543l-0.43359-0.57031-6.3555-10.957h59.98zm-45.023-2.8477h43.387l3.3789-5.832h-50.133z"/>
  <path d="m434.52 201.14h-13.34l30.031-51.941 6.6562 11.527-10.461 18.02zm-8.4062-2.8516h6.7695l21.688-37.574-3.3789-5.8438z"/>
  <path d="m396.13 244.46h-13.328l-28.316-49.094 6.6055-11.535zm-11.684-2.8438h6.7539l-30.094-52.082-3.3438 5.8242z"/>
  <path d="m336.07 215.45-6.6328-11.414 15.445-26.73 12.887-22.379h13.34zm-3.3398-11.422 3.3438 5.7656 30.102-52.02h-6.7695z"/>
  <path d="m444.52 218.46h-56.695l-6.6133-11.492h69.988zm-55.055-2.8438h53.418l3.3789-5.7969h-60.125z"/>
  <path d="m424.47 201.14h-13.27l34.992-60.637 6.6641 11.535zm-8.332-2.8516h6.6992l26.73-46.258-3.3711-5.8242z"/>
  <path d="m449.55 209.81h-66.395l-0.76172-0.74609-6.2227-10.773h79.973zm-65.09-2.8438h63.43l3.3477-5.8242h-70.137z"/>
  <path d="m406.13 244.46h-13.285l-33.395-57.777 6.6758-11.469zm-11.641-2.8438h6.7109l-35.086-60.734-3.3789 5.8008z"/>
  <path d="m414.47 201.12h-13.297l40.027-69.27 6.6055 11.484zm-8.3711-2.8516h6.7266l31.695-54.941-3.3438-5.8008z"/>
  <path d="m341.1 224.21-6.6758-11.586 33.395-57.691h13.285zm-3.3828-11.578 3.3867 5.875 35.078-60.73h-6.7109z"/>
  <path d="m436.12 146.26-19.996-34.633h13.312l13.332 23.09zm-15.062-31.781 15.062 26.082 3.3789-5.8438-11.699-20.238z"/>
  <path d="m386.06 123.14-39.938-0.007812 6.6289-11.512 26.668 0.019531zm-27.492-2.8672 22.562 0.015625-3.3555-5.8047-23.387-0.015625-3.3477 5.8164z"/>
  <path d="m431.14 154.88-24.98-43.234 13.254-0.007812 18.355 31.781zm-20.047-40.398 20.047 34.711 3.3438-5.7812-16.703-28.934z"/>
  <path d="m363.59 131.82-22.473-0.035156 6.5938-11.188 0.38281-0.28516 0.49609-0.019531 9.9844-0.007813 25.848 0.019532 6.6289 11.5zm-17.559-2.875 17.559 0.019532 22.543-0.007813-3.3477-5.8164-24.207-0.015625-9.1797 0.007812z"/>
  <path d="m426.12 163.56-29.988-51.926 7.7148-0.019531 5.5977 0.019531 0.40625 0.71094 22.785 39.438-0.28516 1.0312zm-25.074-49.086 25.066 43.414 3.3867-5.8242-21.711-37.574-3.9453-0.015626z"/>
  <path d="m348.54 140.51-12.43-0.042968 6.6484-11.527 46.656 0.015625 6.6719 11.535zm-7.5273-2.8711 7.1523 0.019531 0.42578-0.019531 20.004-0.015625 22.562 0.019531-3.3867-5.8398-34.211 0.015625-9.168-0.027344z"/>
  <path d="m421.13 172.2-34.996-60.602 13.285 0.042969 28.352 49.09zm-30.066-57.742 30.066 52.059 3.3555-5.7891-26.703-46.25z"/>
  <path d="m331.08 149.18 6.6641-11.555 56.695 0.015625 6.6484 11.504zm8.3008-8.7109-3.3711 5.8398 7.543-0.027344 20.02 0.027344 15.082-0.027344 17.492 0.019532-3.3555-5.8164-24.207-0.015625-20.047 0.035156z"/>
  <path d="m416.13 180.9-39.984-69.246 13.277-0.058594 0.41406 0.71875 32.91 56.996-0.33984 0.68359zm-35.074-66.418 35.07 60.73 3.3633-5.8438-31.707-54.91z"/>
  <path d="m378.59 157.86-20.031-0.042969-10 0.042969-22.477-0.042969 6.6289-11.477 10.824-0.027344 20.02 0.027344 15.117-0.058594 20.742 0.042969 6.6406 11.504zm-47.594-2.8789 17.559 0.027343 10.004-0.042968 20.031 0.042968 22.543-0.015624-3.3633-5.8242-19.102-0.035157-15.117 0.058594-20.02-0.027344-9.1953 0.019532z"/>
  <path d="m185.93 267.36-6.5977-11.434 13.34-23.09h13.234zm-3.3203-11.434 3.3281 5.7734 15.039-26.012h-6.6719z"/>
  <path d="m230.96 322.37h-13.27l-13.348-23.133 6.6211-11.465zm-11.617-2.8438h6.6992l-15.074-26.07-3.3359 5.7812z"/>
  <path d="m294.37 322.37h-26.652l-6.6641-11.527h39.984zm-25.008-2.8438h23.375l3.3867-5.832h-30.121z"/>
  <path d="m319.39 279.03h-13.27l19.961-34.566 6.6719 11.492zm-8.3398-2.8438h6.6992l11.703-20.23-3.3633-5.8008z"/>
  <path d="m190.95 276.09-6.4219-11.312-0.050781-0.46094 0.22656-0.49609 17.922-30.977h13.277zm-3.3984-11.52 3.3906 5.8398 20.031-34.723h-6.7109z"/>
  <path d="m240.97 322.37h-13.289l-18.359-31.758 6.6719-11.492zm-11.645-2.8438h6.7109l-20.059-34.723-3.3789 5.8086z"/>
  <path d="m299.41 313.68h-36.699l-6.6211-11.484h49.949zm-35.059-2.8438h33.414l3.3438-5.7891h-40.094z"/>
  <path d="m309.41 279.03h-13.297l25.016-43.258 6.3867 11.109v0.75391l-0.18359 0.37109zm-8.3711-2.8438h6.7266l16.691-28.898-3.3477-5.8242z"/>
  <path d="m195.99 284.8-6.6836-11.547 23.305-40.414h13.32zm-3.3984-11.551 3.3867 5.8398 25.039-43.406h-6.7539z"/>
  <path d="m250.98 322.38-13.297-0.015624-23.34-40.414 6.6719-11.527zm-11.648-2.8594 6.7109 0.015624-25.039-43.406-3.3789 5.832z"/>
  <path d="m304.39 305.05h-46.484l-0.42578-0.48438-6.4141-11.043h59.961zm-45.035-2.8477h43.398l3.3711-5.832h-50.133z"/>
  <path d="m299.39 279.03h-13.328l30.023-51.926 6.6719 11.52zm-8.3984-2.8438h6.7539l21.719-37.566-3.3867-5.8438z"/>
  <path d="m247.7 322.38-28.324-49.102 6.6055-11.535 35.043 60.613zm-25.047-49.102 26.688 46.258 6.7539-0.007812-30.102-52.074z"/>
  <path d="m200.95 293.38-6.6133-11.422 5.375-9.4062 22.934-39.703h13.34zm-3.3281-11.441 3.3359 5.7734 30.094-52.023h-6.7617z"/>
  <path d="m309.39 296.37h-56.691l-6.5977-11.484h69.965zm-55.039-2.8516h53.406l3.3789-5.7891h-60.109z"/>
  <path d="m289.34 279.03h-13.27l34.992-60.621 6.6641 11.535zm-8.332-2.8438h6.6992l26.73-46.242-3.3711-5.832z"/>
  <path d="m314.43 287.73h-66.367l-0.78125-0.75391-6.2148-10.789h79.965zm-65.074-2.8438h63.418l3.3477-5.8438h-70.137z"/>
  <path d="m271 322.37h-13.277l-33.395-57.77 6.6719-11.492zm-11.633-2.8438h6.707l-35.078-60.742-3.3789 5.8164z"/>
  <path d="m279.36 279.02h-13.297l40.027-69.262 6.5938 11.469zm-8.3711-2.8438h6.7266l31.68-54.941-3.3281-5.7969z"/>
  <path d="m205.97 302.12-6.6641-11.586 33.387-57.699h13.277zm-3.3711-11.57 3.3789 5.8594 35.078-60.73h-6.707z"/>
  <path d="m301 224.16-19.98-34.633h13.312l13.32 23.09zm-15.047-31.789 15.047 26.09 3.3789-5.8438-11.684-20.246z"/>
  <path d="m250.95 201.05h-39.93l6.5977-11.527 26.668 0.019531zm-27.52-2.8672 22.578 0.019531-3.3633-5.8164-23.387-0.015624-3.3359 5.8242z"/>
  <path d="m296.02 232.77-24.961-43.227 13.246-0.015625 18.34 31.785zm-20.039-40.383 20.039 34.703 3.3438-5.7734-16.691-28.934z"/>
  <path d="m218.43 209.72-12.453-0.042968 6.4492-11.145 1.0469-0.33984 9.957-0.015624 25.871 0.019531 6.6211 11.492zm-7.5234-2.875 7.5312 0.019532 32.57-0.015626-3.3477-5.8086-24.219-0.015625-9.1719 0.007812z"/>
  <path d="m291.02 241.47-29.988-51.934 7.7031-0.019531 5.6094 0.035157 0.40625 0.70312 22.762 39.418-0.27734 1.0469zm-25.074-49.102 25.066 43.414 3.3789-5.8242-21.703-37.574-3.9609-0.019531z"/>
  <path d="m213.42 218.4-12.438-0.035156 6.6484-11.535 46.656 0.015625 6.6719 11.543zm-7.5312-2.8633 7.2891 0.019532 0.28516-0.015625 20.004-0.019531 22.562 0.019531-3.3789-5.8438-34.211 0.019531-9.1719-0.035156z"/>
  <path d="m286.02 250.1-35-60.602 13.297 0.035156 28.352 49.094zm-30.066-57.742 30.066 52.059 3.3555-5.7891-26.703-46.25z"/>
  <path d="m195.95 227.07 6.6719-11.543 56.695 0.015625 6.6562 11.504zm12.488-2.8867 20.02 0.035156 15.09-0.035156 17.492 0.019531-3.3633-5.8164-24.207-0.015625-20.039 0.035156-9.168-0.027344-3.3711 5.832z"/>
  <path d="m281 258.78-39.984-69.234 13.285-0.042969 33.238 57.543-0.30469 0.98047zm-35.074-66.406 35.07 60.73 3.3867-5.8242-31.723-54.926z"/>
  <path d="m243.47 235.75-52.523-0.042968 6.6406-11.469 20.855-0.027344 10.004 0.035156 15.098-0.0625 20.758 0.058594 6.6484 11.477zm-47.594-2.8711 17.559 0.027344 10.004-0.027344 20.023 0.027344 22.551-0.019531-3.3555-5.7969-19.109-0.050781-15.105 0.0625-20.039-0.035157-9.1797 0.019532z"/>
  <path d="m321.19 345.44-6.6133-11.422 13.355-23.09h13.219zm-3.3203-11.422 3.3359 5.7734 15.031-26.012h-6.6719z"/>
  <path d="m352.95 400.46-13.348-23.133 6.6289-11.5 20.004 34.609zm-10.07-23.125 11.703 20.289 6.7109-0.007812-15.074-26.082z"/>
  <path d="m429.62 400.46-26.637-0.015626-6.6719-11.512 39.984-0.015625zm-25.004-2.8555 23.359 0.015625 3.3867-5.8438-30.117 0.015625z"/>
  <path d="m441.37 357.13 19.969-34.566 6.6641 11.477-0.41797 0.71094-12.922 22.371zm19.965-28.891-15.031 26.039 6.7109-0.015625 11.691-20.23z"/>
  <path d="m326.21 354.19-6.4375-11.102 0.003907-0.76172 0.19141-0.43359 17.914-30.969h13.277zm-3.3906-11.527 3.3984 5.8438 20.023-34.738h-6.7188z"/>
  <path d="m376.23 400.45h-13.285l-18.367-31.773 6.6641-11.477zm-11.641-2.8438h6.7109l-20.059-34.723-3.3711 5.7969z"/>
  <path d="m397.96 391.79-6.6133-11.5 49.922 0.015625-6.6133 11.469zm-1.6953-8.6523 3.3359 5.8008 33.414-0.015625 3.3359-5.7812z"/>
  <path d="m444.65 357.13h-13.277l24.996-43.266 6.3867 11.113v0.76172l-0.19141 0.37109zm-8.3555-2.8516h6.7188l16.691-28.898-3.3477-5.832z"/>
  <path d="m331.22 362.89-6.6641-11.535 23.309-40.434h13.328zm-3.3711-11.547 3.3711 5.8242 25.047-43.398h-6.7539z"/>
  <path d="m386.23 400.46-13.285-0.015626-23.352-40.414 6.6758-11.527zm-11.641-2.8555 6.7109 0.015625-25.039-43.406-3.3789 5.832z"/>
  <path d="m439.62 383.15-46.406-0.015626-0.68359-0.76172-6.2227-10.773h59.961zm-45.016-2.8594 43.379 0.015626 3.3867-5.8438h-50.125z"/>
  <path d="m434.65 357.13h-13.328l30.008-51.918 6.6719 11.492zm-8.3984-2.8516h6.7539l21.703-37.574-3.3867-5.8398z"/>
  <path d="m382.95 400.46-28.316-49.102 6.6055-11.535 35.043 60.613zm-25.047-49.102 26.68 46.258 6.7539-0.007813-30.09-52.074z"/>
  <path d="m336.21 371.45-6.6289-11.414 5.375-9.4062 22.961-39.703h13.328zm-3.3438-11.43 3.3477 5.7812 30.102-52.023h-6.7539z"/>
  <path d="m444.64 374.45h-56.684l-6.6133-11.484h69.973zm-55.039-2.8438h53.406l3.3789-5.7891h-60.109z"/>
  <path d="m424.61 357.13h-13.285l34.973-60.637 6.6758 11.547zm-8.3555-2.8516h6.7109l26.715-46.242-3.3789-5.8398z"/>
  <path d="m449.67 365.81h-66.453l-0.69141-0.75391-6.1953-10.773 79.957-0.015625zm-65.059-2.8438h63.41l3.3555-5.8438-70.121 0.015625z"/>
  <path d="m406.28 400.45h-13.289l-33.395-57.77 6.6641-11.469zm-11.652-2.8438h6.707l-35.086-60.73-3.3711 5.8008z"/>
  <path d="m414.6 357.11h-13.285l40.027-69.27 6.5938 11.484zm-8.3555-2.8516h6.7109l31.695-54.941-3.3281-5.7891z"/>
  <path d="m341.22 380.2-6.6641-11.578 20.457-35.32 12.934-22.371h13.285zm-3.3633-11.562 3.3711 5.8594 35.094-60.723h-6.7109z"/>
  <path d="m436.25 302.23-19.98-34.609h13.312l13.34 23.09zm-15.055-31.766 15.047 26.082 3.3867-5.8398-11.691-20.246z"/>
  <path d="m386.19 279.13-39.922-0.015624 6.6289-11.512 26.652 0.027343zm-35.008-2.8594 30.074 0.015624-3.3555-5.8008-23.375-0.027343z"/>
  <path d="m431.26 310.88-24.961-43.234 13.254-0.019531 18.332 31.773zm-20.039-40.402 20.039 34.711 3.3477-5.7891-16.695-28.922z"/>
  <path d="m363.72 287.82-22.484-0.058594 6.6562-11.215 0.36328-0.24219 0.46875-0.027343 35.82 0.015624 6.6484 11.492zm-17.562-2.8828 17.57 0.027344 22.535-0.019532-3.3555-5.8086-33.387-0.015624z"/>
  <path d="m426.26 319.56-30-51.926 7.7305-0.019531 5.5898 0.019531 23.184 40.148-0.28516 1.0312zm-25.082-49.086 25.082 43.406 3.3711-5.832-21.688-37.574-3.9531-0.007812z"/>
  <path d="m348.67 296.49-12.453-0.035157 6.6562-11.535 46.672 0.015625 6.6719 11.543zm-7.5312-2.8672 7.1094 0.019531 0.042969-0.027343 42.992 0.015624-3.3867-5.8438-34.211 0.027344-9.1797-0.042968z"/>
  <path d="m421.26 328.18-34.992-60.594 13.27 0.042968 28.367 49.082zm-30.059-57.727 30.066 52.047 3.3555-5.7812-26.715-46.25z"/>
  <path d="m331.21 305.17 6.6484-11.547 56.711 0.015625 6.6484 11.512zm12.457-2.8945 20.031 0.042968 10.004-0.042968 22.57 0.027343-3.3555-5.8164-43.766-0.023437-0.47656 0.027343-9.1719-0.027343-3.3555 5.8398z"/>
  <path d="m416.25 336.87-39.984-69.227 13.289-0.035156 0.41406 0.71875 32.91 56.98-0.33984 0.69141zm-35.066-66.395 35.07 60.715 3.3789-5.8398-31.707-54.898z"/>
  <path d="m378.72 313.84-52.5-0.035156 6.6289-11.457 10.824-0.050781 20.023 0.042969 15.098-0.058594 20.758 0.027344 6.6406 11.512zm-20.023-2.8867 20.02 0.042969 22.555-0.015625-3.3633-5.8164-19.113-0.027343-15.105 0.058593-20.02-0.042968-9.1953 0.035156-3.3477 5.7891 17.559 0.019532z"/>
  <path d="m50.695 345.38-6.6211-11.422 13.34-23.09 13.242-0.015626zm-3.3359-11.418 3.3438 5.7734 15.039-26.027-6.6719 0.015625z"/>
  <path d="m95.738 400.4h-13.277l-13.363-23.133 6.6211-11.5zm-11.637-2.8516h6.707l-15.09-26.09-3.3438 5.8008z"/>
  <path d="m159.12 400.4h-26.645l-6.6719-11.543h39.992zm-25.004-2.8516h23.367l3.3867-5.8438h-30.129z"/>
  <path d="m184.15 357.06h-13.277l19.969-34.566 6.6641 11.477zm-8.3477-2.8438h6.707l11.703-20.246-3.3711-5.7969z"/>
  <path d="m55.723 354.12-6.4492-11.113v-0.76172l0.19141-0.40625 17.914-30.984h13.262zm-3.3984-11.523 3.3984 5.8438 20.004-34.738h-6.6992z"/>
  <path d="m105.73 400.4h-13.277l-18.375-31.785 6.6641-11.457zm-11.641-2.8516h6.7109l-20.082-34.73-3.3711 5.7891z"/>
  <path d="m164.16 391.7h-36.707l-6.6133-11.469 49.926-0.015625zm-35.059-2.8477h33.414l3.3359-5.7891-40.086 0.015625z"/>
  <path d="m174.16 357.06h-13.277l24.98-43.266 6.4375 11.164-0.23047 1.082zm-8.3633-2.8438h6.7188l16.695-28.898-3.3555-5.832z"/>
  <path d="m60.742 362.82-6.6641-11.535 23.281-40.426 13.332 0.019531zm-3.375-11.543 3.3711 5.8242 25.047-43.398-6.7773-0.007813z"/>
  <path d="m115.73 400.4h-13.285l-23.359-40.414 6.6719-11.527zm-11.633-2.8516h6.7109l-25.047-43.398-3.3867 5.832z"/>
  <path d="m122.52 383.07-0.44922-0.72656-6.25-10.816h59.969l-6.6562 11.527zm-1.7773-8.6953 3.3867 5.8438 43.371-0.015625 3.3789-5.832z"/>
  <path d="m164.16 357.06h-13.332l30.016-51.926 6.6641 11.5zm-8.4062-2.8438h6.7617l21.703-37.574-3.3789-5.832z"/>
  <path d="m125.78 400.4h-13.332l-28.324-49.09 6.6133-11.547zm-11.691-2.8516h6.75l-30.086-52.082-3.3477 5.8398z"/>
  <path d="m65.715 371.39-6.6211-11.426 28.324-49.094h13.328zm-3.3359-11.441 3.3438 5.7734 30.094-52.004h-6.75z"/>
  <path d="m174.14 374.38h-56.684l-6.5977-11.484h69.973zm-55.031-2.8438h53.406l3.3711-5.7891h-60.113z"/>
  <path d="m154.11 357.06h-13.277l34.965-60.637 6.6758 11.547zm-8.3438-2.8438h6.707l26.73-46.242-3.3867-5.8398z"/>
  <path d="m179.18 365.75h-66.238l-0.66016-0.38281-0.24219-0.36328-6.1992-10.773 79.949-0.015624zm-65.082-2.8516h63.43l3.3438-5.832-70.121 0.015625z"/>
  <path d="m135.77 400.4h-13.285l-33.387-57.785 6.6641-11.477zm-11.641-2.8516h6.7109l-35.086-60.734-3.3711 5.7969z"/>
  <path d="m144.11 357.04h-13.285l40.016-69.262 6.6055 11.492zm-8.3555-2.8438h6.7188l31.703-54.926-3.3438-5.8086z"/>
  <path d="m70.727 380.13-6.6562-11.586 33.387-57.68h13.285zm-3.3711-11.57 3.3711 5.8594 35.078-60.707h-6.7109z"/>
  <path d="m165.76 302.18-19.98-34.633h13.312l13.32 23.09zm-15.055-31.785 15.055 26.09 3.3711-5.8438-11.684-20.246z"/>
  <path d="m115.7 279.07-39.922-0.015625 6.6055-11.512 26.668 0.015625zm-35.012-2.8555 30.078 0.015625-3.3633-5.8164-23.383-0.015625z"/>
  <path d="m160.77 310.8-24.961-43.227 13.254-0.019531 18.34 31.785zm-20.039-40.398 20.039 34.715 3.3477-5.7812-16.695-28.934z"/>
  <path d="m120.7 287.73-49.961-0.019531 6.5781-11.148 0.39063-0.3125 0.53516-0.027344 35.824 0.015625zm-45.035-2.8516 40.105 0.007813-3.3555-5.8008-33.379-0.015626z"/>
  <path d="m155.76 319.5-30-51.934h13.328l23.141 40.086-0.24219 1.0938zm-25.074-49.09 25.074 43.406 3.3789-5.8242-21.695-37.574h-6.7578z"/>
  <path d="m78.18 296.43-12.457-0.035156 6.6641-11.52 46.676 0.015625 6.6406 11.527zm-7.5312-2.8711 7.3086 0.019531 0.26562-0.011719 19.996-0.015625 22.562 0.015625-3.3633-5.832-43.391-0.015625z"/>
  <path d="m150.77 328.12-35-60.602 13.277 0.058594 28.359 49.082zm-30.059-57.75 30.066 52.059 3.3477-5.7812-26.715-46.25z"/>
  <path d="m60.723 305.09 6.6406-11.547 56.695 0.015625 6.6641 11.5zm12.457-2.8945 20.039 0.042969 15.074-0.042969 17.492 0.015625-3.3633-5.8008-34.234-0.015624-10.004 0.027343-9.1719-0.027343-3.3555 5.8398z"/>
  <path d="m145.76 336.82-39.98-69.242 13.285-0.058594 33.328 57.707-0.33984 0.69141zm-35.066-66.422 35.066 60.73 3.3789-5.8398-31.707-54.918z"/>
  <path d="m108.23 313.79-52.508-0.050781 6.6289-11.477 66.711-0.015624 6.6328 11.504zm-20.023-2.8867 20.023 0.042968 22.543-0.019531-3.3633-5.8242-19.102-0.042968-15.109 0.070312-20.031-0.027344-9.1797 0.015625-3.3555 5.7969 17.559 0.019532z"/>
  <path d="m185.93 423.45-6.6133-11.422 13.348-23.074 13.227-0.015625zm-3.3203-11.43 3.3438 5.7734 15.031-26.012-6.6719 0.015625z"/>
  <path d="m230.99 478.48h-13.289l-13.348-23.133 6.6133-11.484zm-11.641-2.8438h6.7109l-15.09-26.078-3.3359 5.7891z"/>
  <path d="m294.39 478.48h-26.637l-6.6914-11.527h39.992zm-24.996-2.8438h23.359l3.3711-5.832h-30.117z"/>
  <path d="m319.4 435.14h-13.27l19.961-34.574 6.6719 11.484zm-8.3398-2.8477h6.6992l11.703-20.246-3.3633-5.7891z"/>
  <path d="m190.98 432.2-6.457-11.102v-0.76172l0.19141-0.43359 17.906-30.969h13.289zm-3.4141-11.527 3.4062 5.8438 20.02-34.738h-6.7188z"/>
  <path d="m241 478.48h-13.285l-18.383-31.773 6.6758-11.469zm-11.648-2.8438h6.707l-20.059-34.73-3.3789 5.8008z"/>
  <path d="m299.41 469.8h-36.699l-6.6133-11.484 49.934-0.015625zm-35.059-2.8477h33.414l3.3477-5.8008-40.098 0.015624z"/>
  <path d="m309.42 435.14h-13.297l25.016-43.25 6.3867 11.102v0.76172l-0.18359 0.37109zm-8.3672-2.8477h6.7266l16.691-28.898-3.3477-5.8164z"/>
  <path d="m196 440.89-6.6641-11.535 23.297-40.426 13.328 0.019531zm-3.3828-11.531 3.3633 5.8242 25.051-43.398-6.7617-0.007812z"/>
  <path d="m250.98 478.48h-13.277l-23.352-40.414 6.6562-11.543zm-11.633-2.8438h6.707l-25.039-43.406-3.3711 5.8438z"/>
  <path d="m257.93 461.16-0.46094-0.50391-6.3789-11.023h59.953l-6.6562 11.512zm-1.9258-8.6836 3.3633 5.832 43.398-0.015625 3.3789-5.8164z"/>
  <path d="m299.41 435.14h-13.312l30.008-51.945 6.6719 11.535zm-8.3828-2.8477h6.7422l21.719-37.562-3.3867-5.8516z"/>
  <path d="m261.04 478.48h-13.332l-28.324-49.102 6.6133-11.527zm-11.699-2.8438h6.7617l-30.102-52.09-3.3438 5.832z"/>
  <path d="m200.95 449.46-6.6133-11.414 28.324-49.094h13.328zm-3.3203-11.426 3.3438 5.7812 30.094-52.012h-6.75z"/>
  <path d="m309.41 452.48h-56.684l-6.6289-11.5 69.996 0.015625zm-55.043-2.8516h53.398l3.3789-5.7891-60.125-0.015625z"/>
  <path d="m289.37 435.14h-13.297l35.008-60.613 6.6641 11.512zm-8.3594-2.8477h6.7266l26.715-46.258-3.3711-5.8164z"/>
  <path d="m314.44 443.84-66.477-0.015625-0.68359-0.75391-6.207-10.773h79.965zm-65.078-2.8594 63.426 0.015625 3.3477-5.8438h-70.137z"/>
  <path d="m271.04 478.48h-13.297l-33.395-57.785 6.6719-11.469zm-11.652-2.8438h6.7109l-35.086-60.742-3.3789 5.8008z"/>
  <path d="m279.36 435.13-13.277-0.019531 40.02-69.242 6.5938 11.477zm-8.3633-2.8516 6.7188 0.007812 31.695-54.941-3.3281-5.7969z"/>
  <path d="m205.99 458.23-6.6719-11.598 33.387-57.68h13.277zm-3.3867-11.578 3.3867 5.875 35.066-60.723h-6.707z"/>
  <path d="m301.03 380.27-20.004-34.633h13.328l13.32 23.105zm-15.074-31.785 15.074 26.09 3.3633-5.832-11.684-20.258z"/>
  <path d="m250.95 357.15-39.922-0.015626 6.5977-11.5 26.68 0.015626zm-35.012-2.8672 30.078 0.015625-3.3555-5.8008-23.395-0.015625z"/>
  <path d="m296.03 388.89-24.961-43.227 13.234-0.019531 18.367 31.785zm-20.039-40.398 20.039 34.715 3.3555-5.7812-16.719-28.934z"/>
  <path d="m228.48 365.82-22.492-0.035157 6.6562-11.266 0.83984-0.24219 35.824 0.015625 6.6328 11.512zm-17.566-2.8672 17.562 0.019531 22.535-0.015624-3.3555-5.8164-33.379-0.015625z"/>
  <path d="m291.02 397.57-29.988-51.926 7.7148-0.019532 5.6055 0.019532 23.184 40.148-0.28516 1.0312zm-25.074-49.086 25.066 43.406 3.3867-5.832-21.688-37.574-3.9688-0.007812z"/>
  <path d="m213.43 374.52-12.438-0.035156 6.6484-11.535 46.664 0.015625 6.6719 11.543zm-7.5312-2.8633 7.1055 0.019531 0.035156-0.027343 43 0.015624-3.3867-5.8438-24.18 0.015626-19.207-0.027344z"/>
  <path d="m286.02 406.2-34.992-60.594 13.289 0.042969 28.352 49.082zm-30.059-57.727 30.059 52.047 3.3555-5.7812-26.703-46.25z"/>
  <path d="m195.96 383.18 6.6641-11.535 56.711 0.015624 6.6328 11.5zm12.48-2.8867 52.594 0.015625-3.3477-5.8008-34.246-0.027344-10.012 0.042969-9.168-0.027344-3.3633 5.8242z"/>
  <path d="m281.02 414.9-39.984-69.242 13.277-0.035156 33.129 57.359v0.76172l-0.19141 0.40625zm-35.07-66.41 35.07 60.73 3.3789-5.8164-31.723-54.934z"/>
  <path d="m243.48 391.86-52.516-0.042969 6.6406-11.457 10.816-0.035156 20.031 0.027344 15.105-0.058594 20.758 0.042969 6.6289 11.492zm-47.586-2.8789 17.559 0.035156 10.004-0.042969 20.023 0.042969 22.551-0.019531-3.3477-5.8086-19.113-0.042968-15.109 0.058593-20.031-0.027343-9.1797 0.019531z"/>
  <path d="m50.637 189.33-6.6289-11.426 13.348-23.082 13.234-0.007813zm-3.3398-11.434 3.3477 5.7812 15.031-26.02h-6.6719z"/>
  <path d="m95.68 244.35-13.289-0.007812-13.348-23.117 6.6211-11.484zm-11.641-2.8516h6.7109l-15.082-26.078-3.3438 5.7969z"/>
  <path d="m159.08 244.35h-26.652l-6.6758-11.527h39.992zm-25.016-2.8516h23.375l3.3711-5.832h-30.121z"/>
  <path d="m184.09 201.03-13.285-0.015625 19.977-34.566 6.6641 11.492zm-8.3633-2.8594 6.7188 0.007813 11.703-20.246-3.3711-5.8086z"/>
  <path d="m55.66 198.07-6.4648-11.125 0.21484-1.168 17.906-30.977h13.285zm-3.4023-11.52 3.3906 5.8438 20.02-34.738h-6.7109z"/>
  <path d="m105.68 244.36-13.285-0.007813-18.375-31.766 6.6641-11.484zm-11.641-2.8516h6.7109l-20.066-34.738-3.3711 5.8086z"/>
  <path d="m164.1 235.67h-36.707l-6.6055-11.484 49.926-0.007813zm-35.062-2.8438h33.414l3.3438-5.7969h-40.094z"/>
  <path d="m174.09 201.02h-13.262l24.996-43.25 6.4727 11.691-0.27734 0.53906zm-8.3398-2.8438h6.707l16.727-28.934-3.3633-5.7969z"/>
  <path d="m60.68 206.77-6.6719-11.535 23.297-40.426 13.332 0.015625zm-3.3867-11.543 3.3789 5.832 25.047-43.391-6.7617-0.007813z"/>
  <path d="m102.39 244.36-23.352-40.426 6.6719-11.527 29.961 51.934zm-20.07-40.426 21.711 37.574 6.707-0.007812-25.039-43.406z"/>
  <path d="m122.53 227.03-0.46875-0.625-6.3008-10.902 59.945-0.015625-6.6484 11.535zm-1.8398-8.6836 3.3711 5.8398 43.379-0.007812 3.3867-5.8398z"/>
  <path d="m150.78 201.02 30-51.945 6.6719 11.535-23.348 40.406zm26.34-39.965-0.12891 0.25781-21.285 36.863h6.75l21.711-37.566-3.3867-5.8516z"/>
  <path d="m125.72 244.35-13.332-0.007812-28.316-49.09 6.6055-11.527zm-11.691-2.8516h6.7539l-30.094-52.074-3.3438 5.8242z"/>
  <path d="m65.645 215.34-6.6133-11.422 28.324-49.09 13.332-0.019531zm-3.3281-11.43 3.3438 5.7734 30.094-52.02-6.75 0.007813z"/>
  <path d="m117.41 218.36-6.6133-11.5h69.973l-6.6758 11.484zm-1.6953-8.6562 3.3438 5.8008 53.398-0.015625 3.3789-5.7891z"/>
  <path d="m140.77 201.03 34.973-60.652 6.6719 11.535-28.359 49.109zm34.992-54.949-30.059 52.105h6.7109l26.715-46.266z"/>
  <path d="m179.11 209.7h-66.391l-0.75391-0.75391-6.207-10.773 79.965 0.015625zm-65.059-2.8516h63.418l3.3438-5.8242-70.129-0.007813z"/>
  <path d="m135.71 244.35h-13.285l-33.395-57.77 6.6719-11.492zm-11.648-2.8516h6.707l-35.086-60.742-3.3789 5.8164z"/>
  <path d="m144.04 200.99h-13.277l40.016-69.27 6.6055 11.492zm-8.3555-2.8438h6.7109l31.703-54.934-3.3438-5.8008z"/>
  <path d="m70.672 224.09-6.6719-11.586 33.402-57.691 13.285 0.015625zm-3.3789-11.57 3.3789 5.8672 35.086-60.715-6.7109-0.007813z"/>
  <path d="m165.7 146.13-19.996-34.617h13.32l13.332 23.082zm-15.062-31.766 15.062 26.078 3.3711-5.8438-11.684-20.238-6.75-0.003906z"/>
  <path d="m115.63 123.02-39.914-0.015626 6.5977-11.5 26.668 0.019532zm-27.484-2.8672 22.555 0.015625-3.3555-5.8008-23.387-0.015625-3.3359 5.8008z"/>
  <path d="m160.7 154.75-24.953-43.227 13.246-0.007813 18.355 31.773zm-20.031-40.387 20.039 34.711 3.3477-5.7812-16.703-28.922h-6.6836z"/>
  <path d="m93.168 131.7-22.492-0.042969 6.4297-11.109 1.0742-0.38281h9.9688l25.844 0.015626 6.6406 11.504zm-17.57-2.875 17.57 0.019531h22.535l-3.3633-5.8242-24.199-0.015625h-9.1797z"/>
  <path d="m155.7 163.45-29.988-51.941 7.7227-0.007812 5.5977 0.019531 23.227 40.234-0.19922 0.60547zm-25.066-49.094 25.059 43.406 3.3711-5.8398-21.684-37.562-3.9453-0.015625z"/>
  <path d="m78.117 140.39-12.445-0.050781 6.6484-11.527 46.672 0.019532 6.6719 11.535zm-7.5312-2.8789 6.9883 0.027344 0.035156-0.027344 10.512-0.015625 32.598 0.019531-3.3789-5.8398-34.211 0.019531-9.1719-0.027344z"/>
  <path d="m150.71 172.07-34.988-60.586 13.285 0.027344 28.344 49.094zm-30.059-57.734 30.059 52.055 3.3477-5.7812-26.703-46.25z"/>
  <path d="m60.645 149.05 6.6641-11.547 10.312 0.042969 0.54688-0.035156 9.9609-0.007813 35.891 0.019532 6.6406 11.504zm12.48-2.8906 20.023 0.035156 15.074-0.035156 17.492 0.019532-3.3555-5.8164-34.238-0.015625-10.004 0.042969-9.1719-0.035156-3.3633 5.832z"/>
  <path d="m145.68 180.77-39.98-69.234 13.289-0.042968 33.324 57.691-0.33984 0.68359zm-35.055-66.414 35.059 60.723 3.3867-5.8438-31.703-54.898z"/>
  <path d="m108.17 157.74-52.516-0.050781 6.6289-11.465 10.832-0.035156 20.023 0.035156 15.105-0.058594 20.75 0.035157 6.6406 11.5zm-20.02-2.8867 20.023 0.042969 22.543-0.019531-3.3633-5.8164-19.109-0.027344-15.105 0.058594-20.023-0.035156-9.1836 0.015624-3.3477 5.7891 17.559 0.027344z"/>
  <path d="m302.44 335.98h-91.809l-45.91-79.516 45.91-79.516h91.82l45.902 79.523zm-90.176-2.8477h88.539l44.266-76.664-44.266-76.672h-88.535l-44.266 76.664z"/>
  <path d="m210.15 333.78 2.4648 1.418-59.695 103.89-2.4648-1.418z"/>
  <path d="m148.32 451.88c-1.3789 0-2.7539-0.37109-3.9609-1.0586-1.8359-1.0508-3.1445-2.7656-3.6914-4.8125-0.54687-2.0391-0.26172-4.168 0.79688-5.9961 2.082-3.6406 7.1328-5.0273 10.816-2.9023 3.7812 2.1992 5.0781 7.0469 2.9023 10.816-1.4102 2.4375-4.0391 3.9531-6.8633 3.9531zm0.015625-12.984c-1.8125 0-3.5039 0.97266-4.4102 2.5391-0.67578 1.1719-0.85938 2.5234-0.51172 3.832 0.34766 1.3164 1.1875 2.4102 2.3672 3.0938 2.3477 1.3516 5.582 0.46875 6.9258-1.8555 1.4023-2.418 0.5625-5.5234-1.8633-6.9414-0.75391-0.44141-1.6289-0.66797-2.5078-0.66797z"/>
  <path d="m359.81 74.988 2.457 1.4219-60.047 103.7-2.457-1.4219z"/>
  <path d="m364.2 77.961c-1.3789 0-2.7539-0.36328-3.9531-1.0586-1.8398-1.0586-3.1484-2.7734-3.7031-4.8203-0.53906-2.0391-0.25781-4.168 0.80469-6 2.0898-3.6406 7.1523-5 10.801-2.8945 1.8398 1.0586 3.1484 2.7734 3.7031 4.8203 0.53906 2.0391 0.25781 4.168-0.80469 5.9961-1.4062 2.4414-4.0312 3.957-6.8477 3.957zm0-12.988c-1.8047 0-3.4844 0.97266-4.3867 2.5312-0.68359 1.1719-0.85938 2.5312-0.51172 3.8398 0.34766 1.3086 1.1953 2.4023 2.3672 3.0859 2.3672 1.3438 5.582 0.46875 6.9258-1.8555 0.68359-1.1719 0.85938-2.5312 0.51172-3.8398s-1.1875-2.4023-2.3672-3.0859c-0.78125-0.44141-1.6562-0.67578-2.5391-0.67578z"/>
  <path d="m346.72 255.45h119.84v2.8438h-119.84z"/>
  <path d="m473.04 264.8c-4.3594 0-7.9062-3.5547-7.9062-7.9219s3.5469-7.9141 7.9062-7.9141c4.3672 0 7.9219 3.5547 7.9219 7.9141 0.007812 4.3711-3.5508 7.9219-7.9219 7.9219zm0-12.984c-2.793 0-5.0625 2.2773-5.0625 5.0703 0 2.8008 2.2695 5.0703 5.0625 5.0703 2.8008 0 5.0781-2.2773 5.0781-5.0703 0-2.8047-2.2773-5.0703-5.0781-5.0703z"/>
  <path d="m45.453 255.45h119.83v2.8438h-119.83z"/>
  <path d="m38.961 264.8c-4.3672 0-7.9141-3.5547-7.9141-7.9219s3.5547-7.9141 7.9141-7.9141c4.3594 0 7.9141 3.5547 7.9141 7.9141 0 4.3711-3.5547 7.9219-7.9141 7.9219zm0-12.984c-2.793 0-5.0703 2.2773-5.0703 5.0703 0 2.8008 2.2773 5.0703 5.0703 5.0703 2.793 0 5.0703-2.2773 5.0703-5.0703-0.007812-2.8047-2.2734-5.0703-5.0703-5.0703z"/>
  <path d="m152.23 72.93 59.91 103.77-2.4648 1.4219-59.91-103.77z"/>
  <path d="m147.74 75.941c-2.8242 0-5.4453-1.5156-6.8555-3.9609-1.0508-1.8359-1.3359-3.9688-0.78906-6.0078 0.54688-2.0391 1.8555-3.7461 3.6914-4.8086 3.6562-2.1133 8.7109-0.73828 10.816 2.8945 1.0508 1.8281 1.3359 3.9609 0.78906 6.0078-0.54688 2.0391-1.8555 3.7461-3.6914 4.8086-1.2109 0.69531-2.5742 1.0664-3.9609 1.0664zm-0.007813-12.988c-0.89062 0-1.7617 0.23438-2.5312 0.68359-1.1719 0.67578-2.0117 1.7695-2.3672 3.0781-0.34766 1.3086-0.17188 2.6719 0.51172 3.8477 1.3359 2.332 4.5742 3.2227 6.9258 1.8555 1.1719-0.67578 2.0117-1.7695 2.3672-3.0781 0.34766-1.3086 0.17188-2.6719-0.50391-3.8477-0.90625-1.5703-2.5898-2.5391-4.4023-2.5391z"/>
  <path d="m302.95 333.86 59.898 103.78-2.457 1.418-59.898-103.78z"/>
  <path d="m364.89 451.88c-2.8164 0-5.4453-1.5156-6.8633-3.9531-1.0508-1.8359-1.3359-3.9609-0.78906-6.0078 0.54688-2.0352 1.8555-3.7422 3.6836-4.8008 3.6914-2.1055 8.7344-0.73828 10.816 2.8945 1.0586 1.8281 1.3359 3.9609 0.78906 6-0.53906 2.0391-1.8555 3.7461-3.6914 4.8008-1.1914 0.69531-2.5508 1.0664-3.9453 1.0664zm0-12.977c-0.89062 0-1.7617 0.23437-2.5391 0.68359-1.168 0.68359-2.0039 1.7695-2.3555 3.0859-0.35547 1.3086-0.17188 2.668 0.49609 3.832 1.3594 2.3398 4.6133 3.207 6.9336 1.8633 1.1797-0.68359 2.0117-1.7695 2.3672-3.0781 0.34766-1.3086 0.16406-2.6719-0.50391-3.8398-0.90625-1.582-2.5977-2.5469-4.3984-2.5469z"/>
 </g>
</svg>
