<?xml version="1.0" encoding="UTF-8"?>
<svg width="512pt" height="512pt" version="1.1" viewBox="0 0 512 512" xmlns="http://www.w3.org/2000/svg">
 <g>
  <path d="m255.99 372.88c-19.281 0-38.512-2.6484-57.16-7.8711-18.129-5.0781-35.859-12.641-52.691-22.461-0.69141-0.39844-1.1914-1.0508-1.3906-1.8281-0.19922-0.76953-0.089844-1.5781 0.30859-2.2695 0.53906-0.92188 1.5312-1.4883 2.6016-1.4883 0.51953 0 1.0508 0.14062 1.5 0.41016 33.57 19.578 69.512 29.512 106.83 29.512 73.98 0 144.14-40.422 192.47-110.89-32.781-47.809-75.52-82.059-123.6-99.031-0.011718 0-0.011718 0-0.011718-0.011719-1.1797-0.42188-1.9805-1.5312-1.9883-2.7891-0.011718-0.35156 0.050782-0.69922 0.17188-1.0312 0.42187-1.1992 1.5586-2 2.8281-2 0.33984 0 0.67188 0.058594 1 0.17188 24.961 8.8203 48.691 22.262 70.5 39.961 21.449 17.398 40.699 38.609 57.223 63.051 0.67969 1 0.67969 2.3516 0 3.3594-11.871 17.559-25.281 33.59-39.852 47.648-14.68 14.172-30.609 26.391-47.32 36.312-17.051 10.109-35.012 17.898-53.391 23.129-18.91 5.3867-38.441 8.1172-58.023 8.1172zm-125.16-40.691c-0.62109 0-1.2109-0.1875-1.7188-0.53906-0.66016-0.46094-1.1016-1.1484-1.2305-1.9375-0.14062-0.78906 0.03125-1.5898 0.48828-2.2383 0.92187-1.3008 2.8594-1.6602 4.1719-0.75 0 0.011719 0.011719 0.011719 0.011719 0.011719 1.3594 0.94922 1.6914 2.8203 0.73828 4.1797-0.55859 0.79688-1.4805 1.2734-2.4609 1.2734zm-15.898-12.098c-0.69141 0-1.3711-0.23828-1.9102-0.67969-20.801-17.16-39.5-37.93-55.602-61.738-0.69141-1.0195-0.69141-2.3398 0-3.3594 11.859-17.57 25.262-33.602 39.828-47.66 14.68-14.172 30.602-26.391 47.32-36.309 17.039-10.109 35-17.898 53.391-23.129 18.922-5.3906 38.441-8.1211 58.031-8.1211 10.559 0 21.18 0.80078 31.578 2.3711 0.78906 0.12109 1.4883 0.53906 1.9609 1.1914 0.48047 0.64062 0.67969 1.4297 0.55859 2.2305-0.25 1.6016-1.8008 2.7617-3.4219 2.5117-10.109-1.5195-20.43-2.3008-30.68-2.3008-74 0-144.14 40.422-192.45 110.9 15.512 22.629 33.441 42.41 53.301 58.781 0.69141 0.57812 1.0898 1.4219 1.0898 2.3203 0 0.69141-0.23828 1.3711-0.67969 1.9102-0.56641 0.67969-1.418 1.082-2.3164 1.082zm191.79-168.73c-0.23828 0-0.48828-0.03125-0.73047-0.089844-1.6016-0.39844-2.5781-2.0391-2.1797-3.6406 0.39844-1.5703 2.0508-2.5781 3.6406-2.1797 1.6016 0.39844 2.5781 2.0391 2.1797 3.6406-0.33984 1.3398-1.5273 2.2695-2.9102 2.2695z"/>
  <path d="m255.99 350.38h-0.011719c-11.102 0-21.98-1.9102-32.32-5.6914-10-3.6406-19.25-8.9297-27.5-15.699-1.2812-1.0625-1.4688-2.9492-0.42188-4.2305 0.57031-0.69922 1.4219-1.0898 2.3203-1.0898 0.69141 0 1.3711 0.23828 1.8984 0.67969 15.738 12.91 35.641 20.031 56.031 20.031 23.602 0 45.801-9.1992 62.5-25.891 16.688-16.711 25.891-38.898 25.891-62.5 0-23.609-9.1992-45.801-25.891-62.512-16.699-16.691-38.898-25.891-62.5-25.891-23.609 0-45.801 9.1992-62.488 25.891-16.691 16.699-25.879 38.898-25.879 62.512 0 13.371 2.9102 26.219 8.6484 38.18 0.19141 0.41016 0.28906 0.85156 0.28906 1.3008 0 1.1406-0.67188 2.1992-1.6992 2.6992-1.4609 0.69922-3.3086 0.03125-4-1.4102-2.9883-6.2305-5.2891-12.809-6.8398-19.539-1.5898-6.9297-2.3984-14.07-2.3984-21.23 0-12.75 2.5-25.109 7.4219-36.738 4.75-11.238 11.551-21.34 20.219-30.012 8.6602-8.6719 18.75-15.469 29.988-20.23 11.641-4.9219 24-7.4219 36.738-7.4219s25.102 2.5 36.738 7.4219c11.238 4.7617 21.328 11.559 30 20.23s15.473 18.77 20.23 30.012c4.9219 11.629 7.4219 24 7.4219 36.738s-2.5 25.102-7.4219 36.738c-4.7617 11.238-11.562 21.328-20.23 30-8.668 8.6719-18.762 15.473-30 20.23-11.633 4.9219-23.992 7.4219-36.734 7.4219zm-71.887-34.98c-0.92187 0-1.7891-0.42188-2.3594-1.1406-0.48828-0.62891-0.71094-1.4219-0.62109-2.2109 0.10156-0.80078 0.5-1.5117 1.1289-2.0117 1.2617-0.98828 3.2109-0.75 4.1992 0.5 0.011719 0 0.011719 0.011719 0.011719 0.011719 1.0195 1.3008 0.78906 3.1914-0.51172 4.2109-0.52734 0.42188-1.168 0.64063-1.8477 0.64063z"/>
  <path d="m255.99 287.87c-8.5195 0-16.531-3.3203-22.551-9.3398s-9.3398-14.031-9.3398-22.539c0-8.5195 3.3203-16.531 9.3398-22.551 6.0195-6.0195 14.031-9.3398 22.551-9.3398 8.5117 0 16.52 3.3203 22.539 9.3398 6.0195 6.0195 9.3398 14.031 9.3398 22.551 0 8.5117-3.3203 16.52-9.3398 22.539-6.0156 6.0195-14.027 9.3398-22.539 9.3398zm0-57.77c-14.25 0.03125-25.859 11.641-25.891 25.891 0.03125 14.238 11.641 25.852 25.891 25.879 14.238-0.03125 25.852-11.641 25.879-25.879-0.027344-14.254-11.637-25.863-25.879-25.891z"/>
  <path d="m207.51 150.83c-1.6484 0-3-1.3398-3-3v-5.8594l-17.289-17.262-26.441-26.469c-0.55859-0.55859-0.87891-1.3398-0.87891-2.1211l-0.003906-53.328v-0.019531c0.011718-1.6406 1.3516-2.9805 3-2.9805 1.6484 0 3 1.3516 3 3v52.078l25.559 25.59 18.172 18.148c0.57031 0.55859 0.87891 1.3203 0.87891 2.1211v7.1016c0.003907 1.6602-1.3359 3-2.9961 3z"/>
  <path d="m233.57 146.31c-1.6602 0-3-1.3516-3-3v-7.75l-44.102-44.09c-0.55859-0.55859-0.87891-1.3281-0.87891-2.1211v-10.156c0-1.6484 1.3516-3 3-3 1.6602 0 3 1.3516 3 3v8.9102l44.102 44.102c0.57031 0.57031 0.87891 1.3203 0.87891 2.1211v8.9883c0 1.6484-1.3516 2.9961-3 2.9961z"/>
  <path d="m199.3 103.06c-0.80078 0-1.5508-0.32031-2.1211-0.87891-1.1719-1.1719-1.1719-3.0781 0-4.25l17.68-17.68v-22.121c0-1.6484 1.3516-3 3-3 1.6602 0 3 1.3516 3 3v23.359c0 0.80078-0.30859 1.5586-0.87891 2.1289l-18.551 18.559c-0.57031 0.5625-1.3281 0.88281-2.1289 0.88281z"/>
  <path d="m255.68 145.09c-1.6484 0-3-1.3516-3-3v-95.75c0-1.6484 1.3516-3 3-3 1.6602 0 3 1.3516 3 3v95.75c0 1.6484-1.3398 3-3 3z"/>
  <path d="m256.05 122.34h-0.011719c-0.80078 0-1.5508-0.30859-2.1211-0.87891l-18.918-18.922c-0.55859-0.55859-0.87891-1.3398-0.87891-2.1211v-37.488c0-1.6484 1.3516-3 3-3 1.6602 0 3 1.3516 3 3v36.238l18.039 18.051c1.1719 1.1719 1.1719 3.0703 0 4.2383-0.55859 0.57422-1.3086 0.88281-2.1094 0.88281z"/>
  <path d="m162.9 45.789c-6.2812-0.011718-11.398-5.1211-11.41-11.41 0.011719-6.2695 5.1211-11.371 11.41-11.379 3.0391 0.011719 5.8984 1.1914 8.0391 3.3398 2.1484 2.1406 3.3398 5 3.3398 8.0391 0.003906 6.293-5.0977 11.402-11.379 11.41zm0-16.789c-2.9805 0.011719-5.3984 2.4219-5.4102 5.3789 0.011719 2.9805 2.4297 5.3984 5.4102 5.4102 2.9609-0.011718 5.3789-2.4297 5.3789-5.4102 0.003906-2.957-2.4062-5.3789-5.3789-5.3789z"/>
  <path d="m217.86 61.129c-6.2812 0-11.398-5.1211-11.398-11.398 0-6.2812 5.1211-11.379 11.398-11.379 3.0391 0 5.8984 1.1914 8.0508 3.3281 2.1406 2.1484 3.3281 5 3.3398 8.0508-0.011719 6.2812-5.1094 11.398-11.391 11.398zm0-16.777c-2.9688 0-5.3984 2.4219-5.3984 5.3789 0 2.9688 2.4297 5.3984 5.3984 5.3984 2.9609 0 5.3789-2.4297 5.3906-5.3984 0-2.9688-2.4219-5.3789-5.3906-5.3789z"/>
  <path d="m304.48 150.83c-1.6484 0-3-1.3398-3-3v-7.1016c0-0.80078 0.32031-1.5586 0.87891-2.1211l18.18-18.141 25.559-25.59 0.003906-52.086c0-1.6484 1.3516-3 3-3 1.6484 0 3 1.3516 3 3v53.328c0 0.78906-0.32031 1.5586-0.87891 2.1211l-26.438 26.469-17.301 17.27v5.8516c-0.003906 1.6602-1.3438 3-3.0039 3z"/>
  <path d="m278.43 146.31c-1.6484 0-3-1.3398-3-3v-8.9883c0-0.78906 0.32031-1.5586 0.87891-2.1211l44.102-44.102v-8.9219c0.011719-1.6484 1.3516-2.9883 3-2.9883 1.6484 0 3 1.3516 3 3v10.16c0 0.80078-0.3125 1.5508-0.87891 2.1211l-44.102 44.09v7.75c0 1.6602-1.3398 3-3 3z"/>
  <path d="m312.7 103.06c-0.80078 0-1.5625-0.32031-2.1328-0.87891l-18.551-18.57c-0.55859-0.55078-0.87891-1.3203-0.87891-2.1211l0.003906-23.359c0-1.6484 1.3398-3 3-3 1.6484 0 3 1.3516 3 3v22.121l17.68 17.691c1.1719 1.1602 1.1719 3.0703 0 4.2383-0.57031 0.55859-1.3203 0.87891-2.1211 0.87891z"/>
  <path d="m349.1 45.789c-6.2812-0.011718-11.398-5.1211-11.41-11.41 0.011719-6.2695 5.1211-11.371 11.41-11.379 6.2812 0.011719 11.398 5.1094 11.41 11.379-0.011719 6.293-5.1328 11.402-11.41 11.41zm0-16.789c-2.9805 0.011719-5.3984 2.4219-5.4102 5.3789 0.011719 2.9805 2.4297 5.3984 5.4102 5.4102 2.9688-0.011718 5.3984-2.4297 5.4102-5.4102-0.011719-2.957-2.4414-5.3672-5.4102-5.3789z"/>
  <path d="m294.14 61.129c-6.2891 0-11.398-5.1211-11.41-11.398 0-6.2812 5.1211-11.379 11.41-11.379 6.2812 0 11.398 5.1016 11.398 11.379 0 6.2812-5.1172 11.398-11.398 11.398zm0-16.777c-2.9805 0-5.3984 2.4219-5.4102 5.3789 0.011719 2.9688 2.4297 5.3984 5.4102 5.3984 2.9688 0 5.3984-2.4297 5.3984-5.3984 0-2.9609-2.4297-5.3789-5.3984-5.3789z"/>
  <path d="m162.9 472.21c-1.6484 0-3-1.3516-3-3v-53.352c0-0.80078 0.32031-1.5703 0.87891-2.1289l43.734-43.73v-5.8594c0-1.6602 1.3516-3 3-3 1.6602 0 3 1.3398 3 3v7.1016c0 0.80078-0.30859 1.5508-0.87109 2.1172l-43.742 43.742v52.109c0 1.6484-1.3477 3-3 3z"/>
  <path d="m188.59 435.81c-1.6484 0-3-1.3516-3-3v-10.188c0-0.80078 0.30859-1.5508 0.87891-2.1211l44.102-44.07v-7.7695c0-1.6484 1.3516-3 3-3 1.6484 0 3 1.3516 3 3v9.0195c0 0.80078-0.30859 1.5508-0.87891 2.1211l-44.102 44.07v8.9375c0 1.6523-1.3398 3-3 3z"/>
  <path d="m217.86 456.87c-1.6484 0-3-1.3516-3-3v-22.148l-17.68-17.68c-0.55859-0.57031-0.87891-1.3203-0.87891-2.1211 0-0.8125 0.30859-1.5625 0.87891-2.1289 1.1406-1.1289 3.1094-1.1289 4.2383 0l18.559 18.57c0.57031 0.5625 0.87891 1.3125 0.87891 2.1211v23.371 0.019531c0.003906 1.6445-1.3359 2.9961-2.9961 2.9961z"/>
  <path d="m255.68 468.63c-1.6484 0-3-1.3516-3-3v-95.75c0-1.6484 1.3516-3 3-3 1.6602 0 3 1.3516 3 3v95.75c0 1.6523-1.3398 3-3 3z"/>
  <path d="m237.12 452.04c-1.6484 0-3-1.3516-3-3v-37.461c0-0.78906 0.32031-1.5625 0.87891-2.1211l18.922-18.922c1.1406-1.1289 3.1094-1.1406 4.2383 0 1.1719 1.1719 1.1719 3.0703 0 4.2383l-18.039 18.039v36.199 0.019531c0 1.6562-1.3398 3.0078-3 3.0078z"/>
  <path d="m162.9 489c-6.2812-0.011719-11.398-5.1289-11.41-11.41 0.011719-6.2695 5.1211-11.379 11.41-11.379 3.0391 0 5.8984 1.1875 8.0391 3.3281 2.1484 2.1484 3.3398 5.0117 3.3398 8.0508 0.003906 6.2812-5.1055 11.398-11.379 11.41zm0-16.789c-2.9805 0-5.3984 2.4219-5.4102 5.3789 0.011719 2.9688 2.4297 5.3984 5.4102 5.4102 2.9609-0.011719 5.3789-2.4414 5.3789-5.4102 0.003906-2.9688-2.4062-5.3789-5.3789-5.3789z"/>
  <path d="m217.86 473.65c-6.2812 0-11.398-5.1172-11.398-11.398 0-6.2891 5.1211-11.398 11.398-11.41 6.2812 0 11.379 5.1211 11.391 11.41-0.011719 6.2812-5.1094 11.398-11.391 11.398zm0-16.809c-2.9688 0-5.3984 2.4297-5.3984 5.4102 0 2.9688 2.4297 5.3984 5.3984 5.3984 2.9609 0 5.3789-2.4297 5.3906-5.3984-0.011719-2.9805-2.4297-5.4102-5.3906-5.4102z"/>
  <path d="m349.1 472.21c-1.6484 0-3-1.3516-3-3v-52.109l-43.738-43.738c-0.55859-0.55859-0.87891-1.3281-0.87891-2.1172l0.011719-7.1016c0-1.6602 1.3398-3 2.9883-3 1.6602 0 3 1.3398 3 3l-0.003906 5.8555 43.738 43.73c0.57031 0.57031 0.87891 1.3203 0.87891 2.1289v53.352c0.003906 1.6484-1.3477 3-2.9961 3z"/>
  <path d="m323.41 435.81c-1.6602 0-3-1.3516-3-3v-8.9375l-44.102-44.07c-0.55859-0.55859-0.87891-1.3281-0.87891-2.1211l0.011718-9.0195c0-1.6484 1.3398-3 2.9883-3 1.6602 0 3 1.3516 3 3v7.7695l44.102 44.07c0.57031 0.57031 0.87891 1.3203 0.87891 2.1211v10.188c0 1.6523-1.3516 3-3 3z"/>
  <path d="m294.14 456.87c-1.6602 0-3-1.3516-3-3v-23.391c0-0.78906 0.32031-1.5703 0.87109-2.1211l18.57-18.559c1.1289-1.1406 3.1016-1.1406 4.2383-0.011719 1.1719 1.1797 1.1719 3.0781 0 4.25l-17.68 17.68v22.129 0.019532c0 1.6523-1.3516 3.0039-3 3.0039z"/>
  <path d="m349.1 489c-6.2812-0.011719-11.398-5.1289-11.41-11.41 0.011719-6.2695 5.1211-11.379 11.41-11.379 6.2891 0 11.398 5.1094 11.41 11.379-0.011719 6.2812-5.1328 11.398-11.41 11.41zm0-16.789c-2.9805 0-5.3984 2.4219-5.4102 5.3789 0.011719 2.9688 2.4297 5.3984 5.4102 5.4102 2.9805-0.011719 5.3984-2.4414 5.4102-5.4102-0.011719-2.9609-2.4336-5.3789-5.4102-5.3789z"/>
  <path d="m294.14 473.65c-6.2891 0-11.398-5.1172-11.41-11.398 0.011719-6.2891 5.1211-11.398 11.41-11.41 6.2812 0.011718 11.398 5.1211 11.398 11.41 0 6.2812-5.1172 11.398-11.398 11.398zm0-16.809c-2.9805 0-5.3984 2.4297-5.4102 5.4102 0.011719 2.9688 2.4297 5.3984 5.4102 5.3984 2.9688 0 5.3984-2.4297 5.3984-5.3984 0-2.9805-2.4297-5.4102-5.3984-5.4102z"/>
  <path d="m255.99 237.23c-1.6602 0-3-1.3398-3-3v-27.238c0-1.6602 1.3398-3 3-3 1.6484 0 3 1.3398 3 3v27.238c0 1.6602-1.3477 3-3 3z"/>
  <path d="m271.39 243.62c-0.80859 0-1.5586-0.32031-2.1211-0.87891-1.1797-1.1719-1.1797-3.0703-0.011719-4.2383l19.262-19.289c1.1289-1.1289 3.1016-1.1289 4.2383 0 0.57031 0.57031 0.87891 1.3203 0.87891 2.1211 0 0.80078-0.30859 1.5586-0.87891 2.1211l-19.25 19.289c-0.57031 0.55469-1.3203 0.875-2.1172 0.875z"/>
  <path d="m305.01 258.98h-27.27c-1.6602 0-3-1.3398-3-2.9883 0-1.6602 1.3398-3 3-3h27.27c1.6602 0 3 1.3398 3 3 0 1.6484-1.3398 2.9883-3 2.9883z"/>
  <path d="m290.64 293.64c-0.80078 0-1.5586-0.30859-2.1211-0.87891l-19.262-19.281c-1.1719-1.1719-1.1719-3.0781 0.011719-4.25 1.1289-1.1289 3.1094-1.1289 4.2383 0.011719l19.25 19.277c1.1719 1.1719 1.1719 3.0703 0 4.2383-0.57031 0.57031-1.3203 0.88281-2.1172 0.88281z"/>
  <path d="m255.99 307.98c-1.6602 0-3-1.3398-3-3v-27.242c0-1.6602 1.3398-3 3-3 1.6484 0 3 1.3398 3 3v27.238c0 1.6641-1.3477 3.0039-3 3.0039z"/>
  <path d="m221.33 293.64c-0.80078 0-1.5586-0.30859-2.1211-0.87891-1.1719-1.1719-1.1719-3.0703 0-4.2383l19.289-19.289c1.1289-1.1289 3.1016-1.1289 4.2383 0.011719 0.55859 0.55859 0.87109 1.3203 0.87109 2.1172 0 0.80078-0.30859 1.5508-0.87891 2.1211l-19.281 19.281c-0.56641 0.5625-1.3164 0.875-2.1172 0.875z"/>
  <path d="m234.23 258.98h-27.238c-1.6602 0-3-1.3398-3-2.9883 0-1.6602 1.3398-3 3-3h27.238c1.6602 0 3 1.3398 3 3 0 1.6484-1.3398 2.9883-3 2.9883z"/>
  <path d="m240.62 243.62c-0.80859 0-1.5586-0.32031-2.1289-0.87891l-19.281-19.289c-1.1719-1.1602-1.1719-3.0703 0-4.2383 1.1289-1.1289 3.1094-1.1289 4.2383 0l19.289 19.281c0.55859 0.57031 0.87891 1.3203 0.87891 2.1289 0 0.80078-0.32031 1.5508-0.87891 2.1211-0.56641 0.55469-1.3164 0.875-2.1172 0.875z"/>
 </g>
</svg>
