<?xml version="1.0" encoding="UTF-8"?>
<svg width="512pt" height="512pt" version="1.1" viewBox="0 0 512 512" xmlns="http://www.w3.org/2000/svg">
 <g>
  <path d="m242.26 465.26c-0.50781 0-1.0234-0.12891-1.4961-0.40234l-157.99-91.25c-1.4258-0.82422-1.9219-2.6406-1.1094-4.0742 1.1289-2 1.7266-4.2266 1.7266-6.4375 0-7.0898-5.7695-12.855-12.855-12.855-1.6562 0-3-1.3438-3-3l-0.003906-182.47c0-1.6562 1.3438-3 3-3 1.3359 0 2.6523-0.20312 3.9141-0.60547 1.5781-0.50391 3.2656 0.36719 3.7695 1.9453 0.50391 1.5781-0.36719 3.2656-1.9453 3.7695-0.89453 0.28516-1.8086 0.50391-2.7383 0.65234v176.95c8.9766 1.4414 15.855 9.2422 15.855 18.617 0 2.2695-0.42187 4.5391-1.2383 6.6875l153.23 88.5c3.5625-4.3555 8.9375-6.9688 14.625-6.9688 5.6992 0 11.062 2.6094 14.605 6.9648l52.82-30.5c1.4375-0.82813 3.2695-0.33594 4.0977 1.0977 0.82812 1.4336 0.33594 3.2695-1.0977 4.0977l-55.215 31.883c-0.6875 0.39844-1.5117 0.50391-2.2773 0.30078-0.76953-0.20703-1.4258-0.71094-1.8203-1.4023-2.2812-3.9727-6.5391-6.4375-11.109-6.4375-4.5664 0-8.8359 2.4727-11.148 6.4492-0.55859 0.96094-1.5664 1.4961-2.5977 1.4961zm125.97-56.891c-1.0352 0-2.0469-0.53906-2.6016-1.5-0.82812-1.4336-0.33594-3.2695 1.0977-4.0977l57.117-32.984c-0.80859-2.1289-1.2266-4.3984-1.2266-6.6953 0-9.375 6.8672-17.176 15.828-18.617v-176.95c-8.9609-1.4414-15.828-9.2266-15.828-18.59 0-2.3125 0.41797-4.5859 1.2227-6.6992l-153.24-88.488c-3.5469 4.3359-8.9062 6.9375-14.598 6.9375-5.6797 0-11.055-2.6016-14.617-6.9414l-136.8 79.008c-1.4375 0.82812-3.2695 0.33594-4.0977-1.0977-0.82813-1.4336-0.33594-3.2695 1.0977-4.0977l139.18-80.383c1.4297-0.82812 3.2578-0.34375 4.0898 1.082 2.3164 3.9648 6.5898 6.4258 11.152 6.4258 4.5664 0 8.8242-2.457 11.113-6.4141 0.82812-1.4336 2.6602-1.9258 4.0977-1.0977l158.02 91.25c0.69141 0.39844 1.1953 1.0586 1.3984 1.832 0.20312 0.77344 0.09375 1.5938-0.3125 2.2852-1.1133 1.9023-1.7031 4.1133-1.7031 6.3945 0 7.0742 5.7539 12.828 12.828 12.828 1.6562 0 3 1.3438 3 3v182.47c0 1.6562-1.3438 3-3 3-7.0742 0-12.828 5.7695-12.828 12.855 0 2.2578 0.59375 4.4766 1.7148 6.4102 0.39844 0.6875 0.50781 1.5078 0.30078 2.2773-0.20703 0.76953-0.71094 1.4258-1.3984 1.8203l-59.508 34.363c-0.48047 0.28125-0.99609 0.41016-1.5039 0.41016z"/>
  <path d="m253.55 350.73c-52.223 0-94.711-42.484-94.711-94.711 0-23.578 8.7148-46.172 24.535-63.625 1.1133-1.2266 3.0117-1.3203 4.2383-0.20703 1.2266 1.1133 1.3203 3.0117 0.20703 4.2383-14.82 16.348-22.98 37.512-22.98 59.594 0 48.914 39.797 88.711 88.711 88.711 48.93 0 88.738-39.797 88.738-88.711 0-48.934-39.809-88.742-88.738-88.742-8.625 0-17.145 1.2344-25.332 3.6719-1.5859 0.47266-3.2578-0.42969-3.7305-2.0195-0.47266-1.5898 0.43359-3.2578 2.0195-3.7305 8.7422-2.6016 17.84-3.9219 27.043-3.9219 52.238 0 94.738 42.5 94.738 94.742 0 52.223-42.5 94.711-94.738 94.711z"/>
  <path d="m345.29 259.02h-183.45c-1.6562 0-3-1.3438-3-3s1.3438-3 3-3h183.45c1.6562 0 3 1.3438 3 3s-1.3438 3-3 3z"/>
  <path d="m253.55 350.73c-1.6562 0-3-1.3438-3-3v-183.45c0-1.6562 1.3438-3 3-3s3 1.3438 3 3v183.45c0 1.6562-1.3438 3-3 3z"/>
  <path d="m253.76 216.55c-24.68 0-49.773-4.2773-74.578-12.719-1.5664-0.53516-2.4062-2.2383-1.875-3.8086 0.53516-1.5703 2.2383-2.4062 3.8086-1.875 24.184 8.2266 48.625 12.398 72.648 12.398 24.02 0 48.324-4.1719 72.238-12.395 1.5703-0.53906 3.2734 0.29297 3.8125 1.8594 0.53906 1.5664-0.29297 3.2734-1.8594 3.8125-24.551 8.4453-49.512 12.727-74.195 12.727z"/>
  <path d="m326.98 313.68c-0.32422 0-0.65234-0.054687-0.97656-0.16406-23.938-8.2188-48.254-12.387-72.273-12.387-24.023 0-48.453 4.168-72.613 12.391-1.5664 0.53516-3.2734-0.30469-3.8086-1.8711-0.53516-1.5703 0.30469-3.2734 1.875-3.8086 24.785-8.4336 49.867-12.711 74.547-12.711 24.684 0 49.656 4.2773 74.223 12.711 1.5664 0.53906 2.3984 2.2461 1.8633 3.8125-0.42578 1.2461-1.5898 2.0273-2.8359 2.0273z"/>
  <path d="m253.55 350.73c-13.777 0-26.57-10.113-36.02-28.48-9.1289-17.738-14.152-41.258-14.152-66.23s5.0273-48.5 14.152-66.246c9.4492-18.375 22.242-28.496 36.02-28.496 13.789 0 26.59 10.121 36.047 28.496 9.1289 17.742 14.156 41.27 14.156 66.246 0 24.973-5.0273 48.492-14.16 66.23-9.4492 18.363-22.254 28.48-36.043 28.48zm0-183.45c-11.414 0-22.312 8.9648-30.684 25.242-8.6992 16.914-13.488 39.465-13.488 63.5 0 24.031 4.7891 46.578 13.488 63.484 8.3711 16.266 19.27 25.227 30.684 25.227 11.43 0 22.336-8.9609 30.711-25.227 8.6992-16.902 13.492-39.445 13.492-63.48 0-24.039-4.793-46.59-13.492-63.5-8.375-16.281-19.281-25.246-30.711-25.246z"/>
  <path d="m175.27 343.7c-0.73047 0-1.4609-0.26562-2.0352-0.79688-24.16-22.34-38.016-54.012-38.016-86.891 0-14.723 2.668-29.082 7.9336-42.676 0.59766-1.5469 2.3359-2.3125 3.8789-1.7148 1.5469 0.59766 2.3125 2.3359 1.7148 3.8789-4.9922 12.898-7.5273 26.527-7.5273 40.508 0 31.211 13.152 61.273 36.09 82.48 1.2188 1.125 1.2891 3.0234 0.16406 4.2383-0.58984 0.65234-1.3945 0.97266-2.2031 0.97266z"/>
  <path d="m253.57 374.38c-21.73 0-42.977-5.9336-61.434-17.152-1.4141-0.85938-1.8672-2.707-1.0039-4.1211 0.85938-1.4141 2.707-1.8633 4.1211-1.0039 17.516 10.648 37.684 16.277 58.312 16.277 61.938 0 112.33-50.402 112.33-112.36 0-10.379-1.3945-20.602-4.1484-30.379-0.44922-1.5938 0.48047-3.2539 2.0742-3.6992 1.5977-0.44922 3.2539 0.48047 3.6992 2.0742 2.9023 10.309 4.375 21.074 4.375 32.008 0.003906 65.258-53.078 118.36-118.32 118.36z"/>
  <path d="m356.21 206.29c-1.0898 0-2.1367-0.59375-2.6719-1.625-19.387-37.629-57.691-61.008-99.961-61.008-38.5 0-73.879 19.355-94.645 51.773-0.89453 1.3945-2.75 1.8008-4.1445 0.90625-1.3945-0.89453-1.8008-2.75-0.90625-4.1445 21.871-34.148 59.141-54.535 99.695-54.535 44.527 0 84.875 24.621 105.3 64.258 0.75781 1.4727 0.17969 3.2812-1.293 4.0391-0.4375 0.23047-0.90625 0.33594-1.3711 0.33594z"/>
  <path d="m256 60.688c-10.398 0-18.855-8.4453-18.855-18.828 0-10.398 8.4609-18.855 18.855-18.855 10.383 0 18.828 8.4609 18.828 18.855 0 10.383-8.4453 18.828-18.828 18.828zm0-31.684c-7.0898 0-12.855 5.7695-12.855 12.855 0 7.0742 5.7695 12.828 12.855 12.828 7.0742 0 12.828-5.7539 12.828-12.828 0-7.0898-5.7539-12.855-12.828-12.855z"/>
  <path d="m441.45 167.77c-10.383 0-18.828-8.4453-18.828-18.828s8.4453-18.828 18.828-18.828c10.398 0 18.859 8.4453 18.859 18.828-0.003907 10.383-8.4609 18.828-18.859 18.828zm0-31.656c-7.0742 0-12.828 5.7539-12.828 12.828s5.7539 12.828 12.828 12.828c7.0898 0 12.859-5.7539 12.859-12.828-0.003907-7.0742-5.7695-12.828-12.859-12.828z"/>
  <path d="m70.523 167.77c-10.383 0-18.828-8.4453-18.828-18.828s8.4453-18.828 18.828-18.828c10.398 0 18.855 8.4453 18.855 18.828 0.003906 10.383-8.457 18.828-18.855 18.828zm0-31.656c-7.0742 0-12.828 5.7539-12.828 12.828s5.7539 12.828 12.828 12.828c7.0898 0 12.855-5.7539 12.855-12.828 0.003906-7.0742-5.7656-12.828-12.855-12.828z"/>
  <path d="m70.523 381.92c-10.383 0-18.828-8.4453-18.828-18.828 0-10.398 8.4453-18.855 18.828-18.855 10.398 0 18.855 8.4609 18.855 18.855 0.003906 10.379-8.457 18.828-18.855 18.828zm0-31.688c-7.0742 0-12.828 5.7695-12.828 12.855 0 7.0742 5.7539 12.828 12.828 12.828 7.0898 0 12.855-5.7539 12.855-12.828 0.003906-7.0859-5.7656-12.855-12.855-12.855z"/>
  <path d="m256 489c-10.398 0-18.855-8.4453-18.855-18.824 0-10.398 8.4609-18.855 18.855-18.855 10.383 0 18.828 8.4609 18.828 18.855 0 10.379-8.4453 18.824-18.828 18.824zm0-31.684c-7.0898 0-12.855 5.7695-12.855 12.855 0 7.0703 5.7695 12.824 12.855 12.824 7.0742 0 12.828-5.7539 12.828-12.824 0-7.0898-5.7539-12.855-12.828-12.855z"/>
  <path d="m441.45 381.92c-10.383 0-18.828-8.4453-18.828-18.828 0-10.398 8.4453-18.855 18.828-18.855 10.398 0 18.859 8.4609 18.859 18.855 0 10.379-8.4609 18.828-18.859 18.828zm0-31.688c-7.0742 0-12.828 5.7695-12.828 12.855 0 7.0742 5.7539 12.828 12.828 12.828 7.0898 0 12.859-5.7539 12.859-12.828 0-7.0859-5.7695-12.855-12.859-12.855z"/>
 </g>
</svg>
