<?xml version="1.0" encoding="UTF-8"?>
<svg width="512pt" height="512pt" version="1.1" viewBox="0 0 512 512" xmlns="http://www.w3.org/2000/svg">
 <g>
  <path d="m288.75 435.06c-1.0352 0-2.0469-0.53906-2.6016-1.5-0.82813-1.4375-0.33594-3.2695 1.0977-4.0977l133.38-76.992 0.003906-168.68-73.023-42.152-73.027-42.188-73.059 42.188-73.027 42.152v168.68l118.45 68.363c1.4336 0.82812 1.9258 2.6641 1.0977 4.0977-0.82812 1.4375-2.6602 1.9297-4.0977 1.1016l-119.95-69.23c-0.92969-0.53516-1.5-1.5273-1.5-2.5977v-172.14c0-1.0703 0.57031-2.0625 1.5-2.5977l74.527-43.02 74.559-43.055c0.92969-0.53516 2.0703-0.53516 3 0l74.527 43.055 74.523 43.02c0.92969 0.53516 1.5 1.5273 1.5 2.5977v172.14c0 1.0703-0.57031 2.0625-1.5 2.5977l-134.88 77.859c-0.47266 0.27344-0.98828 0.40234-1.4961 0.40625z"/>
  <path d="m274.57 378.71c-58.102 0-106.57-45.367-110.34-103.28-0.10938-1.6523 1.1445-3.082 2.7969-3.1875 1.6641-0.11719 3.082 1.1445 3.1875 2.7969 3.5703 54.77 49.406 97.676 104.36 97.676 57.648 0 104.55-46.914 104.55-104.58 0-57.668-46.898-104.58-104.55-104.58-42.184 0-80.027 25.117-96.414 63.992-0.64453 1.5273-2.4023 2.2422-3.9297 1.6016-1.5273-0.64453-2.2422-2.4023-1.6016-3.9297 17.324-41.102 57.34-67.66 101.94-67.66 60.957 0 110.55 49.605 110.55 110.58 0.007813 60.965-49.582 110.57-110.54 110.57z"/>
  <path d="m274.58 271.13c-1.0352 0-2.0469-0.53906-2.6016-1.5-0.82812-1.4336-0.33594-3.2695 1.0977-4.0977l149.05-86.07c1.4375-0.82813 3.2695-0.33594 4.0977 1.0977s0.33594 3.2695-1.0977 4.0977l-149.05 86.07c-0.47266 0.26953-0.98828 0.40234-1.4961 0.40234z"/>
  <path d="m274.57 271.13c-0.50781 0-1.0234-0.12891-1.4961-0.40234l-149.09-86.074c-1.4336-0.82812-1.9258-2.6641-1.0977-4.0977 0.82812-1.4336 2.6641-1.9258 4.0977-1.0977l149.09 86.07c1.4336 0.82812 1.9258 2.6641 1.0977 4.0977-0.55469 0.96484-1.5625 1.5039-2.6016 1.5039z"/>
  <path d="m274.57 443.23c-1.6562 0-3-1.3438-3-3v-172.11c0-1.6562 1.3438-3 3-3s3 1.3438 3 3v172.11c0 1.6562-1.3438 2.9961-3 2.9961z"/>
  <path d="m272.06 191.89c-1.6562 0-3-1.3438-3-3v-159.79c0-1.6562 1.3438-3 3-3s3 1.3438 3 3v159.79c0 1.6562-1.3438 3-3 3z"/>
  <path d="m231.82 52.516c-1.0938 0-2.1484-0.60156-2.6797-1.6445-0.75-1.4766-0.16016-3.2812 1.3164-4.0312l40.246-20.414c1.4805-0.75 3.2812-0.16016 4.0312 1.3164 0.75 1.4766 0.16016 3.2812-1.3164 4.0312l-40.242 20.414c-0.4375 0.22266-0.89844 0.32812-1.3555 0.32812z"/>
  <path d="m312.3 52.516c-0.45703 0-0.92188-0.10547-1.3555-0.32422l-40.246-20.414c-1.4766-0.75-2.0664-2.5547-1.3164-4.0312 0.75-1.4805 2.5547-2.0664 4.0312-1.3164l40.246 20.414c1.4766 0.75 2.0664 2.5547 1.3164 4.0312-0.52734 1.0391-1.582 1.6406-2.6758 1.6406z"/>
  <path d="m482.8 388.48c-0.50781 0-1.0234-0.12891-1.4961-0.40234l-138.38-79.883c-1.4336-0.82812-1.9258-2.6641-1.0977-4.0977s2.6641-1.9258 4.0977-1.0977l138.38 79.883c1.4336 0.82813 1.9258 2.6641 1.0977 4.0977-0.55469 0.96094-1.5664 1.5-2.6016 1.5z"/>
  <path d="m482.8 388.48c-0.054688 0-0.10938 0-0.16406-0.003907-1.6523-0.089843-2.9219-1.5039-2.832-3.1562l2.4531-45.086c0.089843-1.6562 1.5156-2.9414 3.1562-2.832 1.6523 0.089844 2.9219 1.5039 2.832 3.1562l-2.4531 45.086c-0.085937 1.5938-1.4102 2.8359-2.9922 2.8359z"/>
  <path d="m445.01 413.11c-0.98047 0-1.9414-0.48047-2.5156-1.3594-0.90234-1.3906-0.51172-3.2461 0.875-4.1523l37.797-24.637c1.3906-0.90234 3.2461-0.51172 4.1523 0.875 0.90234 1.3906 0.51172 3.2461-0.875 4.1523l-37.797 24.637c-0.50781 0.32812-1.0781 0.48438-1.6367 0.48438z"/>
  <path d="m68.801 392.8c-1.0352 0-2.0469-0.53906-2.6016-1.5-0.82812-1.4336-0.33594-3.2695 1.0977-4.0977l138.38-79.91c1.4375-0.82812 3.2695-0.33594 4.0977 1.0977 0.82812 1.4336 0.33594 3.2695-1.0977 4.0977l-138.38 79.906c-0.47266 0.27734-0.98828 0.40625-1.4961 0.40625z"/>
  <path d="m106.62 417.44c-0.5625 0-1.1289-0.15625-1.6328-0.48438l-37.828-24.641c-1.3906-0.90234-1.7812-2.7617-0.875-4.1523 0.90234-1.3906 2.7617-1.7812 4.1523-0.875l37.828 24.641c1.3906 0.90234 1.7812 2.7617 0.875 4.1523-0.57812 0.87891-1.5391 1.3594-2.5195 1.3594z"/>
  <path d="m68.793 392.8c-1.582 0-2.9062-1.2383-2.9922-2.8398l-2.418-45.082c-0.089843-1.6562 1.1797-3.0664 2.8359-3.1562 1.6719-0.089844 3.0664 1.1836 3.1562 2.8359l2.418 45.082c0.089843 1.6562-1.1797 3.0664-2.8359 3.1562-0.054687 0-0.10938 0.003906-0.16406 0.003906z"/>
  <path d="m224.62 457.49c-0.78516 0-1.5508-0.30859-2.1211-0.87891l-136.44-136.44c-0.75781-0.75781-1.0547-1.8633-0.77734-2.8984l24.992-93.164 24.961-93.195c0.27734-1.0352 1.0859-1.8438 2.1211-2.1211l82.371-22.062c1.5977-0.42969 3.2461 0.51953 3.6758 2.1211 0.42969 1.6016-0.51953 3.2461-2.1211 3.6758l-80.699 21.613-24.512 91.523-24.547 91.488 133.99 133.99 26.168-7.0078c1.6016-0.43359 3.2461 0.51953 3.6758 2.1211 0.42969 1.6016-0.51953 3.2461-2.1211 3.6758l-27.84 7.457c-0.25781 0.070312-0.51563 0.10156-0.77734 0.10156zm76.137-20.387c-1.3242 0-2.5352-0.88672-2.8945-2.2266-0.42969-1.6016 0.51953-3.2461 2.1211-3.6758l108.55-29.113 24.512-91.492 24.543-91.523-67.012-66.98-66.98-66.98-54.023 14.473c-1.6016 0.42969-3.2461-0.51953-3.6758-2.1211-0.42969-1.6016 0.51953-3.2461 2.1211-3.6758l55.695-14.922c1.0352-0.27734 2.1406 0.019531 2.8984 0.77734l68.203 68.203 68.238 68.203c0.75781 0.75781 1.0547 1.8633 0.77734 2.8984l-24.992 93.199-24.961 93.164c-0.27734 1.0352-1.0859 1.8438-2.1211 2.1211l-110.23 29.562c-0.25781 0.074218-0.51953 0.10937-0.77734 0.10937z"/>
  <path d="m389.02 485.9h-349.28c-1.6562 0-3-1.3438-3-3s1.3438-3 3-3h349.29c1.6562 0 3 1.3438 3 3-0.003906 1.6602-1.3438 3-3.0039 3z"/>
  <path d="m486 464.65h-241.7c-1.6562 0-3-1.3438-3-3s1.3438-3 3-3h241.7c1.6562 0 3 1.3438 3 3 0 1.6602-1.3438 3-3 3z"/>
  <path d="m446.04 485.9h-30.219c-1.6562 0-3-1.3438-3-3s1.3438-3 3-3h30.219c1.6562 0 3 1.3438 3 3 0 1.6602-1.3438 3-3 3z"/>
  <path d="m140.52 465.3h-114.52c-1.6562 0-3-1.3438-3-3s1.3438-3 3-3h114.52c1.6562 0 3 1.3438 3 3s-1.3438 3-3 3z"/>
 </g>
</svg>
