<?xml version="1.0" encoding="UTF-8"?>
<svg width="512pt" height="512pt" version="1.1" viewBox="0 0 512 512" xmlns="http://www.w3.org/2000/svg">
 <g>
  <path d="m359.68 47.105c-3.7305-2.0234-8.3984-0.63672-10.418 3.0977-2.0234 3.7305-0.63672 8.3945 3.0977 10.418 41.547 22.551 74.887 57.68 95.23 100.35 1.2812 2.6836 3.9883 4.3984 6.9648 4.4023 1.1367 0.003906 2.2578-0.26172 3.2773-0.76562 1.8594-0.85547 3.293-2.4258 3.9805-4.3516 0.68359-1.9297 0.55859-4.0547-0.34766-5.8906-21.773-45.59-57.398-83.129-101.79-107.26z"/>
  <path d="m32.82 339.25c-1.9141 0.80078-3.4258 2.3398-4.1875 4.2656-0.76172 1.9297-0.71094 4.0859 0.14063 5.9766 18.602 43.543 49.809 80.527 89.602 106.19 1.2344 0.79687 2.6758 1.2266 4.1484 1.2305 2.6133 0.011719 5.0547-1.3203 6.4492-3.5352 2.293-3.5508 1.2852-8.2852-2.2539-10.598-37.25-24.039-66.445-58.688-83.812-99.48-0.80078-1.875-2.3125-3.3555-4.207-4.1133-1.8906-0.75781-4.0078-0.73438-5.8789 0.066406z"/>
  <path d="m458.86 189.75c5.3242 16.988 8.5547 34.559 9.625 52.328 0.24219 4.0586 3.6133 7.2266 7.6797 7.2188h0.46094c2.0391-0.11719 3.9453-1.043 5.3008-2.5703 1.3516-1.5273 2.043-3.5312 1.918-5.5703-1.1602-18.996-4.5977-37.785-10.238-55.961-0.59375-1.9609-1.9414-3.6055-3.75-4.5664-1.8047-0.96094-3.9219-1.1602-5.8789-0.55469-1.9609 0.60156-3.6055 1.9609-4.5664 3.7773-0.96094 1.8125-1.1602 3.9375-0.55078 5.8984z"/>
  <path d="m147.41 384.51c-10.531-8.1484-20.008-17.574-28.211-28.059-2.6328-3.3359-7.4688-3.9102-10.805-1.2773-3.3359 2.6289-3.9102 7.4648-1.2812 10.801 8.9648 11.441 19.281 21.754 30.723 30.723 1.3477 1.043 3.0039 1.6172 4.707 1.6367 3.2969 0.015624 6.2383-2.0742 7.3047-5.1953 1.0664-3.1172 0.023438-6.5703-2.5938-8.5781z"/>
  <path d="m84.43 256c-0.10156-41.176 15.477-80.848 43.57-110.95 1.7422-1.4062 2.7812-3.5039 2.8516-5.7422 0.066407-2.2383-0.84766-4.3945-2.5-5.9023-1.6523-1.5117-3.8828-2.2227-6.1055-1.9531s-4.2148 1.4961-5.457 3.3555c-23.688 25.445-39.406 57.27-45.211 91.547-5.8047 34.273-1.4453 69.5 12.543 101.32 1.207 2.8008 3.9648 4.6133 7.0156 4.6094 1.0586 0.003907 2.1094-0.22266 3.0703-0.66797 1.8945-0.81641 3.3828-2.3633 4.125-4.2891 0.74219-1.9258 0.67578-4.0703-0.17969-5.9492-9.0859-20.598-13.762-42.871-13.723-65.383z"/>
  <path d="m346.37 70.809-0.92188-0.35938v0.003906c-30.312-16.102-64.133-24.473-98.457-24.375h-3.582c-40.18 0.86328-79.266 13.238-112.62 35.66-33.352 22.422-59.566 53.945-75.531 90.828-15.965 36.879-21.004 77.566-14.527 117.23 6.4805 39.66 24.207 76.629 51.078 106.51 26.871 29.883 61.754 51.426 100.51 62.07 38.754 10.641 79.746 9.9375 118.11-2.0352h0.30859l0.5625-0.25781v0.003906c20.48-6.6289 39.82-16.367 57.344-28.879 0.30469-0.12109 0.59766-0.27344 0.87109-0.45703 0.41797-0.26953 0.80078-0.59766 1.125-0.97656 17.262-12.543 32.508-27.648 45.211-44.797l0.51172-0.51172c0.22266-0.34766 0.42969-0.70703 0.61328-1.0781 23.543-32.363 37.34-70.785 39.77-110.73 2.4297-39.949-6.6133-79.762-26.059-114.74-19.445-34.98-48.488-63.672-83.703-82.695zm-61.441 251.29 69.227 96.461c-12.812 8.3945-26.559 15.27-40.961 20.48l-35.84-113.2c2.5977-1.0938 5.1289-2.3398 7.5781-3.7383zm81.668 87.504-69.172-96.461c2.1562-1.8633 4.207-3.8477 6.1445-5.9414l95.793 70.195c-9.6328 11.973-20.629 22.781-32.766 32.207zm75.16-153.6c0.042969 38.883-11.605 76.879-33.434 109.05l-95.641-70.297c6.9492-11.73 10.613-25.121 10.598-38.758 0-4.2422-3.4375-7.6797-7.6797-7.6797-4.2422 0-7.6797 3.4375-7.6797 7.6797 0 12.906-4.1484 25.469-11.828 35.84-7.6953 10.359-18.438 18.055-30.719 22.016-5.9805 1.8945-12.215 2.8594-18.484 2.8672-4.2422 0-7.6797 3.4375-7.6797 7.6797 0 4.2422 3.4375 7.6797 7.6797 7.6797 5.2656-0.023437 10.516-0.58984 15.668-1.6875l35.84 113.15c-16.742 4.6406-34.035 7-51.406 7.0117-51.602 1.3594-101.62-17.836-139.07-53.363-37.445-35.527-59.246-84.477-60.605-136.07-1.3594-51.602 17.84-101.63 53.363-139.07 35.527-37.449 84.477-59.25 136.08-60.605l1.6367 118.79v-0.003906c-18.605 2.1367-35.777 11.035-48.246 25.008-12.473 13.973-19.371 32.043-19.387 50.77 0 4.2422 3.4375 7.6797 7.6797 7.6797 4.2383 0 7.6797-3.4375 7.6797-7.6797 0.011719-16.145 6.4297-31.629 17.84-43.051 11.414-11.422 26.891-17.852 43.035-17.879 4.2422 0 7.6797-3.4375 7.6797-7.6797 0-1.2891-0.33594-2.5625-0.97266-3.6836l-1.6875-122.27c27.824 0.67188 55.184 7.3047 80.23 19.453l-60.008 111.88c-1.9023 3.6953-0.51562 8.2344 3.125 10.238 3.7109 1.8359 8.2148 0.44141 10.238-3.1758l60.16-111.61c29.215 17.199 53.434 41.723 70.27 71.148 16.836 29.422 25.707 62.73 25.73 96.633z"/>
 </g>
</svg>
