<?xml version="1.0" encoding="UTF-8"?>
<svg width="512pt" height="512pt" version="1.1" viewBox="0 0 512 512" xmlns="http://www.w3.org/2000/svg">
 <g>
  <path d="m142.61 426.08c-0.4375 0-0.88281-0.0625-1.3125-0.1875l-94.488-27.352c-2.0195-0.58594-3.4102-2.4375-3.4102-4.5391v-118.52c0-1.4844 0.69922-2.8867 1.8867-3.7773s2.7227-1.1758 4.1523-0.76172l94.488 27.352c2.0195 0.58594 3.4102 2.4336 3.4102 4.5391v118.52c0 1.4844-0.69922 2.8867-1.8867 3.7773-0.82812 0.625-1.8281 0.94922-2.8398 0.94922zm-89.762-35.625 85.039 24.617v-108.69l-85.039-24.617z"/>
  <path d="m142.61 426.08c-1.0117 0-2.0117-0.32422-2.8398-0.94922-1.1875-0.89062-1.8867-2.2891-1.8867-3.7773l0.003906-118.52c0-2.1055 1.3906-3.9531 3.4102-4.5391l94.488-27.352c1.4258-0.41406 2.9648-0.13281 4.1523 0.76172s1.8867 2.2891 1.8867 3.7773v118.52c0 2.1016-1.3906 3.9531-3.4102 4.5391l-94.488 27.352c-0.43359 0.12891-0.875 0.1875-1.3164 0.1875zm4.7266-119.7v108.69l85.039-24.617v-108.69z"/>
  <path d="m142.61 307.55c-0.44141 0-0.88672-0.0625-1.3125-0.1875l-94.488-27.355c-2.0195-0.58594-3.4102-2.4336-3.4102-4.5352 0-2.1055 1.3906-3.9531 3.4102-4.5391l94.488-27.352c0.85938-0.25 1.7695-0.25 2.6289 0l94.488 27.352c2.0195 0.58594 3.4102 2.4336 3.4102 4.5391 0 2.1016-1.3906 3.9531-3.4102 4.5352l-94.488 27.355c-0.42969 0.125-0.87109 0.1875-1.3164 0.1875zm-77.496-32.078 77.496 22.434 77.496-22.434-77.496-22.434z"/>
  <path d="m369.39 426.08c-0.44141 0-0.88281-0.0625-1.3125-0.1875l-94.488-27.352c-2.0195-0.58594-3.4102-2.4375-3.4102-4.5391v-118.52c0-1.4844 0.69922-2.8867 1.8867-3.7773s2.7266-1.1758 4.1523-0.76172l94.488 27.352c2.0195 0.58594 3.4102 2.4336 3.4102 4.5391v118.52c0 1.4844-0.69922 2.8867-1.8867 3.7773-0.83203 0.625-1.8281 0.94922-2.8398 0.94922zm-89.766-35.625 85.039 24.617v-108.69l-85.039-24.617z"/>
  <path d="m369.39 426.08c-1.0117 0-2.0117-0.32422-2.8398-0.94922-1.1875-0.89062-1.8867-2.2891-1.8867-3.7773v-118.52c0-2.1055 1.3906-3.9531 3.4102-4.5391l94.488-27.352c1.4258-0.41406 2.9648-0.13281 4.1523 0.76172s1.8867 2.2891 1.8867 3.7773v118.52c0 2.1016-1.3906 3.9531-3.4102 4.5391l-94.488 27.355c-0.42969 0.125-0.875 0.18359-1.3125 0.18359zm4.7227-119.7v108.69l85.039-24.617v-108.69z"/>
  <path d="m369.39 307.55c-0.44141 0-0.88672-0.0625-1.3125-0.1875l-94.488-27.355c-2.0195-0.58594-3.4102-2.4336-3.4102-4.5352 0-2.1055 1.3906-3.9531 3.4102-4.5391l94.488-27.352c0.85547-0.25 1.7695-0.25 2.6289 0l94.488 27.352c2.0195 0.58594 3.4102 2.4336 3.4102 4.5391 0 2.1016-1.3906 3.9531-3.4102 4.5352l-94.492 27.355c-0.42969 0.125-0.87109 0.1875-1.3125 0.1875zm-77.5-32.078 77.496 22.434 77.496-22.434-77.496-22.434z"/>
  <path d="m256 249.7c-0.4375 0-0.88281-0.0625-1.3125-0.1875l-94.488-27.352c-2.0195-0.58594-3.4102-2.4336-3.4102-4.5391v-118.52c0-1.4844 0.69922-2.8828 1.8867-3.7773s2.7227-1.1758 4.1523-0.76172l94.488 27.352c2.0195 0.58594 3.4102 2.4336 3.4102 4.5391v118.52c0 1.4844-0.69922 2.8828-1.8867 3.7773-0.82812 0.62109-1.8281 0.94531-2.8398 0.94531zm-89.766-35.625 85.039 24.617v-108.69l-85.039-24.617z"/>
  <path d="m256 249.7c-1.0117 0-2.0117-0.32422-2.8398-0.94922-1.1875-0.89453-1.8867-2.293-1.8867-3.7773v-118.52c0-2.1055 1.3906-3.9531 3.4102-4.5391l94.488-27.352c1.4258-0.41406 2.9648-0.13281 4.1523 0.76172 1.1875 0.89062 1.8867 2.293 1.8867 3.7773v118.52c0 2.1016-1.3906 3.9531-3.4102 4.5391l-94.488 27.352c-0.42969 0.125-0.875 0.18359-1.3125 0.18359zm4.7266-119.7v108.69l85.039-24.617v-108.69z"/>
  <path d="m256 131.18c-0.44141 0-0.88281-0.0625-1.3125-0.1875l-94.488-27.352c-2.0195-0.58594-3.4102-2.4336-3.4102-4.5391 0-2.1016 1.3906-3.9531 3.4102-4.5391l94.488-27.352c0.85938-0.24609 1.7695-0.24609 2.6289 0l94.488 27.352c2.0195 0.58594 3.4102 2.4336 3.4102 4.5391 0 2.1055-1.3906 3.9531-3.4102 4.5391l-94.488 27.352c-0.43359 0.125-0.875 0.1875-1.3164 0.1875zm-77.496-32.074 77.496 22.43 77.496-22.43-77.496-22.438z"/>
  <path d="m123.71 109.54h18.898v18.898h-18.898z"/>
  <path d="m123.71 137.89h18.898v18.898h-18.898z"/>
  <path d="m123.71 166.23h18.898v18.898h-18.898z"/>
  <path d="m123.71 194.58h18.898v18.898h-18.898z"/>
  <path d="m369.39 109.54h18.898v18.898h-18.898z"/>
  <path d="m369.39 137.89h18.898v18.898h-18.898z"/>
  <path d="m369.39 166.23h18.898v18.898h-18.898z"/>
  <path d="m369.39 194.58h18.898v18.898h-18.898z"/>
  <path d="m208.76 421.36h18.898v18.898h-18.898z"/>
  <path d="m237.1 421.36h18.898v18.898h-18.898z"/>
  <path d="m265.45 421.36h18.898v18.898h-18.898z"/>
  <path d="m293.8 421.36h18.898v18.898h-18.898z"/>
 </g>
</svg>
