<?xml version="1.0" encoding="UTF-8"?>
<svg width="512pt" height="512pt" version="1.1" viewBox="0 0 512 512" xmlns="http://www.w3.org/2000/svg">
 <g>
  <path d="m257 351c-91.531 0-166-74.469-166-166s74.469-166 166-166 166 74.469 166 166-74.469 166-166 166zm0-328c-89.328 0-162 72.672-162 162s72.672 162 162 162 162-72.672 162-162-72.672-162-162-162z"/>
  <path d="m257 339.3c-20.789 0-40.219-16.238-54.707-45.727-14.266-29.035-22.121-67.594-22.121-108.57s7.8555-79.539 22.121-108.57c14.488-29.488 33.918-45.727 54.707-45.727s40.219 16.238 54.707 45.727c14.266 29.035 22.121 67.594 22.121 108.57s-7.8555 79.539-22.121 108.57c-14.488 29.488-33.918 45.727-54.707 45.727zm0-304.6c-40.156 0-72.828 67.426-72.828 150.3 0 82.879 32.672 150.3 72.828 150.3s72.828-67.422 72.828-150.3c0-82.875-32.672-150.3-72.828-150.3z"/>
  <path d="m421 192.7h-317.85c-1.1055 0-2-0.89453-2-2 0-1.1055 0.89453-2 2-2h317.85c1.1055 0 2 0.89453 2 2 0 1.1016-0.89453 2-2 2z"/>
  <path d="m394.51 99.988h-273.33c-1.1055 0-2-0.89453-2-2s0.89453-2 2-2h273.34c1.1055 0 2 0.89453 2 2-0.003906 1.1055-0.89844 2-2.0039 2z"/>
  <path d="m394.51 272.16h-273.33c-1.1055 0-2-0.89453-2-2s0.89453-2 2-2h273.34c1.1055 0 2 0.89453 2 2-0.003906 1.1055-0.89844 2-2.0039 2z"/>
  <path d="m262 493c-15.992 0-29-13.012-29-29s13.008-29 29-29c15.988 0 29 13.012 29 29s-13.012 29-29 29zm0-54c-13.785 0-25 11.215-25 25s11.215 25 25 25 25-11.215 25-25-11.215-25-25-25z"/>
  <path d="m231 463h-150c-1.1055 0-2-0.89453-2-2s0.89453-2 2-2h150c1.1055 0 2 0.89453 2 2s-0.89453 2-2 2z"/>
  <path d="m431 463h-140c-1.1055 0-2-0.89453-2-2s0.89453-2 2-2h140c1.1055 0 2 0.89453 2 2s-0.89453 2-2 2z"/>
  <path d="m261 433c-1.1055 0-2-0.89453-2-2v-80c0-1.1055 0.89453-2 2-2s2 0.89453 2 2v80c0 1.1055-0.89453 2-2 2z"/>
  <path d="m221 391h20v20h-20z"/>
  <path d="m191 391h20v20h-20z"/>
  <path d="m161 391h20v20h-20z"/>
  <path d="m131 391h20v20h-20z"/>
  <path d="m371 391h20v20h-20z"/>
  <path d="m341 391h20v20h-20z"/>
  <path d="m311 391h20v20h-20z"/>
  <path d="m281 391h20v20h-20z"/>
 </g>
</svg>
