<?xml version="1.0" encoding="UTF-8"?>
<svg width="512pt" height="512pt" version="1.1" viewBox="0 0 512 512" xmlns="http://www.w3.org/2000/svg">
 <g>
  <path d="m406.5 433.53c-39.98 33.918-90.402 53.273-142.74 55.023v-33.207c106.44-4.0938 191.78-91.918 191.78-199.34 0-46.172-16.195-91.223-45.613-126.86-2.7266-3.2969-7.6133-3.7695-10.926-1.043-3.3047 2.7266-3.7734 7.6133-1.0469 10.922 27.129 32.859 42.07 74.406 42.07 116.98 0 101.47-82.555 184.02-184.02 184.02-42.305 0-83.637-14.77-116.39-41.59-3.3242-2.707-8.2109-2.2188-10.918 1.0859-2.7188 3.3164-2.2266 8.2031 1.082 10.922 33.504 27.438 75.316 43.059 118.46 44.762v33.32c-124.74-4.1172-224.96-106.81-224.96-232.53 0-55.473 19.84-109.2 55.871-151.28 2.7891-3.2539 2.4102-8.1523-0.84766-10.941-3.2344-2.7734-8.1367-2.4102-10.941 0.84766-38.43 44.895-59.598 102.2-59.598 161.37 0 136.88 111.36 248.24 248.24 248.24 58.766 0 115.78-20.91 160.53-58.879 3.2734-2.7734 3.6758-7.668 0.90234-10.938-2.7734-3.2539-7.668-3.6602-10.934-0.89453z"/>
  <path d="m256 7.7578c-57.551 0-113.64 20.145-157.95 56.723-3.3047 2.7266-3.7734 7.6172-1.0469 10.922 2.7344 3.3008 7.6211 3.7812 10.926 1.043 39.539-32.645 89.094-51.285 140.31-53.004v33.223c-106.44 4.0977-191.78 91.918-191.78 199.34 0 46.012 16.105 90.941 45.34 126.51 2.7227 3.3203 7.625 3.7812 10.918 1.0664 3.3125-2.7188 3.7891-7.6094 1.0664-10.918-25.312-30.797-39.777-69.211-41.473-108.9h33.246c4.0781 79.555 69.895 143.07 150.44 143.07 33.316 0 64.926-10.688 91.395-30.918 3.4023-2.5977 4.0547-7.4688 1.4531-10.871-2.6055-3.4023-7.4688-4.0547-10.879-1.4531-21.676 16.559-47.195 25.898-74.211 27.414v-33.27c52.691-3.9883 94.371-48.039 94.371-101.73 0-20.438-6.0469-40.172-17.477-57.07-2.3945-3.5508-7.2188-4.4883-10.773-2.0781-3.5469 2.3984-4.4766 7.2227-2.0742 10.77 9.6875 14.328 14.812 31.059 14.812 48.383 0 47.758-38.855 86.609-86.613 86.609-16.492 0-32.539-4.6758-46.418-13.52-3.5898-2.2969-8.4023-1.2383-10.703 2.3711-2.3047 3.6133-1.2422 8.4102 2.3711 10.711 14.18 9.043 30.289 14.375 46.992 15.641v33.105c-70.996-4.0547-127.56-62.926-127.56-134.92 0-29.559 9.4023-57.66 27.199-81.27 2.5742-3.4258 1.8945-8.2891-1.5312-10.867-3.4258-2.5781-8.2891-1.8906-10.863 1.5273-18.266 24.246-28.488 52.758-30.008 82.852h-33.305c4.082-97.883 84.957-176.27 183.82-176.27 41.992 0 83.09 14.574 115.73 41.047 3.332 2.6992 8.2109 2.1836 10.91-1.1406 2.7031-3.3242 2.1875-8.2109-1.1367-10.914-33.379-27.062-74.93-42.48-117.74-44.172v-33.336c124.74 4.1172 224.97 106.81 224.97 232.53 0 54.863-19.453 108.13-54.773 149.99-2.7578 3.2773-2.3477 8.1719 0.93359 10.934 3.2539 2.7539 8.1523 2.3633 10.934-0.92578 37.672-44.652 58.422-101.47 58.422-160 0-136.88-111.36-248.24-248.24-248.24z"/>
  <path d="m366 347.72c3.4336 2.5664 8.293 1.8633 10.855-1.5664 19.613-26.227 29.977-57.402 29.977-90.148 0-83.168-67.668-150.83-150.83-150.83-33.008 0-64.371 10.508-90.703 30.395-3.418 2.5781-4.0977 7.4453-1.5156 10.863 2.5742 3.418 7.4414 4.0859 10.863 1.5156 21.543-16.262 46.855-25.441 73.598-26.949v33.273c-52.688 3.9883-94.363 48.039-94.363 101.73 0 19.391 5.4844 38.281 15.855 54.625 2.3203 3.6328 7.1172 4.6758 10.711 2.3906 3.6133-2.2969 4.6914-7.0898 2.3945-10.707-7.3984-11.656-11.668-24.867-12.898-38.551h33.27c3.7773 25.781 25.977 45.664 52.789 45.664 29.453 0 53.418-23.965 53.418-53.422 0-29.453-23.965-53.422-53.418-53.422-7.1953 0-14.188 1.418-20.789 4.207-3.9375 1.6758-5.7812 6.2266-4.1133 10.172 1.6836 3.9492 6.2266 5.7656 10.176 4.1172 4.668-1.9766 9.6211-2.9805 14.727-2.9805 20.902 0 37.902 17.004 37.902 37.906 0 20.902-17 37.906-37.902 37.906s-37.902-17.004-37.902-37.906c0-4.8516 0.91016-9.5781 2.7031-14.062 1.5898-3.9766-0.33984-8.4922-4.3164-10.082-3.9766-1.5898-8.4922 0.33203-10.09 4.3164-1.5625 3.9023-2.5898 7.9453-3.1914 12.07h-33.418c3.9453-44.129 41.074-78.852 86.215-78.852 16.168 0 31.941 4.5 45.613 13.016 3.6211 2.2539 8.418 1.1523 10.684-2.4883 2.2656-3.6367 1.1523-8.4219-2.4844-10.684-13.938-8.6758-29.723-13.801-46.055-15.043v-33.109c70.996 4.0547 127.56 62.926 127.56 134.92 0 29.371-9.2969 57.332-26.887 80.859-2.5703 3.4258-1.8672 8.2891 1.5664 10.852z"/>
 </g>
</svg>
