<?xml version="1.0" encoding="UTF-8"?>
<svg width="512pt" height="512pt" version="1.1" viewBox="0 0 512 512" xmlns="http://www.w3.org/2000/svg">
 <g>
  <path d="m265.51 398.98c-1.6484 0-3-1.3516-3-3 0-1.6602 1.3516-3 3-3h128.19v-76.328l-54.051-14.59c-1.3008-0.35156-2.2109-1.5391-2.2109-2.8906v-30.352c0-1.3516 0.91016-2.5508 2.2109-2.8984l46.891-12.629c0.25-0.070313 0.51953-0.10938 0.77734-0.10938 1.3516 0 2.5391 0.92188 2.8906 2.2188 0.42969 1.6016-0.51953 3.25-2.1094 3.6797l-44.672 12.027v25.762l54.062 14.59c1.3008 0.35156 2.2109 1.5391 2.2109 2.8984v81.621c0 0.80078-0.3125 1.5508-0.88281 2.1211-0.55859 0.57031-1.3086 0.87891-2.1172 0.87891l-131.19-0.003907zm-20 0c-1.6484 0-3-1.3516-3-3 0-1.6602 1.3516-3 3-3 1.6602 0 3 1.3398 3 3 0 1.6484-1.3398 3-3 3zm-20 0h-123.2c-0.78906 0-1.5586-0.32031-2.1211-0.87891-0.55859-0.55859-0.87891-1.3281-0.87891-2.1211v-81.621c0-1.3594 0.91016-2.5508 2.2188-2.8984l54.051-14.59v-25.762l-52.371-14.109c-1.6016-0.42969-2.5508-2.0781-2.1211-3.6719 0.42188-1.5703 2.1016-2.5391 3.6797-2.1211l54.59 14.711c1.3086 0.35156 2.2188 1.5391 2.2188 2.8984v30.352c0 1.3516-0.91016 2.5391-2.2109 2.8906l-54.059 14.59v76.328h120.2c1.6602 0 3 1.3398 3 3v0.078126c-0.039062 1.6328-1.3594 2.9258-2.9961 2.9258zm171.19-152.6c-1.6484 0-3-1.3516-3-3 0-1.6602 1.3516-3 3-3 1.6602 0 3 1.3398 3 3 0 1.6523-1.3398 3-3 3zm-294.39-7.9883c-1.6484 0-3-1.3516-3-3 0-1.6602 1.3516-3 3-3 1.6602 0 3 1.3398 3 3 0 1.6484-1.3398 3-3 3zm147.2-1.1523c-0.5 0-0.98828-0.12109-1.4297-0.35938l-81.211-43.809h-61.559v22.32c0 1.6484-1.3398 3-3 3-1.6484 0-3-1.3516-3-3v-25.309c0-0.78906 0.32031-1.5703 0.87891-2.1289s1.3281-0.87891 2.1211-0.87891h65.32c0.48047 0 0.98828 0.12891 1.4219 0.35938l80.461 43.398 80.449-43.398c0.42969-0.23047 0.9375-0.35938 1.4297-0.35938l65.305-0.003907c0.78906 0 1.5703 0.32031 2.1172 0.87891 0.5625 0.55859 0.88281 1.3281 0.88281 2.1289v33.301c0 1.6484-1.3398 3-3 3-1.6484 0-3-1.3516-3-3v-30.309h-61.559l-81.211 43.809c-0.44141 0.24219-0.92969 0.35938-1.418 0.35938z"/>
  <path d="m249.51 237.24c-0.5 0-0.98828-0.12109-1.4297-0.35938l-81.879-44.172c-0.96875-0.51953-1.5703-1.5312-1.5703-2.6289 0-1.1094 0.60156-2.1211 1.5703-2.6484l62.41-33.66c0.42969-0.23047 0.92188-0.35938 1.4219-0.35938 1.1016 0 2.1211 0.60938 2.6406 1.5781 0.37891 0.69922 0.46094 1.5117 0.23828 2.2812-0.23047 0.76953-0.75 1.3984-1.4492 1.7812l-57.512 31.02 75.559 40.762 75.559-40.762-75.602-40.781c-0.12891 0.10156-0.26953 0.19141-0.41016 0.26953-0.44141 0.23047-0.92969 0.35938-1.4219 0.35938-1.1094 0-2.1211-0.60938-2.6484-1.5781-0.37891-0.69922-0.46094-1.5117-0.23047-2.2812 0.23047-0.76953 0.73828-1.3984 1.4492-1.7812 0.32031-0.17969 0.67188-0.28906 1.0312-0.33984 0.89062-1.0312 2.4805-1.3281 3.6914-0.67188l81.879 44.16c0.97266 0.53125 1.5781 1.5391 1.5781 2.6484 0 1.1016-0.60938 2.1094-1.5781 2.6289l-81.879 44.172c-0.44141 0.24609-0.92969 0.36328-1.418 0.36328z"/>
  <path d="m396.7 317.35c-0.26172 0-0.53125-0.03125-0.78125-0.10156l-56.27-15.191c-1.3008-0.35156-2.2109-1.5391-2.2109-2.8906v-30.352c0-1.3516 0.91016-2.5508 2.2109-2.8984l56.27-15.16c0.51172-0.14062 1.0586-0.14062 1.5586 0l56.25 15.16c1.3125 0.35156 2.2227 1.5508 2.2227 2.8984v30.352c0 1.3516-0.91016 2.5391-2.2227 2.8906l-56.25 15.191c-0.24609 0.070312-0.50781 0.10156-0.77734 0.10156zm-53.27-20.48 53.27 14.379 53.25-14.379v-25.75l-53.25-14.359-53.27 14.359z"/>
  <path d="m102.31 317.35c-0.26953 0-0.53125-0.03125-0.78125-0.10156l-56.27-15.191c-1.3086-0.35156-2.2188-1.5391-2.2188-2.8906v-30.352c0-1.3594 0.91016-2.5508 2.2188-2.8984l56.27-15.16c0.51172-0.14062 1.0586-0.14062 1.5586 0l56.27 15.16c1.3086 0.35156 2.2188 1.5391 2.2188 2.8984v30.352c0 1.3516-0.91016 2.5391-2.2188 2.8906l-56.27 15.191c-0.24609 0.070312-0.50781 0.10156-0.77734 0.10156zm-53.27-20.48 53.27 14.379 53.27-14.379v-25.762l-53.27-14.352-53.27 14.352z"/>
  <path d="m249.51 426.32c-1.6602 0-3-1.3398-3-3v-27.34c0-1.6602 1.3398-3 3-3 1.6484 0 3 1.3398 3 3v27.34c0 1.6602-1.3516 3-3 3z"/>
  <path d="m195.64 458.85c-1.6602 0-3-1.3398-3-3 0-1.6484 1.3398-3 3-3h138.73v-26.531h-169.73v23.512 0.019531c0 1.6484-1.3398 3-3 3-1.6484 0-3-1.3516-3-3v-26.531c0-0.78906 0.32031-1.5586 0.87891-2.1172 0.55859-0.5625 1.3281-0.88281 2.1211-0.88281h175.73c0.78906 0 1.5703 0.32031 2.1211 0.88281 0.55859 0.55859 0.87891 1.3281 0.87891 2.1172v32.531c0 0.8125-0.3125 1.5625-0.87891 2.1211-0.5625 0.57031-1.3125 0.87891-2.1211 0.87891zm-20 0c-1.6602 0-3-1.3398-3-3 0-1.6484 1.3398-3 3-3 1.6484 0 3 1.3516 3 3 0 1.6602-1.3516 3-3 3z"/>
  <path d="m338.29 109.85c-1.6602 0-3-1.3516-3-3 0-1.6602 1.3398-3 3-3h38.852v-28.84h-98.609c-2.9883 4.8516-7.1914 8.9102-12.148 11.73-5.1211 2.9297-10.949 4.4688-16.871 4.4688s-11.762-1.5391-16.871-4.4688c-4.9609-2.8203-9.1602-6.8789-12.148-11.73h-98.621v28.84h176.42c1.6484 0 3 1.3398 3 3 0 1.6484-1.3516 3-3 3h-179.41c-0.80078 0-1.5703-0.32031-2.1289-0.87891s-0.87891-1.3398-0.87891-2.1211v-34.84c0-0.78906 0.32031-1.5586 0.87891-2.1211 0.55859-0.55859 1.3281-0.87891 2.1289-0.87891h103.34c1.0898 0 2.1016 0.60156 2.6289 1.5586 4.9297 9.0312 14.371 14.641 24.648 14.641h0.011718c10.281 0 19.73-5.6094 24.66-14.641 0.51953-0.96094 1.5312-1.5586 2.6289-1.5586h103.34c0.78906 0 1.5625 0.32031 2.1211 0.87891 0.55859 0.55859 0.87891 1.3281 0.87891 2.1211v34.84c0 0.80078-0.30859 1.5508-0.87891 2.1211-0.55859 0.55859-1.3203 0.87891-2.1211 0.87891zm-20 0c-1.6602 0-3-1.3516-3-3 0-1.6602 1.3398-3 3-3 1.6484 0 2.9883 1.3398 2.9883 3 0.003906 1.6484-1.3398 3-2.9883 3z"/>
  <path d="m249.51 296.02c-1.6602 0-3-1.3398-3-2.9883v-186.18c0-1.6602 1.3398-3 3-3 1.6484 0 3 1.3398 3 3v186.18c0 1.6484-1.3516 2.9883-3 2.9883z"/>
  <path d="m249.51 91.211c-9.1094 0-17.68-3.5508-24.121-9.9883-6.4414-6.4297-9.9805-15-9.9883-24.109 0.011718-9.1211 3.5508-17.68 9.9883-24.121 6.4375-6.4414 15.008-9.9922 24.121-9.9922 9.1094 0 17.68 3.5508 24.121 9.9883 6.4297 6.4414 9.9805 15.012 9.9805 24.121s-3.5508 17.68-9.9805 24.109c-6.4453 6.4414-15.012 9.9922-24.121 9.9922zm0-62.211c-15.469 0.03125-28.078 12.641-28.109 28.109 0.03125 15.469 12.641 28.07 28.109 28.102 15.469-0.03125 28.07-12.629 28.102-28.102-0.035156-15.469-12.633-28.078-28.102-28.109z"/>
  <path d="m343.88 471.91h-280.73c-1.6602 0-3-1.3398-3-2.9883 0-1.6602 1.3398-3.0117 3-3.0117h280.73c1.6484 0 3 1.3516 3 3.0117 0 1.6484-1.3477 2.9883-3 2.9883z"/>
  <path d="m421.8 489h-194.27c-1.6602 0-3-1.3516-3-3 0-1.6602 1.3398-3 3-3h194.27c1.6484 0 2.9883 1.3398 2.9883 3 0 1.6484-1.3398 3-2.9883 3z"/>
  <path d="m465.96 489h-24.289c-1.6484 0-2.9883-1.3516-2.9883-3 0-1.6602 1.3398-3 2.9883-3h24.289c1.6484 0 3 1.3398 3 3 0 1.6484-1.3516 3-3 3z"/>
  <path d="m144.14 488.48h-92.062c-1.6484 0-3-1.3516-3-3 0-1.6602 1.3516-3 3-3h92.059c1.6602 0 3.0117 1.3398 3.0117 3 0 1.6484-1.3477 3-3.0078 3z"/>
 </g>
</svg>
