<?xml version="1.0" encoding="UTF-8"?>
<svg width="512pt" height="512pt" version="1.1" viewBox="0 0 512 512" xmlns="http://www.w3.org/2000/svg">
 <g>
  <path d="m258.19 342.88c-66.566 0-129.78-30.145-178-84.883-1-1.1328-1-2.832 0-3.9648 22.812-25.906 49.027-46.398 77.922-60.91 1.4805-0.74219 3.2812-0.14453 4.0273 1.3359 0.74219 1.4805 0.14453 3.2852-1.3359 4.0273-27.461 13.789-52.461 33.137-74.348 57.527 46.836 52.172 107.72 80.867 171.73 80.867 63.996 0 124.88-28.695 171.71-80.867-46.824-52.184-107.71-80.891-171.71-80.891-17.254 0-34.496 2.1016-51.238 6.2422-1.6094 0.39844-3.2344-0.58594-3.6328-2.1914-0.39844-1.6094 0.58203-3.2344 2.1914-3.6328 17.215-4.2578 34.938-6.418 52.68-6.418 66.559 0 129.77 30.152 177.98 84.906 0.99609 1.1328 0.99609 2.832 0 3.9648-48.219 54.738-111.43 84.887-177.98 84.887z"/>
  <path d="m258.19 328c-39.707 0-72.012-32.297-72.012-71.988 0-39.707 32.305-72.012 72.012-72.012 39.691 0 71.988 32.305 71.988 72.012 0.003906 39.691-32.293 71.988-71.988 71.988zm0-138c-36.398 0-66.012 29.613-66.012 66.012 0 36.387 29.613 65.988 66.012 65.988 36.387 0 65.988-29.605 65.988-65.988 0.003906-36.398-29.602-66.012-65.988-66.012z"/>
  <path d="m258.19 396.25c-30.582 0-59.645-9.6641-84.047-27.949-23.598-17.684-41.355-42.855-49.996-70.879-0.37891-1.2305 0.070312-2.5664 1.1133-3.3164 1.0469-0.75391 2.4531-0.75391 3.5-0.003906 39.008 27.984 83.762 42.777 129.43 42.777 3.4375 0 6.9336-0.085938 10.379-0.25 1.6641-0.10156 3.0625 1.1953 3.1406 2.8516 0.078125 1.6523-1.1953 3.0625-2.8516 3.1406-3.543 0.17187-7.1328 0.25781-10.668 0.25781-44 0-87.156-13.348-125.37-38.688 19.805 51.836 69.102 86.059 125.37 86.059 56.242 0 105.54-34.223 125.36-86.051-20.379 13.527-42.137 23.656-64.797 30.156-1.5898 0.45313-3.2539-0.46484-3.7109-2.0586-0.45703-1.5938 0.46484-3.2539 2.0586-3.7109 24.824-7.1211 48.547-18.723 70.516-34.484 1.0469-0.75 2.457-0.75 3.5039 0.003906 1.0469 0.75391 1.4922 2.0898 1.1133 3.3203-8.6523 28.027-26.41 53.199-50.004 70.879-24.395 18.281-53.453 27.945-84.035 27.945zm131.18-177.76c-0.61328 0-1.2266-0.1875-1.75-0.5625-38.996-28-83.75-42.801-129.43-42.801-45.676 0-90.43 14.801-129.43 42.801-1.0469 0.75391-2.457 0.75-3.5039 0-1.0469-0.75391-1.4961-2.0898-1.1133-3.3203 4.4805-14.535 11.281-28.188 20.219-40.57 0.96875-1.3438 2.8438-1.6445 4.1875-0.67969 1.3438 0.96875 1.6484 2.8438 0.67969 4.1875-6.7773 9.3945-12.27 19.547-16.395 30.277 38.199-25.348 81.348-38.699 125.36-38.699 44.008 0 87.16 13.352 125.36 38.703-19.82-51.844-69.117-86.07-125.36-86.07-26.395 0-51.934 7.6484-73.863 22.117-1.3828 0.91406-3.2422 0.53125-4.1562-0.85156-0.91406-1.3828-0.53125-3.2422 0.85156-4.1562 22.91-15.117 49.594-23.109 77.168-23.109 30.578 0 59.641 9.6641 84.035 27.949 23.594 17.684 41.352 42.859 50.004 70.895 0.37891 1.2305-0.066406 2.5664-1.1133 3.3203-0.52344 0.38281-1.1367 0.57031-1.7539 0.57031z"/>
  <path d="m118.64 192.99h-92.641c-1.6562 0-3-1.3438-3-3s1.3438-3 3-3h92.641c1.6562 0 3 1.3438 3 3s-1.3438 3-3 3z"/>
  <path d="m118.64 192.99c-0.75781 0-1.5156-0.28516-2.1016-0.85938l-16.598-16.277c-1.1836-1.1602-1.1992-3.0586-0.039062-4.2422s3.0586-1.1992 4.2422-0.039063l16.598 16.277c1.1836 1.1602 1.1992 3.0586 0.039062 4.2422-0.58594 0.59766-1.3633 0.89844-2.1406 0.89844z"/>
  <path d="m102.05 209.25c-0.77734 0-1.5547-0.30078-2.1445-0.89844-1.1602-1.1836-1.1406-3.082 0.042969-4.2422l16.598-16.258c1.1836-1.1602 3.082-1.1406 4.2422 0.042969 1.1602 1.1836 1.1406 3.082-0.042968 4.2422l-16.598 16.258c-0.58203 0.57031-1.3398 0.85547-2.0977 0.85547z"/>
  <path d="m486 335.99h-92.645c-1.6562 0-3-1.3438-3-3s1.3438-3 3-3h92.645c1.6562 0 3 1.3438 3 3s-1.3438 3-3 3z"/>
  <path d="m393.35 335.99c-0.77734 0-1.5547-0.30078-2.1445-0.89844-1.1602-1.1836-1.1406-3.082 0.042969-4.2422l16.598-16.258c1.1875-1.1562 3.0859-1.1406 4.2422 0.042968 1.1602 1.1836 1.1406 3.082-0.042969 4.2422l-16.598 16.258c-0.58203 0.57031-1.3398 0.85547-2.0977 0.85547z"/>
  <path d="m409.95 352.27c-0.75781 0-1.5195-0.28516-2.1016-0.85547l-16.598-16.277c-1.1836-1.1602-1.1992-3.0586-0.039062-4.2422 1.1602-1.1836 3.0586-1.1992 4.2422-0.039062l16.598 16.277c1.1836 1.1602 1.1992 3.0625 0.039063 4.2422-0.58594 0.59375-1.3633 0.89453-2.1406 0.89453z"/>
  <path d="m261.37 308.82c-27.508 0-49.883-22.379-49.883-49.883 0-6.0312 1.0703-11.934 3.1797-17.547 0.58203-1.5469 2.2969-2.332 3.8477-1.7578l36.551 13.508-13.613-36.828c-0.56641-1.5312 0.19922-3.2383 1.7188-3.832 5.8047-2.2734 11.926-3.4297 18.199-3.4297 27.492 0 49.859 22.379 49.859 49.883 0.003906 27.512-22.363 49.887-49.859 49.887zm-42.043-62.488c-1.2227 4.0742-1.8398 8.3047-1.8398 12.605 0 24.195 19.688 43.883 43.883 43.883 24.188 0 43.859-19.688 43.859-43.883 0-24.199-19.676-43.883-43.859-43.883-4.5312 0-8.9688 0.68359-13.234 2.0312l14.816 40.09c0.40625 1.0977 0.13672 2.332-0.69141 3.1602s-2.0625 1.1016-3.1602 0.69141z"/>
  <path d="m260.14 261.21c-0.35156 0-0.69922-0.0625-1.0391-0.1875l-52.012-19.223c-1.5547-0.57422-2.3477-2.3008-1.7734-3.8516 5.9219-16.031 18.516-28.641 34.562-34.582 0.74609-0.27734 1.5742-0.24609 2.2969 0.085937 0.72266 0.33203 1.2852 0.9375 1.5625 1.6875l19.223 52.031c0.40625 1.1016 0.13672 2.332-0.69141 3.1602-0.58203 0.57422-1.3477 0.87891-2.1289 0.87891zm-48.082-23.969 43.008 15.895-15.895-43.023c-12.152 5.3086-21.824 14.984-27.113 27.129z"/>
  <path d="m200.48 316.7c-0.76953 0-1.5352-0.29297-2.1211-0.87891-15.973-15.984-24.77-37.23-24.77-59.824s8.7969-43.84 24.77-59.824c1.1719-1.1719 3.0703-1.1719 4.2422 0 1.1719 1.1719 1.1719 3.0703 0 4.2422-14.84 14.852-23.016 34.59-23.016 55.582s8.1719 40.734 23.016 55.582c1.1719 1.1719 1.1719 3.0703 0 4.2422-0.58984 0.58594-1.3555 0.87891-2.1211 0.87891z"/>
  <path d="m315.89 316.7c-0.76953 0-1.5352-0.29297-2.1211-0.87891-1.1719-1.1719-1.1719-3.0703-0.003906-4.2422 14.84-14.852 23.016-34.59 23.016-55.582s-8.1758-40.73-23.016-55.582c-1.1719-1.1719-1.1719-3.0703 0.003906-4.2422 1.1719-1.1719 3.0703-1.1719 4.2422 0 15.973 15.984 24.77 37.23 24.77 59.824 0 22.598-8.7969 43.84-24.77 59.824-0.58594 0.58594-1.3555 0.87891-2.1211 0.87891z"/>
 </g>
</svg>
