<?xml version="1.0" encoding="UTF-8"?>
<svg width="512pt" height="512pt" version="1.1" viewBox="0 0 512 512" xmlns="http://www.w3.org/2000/svg">
 <g>
  <path d="m285.44 366.02h-131.61c-0.78906 0-1.5703-0.32031-2.1289-0.87891-0.55078-0.55859-0.87109-1.3398-0.87109-2.1211v-75.82c0-8.4805 1.5391-16.781 4.5898-24.672 0.44922-1.1484 1.5703-1.9102 2.8008-1.9102 0.37109 0 0.73047 0.058593 1.0781 0.19922 1.1602 0.44922 1.9102 1.5391 1.9219 2.7812 0 0.37109-0.070312 0.73828-0.19922 1.1016-2.7812 7.1875-4.1914 14.762-4.1914 22.5v72.82h125.61l0.003906-72.82c0-16.699-6.5508-32.461-18.449-44.359-11.898-11.891-27.648-18.441-44.352-18.449-12.609 0.011719-24.781 3.7695-35.219 10.879-0.5 0.33984-1.0898 0.51953-1.6914 0.51953-0.98828 0-1.9219-0.48828-2.4805-1.3086-0.44922-0.67188-0.62109-1.4609-0.46875-2.25 0.14844-0.78906 0.60156-1.4688 1.2617-1.9219 11.43-7.8008 24.781-11.922 38.602-11.922 9.25 0.011719 18.238 1.8281 26.719 5.4297 8.1914 3.4805 15.551 8.4492 21.879 14.781 6.3281 6.3281 11.301 13.691 14.77 21.879 3.6016 8.4805 5.4297 17.473 5.4297 26.723v75.82c0 0.80078-0.30859 1.5508-0.87891 2.1211-0.5625 0.55859-1.3242 0.87891-2.125 0.87891zm-117.31-116.68c-0.67969 0-1.3281-0.21875-1.8594-0.64844-1.3008-1.0312-1.5117-2.9219-0.48047-4.2109 0.98828-1.2617 2.9492-1.4805 4.2109-0.48047 1.3008 1.0312 1.5117 2.9219 0.48047 4.2109-0.57031 0.71875-1.4297 1.1289-2.3516 1.1289z"/>
  <path d="m219.63 430.66c-7.8398 0-15.461-1.5508-22.641-4.6016-6.9297-2.9492-13.172-7.1602-18.531-12.527-5.3516-5.3594-9.5586-11.602-12.512-18.531-3.0508-7.1914-4.5898-14.812-4.6016-22.648v-9.3281c0-0.78906 0.32031-1.5703 0.87891-2.1289 0.55859-0.55859 1.3281-0.87109 2.1211-0.87109h110.57c0.78906 0 1.5586 0.32031 2.1211 0.87891 0.55859 0.55078 0.87891 1.3203 0.87891 2.1211v9.3281c0 7.8398-1.5508 15.461-4.6016 22.648-2.9492 6.9297-7.1602 13.172-12.512 18.531-5.3594 5.3672-11.602 9.5781-18.531 12.527-7.1797 3.0508-14.789 4.6016-22.641 4.6016zm-52.277-64.648v6.3398c0 13.91 5.4609 27.031 15.359 36.941 9.9102 9.9102 23.02 15.371 36.922 15.371 13.91 0 27.02-5.4609 36.93-15.371 9.8984-9.9102 15.359-23.031 15.359-36.941v-6.3398z"/>
  <path d="m110.03 383.64c-0.87891 0-1.7109-0.37891-2.2812-1.0508-0.51953-0.60938-0.76953-1.3789-0.71094-2.1797 0.058594-0.80078 0.42969-1.5312 1.0391-2.0508l20.59-17.617c0.53906-0.47266 1.2305-0.72266 1.9492-0.72266h30.531c1.6602 0 3 1.3398 3 3 0 1.6484-1.3398 2.9883-3 2.9883h-29.422l-19.75 16.91c-0.53516 0.46094-1.2266 0.72266-1.9453 0.72266z"/>
  <path d="m328.48 383.64c-0.71094 0-1.4102-0.26172-1.9492-0.73047l-19.723-16.898-29.449 0.011719c-1.6602 0-3-1.3516-3-3 0-1.6602 1.3398-3 3-3h30.562c0.71875 0 1.4102 0.25 1.9609 0.72266l20.559 17.617c1.25 1.0781 1.3984 2.9805 0.32031 4.2305-0.57422 0.66797-1.4023 1.0469-2.2812 1.0469z"/>
  <path d="m130.62 282.58c-0.71094 0-1.4102-0.25-1.9492-0.72266l-20.59-17.617c-1.2617-1.0781-1.3984-2.9727-0.32812-4.2305 1.0391-1.2109 3.0195-1.3594 4.2305-0.32812l19.738 16.898 22.539-0.019531c1.6484 0 3 1.3398 3 2.9883s-1.3398 3-2.9883 3z"/>
  <path d="m307.92 282.58-22.922-0.027344c-1.6484 0-2.9883-1.3398-2.9883-3 0-1.6484 1.3398-3 3-3l21.801 0.03125 19.723-16.898h0.011719c1.2109-1.0312 3.1875-0.87891 4.2188 0.32812 0.51953 0.60938 0.76953 1.3789 0.71094 2.1797-0.058593 0.80078-0.42969 1.5312-1.0312 2.0508l-20.559 17.617c-0.55859 0.46875-1.2461 0.71875-1.9648 0.71875z"/>
  <path d="m313.8 321.49h-28.359c-1.6484 0-3-1.3398-3-3 0-1.6484 1.3516-2.9883 3-2.9883h28.359c1.6484 0 3 1.3398 3 2.9883 0 1.6602-1.3516 3-3 3zm-159.97 0h-28.359c-1.6484 0-3-1.3398-3-3 0-1.6484 1.3516-2.9883 3-2.9883h28.359c1.6484 0 2.9883 1.3398 2.9883 2.9883 0.003906 1.6602-1.3359 3-2.9883 3z"/>
  <path d="m200.68 400.24c2.793 0 5.0586-2.2695 5.0586-5.0625 0-2.7617-2.2695-5.0273-5.0586-5.0273-2.7617 0-5.0312 2.2695-5.0312 5.0273 0 2.7969 2.2656 5.0625 5.0312 5.0625" fill-rule="evenodd"/>
  <path d="m238.59 400.24c2.7617 0 5.0312-2.2695 5.0312-5.0625 0-2.7617-2.2695-5.0273-5.0312-5.0273-2.793 0-5.0586 2.2695-5.0586 5.0273 0 2.7969 2.2695 5.0625 5.0586 5.0625" fill-rule="evenodd"/>
  <path d="m208.03 457.33h-0.039062c-0.80078-0.019531-1.5508-0.33984-2.1094-0.91016-0.55859-0.57812-0.85937-1.3281-0.85156-2.1406l0.41016-28.172c0.019532-1.6289 1.3711-2.9609 3-2.9609h0.039063c0.80078 0.011719 1.5508 0.32812 2.1094 0.91016 0.55859 0.57031 0.85938 1.3281 0.85156 2.1289l-0.41016 28.18c-0.019531 1.6367-1.3711 2.9648-3 2.9648z"/>
  <path d="m231.03 457.33h-0.039062c-0.80078-0.019531-1.5508-0.33984-2.1094-0.91016-0.55078-0.57812-0.85937-1.3281-0.83984-2.1406l0.39844-28.172c0.03125-1.6289 1.3711-2.9609 3-2.9609h0.050782c0.80078 0.011719 1.5391 0.32812 2.1016 0.91016 0.55859 0.57031 0.85938 1.3281 0.85156 2.1289l-0.41016 28.18c-0.023437 1.6367-1.3633 2.9648-3.0039 2.9648z"/>
  <path d="m219.64 366.02c-1.6602 0-3-1.3516-3-3v-141.62c0-1.6602 1.3398-3.0117 3-3.0117 1.6484 0 2.9883 1.3516 2.9883 3.0117v141.62c0 1.6523-1.3398 3-2.9883 3z"/>
  <path d="m219.26 225.41c-1.6602 0-3-1.3398-3-3v-103.09c0-1.6484 1.3398-3 3-3 1.6484 0 3 1.3516 3 3v103.09c0 1.6602-1.3516 3-3 3z"/>
  <path d="m129.25 218.02c-5.9609 0-11.559-2.3203-15.781-6.5391-4.2109-4.2188-6.5312-9.8281-6.5312-15.789 0-12.32 10.012-22.34 22.309-22.34 12.32 0 22.34 10.031 22.34 22.34 0.003906 12.309-10.016 22.328-22.336 22.328zm0-38.668c-8.9688 0.019532-16.289 7.3516-16.309 16.34 0.019532 8.9883 7.3398 16.32 16.309 16.34 9-0.019531 16.328-7.3516 16.34-16.34-0.011719-8.9922-7.3398-16.32-16.34-16.34z"/>
  <path d="m356.69 363.28c-5.0586-0.011719-9.8203-1.9805-13.379-5.5508-3.5703-3.5703-5.5508-8.3203-5.5508-13.379 0-10.438 8.4883-18.938 18.93-18.938 10.43 0.011719 18.93 8.5 18.941 18.938-0.007812 10.438-8.5 18.93-18.941 18.93zm0-31.871c-7.1211 0.011719-12.922 5.8203-12.93 12.938 0 7.1289 5.8008 12.93 12.93 12.93 7.1211-0.011719 12.922-5.8125 12.941-12.93-0.019531-7.1172-5.8203-12.926-12.941-12.938z"/>
  <path d="m302.57 240.01c-7.5195 0-14.59-2.9297-19.91-8.2383-5.3125-5.3086-8.2383-12.371-8.2383-19.891 0-7.5117 2.9297-14.57 8.2383-19.879 5.3203-5.3086 12.391-8.2383 19.91-8.2383 7.5117 0 14.578 2.9297 19.891 8.2383 5.3086 5.3086 8.2305 12.371 8.2383 19.879-0.011719 7.5195-2.9297 14.578-8.2383 19.891-5.3125 5.3047-12.383 8.2383-19.891 8.2383zm0-50.25c-12.188 0.019531-22.129 9.9492-22.148 22.121 0.019531 12.18 9.9609 22.109 22.148 22.129 12.18-0.019531 22.109-9.9492 22.133-22.129-0.023437-12.172-9.9531-22.102-22.133-22.121z"/>
  <path d="m175.43 336.7c-1.6484 0-3-1.3398-3-3v-48.098c0-1.6484 1.3516-3 3-3 1.6602 0 3 1.3516 3 3v48.098c0 1.6602-1.3398 3-3 3z"/>
  <path d="m219.26 122.32c-0.53125 0-1.0508-0.14062-1.5-0.39844l-40.434-23.32c-0.92188-0.53906-1.5-1.5312-1.5-2.6016v-46.672c0-1.0703 0.57812-2.0703 1.5-2.6016l40.43-23.32c0.91016-0.53125 2.0898-0.53125 3 0l40.422 23.32c0.92187 0.53125 1.5 1.5312 1.5 2.6016v46.672c0 1.0703-0.57813 2.0586-1.5 2.6016l-40.422 23.32c-0.45703 0.25781-0.97656 0.39844-1.4961 0.39844zm-37.434-28.051 37.43 21.59 37.422-21.59v-43.211l-37.422-21.59-37.43 21.59z"/>
  <path d="m334.85 489h-260.91c-1.6484 0-3-1.3516-3-3 0-1.6602 1.3516-3 3-3h260.91c1.6484 0 3 1.3398 3 3 0 1.6484-1.3516 3-3 3z"/>
  <path d="m407.29 470.88h-161.74c-1.6602 0-3-1.3516-3-3 0-1.6602 1.3398-3 3-3h161.74c1.6484 0 3 1.3398 3 3 0 1.6523-1.3516 3-3 3z"/>
  <path d="m448.32 470.88h-22.559c-1.6602 0-3-1.3516-3-3 0-1.6602 1.3398-3 3-3h22.559c1.6602 0 3 1.3398 3 3 0 1.6523-1.3398 3-3 3z"/>
  <path d="m175.72 471.43h-112.04c-1.6602 0-3-1.3398-3-3 0-1.6484 1.3398-3 3-3h112.04c1.6602 0 3 1.3516 3 3 0 1.6602-1.3398 3-3 3z"/>
 </g>
</svg>
