<?xml version="1.0" encoding="UTF-8"?>
<svg width="512pt" height="512pt" version="1.1" viewBox="0 0 512 512" xmlns="http://www.w3.org/2000/svg">
 <g>
  <path d="m111.35 233.52h-72.211c-0.78906 0-1.5586-0.32031-2.1211-0.87109-0.55859-0.55859-0.87891-1.3398-0.87891-2.1289v-72.219c0-0.78906 0.32031-1.5586 0.87891-2.1211 0.55859-0.55859 1.3281-0.87891 2.1211-0.87891h72.211c0.78906 0 1.5703 0.32031 2.1211 0.87891 0.55859 0.55859 0.87891 1.3281 0.87891 2.1211v72.219c0 0.80078-0.32031 1.5703-0.87891 2.1289-0.55078 0.55078-1.332 0.87109-2.1211 0.87109zm-69.211-6h66.211v-66.219h-66.211z"/>
  <path d="m215.57 233.52h-72.219c-0.78906 0-1.5703-0.32031-2.1211-0.87109-0.55859-0.55859-0.87891-1.3398-0.87891-2.1289v-72.219c0-0.78906 0.32031-1.5586 0.87109-2.1211 0.55859-0.55859 1.3281-0.87891 2.1289-0.87891h72.219c0.78906 0 1.5586 0.32031 2.1211 0.87891 0.55859 0.55859 0.87891 1.3281 0.87891 2.1211v72.219c0 0.80078-0.32031 1.5703-0.87891 2.1289-0.5625 0.55078-1.332 0.87109-2.1211 0.87109zm-69.219-6h66.219v-66.219h-66.219z"/>
  <path d="m319.79 233.53h-72.211c-0.78906 0-1.5586-0.32031-2.1211-0.87891-0.55859-0.55859-0.87891-1.3281-0.87891-2.1289v-72.223c0-0.78906 0.32031-1.5586 0.87891-2.1211 0.55859-0.55859 1.3281-0.87891 2.1211-0.87891h72.211c0.78906 0 1.5586 0.32031 2.1211 0.87891 0.55859 0.55859 0.87891 1.3281 0.87891 2.1211v72.219c0 0.80859-0.3125 1.5586-0.87891 2.1289-0.57031 0.5625-1.3203 0.88281-2.1211 0.88281zm-69.211-6h66.211v-66.23h-66.211z"/>
  <path d="m111.35 335.26h-72.211c-0.78906 0-1.5586-0.32031-2.1211-0.87891-0.55859-0.5625-0.87891-1.3281-0.87891-2.1211v-72.199c0-0.78906 0.32031-1.5586 0.87891-2.1211 0.55859-0.55859 1.3281-0.87891 2.1211-0.87891h72.211c0.78906 0 1.5703 0.32031 2.1211 0.87891 0.55859 0.5625 0.87891 1.3281 0.87891 2.1211v72.199c0 0.80078-0.30859 1.5508-0.87891 2.1211-0.5625 0.56641-1.3242 0.87891-2.1211 0.87891zm-69.211-6h66.211v-66.199l-66.211-0.003906z"/>
  <path d="m215.57 335.26h-72.219c-0.78906 0-1.5586-0.32031-2.1211-0.87891-0.55859-0.5625-0.87891-1.3281-0.87891-2.1211v-72.199c0-0.78906 0.32031-1.5586 0.87891-2.1211 0.55078-0.55859 1.3203-0.87891 2.1211-0.87891h72.219c0.78906 0 1.5586 0.32031 2.1211 0.87891 0.55859 0.5625 0.87891 1.3281 0.87891 2.1211v72.199c0 0.80078-0.30859 1.5508-0.87891 2.1211-0.57031 0.56641-1.3203 0.87891-2.1211 0.87891zm-69.219-6h66.219v-66.199h-66.219z"/>
  <path d="m319.79 335.26h-72.211c-0.78906 0-1.5586-0.32031-2.1211-0.87891-0.55859-0.5625-0.87891-1.3281-0.87891-2.1211v-72.199c0-0.78906 0.32031-1.5586 0.87891-2.1211 0.55859-0.55859 1.3281-0.87891 2.1211-0.87891h72.211c0.78906 0 1.5586 0.32031 2.1211 0.87891 0.55859 0.5625 0.87891 1.3281 0.87891 2.1211v72.199c0 0.80078-0.3125 1.5508-0.87891 2.1211-0.57031 0.56641-1.3203 0.87891-2.1211 0.87891zm-69.211-6h66.211v-66.199h-66.211z"/>
  <path d="m111.35 437.05h-72.211c-0.78906 0-1.5586-0.32031-2.1211-0.87891-0.55859-0.5625-0.87891-1.3281-0.87891-2.1211v-72.219c0-0.80078 0.32031-1.5703 0.87891-2.1289 0.55078-0.55078 1.3281-0.87109 2.1211-0.87109h72.211c0.78906 0 1.5703 0.32031 2.1211 0.87109 0.55859 0.55859 0.87891 1.3281 0.87891 2.1289v72.219c0 0.80078-0.30859 1.5586-0.87891 2.1211-0.5625 0.56641-1.3242 0.87891-2.1211 0.87891zm-69.211-6h66.211v-66.219l-66.211-0.003906z"/>
  <path d="m215.57 437.05h-72.219c-0.78906 0-1.5703-0.32031-2.1289-0.87891-0.55078-0.5625-0.87109-1.3281-0.87109-2.1211v-72.219c0-0.80078 0.32031-1.5703 0.87109-2.1289 0.55859-0.55078 1.3281-0.87109 2.1289-0.87109h72.219c0.78906 0 1.5703 0.32031 2.1211 0.87109 0.55859 0.55859 0.87891 1.3398 0.87891 2.1289v72.219c0 0.80078-0.30859 1.5586-0.87891 2.1211-0.57031 0.56641-1.3203 0.87891-2.1211 0.87891zm-69.23-6h66.23v-66.219h-66.219z"/>
  <path d="m319.79 437.05h-72.211c-0.78906 0-1.5586-0.32031-2.1211-0.87891-0.55859-0.5625-0.87891-1.3281-0.87891-2.1211v-72.219c0-0.78906 0.32031-1.5703 0.87891-2.1289 0.55859-0.55078 1.3281-0.87109 2.1211-0.87109h72.211c0.78906 0 1.5586 0.32031 2.1211 0.87109 0.55859 0.55859 0.87891 1.3281 0.87891 2.1289v72.219c0 0.80078-0.3125 1.5586-0.87891 2.1211-0.57031 0.56641-1.3203 0.87891-2.1211 0.87891zm-69.211-6h66.211v-66.219h-66.211z"/>
  <path d="m319.79 437.05c-0.5625 0-1.1016-0.14844-1.5703-0.44141-0.89844-0.55078-1.4297-1.5117-1.4297-2.5586v-91.922c0-1.6484 1.3516-3 3-3 1.6484 0 3 1.3516 3 3v87.051l160.21-80.84v-70.07c0-1.6602 1.3398-3 3-3 1.6484 0 2.9883 1.3398 2.9883 3v71.922c0 1.1211-0.64062 2.1719-1.6406 2.6719l-166.21 83.871c-0.41797 0.20312-0.88672 0.31641-1.3477 0.31641zm0-111.92c-1.6602 0-3-1.3398-3-3 0-1.6484 1.3398-3 3-3 1.6484 0 3 1.3516 3 3 0 1.6602-1.3516 3-3 3zm0-20c-1.6602 0-3-1.3398-3-3v-143.83c0-1.1211 0.64844-2.1719 1.6484-2.6797l166.2-83.859c0.92188-0.46094 2.0508-0.42188 2.9297 0.12109 0.89062 0.55078 1.4219 1.5117 1.4219 2.5586l0.011719 163.83c0 1.6484-1.3516 3-3 3-1.6602 0-3-1.3516-3-3v-158.96l-160.21 80.84v141.98c0 1.6602-1.3516 3-3 3zm166.21-43.859c-1.6602 0-3-1.3516-3-3 0-1.6484 1.3398-3 3-3 1.6484 0 2.9883 1.3516 2.9883 3 0 1.6523-1.3398 3-2.9883 3z"/>
  <path d="m319.79 161.3h-87.488c-1.6484 0-3-1.3516-3-3 0-1.6484 1.3516-3 3-3h86.781l154.78-78.102-64.262-1.2695c-1.6289-0.03125-2.9297-1.3398-2.9375-2.9805v-0.078125c0.039063-1.6211 1.3789-2.9414 3-2.9414h0.058594l76.328 1.5117c1.3906 0.019532 2.5586 0.98828 2.8711 2.3281 0.30859 1.3516-0.33984 2.7188-1.5703 3.3398l-166.21 83.871c-0.42578 0.21094-0.875 0.32031-1.3477 0.32031zm-107.49 0c-1.6484 0-3-1.3516-3-3 0-1.6484 1.3516-3 3-3 1.6602 0 3 1.3516 3 3 0 1.6484-1.3398 3-3 3zm-20 0h-153.16c-1.4219 0-2.6289-0.96875-2.9297-2.3594-0.30078-1.3906 0.39062-2.7695 1.6797-3.3711l193.37-88.859c0.41016-0.19141 0.85938-0.28906 1.3086-0.26953l137.16 2.7109c0.80078 0.011718 1.5508 0.33984 2.1016 0.91016 0.55859 0.57812 0.85938 1.3398 0.83984 2.1406-0.03125 1.6211-1.3789 2.9414-3 2.9414h-0.0625l-136.48-2.6953-180.28 82.852h139.45c1.6602 0 3 1.3516 3 3 0 1.6484-1.3398 3-3 3zm197.37-85.762h-0.050781c-0.8125-0.019531-1.5625-0.35156-2.1094-0.92187-0.55859-0.57813-0.85938-1.3398-0.83984-2.1406 0.03125-1.6211 1.3711-2.9414 3-2.9414h0.058594c0.80078 0.011719 1.5391 0.33984 2.1016 0.92188 0.55859 0.57812 0.85156 1.3398 0.83984 2.1406-0.03125 1.6211-1.3828 2.9414-3 2.9414z"/>
  <path d="m279.18 453.63h-231.48c-1.6484 0-3-1.3398-3-3 0-1.6484 1.3516-3 3-3h231.48c1.6484 0 3 1.3516 3 3 0 1.6602-1.3516 3-3 3z"/>
  <path d="m343.41 467.71h-160.16c-1.6602 0-3-1.3398-3-3 0-1.6484 1.3398-3 3-3h160.16c1.6602 0 3 1.3516 3 3 0 1.6602-1.3398 3-3 3z"/>
  <path d="m379.84 467.71h-20.031c-1.6484 0-3-1.3398-3-3 0-1.6484 1.3516-3 3-3h20.031c1.6484 0 3 1.3516 3 3 0 1.6602-1.3516 3-3 3z"/>
  <path d="m114.48 467.27h-75.891c-1.6484 0-3-1.3398-3-2.9883 0-1.6602 1.3516-3 3-3h75.891c1.6484 0 3 1.3398 3 3 0 1.6484-1.3516 2.9883-3 2.9883z"/>
  <path d="m371.99 380.17c-1.1719 0-2.2383-0.67969-2.7227-1.7383-0.69922-1.5-0.039063-3.2891 1.4609-3.9805l81.98-37.77v-149.5c0-1.6602 1.3398-3 2.9883-3 1.6602 0 3 1.3398 3 3l0.003907 151.42c0 1.1719-0.67969 2.2383-1.7383 2.7305l-83.711 38.57c-0.39844 0.17578-0.82031 0.26953-1.2617 0.26953z"/>
  <path d="m26.012 139.15c-1.1719 0-2.2383-0.69141-2.7305-1.75-0.69141-1.5-0.03125-3.2891 1.4688-3.9805l193.38-88.859c0.39844-0.17969 0.82031-0.26953 1.2617-0.26953h0.050781l137.16 2.6992c0.80078 0.019531 1.5508 0.33984 2.1016 0.92188 0.55859 0.57812 0.85156 1.3398 0.83984 2.1406-0.039063 1.6211-1.3789 2.9414-3 2.9414h-0.0625l-136.47-2.6914-192.75 88.57c-0.40234 0.1875-0.82031 0.27734-1.25 0.27734zm446.87-83.867h-0.0625l-76.352-1.5c-1.6406-0.039062-2.9297-1.3516-2.9375-2.9883v-0.070313c0.027344-1.6484 1.4102-2.9805 3.0586-2.9414l76.34 1.5c1.6602 0.039062 2.9805 1.4102 2.9492 3.0586-0.035156 1.6211-1.375 2.9414-2.9961 2.9414zm-96.34-1.9023h-0.0625c-0.80859-0.011718-1.5508-0.33984-2.1094-0.92188-0.55078-0.57812-0.85156-1.3398-0.83984-2.1406 0.039062-1.6211 1.3789-2.9414 3-2.9414h0.058594c0.80859 0.019531 1.5508 0.35156 2.1094 0.92188 0.55078 0.57812 0.85156 1.3398 0.82813 2.1406-0.023438 1.6211-1.3633 2.9414-2.9844 2.9414z"/>
 </g>
</svg>
