<?xml version="1.0" encoding="UTF-8"?>
<svg width="512pt" height="512pt" version="1.1" viewBox="0 0 512 512" xmlns="http://www.w3.org/2000/svg">
 <g>
  <path d="m136.54 51.199c-47.137 0-85.336 38.199-85.336 85.336 0 47.133 38.199 85.336 85.336 85.336 47.113 0 85.336-38.223 85.336-85.336-0.007813-47.121-38.227-85.336-85.336-85.336zm0 136.54c-28.289 0-51.199-22.918-51.199-51.199 0-28.289 22.91-51.199 51.199-51.199 28.281 0 51.199 22.91 51.199 51.199 0 28.281-22.918 51.199-51.199 51.199z"/>
  <path d="m128.93 322.02 193.08-193.08 24.137 24.137-193.08 193.08z"/>
  <path d="m153.07 394.4 241.36-241.36 24.141 24.141-241.36 241.36z"/>
  <path d="m187.73 460.8h273.07v-273.07zm238.94-34.129h-156.54l156.54-156.51z"/>
 </g>
</svg>
