<?xml version="1.0" encoding="UTF-8"?>
<svg width="512pt" height="512pt" version="1.1" viewBox="0 0 512 512" xmlns="http://www.w3.org/2000/svg">
 <g>
  <path d="m257.3 25.602v27.547-0.003907c-53.777 0.074219-105.33 21.469-143.36 59.496s-59.422 89.582-59.496 143.36h-27.543v-230.4z"/>
  <path d="m257.3 78.746v133.12c-11.699 0.015624-22.914 4.6719-31.188 12.945-8.2734 8.2734-12.93 19.488-12.945 31.188h-133.12c0.050781-46.996 18.742-92.051 51.973-125.28 33.23-33.227 78.285-51.922 125.28-51.973z"/>
  <path d="m434.55 257.02c-0.32813 46.637-19.004 91.27-51.98 124.25-32.98 32.977-77.613 51.652-124.25 51.98v-133.12c11.34-0.29297 22.137-4.9297 30.156-12.953 8.0234-8.0195 12.66-18.816 12.953-30.156z"/>
  <path d="m488.72 257.02v230.4h-230.4v-28.566c53.422-0.35156 104.55-21.727 142.33-59.5 37.773-37.777 59.148-88.91 59.5-142.33z"/>
  <path d="m257.3 53.145v25.602c46.996 0.050781 92.051 18.742 125.28 51.973s51.922 78.285 51.973 125.28v1.0234h25.602v-1.0234c-0.074219-53.777-21.469-105.33-59.496-143.36s-89.582-59.422-143.36-59.496z"/>
  <path d="m80.047 256h-25.602c0.074219 53.777 21.469 105.33 59.496 143.36s89.582 59.422 143.36 59.496h1.0234v-25.602h-1.0234c-46.996-0.050781-92.051-18.746-125.28-51.973-33.23-33.23-51.922-78.285-51.973-125.28z"/>
  <path d="m257.3 222c-12.148 0-23.371 6.4805-29.445 17s-6.0742 23.48 0 34 17.297 17 29.445 17c0.17188 0.015625 0.33984 0.015625 0.51172 0 8.8359-0.13281 17.273-3.707 23.523-9.957 6.2461-6.2539 9.8125-14.691 9.9414-23.531 0.03125-0.16797 0.046875-0.33984 0.050781-0.51172-0.007813-9.0195-3.5977-17.668-9.9805-24.043-6.3789-6.375-15.027-9.957-24.047-9.957zm21.504 34.504v-0.003906c-0.14844 5.5234-2.4062 10.781-6.3164 14.688-3.9062 3.9102-9.1641 6.168-14.688 6.3164h-0.51172c-5.7031 0-11.172-2.2656-15.203-6.2969-4.0352-4.0352-6.3008-9.5039-6.3008-15.207s2.2656-11.172 6.3008-15.207c4.0312-4.0312 9.5-6.2969 15.203-6.2969 5.7031 0 11.176 2.2656 15.207 6.2969 4.0312 4.0352 6.2969 9.5039 6.2969 15.207z"/>
  <path d="m260.82 250.16 2.3281 2.3281c1.9414 1.9414 1.5742 5.4531 0 7.0234l-2.3281 2.3281c-1.9414 1.9414-5.0859 1.9414-7.0234 0l-2.3281-2.3281c-1.9414-1.9414-1.5742-5.4531 0-7.0234l2.3281-2.3281c1.9414-1.9414 5.0859-1.9414 7.0234 0z"/>
  <path d="m246.13 256c0 4.4648-6.6953 4.4648-6.6953 0s6.6953-4.4648 6.6953 0"/>
  <path d="m275.33 256c0 4.4648-6.6953 4.4648-6.6953 0s6.6953-4.4648 6.6953 0"/>
  <path d="m260.73 241.4c0 4.4648-6.6953 4.4648-6.6953 0s6.6953-4.4648 6.6953 0"/>
  <path d="m260.73 270.6c0 4.4648-6.6953 4.4648-6.6953 0s6.6953-4.4648 6.6953 0"/>
 </g>
</svg>
