<?xml version="1.0" encoding="UTF-8"?>
<svg width="512pt" height="512pt" version="1.1" viewBox="0 0 512 512" xmlns="http://www.w3.org/2000/svg">
 <g>
  <path d="m385.54 283.14h-51.199c0-44.031-35.84-82.434-76.801-82.434-40.961 0-76.801 38.398-76.801 82.434h-51.199c0-72.703 58.879-133.63 128-133.63s128 60.93 128 133.63z"/>
  <path d="m486.4 282.62h-51.199c0-98.305-79.871-178.18-177.66-178.18-97.793 0-178.18 79.871-178.18 178.18h-51.199c0-126.46 102.91-229.38 229.38-229.38 126.46-0.003906 228.86 102.91 228.86 229.38z"/>
  <path d="m257.54 460.29c-98.305 0-178.18-79.871-178.18-178.18h51.199c0 69.633 56.832 126.98 126.98 126.98 70.145 0 126.46-56.832 126.46-126.46h51.199c0 97.789-79.871 177.66-177.66 177.66z"/>
  <path d="m257.54 360.45c-43.008 0-78.336-35.328-78.336-78.336h51.199c0 14.848 12.289 27.137 27.137 27.137s27.137-12.289 27.137-27.137h51.199c0 43.008-35.328 78.336-78.336 78.336z"/>
 </g>
</svg>
