<?xml version="1.0" encoding="UTF-8"?>
<svg width="512pt" height="512pt" version="1.1" viewBox="0 0 512 512" xmlns="http://www.w3.org/2000/svg">
 <path d="m256 42.668c-117.62 0-213.33 95.695-213.33 213.33s95.707 213.33 213.33 213.33 213.33-95.699 213.33-213.33c0-117.64-95.707-213.33-213.33-213.33zm85.332 170.66h79.715c3.5391 13.668 5.6211 27.914 5.6211 42.668s-2.0781 29-5.6172 42.668h-79.719zm62.242-42.664h-62.242v-62.242c25.789 14.969 47.273 36.453 62.242 62.242zm-318.24 85.332c0-14.754 2.0781-29 5.6172-42.668h79.719v85.332l-79.719 0.003907c-3.5352-13.668-5.6172-27.914-5.6172-42.668zm85.336-147.57v62.242h-62.242c14.969-25.789 36.453-47.273 62.242-62.242zm-62.242 232.91h62.242v62.242c-25.789-14.969-47.273-36.453-62.242-62.242zm104.91 79.719v-330.1c13.668-3.5352 27.914-5.6172 42.668-5.6172s29 2.0781 42.668 5.6172v330.1c-13.668 3.5391-27.914 5.6211-42.668 5.6211s-29-2.082-42.668-5.6172zm128-17.477v-62.242h62.242c-14.969 25.789-36.453 47.273-62.242 62.242z"/>
</svg>
