<?xml version="1.0" encoding="UTF-8"?>
<svg width="512pt" height="512pt" version="1.1" viewBox="0 0 512 512" xmlns="http://www.w3.org/2000/svg">
 <g>
  <path d="m256 372.91c-76.684 0-149.07-41.992-198.59-115.21-0.6875-1.0156-0.6875-2.3477 0-3.3594 5.2188-7.7148 10.789-15.219 16.559-22.297 1.0469-1.2852 2.9375-1.4766 4.2227-0.42969s1.4766 2.9375 0.42969 4.2227c-5.2383 6.4258-10.312 13.207-15.094 20.184 48.352 70.5 118.4 110.89 192.47 110.89s144.12-40.395 192.47-110.89c-48.332-70.504-118.38-110.9-192.47-110.9-51.301 0-100.73 19.117-142.93 55.285-1.2578 1.0781-3.1523 0.93359-4.2305-0.32422-1.0781-1.2578-0.93359-3.1523 0.32422-4.2305 43.312-37.113 94.086-56.73 146.84-56.73 76.703 0 149.09 41.992 198.59 115.21 0.6875 1.0156 0.6875 2.3477 0 3.3594-49.523 73.223-121.91 115.22-198.59 115.22z"/>
  <path d="m256 350.41c-52.051 0-94.395-42.344-94.395-94.395 0-24.188 9.1406-47.191 25.738-64.777 1.1367-1.2031 3.0352-1.2617 4.2422-0.12109 1.2031 1.1367 1.2617 3.0352 0.12109 4.2422-15.543 16.469-24.105 38.012-24.105 60.66 0 48.738 39.652 88.395 88.395 88.395 48.742 0 88.395-39.652 88.395-88.395 0.003906-48.742-39.652-88.395-88.391-88.395-7.9336 0-15.797 1.0508-23.375 3.125-1.5977 0.4375-3.2461-0.50391-3.6836-2.1016-0.4375-1.5977 0.50391-3.2461 2.1016-3.6836 8.0938-2.2148 16.488-3.3359 24.957-3.3359 52.051 0 94.395 42.344 94.395 94.395 0 52.043-42.344 94.387-94.395 94.387z"/>
  <path d="m207.5 150.86c-1.6562 0-3-1.3438-3-3v-5.8594l-17.27-17.293-26.465-26.438c-0.5625-0.5625-0.87891-1.3242-0.87891-2.1211v-53.359c0-1.6562 1.3438-3 3-3s3 1.3438 3 3v52.109l25.59 25.562 18.148 18.176c0.5625 0.5625 0.87891 1.3242 0.87891 2.1211v7.1016c-0.003906 1.6602-1.3477 3-3.0039 3z"/>
  <path d="m233.55 146.34c-1.6562 0-3-1.3438-3-3v-7.7734l-44.07-44.066c-0.5625-0.5625-0.87891-1.3242-0.87891-2.1211v-10.188c0-1.6562 1.3438-3 3-3s3 1.3438 3 3v8.9414l44.07 44.066c0.5625 0.5625 0.87891 1.3242 0.87891 2.1211v9.0156c0 1.6602-1.3438 3.0039-3 3.0039z"/>
  <path d="m199.32 103.09c-0.76953 0-1.5352-0.29297-2.1211-0.87891-1.1719-1.1719-1.1719-3.0703 0-4.2422l17.684-17.684v-22.148c0-1.6562 1.3438-3 3-3s3 1.3438 3 3v23.391c0 0.79687-0.31641 1.5586-0.87891 2.1211l-18.562 18.562c-0.58594 0.58203-1.3555 0.87891-2.1211 0.87891z"/>
  <path d="m255.7 145.12c-1.6562 0-3-1.3438-3-3v-95.75c0-1.6562 1.3438-3 3-3s3 1.3438 3 3v95.75c0 1.6562-1.3438 3-3 3z"/>
  <path d="m256.05 122.34c-0.76953 0-1.5352-0.29297-2.1211-0.87891l-18.922-18.922c-0.5625-0.5625-0.87891-1.3242-0.87891-2.1211v-37.457c0-1.6562 1.3438-3 3-3s3 1.3438 3 3v36.211l18.043 18.043c1.1719 1.1719 1.1719 3.0703 0 4.2422-0.58594 0.58984-1.3516 0.88281-2.1211 0.88281z"/>
  <path d="m162.89 45.789c-6.2734 0-11.383-5.1055-11.383-11.379 0-6.2891 5.1055-11.406 11.383-11.406 6.2891 0 11.406 5.1172 11.406 11.406 0 6.2734-5.1172 11.379-11.406 11.379zm0-16.785c-2.9688 0-5.3828 2.4258-5.3828 5.4062 0 2.9648 2.4141 5.3789 5.3828 5.3789 2.9805 0 5.4062-2.4141 5.4062-5.3789 0-2.9805-2.4258-5.4062-5.4062-5.4062z"/>
  <path d="m217.88 61.16c-6.2891 0-11.406-5.1172-11.406-11.406 0-6.2891 5.1172-11.406 11.406-11.406 6.2734 0 11.379 5.1172 11.379 11.406 0 6.2891-5.1055 11.406-11.379 11.406zm0-16.812c-2.9805 0-5.4062 2.4258-5.4062 5.4062 0 2.9805 2.4258 5.4062 5.4062 5.4062 2.9648 0 5.3789-2.4258 5.3789-5.4062 0-2.9805-2.4141-5.4062-5.3789-5.4062z"/>
  <path d="m304.5 150.86c-1.6562 0-3-1.3438-3-3v-7.1016c0-0.79687 0.31641-1.5586 0.87891-2.1211l18.145-18.172 25.594-25.566v-52.109c0-1.6562 1.3438-3 3-3s3 1.3438 3 3v53.355c0 0.79688-0.31641 1.5586-0.87891 2.1211l-26.469 26.441-17.27 17.293v5.8594c0 1.6602-1.3398 3-3 3z"/>
  <path d="m278.45 146.34c-1.6562 0-3-1.3438-3-3v-9.0156c0-0.79688 0.31641-1.5586 0.87891-2.1211l44.098-44.066v-8.9414c0-1.6562 1.3438-3 3-3s3 1.3438 3 3v10.184c0 0.79688-0.31641 1.5586-0.87891 2.1211l-44.098 44.066v7.7734c0 1.6562-1.3438 3-3 3z"/>
  <path d="m312.71 103.09c-0.76953 0-1.5352-0.29297-2.1211-0.87891l-18.562-18.562c-0.5625-0.5625-0.87891-1.3242-0.87891-2.1211v-23.391c0-1.6562 1.3438-3 3-3s3 1.3438 3 3v22.148l17.684 17.684c1.1719 1.1719 1.1719 3.0703 0 4.2422-0.58594 0.58203-1.3516 0.87891-2.1211 0.87891z"/>
  <path d="m349.11 45.789c-6.2891 0-11.406-5.1055-11.406-11.379 0-6.2891 5.1172-11.406 11.406-11.406 6.2734 0 11.383 5.1172 11.383 11.406-0.003906 6.2734-5.1055 11.379-11.383 11.379zm0-16.785c-2.9805 0-5.4062 2.4258-5.4062 5.4062 0 2.9648 2.4258 5.3789 5.4062 5.3789 2.9688 0 5.3828-2.4141 5.3828-5.3789-0.003906-2.9805-2.418-5.4062-5.3828-5.4062z"/>
  <path d="m294.15 61.16c-6.2891 0-11.406-5.1172-11.406-11.406 0-6.2891 5.1172-11.406 11.406-11.406 6.2734 0 11.379 5.1172 11.379 11.406 0 6.2891-5.1016 11.406-11.379 11.406zm0-16.812c-2.9805 0-5.4062 2.4258-5.4062 5.4062 0 2.9805 2.4258 5.4062 5.4062 5.4062 2.9648 0 5.3789-2.4258 5.3789-5.4062 0-2.9805-2.4102-5.4062-5.3789-5.4062z"/>
  <path d="m162.89 472.21c-1.6562 0-3-1.3438-3-3v-53.328c0-0.79687 0.31641-1.5586 0.87891-2.1211l43.734-43.734v-5.8594c0-1.6562 1.3438-3 3-3s3 1.3438 3 3v7.1016c0 0.79688-0.31641 1.5586-0.87891 2.1211l-43.734 43.734v52.086c0 1.6562-1.3438 3-3 3z"/>
  <path d="m188.61 435.81c-1.6562 0-3-1.3438-3-3v-10.152c0-0.79688 0.31641-1.5586 0.87891-2.1211l44.07-44.098v-7.7461c0-1.6562 1.3438-3 3-3s3 1.3438 3 3v8.9883c0 0.79687-0.31641 1.5586-0.87891 2.1211l-44.07 44.098v8.9102c0 1.6562-1.3438 3-3 3z"/>
  <path d="m217.88 456.87c-1.6562 0-3-1.3438-3-3v-22.121l-17.684-17.684c-1.1719-1.1719-1.1719-3.0703 0-4.2422 1.1719-1.1719 3.0703-1.1719 4.2422 0l18.562 18.562c0.5625 0.5625 0.87891 1.3242 0.87891 2.1211v23.363c0 1.6562-1.3438 3-3 3z"/>
  <path d="m255.7 468.66c-1.6562 0-3-1.3438-3-3v-95.75c0-1.6562 1.3438-3 3-3s3 1.3438 3 3v95.75c0 1.6562-1.3438 3-3 3z"/>
  <path d="m237.13 452.07c-1.6562 0-3-1.3438-3-3v-37.484c0-0.79688 0.31641-1.5586 0.87891-2.1211l18.922-18.922c1.1719-1.1719 3.0703-1.1719 4.2422 0 1.1719 1.1719 1.1719 3.0703 0 4.2422l-18.043 18.043v36.242c0 1.6562-1.3438 3-3 3z"/>
  <path d="m162.89 489c-6.2734 0-11.383-5.1055-11.383-11.379 0-6.2891 5.1055-11.406 11.383-11.406 6.2891 0 11.406 5.1172 11.406 11.406 0 6.2734-5.1172 11.379-11.406 11.379zm0-16.785c-2.9688 0-5.3828 2.4258-5.3828 5.4062 0 2.9648 2.4141 5.3789 5.3828 5.3789 2.9805 0 5.4062-2.4141 5.4062-5.3789 0-2.9805-2.4258-5.4062-5.4062-5.4062z"/>
  <path d="m217.88 473.65c-6.2891 0-11.406-5.1055-11.406-11.379 0-6.2891 5.1172-11.406 11.406-11.406 6.2734 0 11.379 5.1172 11.379 11.406 0 6.2734-5.1055 11.379-11.379 11.379zm0-16.785c-2.9805 0-5.4062 2.4258-5.4062 5.4062 0 2.9648 2.4258 5.3789 5.4062 5.3789 2.9648 0 5.3789-2.4141 5.3789-5.3789 0-2.9805-2.4141-5.4062-5.3789-5.4062z"/>
  <path d="m349.11 472.21c-1.6562 0-3-1.3438-3-3v-52.086l-43.734-43.734c-0.5625-0.5625-0.87891-1.3242-0.87891-2.1211v-7.1016c0-1.6562 1.3438-3 3-3s3 1.3438 3 3v5.8594l43.734 43.738c0.5625 0.5625 0.87891 1.3242 0.87891 2.1211v53.328c0 1.6523-1.3438 2.9961-3 2.9961z"/>
  <path d="m323.42 435.81c-1.6562 0-3-1.3438-3-3v-8.9102l-44.098-44.098c-0.5625-0.5625-0.87891-1.3242-0.87891-2.1211v-8.9883c0-1.6562 1.3438-3 3-3s3 1.3438 3 3v7.7461l44.098 44.098c0.5625 0.5625 0.87891 1.3242 0.87891 2.1211v10.152c0 1.6562-1.3438 3-3 3z"/>
  <path d="m294.15 456.87c-1.6562 0-3-1.3438-3-3v-23.363c0-0.79688 0.31641-1.5586 0.87891-2.1211l18.562-18.562c1.1719-1.1719 3.0703-1.1719 4.2422 0 1.1719 1.1719 1.1719 3.0703 0 4.2422l-17.684 17.684v22.121c0 1.6562-1.3398 3-3 3z"/>
  <path d="m349.11 489c-6.2891 0-11.406-5.1055-11.406-11.379 0-6.2891 5.1172-11.406 11.406-11.406 6.2734 0 11.383 5.1172 11.383 11.406-0.003906 6.2734-5.1055 11.379-11.383 11.379zm0-16.785c-2.9805 0-5.4062 2.4258-5.4062 5.4062 0 2.9648 2.4258 5.3789 5.4062 5.3789 2.9688 0 5.3828-2.4141 5.3828-5.3789-0.003906-2.9805-2.418-5.4062-5.3828-5.4062z"/>
  <path d="m294.15 473.65c-6.2891 0-11.406-5.1055-11.406-11.379 0-6.2891 5.1172-11.406 11.406-11.406 6.2734 0 11.379 5.1172 11.379 11.406 0 6.2734-5.1016 11.379-11.379 11.379zm0-16.785c-2.9805 0-5.4062 2.4258-5.4062 5.4062 0 2.9648 2.4258 5.3789 5.4062 5.3789 2.9648 0 5.3789-2.4141 5.3789-5.3789 0-2.9805-2.4102-5.4062-5.3789-5.4062z"/>
  <path d="m256 259.02c-0.76953 0-1.5352-0.29297-2.1211-0.87891l-188.98-188.98c-1.1719-1.1719-1.1719-3.0703 0-4.2422s3.0703-1.1719 4.2422 0l188.97 188.98c1.1719 1.1719 1.1719 3.0703 0 4.2422-0.58203 0.58594-1.3516 0.87891-2.1172 0.87891z"/>
  <path d="m256 259.02c-0.76953 0-1.5391-0.29688-2.125-0.88281-1.168-1.1758-1.1641-3.0742 0.007812-4.2422l189.39-188.59c1.1758-1.168 3.0742-1.1641 4.2422 0.007813 1.168 1.1758 1.1641 3.0742-0.007813 4.2422l-189.39 188.59c-0.58594 0.58203-1.3516 0.875-2.1172 0.875z"/>
  <path d="m67.027 447.99c-0.76953 0-1.5352-0.29297-2.1211-0.87891-1.1719-1.1719-1.1719-3.0703 0-4.2422l188.97-188.98c1.1719-1.1719 3.0703-1.1719 4.2422 0s1.1719 3.0703 0 4.2422l-188.97 188.98c-0.58594 0.58594-1.3555 0.87891-2.1211 0.87891z"/>
  <path d="m444.98 447.99c-0.76953 0-1.5352-0.29297-2.1211-0.87891l-188.98-188.97c-1.1719-1.1719-1.1719-3.0703 0-4.2422s3.0703-1.1719 4.2422 0l188.98 188.98c1.1719 1.1719 1.1719 3.0703 0 4.2422-0.58594 0.58203-1.3555 0.875-2.1211 0.875z"/>
  <path d="m256 282.1c-14.383 0-26.086-11.699-26.086-26.086 0-14.379 11.703-26.082 26.086-26.082s26.086 11.699 26.086 26.086c0 14.383-11.703 26.082-26.086 26.082zm0-46.168c-11.074 0-20.086 9.0117-20.086 20.086s9.0117 20.086 20.086 20.086 20.086-9.0117 20.086-20.086-9.0117-20.086-20.086-20.086z"/>
  <path d="m450.91 72.48c-6.2734 0-11.383-5.1172-11.383-11.406 0-6.2734 5.1055-11.379 11.383-11.379 6.2891 0 11.406 5.1055 11.406 11.379 0 6.2891-5.1172 11.406-11.406 11.406zm0-16.785c-2.9688 0-5.3828 2.4141-5.3828 5.3789 0 2.9805 2.4141 5.4062 5.3828 5.4062 2.9805 0 5.4062-2.4258 5.4062-5.4062 0-2.9648-2.4219-5.3789-5.4062-5.3789z"/>
  <path d="m61.09 72.48c-6.2891 0-11.406-5.1172-11.406-11.406 0-6.2734 5.1172-11.379 11.406-11.379 6.2734 0 11.379 5.1055 11.379 11.379 0 6.2891-5.1055 11.406-11.379 11.406zm0-16.785c-2.9805 0-5.4062 2.4141-5.4062 5.3789 0 2.9805 2.4258 5.4062 5.4062 5.4062 2.9648 0 5.3789-2.4258 5.3789-5.4062 0-2.9648-2.4141-5.3789-5.3789-5.3789z"/>
  <path d="m61.09 462.3c-6.2891 0-11.406-5.1055-11.406-11.379 0-6.2891 5.1172-11.406 11.406-11.406 6.2734 0 11.379 5.1172 11.379 11.406 0 6.2734-5.1055 11.379-11.379 11.379zm0-16.785c-2.9805 0-5.4062 2.4258-5.4062 5.4062 0 2.9648 2.4258 5.3789 5.4062 5.3789 2.9648 0 5.3789-2.4141 5.3789-5.3789 0-2.9805-2.4141-5.4062-5.3789-5.4062z"/>
  <path d="m450.91 462.33c-6.2734 0-11.383-5.1172-11.383-11.406 0-6.2891 5.1055-11.406 11.383-11.406 6.2891 0 11.406 5.1172 11.406 11.406 0 6.2891-5.1172 11.406-11.406 11.406zm0-16.812c-2.9688 0-5.3828 2.4258-5.3828 5.4062s2.4141 5.4062 5.3828 5.4062c2.9805 0 5.4062-2.4258 5.4062-5.4062s-2.4219-5.4062-5.4062-5.4062z"/>
  <path d="m159.8 349.57h-0.019531-59.152c-1.6562 0-3-1.3438-3-3v-42.172c0-1.1992 0.71484-2.2852 1.8164-2.7578 1.1016-0.47266 2.3828-0.24219 3.25 0.58594 17.875 17.023 37.469 31.008 58.242 41.57 1.0938 0.44922 1.8633 1.5234 1.8633 2.7773 0 1.6523-1.3438 2.9961-3 2.9961zm-56.172-6h44.277c-15.562-8.9102-30.398-19.73-44.277-32.293z"/>
  <path d="m411.37 349.57h-59.152c-1.3867 0-2.5938-0.95312-2.918-2.3047-0.32031-1.3516 0.32422-2.7461 1.5625-3.3711 20.848-10.57 40.508-24.59 58.441-41.672 0.86719-0.82422 2.1484-1.0586 3.25-0.58594 1.1055 0.47266 1.8164 1.5586 1.8164 2.7578v42.172c0 1.6602-1.3398 3.0039-3 3.0039zm-47.273-6h44.277l-0.003906-32.293c-13.875 12.562-28.711 23.383-44.273 32.293z"/>
  <path d="m411.38 210.62c-0.75781 0-1.5-0.28516-2.0703-0.82812-17.996-17.137-37.656-31.156-58.438-41.668-1.2383-0.62891-1.8867-2.0234-1.5625-3.375 0.32031-1.3516 1.5273-2.3047 2.918-2.3047h59.152c1.6562 0 3 1.3438 3 3v42.172c0 1.1992-0.71484 2.2852-1.8164 2.7578-0.38281 0.16797-0.78516 0.24609-1.1836 0.24609zm-47.262-42.172c15.52 8.8789 30.352 19.699 44.258 32.293v-32.293z"/>
  <path d="m100.62 210.62c-0.39844 0-0.80078-0.078125-1.1797-0.24219-1.1016-0.47266-1.8164-1.5586-1.8164-2.7578v-42.172c0-1.6562 1.3438-3 3-3h59.18c1.3906 0 2.5977 0.95312 2.918 2.3047 0.32031 1.3516-0.32422 2.7461-1.5664 3.3711-20.789 10.504-40.461 24.52-58.465 41.668-0.57031 0.54297-1.3125 0.82812-2.0703 0.82812zm3-42.172v32.293c13.914-12.598 28.75-23.418 44.277-32.293z"/>
 </g>
</svg>
