<?xml version="1.0" encoding="UTF-8"?>
<svg width="512pt" height="512pt" version="1.1" viewBox="0 0 512 512" xmlns="http://www.w3.org/2000/svg">
 <g>
  <path d="m331 431h-240c-5.5234 0-10-4.4766-10-10v-240c0-5.5234 4.4766-10 10-10h20c5.5234 0 10 4.4766 10 10s-4.4766 10-10 10h-10v220h220v-220h-160c-5.5234 0-10-4.4766-10-10s4.4766-10 10-10h170c5.5234 0 10 4.4766 10 10v240c0 5.5234-4.4766 10-10 10z"/>
  <path d="m421 341h-240c-5.5234 0-10-4.4766-10-10v-240c0-5.5234 4.4766-10 10-10h20c5.5234 0 10 4.4766 10 10s-4.4766 10-10 10h-10v220h220v-220h-160c-5.5234 0-10-4.4766-10-10s4.4766-10 10-10h170c5.5234 0 10 4.4766 10 10v240c0 5.5234-4.4766 10-10 10z"/>
  <path d="m91 431c-2.5586 0-5.1172-0.97656-7.0703-2.9297-3.9062-3.9062-3.9062-10.238 0-14.145l90-90c3.9062-3.9023 10.238-3.9023 14.145 0 3.9062 3.9062 3.9062 10.238 0 14.145l-90 90c-1.957 1.9531-4.5156 2.9297-7.0742 2.9297z"/>
  <path d="m331 191c-2.5586 0-5.1172-0.97656-7.0703-2.9297-3.9062-3.9062-3.9062-10.238 0-14.145l90-90c3.9062-3.9062 10.234-3.9062 14.145 0 3.9062 3.9062 3.9062 10.238 0 14.145l-90 90c-1.957 1.9531-4.5156 2.9297-7.0742 2.9297z"/>
  <path d="m91 191c-2.5586 0-5.1172-0.97656-7.0703-2.9297-3.9062-3.9062-3.9062-10.238 0-14.145l90-90c3.9062-3.9062 10.238-3.9062 14.145 0s3.9062 10.238 0 14.145l-90 90c-1.957 1.9531-4.5156 2.9297-7.0742 2.9297z"/>
  <path d="m331 431c-2.5586 0-5.1172-0.97656-7.0703-2.9297-3.9062-3.9062-3.9062-10.238 0-14.145l90-90c3.9062-3.9023 10.234-3.9023 14.145 0 3.9062 3.9062 3.9062 10.238 0 14.145l-90 90c-1.957 1.9531-4.5156 2.9297-7.0742 2.9297z"/>
  <path d="m231 111h20v20h-20z"/>
  <path d="m231 141h20v20h-20z"/>
  <path d="m231 201h20v20h-20z"/>
  <path d="m231 231h20v20h-20z"/>
  <path d="m201 261h20v20h-20z"/>
  <path d="m141 261h20v20h-20z"/>
  <path d="m111 261h20v20h-20z"/>
  <path d="m231 261h20v20h-20z"/>
  <path d="m231 291h20v20h-20z"/>
  <path d="m231 351h20v20h-20z"/>
  <path d="m231 381h20v20h-20z"/>
  <path d="m261 261h20v20h-20z"/>
  <path d="m291 261h20v20h-20z"/>
  <path d="m351 261h20v20h-20z"/>
  <path d="m381 261h20v20h-20z"/>
 </g>
</svg>
