<?xml version="1.0" encoding="UTF-8"?>
<svg width="512pt" height="512pt" version="1.1" viewBox="0 0 512 512" xmlns="http://www.w3.org/2000/svg">
 <g>
  <path d="m450.32 395.12h-361.84c-1.6562 0-3-1.3438-3-3s1.3438-3 3-3h358.84l0.003906-135.16c0-1.6562 1.3438-3 3-3s3 1.3438 3 3v138.16c-0.003906 1.6562-1.3438 3-3.0039 3zm-398.63-13.207c-1.6562 0-3-1.3438-3-3v-276.32c0-1.6562 1.3438-3 3-3h398.64c1.6562 0 3 1.3438 3 3v101.36c0 1.6562-1.3438 3-3 3s-3-1.3438-3-3v-98.363h-392.64v273.32c0 1.6562-1.3438 3-3 3z"/>
  <path d="m486 370.99h-35.68c-1.6562 0-3-1.3438-3-3v-262.4h-57.766c-1.6562 0-3-1.3438-3-3s1.3438-3 3-3h60.766c1.6562 0 3 1.3438 3 3v262.4h29.68v-135.16c0-1.6562 1.3438-3 3-3s3 1.3438 3 3v138.16c0 1.6562-1.3438 3-3 3zm0-188.16c-1.6562 0-3-1.3438-3-3v-98.367h-392.64v18.121h249.19c1.6562 0 3 1.3438 3 3s-1.3438 3-3 3l-252.19 0.003906c-1.6562 0-3-1.3438-3-3v-24.125c0-1.6562 1.3438-3 3-3h398.64c1.6562 0 3 1.3438 3 3v101.36c0 1.6602-1.3438 3.0039-3 3.0039z"/>
  <path d="m155.55 295.46c-1.6562 0-3-1.3438-3-3v-68.188c0-1.6562 1.3438-3 3-3s3 1.3438 3 3v68.188c0 1.6562-1.3438 3-3 3z"/>
  <path d="m182.81 306.47c-1.6562 0-3-1.3438-3-3v-90.207c0-1.6562 1.3438-3 3-3s3 1.3438 3 3v90.207c0 1.6562-1.3438 3-3 3z"/>
  <path d="m210.11 322.2c-1.6562 0-3-1.3438-3-3v-121.68c0-1.6562 1.3438-3 3-3s3 1.3438 3 3v121.68c0 1.6562-1.3438 3-3 3z"/>
  <path d="m237.37 334.8c-1.6562 0-3-1.3438-3-3v-146.87c0-1.6562 1.3438-3 3-3s3 1.3438 3 3v146.86c0 1.6602-1.3438 3.0039-3 3.0039z"/>
  <path d="m264.63 352.11c-1.6562 0-3-1.3438-3-3v-181.5c0-1.6562 1.3438-3 3-3s3 1.3438 3 3v181.5c0 1.6602-1.3438 3-3 3z"/>
  <path d="m291.93 308.57c-1.6562 0-3-1.3438-3-3v-94.414c0-1.6562 1.3438-3 3-3s3 1.3438 3 3v94.414c0 1.6562-1.3438 3-3 3z"/>
  <path d="m319.19 296.5c-1.6562 0-3-1.3438-3-3v-70.262c0-1.6562 1.3438-3 3-3s3 1.3438 3 3v70.262c0 1.6562-1.3438 3-3 3z"/>
  <path d="m346.48 283.38c-1.6562 0-3-1.3438-3-3v-44.039c0-1.6562 1.3438-3 3-3s3 1.3438 3 3v44.039c0 1.6562-1.3438 3-3 3z"/>
  <path d="m450.32 261.36h-398.63c-1.6562 0-3-1.3438-3-3s1.3438-3 3-3h398.64c1.6562 0 3 1.3438 3 3-0.003906 1.6562-1.3438 3-3.0039 3z"/>
  <path d="m450.32 143.35h-377.62c-1.6562 0-3-1.3438-3-3s1.3438-3 3-3h377.63c1.6562 0 3 1.3438 3 3-0.003906 1.6562-1.3438 3-3.0039 3z"/>
  <path d="m332 418.69h-223.33c-1.6562 0-3-1.3438-3-3s1.3438-3 3-3h223.33c1.6562 0 3 1.3438 3 3s-1.3438 3-3 3z"/>
  <path d="m434.61 418.69h-63.516c-1.6562 0-3-1.3438-3-3s1.3438-3 3-3h63.516c1.6562 0 3 1.3438 3 3s-1.3438 3-3 3z"/>
  <path d="m355.74 436.53h-143.94c-1.6562 0-3-1.3438-3-3s1.3438-3 3-3h143.94c1.6562 0 3 1.3438 3 3s-1.3438 3-3 3z"/>
  <path d="m93.316 436.53h-63.516c-1.6562 0-3-1.3438-3-3s1.3438-3 3-3h63.516c1.6562 0 3 1.3438 3 3s-1.3438 3-3 3z"/>
  <path d="m178.3 436.53h-28.957c-1.6562 0-3-1.3438-3-3s1.3438-3 3-3h28.957c1.6562 0 3 1.3438 3 3s-1.3438 3-3 3z"/>
  <path d="m26.004 207.3c-1.6562 0-3-1.3438-3-3v-118.02c0-1.6562 1.3438-3 3-3h37.266c1.6562 0 3 1.3438 3 3s-1.3438 3-3 3h-34.266v115.02c0 1.6562-1.3438 3-3 3z"/>
 </g>
</svg>
