<?xml version="1.0" encoding="UTF-8"?>
<svg width="512pt" height="512pt" version="1.1" viewBox="0 0 512 512" xmlns="http://www.w3.org/2000/svg">
 <g>
  <path d="m466.53 454.28h-264.1c-1.6562 0-3-1.3438-3-3s1.3438-3 3-3h264.1c8.8438 0 16.039-7.1953 16.039-16.035v-206.01c0-1.6562 1.3438-3 3-3s3 1.3438 3 3v206c0 12.152-9.8867 22.039-22.039 22.039zm-314.1 0h-48.969c-12.152 0-22.039-9.8867-22.039-22.035v-363.04c0-12.152 9.8867-22.035 22.039-22.035l363.07-0.003906c12.152 0 22.039 9.8867 22.039 22.035v107.04c0 1.6562-1.3438 3-3 3s-3-1.3438-3-3v-107.03c0-8.8438-7.1953-16.035-16.039-16.035l-363.07-0.003906c-8.8438 0-16.039 7.1953-16.039 16.035v363.04c0 8.8438 7.1953 16.035 16.039 16.035h48.969c1.6562 0 3 1.3438 3 3 0 1.6602-1.3398 3.0039-3 3.0039z"/>
  <path d="m338.39 489h-264.81c-1.6562 0-3-1.3438-3-3s1.3438-3 3-3h264.81c1.6562 0 3 1.3438 3 3s-1.3438 3-3 3z"/>
  <path d="m411.89 472.88h-183.24c-1.6562 0-3-1.3438-3-3s1.3438-3 3-3h183.24c1.6562 0 3 1.3438 3 3s-1.3438 3-3 3z"/>
  <path d="m453.56 472.88h-22.898c-1.6562 0-3-1.3438-3-3s1.3438-3 3-3h22.898c1.6562 0 3 1.3438 3 3s-1.3398 3-3 3z"/>
  <path d="m150 473.38h-115.34c-1.6562 0-3-1.3438-3-3s1.3438-3 3-3h115.34c1.6562 0 3 1.3438 3 3 0.003906 1.6562-1.3398 3-2.9961 3z"/>
  <path d="m283.58 324.38c-40.605 0-73.641-33.035-73.641-73.641 0-40.621 33.035-73.668 73.641-73.668 40.621 0 73.672 33.047 73.672 73.668 0 40.605-33.051 73.641-73.672 73.641zm0-141.31c-37.297 0-67.641 30.355-67.641 67.668 0 37.297 30.344 67.641 67.641 67.641 37.312 0 67.672-30.344 67.672-67.641 0-37.312-30.359-67.668-67.672-67.668z"/>
  <path d="m354.25 253.74h-141.31c-1.6562 0-3-1.3438-3-3s1.3438-3 3-3h141.31c1.6562 0 3 1.3438 3 3 0.003906 1.6602-1.3398 3-2.9961 3z"/>
  <path d="m283.58 324.38c-1.6562 0-3-1.3438-3-3v-141.31c0-1.6562 1.3438-3 3-3s3 1.3438 3 3v141.31c0 1.6562-1.3438 3-3 3z"/>
  <path d="m283.76 221.03c-19.086 0-38.488-3.3086-57.664-9.8281-1.5664-0.53516-2.4062-2.2383-1.875-3.8086 0.53516-1.5703 2.2383-2.4062 3.8086-1.875 18.551 6.3125 37.301 9.5117 55.73 9.5117 18.426 0 37.062-3.1992 55.398-9.5078 1.5703-0.53906 3.2734 0.29687 3.8125 1.8594 0.53906 1.5664-0.29297 3.2734-1.8594 3.8125-18.965 6.5273-38.262 9.8359-57.352 9.8359z"/>
  <path d="m340.13 295.82c-0.32422 0-0.65234-0.054688-0.97266-0.16406-18.359-6.3008-37.012-9.4961-55.434-9.4961-18.43 0-37.168 3.1953-55.699 9.5-1.5703 0.53516-3.2734-0.30469-3.8086-1.875-0.53125-1.5664 0.30469-3.2734 1.875-3.8047 19.152-6.5156 38.543-9.8203 57.629-9.8203 19.09 0 38.395 3.3047 57.383 9.8203 1.5664 0.53906 2.4023 2.2461 1.8633 3.8125-0.42578 1.2461-1.5898 2.0273-2.8359 2.0273z"/>
  <path d="m283.58 324.38c-22.059 0-39.336-32.348-39.336-73.641 0-41.309 17.277-73.668 39.336-73.668 22.059 0 39.336 32.359 39.336 73.668 0 41.293-17.277 73.641-39.336 73.641zm0-141.31c-18.07 0-33.336 30.988-33.336 67.668 0 36.664 15.266 67.641 33.336 67.641 18.07 0 33.336-30.977 33.336-67.641 0-36.68-15.266-67.668-33.336-67.668z"/>
  <path d="m283.58 342.56c-16.883 0-33.359-4.6055-47.652-13.316-0.70313-0.42969-1.1992-1.1289-1.3711-1.9336s-0.003906-1.6484 0.46094-2.3242c0.67969-0.98438 1.0352-2.1328 1.0352-3.3125 0-3.2539-2.6602-5.8984-5.9297-5.8984-1.7656 0-3.418 0.76562-4.5312 2.1016-0.52734 0.63281-1.2891 1.0195-2.1094 1.0742s-1.6289-0.23438-2.2344-0.79297c-18.738-17.355-29.488-41.93-29.488-67.418 0-11.473 2.0703-22.613 6.1562-33.121 0.30078-0.76953 0.90234-1.3828 1.668-1.6914 0.76562-0.30859 1.625-0.29297 2.375 0.054687 0.70312 0.32422 1.5273 0.49219 2.375 0.49219 3.2539 0 5.8984-2.6484 5.8984-5.8984 0-2.1289-1.1367-4.0977-2.9688-5.1445-0.71484-0.40625-1.2305-1.0898-1.4258-1.8906-0.19531-0.80078-0.054688-1.6445 0.39062-2.3359 0.52734-0.82422 1.0664-1.6367 1.6211-2.4414 0.9375-1.3633 2.8086-1.7109 4.1719-0.76953 1.3633 0.9375 1.7109 2.8086 0.76953 4.1719-0.003907 0.003906-0.003907 0.007812-0.007813 0.011719 2.1758 2.2031 3.4453 5.2148 3.4453 8.3984 0 6.5625-5.3398 11.898-11.898 11.898-0.59766 0-1.1875-0.042968-1.7734-0.12891-3.1875 9.0586-4.8047 18.598-4.8047 28.398 0 22.914 9.2969 45.039 25.594 61.129 1.9609-1.3555 4.3125-2.0977 6.7695-2.0977 6.5781 0 11.93 5.3398 11.93 11.898 0 1.3164-0.21875 2.6094-0.64062 3.8359 12.789 7.2383 27.309 11.055 42.168 11.055 47.34 0 85.852-38.5 85.852-85.82 0-6.9805-0.83984-13.895-2.4961-20.594-0.21094 0.011718-0.42188 0.015625-0.63672 0.015625-6.5625 0-11.898-5.3398-11.898-11.898 0-3.5742 1.6172-6.918 4.293-9.1562-15.184-27.348-43.719-44.219-75.117-44.219-11.793 0-23.219 2.3516-33.957 6.9844-1.5234 0.65625-3.2852-0.042968-3.9414-1.5664-0.65625-1.5195 0.042969-3.2852 1.5664-3.9414 11.496-4.9609 23.719-7.4766 36.336-7.4766 34.562 0 65.883 19.109 81.734 49.867 0.375 0.73047 0.4375 1.582 0.16797 2.3555-0.26953 0.77344-0.84375 1.4062-1.5898 1.7461-2.1211 0.96875-3.4922 3.0898-3.4922 5.4062 0 3.2539 2.6445 5.8984 5.8984 5.8984 0.67578 0 1.3125-0.097657 1.8828-0.28906 0.77734-0.26172 1.6289-0.1875 2.3516 0.19531 0.72656 0.38281 1.2617 1.0469 1.4844 1.8359 2.2656 8.0352 3.4102 16.391 3.4102 24.832 0.011719 50.629-41.191 91.82-91.84 91.82z"/>
  <path d="m366.3 230.16c-6.5625 0-11.898-5.3398-11.898-11.898 0-6.5781 5.3359-11.93 11.898-11.93 6.5781 0 11.93 5.3516 11.93 11.93 0 6.5586-5.3516 11.898-11.93 11.898zm0-17.828c-3.2539 0-5.8984 2.6602-5.8984 5.9297 0 3.2539 2.6445 5.8984 5.8984 5.8984 3.2695 0 5.9297-2.6445 5.9297-5.8984 0-3.2695-2.6602-5.9297-5.9297-5.9297z"/>
  <path d="m204.34 222.47c-6.5781 0-11.93-5.3398-11.93-11.898 0-6.5781 5.3516-11.93 11.93-11.93 6.5625 0 11.898 5.3516 11.898 11.93 0 6.5586-5.3398 11.898-11.898 11.898zm0-17.828c-3.2695 0-5.9297 2.6602-5.9297 5.9297 0 3.2539 2.6602 5.8984 5.9297 5.8984 3.2539 0 5.8984-2.6484 5.8984-5.8984 0-3.2695-2.6484-5.9297-5.8984-5.9297z"/>
  <path d="m230.12 333.6c-6.5781 0-11.93-5.3516-11.93-11.93 0-6.5625 5.3516-11.898 11.93-11.898s11.93 5.3398 11.93 11.898c0 6.5781-5.3516 11.93-11.93 11.93zm0-17.828c-3.2695 0-5.9297 2.6445-5.9297 5.8984 0 3.2695 2.6602 5.9297 5.9297 5.9297s5.9297-2.6602 5.9297-5.9297c0-3.25-2.6602-5.8984-5.9297-5.8984z"/>
  <path d="m285 414.41c-1.6562 0-3-1.3438-3-3v-90.027c0-1.6562 1.3438-3 3-3s3 1.3438 3 3v90.027c0 1.6602-1.3398 3-3 3z"/>
  <path d="m355.99 454.28h-141.98c-1.6562 0-3-1.3438-3-3v-35.629c0-1.6562 1.3438-3 3-3h141.98c1.6562 0 3 1.3438 3 3v35.629c0 1.6562-1.3398 3-3 3zm-138.98-6h135.98v-29.629h-135.98z"/>
  <path d="m131.02 368.52h-46.594c-1.6562 0-3-1.3438-3-3v-177.24c0-1.6562 1.3438-3 3-3s3 1.3438 3 3v174.24h40.594v-223.57h-40.668c-0.30469 1.332-1.5 2.3281-2.9258 2.3281-1.6562 0-3-1.3438-3-3v-2.3281c0-1.6562 1.3438-3 3-3h46.594c1.6562 0 3 1.3438 3 3v229.57c0 1.6602-1.3438 3-3 3z"/>
  <path d="m485.04 368.52h-46.594c-1.6562 0-3-1.3438-3-3v-177.24c0-1.6562 1.3438-3 3-3s3 1.3438 3 3v174.24h40.594v-223.57h-40.668c-0.30469 1.332-1.5 2.3281-2.9258 2.3281-1.6562 0-3-1.3438-3-3v-2.3281c0-1.6562 1.3438-3 3-3h46.594c1.6562 0 3 1.3438 3 3v229.57c0 1.6602-1.3438 3-3 3z"/>
  <path d="m438.45 332.89h-46.59c-1.6562 0-3-1.3438-3-3s1.3438-3 3-3h43.59v-152.34h-43.59c-1.6562 0-3-1.3438-3-3s1.3438-3 3-3h46.59c1.6562 0 3 1.3438 3 3v158.34c0 1.6562-1.3438 2.9961-3 2.9961z"/>
  <path d="m177.61 332.89h-46.59c-1.6562 0-3-1.3438-3-3v-158.34c0-1.6562 1.3438-3 3-3h46.59c1.6562 0 3 1.3438 3 3s-1.3438 3-3 3h-43.59v152.34h43.59c1.6562 0 3 1.3438 3 3s-1.3438 2.9961-3 2.9961z"/>
  <path d="m176.02 434.95c-9.8125 0-17.793-7.9961-17.793-17.82 0-9.8125 7.9805-17.793 17.793-17.793 9.8281 0 17.824 7.9805 17.824 17.793 0 9.8242-7.9961 17.82-17.824 17.82zm0-29.617c-6.5039 0-11.793 5.2891-11.793 11.793 0 6.5195 5.2891 11.82 11.793 11.82 6.5195 0 11.824-5.3047 11.824-11.82 0-6.5-5.3047-11.793-11.824-11.793z"/>
  <path d="m127.69 434.95c-9.8125 0-17.797-7.9961-17.797-17.82 0-9.8125 7.9844-17.793 17.797-17.793 9.8281 0 17.824 7.9805 17.824 17.793 0.003906 9.8242-7.9922 17.82-17.824 17.82zm0-29.617c-6.5039 0-11.797 5.2891-11.797 11.793 0 6.5195 5.293 11.82 11.797 11.82 6.5195 0 11.824-5.3047 11.824-11.82 0.003906-6.5-5.3008-11.793-11.824-11.793z"/>
  <path d="m84.426 430.14h-38.957c-12.152 0-22.035-9.8867-22.035-22.039l-0.003906-363.07c0-12.152 9.8867-22.035 22.035-22.035h363.07c12.152 0 22.039 9.8867 22.039 22.035v5.1289c0 1.6562-1.3438 3-3 3h-101.9c-1.6562 0-3-1.3438-3-3s1.3438-3 3-3h98.902v-2.1289c0-8.8438-7.1953-16.035-16.039-16.035h-363.07c-8.8438 0-16.035 7.1953-16.035 16.035v363.07c0 8.8438 7.1953 16.039 16.035 16.039h35.961l-0.003907-7.043c0-1.6562 1.3438-3 3-3s3 1.3438 3 3v10.047c0 1.6562-1.3438 2.9961-3 2.9961zm0-60.043c-1.6562 0-3-1.3438-3-3v-297.89c0-12.152 9.8867-22.035 22.039-22.035l172.21-0.003906c1.6562 0 3 1.3438 3 3s-1.3438 3-3 3h-172.21c-8.8438 0-16.039 7.1953-16.039 16.035v297.9c0 1.6562-1.3438 3-3 3z"/>
 </g>
</svg>
