<?xml version="1.0" encoding="UTF-8"?>
<svg width="512pt" height="512pt" version="1.1" viewBox="0 0 512 512" xmlns="http://www.w3.org/2000/svg">
 <g>
  <path d="m256.01 312.44c-9.8008 0-19.309-1.9219-28.27-5.6992-8.6406-3.6602-16.41-8.8984-23.078-15.57-6.6719-6.6602-11.91-14.43-15.57-23.07-3.7891-8.9492-5.7109-18.461-5.7109-28.262 0-7.6484 1.1914-15.191 3.5312-22.41 0.39844-1.2383 1.5508-2.0703 2.8516-2.0703 0.30859 0 0.62109 0.050781 0.92969 0.14062 0.76172 0.25 1.3789 0.78125 1.7383 1.4883 0.37109 0.71875 0.42969 1.5312 0.17969 2.2891-2.1406 6.6211-3.2305 13.539-3.2305 20.559 0 17.781 6.9414 34.512 19.52 47.09 12.59 12.578 29.32 19.512 47.109 19.52 17.781-0.011718 34.512-6.9414 47.09-19.52 12.578-12.582 19.512-29.309 19.52-47.09-0.011719-17.789-6.9414-34.52-19.52-47.109-12.578-12.59-29.309-19.52-47.09-19.52-15.5 0-30.039 5.1719-42.039 14.941-0.53906 0.44141-1.2109 0.67969-1.8984 0.67969-0.89844 0-1.75-0.41016-2.3203-1.1094-0.44141-0.53906-0.67969-1.2188-0.67969-1.9102 0.011719-0.89844 0.41016-1.7305 1.1016-2.3008 0 0 0-0.011718 0.011719-0.011718l0.070312-0.058594c6.3281-5.1406 13.41-9.1484 21.059-11.922 7.8984-2.8594 16.219-4.3086 24.699-4.3086 9.8008 0 19.309 1.9219 28.262 5.7109 8.6406 3.6602 16.41 8.8984 23.078 15.57 6.6602 6.6719 11.898 14.43 15.562 23.078 3.7773 8.9609 5.7109 18.469 5.7109 28.27-0.011718 9.8008-1.9297 19.309-5.7109 28.262-3.6602 8.6406-8.8984 16.41-15.57 23.07-6.6602 6.6719-14.43 11.91-23.07 15.57-8.957 3.7852-18.469 5.7031-28.266 5.7031zm-57.453-108.96c-0.60156 0-1.1914-0.17969-1.6914-0.51953-1.3594-0.94141-1.7109-2.8086-0.76953-4.1797 0.55078-0.80859 1.4805-1.3008 2.4688-1.3008 0.60938 0 1.1914 0.17969 1.6992 0.53125 0.66016 0.44922 1.1016 1.1406 1.25 1.9219 0.14062 0.78906-0.03125 1.5898-0.48047 2.25 0 0 0 0.011718-0.011718 0.011718-0.55469 0.80469-1.4727 1.2852-2.4648 1.2852z"/>
  <path d="m390.27 416.89h-77.871c-1.6602 0-3-1.3398-3-3 0-1.6484 1.3398-3 3-3h74.98c0.71094-10.27 5.1211-19.949 12.43-27.25 7.3008-7.3086 16.98-11.719 27.25-12.43v-206.71c0-1.6484 1.3516-3 3-3 1.6602 0 3 1.3516 3 3v209.6c0 0.80078-0.30859 1.5625-0.87891 2.1289-0.55859 0.5625-1.3203 0.87109-2.1211 0.87109-9.8203 0-19.059 3.8281-26.012 10.781-6.9492 6.9492-10.77 16.188-10.781 26.012 0 0.80078-0.30859 1.5508-0.87109 2.1211-0.56641 0.5625-1.3242 0.875-2.125 0.875zm-97.871 0c-1.6484 0-3-1.3398-3-3 0-1.6484 1.3516-3 3-3 1.6484 0 3 1.3516 3 3 0 1.6602-1.3477 3-3 3zm-20 0h-150.67c-0.78906 0-1.5703-0.32031-2.1289-0.87891-0.55859-0.55859-0.87109-1.3281-0.87109-2.1211-0.011719-9.8203-3.8281-19.059-10.77-26.012-6.9492-6.9492-16.18-10.781-26-10.781-0.78125 0-1.5586-0.32031-2.1211-0.87109-0.55859-0.57031-0.87891-1.3398-0.87891-2.1289v-136.82c0-1.6484 1.3516-3 3-3 1.6602 0 3 1.3516 3 3v133.93c10.27 0.71094 19.949 5.1211 27.238 12.43 7.3008 7.3008 11.711 16.98 12.422 27.25h147.78c1.6484 0 3 1.3516 3 3v0.14844c-0.09375 1.6016-1.4023 2.8516-3.0039 2.8516zm-190.44-196.61c-1.6484 0-3-1.3398-3-3 0-1.6484 1.3516-3 3-3 1.6602 0 3 1.3516 3 3 0 1.6602-1.3398 3-3 3zm0-20c-1.6484 0-3-1.3398-3-3v-91.73c0-0.78906 0.32031-1.5586 0.87891-2.1211 0.55859-0.55859 1.3281-0.87891 2.1211-0.87891 9.8281 0 19.059-3.8203 26-10.762 6.9414-6.9414 10.762-16.18 10.77-26 0-0.78125 0.30859-1.5586 0.87109-2.1211 0.55859-0.55859 1.3398-0.87891 2.1289-0.87891h268.54c0.78906 0 1.5703 0.32031 2.1289 0.87891 0.55078 0.55859 0.87109 1.3398 0.87109 2.1211 0.011719 9.8203 3.8281 19.051 10.781 26 6.9492 6.9414 16.191 10.762 26.012 10.762 0.78906 0 1.5625 0.32031 2.1211 0.87891 0.5625 0.55859 0.87891 1.3281 0.87891 2.1211v18.949c0 1.6484-1.3398 3-3 3-1.6484 0-3-1.3516-3-3v-16.051c-10.27-0.71094-19.949-5.1211-27.25-12.422-7.3086-7.3008-11.719-16.969-12.43-27.238h-262.76c-0.71094 10.27-5.1211 19.949-12.422 27.238-7.2891 7.3008-16.969 11.711-27.238 12.422v88.82l0.011718 0.011719c-0.003906 1.6602-1.3516 3-3.0117 3zm348.1-52.781c-1.6484 0-3-1.3516-3-3 0-1.6602 1.3516-3 3-3 1.6602 0 3 1.3398 3 3 0 1.6484-1.3398 3-3 3z"/>
  <path d="m430.06 108.58c-11.422 0-22.172-4.4492-30.25-12.531-8.0781-8.0898-12.539-18.828-12.539-30.262 0-11.422 4.4609-22.172 12.539-30.25s18.828-12.531 30.25-12.539c11.43 0 22.172 4.4609 30.238 12.539 8.0781 8.0781 12.52 18.82 12.52 30.25 0 11.43-4.4375 22.172-12.52 30.262-8.0664 8.082-18.809 12.531-30.238 12.531zm0-79.578c-9.8203 0-19.059 3.8281-26.012 10.781-6.9492 6.9492-10.781 16.191-10.781 26.012 0 9.8203 3.8281 19.059 10.781 26.012 6.9492 6.9492 16.191 10.781 26.012 10.781 9.8203 0 19.051-3.8281 26-10.77 6.9414-6.9609 10.762-16.191 10.77-26.02-0.011719-9.8203-3.8281-19.059-10.77-26.012-6.9492-6.957-16.18-10.785-26-10.785z"/>
  <path d="m81.961 108.58c-11.422 0-22.172-4.4492-30.25-12.531-8.0781-8.0898-12.531-18.828-12.539-30.262 0.011719-11.422 4.4609-22.172 12.539-30.25 8.0781-8.0742 18.828-12.523 30.25-12.535 11.43 0.011719 22.172 4.4609 30.238 12.539 8.0781 8.0781 12.52 18.828 12.531 30.25-0.011719 11.43-4.4492 22.172-12.531 30.262-8.0703 8.0781-18.809 12.527-30.238 12.527zm0-79.578c-9.8086 0-19.051 3.8281-26.012 10.781-6.9492 6.9492-10.77 16.188-10.777 26.008 0.007813 9.8203 3.8281 19.062 10.777 26.012 6.9609 6.9492 16.191 10.781 26.012 10.781 9.8203 0 19.051-3.8281 26-10.77 6.9414-6.9492 10.762-16.191 10.77-26.02-0.011719-9.8203-3.8281-19.059-10.77-26.012-6.9492-6.9531-16.18-10.781-26-10.781z"/>
  <path d="m81.961 456.65c-11.43 0-22.172-4.4492-30.25-12.52-8.0781-8.0703-12.531-18.812-12.539-30.238 0.011719-11.43 4.4609-22.172 12.539-30.25 8.0781-8.0781 18.828-12.539 30.25-12.539 11.43 0 22.172 4.4609 30.238 12.539 8.0781 8.0781 12.52 18.82 12.52 30.25s-4.4414 22.172-12.52 30.238c-8.0703 8.0703-18.809 12.52-30.238 12.52zm0-79.547c-9.8086 0-19.051 3.8281-26.012 10.781-6.9492 6.9492-10.77 16.188-10.781 26.012 0.011719 9.8203 3.8281 19.051 10.781 26 6.9492 6.9414 16.191 10.762 26.012 10.762 9.8281 0 19.059-3.8203 26-10.762 6.9414-6.9375 10.762-16.18 10.762-26 0-9.8203-3.8203-19.059-10.762-26.012-6.9492-6.9531-16.18-10.781-26-10.781z"/>
  <path d="m430.06 456.65c-11.422 0-22.172-4.4375-30.25-12.52-8.0781-8.0703-12.539-18.812-12.539-30.238 0-11.43 4.4609-22.172 12.539-30.25s18.828-12.539 30.25-12.539c11.43 0 22.172 4.4609 30.238 12.539 8.0781 8.0781 12.52 18.82 12.52 30.25s-4.4375 22.172-12.52 30.238c-8.0664 8.0703-18.809 12.52-30.238 12.52zm0-79.547c-9.8203 0-19.051 3.8281-26.012 10.781-6.9492 6.9492-10.781 16.188-10.781 26.012 0 9.8203 3.8281 19.051 10.781 26 6.9492 6.9414 16.191 10.762 26.012 10.762 9.8203 0 19.062-3.8203 26-10.762 6.9414-6.9492 10.762-16.18 10.77-26-0.011719-9.8203-3.8281-19.059-10.77-26.012-6.9492-6.9531-16.18-10.781-26-10.781z"/>
  <path d="m305.24 193.62c-0.80078 0-1.5508-0.32031-2.1211-0.87891-1.1719-1.1719-1.1719-3.0703 0-4.2383l34.559-34.559c1.1289-1.1406 3.1094-1.1406 4.2383 0 0.57031 0.55859 0.87891 1.3203 0.87891 2.1211 0 0.80078-0.30859 1.5508-0.87891 2.1211l-34.562 34.559c-0.5625 0.55469-1.3125 0.875-2.1133 0.875z"/>
  <path d="m367.4 131.46c-0.80859 0-1.5586-0.30859-2.1289-0.87891-1.1719-1.1719-1.1719-3.0703 0-4.2383l62.672-62.672c1.1289-1.1289 3.1094-1.1289 4.2383 0 1.1719 1.1719 1.1719 3.0703 0 4.2383l-62.66 62.672c-0.57031 0.56641-1.3203 0.87891-2.1211 0.87891z"/>
  <path d="m206.79 193.62c-0.80078 0-1.5586-0.30859-2.1211-0.87891l-34.59-34.559c-0.57031-0.57031-0.87891-1.3203-0.87891-2.1211s0.30859-1.5586 0.87891-2.1211c1.1289-1.1406 3.1094-1.1406 4.2383 0l34.59 34.559c0.57031 0.55859 0.87891 1.3086 0.87891 2.1211 0 0.80078-0.30859 1.5508-0.87891 2.1211-0.56641 0.56641-1.3164 0.87891-2.1172 0.87891z"/>
  <path d="m144.63 131.46c-0.80078 0-1.5508-0.30859-2.1211-0.87891l-62.668-62.672c-1.1719-1.1719-1.1719-3.0703 0-4.2383 1.1406-1.1289 3.1094-1.1289 4.2383 0l62.672 62.672c1.1719 1.1719 1.1719 3.0703 0 4.2383-0.55859 0.56641-1.3203 0.87891-2.1211 0.87891z"/>
  <path d="m172.2 326.63c-0.80078 0-1.5508-0.32031-2.1211-0.87891-1.1719-1.1719-1.1719-3.0781 0-4.2383l34.59-34.559c1.1289-1.1406 3.1094-1.1406 4.2383 0 0.57031 0.55859 0.87891 1.3203 0.87891 2.1172 0 0.80078-0.30859 1.5508-0.87891 2.1211l-34.59 34.562c-0.55469 0.55469-1.3164 0.875-2.1172 0.875z"/>
  <path d="m81.961 416.89c-0.80078 0-1.5508-0.30859-2.1211-0.87891-0.55859-0.55859-0.87891-1.3203-0.87891-2.1211s0.32031-1.5508 0.87891-2.1211l62.672-62.672c1.1289-1.1289 3.1094-1.1289 4.2383 0 1.1719 1.1719 1.1719 3.0781 0 4.25l-62.672 62.66c-0.55859 0.57031-1.3164 0.88281-2.1172 0.88281z"/>
  <path d="m338.77 325.6c-0.80078 0-1.5508-0.30859-2.1211-0.87109l-33.527-33.539c-0.57031-0.57031-0.87891-1.3203-0.87891-2.1211 0-0.80078 0.30859-1.5586 0.87891-2.1172 1.1289-1.1406 3.1094-1.1406 4.2383 0l33.531 33.527c0.57031 0.57031 0.87891 1.3203 0.87891 2.1211 0 0.80078-0.30859 1.5625-0.87891 2.1289-0.5625 0.55859-1.3203 0.87109-2.1211 0.87109z"/>
  <path d="m430.06 416.89c-0.80078 0-1.5508-0.30859-2.1211-0.87891l-63.75-63.738c-1.1719-1.1719-1.1719-3.0781 0-4.25 1.1406-1.1289 3.1094-1.1289 4.25 0l63.738 63.75c1.1719 1.1719 1.1719 3.0703 0 4.2383-0.55469 0.56641-1.3047 0.87891-2.1172 0.87891z"/>
  <path d="m353.81 164.97c-6.0195-0.011719-11.68-2.3594-15.922-6.6016-4.25-4.25-6.6016-9.8984-6.6094-15.93 0-6.0117 2.3398-11.648 6.6016-15.898 4.25-4.2383 9.9102-6.5781 15.93-6.5898 6.0117 0 11.66 2.3398 15.91 6.5898 4.25 4.2383 6.5898 9.8906 6.5898 15.898-0.011719 6.0312-2.3594 11.68-6.6016 15.93-4.2383 4.2422-9.8867 6.5938-15.898 6.6016zm0-39.02c-9.1016 0-16.512 7.3984-16.527 16.488 0.011719 9.1094 7.4219 16.531 16.527 16.531 9.1016 0 16.5-7.4102 16.5-16.531-0.019532-9.0781-7.418-16.477-16.5-16.488z"/>
  <path d="m158.22 164.97c-6.0312-0.011719-11.68-2.3594-15.93-6.6016-4.2383-4.25-6.5898-9.8984-6.6016-15.93 0-6.0117 2.3398-11.648 6.6016-15.898 4.25-4.2383 9.8984-6.5781 15.93-6.5898 6.0117 0 11.66 2.3398 15.91 6.5898 4.2383 4.2383 6.5781 9.8906 6.5781 15.898-0.011719 6.0312-2.3516 11.691-6.5898 15.941-4.2461 4.25-9.8867 6.5898-15.898 6.5898zm0-39.02c-9.1016 0-16.512 7.3984-16.531 16.488 0.011719 9.1094 7.4219 16.531 16.531 16.531 9.0898-0.019531 16.5-7.4297 16.5-16.531-0.019531-9.0781-7.418-16.477-16.5-16.488z"/>
  <path d="m158.22 359.74c-6.0312 0-11.68-2.3516-15.941-6.6094-4.25-4.25-6.5898-9.8984-6.5898-15.922 0-6.0117 2.3398-11.672 6.5898-15.922 4.2617-4.2617 9.9102-6.6016 15.941-6.6016 12.398 0 22.488 10.109 22.488 22.52 0.003907 12.426-10.086 22.527-22.488 22.535zm0-39.051c-9.1016 0.011719-16.512 7.4297-16.531 16.52 0.019531 9.1016 7.4297 16.512 16.531 16.531 9.0781-0.019531 16.48-7.4297 16.5-16.531-0.019531-9.0859-7.418-16.508-16.5-16.52z"/>
  <path d="m351.73 359.74c-6.0195 0-11.68-2.3516-15.93-6.6094-4.25-4.25-6.5898-9.8984-6.5898-15.922 0-6.0117 2.3398-11.672 6.5898-15.922 4.25-4.2617 9.9102-6.6016 15.93-6.6016 12.41 0 22.5 10.109 22.5 22.52 0 12.426-10.09 22.527-22.5 22.535zm0-39.051c-9.0898 0.011719-16.5 7.4297-16.52 16.52 0.019531 9.1016 7.4297 16.512 16.52 16.531 9.0781-0.019531 16.488-7.4297 16.5-16.531-0.011719-9.0859-7.4219-16.508-16.5-16.52z"/>
  <path d="m320.64 326.63h-31.25c-1.6484 0-3-1.3516-3-3 0-1.6602 1.3516-3 3-3h28.449c1.3398-9.8398 9.1211-17.621 18.961-18.961v-123.69c-9.8398-1.3281-17.621-9.1016-18.961-18.922h-123.69c-1.3281 9.8203-9.1016 17.602-18.922 18.922v123.69c9.8203 1.3398 17.59 9.1211 18.922 18.961h55.238c1.6602 0 3 1.3398 3 3 0 1.6484-1.3398 3-3 3h-58.031c-0.78906 0-1.5703-0.32031-2.1289-0.87891-0.55078-0.5625-0.87891-1.3398-0.87891-2.1211-0.011718-8.8906-7.2383-16.141-16.121-16.16-0.78906 0-1.5586-0.32031-2.1211-0.87891-0.55859-0.55859-0.87891-1.3281-0.87891-2.1211l0.003907-129.28c0-0.78906 0.32031-1.5703 0.87891-2.1289 0.55859-0.55078 1.3281-0.87109 2.1211-0.87109 8.8789-0.019531 16.109-7.2617 16.121-16.129 0-0.78906 0.32813-1.5586 0.87891-2.1211 0.55859-0.55859 1.3398-0.87891 2.1289-0.87891h129.28c0.78906 0 1.5625 0.32031 2.1211 0.87891 0.55859 0.55859 0.87891 1.3281 0.87891 2.1211 0.019531 8.8711 7.2617 16.109 16.16 16.129 0.78906 0 1.5586 0.32031 2.1211 0.87109 0.55859 0.55859 0.87891 1.3398 0.87891 2.1289v129.28c0 0.80078-0.30859 1.5625-0.87891 2.1211-0.57031 0.57031-1.3203 0.87891-2.1211 0.87891-8.8984 0.019532-16.141 7.2695-16.16 16.16 0 0.80078-0.30859 1.5508-0.87891 2.1211-0.5625 0.55469-1.3242 0.875-2.1211 0.875zm-51.25 0c-1.6484 0-3-1.3516-3-3 0-1.6602 1.3516-3 3-3 1.6602 0 3 1.3398 3 3 0 1.6523-1.3398 3-3 3z"/>
  <path d="m355.57 474.44h-239.19c-1.6484 0-3-1.3398-3-3 0-1.6484 1.3516-3 3-3h239.19c1.6602 0 3 1.3516 3 3 0.003906 1.6641-1.3359 3-2.9961 3z"/>
  <path d="m421.96 489h-165.52c-1.6484 0-3-1.3516-3-3 0-1.6602 1.3516-3 3-3h165.52c1.6602 0 3 1.3398 3 3 0 1.6484-1.3398 3-3 3z"/>
  <path d="m459.6 489h-20.699c-1.6484 0-3-1.3516-3-3 0-1.6602 1.3516-3 3-3h20.699c1.6484 0 3 1.3398 3 3 0 1.6484-1.3516 3-3 3z"/>
  <path d="m145.54 488.57h-78.41c-1.6602 0-3-1.3516-3-3 0-1.6602 1.3398-3 3-3h78.41c1.6602 0 3 1.3398 3 3 0 1.6484-1.3398 3-3 3z"/>
 </g>
</svg>
