<?xml version="1.0" encoding="UTF-8"?>
<svg width="512pt" height="512pt" version="1.1" viewBox="0 0 512 512" xmlns="http://www.w3.org/2000/svg">
 <g>
  <path d="m229.3 417.75c-0.80859 0-1.5586-0.32031-2.1211-0.87891l-160.67-160.7c-0.57031-0.55859-0.87891-1.3203-0.87891-2.1211s0.30859-1.5508 0.87891-2.1211c1.1289-1.1289 3.1094-1.1289 4.2383 0l158.55 158.57 84.68-84.68c1.1406-1.1289 3.1094-1.1289 4.25 0 0.5625 0.57031 0.87109 1.3203 0.87109 2.1211 0 0.80078-0.30859 1.5508-0.87109 2.1211l-86.809 86.812c-0.57031 0.5625-1.3203 0.875-2.1211 0.875zm100.95-100.95c-0.8125 0-1.5625-0.30859-2.1289-0.87891-1.1602-1.1719-1.1602-3.0703 0-4.2383 1.1406-1.1406 3.1094-1.1406 4.25 0 1.1719 1.1719 1.1719 3.0703 0 4.2383-0.57031 0.56641-1.3203 0.87891-2.1211 0.87891zm14.141-14.141c-0.80078 0-1.5586-0.3125-2.1211-0.87891-0.57031-0.57031-0.87891-1.3203-0.87891-2.1211 0-0.8125 0.3125-1.5625 0.87891-2.1289l64.078-64.082-177.05-177.02-171.46 171.46c-1.1289 1.1289-3.1094 1.1289-4.2383 0-0.57031-0.57031-0.87891-1.3203-0.87891-2.1211 0-0.80859 0.30859-1.5586 0.87891-2.1289l173.58-173.57c1.1289-1.1406 3.1016-1.1406 4.2383 0l181.3 181.26c0.5625 0.55859 0.87109 1.3203 0.87109 2.1211s-0.30859 1.5586-0.87109 2.1211l-66.211 66.211c-0.57031 0.56641-1.3203 0.875-2.1172 0.875zm-289.9-59.75c-0.80078 0-1.5508-0.30859-2.1211-0.87891-1.1719-1.1719-1.1719-3.0703 0-4.2383 1.1289-1.1406 3.1094-1.1406 4.2383 0 0.57031 0.55859 0.87891 1.3203 0.87891 2.1211 0 0.80078-0.30859 1.5508-0.87891 2.1211-0.55469 0.56641-1.3164 0.875-2.1172 0.875z"/>
  <path d="m254.43 327.1h-50.262c-0.80078 0-1.5586-0.30859-2.1211-0.87891l-65.52-65.48c-0.57031-0.57031-0.87891-1.3203-0.87891-2.1211v-50.301c0-0.80078 0.30859-1.5586 0.87891-2.1211l45.391-45.371c1.1289-1.1289 3.1094-1.1289 4.2383 0 0.57031 0.57031 0.87891 1.3203 0.87891 2.1211s-0.30859 1.5586-0.87891 2.1211l-44.512 44.488v47.809l63.762 63.73h47.781l63.762-63.73v-47.809l-63.762-63.719h-37.48c-1.6484 0-3-1.3516-3-3 0-1.6602 1.3516-3 3-3h38.719c0.78906 0 1.5586 0.32031 2.1211 0.87109l65.52 65.488c0.5625 0.55859 0.88281 1.3203 0.88281 2.1211v50.301c0 0.80078-0.32031 1.5508-0.88281 2.1211l-65.52 65.48c-0.55859 0.56641-1.3164 0.87891-2.1172 0.87891zm-56.238-175.29c-0.80078 0-1.5586-0.30859-2.1289-0.87891-1.1602-1.1719-1.1602-3.0703 0.011719-4.2383 1.1289-1.1289 3.1094-1.1289 4.2383 0 1.1719 1.1719 1.1719 3.0703 0 4.25-0.57422 0.55859-1.3242 0.86719-2.1211 0.86719z"/>
  <path d="m229.3 236.45c-1.6602 0-3-1.3516-3-3v-150.89c0-1.6602 1.3398-3.0117 3-3.0117 1.6484 0 3 1.3516 3 3.0117v150.89c0 1.6523-1.3516 3-3 3z"/>
  <path d="m380.23 236.45h-150.93c-1.6602 0-3-1.3398-3-3 0-1.6484 1.3398-3 3-3h150.93c1.6484 0 3 1.3516 3 3 0 1.6602-1.3516 3-3 3z"/>
  <path d="m229.3 387.38c-1.6602 0-3-1.3516-3-3v-150.93c0-1.6484 1.3398-3 3-3 1.6484 0 3 1.3516 3 3v150.93c0 1.6523-1.3516 3-3 3z"/>
  <path d="m229.3 236.45h-150.93c-1.6602 0-3-1.3516-3-3 0-1.6484 1.3398-3 3-3h150.93c1.6484 0 3 1.3516 3 3 0 1.6523-1.3516 3-3 3z"/>
  <path d="m219.64 408.09h-141.53c-0.78906 0-1.5586-0.32031-2.1211-0.87891-0.55859-0.5625-0.87891-1.3281-0.87891-2.1211v-17.422l-17.41 0.003906c-0.80078 0-1.5703-0.32031-2.1289-0.87891-0.55078-0.5625-0.87109-1.3281-0.87109-2.1211v-141.53c0-1.2188 0.71875-2.3008 1.8516-2.7695 1.1016-0.46094 2.4219-0.19922 3.2695 0.64844l18.461 18.461c1.1719 1.1719 1.1719 3.0781 0 4.25-1.1289 1.1289-3.1094 1.1289-4.2383 0l-13.344-13.352v131.29h17.41c0.78906 0 1.5586 0.32031 2.1211 0.87891 0.55859 0.55859 0.87891 1.3281 0.87891 2.1211v17.422h131.29l-110.08-110.08c-1.1719-1.1719-1.1719-3.0703 0-4.2383 1.1289-1.1406 3.1094-1.1406 4.2383 0l115.2 115.2c0.85938 0.85938 1.1211 2.1406 0.64844 3.2695-0.45703 1.1172-1.5469 1.8477-2.7656 1.8477zm-129.34-129.35c-0.80078 0-1.5586-0.3125-2.1211-0.87109-1.1719-1.1719-1.1719-3.0781 0-4.25 1.1289-1.1289 3.1094-1.1289 4.2383 0 1.1719 1.1719 1.1719 3.0781 0 4.25-0.55859 0.5625-1.3164 0.87109-2.1172 0.87109z"/>
  <path d="m380.49 408.09h-141.5c-1.2188 0-2.3086-0.73047-2.7695-1.8516-0.46875-1.1328-0.21094-2.4102 0.64844-3.2695l18.48-18.488c1.1289-1.1289 3.1094-1.1289 4.2383 0 1.1719 1.1719 1.1719 3.0703 0 4.2383l-13.359 13.371h131.26v-17.422c0-0.78906 0.32031-1.5625 0.86719-2.1211 0.5625-0.55859 1.3398-0.87891 2.1328-0.87891h17.41v-131.29l-110.02 110.05s0 0.011718-0.011718 0.011718c-0.67188 0.67188-1.6211 0.98047-2.5508 0.83984h-0.011718l-0.058594-0.011719c-0.62109-0.10156-1.1797-0.39062-1.6211-0.82812-0.57031-0.57031-0.87891-1.3203-0.87891-2.1211 0-0.80859 0.30859-1.5586 0.87891-2.1289l115.16-115.17c0.85156-0.85156 2.1602-1.1094 3.2695-0.64844 1.1289 0.46875 1.8516 1.5508 1.8516 2.7695v141.53c0 0.80078-0.30859 1.5586-0.87891 2.1211-0.55859 0.57031-1.3203 0.87891-2.1211 0.87891h-17.414v17.422c0 0.80078-0.32031 1.5508-0.88281 2.1211-0.56641 0.55469-1.3164 0.875-2.1172 0.875zm-108.88-32.629c-0.80078 0-1.5508-0.3125-2.1172-0.87891-1.1719-1.1719-1.1719-3.0703 0-4.2383 1.1289-1.1406 3.1094-1.1406 4.2383 0 1.1719 1.1719 1.1719 3.0703 0 4.2383-0.55859 0.56641-1.3203 0.87891-2.1211 0.87891z"/>
  <path d="m400.9 226.79c-0.80078 0-1.5508-0.30859-2.1172-0.87891l-18.5-18.5c-0.57031-0.57031-0.88281-1.3203-0.88281-2.1211 0-0.80859 0.3125-1.5586 0.88281-2.1289 1.1289-1.1289 3.1016-1.1289 4.2383 0l13.379 13.391v-131.25h-17.41c-0.80078 0-1.5703-0.32031-2.1328-0.87891-0.55078-0.55859-0.86719-1.3398-0.86719-2.1211v-17.422h-131.26l110 110c0.57031 0.57031 0.87891 1.3203 0.87891 2.1211s-0.30859 1.5586-0.87891 2.1211c-1.1289 1.1406-3.1094 1.1406-4.2383 0l-115.12-115.12c-0.85938-0.85938-1.1211-2.1484-0.64844-3.2695 0.46094-1.1211 1.5508-1.8516 2.7695-1.8516h141.5c0.78906 0 1.5586 0.32031 2.1172 0.87891 0.5625 0.55078 0.87109 1.3281 0.87109 2.1211v17.422h17.422c0.78906 0 1.5703 0.32031 2.1211 0.87891 0.5625 0.55078 0.87891 1.3281 0.87891 2.1211v141.49c0 1.2188-0.71875 2.3086-1.8516 2.7695-0.37109 0.15234-0.75 0.23047-1.1523 0.23047zm-32.648-32.648c-0.80078 0-1.5508-0.30859-2.1211-0.87891-1.1719-1.1719-1.1719-3.0703 0-4.2383 1.1289-1.1289 3.1094-1.1289 4.25 0 1.1602 1.1719 1.1602 3.0703 0 4.2383-0.57031 0.56641-1.3203 0.87891-2.1289 0.87891z"/>
  <path d="m58.031 226.46c-0.80078 0-1.5586-0.30859-2.1211-0.87891-0.57031-0.57031-0.87891-1.3203-0.87891-2.1211 0-0.80078 0.30859-1.5586 0.87891-2.1211 1.1289-1.1406 3.1094-1.1406 4.2383 0 1.1719 1.1719 1.1719 3.0703 0 4.2383-0.57031 0.57031-1.3203 0.88281-2.1172 0.88281zm14.141-14.141c-0.80078 0-1.5508-0.32031-2.1211-0.87891-0.57031-0.57031-0.87891-1.3203-0.87891-2.1211 0-0.80859 0.30859-1.5586 0.87891-2.1289l142.31-142.31h-131.25v17.422c0 0.78906-0.32031 1.5586-0.87891 2.1211-0.55859 0.55859-1.3281 0.87891-2.1211 0.87891h-17.41v118.96c0 1.6602-1.3516 3-3 3-1.6602 0-3.0117-1.3398-3.0117-3l0.003906-121.96c0-0.78906 0.32031-1.5703 0.87891-2.1289 0.55859-0.55078 1.3281-0.87109 2.1289-0.87109l17.41-0.011719v-17.41c0-0.78906 0.32031-1.5586 0.87891-2.1211 0.55859-0.55859 1.3281-0.87891 2.1211-0.87891h141.49c1.2188 0 2.3086 0.73047 2.7812 1.8516 0.46094 1.1211 0.21094 2.4102-0.64844 3.2695l-147.45 147.44c-0.55859 0.55859-1.3203 0.87891-2.1172 0.87891z"/>
  <path d="m421.32 85.301h-40.832c-0.78906 0-1.5703-0.32031-2.1328-0.87891-0.55078-0.55859-0.86719-1.3281-0.86719-2.1211v-40.84c0-0.78906 0.32031-1.5586 0.86719-2.1211 0.5625-0.55859 1.3398-0.87891 2.1328-0.87891h40.828c0.78906 0 1.5625 0.32031 2.1211 0.87891 0.5625 0.55859 0.87891 1.3281 0.87891 2.1211l0.003906 40.84c0 0.80078-0.30859 1.5508-0.87891 2.1211-0.57031 0.55859-1.3203 0.87891-2.1211 0.87891zm-37.84-6h34.84v-34.84h-34.84z"/>
  <path d="m78.109 85.289h-40.828c-0.78906 0-1.5703-0.30859-2.1211-0.87109-0.55859-0.55859-0.89062-1.3398-0.89062-2.1211v-40.836c0-0.78906 0.32031-1.5586 0.87891-2.1211 0.55859-0.55859 1.3281-0.87891 2.1289-0.87891h40.828c0.78906 0 1.5586 0.32031 2.1211 0.87891 0.55859 0.55859 0.87891 1.3281 0.87891 2.1211l0.003906 40.84c0 0.78906-0.32031 1.5586-0.87891 2.1211-0.55859 0.55859-1.332 0.86719-2.1211 0.86719zm-37.84-5.9883h34.84v-34.84h-34.84z"/>
  <path d="m78.109 428.5h-40.828c-0.78906 0-1.5703-0.32031-2.1289-0.87109-0.55078-0.5625-0.87891-1.3398-0.87891-2.1211v-40.84c0-0.78906 0.32812-1.5625 0.87891-2.1211 0.55859-0.55859 1.3398-0.87891 2.1289-0.87891h40.828c0.78906 0 1.5586 0.32031 2.1211 0.87891 0.55859 0.55859 0.87891 1.3281 0.87891 2.1211v40.84c0 0.80078-0.30859 1.5508-0.87891 2.1211-0.55859 0.55859-1.3203 0.87109-2.1211 0.87109zm-37.84-5.9883h34.84v-34.84h-34.84z"/>
  <path d="m421.32 428.5h-40.832c-0.80078 0-1.5703-0.32031-2.1211-0.87109-0.5625-0.5625-0.87891-1.3398-0.87891-2.1211v-40.84c0-0.78906 0.32031-1.5625 0.86719-2.1211 0.5625-0.55859 1.3398-0.87891 2.1328-0.87891h40.828c0.78906 0 1.5625 0.32031 2.1211 0.87891 0.5625 0.55859 0.87891 1.3281 0.87891 2.1211v40.84c0 0.80078-0.30859 1.5508-0.87891 2.1211-0.55859 0.55859-1.3164 0.87109-2.1172 0.87109zm-37.84-5.9883h34.84v-34.84h-34.84z"/>
  <path d="m262.12 212.97c-7.6289-0.011719-13.84-6.2383-13.852-13.891 0-7.6094 6.2109-13.809 13.852-13.82 3.6992 0 7.1797 1.4414 9.7891 4.0508 2.6211 2.6094 4.0586 6.0703 4.0586 9.7695 0 3.7109-1.4375 7.1914-4.0508 9.8086-2.6094 2.6328-6.0898 4.0742-9.7969 4.082zm0-21.707c-4.3203 0-7.8516 3.5117-7.8516 7.8203 0 4.3398 3.5195 7.8789 7.8516 7.8789 4.3281 0 7.8516-3.5391 7.8594-7.8789-0.011719-4.3125-3.5312-7.8203-7.8594-7.8203z"/>
  <path d="m196.48 212.96c-3.7109 0-7.1914-1.4414-9.8008-4.0703-2.6094-2.6211-4.0508-6.1016-4.0586-9.8086 0.011718-3.6914 1.4492-7.1602 4.0586-9.7695 2.6211-2.6094 6.0898-4.0508 9.8008-4.0508 7.6406 0.011719 13.852 6.2109 13.852 13.82-0.011719 7.6484-6.2305 13.879-13.852 13.879zm0-21.699c-4.3281 0-7.8594 3.5117-7.8594 7.8203 0 4.3398 3.5312 7.8789 7.8594 7.8789s7.8516-3.5391 7.8516-7.8789c-0.003906-4.3125-3.5312-7.8203-7.8516-7.8203z"/>
  <path d="m262.12 281.71c-7.6406 0-13.852-6.2188-13.852-13.852 0-3.7109 1.4414-7.1875 4.0586-9.8008 2.6094-2.6094 6.0898-4.0508 9.7891-4.0586 3.7109 0.011719 7.1797 1.4492 9.7891 4.0586 2.6211 2.6094 4.0586 6.0898 4.0586 9.8008 0.003906 7.6289-6.2031 13.852-13.844 13.852zm0-21.711c-4.3281 0-7.8516 3.5312-7.8516 7.8594 0 4.3203 3.5312 7.8398 7.8516 7.8516 4.3281-0.011719 7.8516-3.5312 7.8516-7.8516-0.003906-4.3281-3.5234-7.8594-7.8516-7.8594z"/>
  <path d="m196.48 281.71c-7.6406 0-13.852-6.2188-13.859-13.852 0.011718-3.7109 1.4492-7.1875 4.0586-9.8008 2.6094-2.6094 6.0898-4.0508 9.8008-4.0586 3.6992 0.011719 7.1797 1.4492 9.7891 4.0586s4.0586 6.0898 4.0586 9.8008c0 7.6289-6.207 13.852-13.848 13.852zm0-21.711c-4.3281 0-7.8516 3.5312-7.8594 7.8594 0.011718 4.3203 3.5391 7.8398 7.8594 7.8516 4.3203-0.011719 7.8398-3.5312 7.8516-7.8516-0.003906-4.3281-3.5234-7.8594-7.8516-7.8594z"/>
  <path d="m350.32 454.57h-312.01c-1.6484 0-3-1.3398-3-3 0-1.6484 1.3516-3 3-3h312.01c1.6484 0 2.9883 1.3516 2.9883 3 0.003906 1.6602-1.3359 3-2.9844 3z"/>
  <path d="m436.92 473.54h-215.92c-1.6602 0-3-1.3516-3-3 0-1.6602 1.3398-3 3-3h215.92c1.6602 0 3 1.3398 3 3 0 1.6484-1.3438 3-3 3z"/>
  <path d="m486 473.54h-26.98c-1.6484 0-3-1.3516-3-3 0-1.6602 1.3516-3 3-3h26.98c1.6484 0 3 1.3398 3 3 0 1.6484-1.3516 3-3 3z"/>
  <path d="m128.31 472.99h-102.31c-1.6484 0-3-1.3516-3-3 0-1.6602 1.3516-3 3-3h102.31c1.6602 0 3 1.3398 3 3 0 1.6523-1.3398 3-3 3z"/>
 </g>
</svg>
