<?xml version="1.0" encoding="utf-8"?>
<svg viewBox="0 0 500 500" style="shape-rendering: geometricprecision;" xmlns="http://www.w3.org/2000/svg" xmlns:xlink="http://www.w3.org/1999/xlink">
  <defs>
    <linearGradient id="color-3-0" gradientUnits="userSpaceOnUse" x1="250.173" y1="143.864" x2="250.173" y2="356.037" xlink:href="#color-3"/>
    <linearGradient id="color-3">
      <stop style="stop-color: #fc4a1a;" offset="0"/>
      <stop style="stop-color: #f7b733;" offset="1"/>
    </linearGradient>
    <linearGradient id="color-3-1" gradientUnits="userSpaceOnUse" x1="329.679" y1="83.172" x2="329.679" y2="417.467" xlink:href="#color-3"/>
    <linearGradient id="color-3-2" gradientUnits="userSpaceOnUse" x1="280.085" y1="41.659" x2="280.085" y2="458.973" xlink:href="#color-3"/>
    <linearGradient id="color-3-3" gradientUnits="userSpaceOnUse" x1="250" y1="0.164" x2="250" y2="499.836" xlink:href="#color-3"/>
  </defs>
  <path d="M 325.15 325.08 C 382.918 267.381 356.563 168.781 277.706 147.608 C 198.85 126.426 126.645 198.553 147.732 277.433 C 152.547 295.457 162.036 311.894 175.237 325.08 C 216.686 366.356 283.709 366.356 325.15 325.08 Z" style="fill: url('#color-3-0');"/>
  <path d="M 263.872 105.448 C 375.227 116.031 433.371 243.183 368.529 334.326 C 342.072 371.523 299.661 394.127 254.023 395.346 C 247.935 395.518 243.081 400.505 243.081 406.601 C 243.214 412.706 248.239 417.552 254.336 417.466 C 383.317 412.886 458.969 270.391 390.508 160.989 C 363.136 117.242 317.146 88.541 265.826 83.172 L 263.793 83.172 C 257.822 83.32 252.945 87.994 252.538 93.958 C 252.319 99.828 256.837 104.799 262.699 105.135 L 263.872 105.448 Z" style="fill: url('#color-3-1');"/>
  <path d="M 250.193 458.969 C 410.963 459.962 512.509 286.546 432.988 146.818 C 398.089 85.509 334.599 45.959 264.184 41.668 C 255.579 41.34 249.85 50.446 253.859 58.067 C 255.727 61.599 259.33 63.874 263.324 64.022 C 406.523 74.238 484.965 235.632 404.522 354.546 C 338.89 451.56 201.124 464.761 118.258 381.981 C 113.897 377.776 106.987 377.776 102.626 381.981 C 98.499 386.373 98.499 393.22 102.626 397.613 C 141.675 436.92 194.793 459.008 250.193 458.969 Z" style="fill: url('#color-3-2');"/>
  <path d="M 427.15 73.089 C 383.614 29.53 325.525 3.565 264.028 0.165 C 258.072 0.079 253.14 4.769 252.929 10.717 C 252.577 16.884 257.244 22.183 263.403 22.597 C 438.561 32.742 537.052 228.7 440.687 375.314 C 344.33 521.936 125.378 509.25 46.584 352.491 C 32.078 323.626 23.871 292.01 22.511 259.737 C 22.136 253.594 16.946 248.849 10.787 249.029 C 7.809 249.146 5.003 250.444 2.971 252.625 C 1.032 254.766 -0.023 257.557 0 260.441 C 8.528 452.795 222.079 563.783 384.396 460.228 C 519.02 374.337 539.772 185.992 427.072 72.855 L 427.15 73.089 Z" style="fill: url('#color-3-3');"/>
</svg>