<?xml version="1.0" encoding="utf-8"?>
<svg viewBox="0 0 500 500" xmlns="http://www.w3.org/2000/svg">
  <g fill="#fa7214" transform="matrix(1.214614987373352, 0, 0, 1.214614987373352, -61.25905227661133, -60.94004440307617)">
    <path d="m303.11 193.54-4.6094 7.6797c48.129 10.238 84.48 52.734 84.48 103.94 0 58.367-47.617 105.98-105.98 105.98-30.207 0-59.391-13.312-79.359-35.328l-4.6094 7.6797c21.504 23.039 51.711 36.352 83.457 36.352 62.977 0 114.69-51.199 114.69-114.69 0.51172-54.273-37.887-99.84-88.062-111.62z"/>
    <path d="m284.67 190.46 78.848-136.19-7.168-4.0977-81.406 140.29c-49.664 1.0234-91.648 33.281-106.5 78.336-1.5352-0.51172-3.0703-0.51172-4.6094-0.51172-11.777 0-21.504 9.7266-21.504 21.504 0 11.777 9.2148 20.992 20.992 21.504 1.0234 17.406 5.6328 33.793 14.336 49.152l-56.32 97.281 7.6797 4.0977 53.762-93.184zm-14.848 8.7031-88.062 152.57c-6.1445-12.801-10.238-27.137-10.754-41.473 8.1914-3.0703 14.336-11.266 14.336-20.48 0-7.168-3.5859-13.824-9.2148-17.922 13.312-39.93 49.664-70.141 93.695-72.699zm-96.258 81.922c2.0469 2.5586 3.0703 5.1211 3.0703 8.7031 0 4.6094-2.0469 8.7031-5.6328 10.754 0.003906-6.6602 1.0273-12.805 2.5625-19.457zm-23.551 8.7031c0-7.168 5.6328-13.312 13.312-13.312h2.5586c-2.0469 8.1914-3.0703 16.895-3.5859 26.113-6.6523-0.51562-12.285-6.1445-12.285-12.801z"/>
  </g>
</svg>