<?xml version="1.0" encoding="utf-8"?>
<svg viewBox="0 0 500 500" xmlns="http://www.w3.org/2000/svg">
  <g fill="#fa7214" transform="matrix(0.976563036441803, 0, 0, 0.976563036441803, 0.01477900054308634, 0.08186900615692139)">
    <path d="m295.46 1.0664c-5.332-1.0664-11.734 3.1992-11.734 8.5352 0 5.332 3.1992 11.734 8.5352 11.734 115.2 19.199 198.4 116.27 198.4 233.6 0 129.07-105.6 234.67-234.67 234.67s-234.67-105.6-234.67-234.67c0-117.33 83.203-214.4 198.4-232.54 6.3984-1.0664 9.5977-6.3984 9.5977-11.73s-6.3984-9.6016-11.734-8.5352c-126.93 19.199-217.6 124.8-217.6 252.8 0 140.8 115.2 256 256 256s256-115.2 256-256c0-128-90.668-233.6-216.54-253.87z"/>
    <path d="m293.33 448h2.1328c89.602-19.199 153.6-98.133 153.6-189.87 0-106.67-86.398-193.07-193.07-193.07s-194.13 86.398-194.13 193.07c0 90.668 65.066 170.67 153.6 189.87 5.332 1.0664 11.734-2.1328 12.801-8.5352 1.0664-6.3984-2.1328-11.734-8.5352-12.801-78.934-17.066-136.54-87.465-136.54-168.54 0-94.934 76.801-171.73 172.8-171.73s171.73 76.801 171.73 171.73c0 81.066-57.602 152.54-136.54 168.54-5.332 1.0664-9.6016 6.3984-8.5352 12.801 1.0703 5.3359 6.4023 8.5352 10.668 8.5352z"/>
    <path d="m215.46 133.33c-52.266 17.066-87.465 66.133-87.465 121.6 0 70.398 57.602 128 128 128s128-57.602 128-128c0-55.465-35.199-103.46-87.465-121.6-5.332-2.1328-11.734 1.0664-13.867 6.3984-2.1328 5.332 1.0664 11.734 6.3984 13.867 43.734 14.934 72.535 55.465 72.535 101.33 0 58.668-48 106.67-106.67 106.67-58.668 0-106.67-48-106.67-106.67 0-45.867 28.801-86.398 72.535-101.33 5.332-2.1328 8.5352-7.4648 6.3984-13.867-1.0664-5.332-6.3984-8.5312-11.734-6.3984z"/>
    <path d="m196.27 254.93c0 33.066 26.668 59.734 59.734 59.734s59.734-26.668 59.734-59.734-26.668-59.734-59.734-59.734-59.734 26.668-59.734 59.734zm59.734-39.469c21.332 0 38.398 17.066 38.398 38.398 0 21.336-17.066 39.469-38.398 39.469s-38.398-17.066-38.398-38.398c0-21.332 17.066-39.469 38.398-39.469z"/>
  </g>
</svg>