<?xml version="1.0" encoding="utf-8"?>
<svg viewBox="0 0 500 500" xmlns="http://www.w3.org/2000/svg">
  <g fill="#fa7214" transform="matrix(1.302056074142456, 0, 0, 1.302056074142456, -83.32636260986328, -83.33155822753906)">
    <path d="m256 64c53.02 0 101.02 21.492 135.77 56.234 34.746 34.746 56.234 82.746 56.234 135.77s-21.492 101.02-56.234 135.77c-34.746 34.746-82.746 56.234-135.77 56.234s-101.02-21.492-135.77-56.234c-34.746-34.746-56.234-82.746-56.234-135.77 0-15.949 1.957-31.469 5.6445-46.332 3.8008-15.312 9.4336-29.895 16.648-43.496l1.8398-3.4648 3.4883 1.7617c1.1719 0.59375 2.4453 1.0586 3.793 1.3789 1.2852 0.30469 2.6367 0.46875 4.0312 0.46875 4.7969 0 9.1367-1.9453 12.277-5.0859s5.0859-7.4844 5.0859-12.277c0-2.5352-0.52734-4.918-1.4766-7.0508-0.99219-2.2305-2.4531-4.2227-4.2578-5.8516l-2.9023-2.6172 2.5586-2.9609c17.934-20.738 40.238-37.598 65.484-49.148 24.32-11.125 51.34-17.328 79.781-17.328zm130.11 61.891c-33.297-33.297-79.297-53.891-130.11-53.891-27.309 0-53.203 5.9336-76.473 16.578-23.086 10.562-43.609 25.766-60.383 44.414 1.3867 1.7148 2.5586 3.6133 3.4688 5.6602 1.4102 3.168 2.1953 6.6562 2.1953 10.301 0 7.0039-2.8398 13.344-7.4297 17.934-4.5898 4.5898-10.93 7.4297-17.934 7.4297-2.0156 0-3.9844-0.23828-5.875-0.6875-0.63281-0.15234-1.2617-0.32812-1.8789-0.52734-6.1289 12.125-10.957 25.008-14.297 38.473-3.5234 14.203-5.3945 29.082-5.3945 44.426 0 50.809 20.594 96.812 53.891 130.11s79.297 53.891 130.11 53.891c50.809 0 96.812-20.594 130.11-53.891s53.891-79.297 53.891-130.11c0-50.809-20.594-96.812-53.891-130.11z"/>
    <path d="m256 115.27c38.859 0 74.043 15.754 99.508 41.219 25.465 25.465 41.219 60.648 41.219 99.508s-15.754 74.043-41.219 99.508c-25.465 25.465-60.648 41.219-99.508 41.219s-74.043-15.754-99.508-41.219c-25.465-25.465-41.219-60.648-41.219-99.508s15.754-74.043 41.219-99.508c25.465-25.465 60.648-41.219 99.508-41.219zm93.852 46.875c-24.02-24.02-57.199-38.875-93.852-38.875s-69.836 14.855-93.852 38.875c-24.02 24.02-38.875 57.199-38.875 93.852s14.855 69.836 38.875 93.852c24.02 24.02 57.199 38.875 93.852 38.875s69.836-14.855 93.852-38.875c24.02-24.02 38.875-57.199 38.875-93.852s-14.855-69.836-38.875-93.852z"/>
    <path d="m140.33 179.37c-2.207 0-4 1.793-4 4 0 2.207 1.793 4 4 4h101.35c2.207 0 4-1.793 4-4 0-2.207-1.793-4-4-4z"/>
    <path d="m126.58 213.54c-2.207 0-4 1.793-4 4s1.793 4 4 4h135.53c2.207 0 4-1.793 4-4s-1.793-4-4-4z"/>
    <path d="m371.67 332.63c2.207 0 4-1.793 4-4 0-2.207-1.793-4-4-4h-101.35c-2.207 0-4 1.793-4 4 0 2.207 1.793 4 4 4z"/>
    <path d="m385.42 298.46c2.207 0 4-1.793 4-4s-1.793-4-4-4h-135.53c-2.207 0-4 1.793-4 4s1.793 4 4 4z"/>
    <path d="m99.445 123.59c7.0039 0 13.344 2.8398 17.934 7.4297 4.5898 4.5898 7.4297 10.93 7.4297 17.934s-2.8398 13.344-7.4297 17.934c-4.5898 4.5898-10.93 7.4297-17.934 7.4297-7.0039 0-13.344-2.8398-17.934-7.4297-4.5898-4.5898-7.4297-10.93-7.4297-17.934s2.8398-13.344 7.4297-17.934c4.5898-4.5898 10.93-7.4297 17.934-7.4297zm12.277 13.086c-3.1406-3.1406-7.4844-5.0859-12.277-5.0859-4.7969 0-9.1367 1.9453-12.277 5.0859s-5.0859 7.4844-5.0859 12.277c0 4.7969 1.9453 9.1367 5.0859 12.277s7.4844 5.0859 12.277 5.0859c4.7969 0 9.1367-1.9453 12.277-5.0859s5.0859-7.4844 5.0859-12.277c0-4.7969-1.9453-9.1367-5.0859-12.277z"/>
  </g>
</svg>