<?xml version="1.0" encoding="utf-8"?>
<svg viewBox="0 0 500 500" xmlns="http://www.w3.org/2000/svg">
  <g fill="#fa7214" transform="matrix(1.385195016860962, 0, 0, 1.385195016860962, -101.41011047363281, -104.60992431640625)">
    <path d="m253.44 436.22c99.84 0 180.73-80.895 180.73-180.22s-80.895-180.22-180.73-180.22-180.23 80.895-180.23 180.22 80.898 180.22 180.23 180.22zm0-350.21c54.785 0 103.94 26.113 135.17 66.559h-79.363c-3.0703 0-5.1211 2.0469-5.1211 5.1211 0 3.0703 2.0469 5.1211 5.1211 5.1211h86.527c17.406 26.625 27.648 58.879 27.648 93.184 0 13.824-1.5352 27.648-5.1211 40.449-0.51172 0-1.0234-0.51172-1.5352-0.51172h-151.55c-3.0703 0-5.1211 2.0469-5.1211 5.1211 0 3.0703 2.0469 5.1211 5.1211 5.1211h151.04c-3.0703 9.2148-6.6562 18.434-11.266 27.137l-77.82-0.003906c-3.0703 0-5.1211 2.0469-5.1211 5.1211 0 3.0703 2.0469 5.1211 5.1211 5.1211l72.191-0.003907c-29.695 49.152-83.969 82.434-145.92 82.434-92.16 0-167.43-73.727-169.98-164.86h123.9c3.0703 0 5.1211-2.0469 5.1211-5.1211 0-3.0703-2.0469-5.1211-5.1211-5.1211h-123.9c0.51172-12.801 2.0469-25.602 5.1211-37.375h1.0234 152.06c3.0703 0 5.1211-2.0469 5.1211-5.1211 0-3.0703-2.0469-5.1211-5.1211-5.1211l-150.02 0.003906c22.527-68.098 86.527-117.25 161.79-117.25z"/>
    <path d="m256.51 343.55h43.008c3.0703 0 5.1211-2.0469 5.1211-5.1211 0-3.0703-2.0469-5.1211-5.1211-5.1211h-43.008c-3.0703 0-5.1211 2.0469-5.1211 5.1211 0 3.0742 2.5625 5.1211 5.1211 5.1211z"/>
  </g>
</svg>