<?xml version="1.0" encoding="utf-8"?>
<svg viewBox="0 0 500 500" xmlns="http://www.w3.org/2000/svg">
  <g fill="#fa7214" transform="matrix(1.2268249988555908, 0, 0, 1.2268249988555908, -64.06501770019531, -64.0685043334961)">
    <path d="m290.3 192-106.5 184.83c21.504 27.137 54.785 43.008 89.602 43.008 62.977 0 114.69-51.199 114.69-114.69-0.51172-57.344-43.008-104.96-97.793-113.15z"/>
    <path d="m162.82 288.26c11.777 0 21.504-9.7266 21.504-21.504s-9.7266-21.504-21.504-21.504-21.504 9.7266-21.504 21.504c0 11.773 9.7266 21.504 21.504 21.504zm0-34.816c7.168 0 13.312 6.1445 13.312 13.312 0 7.168-6.1445 13.312-13.312 13.312-7.168 0-13.312-6.1445-13.312-13.312 0-7.168 6.1445-13.312 13.312-13.312z"/>
    <path d="m359.94 52.223c-45.055 64.512-85.504 132.1-124.93 199.68-18.434 32.258-36.863 65.023-54.785 97.793-3.5859-5.6328-6.6562-11.266-9.2148-17.406-3.5859-8.7031-6.1445-17.922-7.168-28.16-2.5586 19.969 0.51172 40.449 8.7031 59.391-16.895 31.742-33.281 64-48.641 96.258 60.93-97.281 178.18-306.69 236.55-407.04z"/>
  </g>
</svg>