<?xml version="1.0" encoding="utf-8"?>
<svg viewBox="0 0 500 500" xmlns="http://www.w3.org/2000/svg">
  <g fill="#fa7214" transform="matrix(1.0895099639892578, 0, 0, 1.0895099639892578, -29.425464630126953, -36.41087341308594)">
    <path d="m115.54 213.48c0 8.2891-6.7188 15.008-15.008 15.008-8.2891 0-15.008-6.7188-15.008-15.008 0-8.2891 6.7188-15.008 15.008-15.008 8.2891 0 15.008 6.7188 15.008 15.008"/>
    <path d="m485.93 238.59c0-9.4844-4.9453-17.789-12.391-22.535 0.66016-2.6523 1.0508-5.3984 1.0508-8.2539 0-15.668-10.598-28.824-25.008-32.781 0.43359-2.5156 0.70703-5.0898 0.70703-7.7266 0-25.055-20.309-45.367-45.367-45.367-9.0234 0-17.414 2.668-24.48 7.207-11.703-5.6562-24.844-8.8242-38.711-8.8242-12.43 0-24.258 2.5469-34.996 7.1445-10.223-15.973-28.074-26.59-48.441-26.59-21.219 0-39.703 11.52-49.676 28.621-5.457-3.7383-12.066-5.9336-19.184-5.9336-14.312 0-26.531 8.8477-31.555 21.352-5.8477-0.22656-13.188 0.48438-22.391 2.4922-1.3086-0.097657-2.668 0.12109-3.8281 0.67187l-40.84-5.1133-1.668 3.375c-0.42188 0.84375-1.6602 3.9414-0.058594 8.3359 1.6484 4.5273 5.8086 8.8242 12.391 12.836-7.0078 3.8164-13.801 8.1641-20.285 12.965-45.68 33.824-66.281 80.789-46.941 106.9 8.6484 11.656 31.164 18.621 60.234 18.621h0.003906c6.9805 0 14.676-0.44922 22.699-1.4297 3.6367 21.418 22.23 37.73 44.676 37.73 0.21484 0 0.42578-0.027343 0.63672-0.027343-0.40234 2.1055-0.63672 4.2773-0.63672 6.5078 0 8.1758 2.8828 15.66 7.6797 21.527-4.8086 15.781-9.1484 29.883-10.918 35.191-4.8594 14.582 8.0938 22.68 17.824 14.582 3.5781-2.9883 12.664-18.746 22.703-37.434 13.074-1.2461 23.961-9.8984 28.484-21.703 0.6875-0.45703 1.3477-0.96094 2.0039-1.4688 14.66 10.594 32.652 16.855 52.121 16.855 18.949 0 36.512-5.9336 50.945-16.016 6.1172 5.8867 14.422 9.5391 23.586 9.5391 5.582 0 10.832-1.3711 15.48-3.75 5.6211 8.3633 14.848 14.078 25.465 14.949 10.711 20.07 20.645 37.496 24.434 40.648 9.7227 8.1016 22.68 0 17.824-14.582-1.9336-5.7969-6.9297-22.055-12.25-39.555 4.2734-5.6875 6.8398-12.73 6.8398-20.395 0-2.6719-0.34766-5.2695-0.93359-7.7656 4.0273-4.3672 6.9453-9.7773 8.2422-15.805 20.77-4.1484 36.426-22.484 36.426-44.48 0-6.4922-1.3867-12.652-3.8516-18.234 7.207-4.8008 11.953-12.98 11.953-22.281zm-391.43 56.797c-24.969 0-45.266-5.6211-51.719-14.336-15.285-20.621 5.1953-62.793 44.715-92.082 8.7852-6.5156 18.176-12.117 27.895-16.656l10.633-4.9648-10.758-4.6914c-6.5195-2.8438-10.57-5.4844-13.016-7.6016l28.25 3.5391c2.8711 5.1211 9.4883 12.145 22.355 21.418-17.375 16.258-28.246 39.379-28.246 65.059 0 7.7188 0.98438 15.211 2.832 22.355-6.2109 7.2344-10.156 16.453-10.805 26.562-7.2734 0.90234-14.699 1.3984-22.137 1.3984 0.003906 0 0 0 0 0z"/>
  </g>
</svg>