<?xml version="1.0" encoding="utf-8"?>
<svg viewBox="0 0 500 500" xmlns="http://www.w3.org/2000/svg">
  <path d="M 249.998 0 C 241.711 5.872 234.204 17.057 228.24 32.409 C 219.372 18.556 209.815 9.075 200.55 4.932 C 193.997 11.861 189.044 23.251 186.123 38.083 C 175.512 27.342 165.099 20.584 155.826 18.411 C 150.223 27.213 147.492 40.88 147.921 57.952 C 134.021 48.045 121.17 42.663 110.75 42.373 C 107.349 51.278 107.126 63.702 110.1 78.536 C 96.179 72.649 83.968 70.363 74.558 71.899 C 72.677 82.595 75.681 96.975 83.228 113.368 C 65.659 109.193 50.958 109.086 40.844 113.055 C 41.172 122.58 45.805 134.118 54.321 146.624 C 39.223 146.624 27.088 149.276 19.023 154.346 C 21.348 164.513 29.153 176.059 41.607 187.747 C 24.797 190.683 11.936 196.041 4.405 203.26 C 8.343 211.936 17.021 220.827 29.656 229.139 C 15.704 234.903 5.512 241.99 0.001 249.758 C 5.92 258.129 17.258 265.705 32.823 271.716 C 18.772 280.668 9.153 290.325 4.986 299.69 C 11.912 306.227 23.305 311.173 38.137 314.071 C 27.404 324.697 20.661 335.119 18.504 344.392 C 27.312 349.988 40.981 352.71 58.053 352.266 C 48.161 366.172 42.787 379.024 42.503 389.452 C 51.418 392.838 63.848 393.054 78.672 390.063 C 72.793 403.986 70.522 416.201 72.067 425.613 C 82.77 427.486 97.142 424.468 113.528 416.906 C 109.376 434.475 109.277 449.168 113.252 459.283 C 122.785 458.946 134.315 454.306 146.813 445.774 C 146.829 460.882 149.497 473.007 154.574 481.072 C 164.735 478.733 176.279 470.912 187.953 458.449 C 190.905 475.261 196.271 488.112 203.497 495.636 C 212.174 491.682 221.057 482.998 229.346 470.353 C 235.133 484.305 242.228 494.489 250.004 500 C 258.283 494.121 265.791 482.935 271.754 467.585 C 280.622 481.438 290.179 490.919 299.444 495.062 C 305.987 488.136 310.949 476.751 313.871 461.919 C 324.483 472.66 334.895 479.418 344.168 481.583 C 349.771 472.783 352.5 459.12 352.073 442.042 C 365.971 451.949 378.816 457.331 389.244 457.631 C 392.646 448.724 392.867 436.294 389.894 421.468 C 403.815 427.355 416.026 429.633 425.436 428.103 C 427.317 417.401 424.313 403.02 416.766 386.628 C 434.336 390.803 449.028 390.918 459.151 386.949 C 458.822 377.416 454.189 365.878 445.672 353.372 C 460.771 353.372 472.904 350.72 480.969 345.651 C 478.646 335.483 470.841 323.938 458.385 312.249 C 475.198 309.313 488.056 303.955 495.588 296.744 C 491.652 288.06 482.974 279.169 470.336 270.865 C 484.289 265.093 494.48 258.006 499.999 250.246 C 494.075 241.875 482.737 234.291 467.171 228.28 C 481.224 219.336 490.841 209.679 495.008 200.314 C 493.625 198.999 492.051 197.746 490.299 196.56 C 483.343 191.851 473.679 188.234 461.867 185.927 C 472.595 175.299 479.337 164.879 481.492 155.606 C 479.887 154.573 478.106 153.633 476.164 152.792 C 467.524 149.092 455.843 147.364 441.945 147.73 C 451.837 133.832 457.211 120.979 457.495 110.552 C 455.706 109.865 453.778 109.305 451.708 108.878 C 443.466 107.187 433.144 107.547 421.332 109.933 C 427.204 96.012 429.474 83.795 427.938 74.391 C 426.049 74.046 424.047 73.854 421.929 73.817 C 412.059 73.702 399.918 76.874 386.471 83.09 C 390.63 65.523 390.72 50.828 386.745 40.713 C 377.219 41.05 365.681 45.69 353.183 54.222 C 353.167 39.124 350.507 26.997 345.43 18.932 C 335.263 21.265 323.725 29.086 312.051 41.547 C 309.099 24.745 303.725 11.892 296.501 4.361 C 287.83 8.314 278.947 16.998 270.652 29.644 C 264.873 15.699 257.77 5.508 250.002 0.002 L 249.998 0 Z M 249.998 8.999 C 255.709 14.718 261.589 24.122 266.313 36.774 L 266.313 36.766 C 259.723 48.211 253.805 61.88 248.935 76.941 C 244.279 63.127 238.744 50.488 232.636 39.694 C 232.82 39.175 232.996 38.647 233.178 38.126 C 237.979 24.786 244.082 14.916 249.998 8.997 L 249.998 8.999 Z M 294.829 13.205 C 299.546 20.124 303.697 30.957 305.938 44.964 C 306.091 45.943 306.244 46.927 306.375 47.929 C 298.331 57.471 290.533 68.901 283.378 81.622 C 281.413 65.384 278.088 50.347 273.606 37.502 C 280.603 25.927 288.14 17.769 294.829 13.205 Z M 202.329 13.755 C 209.302 18.388 217.229 26.858 224.576 38.985 C 224.844 39.435 225.112 39.895 225.386 40.353 L 225.379 40.353 C 221.519 52.165 218.591 65.667 216.763 80.155 C 209.019 66.37 200.532 54.146 191.825 44.23 C 193.95 30.89 197.849 20.5 202.321 13.757 L 202.329 13.755 Z M 159.218 26.743 C 166.665 29.886 175.656 36.384 184.791 46.323 L 184.783 46.33 C 182.933 59.825 182.642 75.238 183.935 91.567 C 174.416 80.521 164.524 70.864 154.769 63.104 C 154.707 62.08 154.646 61.07 154.609 60.076 C 154.028 45.91 155.961 34.472 159.218 26.751 L 159.218 26.743 Z M 341.994 27.24 C 345.09 34.711 346.934 45.644 346.474 59.129 L 346.466 59.136 C 335.68 67.447 324.653 78.227 314.112 90.772 C 315.082 76.225 314.808 62.401 313.309 50.024 C 313.982 49.253 314.656 48.487 315.327 47.746 C 324.86 37.249 334.265 30.452 341.994 27.24 Z M 269.196 45.368 C 273.142 58.457 275.962 73.862 277.453 90.054 L 267.255 90.054 L 267.255 90.062 C 266.476 90.062 265.703 90.199 264.969 90.475 C 264.295 90.07 263.561 89.786 262.79 89.641 L 252.768 87.745 C 257.24 72.111 262.882 57.508 269.196 45.375 L 269.196 45.368 Z M 381.818 48.243 C 383.531 56.437 383.241 68.036 379.961 81.836 C 379.564 83.517 379.112 85.23 378.63 86.966 L 378.638 86.966 C 367.515 92.806 355.939 100.429 344.495 109.442 C 349.259 92.851 352.147 76.859 352.936 62.599 C 363.822 54.57 373.9 49.908 381.82 48.249 L 381.818 48.243 Z M 229.868 48.548 C 235.717 59.994 240.977 73.449 245.266 87.784 L 235.266 89.802 L 235.282 89.802 C 234.853 89.893 234.433 90.025 234.027 90.193 C 233.599 90.109 233.172 90.062 232.736 90.062 L 222.537 90.062 C 223.905 75.162 226.406 60.933 229.868 48.556 L 229.868 48.548 Z M 115.755 49.84 C 123.973 51.46 134.532 56.261 145.954 64.663 C 146.749 65.253 147.553 65.857 148.356 66.476 C 149.326 78.923 151.789 92.538 155.619 106.622 C 142.821 96.43 129.899 88.052 117.69 82.041 C 114.555 68.885 114.195 57.782 115.755 49.84 Z M 190.701 53.212 C 199.287 63.853 207.705 77.058 215.182 91.493 L 205.732 95.338 L 205.74 95.338 C 205.014 95.636 204.349 96.057 203.767 96.585 C 202.996 96.462 202.208 96.485 201.444 96.63 L 191.451 98.648 C 189.709 82.478 189.425 66.828 190.701 53.212 Z M 307.367 57.31 C 308.33 69.74 308.093 83.64 306.725 97.961 L 296.71 96.064 L 296.702 96.064 C 296.426 96.012 296.145 95.98 295.861 95.965 C 295.616 95.82 295.356 95.699 295.098 95.583 L 285.67 91.692 C 292.352 78.955 299.76 67.188 307.367 57.312 L 307.367 57.31 Z M 345.853 68.196 C 344.509 81.804 341.228 97.11 336.427 112.646 L 327 108.755 L 327 108.763 C 326.274 108.465 325.502 108.297 324.721 108.266 C 324.256 107.639 323.682 107.095 323.032 106.669 L 314.493 101.087 C 324.6 88.341 335.388 76.996 345.847 68.196 L 345.853 68.196 Z M 155.646 72.463 C 165.05 80.644 174.645 90.712 183.712 101.866 L 175.241 107.545 L 175.241 107.553 C 175.012 107.714 174.783 107.882 174.576 108.074 C 174.302 108.142 174.026 108.234 173.758 108.342 L 164.316 112.178 C 160.142 98.417 157.161 84.838 155.646 72.461 L 155.646 72.463 Z M 80.868 78.303 C 88.957 78.366 99.759 80.949 112.007 86.652 L 112.007 86.66 C 115.624 100.474 121.624 115.582 129.584 130.889 C 116.571 124.307 103.697 119.122 91.625 115.589 C 90.814 114 90.049 112.425 89.331 110.873 C 83.391 97.998 80.805 86.692 80.868 78.311 L 80.868 78.303 Z M 421.516 80.705 C 421.463 88.794 418.893 99.595 413.198 111.851 C 399.376 115.476 384.277 121.492 368.977 129.474 C 375.546 116.454 380.72 103.572 384.237 91.508 C 385.829 90.698 387.41 89.925 388.962 89.207 C 401.829 83.251 413.137 80.659 421.516 80.712 L 421.516 80.705 Z M 120.07 90.743 C 132.074 97.296 144.887 106.293 157.31 116.783 L 150.047 123.939 L 150.047 123.947 C 149.497 124.497 149.039 125.138 148.71 125.843 C 147.945 126.033 147.226 126.348 146.569 126.783 L 138.098 132.464 C 130.314 118.183 124.077 103.825 120.063 90.753 L 120.07 90.743 Z M 249.053 93.855 L 260.59 96.041 L 260.59 96.049 C 260.559 96.378 260.543 96.706 260.559 97.035 C 256.377 100.505 253.525 105.314 252.494 110.644 C 251.323 116.897 252.746 123.357 256.424 128.54 C 256.103 128.885 255.819 129.258 255.574 129.658 L 249.282 130.926 L 244.581 130.039 L 244.573 130.039 C 244.115 129.153 243.457 128.38 242.655 127.785 C 245.857 122.7 246.988 116.576 245.812 110.689 C 244.87 106.072 242.563 101.844 239.183 98.556 C 239.427 97.662 239.49 96.736 239.367 95.82 L 249.053 93.855 Z M 375.796 96.11 C 371.989 107.303 366.752 119.228 360.46 131.118 L 351.928 125.544 L 351.928 125.551 C 351.881 125.528 351.844 125.506 351.805 125.483 C 351.776 125.444 351.736 125.407 351.699 125.367 L 344.534 118.106 C 354.933 109.573 365.582 102.073 375.796 96.119 L 375.796 96.11 Z M 220.024 96.751 L 229.917 96.751 L 229.917 96.759 C 229.97 97.693 230.215 98.601 230.643 99.435 C 227.984 103.32 226.553 107.905 226.529 112.616 C 226.553 118.617 228.878 124.381 233.021 128.724 C 232.348 129.474 231.843 130.368 231.569 131.339 L 227.142 133.136 L 220.713 133.136 L 220.713 133.143 C 220.392 132.791 220.032 132.478 219.65 132.202 C 222.233 126.401 222.349 119.788 219.971 113.892 C 217.914 108.863 214.168 104.704 209.375 102.126 C 209.32 101.805 209.244 101.492 209.144 101.186 L 220.024 96.751 Z M 268.204 96.751 L 280.383 96.751 L 289.144 100.368 L 289.152 100.384 C 288.739 101.515 288.649 102.738 288.878 103.915 C 285.269 106.469 282.448 109.978 280.749 114.061 C 278.534 119.48 278.426 125.528 280.444 131.026 C 279.313 131.462 278.319 132.188 277.569 133.143 L 273.173 133.143 L 266.759 130.497 L 266.759 130.489 C 266.607 130.131 266.423 129.787 266.217 129.458 C 270.811 125.054 273.418 118.977 273.449 112.616 C 273.433 107.172 271.537 101.905 268.067 97.714 C 268.135 97.401 268.188 97.08 268.212 96.759 L 268.204 96.751 Z M 263.763 103.12 C 265.665 105.895 266.728 109.236 266.736 112.601 C 266.728 116.997 264.839 121.332 261.743 124.452 C 259.297 120.811 258.25 116.218 259.068 111.896 L 259.068 111.888 C 259.702 108.587 261.369 105.49 263.755 103.12 L 263.763 103.12 Z M 299.045 103.32 L 308.355 105.085 L 318.547 111.744 L 318.554 111.751 C 318.394 112.043 318.257 112.34 318.141 112.654 C 312.951 114.258 308.487 117.623 305.498 122.158 C 302.026 127.485 300.871 133.999 302.294 140.199 C 301.942 140.36 301.597 140.551 301.269 140.772 L 294.503 139.489 L 290.78 137.058 C 290.672 135.872 290.253 134.733 289.557 133.762 C 294.266 130.268 297.485 125.131 298.593 119.375 C 299.395 115.032 298.961 110.552 297.333 106.445 C 298.172 105.574 298.769 104.504 299.053 103.326 L 299.045 103.32 Z M 201.812 103.388 L 201.82 103.396 C 201.91 103.709 202.018 104.022 202.155 104.32 C 199.587 109.107 198.769 114.634 199.824 119.962 C 201.1 126.201 204.854 131.652 210.228 135.061 C 210.091 135.422 209.983 135.795 209.915 136.171 L 204.159 140.031 L 199.839 140.904 C 198.921 140.131 197.814 139.612 196.635 139.404 C 197.514 133.617 196.207 127.7 192.95 122.829 C 190.474 119.167 187.018 116.284 182.974 114.503 C 182.974 113.296 182.638 112.111 182.009 111.078 L 189.877 105.803 L 201.812 103.388 Z M 235.437 104.359 C 237.323 106.537 238.662 109.191 239.236 112.019 L 239.236 112.027 C 240.014 115.926 239.281 120.069 237.347 123.541 C 234.771 120.521 233.227 116.599 233.219 112.624 L 233.219 112.616 C 233.227 109.733 234.006 106.866 235.429 104.359 L 235.437 104.359 Z M 207.425 108.755 C 210.23 110.604 212.487 113.311 213.755 116.423 L 213.755 116.431 C 215.407 120.506 215.291 125.215 213.61 129.266 C 209.964 126.82 207.257 122.952 206.378 118.641 C 205.721 115.337 206.102 111.851 207.418 108.755 L 207.425 108.755 Z M 291.577 110.283 C 292.324 112.822 292.485 115.529 291.995 118.128 C 291.285 121.829 289.228 125.223 286.384 127.685 C 285.353 124.068 285.498 120.109 286.928 116.629 L 286.928 116.621 C 287.944 114.174 289.557 111.996 291.577 110.283 Z M 439.405 114.679 C 443.372 114.658 446.926 114.971 450.009 115.574 C 448.394 123.792 443.601 134.359 435.206 145.789 C 434.625 146.585 434.022 147.388 433.402 148.182 L 433.418 148.182 C 420.972 149.161 407.356 151.639 393.272 155.483 C 403.455 142.677 411.82 129.75 417.813 117.531 C 425.863 115.605 433.149 114.711 439.411 114.673 L 439.405 114.679 Z M 325.314 115.321 L 337.21 120.238 L 343.418 126.53 L 343.426 126.522 C 342.287 127.706 341.622 129.274 341.559 130.918 C 337.692 131.965 334.159 133.991 331.292 136.797 C 327.285 140.772 324.839 146.063 324.42 151.69 C 324.236 151.682 324.06 151.682 323.876 151.668 C 322.561 151.576 321.24 151.866 320.093 152.516 L 316.507 151.032 L 311.086 145.544 C 311.07 145.292 311.041 145.031 311.002 144.779 C 316.928 142.463 321.66 137.845 324.113 131.973 C 326.178 126.935 326.43 121.345 324.825 116.147 C 325.015 115.887 325.176 115.605 325.322 115.321 L 325.314 115.321 Z M 172.883 115.934 L 172.891 115.926 C 173.394 117.02 174.19 117.952 175.177 118.633 C 174.396 122.982 174.854 127.469 176.506 131.568 C 178.739 136.989 182.921 141.369 188.227 143.861 C 187.73 144.955 187.538 146.163 187.668 147.356 L 184.495 150.474 L 178.113 153.068 L 178.119 153.073 C 177.753 152.913 177.371 152.792 176.974 152.707 C 177.148 146.354 174.733 140.199 170.29 135.658 C 166.467 131.797 161.414 129.382 156.01 128.824 C 155.834 128.556 155.642 128.288 155.437 128.043 L 164.113 119.496 L 172.883 115.934 Z M 59.198 116.965 C 64.428 116.95 70.368 117.515 76.873 118.778 C 78.525 119.099 80.214 119.467 81.942 119.872 C 83.624 120.277 85.344 120.719 87.08 121.208 L 87.088 121.201 C 92.92 132.325 100.528 143.914 109.527 155.359 C 92.944 150.582 76.944 147.683 62.692 146.873 C 54.679 135.979 50.023 125.902 48.363 117.973 C 51.506 117.316 55.137 116.965 59.204 116.95 L 59.198 116.965 Z M 318.779 119.519 C 319.482 122.807 319.185 126.309 317.907 129.421 C 316.217 133.488 312.824 136.76 308.77 138.465 C 307.899 134.167 308.686 129.519 311.088 125.841 L 311.088 125.835 C 312.937 123.021 315.66 120.795 318.772 119.519 L 318.779 119.519 Z M 409.107 119.932 C 402.563 131.936 393.579 144.765 383.106 157.195 L 375.941 149.94 L 375.949 149.932 C 375.399 149.382 374.757 148.922 374.046 148.593 C 373.862 147.838 373.541 147.112 373.113 146.462 L 367.425 137.997 C 381.699 130.2 396.049 123.954 409.123 119.925 L 409.107 119.932 Z M 181.585 121.277 C 183.892 122.563 185.912 124.381 187.394 126.575 L 187.394 126.583 C 189.49 129.71 190.408 133.564 190.116 137.31 C 186.836 135.459 184.153 132.539 182.724 129.045 C 181.73 126.591 181.356 123.907 181.585 121.277 Z M 96.234 124.044 C 107.417 127.861 119.346 133.112 131.226 139.412 L 125.637 147.944 L 125.644 147.944 C 125.621 147.983 125.599 148.022 125.584 148.059 C 125.537 148.098 125.5 148.135 125.468 148.167 L 118.205 155.322 C 109.689 144.918 102.19 134.259 96.248 124.046 L 96.234 124.044 Z M 149.506 132.883 L 149.514 132.883 C 149.72 133.143 149.941 133.38 150.178 133.609 C 149.636 139.015 150.982 144.442 153.994 148.961 C 157.556 154.244 163.107 157.845 169.384 158.953 C 169.391 159.197 169.415 159.45 169.444 159.702 L 165.217 166.155 L 161.997 168.312 L 162.005 168.312 C 160.745 167.899 159.398 167.868 158.122 168.228 C 157.946 168.273 157.77 168.312 157.594 168.357 C 156.065 162.922 152.624 158.221 147.915 155.109 C 144.551 152.923 140.683 151.637 136.685 151.371 C 136.295 149.772 135.338 148.372 133.986 147.441 L 138.826 140.046 L 149.506 132.883 Z M 352.427 133.893 L 359.827 138.723 L 367.006 149.404 L 367.014 149.404 C 366.754 149.611 366.509 149.832 366.28 150.069 C 360.875 149.527 355.455 150.879 350.936 153.891 C 345.661 157.448 342.06 162.998 340.95 169.259 C 340.684 169.267 340.424 169.291 340.164 169.328 L 333.758 165.139 L 331.564 161.875 L 331.564 161.881 C 331.969 160.628 331.998 159.289 331.646 158.021 C 331.601 157.845 331.564 157.677 331.517 157.501 C 336.96 155.98 341.671 152.539 344.781 147.822 C 346.969 144.458 348.253 140.59 348.521 136.584 C 350.11 136.193 351.502 135.238 352.435 133.885 L 352.427 133.893 Z M 156.74 135.703 C 160.042 136.347 163.154 137.983 165.516 140.375 L 165.524 140.383 C 168.605 143.518 170.294 147.914 170.294 152.302 C 165.99 151.431 162.015 148.893 159.553 145.245 C 157.687 142.448 156.709 139.076 156.74 135.711 L 156.74 135.703 Z M 249.317 137.768 L 255.349 138.907 C 255.715 142.585 255.999 146.231 256.212 149.824 L 256.22 149.824 C 252.948 162.875 250.906 175.405 250.196 186.835 C 249.415 173.784 246.939 159.327 242.894 144.311 C 243.017 142.538 243.146 140.765 243.306 138.976 L 249.317 137.768 Z M 341.594 137.96 C 341.203 140.162 340.379 142.287 339.162 144.16 C 337.296 147.004 334.507 149.198 331.348 150.474 C 331.977 147.133 333.574 143.976 335.989 141.583 L 335.989 141.577 C 337.588 140.009 339.506 138.778 341.594 137.952 L 341.594 137.96 Z M 228.451 139.857 L 234.589 139.857 C 235.102 141.606 235.599 143.35 236.073 145.092 L 236.073 145.084 C 235.094 160.567 235.531 175.199 237.357 188.111 C 234.36 177.11 229.88 165.319 224.108 153.271 C 223.588 149.625 223.138 145.918 222.762 142.156 L 228.451 139.857 Z M 266.012 139.857 L 271.836 139.857 L 277.226 142.08 C 276.982 144.511 276.708 146.92 276.408 149.306 L 276.408 149.29 C 269.963 162.693 265.055 175.828 261.937 187.976 C 263.366 176.669 263.718 164.061 262.992 150.721 C 263.908 147.12 264.918 143.489 266.02 139.841 L 266.012 139.857 Z M 286.226 144.755 L 291.95 145.842 L 296.83 149.03 C 295.307 154.183 293.663 159.213 291.913 164.077 L 291.913 164.061 C 280.147 180.321 271.639 196.278 267.272 210.3 C 266.478 211.247 265.681 212.157 264.894 213.02 C 264.902 212.662 264.926 212.294 264.933 211.928 C 273.388 196.973 279.689 175.751 282.914 151.339 C 283.985 149.145 285.087 146.943 286.226 144.749 L 286.226 144.755 Z M 212.495 145.2 C 214.252 148.488 215.92 151.768 217.501 155.038 L 217.509 155.031 C 219.466 168.349 222.365 180.703 226.064 191.536 C 220.582 180.253 213.152 168.363 204.182 156.512 C 203.411 154.234 202.669 151.919 201.951 149.586 L 206.789 146.337 L 212.495 145.2 Z M 55.491 153.273 C 56.707 153.281 57.959 153.312 59.222 153.357 L 59.229 153.342 C 67.532 164.137 78.296 175.176 90.828 185.727 C 76.278 184.741 62.457 185.001 50.079 186.492 C 49.306 185.819 48.551 185.146 47.809 184.474 C 37.319 174.933 30.537 165.521 27.327 157.784 C 34.099 154.978 43.711 153.212 55.493 153.257 L 55.491 153.273 Z M 68.281 153.983 C 81.89 155.346 97.195 158.632 112.723 163.448 L 108.824 172.868 L 108.824 172.861 C 108.533 173.579 108.364 174.352 108.335 175.131 C 107.699 175.597 107.157 176.17 106.728 176.82 L 101.14 185.353 C 88.411 175.238 77.073 164.443 68.281 153.97 L 68.281 153.983 Z M 193.657 154.007 C 195.177 155.896 196.661 157.792 198.113 159.687 L 198.113 159.673 C 206.126 183.099 216.554 202.77 227.86 215.797 C 227.929 216.095 228.013 216.4 228.076 216.698 C 227.097 215.987 226.103 215.224 225.101 214.427 L 225.101 214.419 C 218.059 201.6 206.631 187.714 191.973 174.168 C 189.274 169.711 186.636 165.071 184.108 160.278 L 188.259 156.187 L 193.657 154.007 Z M 445.018 154.336 C 456.806 154.351 466.41 156.177 473.16 159.015 C 470.017 166.461 463.535 175.46 453.604 184.604 L 453.612 184.588 C 440.109 182.752 424.698 182.478 408.368 183.786 C 419.398 174.258 429.047 164.351 436.8 154.588 C 437.823 154.518 438.833 154.465 439.833 154.428 C 441.608 154.351 443.335 154.32 445.018 154.32 L 445.018 154.336 Z M 307.778 154.696 L 312.7 156.729 L 316.441 160.52 C 314.834 163.517 313.19 166.461 311.516 169.336 L 311.524 169.32 C 294.223 184.901 280.967 201.101 273.512 215.764 C 273.175 216.016 272.846 216.269 272.51 216.514 C 272.762 215.498 273.046 214.449 273.351 213.394 L 273.351 213.386 C 282.503 201.98 290.966 186.093 297.877 167.361 C 300.981 163.125 304.29 158.882 307.784 154.686 L 307.778 154.696 Z M 371.86 155.338 L 380.415 164.006 L 383.993 172.784 L 383.993 172.769 C 382.899 173.273 381.967 174.068 381.286 175.062 C 376.937 174.281 372.457 174.749 368.359 176.399 C 362.945 178.632 358.557 182.807 356.066 188.105 C 354.964 187.6 353.748 187.402 352.541 187.539 L 349.452 184.412 L 346.83 177.982 C 346.982 177.622 347.104 177.249 347.188 176.875 C 353.549 177.049 359.712 174.642 364.261 170.185 C 368.122 166.355 370.537 161.307 371.081 155.896 C 371.355 155.719 371.616 155.528 371.86 155.322 L 371.86 155.338 Z M 427.44 155.49 C 419.267 164.901 409.213 174.505 398.059 183.586 L 392.372 175.123 L 392.372 175.107 C 392.211 174.878 392.035 174.647 391.851 174.442 C 391.775 174.166 391.69 173.892 391.583 173.624 L 387.731 164.182 C 401.492 159.992 415.071 157.003 427.44 155.475 L 427.44 155.49 Z M 126.621 156.453 L 126.621 156.446 C 127.805 157.585 129.365 158.25 131.009 158.311 C 132.056 162.18 134.082 165.719 136.881 168.578 C 140.864 172.592 146.154 175.039 151.789 175.452 C 151.781 175.628 151.781 175.812 151.767 175.986 L 151.773 175.986 C 151.683 177.301 151.972 178.609 152.614 179.756 L 151.109 183.388 L 145.649 188.763 L 145.657 188.763 C 145.383 188.77 145.115 188.8 144.854 188.847 C 142.539 182.928 137.912 178.204 132.048 175.757 C 127.018 173.686 121.429 173.434 116.23 175.031 C 115.97 174.849 115.688 174.681 115.397 174.534 L 120.321 162.646 L 126.621 156.453 Z M 364.223 156.645 C 363.589 159.947 361.953 163.059 359.559 165.429 C 356.424 168.51 352.014 170.207 347.624 170.199 C 348.497 165.903 351.036 161.928 354.682 159.473 L 354.69 159.466 C 357.487 157.593 360.859 156.606 364.231 156.645 L 364.223 156.645 Z M 138.051 158.289 C 140.253 158.687 142.378 159.505 144.251 160.728 L 144.259 160.728 C 147.103 162.593 149.289 165.376 150.565 168.525 C 147.218 167.899 144.052 166.3 141.66 163.877 C 140.092 162.28 138.869 160.36 138.051 158.281 L 138.051 158.289 Z M 324.512 167.102 L 328.969 170.017 L 331.943 174.436 C 328.54 178.664 325.062 182.731 321.553 186.59 L 321.545 186.584 C 304.48 197.11 290.535 208.603 281.155 219.888 C 280.207 220.377 279.274 220.851 278.35 221.285 C 278.54 220.866 278.747 220.438 278.953 220.009 C 291.766 209.81 304.917 193.708 316.689 173.81 C 319.22 171.547 321.835 169.306 324.51 167.097 L 324.512 167.102 Z M 174.519 168.005 C 178.747 171.416 182.806 174.902 186.668 178.419 L 186.668 178.403 C 197.172 195.476 208.647 209.421 219.916 218.815 C 220.405 219.762 220.879 220.704 221.316 221.628 C 220.895 221.438 220.466 221.223 220.045 221.025 L 220.045 221.017 C 209.862 208.196 193.768 195.032 173.875 183.241 C 171.621 180.703 169.38 178.096 167.17 175.413 L 170.092 170.956 L 174.519 168.005 Z M 123.441 180.719 C 125.511 180.758 127.576 181.179 129.496 181.965 L 129.504 181.965 C 133.563 183.649 136.836 187.042 138.54 191.086 C 134.236 191.967 129.58 191.17 125.895 188.77 C 123.081 186.919 120.871 184.198 119.587 181.087 C 120.849 180.818 122.149 180.697 123.441 180.719 Z M 111.827 181.308 L 111.827 181.292 C 112.118 181.453 112.416 181.592 112.721 181.705 C 114.328 186.897 117.683 191.37 122.217 194.366 C 127.553 197.838 134.074 198.991 140.274 197.562 C 140.437 197.907 140.627 198.243 140.842 198.556 L 139.54 205.375 L 137.125 209.061 L 137.133 209.061 C 135.933 209.168 134.786 209.589 133.816 210.284 C 130.314 205.591 125.183 202.371 119.426 201.263 C 115.083 200.459 110.603 200.887 106.499 202.516 C 105.634 201.668 104.556 201.079 103.38 200.795 L 105.153 191.491 L 111.827 181.308 Z M 376.947 181.408 C 377.52 181.4 378.094 181.423 378.667 181.476 C 377.391 183.786 375.571 185.803 373.377 187.287 C 370.242 189.381 366.382 190.307 362.628 190.009 C 364.478 186.737 367.39 184.054 370.878 182.631 L 370.886 182.631 C 372.804 181.852 374.876 181.447 376.947 181.415 L 376.947 181.408 Z M 388.858 181.897 L 394.141 189.765 L 396.566 201.698 L 396.558 201.69 C 396.245 201.774 395.93 201.889 395.632 202.026 C 390.839 199.466 385.312 198.641 379.983 199.703 C 373.751 200.979 368.308 204.725 364.899 210.092 C 364.531 209.955 364.149 209.847 363.759 209.771 L 359.914 204.052 L 359.027 199.688 L 359.035 199.688 C 359.806 198.785 360.319 197.683 360.526 196.515 C 366.321 197.402 372.238 196.094 377.115 192.837 C 380.769 190.36 383.66 186.897 385.433 182.852 C 386.641 182.844 387.819 182.507 388.858 181.889 L 388.858 181.897 Z M 160.572 183.48 C 163.569 185.085 166.512 186.729 169.38 188.41 L 169.38 188.395 C 184.945 205.704 201.131 218.976 215.779 226.452 C 216.031 226.789 216.291 227.125 216.528 227.454 C 215.511 227.202 214.471 226.92 213.416 226.613 C 202.018 217.447 186.137 208.969 167.407 202.04 C 163.179 198.93 158.936 195.619 154.738 192.125 L 156.779 187.201 L 160.572 183.48 Z M 339.655 184.038 L 343.745 188.181 L 345.947 193.579 C 344.058 195.1 342.162 196.591 340.267 198.044 L 340.267 198.028 C 316.85 206.064 297.186 216.514 284.174 227.836 C 283.875 227.904 283.578 227.989 283.28 228.051 C 283.99 227.073 284.756 226.07 285.558 225.068 C 298.364 218.021 312.24 206.575 325.772 191.904 C 330.221 189.197 334.862 186.561 339.657 184.022 L 339.655 184.038 Z M 429.311 189.749 C 435.39 189.757 441.223 190.015 446.728 190.528 C 436.093 199.13 422.898 207.554 408.464 215.046 L 404.61 205.604 L 404.61 205.589 C 404.31 204.87 403.892 204.205 403.363 203.624 C 403.486 202.852 403.471 202.064 403.318 201.293 L 401.29 191.299 C 410.916 190.252 420.365 189.726 429.309 189.733 L 429.311 189.749 Z M 455.702 191.646 C 456.965 191.843 458.209 192.051 459.419 192.288 C 470.994 194.497 480.091 198.075 486.201 202.118 C 481.566 209.098 473.111 217.034 460.987 224.389 C 460.397 224.742 459.8 225.092 459.196 225.452 L 459.19 225.436 C 447.363 221.583 433.846 218.67 419.357 216.852 C 433.308 209.029 445.687 200.445 455.694 191.63 L 455.702 191.646 Z M 73.366 191.89 C 81.302 191.904 89.589 192.325 98.023 193.143 L 96.118 203.166 L 96.112 203.144 C 96.058 203.418 96.028 203.694 96.013 203.976 C 95.868 204.228 95.737 204.481 95.629 204.749 L 91.73 214.167 C 79.001 207.469 67.242 200.054 57.372 192.438 C 62.48 192.049 67.831 191.857 73.358 191.865 L 73.366 191.89 Z M 47.991 193.44 L 47.983 193.427 C 57.517 201.477 68.939 209.29 81.653 216.455 C 65.414 218.404 50.377 221.714 37.516 226.178 C 25.957 219.168 17.8 211.63 13.243 204.933 C 20.17 200.224 31.003 196.081 45.008 193.855 C 45.987 193.703 46.981 193.558 47.983 193.421 L 47.991 193.44 Z M 350.376 201.866 L 353.625 206.706 L 354.78 212.417 C 351.318 214.275 347.846 216.034 344.397 217.7 L 344.397 217.684 C 330.767 219.71 318.167 222.722 307.195 226.575 C 318.862 221.048 331.21 213.396 343.518 204.068 C 345.775 203.305 348.061 202.563 350.368 201.85 L 350.376 201.866 Z M 149.08 203.074 C 154.233 204.596 159.263 206.254 164.127 208.006 L 164.119 207.998 C 180.365 219.772 196.313 228.296 210.318 232.676 C 211.265 233.471 212.183 234.273 213.039 235.062 C 212.68 235.054 212.313 235.03 211.954 235.023 C 197.015 226.552 175.786 220.23 151.381 216.979 C 149.187 215.911 146.991 214.809 144.797 213.662 L 145.892 207.935 L 149.08 203.074 Z M 250.159 203.618 L 250.151 203.602 C 250.282 205.107 250.442 206.575 250.632 208.006 C 250.35 208.824 250.067 209.626 249.769 210.407 C 249.669 210.147 249.569 209.871 249.472 209.603 L 249.472 209.595 C 249.753 207.669 249.982 205.667 250.151 203.602 L 250.159 203.618 Z M 258.782 204.451 L 258.782 204.436 C 258.576 206.317 258.439 208.143 258.355 209.924 C 258.163 210.245 257.964 210.574 257.774 210.889 C 257.659 210.192 257.551 209.474 257.445 208.747 C 257.911 207.356 258.361 205.917 258.782 204.436 L 258.782 204.451 Z M 240.733 204.549 L 240.725 204.541 C 241.298 206.506 241.909 208.395 242.559 210.208 C 242.506 210.513 242.459 210.834 242.406 211.133 C 241.978 210.452 241.559 209.755 241.138 209.037 C 241.038 207.569 240.901 206.072 240.725 204.541 L 240.733 204.549 Z M 384.41 205.964 C 386.741 205.941 389.072 206.401 391.221 207.317 C 389.371 210.123 386.672 212.378 383.56 213.656 C 379.485 215.306 374.761 215.192 370.709 213.509 C 373.156 209.871 377.015 207.172 381.321 206.293 L 381.327 206.293 C 382.345 206.086 383.376 205.988 384.418 205.972 L 384.41 205.964 Z M 232.438 207.072 L 232.43 207.058 C 233.125 208.403 233.836 209.703 234.564 210.957 C 234.609 211.713 234.648 212.462 234.669 213.196 C 234.44 212.951 234.204 212.685 233.975 212.433 C 233.53 210.681 233.012 208.892 232.43 207.058 L 232.438 207.072 Z M 115.107 207.577 C 116.138 207.577 117.178 207.669 118.195 207.861 L 118.203 207.861 C 121.902 208.571 125.29 210.62 127.752 213.464 C 124.128 214.496 120.168 214.359 116.681 212.922 C 114.242 211.904 112.064 210.284 110.351 208.274 C 111.895 207.822 113.5 207.585 115.115 207.577 L 115.107 207.577 Z M 398.801 209.016 L 403.297 220.031 L 403.289 229.779 L 403.273 229.772 C 402.248 229.824 401.24 230.116 400.345 230.621 C 396.515 228.067 392.027 226.691 387.424 226.667 C 381.484 226.691 375.773 228.961 371.445 233.02 C 370.651 232.265 369.696 231.713 368.639 231.416 L 366.897 227.141 L 366.905 220.498 C 367.218 220.199 367.507 219.864 367.76 219.504 C 373.571 222.103 380.192 222.227 386.093 219.849 C 391.125 217.784 395.284 214.03 397.852 209.237 C 398.173 209.184 398.486 209.106 398.793 209.008 L 398.801 209.016 Z M 100.448 210.705 L 100.44 210.697 C 101.571 211.102 102.786 211.194 103.971 210.965 C 106.517 214.58 110.026 217.402 114.109 219.107 C 119.538 221.324 125.592 221.43 131.089 219.404 C 131.526 220.52 132.244 221.506 133.184 222.248 L 133.176 226.699 L 130.539 233.06 L 130.547 233.067 C 130.171 233.22 129.819 233.402 129.484 233.617 C 125.081 229.038 119.01 226.431 112.649 226.407 C 107.214 226.415 101.953 228.311 97.757 231.774 C 97.441 231.697 97.12 231.652 96.792 231.629 L 96.807 219.451 L 100.448 210.705 Z M 90.118 222.395 L 90.11 232.592 L 90.096 232.586 C 90.096 233.365 90.233 234.136 90.509 234.872 C 90.104 235.543 89.82 236.277 89.667 237.05 L 87.763 247.065 C 72.137 242.577 57.534 236.927 45.408 230.597 C 58.505 226.66 73.908 223.855 90.102 222.379 L 90.118 222.395 Z M 142.128 222.661 C 144.561 222.906 146.968 223.182 149.354 223.487 L 149.338 223.479 C 163.23 230.177 176.831 235.222 189.339 238.326 C 177.878 236.774 165.035 236.346 151.403 237.066 C 147.596 236.093 143.75 235.03 139.881 233.862 L 139.889 228.036 L 142.128 222.661 Z M 409.988 222.7 C 424.683 224.068 438.727 226.53 450.974 229.932 C 439.636 235.688 426.356 240.881 412.219 245.124 L 410.194 235.13 L 410.186 235.13 C 410.11 234.756 409.996 234.389 409.857 234.038 C 409.926 233.655 409.965 233.273 409.965 232.899 L 409.988 222.7 Z M 357.917 222.876 L 360.195 228.464 L 360.19 234.488 C 358.225 235.07 356.275 235.62 354.324 236.148 L 354.31 236.14 C 338.506 235.169 323.614 235.667 310.557 237.624 C 321.735 234.68 333.768 230.169 346.092 224.305 C 349.959 223.747 353.905 223.266 357.911 222.869 L 357.917 222.876 Z M 247.841 228.043 L 247.828 228.036 C 248.554 228.701 249.28 229.327 250.014 229.901 C 250.701 229.366 251.39 228.785 252.071 228.167 C 252.621 228.901 253.179 229.595 253.752 230.253 C 254.607 229.817 255.472 229.327 256.335 228.793 C 256.756 229.711 257.208 230.59 257.682 231.423 C 258.522 231.187 259.379 230.911 260.242 230.605 C 260.473 231.492 260.723 232.347 260.999 233.173 C 262.017 233.097 263.049 232.968 264.104 232.791 C 264.135 233.846 264.203 234.878 264.309 235.88 C 265.19 235.995 266.084 236.072 267.008 236.117 C 266.863 237.027 266.756 237.913 266.687 238.792 C 267.613 239.092 268.576 239.358 269.57 239.602 C 269.202 240.552 268.889 241.483 268.615 242.409 C 269.386 242.846 270.181 243.266 271.022 243.664 C 270.541 244.443 270.104 245.229 269.699 246.002 C 270.425 246.621 271.19 247.226 272.001 247.815 C 271.322 248.541 270.693 249.275 270.104 250.017 C 270.648 250.711 271.222 251.4 271.84 252.087 C 271.106 252.631 270.412 253.189 269.746 253.755 C 270.188 254.618 270.678 255.483 271.206 256.346 C 270.288 256.775 269.409 257.217 268.568 257.685 C 268.813 258.532 269.088 259.39 269.394 260.253 C 268.507 260.482 267.652 260.726 266.818 261.002 C 266.902 262.02 267.031 263.052 267.2 264.106 C 266.145 264.138 265.113 264.206 264.111 264.312 C 263.996 265.185 263.92 266.087 263.867 267.003 C 262.964 266.866 262.07 266.758 261.199 266.682 C 260.892 267.608 260.626 268.571 260.381 269.565 C 259.432 269.199 258.5 268.884 257.574 268.61 C 257.138 269.373 256.719 270.178 256.32 271.009 C 255.533 270.536 254.762 270.093 253.981 269.696 C 253.37 270.407 252.773 271.156 252.192 271.951 C 251.474 271.285 250.748 270.667 250.014 270.086 C 249.317 270.628 248.63 271.209 247.949 271.828 C 247.407 271.094 246.849 270.399 246.276 269.741 C 245.41 270.178 244.555 270.667 243.69 271.193 C 243.263 270.283 242.811 269.405 242.346 268.571 C 241.496 268.808 240.649 269.084 239.784 269.389 C 239.555 268.502 239.302 267.647 239.02 266.821 C 238.01 266.905 236.971 267.027 235.916 267.203 C 235.885 266.148 235.816 265.116 235.709 264.114 C 234.838 263.999 233.935 263.922 233.018 263.877 C 233.157 262.967 233.262 262.081 233.331 261.202 C 232.407 260.903 231.45 260.636 230.458 260.392 C 230.816 259.442 231.129 258.511 231.405 257.585 C 230.64 257.149 229.837 256.73 229.003 256.331 C 229.479 255.552 229.913 254.773 230.319 253.992 C 229.592 253.373 228.829 252.768 228.017 252.179 C 228.698 251.453 229.324 250.719 229.913 249.978 C 229.379 249.283 228.798 248.594 228.177 247.915 C 228.911 247.363 229.608 246.813 230.274 246.239 C 229.829 245.376 229.34 244.511 228.806 243.648 C 229.729 243.219 230.61 242.777 231.442 242.309 C 231.205 241.462 230.931 240.605 230.618 239.741 C 231.512 239.512 232.368 239.268 233.202 238.992 C 233.117 237.976 232.988 236.943 232.812 235.888 C 233.875 235.858 234.906 235.788 235.908 235.682 C 236.022 234.809 236.098 233.907 236.153 232.991 C 237.055 233.128 237.942 233.236 238.821 233.312 C 239.118 232.386 239.394 231.423 239.639 230.429 C 240.578 230.797 241.52 231.11 242.445 231.384 C 242.88 230.621 243.301 229.819 243.698 228.985 C 244.479 229.458 245.258 229.901 246.037 230.3 C 246.649 229.588 247.246 228.832 247.828 228.036 L 247.841 228.043 Z M 293.606 232.142 L 293.592 232.134 C 292.054 232.907 290.572 233.702 289.15 234.504 C 288.355 234.557 287.566 234.596 286.795 234.619 C 287.055 234.375 287.329 234.13 287.598 233.878 L 287.605 233.886 C 289.547 233.388 291.551 232.799 293.592 232.134 L 293.606 232.142 Z M 459.883 232.684 C 460.564 232.921 461.245 233.152 461.916 233.396 C 475.258 238.213 485.113 244.321 491.029 250.246 C 485.305 255.957 475.9 261.82 463.247 266.529 L 463.233 266.516 C 451.672 259.84 437.829 253.855 422.577 248.938 C 436.391 244.29 449.044 238.778 459.871 232.676 L 459.883 232.684 Z M 112.659 233.105 L 112.666 233.105 C 117.062 233.112 121.382 235.001 124.494 238.082 C 120.855 240.536 116.244 241.583 111.925 240.765 C 108.623 240.131 105.534 238.458 103.164 236.072 C 105.94 234.167 109.288 233.105 112.659 233.105 Z M 387.408 233.373 L 387.416 233.373 C 390.215 233.381 393.006 234.122 395.452 235.467 C 393.311 237.271 390.735 238.548 387.989 239.115 C 384.159 239.878 380.1 239.184 376.667 237.332 C 379.664 234.848 383.509 233.373 387.4 233.373 L 387.408 233.373 Z M 36.798 233.48 L 36.79 233.48 C 48.359 240.154 62.194 246.139 77.447 251.056 C 63.633 255.704 50.98 261.218 40.153 267.318 C 39.474 267.081 38.792 266.85 38.127 266.614 C 24.795 261.797 14.925 255.689 9.006 249.764 C 14.733 244.053 24.137 238.189 36.788 233.48 L 36.798 233.48 Z M 96.079 239.244 L 96.071 239.244 C 96.4 239.281 96.729 239.297 97.058 239.281 C 100.522 243.472 105.331 246.323 110.666 247.355 C 116.921 248.525 123.388 247.104 128.58 243.411 C 128.893 243.709 129.238 243.977 129.604 244.206 L 130.927 250.711 L 130.064 255.246 C 129.099 255.743 128.275 256.469 127.654 257.356 C 122.593 254.229 116.538 253.142 110.705 254.313 C 106.194 255.238 102.058 257.47 98.809 260.734 C 97.839 260.421 96.797 260.329 95.782 260.482 L 93.848 250.933 L 96.079 239.244 Z M 401.224 239.26 L 401.216 239.26 C 402.195 239.573 403.228 239.665 404.244 239.512 L 406.179 249.054 L 403.954 260.742 L 403.954 260.75 C 403.625 260.713 403.297 260.697 402.96 260.713 C 399.498 256.53 394.695 253.671 389.359 252.639 C 383.114 251.461 376.653 252.876 371.461 256.546 C 371.14 256.241 370.79 255.972 370.414 255.736 L 369.106 249.283 L 369.979 244.703 C 370.927 244.206 371.745 243.487 372.363 242.617 C 377.417 245.75 383.48 246.852 389.32 245.681 C 393.832 244.756 397.967 242.525 401.218 239.26 L 401.224 239.26 Z M 296.162 240.552 L 296.154 240.552 C 293.96 241.162 291.866 241.82 289.864 242.525 C 289.565 242.478 289.259 242.433 288.962 242.378 C 289.68 241.928 290.43 241.477 291.201 241.033 C 292.813 240.926 294.465 240.765 296.154 240.552 L 296.162 240.552 Z M 203.762 241.11 L 203.754 241.117 C 205.903 241.37 207.997 241.554 210.025 241.659 C 210.322 241.843 210.627 242.02 210.919 242.204 C 210.138 242.333 209.343 242.456 208.525 242.562 L 208.518 242.562 C 206.989 242.049 205.398 241.567 203.754 241.117 L 203.762 241.11 Z M 355.046 242.945 C 357.05 243.075 359.06 243.227 361.078 243.411 L 362.28 249.32 L 361.154 255.238 C 357.264 255.628 353.404 255.933 349.595 256.149 L 349.587 256.162 C 336.216 252.837 323.418 250.811 311.812 250.177 C 325.015 249.504 339.725 247.042 355.038 242.951 L 355.046 242.945 Z M 150.442 243.832 L 150.434 243.832 C 163.806 247.157 176.604 249.183 188.218 249.817 C 175.014 250.49 160.304 252.945 144.983 257.043 C 142.981 256.912 140.971 256.759 138.951 256.575 L 137.752 250.666 L 138.883 244.742 C 142.776 244.351 146.635 244.045 150.436 243.832 L 150.442 243.832 Z M 207.903 249.375 C 208.729 249.657 209.539 249.94 210.328 250.238 C 210.028 250.353 209.715 250.467 209.41 250.582 L 209.41 250.574 C 207.322 250.277 205.159 250.04 202.912 249.872 C 204.625 249.749 206.282 249.58 207.895 249.375 L 207.903 249.375 Z M 290.618 249.42 C 292.698 249.717 294.861 249.956 297.109 250.122 C 295.397 250.246 293.729 250.414 292.117 250.619 C 291.291 250.338 290.488 250.054 289.702 249.756 C 289.999 249.641 290.312 249.527 290.618 249.412 L 290.618 249.42 Z M 412.268 252.929 C 427.896 257.417 442.497 263.067 454.624 269.397 C 441.528 273.335 426.129 276.133 409.929 277.607 L 409.937 267.41 L 409.929 267.41 C 409.929 266.629 409.792 265.858 409.524 265.124 C 409.922 264.451 410.205 263.717 410.358 262.944 L 412.268 252.929 Z M 87.806 254.87 L 89.834 264.864 L 89.826 264.872 C 89.91 265.246 90.016 265.613 90.155 265.964 C 90.092 266.34 90.055 266.721 90.047 267.103 L 90.039 277.302 C 75.345 275.934 61.3 273.479 49.046 270.078 C 60.384 264.32 73.664 259.129 87.8 254.878 L 87.806 254.87 Z M 291.51 257.432 L 291.502 257.44 C 293.033 257.945 294.614 258.427 296.25 258.877 C 294.103 258.624 292.015 258.442 289.989 258.335 C 289.692 258.151 289.384 257.975 289.095 257.798 C 289.874 257.669 290.678 257.554 291.496 257.44 L 291.51 257.432 Z M 210.158 257.464 C 210.457 257.509 210.762 257.554 211.052 257.609 C 210.334 258.059 209.584 258.511 208.813 258.953 L 208.813 258.961 C 207.2 259.076 205.548 259.237 203.859 259.442 C 206.053 258.832 208.148 258.174 210.15 257.47 L 210.158 257.464 Z M 384.768 258.945 C 385.878 258.924 386.993 259.008 388.095 259.213 L 388.101 259.213 C 391.405 259.848 394.501 261.523 396.871 263.907 C 394.096 265.811 390.747 266.874 387.383 266.874 C 382.987 266.858 378.66 264.962 375.54 261.873 C 378.254 260.055 381.503 259.008 384.776 258.938 L 384.768 258.945 Z M 115.361 260.56 C 118.137 260.589 120.904 261.315 123.351 262.631 C 120.354 265.124 116.508 266.606 112.602 266.614 C 109.803 266.606 107.022 265.866 104.568 264.519 C 106.707 262.715 109.292 261.439 112.036 260.873 L 112.044 260.873 C 113.138 260.65 114.254 260.552 115.361 260.56 Z M 310.69 261.668 L 310.683 261.668 C 322.136 263.22 334.987 263.648 348.611 262.928 C 352.42 263.901 356.265 264.964 360.133 266.132 L 360.125 271.966 L 357.894 277.349 C 355.461 277.104 353.054 276.828 350.668 276.523 L 350.684 276.515 C 336.791 269.817 323.191 264.772 310.683 261.668 L 310.69 261.668 Z M 189.466 262.37 L 189.458 262.37 C 178.283 265.314 166.24 269.825 153.916 275.689 C 150.049 276.247 146.103 276.728 142.104 277.126 L 139.826 271.546 L 139.834 265.514 C 141.799 264.932 143.748 264.382 145.698 263.854 C 161.508 264.825 176.402 264.328 189.458 262.37 L 189.466 262.37 Z M 286.973 264.932 C 287.333 264.94 287.693 264.956 288.052 264.97 C 302.991 273.442 324.215 279.764 348.625 283.013 C 350.819 284.083 353.013 285.185 355.214 286.332 L 354.122 292.057 L 350.934 296.928 C 345.781 295.406 340.751 293.748 335.895 291.996 L 335.895 292.004 C 319.648 280.216 303.693 271.698 289.68 267.318 C 288.741 266.524 287.823 265.729 286.967 264.932 L 286.973 264.932 Z M 213.219 265.375 C 212.96 265.619 212.684 265.864 212.416 266.109 L 212.408 266.109 C 210.459 266.606 208.457 267.195 206.416 267.86 C 207.952 267.087 209.435 266.3 210.856 265.49 C 211.659 265.437 212.448 265.398 213.219 265.377 L 213.219 265.375 Z M 370.527 266.347 L 370.52 266.34 C 374.923 270.941 380.994 273.556 387.363 273.587 C 392.798 273.579 398.067 271.683 402.263 268.226 C 402.576 268.297 402.891 268.342 403.212 268.365 L 403.197 280.543 L 399.572 289.297 C 398.441 288.892 397.218 288.8 396.041 289.029 C 393.495 285.414 389.978 282.592 385.903 280.887 C 380.482 278.67 374.434 278.556 368.938 280.566 C 368.51 279.435 367.776 278.441 366.828 277.691 L 366.836 273.295 L 369.488 266.882 C 369.848 266.729 370.191 266.553 370.52 266.34 L 370.527 266.347 Z M 128.58 266.95 L 128.572 266.942 C 129.361 267.684 130.308 268.234 131.348 268.534 L 133.115 272.853 L 133.107 279.443 C 132.778 279.748 132.487 280.093 132.228 280.459 C 126.418 277.875 119.812 277.768 113.917 280.146 C 108.895 282.21 104.736 285.964 102.166 290.75 C 101.845 290.804 101.532 290.889 101.219 290.986 L 96.723 279.971 L 96.731 270.23 L 96.739 270.223 C 97.77 270.17 98.772 269.878 99.667 269.373 C 103.497 271.927 107.985 273.303 112.586 273.319 C 118.536 273.295 124.245 271.017 128.58 266.942 L 128.58 266.95 Z M 216.714 271.951 C 216.004 272.929 215.238 273.924 214.444 274.924 L 214.436 274.924 C 201.622 281.974 187.746 293.419 174.214 308.096 C 169.765 310.803 165.125 313.441 160.338 315.972 L 156.241 311.821 L 154.039 306.423 C 155.926 304.902 157.815 303.411 159.711 301.966 L 159.719 301.966 C 183.137 293.93 202.801 283.479 215.812 272.164 C 216.109 272.094 216.417 272.01 216.714 271.949 L 216.714 271.951 Z M 283.458 272.548 C 284.476 272.798 285.523 273.082 286.578 273.387 C 297.977 282.547 313.857 291.026 332.58 297.952 C 336.807 301.064 341.05 304.374 345.248 307.869 L 343.207 312.791 L 339.414 316.53 C 336.418 314.925 333.474 313.281 330.607 311.599 C 315.041 294.29 298.855 281.011 284.2 273.542 C 283.947 273.205 283.697 272.877 283.458 272.54 L 283.458 272.548 Z M 192.809 273.427 L 192.809 273.419 C 181.142 278.938 168.789 286.591 156.48 295.926 C 154.225 296.69 151.939 297.424 149.63 298.144 L 146.381 293.304 L 145.226 287.593 C 148.69 285.735 152.16 283.976 155.609 282.31 L 155.601 282.31 C 169.233 280.285 181.839 277.265 192.811 273.419 L 192.809 273.427 Z M 462.47 273.824 C 474.039 280.834 482.187 288.379 486.743 295.069 C 479.817 299.778 468.984 303.921 454.978 306.147 C 453.999 306.299 453.013 306.444 452.013 306.583 L 452.013 306.568 C 442.479 298.518 431.057 290.703 418.343 283.539 C 434.582 281.59 449.619 278.278 462.472 273.814 L 462.47 273.824 Z M 40.795 274.558 C 52.63 278.411 66.146 281.324 80.633 283.144 C 66.674 290.965 54.295 299.549 44.288 308.374 C 30.94 306.264 20.542 302.364 13.799 297.899 C 18.426 290.92 26.889 282.983 39.006 275.628 C 39.595 275.268 40.2 274.918 40.802 274.566 L 40.795 274.558 Z M 278.671 278.372 C 279.092 278.564 279.52 278.77 279.949 278.977 C 290.132 291.797 306.226 304.963 326.111 316.753 C 328.366 319.283 330.607 321.898 332.814 324.574 L 329.894 329.03 L 325.469 331.997 C 321.24 328.586 317.18 325.1 313.321 321.591 L 313.327 321.591 C 302.815 304.52 291.34 290.573 280.07 281.179 C 279.581 280.232 279.107 279.29 278.673 278.374 L 278.671 278.372 Z M 221.637 278.717 C 221.447 279.138 221.239 279.564 221.034 279.985 C 208.228 290.176 195.07 306.286 183.297 326.192 C 180.767 328.449 178.16 330.688 175.484 332.905 L 171.026 329.993 L 168.053 325.574 C 171.462 321.346 174.94 317.279 178.449 313.41 L 178.449 313.402 C 195.506 302.882 209.443 291.392 218.824 280.114 C 219.773 279.625 220.713 279.143 221.638 278.715 L 221.637 278.717 Z M 271.897 283.304 C 272.876 284.015 273.87 284.78 274.872 285.583 L 274.88 285.583 C 281.914 298.396 293.342 312.288 307.999 325.826 C 310.706 330.283 313.335 334.923 315.865 339.716 L 311.714 343.807 L 306.316 346.001 C 304.795 344.114 303.312 342.218 301.86 340.313 C 293.847 316.896 283.419 297.224 272.112 284.197 C 272.044 283.899 271.96 283.594 271.899 283.295 L 271.897 283.304 Z M 227.471 283.486 C 227.218 284.504 226.937 285.543 226.631 286.598 L 226.639 286.598 C 217.479 298.005 209.017 313.899 202.106 332.637 C 199.002 336.865 195.69 341.108 192.204 345.314 L 187.28 343.28 L 183.542 339.487 C 185.147 336.491 186.791 333.547 188.466 330.672 L 188.458 330.672 C 205.76 315.091 219.016 298.899 226.471 284.234 C 226.807 283.982 227.144 283.723 227.473 283.486 L 227.471 283.486 Z M 91.515 284.962 L 95.369 294.406 C 95.666 295.132 96.087 295.789 96.615 296.369 C 96.492 297.142 96.516 297.929 96.668 298.702 L 98.694 308.693 C 82.526 310.453 66.874 310.75 53.258 309.482 C 63.893 300.88 77.089 292.454 91.515 284.964 L 91.515 284.962 Z M 122.975 285.17 C 125.139 285.207 127.287 285.659 129.283 286.485 C 126.836 290.131 122.975 292.846 118.663 293.732 C 115.369 294.398 111.874 294.014 108.777 292.699 C 110.629 289.886 113.328 287.64 116.446 286.362 L 116.454 286.362 C 118.518 285.52 120.751 285.138 122.983 285.177 L 122.975 285.17 Z M 408.254 285.835 C 420.976 292.533 432.735 299.948 442.605 307.564 C 430.175 308.511 416.275 308.266 401.962 306.883 L 403.866 296.868 L 403.874 296.86 C 403.919 296.584 403.95 296.302 403.966 296.018 C 404.111 295.774 404.24 295.513 404.355 295.247 L 408.254 285.835 Z M 376.794 285.864 C 379.02 285.835 381.253 286.232 383.316 287.088 L 383.323 287.088 C 385.762 288.105 387.95 289.726 389.663 291.736 C 387.124 292.478 384.418 292.638 381.818 292.149 C 378.117 291.439 374.724 289.382 372.269 286.53 C 373.745 286.109 375.274 285.888 376.802 285.864 L 376.794 285.864 Z M 265.319 286.806 C 265.55 287.051 265.787 287.317 266.024 287.569 L 266.016 287.561 C 266.458 289.313 266.971 291.094 267.552 292.922 C 266.857 291.576 266.145 290.276 265.427 289.029 C 265.382 288.274 265.342 287.532 265.319 286.798 L 265.319 286.806 Z M 235.09 286.988 C 235.082 287.34 235.069 287.716 235.053 288.074 L 235.045 288.058 C 226.59 303.013 220.282 324.243 217.057 348.655 C 215.994 350.849 214.884 353.045 213.745 355.247 L 208.018 354.16 L 203.141 350.972 C 204.662 345.819 206.306 340.789 208.058 335.925 L 208.065 335.933 C 219.83 319.673 228.332 303.716 232.699 289.702 C 233.493 288.755 234.288 287.837 235.084 286.982 L 235.09 286.988 Z M 257.582 288.863 C 258.011 289.542 258.432 290.239 258.852 290.957 L 258.845 290.941 C 258.944 292.409 259.081 293.908 259.265 295.445 C 258.692 293.472 258.079 291.591 257.43 289.779 C 257.484 289.473 257.529 289.153 257.582 288.847 L 257.582 288.863 Z M 242.232 289.113 C 242.346 289.81 242.453 290.521 242.553 291.239 L 242.553 291.231 C 242.077 292.623 241.635 294.061 241.214 295.545 C 241.414 293.67 241.559 291.851 241.643 290.078 C 241.841 289.755 242.032 289.421 242.232 289.106 L 242.232 289.113 Z M 250.221 289.597 C 250.319 289.855 250.419 290.131 250.519 290.399 L 250.519 290.391 C 250.235 292.317 250.006 294.314 249.838 296.376 C 249.708 294.879 249.548 293.411 249.356 291.981 C 249.64 291.163 249.922 290.36 250.221 289.581 L 250.221 289.597 Z M 366.177 289.687 L 366.177 289.679 C 369.67 294.39 374.8 297.615 380.556 298.731 C 384.899 299.543 389.379 299.107 393.493 297.478 C 394.356 298.32 395.427 298.915 396.603 299.199 L 394.83 308.503 L 388.156 318.694 C 387.866 318.534 387.567 318.395 387.254 318.281 C 385.656 313.097 382.3 308.625 377.765 305.628 C 372.438 302.158 365.93 300.995 359.732 302.409 C 359.571 302.05 359.379 301.706 359.158 301.385 L 360.442 294.619 L 362.881 290.896 C 364.065 290.789 365.204 290.368 366.177 289.681 L 366.177 289.687 Z M 135.092 289.871 L 135.092 289.863 C 135.442 290.002 135.818 290.108 136.192 290.176 L 140.061 295.934 L 140.94 300.254 C 140.159 301.172 139.648 302.279 139.441 303.458 C 133.645 302.577 127.737 303.9 122.865 307.157 C 119.211 309.634 116.33 313.097 114.555 317.142 C 113.347 317.15 112.163 317.479 111.13 318.105 L 105.848 310.237 L 103.425 298.304 C 103.738 298.22 104.051 298.105 104.35 297.968 C 109.136 300.528 114.671 301.354 120 300.291 C 126.237 299.007 131.68 295.245 135.092 289.863 L 135.092 289.871 Z M 273.915 308.48 L 273.915 308.472 C 279.395 319.757 286.819 331.637 295.796 343.48 C 296.567 345.758 297.309 348.076 298.027 350.407 L 293.187 353.655 L 287.476 354.81 C 285.719 351.522 284.051 348.236 282.47 344.971 L 282.462 344.964 C 280.505 331.653 277.614 319.299 273.915 308.472 L 273.915 308.48 Z M 364.58 308.572 C 367.92 308.511 371.283 309.413 374.082 311.239 L 374.089 311.247 C 376.902 313.097 379.119 315.819 380.397 318.931 C 377.109 319.626 373.608 319.336 370.496 318.052 C 366.437 316.361 363.157 312.96 361.46 308.908 C 362.483 308.701 363.53 308.58 364.572 308.564 L 364.58 308.572 Z M 136.098 309.94 C 136.517 309.94 136.93 309.963 137.35 309.993 C 135.501 313.273 132.589 315.964 129.101 317.395 C 126.654 318.387 123.963 318.771 121.335 318.542 C 122.619 316.224 124.431 314.206 126.625 312.731 L 126.633 312.731 C 129.414 310.866 132.763 309.924 136.104 309.948 L 136.098 309.94 Z M 355.146 311.118 L 355.146 311.11 C 357.453 317.042 362.072 321.775 367.944 324.237 C 372.974 326.308 378.569 326.56 383.77 324.963 C 384.028 325.147 384.304 325.313 384.594 325.46 L 379.671 337.348 L 373.379 343.549 C 372.187 342.409 370.627 341.744 368.983 341.683 C 367.936 337.814 365.91 334.275 363.112 331.408 C 359.137 327.402 353.852 324.955 348.225 324.527 C 348.233 324.343 348.233 324.169 348.249 323.985 C 348.341 322.661 348.051 321.346 347.401 320.192 L 348.883 316.614 L 354.381 311.202 L 354.381 311.194 C 354.633 311.187 354.893 311.155 355.146 311.11 L 355.146 311.118 Z M 143.907 311.873 L 143.907 311.866 C 144.999 312.355 146.207 312.547 147.401 312.418 L 150.526 315.582 L 153.127 321.959 L 153.127 321.967 C 152.973 322.333 152.851 322.714 152.759 323.106 C 146.406 322.937 140.259 325.353 135.718 329.803 C 131.857 333.633 129.449 338.687 128.899 344.099 C 128.631 344.267 128.363 344.459 128.118 344.672 L 119.563 336.002 L 115.986 327.226 C 117.08 326.721 118.011 325.926 118.693 324.932 C 123.043 325.713 127.523 325.245 131.62 323.595 C 137.041 321.354 141.421 317.172 143.907 311.866 L 143.907 311.873 Z M 262.614 311.913 L 262.62 311.905 C 265.618 322.898 270.098 334.681 275.862 346.721 C 276.383 350.367 276.833 354.076 277.209 357.83 L 271.519 360.145 L 265.374 360.145 C 264.861 358.396 264.364 356.644 263.89 354.91 L 263.898 354.91 C 264.877 339.427 264.44 324.81 262.622 311.905 L 262.614 311.913 Z M 238.028 312.05 L 238.034 312.042 C 236.605 323.343 236.253 335.949 236.979 349.273 C 236.063 352.867 235.053 356.499 233.959 360.145 L 228.134 360.145 L 222.752 357.92 C 222.997 355.489 223.271 353.082 223.57 350.688 L 223.562 350.696 C 230.007 337.301 234.916 324.182 238.034 312.042 L 238.028 312.05 Z M 249.777 313.189 L 249.777 313.181 C 250.558 326.224 253.042 340.673 257.087 355.689 C 256.964 357.456 256.835 359.237 256.674 361.018 L 250.658 362.234 L 244.618 361.087 C 244.25 357.409 243.968 353.763 243.753 350.17 C 247.025 337.127 249.066 324.605 249.777 313.183 L 249.777 313.189 Z M 449.88 313.51 C 450.653 314.183 451.418 314.856 452.16 315.535 C 462.648 325.077 469.43 334.489 472.642 342.225 C 465.171 345.316 454.23 347.15 440.745 346.668 L 440.745 346.66 C 432.441 335.859 421.669 324.818 409.141 314.267 C 423.688 315.254 437.504 314.993 449.889 313.502 L 449.88 313.51 Z M 398.817 314.649 C 411.546 324.763 422.884 335.559 431.676 346.032 C 418.067 344.672 402.762 341.384 387.234 336.559 L 391.135 327.141 L 391.142 327.141 C 391.44 326.415 391.608 325.65 391.638 324.863 C 392.266 324.398 392.808 323.832 393.237 323.174 L 398.817 314.649 Z M 46.367 315.406 L 46.375 315.406 C 59.869 317.242 75.288 317.516 91.611 316.209 C 80.58 325.742 70.931 335.643 63.179 345.406 C 62.155 345.474 61.145 345.529 60.151 345.566 C 45.985 346.156 34.539 344.237 26.818 340.994 C 29.954 333.541 36.444 324.55 46.377 315.406 L 46.367 315.406 Z M 101.91 316.424 L 107.599 324.887 L 107.613 324.887 C 107.768 325.116 107.942 325.345 108.126 325.552 C 108.202 325.826 108.294 326.102 108.402 326.37 L 112.255 335.812 C 98.492 340 84.923 342.991 72.546 344.519 C 80.717 335.099 90.771 325.505 101.927 316.424 L 101.91 316.424 Z M 152.338 329.788 C 151.475 334.091 148.937 338.074 145.291 340.536 C 142.492 342.409 139.122 343.388 135.757 343.357 C 136.391 340.055 138.028 336.943 140.421 334.573 L 140.427 334.565 C 143.555 331.484 147.958 329.788 152.338 329.788 Z M 159.748 330.635 L 166.201 334.855 L 168.364 338.074 L 168.38 338.074 C 167.974 339.329 167.943 340.681 168.303 341.95 C 168.348 342.126 168.387 342.302 168.432 342.478 L 168.425 342.478 C 162.997 344.014 158.294 347.455 155.198 352.18 C 153.012 355.536 151.728 359.404 151.46 363.402 C 149.87 363.794 148.471 364.757 147.538 366.109 L 140.137 361.277 L 132.958 350.596 L 132.958 350.589 C 133.219 350.391 133.463 350.17 133.692 349.925 C 139.098 350.467 144.518 349.115 149.037 346.103 C 154.311 342.531 157.913 336.972 159.014 330.704 C 159.267 330.696 159.512 330.674 159.764 330.635 L 159.748 330.635 Z M 349.419 331.453 C 352.76 332.081 355.917 333.686 358.303 336.101 L 358.311 336.109 C 359.876 337.708 361.1 339.626 361.926 341.713 C 359.724 341.315 357.598 340.497 355.725 339.274 C 352.881 337.401 350.687 334.612 349.419 331.453 Z M 342.385 331.614 L 342.401 331.614 C 343.914 337.057 347.354 341.768 352.063 344.885 C 355.428 347.073 359.295 348.365 363.294 348.633 C 363.685 350.223 364.64 351.622 365.993 352.554 L 361.154 359.948 L 350.466 367.119 C 350.259 366.851 350.038 366.606 349.793 366.385 C 350.335 360.979 348.991 355.552 345.986 351.033 C 342.43 345.758 336.895 342.149 330.634 341.034 C 330.626 340.773 330.603 340.505 330.566 340.245 L 334.762 333.839 L 338.026 331.653 L 338.019 331.661 C 339.265 332.066 340.612 332.095 341.88 331.745 C 342.048 331.698 342.225 331.661 342.401 331.621 L 342.385 331.614 Z M 116.859 342.799 L 124.022 350.054 L 124.038 350.062 C 124.588 350.62 125.23 351.072 125.934 351.401 C 126.116 352.164 126.437 352.882 126.874 353.532 L 132.561 361.997 C 118.287 369.794 103.937 376.04 90.871 380.07 C 97.416 368.066 106.399 355.237 116.872 342.807 L 116.859 342.799 Z M 106.691 344.511 L 106.705 344.511 C 96.522 357.317 88.158 370.252 82.164 382.463 C 69.015 385.612 57.912 385.98 49.97 384.428 C 51.585 376.21 56.37 365.643 64.764 354.221 C 65.353 353.426 65.956 352.624 66.569 351.82 L 66.569 351.812 C 79.007 350.833 92.623 348.357 106.707 344.511 L 106.691 344.511 Z M 390.444 344.627 L 390.457 344.635 C 407.041 349.412 423.035 352.317 437.293 353.119 C 445.306 364.015 449.962 374.098 451.621 382.019 C 443.425 383.726 431.828 383.418 418.036 380.132 C 416.353 379.727 414.64 379.283 412.898 378.794 C 407.064 367.669 399.457 356.086 390.459 344.635 L 390.444 344.627 Z M 381.781 344.672 C 390.297 355.076 397.797 365.735 403.739 375.956 C 392.554 372.141 380.626 366.888 368.746 360.582 L 374.334 352.049 L 374.35 352.049 L 374.418 351.935 C 374.457 351.904 374.495 351.865 374.534 351.827 L 381.781 344.672 Z M 321.895 346.897 L 321.911 346.905 C 322.269 347.05 322.645 347.171 323.027 347.263 C 322.843 353.624 325.252 359.787 329.693 364.336 C 333.515 368.205 338.569 370.62 343.974 371.17 C 344.15 371.446 344.34 371.707 344.548 371.951 L 335.87 380.498 L 327.086 384.068 L 327.094 384.068 C 326.589 382.974 325.794 382.042 324.8 381.354 C 325.587 377.011 325.129 372.525 323.477 368.426 C 321.253 363.013 317.079 358.625 311.788 356.125 C 312.291 355.024 312.483 353.808 312.354 352.601 L 315.487 349.512 L 321.895 346.897 Z M 179.831 347.455 L 183.462 348.954 L 188.844 354.405 L 188.86 354.413 C 188.875 354.679 188.905 354.947 188.952 355.208 C 183.035 357.531 178.316 362.157 175.87 368.021 C 173.807 373.059 173.554 378.647 175.159 383.839 C 174.975 384.107 174.807 384.389 174.662 384.673 L 162.766 379.756 L 156.558 373.464 L 156.566 373.472 C 157.705 372.288 158.363 370.728 158.423 369.084 C 162.293 368.029 165.831 366.003 168.691 363.197 C 172.697 359.214 175.136 353.916 175.549 348.281 C 175.725 348.289 175.909 348.289 176.085 348.305 C 177.392 348.395 178.708 348.105 179.847 347.455 L 179.831 347.455 Z M 329.693 347.692 C 333.989 348.571 337.956 351.109 340.41 354.755 L 340.41 354.763 C 342.275 357.562 343.262 360.942 343.225 364.297 C 339.921 363.655 336.817 362.019 334.447 359.627 C 331.366 356.484 329.677 352.08 329.693 347.684 L 329.693 347.692 Z M 168.599 349.52 C 167.978 352.869 166.381 356.033 163.966 358.433 C 162.367 360.001 160.449 361.224 158.369 362.05 C 158.758 359.848 159.584 357.722 160.799 355.842 L 160.799 355.834 C 162.665 352.99 165.448 350.796 168.591 349.52 L 168.599 349.52 Z M 300.167 359.083 L 300.188 359.083 C 301.098 359.848 302.2 360.369 303.369 360.574 C 302.474 366.369 303.782 372.286 307.032 377.165 C 309.508 380.827 312.965 383.708 317.008 385.491 C 317.016 386.699 317.345 387.883 317.971 388.916 L 310.105 394.191 L 298.17 396.598 L 298.162 396.606 C 298.07 396.285 297.957 395.972 297.826 395.666 C 300.388 390.879 301.214 385.352 300.159 380.03 C 298.889 373.801 295.15 368.35 289.784 364.933 C 289.929 364.565 290.036 364.183 290.113 363.794 L 295.824 359.963 L 300.167 359.083 Z M 198.638 359.214 L 205.456 360.506 L 209.142 362.913 L 209.165 362.913 C 209.271 364.107 209.7 365.254 210.396 366.224 C 205.701 369.734 202.489 374.864 201.389 380.62 C 200.587 384.963 201.022 389.443 202.652 393.549 C 201.81 394.412 201.213 395.49 200.931 396.669 L 191.619 394.901 L 181.428 388.243 C 181.589 387.951 181.726 387.654 181.841 387.348 C 187.032 385.736 191.496 382.379 194.486 377.836 C 197.949 372.501 199.096 365.98 197.667 359.779 C 198.009 359.619 198.346 359.427 198.667 359.214 L 198.638 359.214 Z M 191.153 361.529 C 192.032 365.835 191.243 370.489 188.852 374.175 C 187.008 376.989 184.28 379.207 181.176 380.483 C 180.471 377.195 180.771 373.685 182.047 370.573 L 182.047 370.567 C 183.73 366.506 187.116 363.228 191.151 361.521 L 191.153 361.529 Z M 309.868 362.684 C 313.139 364.533 315.816 367.456 317.237 370.941 L 317.237 370.949 C 318.231 373.403 318.605 376.095 318.376 378.725 C 316.067 377.439 314.049 375.629 312.573 373.433 C 310.479 370.299 309.561 366.438 309.868 362.684 Z M 222.337 366.851 L 226.786 366.851 L 233.155 369.481 L 233.178 369.481 C 233.331 369.855 233.513 370.207 233.736 370.552 C 229.156 374.956 226.557 381.025 226.533 387.378 C 226.549 392.823 228.451 398.082 231.916 402.272 C 231.847 402.593 231.8 402.906 231.779 403.235 L 219.599 403.235 L 210.837 399.618 C 211.242 398.479 211.334 397.263 211.105 396.079 C 214.714 393.533 217.534 390.016 219.231 385.933 C 221.441 380.506 221.548 374.451 219.515 368.953 C 220.631 368.518 221.617 367.792 222.359 366.851 L 222.337 366.851 Z M 272.819 366.851 L 279.325 366.851 C 279.638 367.195 279.99 367.501 280.364 367.769 C 277.765 373.58 277.641 380.191 280.012 386.102 C 282.069 391.132 285.815 395.291 290.608 397.868 C 290.663 398.189 290.739 398.502 290.839 398.808 L 279.959 403.235 L 270.065 403.235 C 270.012 402.301 269.768 401.391 269.339 400.567 C 272.001 396.682 273.437 392.089 273.453 387.378 C 273.422 381.393 271.106 375.635 266.969 371.299 C 267.666 370.536 268.176 369.626 268.46 368.632 L 272.819 366.851 Z M 361.855 367.54 C 369.637 381.821 375.869 396.179 379.881 409.251 C 367.887 402.691 355.064 393.699 342.641 383.211 L 349.905 376.053 L 349.936 376.053 C 350.486 375.504 350.946 374.862 351.275 374.151 C 352.038 373.967 352.756 373.654 353.414 373.218 L 361.855 367.54 Z M 139.499 368.869 L 148.039 374.451 L 148.062 374.451 C 148.099 374.474 148.138 374.496 148.176 374.519 C 148.215 374.558 148.244 374.595 148.283 374.635 L 155.446 381.89 C 145.05 390.421 134.399 397.921 124.184 403.877 C 127.991 392.684 133.229 380.759 139.521 368.869 L 139.499 368.869 Z M 250.685 369.06 L 255.339 369.939 L 255.363 369.947 C 255.829 370.849 256.502 371.636 257.328 372.249 C 254.132 377.326 253 383.426 254.171 389.306 C 255.11 393.93 257.42 398.158 260.798 401.446 C 260.553 402.333 260.493 403.264 260.624 404.174 L 250.93 406.131 L 239.392 403.945 C 239.431 403.617 239.437 403.288 239.431 402.959 C 243.612 399.497 246.456 394.68 247.489 389.351 C 248.652 383.09 247.221 376.621 243.528 371.438 C 243.843 371.102 244.117 370.734 244.361 370.344 L 250.685 369.06 Z M 370.379 369.105 L 370.4 369.105 C 383.414 375.689 396.288 380.872 408.36 384.405 C 409.17 385.994 409.943 387.577 410.661 389.129 C 416.601 402.004 419.179 413.31 419.124 421.691 C 411.035 421.63 400.234 419.045 387.985 413.334 L 387.978 413.342 C 384.363 399.52 378.36 384.413 370.402 369.105 L 370.379 369.105 Z M 130.976 370.521 L 130.997 370.521 C 124.431 383.54 119.254 396.422 115.737 408.494 C 114.148 409.304 112.572 410.077 111.02 410.795 C 98.154 416.751 86.845 419.342 78.467 419.29 C 78.521 411.201 81.089 400.397 86.785 388.135 C 100.6 384.51 115.698 378.494 130.997 370.521 L 130.976 370.521 Z M 286.359 370.72 C 289.997 373.167 292.696 377.034 293.567 381.338 L 293.567 381.346 C 294.225 384.649 293.843 388.143 292.528 391.239 C 289.721 389.39 287.474 386.691 286.196 383.571 C 284.546 379.496 284.668 374.772 286.359 370.72 Z M 213.546 372.302 C 214.585 375.918 214.446 379.886 213.017 383.371 C 211.999 385.812 210.387 387.99 208.377 389.703 C 207.627 387.164 207.467 384.45 207.956 381.851 L 207.956 381.843 C 208.658 378.144 210.708 374.756 213.546 372.294 L 213.546 372.302 Z M 238.179 375.537 C 240.631 379.175 241.688 383.777 240.876 388.104 C 240.242 391.408 238.576 394.496 236.19 396.866 C 234.286 394.091 233.223 390.742 233.215 387.378 L 233.215 387.37 C 233.223 382.974 235.104 378.655 238.186 375.535 L 238.179 375.537 Z M 262.598 376.484 C 265.166 379.504 266.71 383.411 266.718 387.386 C 266.71 390.269 265.932 393.136 264.509 395.643 C 262.62 393.465 261.291 390.811 260.71 387.99 C 259.929 384.098 260.671 379.954 262.598 376.492 L 262.598 376.484 Z M 163.539 387.348 L 172.965 391.239 L 172.997 391.239 C 173.715 391.529 174.486 391.697 175.267 391.729 C 175.733 392.355 176.306 392.899 176.964 393.326 L 185.495 398.9 C 175.388 411.645 164.608 422.991 154.141 431.79 C 155.488 418.182 158.76 402.877 163.569 387.341 L 163.539 387.348 Z M 335.65 387.822 C 339.823 401.583 342.806 415.17 344.319 427.539 C 334.916 419.358 325.32 409.29 316.253 398.129 L 324.723 392.449 L 324.747 392.449 C 324.976 392.288 325.199 392.112 325.412 391.928 C 325.688 391.852 325.962 391.768 326.23 391.66 L 335.65 387.822 Z M 155.474 390.558 L 155.495 390.55 C 150.734 407.141 147.851 423.141 147.056 437.394 C 136.168 445.414 126.093 450.086 118.172 451.744 C 116.459 443.549 116.749 431.951 120.029 418.158 C 120.427 416.477 120.879 414.757 121.36 413.021 C 132.475 407.181 144.06 399.557 155.495 390.552 L 155.474 390.558 Z M 344.35 393.38 L 344.372 393.373 C 357.17 403.564 370.091 411.942 382.3 417.953 C 385.435 431.109 385.793 442.212 384.236 450.154 C 376.015 448.534 365.458 443.733 354.036 435.323 C 353.24 434.734 352.445 434.137 351.643 433.518 L 351.635 433.518 C 350.664 421.079 348.202 407.464 344.372 393.373 L 344.35 393.38 Z M 308.524 401.354 C 310.266 417.524 310.549 433.174 309.264 446.79 C 300.679 436.147 292.262 422.944 284.783 408.504 L 294.227 404.666 L 294.248 404.658 C 294.974 404.36 295.64 403.939 296.213 403.411 C 296.986 403.534 297.781 403.519 298.546 403.366 L 308.524 401.354 Z M 193.25 402.041 L 203.272 403.937 L 203.286 403.93 C 203.57 403.984 203.846 404.014 204.128 404.029 C 204.38 404.174 204.633 404.305 204.901 404.411 L 214.326 408.304 C 207.645 421.034 200.237 432.8 192.629 442.684 C 191.666 430.252 191.903 416.354 193.271 402.041 L 193.25 402.041 Z M 316.039 408.433 L 316.053 408.425 C 325.573 419.474 335.464 429.128 345.219 436.889 C 345.282 437.914 345.335 438.922 345.38 439.924 C 345.953 454.09 344.027 465.528 340.77 473.241 C 333.323 470.098 324.332 463.6 315.206 453.662 L 315.206 453.67 C 317.055 440.175 317.347 424.756 316.053 408.425 L 316.039 408.433 Z M 185.863 409.228 L 185.877 409.22 C 184.906 423.77 185.182 437.591 186.681 449.969 C 186.008 450.742 185.335 451.499 184.669 452.241 C 175.136 462.737 165.732 469.533 158.003 472.752 C 154.906 465.282 153.065 454.349 153.523 440.856 C 164.318 432.538 175.341 421.765 185.877 409.22 L 185.863 409.228 Z M 235.014 409.527 L 235.028 409.519 C 235.701 409.925 236.435 410.206 237.208 410.351 L 247.223 412.248 C 242.751 427.884 237.116 442.484 230.8 454.617 C 226.856 441.529 224.034 426.122 222.543 409.93 L 232.742 409.93 L 232.734 409.93 C 233.523 409.93 234.294 409.793 235.028 409.517 L 235.014 409.527 Z M 265.947 409.809 L 265.961 409.801 C 266.39 409.885 266.818 409.932 267.255 409.932 L 277.452 409.932 C 276.083 424.84 273.584 439.069 270.12 451.454 C 264.272 440.001 259.013 426.545 254.715 412.203 L 264.708 410.183 L 264.708 410.191 C 265.135 410.099 265.556 409.97 265.961 409.801 L 265.947 409.809 Z M 216.597 418.38 L 216.618 418.372 C 218.575 434.61 221.909 449.648 226.389 462.5 C 219.394 474.067 211.856 482.233 205.173 486.797 C 200.456 479.878 196.305 469.045 194.066 455.045 C 193.913 454.067 193.758 453.073 193.621 452.072 L 193.621 452.065 C 201.658 442.523 209.463 431.093 216.618 418.372 L 216.597 418.38 Z M 283.21 419.847 L 283.231 419.84 C 290.968 433.624 299.454 445.849 308.162 455.764 C 306.036 469.112 302.13 479.495 297.658 486.237 C 290.686 481.597 282.757 473.134 275.41 460.999 C 275.142 460.557 274.876 460.089 274.608 459.639 C 278.469 447.835 281.397 434.325 283.231 419.838 L 283.21 419.847 Z M 251.037 423.067 L 251.051 423.059 C 255.707 436.873 261.242 449.512 267.358 460.306 C 267.176 460.825 267 461.353 266.816 461.866 C 262.015 475.206 255.915 485.077 249.996 491.003 C 244.277 485.284 238.406 475.88 233.681 463.228 L 233.681 463.221 C 240.273 451.783 246.182 438.114 251.051 423.059 L 251.037 423.067 Z" fill="#ff814a"/>
</svg>