<?xml version="1.0" encoding="utf-8"?>
<svg viewBox="0 0 500 500" style="shape-rendering: geometricprecision;" xmlns="http://www.w3.org/2000/svg" xmlns:xlink="http://www.w3.org/1999/xlink">
  <defs>
    <linearGradient id="color-0-5" gradientUnits="userSpaceOnUse" x1="243.653" y1="104.225" x2="243.653" y2="353.737" xlink:href="#color-0"/>
    <linearGradient id="color-0">
      <stop style="stop-color: #f12711;" offset="0"/>
      <stop style="stop-color: #f5af19;" offset="1"/>
    </linearGradient>
    <linearGradient id="color-0-6" gradientUnits="userSpaceOnUse" x1="272.3" y1="206.3" x2="272.3" y2="425.356" xlink:href="#color-0"/>
    <linearGradient id="color-0-7" gradientUnits="userSpaceOnUse" x1="208.29" y1="33.725" x2="208.29" y2="260.619" xlink:href="#color-0"/>
    <linearGradient id="color-0-8" gradientUnits="userSpaceOnUse" x1="177.4" y1="0" x2="177.4" y2="148.944" xlink:href="#color-0"/>
    <linearGradient id="color-0-9" gradientUnits="userSpaceOnUse" x1="294.675" y1="333.087" x2="294.675" y2="500" xlink:href="#color-0"/>
  </defs>
  <path d="M 208.331 270.831 L 291.669 270.812 C 374.819 270.812 446.369 221.969 479.8 151.531 C 472.581 134.687 463.4 118.919 452.825 104.225 C 434.206 175.944 369.125 229.144 291.669 229.144 L 208.331 229.169 C 130.513 229.169 59.875 259.994 7.506 309.856 C 11.275 325.075 16.356 339.762 22.744 353.737 C 68.5 302.962 134.6 270.831 208.331 270.831 Z" style="fill: url('#color-0-5');"/>
  <path d="M 495.956 206.3 C 450.681 270.462 376.144 312.5 291.669 312.5 L 208.331 312.5 C 141.825 312.5 82.744 343.769 44.6 392.319 C 52.781 404.1 61.913 415.162 71.944 425.356 C 102.113 382.387 151.963 354.169 208.331 354.169 L 291.669 354.169 C 372.788 354.169 446.213 320.819 499.125 267.169 C 499.513 261.475 500 255.8 500 250 C 500 235.062 498.456 220.519 495.956 206.3 Z" style="fill: url('#color-0-6');"/>
  <path d="M 208.331 145.831 C 132.95 145.831 62.85 168.375 3.988 206.806 C 1.525 220.869 0 235.231 0 250 C 0 253.581 0.388 257.081 0.55 260.619 C 57.575 214.969 129.763 187.5 208.331 187.5 L 291.669 187.481 C 360.088 187.481 415.769 132.2 416.581 63.962 C 403.825 52.525 389.931 42.356 375 33.725 L 375 62.462 C 375 108.425 337.631 145.812 291.669 145.812 L 208.331 145.831 Z" style="fill: url('#color-0-7');"/>
  <path d="M 208.331 104.162 L 291.669 104.15 C 314.638 104.15 333.331 85.45 333.331 62.462 L 333.331 14.525 C 307.231 5.287 279.281 0 250 0 C 147.95 0 60.3 61.256 21.469 148.944 C 77.738 120.519 141.094 104.162 208.331 104.162 Z" style="fill: url('#color-0-8');"/>
  <path d="M 291.669 395.831 L 208.331 395.831 C 164.631 395.831 126.163 418.412 103.8 452.494 C 144.938 482.256 195.356 500 250 500 C 358.906 500 451.275 430.256 485.55 333.087 C 430.863 372.419 364.013 395.831 291.669 395.831 Z" style="fill: url('#color-0-9');"/>
</svg>