<?xml version="1.0" encoding="UTF-8" standalone="no"?>
<!DOCTYPE svg PUBLIC "-//W3C//DTD SVG 1.1//EN" "http://www.w3.org/Graphics/SVG/1.1/DTD/svg11.dtd">
<!-- Created with Vectornator (http://vectornator.io/) -->
<svg height="100%" stroke-miterlimit="10" style="fill-rule:nonzero;clip-rule:evenodd;stroke-linecap:round;stroke-linejoin:round;" version="1.1" viewBox="0 0 500 500" width="100%" xml:space="preserve" xmlns="http://www.w3.org/2000/svg" xmlns:vectornator="http://vectornator.io" xmlns:xlink="http://www.w3.org/1999/xlink">
<defs/>
<clipPath id="ArtboardFrame">
<rect height="500" width="500" x="0" y="0"/>
</clipPath>
<g clip-path="url(#ArtboardFrame)" id="Untitled" vectornator:layerName="Untitled">
<path d="M423.451 74.1909C430.434 81.5877 429.813 82.1499 428.688 83.1854C427.579 84.3985 426.144 85.9222 429.724 92.9936C433.289 100.316 438.925 106.101 444.488 111.974C451.781 119.371 459.163 127.004 464.163 137.863C468.927 149.357 465.273 153.056 461.471 157.227C458.142 160.852 454.651 164.698 456.944 174.506C459.311 184.714 466.308 191.06 473.054 197.333C481.62 205.203 490.821 212.851 493.277 226.269C495.496 239.85 488.129 246.285 480.584 253.119C474.4 258.904 468.054 264.851 466.619 275.694C465.583 286.627 470.11 291.612 474.46 296.198C479.859 301.746 485.022 306.643 480.569 319.824C475.969 332.443 467.64 340.564 459.636 348.361C453.438 354.618 447.417 360.817 444.488 369.737C441.795 378.17 444.325 380.832 446.618 383.318C449.074 385.892 451.145 388.067 445.509 397.386C439.636 406.307 432.89 413.467 426.07 420.538C420.522 426.071 415.034 431.708 410.448 437.743C408.702 439.178 406.956 440.391 405.359 441.752C411.158 433.143 418.126 426.234 424.872 419.237C430.345 413.615 435.908 407.905 439.783 401.159C443.911 394.087 442.003 392.164 440.109 390.152C437.017 387.105 433.762 383.643 437.18 371.912C440.745 359.84 448.29 352.059 455.82 344.337C462.329 338.064 468.986 331.629 471.915 322.072C474.933 312.175 470.968 308.004 466.604 303.58C460.805 297.633 455.095 291.45 456.929 276.404C458.364 261.211 465.968 253.829 473.424 246.669C479.282 241.196 485.318 235.826 483.41 225.455C482.064 215.159 475.007 208.975 467.699 202.703C459.533 194.833 451.278 186.859 448.349 172.879C445.331 159.298 449.932 154.313 454.222 149.89C457.388 146.517 460.332 143.454 456.914 134.948C453.66 126.59 447.787 120.569 442.076 114.622C435.094 107.225 428.037 100.228 423.747 89.9461C418.984 80.2119 420.892 78.2 422.475 76.839C423.274 75.8774 423.821 75.2265 418.836 69.6936C420.419 71.1434 421.854 72.7411 423.437 74.1909L423.451 74.1909ZM94.723 58.5245C88.7759 66.9568 81.8673 73.8802 75.1363 80.9516C69.5887 86.4992 64.189 92.3722 60.1504 99.1181C56.1857 106.189 58.0201 107.95 59.9876 110.125C62.9168 113.024 66.3341 116.56 62.6801 128.217C59.3515 140.348 51.7328 148.07 44.2768 155.866C37.7677 162.139 31.0366 168.574 28.1814 178.131C25.0008 188.013 28.8915 192.111 33.4035 196.608C39.2026 202.555 44.8242 208.753 43.1673 223.769C41.5844 238.962 33.8917 246.285 26.347 253.519C20.4739 258.992 14.5269 264.2 16.3465 274.659C17.6927 284.955 24.986 291.213 32.1313 297.559C40.2974 305.282 48.5522 313.152 51.5701 327.22C54.588 340.89 49.8984 345.86 45.623 350.21C42.4572 353.583 39.4393 356.556 42.8419 365.24C46.1704 373.524 52.0435 379.619 57.8278 385.492C64.8103 392.874 71.7929 399.961 76.231 410.168C80.8466 419.976 78.8495 421.973 77.5032 423.26C76.5564 424.311 75.9943 424.784 80.9206 430.406C79.4116 428.971 77.9027 427.432 76.3937 425.982C69.4999 418.512 69.9733 417.876 71.0828 416.81C72.3551 415.686 73.7013 414.236 70.1212 407.165C66.556 399.783 60.9196 394.058 55.2093 388.111C47.99 380.729 40.9335 373.169 35.8445 362.222C31.007 350.816 34.4983 347.029 38.389 342.931C41.8063 339.322 45.2976 335.46 42.9898 325.578C40.4453 315.445 33.6254 309.098 26.8056 302.737C18.2401 294.867 9.2752 287.307 6.65673 273.727C4.67439 260.146 11.8197 253.711 19.3496 246.965C25.6221 241.166 31.8058 235.308 33.3887 224.375C34.4243 213.443 29.8975 208.458 25.6221 203.96C20.1485 198.413 15.1483 193.427 19.5863 180.335C24.1871 167.642 32.442 159.609 40.3713 151.798C46.3923 145.452 52.5908 139.268 55.446 130.421C58.2272 121.989 55.7567 119.341 53.3749 116.93C50.9931 114.355 48.9368 112.018 54.4844 102.787C60.3575 93.8664 67.1773 86.7063 73.8344 79.7237C79.3968 74.0134 84.8704 68.3918 89.6192 62.5188C91.2909 61.1577 92.8738 59.708 94.6934 58.5097L94.723 58.5245ZM111.854 47.1038C106.617 56.6605 99.5605 63.7318 92.6519 70.8919C87.0895 76.3656 81.6159 81.9871 78.1394 89.2952C74.9735 96.7807 77.5032 99.4288 80.1957 102.24C83.9237 106.012 88.125 110.272 85.5214 122.403C83.1396 135.259 75.9943 142.582 68.6271 150.289C62.754 156.325 56.4076 162.509 54.1885 172.627C52.2062 183.072 56.5703 187.82 61.2451 192.954C67.6655 199.552 74.0119 206.386 72.6657 222.127C71.7929 238.281 64.1742 246.004 56.5555 253.711C50.5937 259.658 44.7206 265.531 46.0077 276.774C46.8805 287.943 53.8631 294.29 60.5942 300.725C68.2129 308.521 76.1422 316.406 78.1394 331.037C79.959 345.269 74.6481 350.801 69.6478 356.038C65.8459 360.047 62.3546 363.746 64.6476 372.755C67.1921 381.602 72.8137 387.297 78.45 393.096C85.3586 400.242 92.2524 407.328 95.8177 418.334C99.7084 428.867 96.8533 431.589 94.6194 433.853C92.9477 435.465 91.6903 436.752 96.0544 443.099C94.3088 441.738 92.5631 440.451 90.9062 439.09C84.7077 430.894 86.0539 429.37 88.0511 427.432C90.0334 425.583 92.1785 423.423 89.1606 415.775C86.1427 407.979 80.7578 402.194 75.1954 396.484C68.1389 389.413 61.2303 382.09 57.3396 370.595C53.7743 358.465 57.9757 353.967 62.7244 349.145C66.7779 344.81 70.9793 340.298 69.3076 329.928C67.9614 319.321 61.2155 312.974 54.7063 306.613C46.703 298.817 38.1375 290.947 36.3031 276.153C34.7202 261.197 42.0134 254.125 49.5581 246.655C55.7419 240.545 61.9256 234.272 62.9611 222.541C63.686 211.135 58.8337 205.588 53.9962 200.277C47.7977 193.93 42.3389 188.072 45.6674 174.314C48.922 160.733 56.7034 153.026 64.0707 145.378C70.0916 139.431 75.8168 133.321 77.7991 124.164C80.0181 115.243 76.7636 111.944 73.5977 108.734C70.4171 105.361 67.488 102.299 72.0888 92.2539C76.9263 82.6824 83.7461 75.6851 90.566 68.7764C96.2023 63.1549 101.839 57.4446 106.025 50.7726C107.845 49.3968 109.916 48.2725 111.824 47.0742L111.854 47.1038ZM131.293 36.7335C126.618 47.4145 119.236 54.7373 112.017 61.8826C106.38 67.6669 100.833 73.466 98.0515 81.3362C95.4331 89.4579 98.5249 92.5793 101.942 96.041C106.543 100.627 111.455 105.612 109.635 118.468C108.2 131.812 101.069 139.046 94.0868 146.428C88.1398 152.375 82.1928 158.5 80.8466 169.018C79.6483 179.788 84.5598 185.098 89.6488 190.72C96.3207 197.865 103.214 205.188 102.504 221.417C102.031 237.897 94.4123 245.856 86.8676 253.815C80.9206 260.176 74.8848 266.345 75.6836 278.165C76.231 289.896 82.9029 296.331 89.1014 302.678C96.7941 310.548 104.324 318.27 105.434 333.227C106.218 347.931 100.345 354.189 94.5602 360.062C90.0334 364.648 85.9948 368.82 87.6664 378.303C89.3381 387.475 94.9597 393.244 100.522 398.955C107.49 406.026 114.487 413.097 117.328 424.917C120.434 436.486 116.928 440.022 113.836 443.069C111.528 445.406 109.635 447.167 113.437 454.238C111.528 453.114 109.472 451.99 107.564 450.777C102.09 441.457 104.309 439.208 107.164 436.471C109.709 433.971 112.475 431.249 109.946 422.965C107.727 414.355 102.105 408.733 96.4686 403.023C89.56 395.951 82.7402 388.791 79.959 376.735C77.5032 364.116 82.5774 358.731 87.8883 353.198C92.4152 348.449 97.1639 343.39 96.2911 332.694C95.4183 321.688 89.3825 315.489 82.8733 309.231C75.2546 301.361 67.3252 293.55 65.8903 277.884C64.9435 261.966 72.2515 254.258 79.7814 246.551C85.9652 240.116 92.0749 233.681 92.6371 221.55C93.1844 209.656 87.9623 203.783 82.4739 197.998C75.9647 191.001 69.9437 184.507 72.0148 169.95C74.2339 155.955 81.6898 148.41 88.9091 141.014C94.5455 135.067 100.256 129.282 101.528 119.548C103.037 110.154 99.1611 106.204 95.4922 102.595C91.3648 98.334 87.5629 94.5617 91.2909 83.7771C95.2555 73.3181 102.327 66.3355 109.221 59.1014C115.168 53.3911 120.967 47.4441 124.695 39.9733C126.914 38.775 129.059 37.7987 131.278 36.6744L131.293 36.7335ZM152.862 26.9254C148.823 38.9082 141.204 46.6156 133.748 54.4119C127.801 60.2701 122.002 66.1432 119.709 74.827C117.579 83.5848 121.455 87.3572 125.331 91.4698C130.731 96.5292 136.367 102.151 135.257 115.894C134.296 129.8 127.328 136.945 120.257 144.268C114.709 150.141 108.747 156.088 108.126 166.932C107.416 178.027 112.816 183.885 118.363 189.684C125.42 197.155 132.639 204.951 132.402 221.269C132.24 237.823 124.71 245.782 117.165 253.903C111.144 260.413 105.034 266.759 105.434 278.905C105.744 290.961 112.017 297.219 118.2 303.58C125.656 311.229 132.876 318.685 133.201 334.114C133.512 349.056 126.929 355.905 120.508 362.488C115.582 367.474 110.818 372.297 111.854 382.179C113.037 391.824 118.674 397.534 124.221 403.23C131.441 410.375 138.571 417.609 140.731 430.391C143.423 443.173 139.059 447.359 135.257 451.22C132.24 454.194 129.695 456.679 133.038 464.549C130.819 463.588 128.6 462.463 126.455 461.413C121.618 450.895 124.784 447.833 128.364 444.371C131.529 441.146 134.873 437.862 132.964 428.778C131.056 419.606 125.346 413.674 119.561 408.053C112.653 400.981 105.685 393.91 103.688 381.128C102.179 367.858 107.978 361.926 113.925 355.654C119.162 350.432 124.399 345.047 123.999 334.04C123.6 322.797 117.727 316.599 111.617 310.489C104.161 302.693 96.5426 294.97 95.6698 278.816C95.1224 262.351 102.652 254.466 110.108 246.433C116.218 239.923 122.328 233.488 122.565 221.284C122.801 209.227 117.017 202.954 111.455 196.933C104.546 189.537 97.9776 182.465 99.1611 167.435C100.345 152.967 107.653 145.644 114.546 138.336C120.257 132.552 125.893 126.841 126.692 116.634C127.565 106.737 123.127 102.254 118.837 97.905C113.999 93.0823 109.413 88.4963 112.342 76.765C115.833 65.5071 122.964 58.273 130.183 50.8762C136.308 44.8404 142.255 38.5827 145.495 30.0616C147.95 28.9373 150.421 27.887 152.877 26.9254L152.862 26.9254ZM176.428 17.6794C173.025 31.0232 165.244 39.2189 157.477 47.4885C151.442 53.6722 145.332 59.8707 143.438 69.3534C141.767 78.8361 146.219 83.1706 150.732 87.6827C156.841 93.4817 163.188 99.5767 162.478 114.045C162.078 128.676 154.859 135.984 147.802 143.307C142.092 149.165 136.308 154.964 135.982 166.133C135.908 177.465 141.53 183.412 147.403 189.596C154.859 197.318 162.315 205.114 162.389 221.417C162.463 237.897 154.933 245.782 147.403 253.815C141.367 260.25 135.257 266.833 135.42 279.053C135.509 291.109 141.53 297.293 147.566 303.403C154.859 311.036 162.078 318.507 161.93 334.026C161.841 349.366 154.874 356.601 147.728 363.524C142.329 368.983 137.092 374.205 137.728 384.664C138.438 394.783 144.148 400.582 149.947 406.366C157.329 413.926 164.711 421.47 166.442 435.465C168.499 449.297 163.424 454.194 158.75 458.617C155.258 462.079 151.841 465.363 154.933 474.372C152.314 473.322 149.933 472.36 147.64 471.325C143.276 459.594 147.24 455.732 151.678 451.309C155.48 447.611 159.445 443.587 157.862 433.705C156.279 423.897 150.48 417.787 144.459 411.766C137.314 404.68 130.257 397.372 129.059 383.954C128.112 370.122 134.533 363.613 141.19 356.704C146.737 351.23 152.374 345.372 152.374 334.188C152.536 322.782 146.427 316.835 140.554 310.652C133.334 303.018 125.878 295.459 125.479 279.067C125.316 262.499 132.935 254.466 140.243 246.359C146.427 240.012 152.536 233.503 152.536 221.284C152.462 209.301 146.501 203.043 140.642 196.682C133.349 188.886 126.292 181.578 126.766 166.311C127.328 151.443 134.459 144.046 141.515 136.975C147.077 131.102 152.951 125.318 153.35 114.711C153.986 104.178 148.912 99.3548 144.074 94.5321C138.438 88.8218 133.127 83.6884 135.42 71.0695C138.201 58.6872 145.731 50.9798 153.187 43.3463C159.46 36.8371 165.717 30.0912 168.587 20.6085C171.117 19.6469 173.736 18.6706 176.428 17.709L176.428 17.6794ZM201.414 9.06952C198.959 23.7004 191.103 32.2215 183.322 40.9793C177.049 47.6512 170.866 54.1604 169.283 64.368C168.01 74.6495 173.011 79.4722 178.159 84.5316C184.905 90.8929 191.887 97.476 191.577 112.743C191.414 128.01 183.869 135.407 176.591 143.04C170.718 148.839 164.933 154.772 164.933 166.192C165.096 177.687 171.043 183.797 177.079 190.069C184.772 197.865 192.464 205.662 192.627 221.816C192.864 238.133 185.245 245.856 177.789 253.815C171.679 260.25 165.569 266.596 165.569 278.801C165.333 290.784 171.369 296.894 177.39 303.003C184.535 310.563 192.065 318.034 191.754 333.774C191.429 349.44 183.899 356.926 176.354 364.086C170.57 369.796 164.933 375.581 165.096 386.424C165.569 397.031 171.443 403.052 177.552 409.251C185.008 416.973 192.79 425.08 194.047 439.948C195.63 454.741 189.52 460.526 184.121 465.674C180.008 469.698 176.117 473.633 178.647 483.589C175.866 482.464 173.173 481.577 170.718 480.615C166.901 467.508 171.753 462.937 176.901 457.863C181.265 453.528 185.955 449.268 184.831 438.424C183.632 427.565 177.537 421.308 171.428 415.109C163.883 407.476 156.664 400.079 155.88 385.685C155.48 371.217 162.374 364.382 169.682 357.311C175.555 351.29 181.665 345.417 181.828 334.011C181.976 322.353 176.117 316.318 170.244 310.297C162.951 302.663 155.48 295.104 155.569 278.786C155.569 262.321 163.188 254.362 170.57 246.403C176.753 240.042 182.789 233.784 182.789 221.801C182.553 209.745 176.443 203.398 170.407 197.14C162.788 189.181 155.421 181.548 155.332 166.03C155.421 150.836 162.626 143.44 169.771 136.294C175.644 130.347 181.517 124.312 181.842 113.216C182.153 102.121 176.517 96.8251 171.206 91.6769C164.785 85.4044 158.764 79.6201 160.658 66.1136C162.966 52.4443 170.644 44.2487 178.351 36.3785C184.698 29.3071 190.97 22.1471 193.115 11.6288C195.808 10.7412 198.589 9.85358 201.444 9.05472L201.414 9.06952ZM227.111 2.6343C225.839 18.3895 218.471 26.5851 210.69 35.1062C204.506 42.2515 198.234 49.0122 197.05 60.0186C196.177 70.9363 201.814 76.4839 207.361 81.7948C214.743 88.5555 222.199 95.7895 222.111 111.619C221.963 127.374 214.344 135.17 206.563 142.641C200.615 148.913 194.58 154.934 194.742 166.518C194.979 178.086 201.178 184.359 207.361 190.631C215.128 198.427 222.835 206.224 222.909 222.216C223.072 238.222 215.527 245.93 208.071 253.726C201.962 259.998 195.852 266.345 195.704 278.328C195.453 290.222 201.577 296.331 207.598 302.515C214.98 309.986 222.599 317.545 222.273 333.626C222.199 349.455 214.27 357.015 206.489 364.559C200.305 370.433 194.195 376.217 194.195 387.637C194.432 398.969 200.615 405.242 206.962 411.588C214.655 419.621 222.599 427.58 223.22 443.173C224.093 458.854 217.347 465.836 211.237 471.961C206.237 476.621 201.799 480.955 203.693 491.977C200.911 491.178 198.056 490.453 195.364 489.477C192.435 475.171 197.982 469.55 203.929 463.677C208.929 458.928 214.24 454.031 213.442 442.625C212.894 431.131 206.459 424.296 200.275 417.876C192.346 410.242 184.875 402.283 184.402 387.253C184.328 372.149 191.784 364.826 199.388 357.429C205.66 351.393 212.007 345.372 212.154 333.641C212.391 321.984 206.281 315.8 200.26 309.69C192.967 302.131 185.422 294.586 185.733 278.505C185.896 262.188 193.352 254.318 200.882 246.433C206.992 240.249 213.101 233.976 212.939 222.156C212.776 210.262 206.666 203.916 200.482 197.732C192.627 189.773 185.082 182.066 184.846 166.311C184.609 150.792 191.991 143.321 199.521 135.851C205.557 129.741 211.74 123.557 211.74 111.974C211.977 100.405 205.956 94.7688 200.157 89.2212C193.1 82.3866 186.354 76.0401 187.701 61.3353C189.52 46.6304 197.139 38.2721 204.994 29.9137C211.267 22.5169 217.214 15.4456 218.634 4.11366C221.415 3.7882 224.034 3.31481 227.037 2.66389L227.111 2.6343ZM253.059 0.148982C253.221 16.0669 246.239 23.8483 239.094 31.7333C233.073 38.1537 226.889 45.2251 226.401 56.8084C225.927 68.377 232.037 73.9246 238.073 79.9604C245.839 87.5939 253.695 95.1534 253.695 111.145C253.606 127.137 245.677 134.933 237.91 142.567C231.564 148.839 225.306 154.949 225.38 166.68C225.543 178.412 231.874 184.684 238.147 190.957C245.766 198.59 253.458 206.224 253.369 222.216C253.369 238.222 245.839 245.93 238.384 253.637C232.185 259.91 226.164 266.182 226.09 277.987C225.942 289.807 232.037 295.917 238.236 302.101C245.854 309.734 253.547 317.368 253.458 333.36C253.532 349.278 245.692 357.074 237.747 364.707C231.401 370.891 224.981 376.912 224.981 388.658C225.143 400.227 231.327 406.736 237.747 413.008C245.603 420.879 253.295 428.349 253.133 444.356C253.059 460.348 245.913 468.07 239.02 475.452C233.709 481.488 228.546 486.621 229.581 498.368C226.637 497.48 223.782 496.992 221.001 496.592C219.418 481.089 225.602 474.328 232.274 468.218C237.91 462.182 243.532 456.087 243.295 444.356C243.295 432.625 237.111 426.278 230.602 420.08C222.673 411.958 214.965 404.073 214.655 388.407C214.817 372.652 222.51 365.181 230.513 357.621C236.875 351.349 243.206 345.165 243.28 333.434C243.28 321.628 237.17 315.43 230.987 309.32C223.368 301.613 215.838 294.053 216.075 278.061C216.223 261.981 223.693 254.273 231.149 246.462C237.333 240.353 243.443 234.08 243.443 222.275C243.443 210.455 237.259 204.271 231.002 197.998C223.294 190.276 215.527 182.569 215.217 166.725C215.054 150.822 222.835 143.099 230.528 135.377C236.889 129.193 243.221 122.995 243.295 111.264C243.384 99.4584 236.949 93.2598 230.765 87.1501C223.235 80.1527 215.853 73.0074 216.637 57.4889C217.599 41.8965 225.365 33.8488 232.836 24.8543C238.694 18.4191 244.419 11.9986 244.567 0.341298C247.348 0.104601 250.366-0.14689 253.059 0.104601L253.059 0.148982ZM278.918 3.43316C280.427 18.9516 274.243 25.6975 267.571 31.8073C262.098 37.843 256.387 43.9528 256.461 55.6693C256.624 67.4006 262.897 73.7471 269.154 80.0196C277.084 88.0525 284.865 95.9375 285.19 111.604C285.116 127.359 277.335 134.83 269.406 142.478C263.133 148.662 256.713 154.86 256.639 166.666C256.639 178.397 262.823 184.669 268.932 190.779C276.551 198.339 284.096 205.972 283.859 222.053C283.622 238.119 276.152 245.767 268.696 253.637C262.512 259.762 256.402 265.931 256.402 277.751C256.476 289.556 262.675 295.828 268.932 302.101C276.714 309.823 284.48 317.442 284.806 333.36C284.88 349.204 277.276 356.911 269.42 364.545C263.059 370.817 256.654 377.016 256.565 388.821C256.476 400.567 262.823 406.736 269.095 412.935C276.714 419.843 284.007 427.077 283.297 442.596C282.187 458.114 274.569 466.221 267.187 475.23C261.24 481.666 255.441 488.012 255.367 499.817C252.585 499.906 249.804 500.054 246.801 499.98C246.638 483.988 253.621 476.192 260.751 468.307C266.876 461.96 272.971 454.889 273.518 443.247C273.918 431.752 267.808 426.204 261.772 420.095C254.006 412.535 246.224 404.902 246.224 388.91C246.224 372.992 254.153 365.21 262.098 357.488C268.37 351.304 274.717 345.106 274.554 333.375C274.391 321.643 268.059 315.46 261.787 309.098C254.094 301.465 246.476 293.831 246.476 277.839C246.564 261.922 254.094 254.125 261.476 246.418C267.586 240.234 273.77 233.962 273.859 222.142C274.021 210.248 267.823 204.138 261.713 197.954C254.094 190.306 246.402 182.672 246.476 166.769C246.402 150.689 254.257 142.981 262.275 135.348C268.548 129.238 274.879 123.128 274.879 111.486C274.791 99.7394 268.385 93.319 262.112 87.0465C254.272 79.3243 246.564 71.6168 246.727 55.7729C246.801 39.781 253.872 31.9848 260.751 24.588C266.225 18.5522 271.314 13.4188 270.441 1.83545C273.296 2.6343 275.989 3.03373 278.933 3.44795L278.918 3.43316ZM304.54 10.6672C307.322 24.9726 301.759 30.4463 295.901 36.3933C290.901 41.0533 285.59 46.0387 286.389 57.5333C286.936 68.9392 293.445 75.7738 299.629 82.1942C307.322 89.9905 314.94 97.8754 315.325 112.817C315.488 127.921 308.106 135.244 300.413 142.715C294.229 148.662 287.972 154.772 287.646 166.503C287.409 178.16 293.593 184.255 299.54 190.454C306.922 197.836 314.378 205.484 314.053 221.639C313.979 237.956 306.434 245.752 298.904 253.548C292.794 259.895 286.773 266.093 286.921 277.973C287.084 289.793 293.268 296.213 299.451 302.412C307.218 310.208 314.837 318.004 315.074 333.744C315.31 349.337 308.017 356.734 300.398 364.293C294.289 370.477 288.194 376.587 287.957 388.17C287.883 399.65 293.83 405.286 299.703 410.908C306.686 417.58 313.505 424.089 312.085 438.794C310.34 453.499 302.647 461.694 294.865 470.215C288.593 477.612 282.572 484.772 281.3 496.104C278.371 496.43 275.589 496.829 272.808 497.48C273.918 481.799 281.448 473.618 289.155 465.008C295.428 457.774 301.685 451.028 302.795 440.17C303.742 429 298.194 423.616 292.558 418.305C285.102 411.47 277.646 404.236 277.72 388.407C277.882 372.652 285.649 364.929 293.268 357.385C299.466 351.201 305.413 345.091 305.251 333.597C305.014 322.028 298.741 315.667 292.632 309.483C284.776 301.613 277.084 293.891 276.936 277.825C276.847 261.744 284.318 254.111 291.685 246.314C297.869 239.968 304.067 233.695 304.141 221.801C304.466 209.819 298.357 203.798 292.321 197.614C284.939 190.054 277.32 182.421 277.557 166.518C277.794 150.6 285.723 143.04 293.43 135.496C299.54 129.622 305.635 123.838 305.635 112.506C305.398 101.174 299.141 94.828 293.016 88.5555C285.176 80.4486 277.231 72.5636 276.521 56.9712C275.723 41.216 282.468 34.3961 288.726 28.0349C293.49 23.4489 298.002 19.0996 296.182 8.1819C298.963 8.98075 301.656 9.70564 304.511 10.6672L304.54 10.6672ZM329.29 19.5138C332.855 32.6209 328.092 37.0294 322.855 42.1776C318.417 46.5121 313.816 50.8614 315.088 61.6311C316.198 72.4748 322.308 78.7473 328.417 84.931C335.873 92.4906 343.255 100.035 343.965 114.267C344.528 128.809 337.471 135.643 330.237 142.789C324.29 148.825 318.343 154.683 318.032 166.177C317.796 177.835 323.831 183.693 329.616 189.803C336.909 197.288 344.542 204.907 344.291 221.313C344.291 237.793 336.672 245.589 329.231 253.696C323.195 259.969 317.085 266.315 317.159 278.372C317.396 290.355 323.506 296.613 329.542 302.974C337.16 310.844 344.542 318.492 344.69 334.07C344.616 349.263 337.471 356.66 330.252 363.82C324.305 369.767 318.358 375.951 318.047 386.972C317.736 397.978 323.373 403.363 328.832 408.511C335.104 414.621 341.288 420.568 339.305 434.075C336.998 447.655 329.305 455.925 321.686 463.81C315.266 470.881 308.993 478.041 306.7 488.559C304.008 489.432 301.315 490.335 298.446 490.971C300.99 476.429 308.757 467.745 316.538 459.224C322.958 452.478 329.068 446.043 330.651 435.761C331.923 425.391 326.923 420.568 321.686 415.583C315.029 409.147 307.958 402.564 308.446 387.386C308.594 372.104 316.139 364.633 323.432 357.074C329.231 351.201 335.252 345.417 335.089 333.922C334.853 322.427 328.906 316.229 322.796 310.06C315.103 302.101 307.484 294.379 307.248 278.224C307.085 261.907 314.63 254.185 322.086 246.314C328.269 239.805 334.29 233.459 334.379 221.313C334.453 209.256 328.595 203.161 322.485 197.126C315.34 189.477 307.899 182.021 308.283 166.266C308.594 150.6 316.139 143.04 323.595 136.043C329.231 130.259 335.104 124.548 334.779 113.705C334.379 103.024 328.269 96.9878 322.322 90.8781C314.792 83.0818 307.085 75.0489 305.901 60.0926C304.319 45.2251 310.192 39.4408 315.739 34.3813C319.941 30.2835 323.757 26.5112 321.213 16.5403C323.905 17.5019 326.613 18.4782 329.305 19.5138L329.29 19.5138ZM352.294 28.8485C356.57 40.6538 352.605 44.441 348.241 48.7755C344.439 52.5479 340.4 56.4978 342.057 66.3059C343.566 76.262 349.439 82.2978 355.386 88.3188C362.443 95.4641 369.662 102.698 370.86 116.131C371.822 129.948 365.313 136.546 358.729 143.307C353.182 148.928 347.545 154.712 347.545 165.97C347.383 177.465 353.418 183.412 359.203 189.433C366.585 196.992 374.115 204.715 374.277 221.106C374.514 237.66 366.895 245.693 359.602 253.726C353.492 260.161 347.397 266.582 347.309 278.727C347.471 290.873 353.418 297.13 359.366 303.403C366.585 311.11 373.73 318.507 373.242 333.863C372.68 348.745 365.623 356.053 358.567 363.198C352.856 369.072 346.983 374.856 346.584 385.463C346.036 395.981 351.037 400.804 355.874 405.553C361.496 411.174 366.969 416.559 364.514 429.015C361.659 441.471 354.203 449.105 346.658 456.738C340.385 463.322 334.276 470.156 331.258 479.639C328.802 480.6 326.183 481.651 323.491 482.538C326.908 469.195 334.601 460.836 342.294 452.552C348.477 446.368 354.587 440.258 356.496 430.938C358.241 421.219 353.714 416.884 349.114 412.446C343.078 406.588 336.731 400.464 337.367 386.084C337.856 371.453 345.075 364.071 352.205 356.911C357.916 350.89 363.715 345.18 363.952 334.011C364.025 322.679 358.478 316.643 352.442 310.459C344.986 302.663 337.53 294.867 337.456 278.624C337.367 262.143 344.912 254.273 352.368 246.314C358.478 239.805 364.662 233.296 364.514 221.076C364.425 209.005 358.404 202.747 352.368 196.637C345.149 188.93 337.767 181.444 337.93 165.941C338.092 150.6 345.149 143.44 352.131 136.605C357.531 131.057 362.753 125.835 362.206 115.465C361.481 105.257 355.697 99.4731 349.912 93.6001C342.53 86.0406 335.163 78.4958 333.418 64.5011C331.199 50.7726 336.347 45.9351 341.184 41.4379C344.749 37.991 348.004 34.692 344.912 25.8454C347.368 26.807 349.838 27.7686 352.294 28.819L352.294 28.8485ZM373.39 38.7307C378.227 49.1897 375.062 52.1485 371.481 55.7729C368.375 58.8204 364.898 62.2821 366.955 71.2914C368.789 80.4634 374.573 86.3216 380.284 92.0172C387.266 99.1033 394.249 106.249 396.157 119.03C397.74 132.285 391.956 138.158 385.846 144.505C380.772 149.653 375.609 155.023 375.934 166.118C376.334 177.287 382.281 183.471 388.228 189.67C395.684 197.377 403.45 205.188 404.249 221.328C404.811 237.808 397.193 245.604 389.722 253.637C383.686 260.161 377.591 266.67 377.428 278.875C377.029 290.858 382.991 297.116 388.612 303.225C395.344 310.533 402.015 317.693 400.906 332.724C399.634 347.192 392.414 354.574 385.432 361.808C379.721 367.607 374.085 373.391 373.301 383.51C372.339 393.318 376.792 397.815 380.994 402.076C385.994 407.061 390.521 411.647 387.503 423.305C384.086 434.637 377.029 441.871 369.81 449.268C363.7 455.289 357.605 461.65 354.336 470.156C351.88 471.206 349.498 472.242 347.116 473.292C351.155 461.236 358.626 453.439 366.245 445.806C372.118 439.859 377.991 433.986 380.21 425.317C382.34 416.559 378.538 412.772 374.573 408.674C369.1 403.452 363.537 397.904 364.736 384.324C365.682 370.344 372.576 363.11 379.648 355.876C385.358 350.003 391.231 344.13 391.867 333.212C392.503 322.117 387.118 316.244 381.556 310.385C374.499 302.826 367.354 295.192 367.517 278.875C367.606 262.232 375.209 254.273 382.665 246.24C388.775 239.731 394.811 233.296 394.5 221.165C394.101 209.182 387.754 202.836 381.807 196.652C374.263 188.856 366.969 181.311 366.733 165.956C366.422 150.925 373.005 144.179 379.352 137.67C384.278 132.611 389.041 127.788 388.006 117.98C386.808 108.335 381.186 102.55 375.55 96.9139C368.493 89.6798 361.274 82.4457 359.055 69.6789C356.362 56.8972 360.638 52.7254 364.765 48.8643C367.62 45.9647 370.313 43.3906 366.821 35.5205C368.967 36.5708 371.186 37.6064 373.405 38.7307L373.39 38.7307ZM392.266 49.3377C397.74 58.5837 395.521 60.9063 392.666 63.6431C390.21 66.0544 387.355 68.8652 389.885 77.1496C392.192 85.6707 397.814 91.2923 403.302 97.0026C410.196 104.148 417.179 111.219 419.886 123.365C422.49 135.984 417.342 141.206 412.031 146.827C407.43 151.665 402.755 156.636 403.539 167.405C404.412 178.338 410.522 184.536 416.957 190.794C424.65 198.664 432.653 206.549 434.014 222.216C435.035 238.133 427.431 245.767 420.049 253.563C414.013 259.91 407.903 266.419 407.282 278.476C406.809 290.458 412.045 296.317 417.519 302.027C424.028 309.098 430.138 315.519 427.993 330.15C425.863 344.13 418.481 351.689 411.173 359.086C405.462 365.033 399.752 370.743 398.406 380.463C396.971 389.945 400.862 393.806 404.442 397.505C408.643 401.765 412.445 405.612 408.717 416.307C404.678 426.752 397.696 433.823 390.713 440.909C384.855 446.694 378.982 452.567 375.328 460.2C373.035 461.25 370.89 462.375 368.745 463.425C373.345 452.729 380.639 445.421 387.858 438.187C393.568 432.477 399.279 426.767 401.971 418.808C404.59 410.701 401.424 407.564 398.08 404.192C393.48 399.532 388.568 394.546 390.314 381.602C391.897 368.347 398.953 361.024 406.01 353.79C411.957 347.769 417.83 341.659 419.25 331.126C420.359 320.356 415.448 314.971 410.374 309.498C403.628 302.264 396.734 294.867 397.518 278.712C397.992 262.069 405.536 254.199 412.992 246.329C418.939 239.909 425.049 233.636 424.25 221.905C423.688 210.085 416.868 203.738 410.758 197.466C403.066 189.596 395.521 181.799 394.5 166.858C393.627 152.227 399.486 145.955 405.448 140.008C409.723 135.51 413.939 131.161 412.193 121.767C410.522 112.521 404.811 106.811 399.427 101.189C392.444 94.0439 385.387 87.0465 382.532 75.2265C379.44 63.6579 382.946 60.0334 386.112 56.986C388.331 54.7373 390.314 52.8142 386.423 45.8168C388.243 46.9411 390.314 48.0654 392.296 49.3525L392.266 49.3377ZM409.013 60.995C415.034 69.3534 413.614 70.8919 411.705 72.7411C409.797 74.5903 407.652 76.765 410.67 84.3097C413.599 92.1059 419.161 97.8902 424.783 103.512C431.691 110.746 438.659 117.98 442.476 129.549C446.13 141.679 441.766 146.103 437.091 151.014C433.038 155.275 428.836 159.772 430.582 170.068C432.017 180.749 438.674 187.022 445.109 193.368C453.039 201.327 461.767 209.212 463.586 223.991C465.095 238.932 457.876 246.018 450.346 253.326C444.162 259.51 437.964 265.871 436.943 277.514C436.307 289.009 441.071 294.556 445.982 299.778C452.166 306.14 457.728 312.072 454.385 325.904C451.219 339.484 443.349 347.133 435.908 354.692C429.872 360.728 424.087 366.823 422.031 376.069C420.049 384.989 423.303 388.288 426.233 391.262C429.65 394.872 432.579 397.86 427.904 407.979C423.067 417.55 416.158 424.459 409.427 431.367C403.717 436.989 398.154 442.773 394.027 449.534C391.897 450.732 390.077 451.945 388.08 453.144C393.391 443.572 400.462 436.516 407.43 429.444C412.904 423.823 418.377 418.112 421.794 410.878C425.049 403.319 422.505 400.833 419.812 397.934C416.01 394.161 411.957 389.901 414.412 377.755C416.868 364.9 424.013 357.592 431.396 349.958C437.431 343.848 443.763 337.665 445.908 327.531C447.816 317.087 443.452 312.338 438.689 307.205C432.416 300.622 425.996 293.713 427.179 277.958C428.2 261.803 435.671 254.081 443.201 246.447C449.222 240.412 455.095 234.553 453.911 223.295C452.876 212.126 445.982 205.78 439.31 199.419C431.543 191.548 423.525 183.663 421.78 169.033C419.871 154.727 425.271 149.18 430.271 144.031C433.999 140.096 437.49 136.324 435.271 127.241C432.653 118.572 426.943 112.773 421.469 106.988C414.56 99.8282 407.593 92.7569 404.013 81.8244C400.211 71.1434 402.992 68.4954 405.285 66.2319C406.868 64.6194 408.14 63.3324 403.702 57.1487C405.448 58.347 407.193 59.7228 409.028 60.995L409.013 60.995Z" fill="#ffcb91" fill-rule="nonzero" opacity="1" stroke="none" vectornator:layerName="path"/>
</g>
</svg>
