<?xml version="1.0" encoding="utf-8"?>
<svg viewBox="0 0 500 500" xmlns="http://www.w3.org/2000/svg">
  <g fill="#fa7214" transform="matrix(1.5624630451202393, 0, 0, 1.5624630451202393, -149.99598693847656, -149.9882049560547)">
    <path d="m125.01 347.88 217.89-226.27c-0.19141-0.125-0.38281-0.25-0.57422-0.37109l-224.22 215.93c2.1602 3.6641 4.4648 7.2344 6.9062 10.707z"/>
    <path d="m163.25 386.38 219.55-227.99c-0.12109-0.15625-0.23828-0.30859-0.35938-0.46484l-229.19 220.72c3.2266 2.707 6.5625 5.2891 9.9961 7.7383z"/>
    <path d="m187.29 400.52 210.56-218.65c-0.12891-0.25-0.26172-0.49609-0.39062-0.74609l-221.59 213.38c3.7109 2.1523 7.5195 4.1602 11.414 6.0156z"/>
    <path d="m174.84 393.9 215.93-224.22c-0.125-0.19141-0.25-0.38281-0.37109-0.57422l-226.27 217.89c3.4727 2.4414 7.043 4.7461 10.711 6.9102z"/>
    <path d="m117.5 336.13 213.38-221.58c-0.24609-0.13281-0.49609-0.26172-0.74609-0.39062l-218.65 210.56c1.8555 3.8906 3.8633 7.6992 6.0156 11.41z"/>
    <path d="m97.594 278.59 175.02-181.75c-0.82031-0.085938-1.6406-0.16406-2.4648-0.23438l-173.94 167.5c0.24609 4.8906 0.71094 9.7188 1.3828 14.48z"/>
    <path d="m96.766 240.34 137.61-142.9c-1.668 0.22656-3.332 0.47656-4.9844 0.75391l-130.07 125.26c-1.1406 5.5273-1.9961 11.16-2.5547 16.883z"/>
    <path d="m110.88 323.45 207.07-215.03c-0.32812-0.13672-0.65625-0.27344-0.98828-0.41016l-211.13 203.32c1.5195 4.1211 3.2031 8.168 5.0469 12.121z"/>
    <path d="m256.01 416c3.6523 0 7.2773-0.125 10.871-0.36719l149.06-154.79c0.035156-1.1445 0.054688-2.2891 0.066406-3.4375l-164.61 158.52c1.5352 0.046875 3.0742 0.070313 4.6172 0.070313z"/>
    <path d="m100.93 216.46 109.75-113.96c-2.6953 0.79297-5.3633 1.6562-7.9961 2.5898l-95.445 91.914c-2.5 6.2969-4.6094 12.793-6.3047 19.457z"/>
    <path d="m100.76 294.85 188.23-195.46c-0.59766-0.125-1.1992-0.24609-1.8008-0.36719l-189.2 182.2c0.73047 4.6094 1.6562 9.1562 2.7695 13.625z"/>
    <path d="m105.26 309.73 198.77-206.41c-0.44141-0.13672-0.88281-0.27344-1.3281-0.41016l-201.42 193.97c1.1484 4.3594 2.4766 8.6445 3.9766 12.852z"/>
    <path d="m288.55 412.68 125.27-130.08c0.27734-1.6523 0.52734-3.3125 0.75391-4.9844l-142.9 137.62c5.7227-0.55859 11.355-1.4141 16.883-2.5547z"/>
    <path d="m142.53 368.79 221.92-230.45c-0.13281-0.12109-0.26562-0.24219-0.39844-0.36719l-230.05 221.54c2.7188 3.2031 5.5625 6.2969 8.5234 9.2734z"/>
    <path d="m133.37 358.75 220.71-229.2c-0.15625-0.12109-0.30859-0.24219-0.46484-0.35938l-227.99 219.55c2.4531 3.4414 5.0352 6.7734 7.7422 10z"/>
    <path d="m315 404.77 91.914-95.445c0.92969-2.6328 1.793-5.3008 2.5898-7.9961l-113.96 109.75c6.6641-1.6953 13.16-3.8047 19.457-6.3047z"/>
    <path d="m143.22 369.47c2.9766 2.9609 6.0703 5.8047 9.2734 8.5234l221.54-230.05c-0.12109-0.13281-0.24219-0.26562-0.36719-0.39844z"/>
    <path d="m96.008 255.99c0 1.543 0.023438 3.0859 0.066407 4.6172l158.52-164.61c-1.1484 0.011718-2.2969 0.03125-3.4375 0.066406l-154.79 149.06c-0.24219 3.5938-0.36719 7.2148-0.36719 10.871z"/>
    <path d="m134.38 152.04c-8.4609 9.8867-15.734 20.82-21.602 32.574l66.5-69.055c-7.9414 4.3516-15.477 9.3555-22.531 14.941z"/>
    <path d="m200.68 406.17 203.32-211.13c-0.13672-0.32812-0.27344-0.66016-0.41016-0.98828l-215.03 207.07c3.957 1.8438 8 3.5273 12.121 5.0469z"/>
    <path d="m359.97 377.62 21.539-22.367c5.5859-7.0508 10.59-14.586 14.941-22.531l-69.059 66.504c11.758-5.8711 22.688-13.145 32.578-21.605z"/>
    <path d="m247.9 415.79 167.5-173.94c-0.070313-0.82422-0.15234-1.6445-0.23438-2.4648l-181.75 175.02c4.7617 0.67578 9.5898 1.1367 14.48 1.3828z"/>
    <path d="m215.12 410.72 193.97-201.42c-0.13672-0.44141-0.26953-0.88672-0.41016-1.3281l-206.41 198.78c4.207 1.4961 8.4922 2.8242 12.852 3.9727z"/>
    <path d="m217.16 411.24c4.4688 1.1172 9.0156 2.043 13.625 2.7734l182.2-189.2c-0.11719-0.60156-0.24219-1.1992-0.36719-1.8008z"/>
  </g>
</svg>