<?xml version="1.0" encoding="utf-8"?>
<svg viewBox="0 0 500 500" xmlns="http://www.w3.org/2000/svg">
  <g fill="#fa7214" transform="matrix(1.5624749660491943, 0, 0, 1.5624749660491943, -150.00204467773438, -145.04934692382812)">
    <path d="m256 96c-35.887 0-69.012 11.812-95.703 31.766h191.4c-26.688-19.953-59.812-31.766-95.699-31.766z"/>
    <path d="m353.99 129.51h-195.98c-5.8789 4.5586-11.43 9.5195-16.613 14.836h229.2c-5.1836-5.3203-10.734-10.277-16.613-14.836z"/>
    <path d="m373.1 146.96h-234.2c-4.125 4.4258-8 9.0898-11.605 13.965h257.41c-3.6055-4.8711-7.4805-9.5352-11.605-13.965z"/>
    <path d="m387.21 164.42h-262.43c-2.9492 4.2188-5.7031 8.5859-8.2422 13.09h278.91c-2.5391-4.5-5.293-8.8711-8.2422-13.09z"/>
    <path d="m397.83 181.88h-283.66c-2.082 3.9766-4.0039 8.0547-5.7539 12.219h295.16c-1.75-4.168-3.668-8.2422-5.7539-12.219z"/>
    <path d="m405.68 199.33h-299.35c-1.4102 3.7188-2.6797 7.5039-3.8125 11.348h306.98c-1.1328-3.8438-2.4062-7.6289-3.8125-11.348z"/>
    <path d="m411.16 216.79h-310.31c-0.86719 3.4492-1.625 6.9414-2.2656 10.473h314.85c-0.64062-3.5312-1.3984-7.0234-2.2695-10.473z"/>
    <path d="m414.53 234.25h-317.06c-0.42969 3.1719-0.76953 6.3711-1.0156 9.6016h319.09c-0.24219-3.2305-0.58203-6.4297-1.0117-9.6016z"/>
    <path d="m416 256c0-1.4375-0.019531-2.8711-0.058594-4.3008h-319.88c-0.039063 1.4297-0.058594 2.8633-0.058594 4.3008 0 1.4805 0.023438 2.957 0.0625 4.4297h319.88c0.039062-1.4727 0.0625-2.9492 0.0625-4.4297z"/>
    <path d="m415.46 269.16h-318.93c0.21484 2.6367 0.49219 5.2539 0.83203 7.8555h317.26c0.34375-2.5977 0.62109-5.2188 0.83594-7.8555z"/>
    <path d="m413.07 286.61h-314.15c0.45312 2.3477 0.96094 4.6758 1.5156 6.9805h311.11c0.55859-2.3086 1.0625-4.6367 1.5195-6.9805z"/>
    <path d="m408.65 304.07h-305.3c0.64844 2.0547 1.332 4.0898 2.0586 6.1094h301.18c0.72656-2.0156 1.4141-4.0547 2.0625-6.1094z"/>
    <path d="m402.01 321.52h-292.02c0.79297 1.7617 1.6172 3.5078 2.4688 5.2383h287.08c0.85156-1.7305 1.6758-3.4766 2.4648-5.2383z"/>
    <path d="m392.83 338.98h-273.66c0.89453 1.4727 1.8125 2.9258 2.7539 4.3633h268.15c0.9375-1.4375 1.8555-2.8945 2.75-4.3633z"/>
    <path d="m380.55 356.44h-249.11c0.94922 1.1797 1.918 2.3398 2.9023 3.4922h243.3c0.98438-1.1523 1.9531-2.3164 2.9023-3.4922z"/>
    <path d="m364.17 373.89h-216.34c0.96484 0.88281 1.9375 1.7578 2.9219 2.6172l210.5 0.003907c0.98438-0.86328 1.957-1.7344 2.9219-2.6211z"/>
    <path d="m341.36 391.35h-170.73c0.93359 0.58984 1.875 1.1719 2.8242 1.7461h165.08c0.94922-0.57422 1.8906-1.1562 2.8242-1.7461z"/>
    <path d="m303.59 408.8h-95.188c0.96484 0.30078 1.9375 0.58984 2.9141 0.87109h89.359c0.97266-0.27734 1.9453-0.56641 2.9141-0.87109z"/>
  </g>
</svg>