<?xml version="1.0" encoding="utf-8"?>
<svg viewBox="0 0 500 500" xmlns="http://www.w3.org/2000/svg">
  <path d="M 317.697 9.31 C 325.806 34.598 320.34 51.539 311.871 66.855 C 319.859 54.182 328.389 38.264 334.336 14.655 C 340.702 40.423 334.034 56.941 324.487 71.657 C 333.318 59.584 342.927 44.268 350.556 21.083 C 355.061 47.27 347.313 63.25 336.739 77.246 C 346.409 65.832 357.102 51.238 366.23 28.651 C 368.934 55.079 360.103 70.456 348.572 83.731 C 359.024 72.977 370.679 59.225 381.428 37.298 C 382.267 63.849 372.357 78.566 359.925 90.997 C 371.097 81.026 383.713 68.113 395.905 47.03 C 394.943 73.519 384.01 87.515 370.736 99.047 C 382.631 89.918 396.085 77.845 409.718 57.662 C 406.895 84.032 395.002 97.308 381.006 107.878 C 393.437 99.527 407.674 88.477 422.753 69.254 C 418.069 95.441 405.275 107.756 390.557 117.369 C 403.592 109.919 418.611 99.891 434.945 81.747 C 428.455 107.516 414.823 118.929 399.506 127.459 C 413.022 120.97 428.639 111.96 446.239 95.084 C 437.949 120.31 423.595 130.762 407.677 138.213 C 421.613 132.685 437.832 124.819 456.513 109.141 C 446.541 133.768 431.466 143.198 415.067 149.503 C 429.364 144.937 446.122 138.213 465.882 123.915 C 454.167 147.76 438.492 156.111 421.673 161.214 C 436.268 157.67 453.449 152.143 474.109 139.292 C 460.773 162.237 444.557 169.447 427.437 173.41 C 442.215 170.889 459.751 166.563 481.315 155.15 C 466.419 177.134 449.719 183.26 432.362 186.026 C 447.318 184.523 465.099 181.403 487.384 171.549 C 470.985 192.393 453.869 197.317 436.386 198.881 C 451.404 198.4 469.303 196.6 492.248 188.311 C 474.406 207.952 457.05 211.676 439.51 212.038 C 454.467 212.58 472.488 212.038 495.97 205.309 C 476.809 223.749 459.208 226.213 441.669 225.312 C 456.565 226.934 474.586 227.655 498.493 222.608 C 478.069 239.606 460.35 240.869 442.932 238.767 C 457.648 241.411 475.608 243.334 499.755 240.03 C 478.252 255.529 460.472 255.586 443.233 252.221 C 457.771 255.944 475.548 259.129 499.877 257.448 C 477.352 271.444 459.572 270.242 442.635 265.737 C 456.871 270.421 474.35 274.808 498.737 274.865 C 475.25 287.24 457.653 284.837 441.074 279.13 C 454.948 284.776 472.068 290.421 496.394 292.165 C 472.129 302.919 454.707 299.191 438.549 292.344 C 452.003 299.012 468.704 305.798 492.85 309.224 C 467.864 318.234 450.805 313.367 435.127 305.439 C 448.101 312.947 464.26 320.938 488.105 326.043 C 462.639 333.31 445.877 327.245 430.863 318.234 C 443.237 326.642 458.854 335.713 482.219 342.442 C 456.272 347.909 439.991 340.699 425.637 330.67 C 437.409 339.921 452.306 350.071 475.251 358.421 C 448.941 362.087 433.205 353.737 419.568 342.682 C 430.68 352.772 444.856 363.945 467.14 373.856 C 440.651 375.656 425.515 366.287 412.66 354.275 C 423.051 365.147 436.447 377.22 457.951 388.752 C 431.401 388.692 416.986 378.239 405.034 365.387 C 414.585 376.919 427.078 389.953 447.742 402.87 C 421.315 401.009 407.677 389.595 396.565 375.961 C 405.334 388.096 416.928 401.97 436.63 416.324 C 410.321 412.54 397.526 400.227 387.436 385.871 C 395.367 398.605 405.876 413.203 424.557 428.939 C 398.61 423.354 386.715 410.137 377.644 395.122 C 384.613 408.336 394.101 423.713 411.64 440.654 C 386.173 433.326 375.179 419.269 367.191 403.651 C 373.257 417.346 381.668 433.326 397.945 451.464 C 373.016 442.337 363.045 427.619 356.197 411.46 C 361.244 425.574 368.572 442.095 383.529 461.314 C 359.321 450.442 350.372 435.065 344.665 418.487 C 348.75 432.903 354.877 449.901 368.453 470.145 C 345.088 457.591 337.219 441.615 332.713 424.675 C 335.715 439.331 340.644 456.691 352.835 477.832 C 330.37 463.718 323.641 447.257 320.281 430.019 C 322.322 444.854 326.048 462.516 336.68 484.44 C 315.238 468.823 309.71 451.885 307.547 434.464 C 308.57 449.42 311.03 467.32 320.101 489.967 C 299.799 472.847 295.473 455.547 294.573 438.007 C 294.511 453.026 295.713 471.042 303.22 494.232 C 284.177 475.731 281.057 458.251 281.354 440.712 C 280.214 455.608 280.153 473.69 286.039 497.356 C 268.319 477.592 266.458 459.934 267.957 442.394 C 265.794 457.229 264.474 475.25 268.678 499.278 C 252.4 478.317 251.74 460.537 254.502 443.176 C 251.317 457.832 248.734 475.731 251.26 500 C 236.482 477.955 237.084 460.175 240.986 443.058 C 236.782 457.413 232.998 475.074 233.838 499.462 C 220.563 476.455 222.424 458.737 227.532 441.918 C 222.367 455.975 217.321 473.331 216.42 497.719 C 204.888 473.813 207.952 456.333 214.197 439.934 C 208.07 453.568 201.822 470.509 199.24 494.774 C 189.39 470.146 193.655 452.846 201.04 436.928 C 193.953 450.142 186.563 466.603 182.299 490.627 C 174.132 465.339 179.655 448.459 188.124 433.083 C 180.135 445.755 171.606 461.673 165.659 485.34 C 159.293 459.572 165.961 443.054 175.509 428.338 C 166.678 440.411 157.008 455.669 149.439 478.855 C 144.935 452.724 152.682 436.749 163.256 422.691 C 153.586 434.105 142.893 448.7 133.765 471.286 C 131.003 444.916 139.892 429.481 151.423 416.207 C 140.971 426.961 129.317 440.773 118.567 462.639 C 117.728 436.089 127.638 421.372 140.07 408.94 C 128.898 418.912 116.283 431.885 104.09 452.969 C 105.052 426.419 115.985 412.423 129.259 400.892 C 117.365 410.081 103.911 422.094 90.277 442.277 C 93.1 415.906 104.994 402.692 118.99 392.122 C 106.558 400.412 92.321 411.463 77.242 430.684 C 81.926 404.554 94.72 392.183 109.438 382.631 C 96.403 390.081 81.384 400.109 65.051 418.191 C 71.54 392.423 85.173 381.01 100.489 372.48 C 87.035 378.969 71.356 387.979 53.756 404.854 C 62.045 379.686 76.4 369.176 92.318 361.787 C 78.383 367.314 62.163 375.18 43.426 390.797 C 53.458 366.231 68.534 356.801 84.933 350.492 C 70.636 355.058 53.878 361.783 34.118 376.08 C 45.833 352.235 61.508 343.884 78.327 338.719 C 63.732 342.263 46.551 347.791 25.891 360.704 C 39.166 337.758 55.443 330.491 72.563 326.524 C 57.785 329.046 40.249 333.372 18.685 344.785 C 33.581 322.801 50.281 316.731 67.639 313.97 C 52.742 315.473 34.962 318.536 12.616 328.446 C 29.015 307.542 46.131 302.617 63.614 301.114 C 48.657 301.534 30.697 303.395 7.752 311.684 C 25.532 291.982 42.95 288.259 60.49 287.957 C 45.533 287.359 27.455 287.957 4.03 294.625 C 23.191 276.246 40.792 273.721 58.331 274.621 C 43.435 273 25.353 272.34 1.507 277.383 C 21.87 260.324 39.65 259.061 57.068 261.224 C 42.29 258.52 24.392 256.601 0.184 259.961 C 21.748 244.405 39.528 244.405 56.767 247.709 C 42.229 244.044 24.452 240.862 0.123 242.483 C 22.648 228.487 40.428 229.688 57.365 234.255 C 43.129 229.57 25.65 225.126 1.263 225.126 C 24.75 212.694 42.347 215.154 58.926 220.861 C 45.052 215.154 27.932 209.57 3.606 207.826 C 27.871 197.072 45.293 200.738 61.451 207.586 C 47.997 200.979 31.296 194.132 7.15 190.706 C 32.078 181.695 49.195 186.564 64.873 194.552 C 51.899 186.984 35.679 179.053 11.834 173.948 C 37.423 166.681 54.12 172.746 69.138 181.757 C 56.764 173.349 41.147 164.279 17.721 157.492 C 43.73 152.025 59.949 159.235 74.365 169.325 C 62.593 160.012 47.636 149.923 24.751 141.512 C 51.061 137.907 66.797 146.197 80.434 157.251 C 69.322 147.219 55.146 136.049 32.861 126.078 C 59.35 124.277 74.426 133.707 87.282 145.659 C 76.952 134.848 63.555 122.714 42.052 111.239 C 68.602 111.3 82.957 121.691 94.969 134.547 C 85.36 123.014 72.863 110.041 52.261 97.063 C 78.688 98.985 92.326 110.399 103.438 124.033 C 94.669 111.898 83.075 98.024 63.373 83.67 C 89.682 87.393 102.477 99.707 112.567 114.123 C 104.636 101.39 94.066 86.734 75.446 71.055 C 101.393 76.639 113.287 89.796 122.359 104.872 C 115.389 91.597 105.841 76.281 88.363 59.283 C 113.829 66.671 124.823 80.667 132.812 96.285 C 126.746 82.591 118.335 66.611 102.058 48.472 C 126.987 57.6 136.958 72.378 143.806 88.537 C 138.759 74.423 131.431 57.902 116.474 38.623 C 140.682 49.495 149.57 64.871 155.338 81.511 C 151.253 67.095 145.126 50.097 131.55 29.853 C 154.915 42.346 162.724 58.326 167.29 75.263 C 164.226 60.607 159.302 43.247 147.168 22.105 C 169.633 36.219 176.362 52.741 179.665 69.979 C 177.681 55.082 173.958 37.424 163.327 15.498 C 184.769 31.176 190.296 48.052 192.399 65.474 C 191.438 50.517 188.973 32.618 179.906 10.032 C 200.208 27.152 204.534 44.391 205.434 61.931 C 205.496 46.913 204.293 28.953 196.787 5.707 C 215.829 24.208 218.95 41.687 218.653 59.227 C 219.793 44.331 219.854 26.249 213.968 2.583 C 231.688 22.404 233.549 40.066 232.05 57.544 C 234.213 42.71 235.532 24.75 231.328 0.721 C 247.606 21.625 248.266 39.405 245.504 56.762 C 248.689 42.106 251.272 24.265 248.747 0 C 263.525 22.045 262.923 39.825 259.02 56.884 C 263.224 42.53 267.008 24.868 266.169 0.542 C 279.383 23.549 277.583 41.207 272.474 58.025 C 277.639 43.967 282.686 26.611 283.525 2.281 C 295.118 26.127 292.054 43.667 285.806 60.066 C 291.932 46.372 298.181 29.43 300.763 5.226 C 310.613 29.854 306.348 47.092 298.962 63.011 C 306.05 49.797 313.439 33.337 317.703 9.312 L 317.697 9.31 Z M 376.682 121.819 C 392.361 112.748 407.738 103.859 415.664 82.777 C 399.925 99.896 385.452 109.147 373.257 116.834 C 366.767 120.976 360.943 124.642 356.137 128.846 L 359.921 132.272 C 365.387 128.366 371.094 125.062 376.678 121.82 L 376.682 121.819 Z M 393.322 140.678 C 410.08 133.892 426.54 127.224 437.351 107.46 C 419.391 122.238 403.713 129.326 390.56 135.272 C 383.591 138.458 377.285 141.28 371.941 144.763 L 375.244 148.669 C 381.191 145.606 387.256 143.142 393.326 140.681 L 393.322 140.678 Z M 425.338 208.434 C 443.477 209.033 461.2 209.637 479.098 196.003 C 456.752 202.19 439.514 202.309 425.037 202.37 C 417.408 202.431 410.561 202.488 404.255 203.449 L 405.636 208.374 C 412.243 208.016 418.85 208.256 425.339 208.435 L 425.338 208.434 Z M 429.003 270.904 C 445.761 277.69 462.222 284.297 483.786 277.572 C 460.601 275.771 444.38 270.003 430.808 265.14 C 423.541 262.558 417.052 260.277 410.804 259.014 L 410.446 264.118 C 416.873 266.04 422.939 268.501 429.008 270.905 L 429.003 270.904 Z M 416.27 319.437 C 430.568 330.61 444.56 341.482 467.085 340.941 C 445.341 332.831 431.345 322.803 419.63 314.39 C 413.382 309.946 407.797 305.922 402.09 302.977 L 400.347 307.783 C 405.932 311.388 411.158 315.412 416.266 319.437 L 416.27 319.437 Z M 367.434 113.287 C 382.453 103.136 397.166 93.226 403.593 71.6 C 389.117 89.8 375.303 100.012 363.65 108.602 C 357.464 113.107 351.936 117.193 347.435 121.698 L 351.46 124.884 C 356.625 120.619 362.092 116.953 367.439 113.291 L 367.434 113.287 Z M 400.591 150.949 C 417.769 145.364 434.649 139.837 446.783 120.916 C 427.924 134.37 411.765 140.317 398.25 145.364 C 391.041 148.069 384.616 150.411 378.967 153.531 L 382.03 157.674 C 388.157 155.031 394.405 152.99 400.592 150.945 L 400.591 150.949 Z M 407.138 161.703 C 424.678 157.32 441.916 152.994 455.371 134.912 C 435.55 147.046 419.033 151.91 405.155 155.996 C 397.827 158.159 391.219 160.081 385.391 162.782 L 388.095 167.108 C 394.462 164.884 400.768 163.324 407.138 161.703 Z M 412.906 172.875 C 430.747 169.751 448.164 166.627 462.882 149.568 C 442.278 160.26 425.46 163.922 411.346 167.046 C 403.838 168.667 397.11 170.17 391.163 172.391 L 393.566 176.957 C 400.112 175.156 406.54 174.012 412.907 172.871 L 412.906 172.875 Z M 422.034 196.301 C 440.115 195.641 457.834 195.038 474.771 180.142 C 452.849 187.89 435.729 189.213 421.313 190.293 C 413.684 190.892 406.836 191.373 400.591 192.815 L 402.335 197.621 C 409.003 196.782 415.549 196.541 422.038 196.301 L 422.034 196.301 Z M 427.802 220.749 C 445.822 222.672 463.48 224.472 482.283 212.101 C 459.578 216.724 442.397 215.644 427.982 214.745 C 420.291 214.203 413.505 213.783 407.078 214.325 L 408.157 219.372 C 414.886 219.432 421.37 220.093 427.798 220.753 L 427.802 220.749 Z M 429.423 233.242 C 447.265 236.366 464.743 239.429 484.384 228.379 C 461.378 231.381 444.319 229.099 430.026 227.238 C 422.396 226.216 415.61 225.315 409.182 225.376 L 409.903 230.48 C 416.632 231.022 423.056 232.101 429.426 233.242 L 429.423 233.242 Z M 430.144 245.795 C 447.744 250.178 464.983 254.444 485.345 244.773 C 462.16 246.215 445.28 242.732 431.166 239.848 C 423.598 238.288 416.869 236.904 410.502 236.545 L 410.861 241.649 C 417.407 242.671 423.834 244.231 430.144 245.792 L 430.144 245.795 Z M 430.026 258.411 C 447.203 263.938 464.083 269.461 485.105 261.234 C 461.92 260.994 445.341 256.37 431.406 252.463 C 424.018 250.422 417.41 248.557 411.043 247.779 L 411.043 252.883 C 417.533 254.325 423.777 256.366 430.026 258.411 Z M 427.08 283.339 C 443.358 291.27 459.337 299.018 481.259 293.853 C 458.314 290.37 442.518 283.523 429.3 277.694 C 422.274 274.63 416.025 271.868 409.777 270.243 L 409.056 275.29 C 415.423 277.694 421.247 280.517 427.076 283.339 L 427.08 283.339 Z M 424.319 295.652 C 439.997 304.663 455.374 313.551 477.659 309.889 C 455.015 304.842 439.757 296.854 426.901 290.125 C 420.115 286.581 414.045 283.396 408.041 281.294 L 406.962 286.341 C 412.97 289.103 418.677 292.406 424.323 295.652 L 424.319 295.652 Z M 420.714 307.665 C 435.733 317.816 450.445 327.669 472.914 325.563 C 450.629 318.956 435.973 309.946 423.72 302.378 C 417.174 298.354 411.288 294.749 405.459 292.288 L 404.017 297.213 C 409.904 300.398 415.308 304.061 420.714 307.665 Z M 411.044 330.85 C 424.498 342.985 437.713 354.818 460.238 355.897 C 439.094 346.227 425.819 335.233 414.706 326.044 C 408.82 321.18 403.534 316.793 398.067 313.49 L 395.964 318.175 C 401.309 322.138 406.176 326.525 411.04 330.847 L 411.044 330.85 Z M 404.979 341.901 C 417.594 354.936 429.907 367.669 452.312 370.313 C 431.948 359.201 419.455 347.306 409.003 337.335 C 403.476 332.048 398.49 327.363 393.264 323.64 L 390.861 328.145 C 395.908 332.529 400.47 337.216 404.975 341.901 L 404.979 341.901 Z M 398.193 352.533 C 409.847 366.349 421.26 379.983 443.484 384.129 C 423.843 371.636 412.25 358.903 402.519 348.21 C 397.353 342.565 392.727 337.518 387.802 333.494 L 385.04 337.82 C 389.786 342.504 393.99 347.49 398.193 352.537 L 398.193 352.533 Z M 390.685 362.622 C 401.317 377.217 411.769 391.575 433.634 397.282 C 414.953 383.466 404.261 369.95 395.312 358.598 C 390.567 352.59 386.301 347.246 381.618 342.859 L 378.616 347.002 C 382.999 351.988 386.844 357.331 390.689 362.619 L 390.685 362.622 Z M 382.518 372.114 C 392.128 387.49 401.5 402.509 422.881 409.715 C 405.223 394.639 395.549 380.403 387.381 368.509 C 383.055 362.142 379.153 356.497 374.828 351.812 L 371.524 355.718 C 375.549 361.005 379.031 366.59 382.518 372.117 L 382.518 372.114 Z M 373.63 381.063 C 382.16 397.042 390.509 412.717 411.353 421.368 C 394.774 405.091 386.065 390.252 378.799 377.82 C 374.892 371.152 371.41 365.266 367.385 360.28 L 363.841 363.946 C 367.507 369.473 370.57 375.298 373.633 381.066 L 373.63 381.063 Z M 364.2 389.352 C 371.589 405.931 378.856 422.146 398.978 432.24 C 383.601 414.822 375.971 399.384 369.544 386.468 C 366.118 379.56 363.055 373.433 359.393 368.146 L 355.608 371.572 C 358.912 377.457 361.556 383.404 364.199 389.352 L 364.2 389.352 Z M 354.228 397.042 C 360.416 414.04 366.481 430.679 385.882 442.15 C 371.768 423.71 365.219 407.852 359.752 394.455 C 356.807 387.367 354.167 381.001 350.921 375.534 L 346.835 378.658 C 349.719 384.724 352 390.911 354.225 397.037 L 354.228 397.042 Z M 343.715 403.95 C 348.7 421.31 353.625 438.37 372.187 451.221 C 359.393 431.82 353.927 415.481 349.36 401.787 C 346.957 394.521 344.794 387.971 341.91 382.264 L 337.646 385.149 C 340.109 391.397 341.91 397.702 343.711 403.951 L 343.715 403.95 Z M 332.721 410.077 C 336.505 427.797 340.228 445.157 357.829 459.209 C 346.415 439.026 342.15 422.329 338.546 408.333 C 336.623 400.883 334.942 394.275 332.481 388.329 L 328.036 390.911 C 330.02 397.278 331.402 403.706 332.721 410.072 L 332.721 410.077 Z M 321.368 415.482 C 323.89 433.381 326.415 450.982 342.994 466.241 C 333.023 445.279 329.899 428.339 327.316 414.101 C 325.935 406.595 324.672 399.865 322.631 393.8 L 318.008 396.023 C 319.568 402.513 320.472 408.997 321.372 415.486 L 321.368 415.482 Z M 309.654 420.049 C 310.916 438.13 312.175 455.789 327.674 472.188 C 319.145 450.562 317.222 433.504 315.661 419.088 C 314.823 411.519 314.04 404.672 312.419 398.546 L 307.673 400.407 C 308.753 407.015 309.176 413.56 309.657 420.049 L 309.654 420.049 Z M 297.641 423.771 C 297.641 441.91 297.641 459.633 311.996 477.051 C 305.026 454.945 304.305 437.707 303.707 423.291 C 303.347 415.6 303.107 408.753 301.906 402.509 L 297.042 404.069 C 297.641 410.677 297.641 417.283 297.641 423.772 L 297.641 423.771 Z M 285.388 426.655 C 284.186 444.737 282.924 462.455 295.959 480.834 C 290.553 458.247 291.094 441.07 291.454 426.594 C 291.694 418.965 291.873 412.117 291.094 405.75 L 286.17 406.952 C 286.289 413.682 285.869 420.227 285.388 426.655 Z M 273.013 428.696 C 270.492 446.656 268.027 464.256 279.743 483.479 C 275.959 460.594 277.64 443.474 279.021 429.058 C 279.803 421.429 280.464 414.642 280.162 408.215 L 275.115 409.115 C 274.814 415.783 273.914 422.268 273.013 428.696 Z M 260.46 429.898 C 256.736 447.618 253.071 464.916 263.405 484.978 C 261.181 461.853 264.064 444.913 266.468 430.676 C 267.788 423.108 268.932 416.322 269.051 409.894 L 263.946 410.435 C 263.164 417.165 261.783 423.531 260.464 429.898 L 260.46 429.898 Z M 247.906 430.199 C 242.92 447.559 238.057 464.676 247.006 485.34 C 246.407 462.155 250.432 445.397 253.853 431.34 C 255.654 423.889 257.279 417.225 257.816 410.858 L 252.713 411.038 C 251.45 417.645 249.711 423.951 247.906 430.199 Z M 235.353 429.6 C 229.165 446.598 223.1 463.299 230.546 484.562 C 231.626 461.376 236.794 444.977 241.178 431.221 C 243.52 423.893 245.561 417.347 246.583 411.038 L 241.48 410.798 C 239.797 417.286 237.573 423.47 235.353 429.6 Z M 222.799 428.097 C 215.471 444.676 208.261 460.892 214.27 482.64 C 216.913 459.573 223.219 443.597 228.568 430.142 C 231.39 422.994 233.911 416.566 235.354 410.379 L 230.307 409.837 C 228.144 416.142 225.5 422.15 222.799 428.097 Z M 210.486 425.816 C 202.017 441.796 193.667 457.47 198.111 479.576 C 202.375 456.749 209.826 441.254 216.071 428.219 C 219.374 421.311 222.319 415.124 224.238 408.997 L 219.191 408.097 C 216.609 414.284 213.545 420.052 210.482 425.816 L 210.486 425.816 Z M 198.294 422.631 C 188.743 437.947 179.312 453.026 182.197 475.368 C 188.083 452.904 196.551 437.947 203.701 425.392 C 207.485 418.724 210.849 412.777 213.192 406.83 L 208.205 405.567 C 205.204 411.576 201.717 417.099 198.295 422.627 L 198.294 422.631 Z M 186.4 418.606 C 175.768 433.262 165.378 447.617 166.637 470.085 C 174.025 448.101 183.574 433.804 191.565 421.73 C 195.83 415.364 199.614 409.657 202.319 403.889 L 197.455 402.268 C 194.03 408.035 190.188 413.318 186.404 418.605 L 186.4 418.606 Z M 174.807 413.743 C 163.153 427.617 151.801 441.193 151.5 463.78 C 160.389 442.337 170.901 428.7 179.732 417.229 C 184.417 411.164 188.621 405.755 191.687 400.17 L 186.942 398.247 C 183.158 403.774 178.954 408.761 174.807 413.746 L 174.807 413.743 Z M 163.516 408.098 C 150.963 421.133 138.649 433.926 136.848 456.391 C 147.239 435.609 158.652 422.754 168.262 411.942 C 173.308 406.174 177.871 401.07 181.357 395.727 L 176.791 393.502 C 172.648 398.667 168.082 403.412 163.516 408.097 L 163.516 408.098 Z M 152.706 401.67 C 139.313 413.805 126.095 425.698 122.735 447.98 C 134.507 427.976 146.82 415.964 157.154 405.874 C 162.621 400.468 167.546 395.662 171.39 390.558 C 170.792 390.256 170.188 389.898 169.59 389.535 C 168.751 389.054 167.847 388.513 166.946 387.975 C 162.38 392.96 157.577 397.344 152.71 401.669 L 152.706 401.67 Z M 142.376 394.521 C 128.14 405.693 114.144 416.627 109.219 438.61 C 122.372 419.51 135.468 408.337 146.519 398.964 C 152.344 394.039 157.569 389.595 161.777 384.728 L 157.573 381.844 C 152.71 386.468 147.541 390.492 142.376 394.517 L 142.376 394.521 Z M 132.584 386.652 C 117.566 396.803 102.853 406.773 96.425 428.339 C 110.902 410.2 124.715 399.988 136.368 391.398 C 142.556 386.831 148.083 382.749 152.584 378.244 L 148.56 375.059 C 143.395 379.385 137.928 383.047 132.58 386.652 L 132.584 386.652 Z M 123.333 378.121 C 107.655 387.193 92.278 396.081 84.351 417.164 C 100.03 400.044 114.564 390.855 126.759 383.107 C 133.248 379.022 139.072 375.36 143.879 371.152 L 140.095 367.726 C 134.629 371.632 128.922 374.875 123.337 378.117 L 123.333 378.121 Z M 114.686 368.993 C 98.409 376.924 82.49 384.733 73.06 405.214 C 89.94 389.234 105.077 381.067 117.81 374.22 C 124.538 370.554 130.605 367.311 135.708 363.466 C 135.228 362.985 134.746 362.504 134.266 361.962 C 133.545 361.242 132.824 360.459 132.164 359.739 C 126.397 363.222 120.51 366.106 114.686 368.99 L 114.686 368.993 Z M 106.698 359.262 C 89.94 366.048 73.479 372.716 62.669 392.481 C 80.629 377.764 96.306 370.615 109.459 364.668 C 116.429 361.483 122.673 358.66 128.078 355.177 L 124.775 351.271 C 118.827 354.334 112.762 356.798 106.693 359.259 L 106.698 359.262 Z M 99.431 348.989 C 82.254 354.574 65.374 360.101 53.239 379.082 C 72.098 365.628 88.257 359.62 101.773 354.577 C 108.982 351.933 115.407 349.53 120.995 346.466 L 117.993 342.324 C 111.867 344.967 105.618 347.008 99.43 348.992 L 99.431 348.989 Z M 92.885 338.235 C 75.345 342.618 58.107 346.944 44.652 365.026 C 64.473 352.953 80.991 348.088 94.869 344.003 C 102.196 341.84 108.804 339.918 114.632 337.217 L 111.87 332.891 C 105.564 335.054 99.197 336.675 92.887 338.236 L 92.885 338.235 Z M 87.117 327.062 C 69.275 330.247 51.858 333.31 37.141 350.427 C 57.744 339.735 74.562 336.011 88.676 332.949 C 96.184 331.266 102.852 329.825 108.86 327.544 L 106.456 323.038 C 99.911 324.839 93.483 325.922 87.116 327.062 L 87.117 327.062 Z M 82.132 315.53 C 64.111 317.453 46.51 319.314 30.653 335.351 C 51.977 326.1 68.974 323.579 83.272 321.477 C 90.84 320.337 97.626 319.375 103.753 317.514 L 101.712 312.829 C 95.105 314.149 88.617 314.812 82.132 315.534 L 82.132 315.53 Z M 77.989 303.636 C 59.907 304.296 42.189 304.955 25.251 319.795 C 47.117 312.104 64.294 310.784 78.71 309.705 C 86.339 309.105 93.186 308.564 99.431 307.122 L 97.687 302.315 C 91.019 303.155 84.473 303.395 77.984 303.636 L 77.989 303.636 Z M 74.685 291.501 C 56.547 290.901 38.823 290.299 20.925 303.994 C 43.272 297.807 60.51 297.689 74.986 297.566 C 82.615 297.505 89.463 297.505 95.768 296.486 L 94.387 291.562 C 87.78 291.982 81.174 291.741 74.684 291.501 L 74.685 291.501 Z M 72.22 279.188 C 54.2 277.326 36.542 275.464 17.74 287.835 C 40.444 283.269 57.626 284.353 72.041 285.253 C 79.671 285.734 86.517 286.153 92.945 285.611 L 91.866 280.625 C 85.136 280.507 78.652 279.844 72.224 279.184 L 72.22 279.188 Z M 70.599 266.695 C 52.758 263.571 35.279 260.507 15.638 271.558 C 38.645 268.556 55.703 270.837 69.997 272.76 C 77.627 273.782 84.413 274.683 90.84 274.561 L 90.12 269.514 C 83.39 268.972 76.967 267.831 70.596 266.691 L 70.599 266.695 Z M 69.879 254.141 C 52.278 249.815 35.039 245.493 14.677 255.164 C 37.862 253.783 54.742 257.265 68.856 260.149 C 76.364 261.709 83.092 263.094 89.52 263.453 L 89.162 258.348 C 82.554 257.326 76.188 255.705 69.879 254.145 L 69.879 254.141 Z M 69.997 241.587 C 52.819 236.003 35.878 230.537 14.917 238.764 C 38.103 238.944 54.682 243.571 68.616 247.473 C 76.005 249.575 82.612 251.379 88.979 252.219 L 88.979 247.053 C 82.491 245.612 76.246 243.571 69.997 241.587 Z M 71.019 229.034 C 54.262 222.304 37.801 215.64 16.237 222.366 C 39.422 224.227 55.643 229.995 69.215 234.859 C 76.481 237.38 82.97 239.722 89.218 240.985 L 89.577 235.881 C 83.149 233.959 77.084 231.498 71.014 229.034 L 71.019 229.034 Z M 72.942 216.602 C 56.665 208.672 40.686 200.924 18.763 206.15 C 41.708 209.576 57.505 216.48 70.722 222.248 C 77.749 225.31 83.998 228.073 90.246 229.755 L 90.906 224.651 C 84.6 222.308 78.715 219.425 72.946 216.601 L 72.942 216.602 Z M 75.704 204.35 C 60.025 195.278 44.588 186.451 22.364 190.113 C 45.008 195.16 60.266 203.148 73.06 209.816 C 79.908 213.36 85.973 216.545 91.981 218.647 L 93.06 213.661 C 86.995 210.899 81.345 207.596 75.7 204.35 L 75.704 204.35 Z M 79.308 192.276 C 64.29 182.187 49.577 172.273 27.109 174.378 C 49.394 180.985 64.05 189.995 76.302 197.563 C 82.848 201.588 88.734 205.192 94.563 207.715 L 96.005 202.79 C 90.12 199.547 84.653 195.942 79.308 192.276 Z M 83.753 180.504 C 69.455 169.392 55.463 158.459 32.938 159 C 54.682 167.167 68.678 177.2 80.392 185.611 C 86.64 190.056 92.225 194.019 97.871 196.964 L 99.671 192.157 C 94.086 188.552 88.861 184.527 83.753 180.503 L 83.753 180.504 Z M 88.979 169.09 C 75.525 157.017 62.31 145.123 39.785 144.104 C 60.93 153.713 74.205 164.707 85.317 173.897 C 91.203 178.821 96.49 183.208 101.957 186.512 L 104.058 181.827 C 98.713 177.803 93.785 173.419 88.982 169.094 L 88.979 169.09 Z M 95.044 158.039 C 82.429 145.066 70.116 132.271 47.712 129.689 C 68.075 140.801 80.568 152.634 91.02 162.606 C 96.547 167.893 101.534 172.638 106.759 176.3 L 109.162 171.794 C 104.115 167.469 99.553 162.723 95.047 158.038 L 95.044 158.039 Z M 109.342 137.376 C 98.65 122.719 88.258 108.423 66.393 102.716 C 85.074 116.532 95.766 129.987 104.715 141.339 C 109.46 147.347 113.725 152.753 118.409 157.136 L 121.411 152.994 C 117.028 147.947 113.183 142.664 109.338 137.377 L 109.342 137.376 Z M 117.509 127.824 C 107.9 112.508 98.466 97.429 77.146 90.223 C 94.804 105.359 104.478 119.535 112.646 131.49 C 116.972 137.796 120.874 143.445 125.199 148.187 L 128.503 144.223 C 124.479 138.936 120.995 133.351 117.509 127.824 Z M 126.34 118.874 C 117.871 102.894 109.521 87.22 88.678 78.569 C 105.257 94.846 113.966 109.684 121.233 122.178 C 125.139 128.785 128.621 134.731 132.647 139.717 L 136.191 136.052 C 132.525 130.467 129.461 124.638 126.341 118.875 L 126.34 118.874 Z M 135.831 110.585 C 128.442 94.067 121.175 77.848 101.053 67.758 C 116.43 85.118 124.06 100.553 130.488 113.53 C 133.912 120.378 136.976 126.565 140.639 131.791 L 144.423 128.365 C 141.119 122.541 138.476 116.532 135.832 110.585 L 135.831 110.585 Z M 145.803 102.956 C 139.615 85.958 133.489 69.257 114.149 57.787 C 128.263 76.227 134.813 92.146 140.279 105.481 C 143.224 112.63 145.863 118.935 149.11 124.464 L 153.195 121.278 C 150.312 115.27 148.03 109.087 145.807 102.956 L 145.803 102.956 Z M 178.659 84.516 C 176.137 66.556 173.612 49.016 157.033 33.701 C 167.005 54.723 170.129 71.603 172.712 85.84 C 174.093 93.408 175.355 100.138 177.396 106.203 L 182.019 103.922 C 180.459 97.433 179.555 90.948 178.655 84.521 L 178.659 84.516 Z M 202.386 76.165 C 202.386 58.083 202.325 40.365 188.032 22.886 C 195.001 45.048 195.722 62.23 196.321 76.706 C 196.623 84.335 196.919 91.183 198.122 97.428 L 202.985 95.867 C 202.386 89.261 202.386 82.714 202.386 76.164 L 202.386 76.165 Z M 227.014 71.241 C 229.535 53.342 231.999 35.741 220.284 16.458 C 224.069 39.403 222.386 56.523 220.945 70.878 C 220.224 78.507 219.564 85.355 219.865 91.722 L 224.911 90.882 C 225.213 84.153 226.114 77.668 227.014 71.241 Z M 253.441 88.96 L 258.545 89.139 C 265.034 64.21 279.507 44.087 269.477 15.435 C 268.398 38.56 263.229 55.02 258.846 68.776 C 256.504 76.104 254.463 82.65 253.44 88.959 L 253.441 88.96 Z M 242.15 89.139 L 247.315 88.96 C 248.578 82.292 250.317 76.047 252.122 69.799 C 257.107 52.381 261.972 35.322 253.022 14.597 C 253.621 37.844 249.597 54.54 246.175 68.598 C 244.374 76.048 242.749 82.774 242.15 89.14 L 242.15 89.139 Z M 417.91 184.463 C 435.931 182.541 453.532 180.679 469.389 164.642 C 448.065 173.893 431.068 176.357 416.77 178.458 C 409.14 179.599 402.354 180.621 396.289 182.422 L 398.329 187.107 C 404.936 185.786 411.424 185.123 417.91 184.463 L 417.91 184.463 Z M 385.356 131.005 C 401.633 123.017 417.552 115.208 426.982 94.724 C 410.102 110.703 394.965 118.871 382.232 125.779 C 375.503 129.445 369.437 132.688 364.334 136.533 L 367.878 140.199 C 373.645 136.716 379.532 133.833 385.356 131.009 L 385.356 131.005 Z M 357.666 105.416 C 371.902 94.304 385.898 83.371 390.823 61.327 C 377.67 80.427 364.514 91.6 353.523 100.973 C 347.698 105.959 342.473 110.403 338.265 115.209 L 342.468 118.094 C 347.332 113.527 352.5 109.445 357.665 105.421 L 357.666 105.416 Z M 347.336 98.268 C 360.729 86.133 373.947 74.239 377.307 51.957 C 365.535 71.961 353.222 84.035 342.888 94.125 C 337.421 99.47 332.496 104.276 328.652 109.384 L 333.034 111.967 C 337.601 107.042 342.464 102.654 347.332 98.272 L 347.336 98.268 Z M 336.464 91.901 C 349.079 78.866 361.392 66.073 363.193 43.608 C 352.802 64.39 341.389 77.245 331.779 88.057 C 326.733 93.763 322.17 98.867 318.684 104.216 L 323.249 106.497 C 327.393 101.27 331.958 96.587 336.463 91.902 L 336.464 91.901 Z M 313.637 81.388 C 324.269 66.732 334.659 52.377 333.34 29.852 C 326.012 51.836 316.46 66.191 308.472 78.207 C 304.207 84.573 300.422 90.342 297.718 96.105 L 302.582 97.665 C 306.007 91.898 309.849 86.614 313.632 81.388 L 313.637 81.388 Z M 264.683 89.555 L 269.73 90.097 C 271.892 83.791 274.537 77.783 277.18 71.836 C 284.569 55.319 291.775 39.099 285.77 17.294 C 283.127 40.361 276.821 56.398 271.472 69.852 C 268.65 76.939 266.129 83.306 264.686 89.555 L 264.683 89.555 Z M 233.568 69.314 C 232.247 76.882 231.103 83.668 230.985 90.035 L 236.089 89.493 C 239.091 63.905 250.565 42.039 236.63 15.012 C 238.855 38.079 235.971 55.077 233.568 69.313 L 233.568 69.314 Z M 156.32 96.043 C 151.334 78.625 146.41 61.566 127.848 48.772 C 140.643 68.113 146.108 84.45 150.675 98.206 C 153.078 105.473 155.24 111.962 158.125 117.729 L 162.39 114.846 C 159.925 108.54 158.125 102.292 156.324 96.043 L 156.32 96.043 Z M 167.314 89.856 C 163.53 72.198 159.807 54.776 142.206 40.723 C 153.62 60.964 157.885 77.604 161.489 91.66 C 163.411 99.049 165.094 105.718 167.555 111.603 L 171.998 109.021 C 170.014 102.654 168.634 96.227 167.313 89.86 L 167.314 89.856 Z M 190.381 79.945 C 189.119 61.864 187.86 44.145 172.361 27.746 C 180.89 49.372 182.753 66.488 184.374 80.846 C 185.213 88.476 185.995 95.262 187.616 101.449 L 192.361 99.526 C 191.282 92.92 190.858 86.431 190.378 79.945 L 190.381 79.945 Z M 214.647 73.278 C 215.848 55.196 217.111 37.538 204.077 19.159 C 209.42 41.684 208.94 58.923 208.581 73.338 C 208.341 81.028 208.162 87.876 208.883 94.242 L 213.869 92.98 C 213.75 86.312 214.17 79.766 214.651 73.277 L 214.647 73.278 Z M 275.796 90.997 L 280.842 91.898 C 290.814 68.11 307.934 50.21 301.926 20.419 C 297.661 43.184 290.212 58.741 283.966 71.776 C 280.663 78.684 277.718 84.811 275.799 90.998 L 275.796 90.997 Z M 301.743 77.363 C 311.294 61.987 320.663 46.911 317.78 24.565 C 311.954 47.03 303.482 61.987 296.337 74.541 C 292.553 81.209 289.188 87.156 286.846 93.16 L 291.832 94.423 C 294.835 88.358 298.321 82.83 301.742 77.363 L 301.743 77.363 Z M 325.23 86.194 C 336.884 72.378 348.236 58.745 348.537 36.218 C 339.588 57.661 329.136 71.298 320.305 82.711 C 315.62 88.776 311.416 94.243 308.292 99.771 L 313.037 101.754 C 316.883 96.227 321.086 91.184 325.229 86.197 L 325.23 86.194 Z M 101.843 147.461 C 90.189 133.588 78.718 120.012 56.552 115.865 C 76.193 128.358 87.786 141.034 97.517 151.727 C 102.682 157.372 107.309 162.481 112.234 166.505 L 114.995 162.179 C 110.249 157.495 106.046 152.448 101.842 147.462 L 101.843 147.461 Z M 359.351 140.675 C 298.984 80.309 201.081 80.309 140.71 140.675 C 80.343 201.042 80.343 298.945 140.71 359.316 C 201.077 419.682 298.98 419.682 359.351 359.316 C 419.717 298.949 419.717 201.046 359.351 140.675 Z" fill="#ff814a" fill-rule="evenodd"/>
</svg>